<?xml version="1.0" encoding="utf-8"?>
<!-- Generator: Adobe Illustrator 16.0.0, SVG Export Plug-In . SVG Version: 6.00 Build 0)  -->
<!DOCTYPE svg PUBLIC "-//W3C//DTD SVG 1.1//EN" "http://www.w3.org/Graphics/SVG/1.1/DTD/svg11.dtd">
<svg version="1.1" id="Layer_1" xmlns="http://www.w3.org/2000/svg" xmlns:xlink="http://www.w3.org/1999/xlink" x="0px" y="0px"
	 width="362px" height="129.6px" viewBox="0 0 362 129.6" style="enable-background:new 0 0 362 129.6;" xml:space="preserve">
<g>
	<path style="fill:#00A038;" d="M256,129.6H105v-41h151V129.6z M108,126.6h145v-35H108V126.6z"/>
	<g>
		<path style="fill:#00A038;" d="M121,117.4l1.4-2.4c0.7,0.8,1.7,1.5,3,1.5c1.9,0,3.1-1.3,3.1-3.2v-12h3.1v12.1c0,4-2.5,5.9-5.9,5.9
			C123.9,119.3,122.3,118.7,121,117.4z"/>
		<path style="fill:#00A038;" d="M140.7,112v-10.7h3.1v10.6c0,2.8,1.6,4.6,4.5,4.6c2.9,0,4.5-1.8,4.5-4.6v-10.6h3.1V112
			c0,4.4-2.5,7.3-7.6,7.3C143.2,119.3,140.7,116.3,140.7,112z"/>
		<path style="fill:#00A038;" d="M177.4,119l-9.2-12.6V119h-3.1v-17.6h3.2l9,12.2v-12.2h3.1V119H177.4z"/>
		<path style="fill:#00A038;" d="M189.6,119v-17.6h3.1V119H189.6z"/>
		<path style="fill:#00A038;" d="M200.9,110.2c0-5.3,3.7-9.1,9-9.1s9,3.9,9,9.1c0,5.3-3.7,9.1-9,9.1S200.9,115.4,200.9,110.2z
			 M215.8,110.2c0-3.6-2.3-6.4-5.8-6.4c-3.6,0-5.8,2.7-5.8,6.4c0,3.6,2.3,6.4,5.8,6.4C213.5,116.5,215.8,113.8,215.8,110.2z"/>
		<path style="fill:#00A038;" d="M237.3,119l-3.9-6.6h-3.1v6.6h-3.1v-17.6h7.7c3.5,0,5.8,2.3,5.8,5.5c0,3.1-2.1,4.8-4.2,5.2l4.3,6.9
			H237.3z M237.6,106.8c0-1.7-1.3-2.8-3-2.8h-4.2v5.6h4.2C236.3,109.7,237.6,108.5,237.6,106.8z"/>
	</g>
</g>
<path style="fill:#00A038;" d="M321.5,78.6c-23.5,0-40.6-16.5-40.6-39.3S298,0,321.5,0C345,0,362,16.5,362,39.3S345,78.6,321.5,78.6
	z M321.5,3c-21.8,0-37.6,15.3-37.6,36.3s15.8,36.3,37.6,36.3c21.7,0,37.5-15.3,37.5-36.3S343.2,3,321.5,3z M105.6,78.6
	C82.1,78.6,65,62,65,39.3S82.1,0,105.6,0c23.5,0,40.5,16.5,40.5,39.3S129.1,78.6,105.6,78.6z M105.6,3C83.8,3,68,18.3,68,39.3
	s15.8,36.3,37.6,36.3c21.7,0,37.5-15.3,37.5-36.3S127.3,3,105.6,3z M259.8,77.2h-44.2v-76h42.9c15.7,0,22.9,10.4,22.9,20.1
	c0,7.4-3.6,13.6-9.3,16.6c6.4,3,10.8,10,10.8,18C282.7,66.5,275.6,77.2,259.8,77.2z M218.6,74.2h41.2c14.7,0,20-9.9,20-18.3
	c0-8.2-5.4-15.3-12.6-16.4l-7.9-1.2l7.8-1.7c6.9-1.5,11.3-7.5,11.3-15.3c0-8.2-6.2-17.1-19.9-17.1h-39.9V74.2z M191.7,77.2h-44.2
	v-76h42.9c15.7,0,22.9,10.4,22.9,20.1c0,7.4-3.6,13.6-9.3,16.6c6.4,3,10.8,10,10.8,18C214.6,66.5,207.5,77.2,191.7,77.2z
	 M150.4,74.2h41.2c14.7,0,20-9.9,20-18.3c0-8.2-5.4-15.3-12.6-16.4l-7.9-1.2l7.8-1.7c6.9-1.5,11.3-7.5,11.3-15.3
	c0-8.2-6.2-17.1-19.9-17.1h-39.9V74.2z M66.4,77.2h-25L29,52.7h-7.2v24.5H0v-76h38.1C54.2,1.2,65,11.6,65,27
	c0,12.2-6.9,19.5-13.9,22.7L66.4,77.2z M43.2,74.2h18.1L46.7,48.1l1.7-0.6C51.6,46.4,62,41.6,62,27c0-13.6-9.6-22.8-23.9-22.8H3v70
	h15.8V49.7h12.1L43.2,74.2z M321.5,61.9c-12.4,0-21.4-9.5-21.4-22.6c0-13.3,8.8-22.6,21.4-22.6c12.6,0,21.3,9.3,21.3,22.6
	C342.8,52.4,333.9,61.9,321.5,61.9z M321.5,19.6c-10.9,0-18.4,8.1-18.4,19.6s7.6,19.6,18.4,19.6c10.8,0,18.3-8.1,18.3-19.6
	S332.3,19.6,321.5,19.6z M105.6,61.9c-12.4,0-21.4-9.5-21.4-22.6c0-13.3,8.8-22.6,21.4-22.6c12.6,0,21.3,9.3,21.3,22.6
	C126.9,52.4,118,61.9,105.6,61.9z M105.6,19.6c-10.9,0-18.4,8.1-18.4,19.6s7.6,19.6,18.4,19.6c10.8,0,18.3-8.1,18.3-19.6
	S116.4,19.6,105.6,19.6z M254.8,61.4h-20.4V45.2h20.4c5.1,0,8.7,3.3,8.7,8.1C263.6,58.1,260.1,61.4,254.8,61.4z M237.4,58.4h17.4
	c3.6,0,5.7-1.9,5.7-5.1c0-3.1-2.2-5.1-5.7-5.1h-17.4V58.4z M186.7,61.4h-20.4V45.2h20.4c5.1,0,8.7,3.3,8.7,8.1
	C195.5,58.1,191.9,61.4,186.7,61.4z M169.3,58.4h17.4c3.6,0,5.7-1.9,5.7-5.1c0-3.1-2.2-5.1-5.7-5.1h-17.4V58.4z M35.2,36.3H18.8
	V17.6h16.4c6.2,0,10.6,3.8,10.6,9.3C45.8,32.4,41.5,36.3,35.2,36.3z M21.8,33.3h13.4c3.5,0,7.6-1.7,7.6-6.4c0-4.3-3.8-6.3-7.6-6.3
	H21.8V33.3z M254.2,32.2h-19.8V17.1h19.8c4.6,0,8,3.2,8,7.5C262.1,29,258.8,32.2,254.2,32.2z M237.4,29.2h16.8c3,0,5-1.8,5-4.6
	c0-2.7-2-4.5-5-4.5h-16.8V29.2z M186.1,32.2h-19.8V17.1h19.8c4.6,0,8,3.2,8,7.5C194,29,190.7,32.2,186.1,32.2z M169.3,29.2h16.8
	c3,0,5-1.8,5-4.6c0-2.7-2-4.5-5-4.5h-16.8V29.2z"/>
</svg>
