<?xml version="1.0" encoding="UTF-8" standalone="no"?>
<!-- Generator: Adobe Illustrator 15.0.0, SVG Export Plug-In . SVG Version: 6.00 Build 0)  -->

<svg
   xmlns:dc="http://purl.org/dc/elements/1.1/"
   xmlns:cc="http://creativecommons.org/ns#"
   xmlns:rdf="http://www.w3.org/1999/02/22-rdf-syntax-ns#"
   xmlns:svg="http://www.w3.org/2000/svg"
   xmlns="http://www.w3.org/2000/svg"
   xmlns:sodipodi="http://sodipodi.sourceforge.net/DTD/sodipodi-0.dtd"
   xmlns:inkscape="http://www.inkscape.org/namespaces/inkscape"
   version="1.1"
   id="Layer_1"
   x="0px"
   y="0px"
   width="76px"
   height="66px"
   viewBox="0 0 76 66"
   enable-background="new 0 0 76 66"
   xml:space="preserve"
   sodipodi:docname="Stop.svg"
   inkscape:version="0.92.1 r15371"><metadata
     id="metadata23"><rdf:RDF><cc:Work
         rdf:about=""><dc:format>image/svg+xml</dc:format><dc:type
           rdf:resource="http://purl.org/dc/dcmitype/StillImage" /><dc:title /></cc:Work></rdf:RDF></metadata><defs
     id="defs21" /><sodipodi:namedview
     pagecolor="#ffffff"
     bordercolor="#666666"
     borderopacity="1"
     objecttolerance="10"
     gridtolerance="10"
     guidetolerance="10"
     inkscape:pageopacity="0"
     inkscape:pageshadow="2"
     inkscape:window-width="985"
     inkscape:window-height="1008"
     id="namedview19"
     showgrid="false"
     inkscape:zoom="6.269738"
     inkscape:cx="25.522465"
     inkscape:cy="49.49656"
     inkscape:window-x="454"
     inkscape:window-y="0"
     inkscape:window-maximized="0"
     inkscape:current-layer="Layer_1" /><path
     d="M 45.828,13.912 H 29.904 L 18.646,25.172 V 41.096 L 29.904,52.354 H 45.828 L 57.088,41.096 V 25.172 Z m 4.606,23.647 c 0,0 -3.781,7.787 -4.434,8.441 -1.555,1.551 -3.641,3 -6,3 l -3.607,0.17 C 29.516,49.17 27,45.455 27,40 V 24 c 0,-1 0.641829,-1.557 1.595829,-1.557 C 29.547829,22.443 30,23.047 30,24 v 7 c 0,2 2,2 2,0 V 20 c 0,-0.953 0.576189,-1.745433 1.530189,-1.745433 C 34.484189,18.254567 35,19.047 35,20 v 11 c 0,1 2,0.977 2,0 V 19 c 0,-0.951 0.541748,-1.921937 1.495748,-1.921937 C 39.448748,17.078063 40,18.049 40,19 v 12 c 0,1 2,1 2,0 V 21 c 0,-1 0.479319,-2.112781 1.479319,-2.112781 h 0.125948 C 44.557267,18.887219 45,20 45,21 l -0.034,14.807 v 1.355 c 0,1.482 1.714,-2.072 2.272,-2.77 1.205,-1.5 3.4,-1.551 4.465,-0.676 1.067,0.878 -0.728,3.184 -1.269,3.843 z"
     id="path10"
     style="fill:#005500"
     inkscape:connector-curvature="0"
     sodipodi:nodetypes="cccccccccccccsssssssssssssssssssccsccc" /><path
     d="M 30.318,51.354 19.646,40.682 V 25.586 L 30.318,14.912 H 45.414 L 56.088,25.586 V 40.682 L 45.414,51.354 Z M 28.765,21.443 C 27.163,21.443 26,22.519 26,24 v 16 c 0,6.652 3.593,10.17 10.393,10.17 0,0 3.657,-0.171 3.658,-0.171 2.213,0 4.469,-1.106 6.656,-3.291 0.664,-0.667 3.127,-5.63 4.575,-8.606 0.397,-0.492 0.917,-1.199 1.284,-1.936 0.935,-1.872 0.258,-2.821 -0.229,-3.221 -0.628,-0.516 -1.489,-0.801 -2.428,-0.801 -1.364,0 -2.622,0.591 -3.45,1.622 -0.137,0.17 -0.291,0.41 -0.488,0.744 L 46,21.002 C 46,20.18 45.689852,17.844927 43.689852,17.844927 H 43.507513 C 41.514513,17.844927 41,20.013 41,20.99 V 19 C 41,17.399 39.940685,16.098 38.515685,16.098 37.115685,16.098 36,17.318 36,19 v 1 C 36,18.441 35.054,17.294441 33.59,17.294441 32.065,17.294441 31,18.489 31,20 v 11 -7 c 0,-2.308 -1.563,-2.557 -2.235,-2.557 z"
     id="path12"
     inkscape:connector-curvature="0"
     style="fill:#ffffff"
     sodipodi:nodetypes="cccccccccssscsccccscccsscssscsscss" /><path
     d="M27.586,58L13,43.414V22.586L27.586,8h20.828L63,22.586v20.828L48.414,58H27.586z M46.586,54L59,41.586  V24.414L46.586,12H29.414L17,24.414v17.172L29.414,54H46.586z"
     id="path14"
     fill="#A8721B"
     style="fill:#005500" /><path
     d="M48,9h-9h-1H28L14,23v20l14,14h10h1h9l14-14V23L48,9z M60,42L47,55h-8h-1h-9L16,42V24l13-13h9h1h8l13,13V42z  "
     id="path16"
     fill="#FFFFFF" /></svg>