<?xml version="1.0" encoding="UTF-8" standalone="no"?>
<!-- Generator: Adobe Illustrator 15.0.0, SVG Export Plug-In . SVG Version: 6.00 Build 0)  -->

<svg
   xmlns:dc="http://purl.org/dc/elements/1.1/"
   xmlns:cc="http://creativecommons.org/ns#"
   xmlns:rdf="http://www.w3.org/1999/02/22-rdf-syntax-ns#"
   xmlns:svg="http://www.w3.org/2000/svg"
   xmlns="http://www.w3.org/2000/svg"
   xmlns:sodipodi="http://sodipodi.sourceforge.net/DTD/sodipodi-0.dtd"
   xmlns:inkscape="http://www.inkscape.org/namespaces/inkscape"
   version="1.1"
   id="Layer_1"
   x="0px"
   y="0px"
   width="76px"
   height="66px"
   viewBox="0 0 76 66"
   enable-background="new 0 0 76 66"
   xml:space="preserve"
   sodipodi:docname="Back_green.svg"
   inkscape:version="0.92.1 r15371"><metadata
     id="metadata36"><rdf:RDF><cc:Work
         rdf:about=""><dc:format>image/svg+xml</dc:format><dc:type
           rdf:resource="http://purl.org/dc/dcmitype/StillImage" /><dc:title /></cc:Work></rdf:RDF></metadata><defs
     id="defs34" /><sodipodi:namedview
     pagecolor="#ffffff"
     bordercolor="#666666"
     borderopacity="1"
     objecttolerance="10"
     gridtolerance="10"
     guidetolerance="10"
     inkscape:pageopacity="0"
     inkscape:pageshadow="2"
     inkscape:window-width="1007"
     inkscape:window-height="634"
     id="namedview32"
     showgrid="false"
     inkscape:snap-global="true"
     inkscape:snap-nodes="false"
     inkscape:snap-center="true"
     inkscape:zoom="14.73"
     inkscape:cx="38"
     inkscape:cy="31.366691"
     inkscape:window-x="725"
     inkscape:window-y="230"
     inkscape:window-maximized="0"
     inkscape:current-layer="Layer_1"
     showguides="true"
     inkscape:guide-bbox="true"><sodipodi:guide
       position="28.499,33.361"
       orientation="0,1"
       id="guide23"
       inkscape:locked="false" /></sodipodi:namedview><path
     style="fill:#008000"
     inkscape:connector-curvature="0"
     id="path10"
     d="m 53.864223,28.639 c 0,-2.209 1.791,-4 4,-4 h 1 c 2.209,0 4,1.791 4,4 v 8 c 0,2.209 -1.791,4 -4,4 h -1 c -2.209,0 -4,-1.791 -4,-4 z" /><path
     style="fill:#ffffff"
     inkscape:connector-curvature="0"
     id="path12"
     d="m 54.864223,28.639 c 0,-1.657 1.343,-3 3,-3 h 1 c 1.657,0 3,1.343 3,3 v 8 c 0,1.657 -1.343,3 -3,3 h -1 c -1.657,0 -3,-1.343 -3,-3 z" /><path
     style="fill:#008000"
     inkscape:connector-curvature="0"
     id="path16"
     d="m 44,28.639 c 0,-2.209 1.791,-4 4,-4 h 1 c 2.209,0 4,1.791 4,4 v 8 c 0,2.209 -1.791,4 -4,4 h -1 c -2.209,0 -4,-1.791 -4,-4 z" /><g
     id="g24"
     style="fill:#008000"><path
       style="fill:#008000"
       inkscape:connector-curvature="0"
       id="path22"
       d="m 42.859,36.973 c 0,0.877 -0.26,1.689 -0.926,2.284 -0.779,0.7 -1.783,1.034 -2.942,0.917 l -2.612,-0.479 c -0.539,-0.059 -1.017,0.061 -1.309,0.322 -0.182,0.166 -0.275,0.376 -0.275,0.626 0,0.042 0.002,0.085 0.014,0.188 l 0.246,3.979 c 0.022,0.189 0.035,0.378 0.035,0.562 v 0 c 0,1.074 -0.398,1.97 -1.154,2.597 -0.776,0.646 -1.896,0.971 -3.33,0.971 -4.018,0 -13.385,-11.339 -15.354,-13.778 -0.72,-0.672 -1.115,-1.565 -1.115,-2.522 0,-0.959 0.396,-1.853 1.121,-2.528 2.756,-3.303 11.775,-13.774 15.348,-13.774 3.306,0 4.479,1.957 4.479,3.631 0,0.164 -0.01,0.33 -0.025,0.439 0,0 -0.27,4.184 -0.27,4.227 0,0.25 0.086,0.461 0.27,0.626 0.291,0.262 0.755,0.381 1.295,0.325 l 2.586,-0.48 c 1.159,-0.121 2.217,0.213 2.996,0.916 0.664,0.6 0.924,1.412 0.924,2.288 v 8.663 z" /></g><g
     id="g28"
     transform="translate(0.001375,-0.002)"><path
       style="fill:#ffffff"
       inkscape:connector-curvature="0"
       id="path26"
       d="m 30.606,47.945 c 2.783,0 3.66,-1.354 3.457,-3.009 l -0.252,-4.037 c -0.166,-1.379 1.034,-2.366 2.672,-2.196 l 2.612,0.479 c 1.638,0.17 2.764,-0.655 2.764,-2.042 v -9 c 0,-1.387 -1.126,-2.211 -2.764,-2.041 l -2.612,0.48 c -1.638,0.17 -2.838,-0.818 -2.672,-2.197 l 0.252,-4.037 c 0.203,-1.654 -0.908,-3.008 -3.457,-3.008 -3.402,0 -14.623,13.467 -14.623,13.467 -1.129,1.01 -1.129,2.663 0,3.674 0,10e-4 10.846,13.467 14.623,13.467 z" /></g><path
     d="m 45,28.639 c 0,-1.657 1.343,-3 3,-3 h 1 c 1.657,0 3,1.343 3,3 v 8 c 0,1.657 -1.343,3 -3,3 h -1 c -1.657,0 -3,-1.343 -3,-3 z"
     id="path236"
     inkscape:connector-curvature="0"
     style="fill:#ffffff" /><g
     style="fill:#008000"
     id="g240"><path
       d="m 42.859,36.973 c 0,0.877 -0.26,1.689 -0.926,2.284 -0.779,0.7 -1.783,1.034 -2.942,0.917 l -2.612,-0.479 c -0.539,-0.059 -1.017,0.061 -1.309,0.322 -0.182,0.166 -0.275,0.376 -0.275,0.626 0,0.042 0.002,0.085 0.014,0.188 l 0.246,3.979 c 0.022,0.189 0.035,0.378 0.035,0.562 v 0 c 0,1.074 -0.398,1.97 -1.154,2.597 -0.776,0.646 -1.896,0.971 -3.33,0.971 -4.018,0 -13.385,-11.339 -15.354,-13.778 -0.72,-0.672 -1.115,-1.565 -1.115,-2.522 0,-0.959 0.396,-1.853 1.121,-2.528 2.756,-3.303 11.775,-13.774 15.348,-13.774 3.306,0 4.479,1.957 4.479,3.631 0,0.164 -0.01,0.33 -0.025,0.439 0,0 -0.27,4.184 -0.27,4.227 0,0.25 0.086,0.461 0.27,0.626 0.291,0.262 0.755,0.381 1.295,0.325 l 2.586,-0.48 c 1.159,-0.121 2.217,0.213 2.996,0.916 0.664,0.6 0.924,1.412 0.924,2.288 v 8.663 z"
       id="path238"
       inkscape:connector-curvature="0"
       style="fill:#008000" /></g><g
     transform="translate(0.001375,-0.002)"
     id="g244"><path
       d="m 30.606,47.945 c 2.783,0 3.66,-1.354 3.457,-3.009 l -0.252,-4.037 c -0.166,-1.379 1.034,-2.366 2.672,-2.196 l 2.612,0.479 c 1.638,0.17 2.764,-0.655 2.764,-2.042 v -9 c 0,-1.387 -1.126,-2.211 -2.764,-2.041 l -2.612,0.48 c -1.638,0.17 -2.838,-0.818 -2.672,-2.197 l 0.252,-4.037 c 0.203,-1.654 -0.908,-3.008 -3.457,-3.008 -3.402,0 -14.623,13.467 -14.623,13.467 -1.129,1.01 -1.129,2.663 0,3.674 0,10e-4 10.846,13.467 14.623,13.467 z"
       id="path242"
       inkscape:connector-curvature="0"
       style="fill:#ffffff" /></g></svg>