<?xml version="1.0" encoding="utf-8"?>
<!-- Generator: Adobe Illustrator 16.0.0, SVG Export Plug-In . SVG Version: 6.00 Build 0)  -->
<!DOCTYPE svg PUBLIC "-//W3C//DTD SVG 1.1//EN" "http://www.w3.org/Graphics/SVG/1.1/DTD/svg11.dtd">
<svg version="1.1" id="Layer_1" xmlns="http://www.w3.org/2000/svg" xmlns:xlink="http://www.w3.org/1999/xlink" x="0px" y="0px"
	 width="371px" height="164px" viewBox="0 0 371 164" enable-background="new 0 0 371 164" xml:space="preserve">
<g>
	<polygon fill="#363636" points="9.6,111.8 9.6,136.4 29.6,135.2 28.8,119.1 	"/>
	<path fill="#FFD353" d="M216.7,7.2c-6.8,0-36.3-1.5-57.6,9.2c-21.4,10.7-64,36.8-66.2,36.8s-8.8,0.5-13.5,1.2
		c-21.9,3.1-55,15.2-60.9,22.2s-4.9,15.5-6.9,18.8s-5,2.9-5,8.5c0,5.5,0,5.4,0,7c0,1.6-0.3,4.1,3.3,4.1S22,122.2,22,127.1
		c0,4.9-2.8,4.6-4.6,4.6c-1.8,0-10,0-10.8,0c-0.8,0-1.7,1.5-1.1,4s3.3,6.6,9.8,6.6s281,0,281,0s26.3-6.8,35.7-6.8s18.8,0,21,0
		c2.2,0,6-4.8,8-11s3.8-19.9,3.1-21.8c-0.6-1.9-6.4-5-6.4-8.9s0-33.5,0-35c0-1.5-27.9-35.9-28.2-36.1c-0.3-0.2,2.7-1.9,1.6-2.9
		c-1.1-1-51.2-12.7-68.3-12.7S216.7,7.2,216.7,7.2z"/>
	<path fill="#F7C045" d="M13,90.4c-0.4,2.1-0.7,3.8-1.4,5c-2,3.3-5,2.9-5,8.5c0,5.5,0,5.4,0,7c0,1.6-0.3,4.1,3.3,4.1
		S22,122.2,22,127.1c0,4.9-2.8,4.6-4.6,4.6c-1.8,0-10,0-10.8,0c-0.8,0-1.7,1.5-1.1,4s3.3,6.6,9.8,6.6s281,0,281,0s26.3-6.8,35.7-6.8
		s18.8,0,21,0c2.2,0,6-4.8,8-11s3.8-19.9,3.1-21.8c-0.6-1.9-6.4-5-6.4-8.9c0-0.6,0-1.8,0-3.4H13z"/>
	<g>
		<path fill="#BDBDBC" d="M218.3,136.4h-81.8c-5.1,0-6.5-1.4-6.5-6.5V72.9c0-18.9,12-27.2,12.1-27.2l0.5,0.7
			c-0.1,0.1-11.8,8.1-11.8,26.6v56.9c0,4.7,1,5.7,5.7,5.7h81.8c3.5,0,6.4-0.5,6.4-6.4V74c0-5.9,1-11.8,3.3-19.1l0.8,0.2
			c-2.3,7.3-3.3,13.1-3.3,18.8v55C225.5,135.8,222,136.4,218.3,136.4z"/>
	</g>
	<g>
		<g>
			<path fill="#646464" d="M320.7,99.6c-18.4,0-33.4,15-33.4,33.4v9.3c5.8,0,9.1,0,9.1,0s26.3-6.8,35.7-6.8s18.8,0,21,0
				c0.3,0,0.7-0.1,1.1-0.3V133C354.1,114.6,339.1,99.6,320.7,99.6z"/>
			<path fill="#646464" d="M109.5,133c0-18.4-15-33.4-33.4-33.4s-33.4,15-33.4,33.4v9.3c17.1,0,40.8,0,66.9,0V133z"/>
		</g>
		<g>
			<circle fill="#363636" cx="76.1" cy="133" r="28.6"/>
			<circle fill="#2E2F2F" cx="76.1" cy="133" r="22.3"/>
			<circle fill="#C3C2C2" cx="76.1" cy="133" r="20.1"/>
			<circle fill="#8C8C8C" cx="76.1" cy="133" r="17.6"/>
			<circle fill="#2A292A" cx="76.1" cy="133" r="15.8"/>
			<circle fill="#C3C2C2" cx="76.1" cy="133" r="3.6"/>
			<polygon fill="#C3C2C2" points="79.4,131.9 72.8,131.9 74.3,114 77.8,114 			"/>
			<polygon fill="#C3C2C2" points="76.1,129.5 74,135.8 57.5,128.8 58.5,125.4 			"/>
			<polygon fill="#C3C2C2" points="72.8,131.9 78.1,135.8 66.3,149.4 63.5,147.3 			"/>
			<polygon fill="#C3C2C2" points="74,135.8 79.4,131.9 88.7,147.3 85.8,149.4 			"/>
			<polygon fill="#C3C2C2" points="78.1,135.8 76.1,129.5 93.6,125.4 94.7,128.8 			"/>
		</g>
		<g>
			<circle fill="#363636" cx="320.7" cy="133" r="28.6"/>
			<circle fill="#2E2F2F" cx="320.7" cy="133" r="22.3"/>
			<path fill="#C3C2C2" d="M340.7,133c0,11.1-9,20.1-20.1,20.1c-11.1,0-20-9-20-20.1c0-11.1,9-20,20-20
				C331.8,112.9,340.7,121.9,340.7,133z"/>
			<circle fill="#8C8C8C" cx="320.7" cy="133" r="17.6"/>
			<circle fill="#2A292A" cx="320.7" cy="133" r="15.8"/>
			<circle fill="#C3C2C2" cx="320.7" cy="133" r="3.6"/>
			<polygon fill="#C3C2C2" points="324,131.9 317.4,131.9 318.9,114 322.5,114 			"/>
			<polygon fill="#C3C2C2" points="320.7,129.5 318.7,135.8 302.1,128.8 303.2,125.4 			"/>
			<polygon fill="#C3C2C2" points="317.4,131.9 322.7,135.8 310.9,149.4 308.1,147.3 			"/>
			<polygon fill="#C3C2C2" points="318.7,135.8 324,131.9 333.3,147.3 330.4,149.4 			"/>
			<polygon fill="#C3C2C2" points="322.7,135.8 320.7,129.5 338.2,125.4 339.3,128.8 			"/>
		</g>
	</g>
	<path fill="#555555" d="M356.9,57.4c-1.4,0-3,0-4.8,0c-6.8,0-7.6-1.1-9.3-2.9c-1.7-1.8-11.9-20.3-14.3-24.9s-1.4-5.8,1.7-5.8
		c0.1,0,0.1,0,0.2,0C334.6,28.8,352.8,51.3,356.9,57.4z M308.7,30.9c1-2.1,0.9-6.4-8.3-8.4c-5.8-1.3-37-4.7-74.7-4.7
		c-9.5,0-26.2-1.8-47.8,6.6c-21.5,8.4-40.5,24.6-41.1,27.9c-0.7,3.3-1,7.5,6.4,7.5s136.4,0,140.7,0c4.3,0,9.4-1,13-7.2
		C300.4,46.4,307.7,33,308.7,30.9z M102.1,56.2c4.4,1.1,9.3,0.8,14.6-3.2c5.4-4,25-18.6,33-23.2c8-4.6,16-9.4,18-10.4
		c2-0.9,1.7-3.3-1.7-3.9c-1.1-0.2-2.9-0.2-4.8-0.2c-0.8,0.3-1.5,0.7-2.3,1.1c-21.4,10.7-64,36.8-66.2,36.8
		C96.5,54.5,100.2,55.7,102.1,56.2z"/>
	<path fill="#2A292A" d="M215.3,59.8c6.5,0,12.9,0,19.1,0l5-41.8c-3.6-0.1-7.3-0.1-11-0.1L215.3,59.8z"/>
	<path fill="#FFFFFF" d="M65.9,67.4c0,0-26.4,3-33.7,6.5C24.9,77.3,19,86.7,18.6,90.4c-0.4,3.7,1.5,4.7,5.2,3
		c3.7-1.7,24.9-11.1,27.8-12.7S70.5,66.8,65.9,67.4z"/>
	<path fill="#EF7951" d="M34.9,88.5c7-3.2,15-6.8,16.7-7.7c2.9-1.6,19-14,14.4-13.4c0,0-9.8,1.1-19.1,2.8
		C43.1,74.7,38.1,81.3,34.9,88.5z"/>
	<path fill="#EF7951" d="M350.1,59.8c-2,0-3.6,1.6-3.6,3.6v19c0,2,1.6,3.6,3.6,3.6h7.7c0-9,0-22.5,0-26.2H350.1z"/>
	<g>
		<path fill="#BDBDBC" d="M320.9,79.8c-5.1,0-9.3-4.1-9.3-9.3s4.1-9.3,9.3-9.3s9.3,4.1,9.3,9.3S326,79.8,320.9,79.8z M320.9,62.1
			c-4.6,0-8.4,3.8-8.4,8.4s3.8,8.4,8.4,8.4c4.6,0,8.4-3.8,8.4-8.4S325.6,62.1,320.9,62.1z"/>
	</g>
	<g>
		<path fill="#8A8A8A" d="M181.8,59.8L202,18.4c-7.1,0.8-15.2,2.6-24.1,6.1c-2,0.8-4,1.6-5.9,2.5l-16,32.8
			C162.8,59.8,171.8,59.8,181.8,59.8z"/>
		<path fill="#8A8A8A" d="M225.6,17.8c-3.5,0-7.9-0.2-13.1-0.1L192,59.8c4.3,0,8.7,0,13.2,0L225.6,17.8z"/>
		<path fill="#8A8A8A" d="M297.5,22c-4.7-0.7-13.3-1.7-24.6-2.5l-19.6,40.3c11.3,0,20.6,0,25.9,0L297.5,22z"/>
	</g>
</g>
</svg>
