<?xml version="1.0" encoding="utf-8"?>
<!-- Generator: Adobe Illustrator 16.0.2, SVG Export Plug-In . SVG Version: 6.00 Build 0)  -->
<!DOCTYPE svg PUBLIC "-//W3C//DTD SVG 1.1//EN" "http://www.w3.org/Graphics/SVG/1.1/DTD/svg11.dtd">
<svg version="1.1" id="Layer_1" xmlns="http://www.w3.org/2000/svg" xmlns:xlink="http://www.w3.org/1999/xlink" x="0px" y="0px"
	 width="534px" height="220px" viewBox="0 0 534 220" enable-background="new 0 0 534 220" xml:space="preserve">
<g>
	<path fill-rule="evenodd" clip-rule="evenodd" fill="#335898" d="M108.557,72.465c-2.642,2.84-4.721,6.116-7.089,9.169
		c-0.997,1.287-1.972,2.591-2.955,3.888c-0.506,0.882-1.3,1.523-1.918,2.312l0.016-0.021c-0.262,2.271-2.252,3.288-3.535,4.804
		c-1.977,2.338-4.022,4.615-6.117,6.849c-5.674,6.292-10.805,13.045-16.388,19.414c-2.851,3.252-5.753,6.461-8.57,9.742
		c-1.542,1.795-2.961,3.696-4.425,5.558c-1.065,1.356-2.206,2.631-3.706,3.528c-0.75,0.29-0.9,1.059-1.3,1.629
		c-2.084,3.48-4.893,6.413-7.276,9.668c-1.7,2.322-3.209,4.776-4.858,7.133c-0.188,0.271-0.325,0.575-0.084,0.898
		c0.873-0.083,1.777,0.04,2.586-0.429c2.084-1.836,3.593-4.152,5.314-6.295c2.486-3.09,4.907-6.239,7.891-8.888
		c1.023-0.909,1.728-2.082,2.611-3.105c2.902-3.368,6.16-6.37,9.484-9.306c1.719-1.518,3.209-3.263,4.774-4.925
		c6.197-6.592,13.045-12.432,20.478-17.554c8.914-6.143,18.684-10.551,29.066-13.587c3.133-0.916,6.148-2.242,9.408-2.724
		c0.416-0.062,0.827-0.163,1.249-0.169c6.679-0.1,13.321-0.816,19.986-1.154c5.358-0.272,10.701-0.784,16.066-0.991
		c1.667-0.064,3.328-0.395,5.011-0.465c1.547-0.065,3.075-0.042,4.603,0.244c0.575,0.108,1.189,0.331,1.757-0.08
		c0.512-1.2-0.121-2.557,0.51-3.741c1.074-5.122,2.679-10.063,5.027-14.754c0.354-0.71,0.857-1.329,1.217-2.035
		c1.563-2.958,3.329-5.789,5.31-8.488c0.36-0.491,0.762-0.933,1.233-1.316c1.435-1.498,2.732-3.129,4.363-4.435
		c1.355-1.597,3.174-2.616,4.822-3.846c0.799-0.708,1.811-1.028,2.745-1.49c2.05-1.198,4.219-2.16,6.338-3.219
		c0.724-0.369,1.49-0.638,2.255-0.916c0.72-0.278,1.44-0.548,2.192-0.735c2.092-0.852,4.286-1.363,6.465-1.93
		c6.313-1.352,12.617-2.774,19.146-2.403c0.307-0.048,0.615-0.098,0.873-0.291c0.042-1.13,0.611-1.451,1.749-1.612
		c1.78-0.253,3.6-0.194,5.351-0.652c0.866-0.226,1.537,0.023,1.961,0.837c0.182,0.138,0.372,0.145,0.573,0.051
		c0.67-0.563,1.371-0.231,2.069-0.062c3.294-0.029,6.572,0.289,9.857,0.383c1.02,0.093,2.051,0.025,3.063,0.209
		c1.132-0.083,2.241,0.084,3.342,0.314c0.494,0.079,0.976,0.227,1.471,0.298c4.511,0.659,8.552,2.529,12.384,4.888
		c2.099,1.292,4.178,2.629,6.078,4.212c1.064,0.967,2.034,2.016,2.764,3.266c2.627,2.603,4.273,5.903,6.357,8.895
		c1.637,2.05,3.031,4.243,3.975,6.703c0.485,1.261,0.929,2.543,1.531,3.753c1.875,3.772,2.384,7.81,2.422,11.952
		c0.004,0.525-0.227,1.139,0.356,1.547c0.493,0.28,0.687,0.737,0.769,1.268c0.07,0.462,0.11,0.927,0.116,1.394
		c0.074,6.16,0.753,12.286,1.128,18.428c0.41,6.696,0.918,13.389,1.402,20.083c0.473,6.553,0.869,13.113,1.405,19.66
		c0.472,5.759,0.753,11.531,1.348,17.274c0.687,1.263,1.399,0.509,1.977-0.058c1.296-1.274,2.565-2.58,3.812-3.898
		c3.552-3.762,7.297-7.331,10.857-11.087c5.416-5.714,10.776-11.492,16.619-16.792c2.207-2.002,4.082-4.344,6.219-6.436
		c5.225-5.118,10.175-10.525,16.043-14.952c0.188-0.142,0.344-0.314,0.449-0.529c0.046-0.136,0.063-0.274,0.055-0.418
		c-1.154-3.206-2.818-6.177-4.287-9.237c-3.666-7.642-7.342-15.279-11.023-22.914c-0.4-0.833-0.717-1.731-1.506-2.315
		c-0.992-0.249-2.008-0.185-3.016-0.227c-5.303-0.132-10.604-0.299-15.905-0.409c-1.112-0.023-2.235,0.027-3.282-0.46
		c-2.617-5.928-6.482-11.084-10.058-16.431c-3.863-5.777-7.88-11.441-12.189-16.883c-3.383-4.272-6.672-8.649-10.583-12.463
		c-2.398-2.34-5.215-4.21-7.939-6.169c-0.566-0.407-1.175-0.761-1.711-1.202c-3.774-3.104-8.368-3.707-12.967-4.139
		c-6.396-0.602-12.836-0.539-19.244-1.054c-2.595-0.208-5.219-0.006-7.827-0.105c-2.832-0.108-5.659-0.348-8.487-0.536
		c-0.37-0.024-0.738-0.146-1.104-0.127c-7.323,0.394-14.628-0.103-21.939-0.393c-4.892-0.193-9.793-0.049-14.688-0.016
		c-4.711,0.032-9.414,0.173-14.12,0.267c-10.026,0.202-20.052,0.386-30.073,0.792c-2.444,0.099-4.203,0.873-5.701,2.832
		c-4.592,6-9.287,11.922-13.993,17.833c-2.614,3.285-5.332,6.488-8.004,9.727c-1.06,1.284-1.749,2.838-2.947,4.021
		c-0.999,2.054-2.577,3.701-3.945,5.487c-0.724,0.947-1.367,1.968-2.215,2.823c-0.965,1.243-1.931,2.487-2.896,3.731
		c-1.353,2.014-3.015,3.782-4.511,5.682C112.515,67.529,110.736,70.155,108.557,72.465z"/>
	<path fill-rule="evenodd" clip-rule="evenodd" fill="#335898" d="M61.299,160.007c3.633-0.224,7.266-0.449,10.899-0.672
		c0.375,0.264,0.79,0.211,1.211,0.169c5.436-0.542,10.871-0.344,16.306-0.012c0.338,0.044,0.68-0.009,1.018,0.009
		c1.071-0.017,2.141-0.111,3.211-0.101c1.047,0.276,2.107,0.144,3.166,0.102c3.489,0.228,6.982,0.424,10.408,1.221
		c1.91,0.445,3.864,0.648,5.792,0.998c1.35-0.214,2.62,0.083,3.854,0.608c0.135,0.061,0.275,0.102,0.419,0.128
		c0.594,0.067,1.187,0.145,1.771,0.283c5.239,0.919,10.506,1.518,15.828,1.623c1.9,0.037,3.798,0.368,5.703,0.073
		c2.321-0.073,4.647-0.091,6.965-0.233c3.211-0.2,6.398,0.254,9.601,0.225c0.696,0.212,0.764-0.335,0.899-0.767
		c0.224-0.726,0.204-1.476,0.165-2.224c-0.178-3.309-0.431-6.63-0.362-9.93c0.118-5.755-0.285-11.48-0.543-17.213
		c-0.252-5.598-1.164-11.131-2.171-16.64c-0.352-1.92-1.631-3.27-3.162-4.299c-5.931-3.986-12.378-6.896-19.209-8.972
		c-0.991-0.302-2.015-0.38-3.038-0.483c-5.526-0.56-10.751,0.371-15.702,2.964c-5.107,2.675-9.499,6.224-13.537,10.306
		c-2.132,2.157-4.384,4.238-6.331,6.527c-2.565,3.017-5.407,5.773-7.938,8.827c-2.278,2.748-4.731,5.418-7.38,7.851
		c-3.682,3.378-7.229,6.891-10.752,10.426c-2.307,2.312-4.678,4.568-6.797,7.063c-0.303,0.355-0.648,0.677-0.871,1.093
		C60.376,159.599,60.642,159.913,61.299,160.007z"/>
	<path fill-rule="evenodd" clip-rule="evenodd" fill="#4F4F4F" d="M355.668,175.754c0.282,8.685,3.311,17.127,8.276,24.841
		c3.138,4.873,7.667,8.19,13.286,9.922c3.352,1.033,6.75,1.933,10.265,1.562c5.513-0.586,10.685-2.216,15.411-5.284
		c4.967-3.224,9.223-7.115,12.344-12.151c3.593-5.797,5.616-12.23,7.506-18.731c1.199-4.128,1.535-8.332,1.637-12.563
		c0.151-6.377-0.218-12.752-1.674-18.967c-1.149-4.915-2.582-9.823-5.297-14.15c-2.136-3.403-4.816-6.354-8.243-8.625
		c-6.519-4.315-13.31-4.232-20.243-1.407c-8.246,3.359-14.347,9.33-19.485,16.424c-4.756,6.566-8.175,13.841-11.354,21.243
		c-1.621,3.771-1.926,7.816-2.359,11.837C355.539,171.524,355.637,173.335,355.668,175.754z"/>
	<path fill-rule="evenodd" clip-rule="evenodd" fill="#335898" d="M461.474,106.545c-2.943-4.957-5.801-9.964-9.073-14.717
		c-0.21-0.304-0.461-0.579-0.692-0.868c-1.545-1.422-2.972-2.938-3.884-4.865c0.003-0.364,0.444-0.248,0.547-0.501
		c0.748-0.634,0.827-1.467,0.782-2.381c-0.068-1.385,1.512-2.362,2.75-1.712c0.492,0.26,0.936,0.686,1.428,0.027
		c0.104-0.678-0.412-1.009-0.814-1.371c-1.525-1.373-3.047-2.746-4.621-4.067c-2.608-2.187-5.096-4.522-7.527-6.913
		c-0.287-0.292-0.602-0.532-1.045-0.492c-1.41,3.028-2.774,6.079-4.256,9.072c-0.408,0.827-0.504,2.148-1.374,2.351
		c-0.766,0.179-1.719-0.549-2.612-0.799c-7.64-2.128-15.415-3.515-23.32-4.16c-8.541-0.697-17.111-0.944-25.643-1.802
		c-3.049-0.307-6.133-0.322-9.209-0.36c-3.794-0.048-7.582-0.407-11.377-0.533c-1.719-0.057-3.445,0.121-5.169,0.192
		c-0.24,0.652,0.124,1.183,0.382,1.712c5.059,10.321,10.022,20.688,14.996,31.049c0.141,0.294,0.284,0.586,0.56,0.788
		c0.142,0.058,0.286,0.066,0.435,0.029c2.474-1.501,4.961-2.97,7.581-4.216c3.692-1.755,7.542-3.084,11.55-3.774
		c3.813-0.656,7.66-0.644,11.539-0.046c6.77,1.039,13.379,2.551,19.691,5.261c2.734,1.175,5.171,2.78,7.375,4.76
		c1.456,1.139,2.701,2.512,4.07,3.749c3.209,3.104,5.785,6.674,8.217,10.413c3.625,5.579,5.038,12.021,7.537,18.035
		c1.572,3.783,1.977,7.86,3.043,11.768c0.851,3.113,1.527,6.255,2.079,9.429c0.065,0.374,0.122,0.74,0.429,1.006
		c0.361,0.067,0.723,0.195,1.084,0.194c5.569-0.025,11.137-0.097,16.684-0.684c0.561-0.059,1.086-0.226,1.546-0.564
		c0.587-0.447,0.396-0.928,0.075-1.428c-0.418-0.65-0.813-1.315-1.061-2.055c-0.57-1.429-1.043-2.898-1.666-4.304
		c-0.546-1.23-0.512-2.238,0.652-3.066c0.266-0.188,0.482-0.441,0.557-0.784c0.061-0.569-0.066-1.124-0.211-1.658
		c-2.59-9.602-4.059-19.472-6.957-29c-1.156-3.805-2.641-7.476-4.387-11.046C461.898,107.67,461.566,107.158,461.474,106.545z"/>
	<path fill-rule="evenodd" clip-rule="evenodd" fill="#335898" d="M46.274,156.444c0.51,0.012,1.02,0.023,1.648,0.037
		c-0.249,0.57-0.473,1.073-0.688,1.58c-0.957,2.234,0.086,4.268,2.479,4.765c1.001,0.209,2.022,0.318,3.033,0.473
		c0.67,0.174,1.163-0.104,1.531-0.632c0.734-1.057,1.656-1.946,2.532-2.878c4.373-4.793,8.724-9.606,13.32-14.188
		c4.261-4.247,8.896-8.141,12.735-12.784c3.871-4.682,8.177-8.952,12.254-13.436c5.165-5.679,10.813-10.884,17.751-14.369
		c3.228-1.622,6.551-3.03,10.291-3.406c2.956-0.299,5.849-0.201,8.781-0.033c1.748,0.1,3.188,0.989,4.767,1.517
		c6.313,2.117,12.374,4.754,17.736,8.771c1.614,1.211,2.869,2.65,3.209,4.866c0.373,2.434,1.084,4.82,1.471,7.266
		c0.057,0.37,0.166,0.732,0.169,1.107c0.01,4.204,0.707,8.367,0.818,12.563c0.099,3.733,0.64,7.431,0.808,11.163
		c0.21,4.713-0.436,9.415-0.005,14.121c0.046,0.505-0.068,1.036,0.245,1.495c7.181,0.542,14.279-0.826,21.435-0.9
		c0.301-1.02,0.069-2.041-0.035-3.05c-0.57-5.566-1.547-11.078-2.124-16.649c-0.643-6.211-1.521-12.401-2.332-18.598
		c-0.636-4.853-1.015-9.749-1.87-14.564c-0.739-4.177-0.438-8.373-0.76-12.547c-0.087-1.116,0.187-2.063,0.881-2.995
		c1.223-1.643,1.071-3.719,1.461-5.616c0.126-0.61-0.577-0.667-1.021-0.652c-2.847,0.093-5.698,0.068-8.528,0.452
		c-0.461,0.063-0.917,0.194-1.385,0.199c-5.699,0.063-11.359,0.812-17.052,1.009c-4.944,0.17-9.86,0.781-14.807,0.974
		c-2.409,0.094-4.794,0.68-7.103,1.504c-3.254,1.162-6.703,1.706-9.907,3.035c-6.685,2.774-13.377,5.549-19.631,9.228
		c-2.445,1.44-4.638,3.289-6.977,4.905c-7.116,4.913-13.23,10.912-19.108,17.201c-2.515,2.69-5.256,5.168-7.889,7.749
		c-3.998,3.921-7.783,8.036-11.313,12.4c-1.816,2.244-3.591,4.534-5.512,6.698C47.018,154.86,46.248,155.438,46.274,156.444z"/>
	<path fill-rule="evenodd" clip-rule="evenodd" fill="#4F4F4F" d="M89.883,159.136c-1.392-0.474-2.853-0.237-4.268-0.312
		c-3.879-0.203-7.773-0.119-11.654,0.163c-0.593,0.044-1.176,0.228-1.763,0.348c-0.62,6.497-1.242,13.068,0.487,19.421
		c1.94,7.129,4.237,14.226,9.904,19.528c3.533,3.306,7.645,5.412,12.492,5.976c9.382,1.091,17.709-1.675,25.139-7.217
		c6.192-4.617,10.877-10.518,14.168-17.56c2.012-4.303,3.811-8.695,5.811-13c0.311-0.672,0.139-1.476,0.686-2.047
		c-1.757-0.566-3.6-0.422-5.385-0.459c-5.305-0.11-10.539-0.754-15.763-1.585c-0.183-0.028-0.372-0.013-0.558-0.018
		c-0.832,1.253-1.173,2.755-2.031,3.995c-1.772,4.573-4.469,8.619-7.443,12.453c-1.915,2.471-4.322,4.553-7.051,6.107
		c-4.057,2.314-8.176,0.944-11.05-2.335c-2.667-3.045-3.571-6.643-3.417-10.613c0.116-2.99,0.352-5.958,1.03-8.878
		C89.154,161.734,90.123,160.535,89.883,159.136z"/>
	<path fill-rule="evenodd" clip-rule="evenodd" fill="#4E4F50" d="M46.274,156.444c3.904-4.71,7.696-9.514,11.754-14.097
		c4.442-5.018,9.41-9.504,14.146-14.228c2.077-2.074,3.939-4.355,6.101-6.358c3.854-3.572,7.602-7.235,11.979-10.222
		c3.642-2.483,7.023-5.348,10.936-7.444c3.08-1.65,6.349-2.903,9.454-4.486c6.144-3.134,12.776-4.837,19.314-6.818
		c1.902-0.577,3.892-0.915,5.896-0.98c6.437-0.208,12.849-0.802,19.272-1.204c4-0.25,8.024-0.281,12.001-0.753
		c3.02-0.358,6.043-0.419,9.065-0.605c0.447-0.027,0.915-0.171,1.387,0.077c-0.236,1.417-0.787,2.767-0.826,4.223
		c-0.011,0.392-0.167,0.926-0.448,1.139c-1.324,0.999-1.267,2.35-1.224,3.787c0.066,2.229,0.164,4.454,0.102,6.696
		c-0.062,2.246,0.506,4.509,0.813,6.764c0.374,2.754,0.812,5.503,1.134,8.263c0.502,4.284,1.008,8.564,1.641,12.833
		c0.389,2.615,0.619,5.253,0.94,7.879c0.508,4.146,0.78,8.313,1.57,12.432c0.532,2.772,0.685,5.618,0.997,8.433
		c0.065,0.598-0.024,1.222,0.316,1.77c0.758-0.038,1.514-0.076,2.271-0.113c0.613-0.748,0.366-1.596,0.258-2.416
		c-0.091-0.694-0.316-1.363-0.43-2.055c-0.127-0.787,0.22-1.117,0.995-1.129c8.535-0.127,17.068-0.401,25.604-0.539
		c2.563-0.042,5.127-0.063,7.692-0.122c8.952-0.206,17.906-0.31,26.86-0.504c3.495-0.077,6.992-0.228,10.489-0.235
		c8.068-0.021,16.133-0.291,24.199-0.433c7.413-0.131,14.83-0.154,22.242-0.416c2.561-0.09,5.129,0.146,7.691-0.052
		c1.078-0.083,1.518,0.496,1.59,1.491c0.068,0.979,0.08,1.96,0.152,2.937c0.043,0.601,0.012,1.229,0.519,1.689
		c0.374,0.088,0.75,0.175,1.123,0.263c0.298-0.302,0.808,0.057,1.071-0.348c-0.138-2.178-0.039-4.36-0.419-6.54
		c-0.149-0.85-0.173-1.808-0.19-2.709c-0.086-4.755-0.698-9.474-0.979-14.215c-0.229-3.899-0.325-7.823-0.78-11.698
		c-0.358-3.065-0.327-6.134-0.612-9.19c-0.652-6.998-1.002-14.015-1.523-21.019c-0.229-3.063-0.362-6.131-0.591-9.193
		c-0.114-1.529-0.043-3.076-0.585-4.585c-0.303,0.12-0.633,0.253-0.965,0.386c-0.681-0.175-0.979,0.212-1.155,0.781
		c0.002,4.517,0.071,9.032,0.745,13.512c0.031,1.606,0.098,3.209,0.214,4.813c0.378,4.837,0.562,9.688,1.071,14.515
		c0.033,0.325,0.097,0.647,0.1,0.976c0.058,5.514,0.684,10.995,1.057,16.489c0.362,5.351,0.621,10.715,1.176,16.053
		c0.045,0.417,0.031,0.84,0.044,1.261c0.024,0.748-0.327,1.122-1.072,1.155c-2.054,0.091-4.106,0.307-6.159,0.194
		c-1.45-0.08-2.895-0.101-4.339-0.011c-6.015,0.376-12.042,0.267-18.06,0.421c-7.65,0.196-15.307,0.176-22.956,0.475
		c-1.538,0.06-3.073-0.227-4.617-0.093c-0.895,0.077-1.265-0.393-1.298-1.241c-0.096-2.427-0.342-4.854-0.239-7.279
		c0.067-1.591,0.063-3.173-0.004-4.761c-0.396-9.285-0.979-18.569-1.141-27.861c-0.233-13.312-1.187-26.595-1.396-39.898
		c-0.163-10.326-0.809-20.624-1.109-30.939c-0.08-2.695-0.108-2.694,2.374-3.396c0.163-0.056,0.321-0.125,0.479-0.198
		c0.396-0.254,0.572-0.608,0.475-1.081c-0.074-1.822-1.327-1.47-2.457-1.325c-1.961,0.255-3.916,0.572-5.882,0.763
		c-1.743,0.17-1.749,0.111-0.966,1.731c-0.188,0.335-0.18,0.651,0.093,0.943c0.155,0.087,0.322,0.137,0.501,0.153
		c2.133-0.167,2.133-0.167,2.222,1.966c0.008,0.187-0.003-0.047,0.006,0.14c1.163,22.896,1.72,45.816,2.55,68.723
		c0.454,12.548,1.041,25.093,1.42,37.645c0.049,1.634-0.228,3.261-0.095,4.896c0.075,0.911-0.436,1.203-1.264,1.282
		c-1.498,0.144-2.989-0.163-4.476-0.067c-6.433,0.418-12.877,0.293-19.315,0.466c-8.113,0.217-16.231,0.356-24.349,0.452
		c-4.061,0.048-8.115,0.212-12.173,0.32c-3.961,0.107-3.96,0.129-4.681-3.749c-0.623-3.355-0.862-6.755-1.206-10.142
		c-0.417-4.085-0.993-8.151-1.491-12.226c-0.621-5.095-1.297-10.182-1.899-15.278c-0.296-2.506-0.779-4.98-1.17-7.468
		c0.069-2.624,0.028-5.248-0.1-7.869c-0.03-0.604,0.411-0.892,0.722-1.275c0.852-1.14,0.895-2.539,1.165-3.848
		c0.332-1.603,0.728-3.173,1.376-4.677c0.005-0.326-0.04-0.618-0.456-0.648c-3.503-0.766-7.014-0.708-10.529-0.096
		c-0.366,0.063-0.743,0.062-1.117,0.083c-7.309,0.414-14.625,0.745-21.926,1.288c-2.364,0.176-4.73,0.494-7.1,0.502
		c-5.496,0.02-10.755,1.022-16.021,2.682c-8.023,2.528-15.805,5.57-23.178,9.572c-3.959,2.147-7.738,4.632-11.303,7.442
		c-2.85,2.246-5.781,4.394-8.43,6.872c-2.772,2.597-5.629,5.096-8.207,7.916c-2.438,2.667-4.949,5.292-7.774,7.614
		c-2.908,2.388-5.42,5.225-7.728,8.212c-1.007,1.304-2.316,2.286-3.438,3.47c-3.756,3.965-6.796,8.514-10.412,12.589
		c-0.207,0.236-0.297,0.576-0.441,0.868C44.05,156.553,45.162,156.499,46.274,156.444z"/>
	<path fill-rule="evenodd" clip-rule="evenodd" fill="#335898" d="M450.422,160.565c0.555,0.62,1.221,1.075,2.018,1.331
		c0.449-0.51,0.162-1.06,0.086-1.597c-0.685-4.865-2.398-9.487-3.393-14.267c-1.163-5.591-3.604-10.654-5.621-15.908
		c-1.11-2.896-2.564-5.583-4.027-8.271c-1.45-2.664-3.479-4.941-5.543-7.161c-1.656-1.937-3.707-3.44-5.621-5.096
		c-7.582-5.258-16.076-7.929-25.156-9.095c-3.861-0.495-7.607-0.067-11.417,0.407c-6.401,0.794-11.878,3.714-17.249,6.97
		c-0.24,0.145-0.455,0.327-0.638,0.543c-0.092,0.12-0.148,0.257-0.171,0.408c0.497,2.384,1.891,4.37,2.916,6.521
		c0.117,0.248,0.371,0.406,0.669,0.44c1.374-0.952,2.737-1.92,4.126-2.851c3.357-2.249,7.179-3.223,11.083-3.914
		c5.228-0.924,10.474-0.973,15.68,0.1c4.753,0.979,9.438,2.33,13.556,4.95c3.01,1.915,5.254,4.729,7.01,7.849
		c2.324,4.133,4.366,8.405,6.34,12.723c2.338,5.113,4.19,10.429,6.613,15.501c0.358,0.751,0.709,1.512,1.334,2.093
		c1.248,0.985,2.446,2.036,4.26,1.57c0.605-0.156,2.135,1.616,1.956,2.365C448.822,157.896,449.351,159.285,450.422,160.565z"/>
	<path fill-rule="evenodd" clip-rule="evenodd" fill="#335898" d="M320.034,161.933c0.253,0.093,0.546,0.158,0.564,0.493
		c0.021,0.365-0.255,0.449-0.54,0.442c-0.619-0.016-1.125,0.279-1.641,0.558c-0.173,0.239-0.292,0.54-0.172,0.79
		c0.682,1.405,0.433,2.931,0.613,4.397c0.085,0.406,0.096,0.796,0.014,1.218c-0.312,1.59-0.021,2.217,1.334,3.084
		c3.099,0.443,6.214,0.467,9.297-0.016c1.346-0.21,2.688-0.182,4.028-0.328c1.888-0.205,2.772-1.455,3.042-3.04
		c0.355-2.091,0.359-4.248,0.1-6.363c-0.266-2.154,0.301-3.944,1.768-5.546c4.816-5.27,9.275-10.854,13.724-16.418
		c6.642-8.309,14.433-15.443,21.994-22.828c0.396-0.387,0.813-0.75,1.22-1.127c0.089-0.166,0.188-0.361,0.101-0.526
		c-1.162-2.192-1.876-4.614-3.384-6.628c-0.654-0.216-1.049,0.261-1.477,0.591c-4.002,3.086-7.665,6.552-11.078,10.263
		c-5.563,6.048-11.503,11.713-17.354,17.47c-1.363,1.339-2.753,2.661-4.045,4.068c-5.494,5.979-11.28,11.676-16.898,17.534
		C320.726,160.559,319.931,160.979,320.034,161.933z"/>
	<path fill-rule="evenodd" clip-rule="evenodd" fill="#335898" d="M312.727,161.646c-0.071-1.633-0.142-3.265-0.216-4.899
		c-0.052-1.188-0.435-1.802-1.861-1.726c-5.399,0.288-10.814,0.276-16.221,0.354c-3.775,0.054-7.551,0.388-11.318,0.241
		c-3.928-0.154-7.834,0.366-11.741,0.211c-3.789-0.151-7.553,0.353-11.321,0.214c-4.02-0.147-8.021,0.36-12.02,0.213
		c-3.371-0.125-6.713,0.271-10.063,0.186c-4.296-0.11-8.581,0.33-12.86,0.226c-3.788-0.094-7.554,0.363-11.321,0.224
		c-3.975-0.147-7.928,0.353-11.881,0.219c-4.724-0.161-9.414,0.286-14.122,0.378c-0.657,0.011-1.293-0.077-1.939-0.159
		c-1.662-0.212-2.087,0.262-1.605,1.841c0.425,1.397,0.637,2.81,0.629,4.263c8.714-0.449,17.446-0.69,26.136-1.437
		c4.203-0.361,8.373-0.093,12.556-0.298c7.872-0.383,15.759-0.334,23.637-0.489c8.516-0.168,17.043-0.468,25.57-0.166
		c5.124,0.182,10.254,0.13,15.383,0.129c5.82-0.003,11.639,0.372,17.459,0.443C307.978,161.641,310.353,161.952,312.727,161.646z"/>
	<path fill-rule="evenodd" clip-rule="evenodd" fill="#C5BDB0" d="M161.16,164.443c0.328-2.603-0.15-5.207,0.089-7.825
		c0.341-3.723,0.059-7.463-0.177-11.187c-0.439-6.934-0.905-13.868-1.495-20.791c-0.185-2.161-0.997-4.269-1.179-6.43
		c-0.357-4.183-3.07-6.446-6.285-8.441c-4.807-2.986-10.036-5.015-15.263-7.122c-3.626-1.462-7.282-1.765-11.042-1.693
		c-4.994,0.094-9.532,1.802-13.877,4.158c-5.807,3.151-10.734,7.381-15.23,12.166c-4.623,4.92-9.366,9.729-13.721,14.9
		c-4.303,5.112-9.391,9.463-14.106,14.177c-4.129,4.127-7.944,8.545-11.991,12.745c-0.158,0.163-0.257,0.384-0.382,0.579
		c-0.163,0.491-0.512,1.049,0.406,1.166c0.905-0.854,1.909-1.214,3.16-0.779c0.36,0.125,0.819-0.033,1.231-0.061
		c-0.774-0.342-0.423-0.738-0.058-1.139c1.229-1.344,2.405-2.741,3.695-4.023c3.235-3.222,6.431-6.48,9.719-9.652
		c3.252-3.135,6.53-6.254,9.552-9.636c4.869-5.444,9.805-10.834,14.831-16.133c5.056-5.329,10.524-10.164,17.392-13.121
		c2.4-1.033,4.885-2.052,7.463-2.131c4.355-0.127,8.748-0.125,12.868,1.813c2.44,1.15,5.061,1.929,7.468,3.136
		c2.741,1.376,5.362,2.995,7.982,4.596c2.436,1.489,2.91,4.004,3.369,6.586c1.661,9.352,2.036,18.808,2.237,28.263
		c0.099,4.61,0.311,9.218,0.338,13.829c0.006,0.706,0.183,1.588-0.706,2.033C158.685,164.852,159.924,164.503,161.16,164.443z"/>
	<path fill-rule="evenodd" clip-rule="evenodd" fill="#4F4F4F" d="M461.474,106.545c-0.256,1.056,0.388,1.884,0.793,2.721
		c3.054,6.324,4.898,13.039,6.453,19.843c1.426,6.237,2.636,12.525,4.28,18.713c0.202,0.762,0.349,1.535,0.521,2.305
		c-0.047,0.177-0.006,0.333,0.121,0.466c1.034,0.65,2.193,0.438,3.249,0.262c2.62-0.438,5.26-0.404,7.89-0.592
		c0.504-0.036,1.166,0.116,1.33-0.66c-1.07,0.023-2.014,0.309-2.245-1.452c-1.313-9.995-5.259-19.219-8.673-28.59
		c-1.254-3.442-2.655-6.834-4.091-10.205c-1.161-2.727-1.505-2.82-4.319-1.771c-0.869,0.325-1.73,0.678-2.562,1.086
		c-0.829,0.406-1.368,0.267-1.769-0.602C462.204,107.526,461.805,107.05,461.474,106.545z"/>
	<path fill-rule="evenodd" clip-rule="evenodd" fill="#C6BDB0" d="M320.034,161.933c2.844-3.016,5.671-6.048,8.536-9.042
		c2.354-2.46,4.781-4.85,7.13-7.314c5.886-6.177,12.011-12.111,18.117-18.066c3.175-3.095,6.003-6.514,9.163-9.626
		c2.828-2.784,5.865-5.304,8.906-7.832c0.037-0.055,0.074-0.111,0.111-0.164c-0.359-0.944-0.367-2.099-1.531-2.563
		c-3.551,2.218-6.437,5.217-9.409,8.098c-7.361,7.134-14.403,14.586-21.76,21.729c-4.01,3.895-7.683,8.133-11.571,12.154
		c-3.789,3.917-7.66,7.759-11.496,11.631c-0.359,0.362-0.697,0.782-1.308,0.625c-0.359,0.112-0.78,0.029-1.072,0.348
		C315.914,161.64,317.971,162.131,320.034,161.933z"/>
	<path fill-rule="evenodd" clip-rule="evenodd" fill="#CA9F5F" d="M473.545,150.381c-0.008-0.084-0.016-0.169-0.023-0.254
		c-2.02,1.147-2.164,1.523-1.357,3.667c0.559,1.48,1.142,2.952,1.714,4.427c1.222,1.15,1.931,2.747,3.29,3.776
		c3.54,1.976,7.205,1.831,10.932,0.645c-0.185-1.611,0.752-2.209,2.103-2.833c2.044-0.942,2.589-2.741,1.894-4.879
		c-0.271-0.839-0.489-1.695-0.918-2.479c-1.195-2.179-2.381-2.814-4.873-2.576c-3.122,0.573-6.312,0.326-9.443,0.772
		c-0.412,0.059-0.876-0.046-1.211,0.243C474.69,151.716,474.067,151.288,473.545,150.381z"/>
	<path fill-rule="evenodd" clip-rule="evenodd" fill="#335898" d="M496.946,156.206c0.491-0.911,1.063-1.642,2.174-1.957
		c1.077-0.306,1.798-1.208,2.108-2.278c0.67-2.313,1.249-4.651,1.867-6.979c1.178-5.108,2.991-10.003,4.971-14.844
		c0.762-1.864,0.521-2.656-1.018-3.098c-3.212,1.376-6.055,3.381-8.976,5.25c-0.665,0.427-1.247,1.017-1.956,1.329
		c-1.49,0.657-2.026,1.604-1.344,3.151c0.163,0.37,0.047,0.842,0.369,1.173c0.167,1.506,0.809,2.664,2.246,3.345
		c0.62,0.294,0.689,0.925,0.571,1.575c-0.302,1.646-0.707,3.262-1.236,4.848c-0.181,0.545-0.423,1.004-1.041,1.199
		c-0.562,0.176-0.938,0.573-0.96,1.217c1.148,1.427,1.533,3.111,1.662,4.888C496.418,155.479,496.438,155.965,496.946,156.206z"/>
	<path fill-rule="evenodd" clip-rule="evenodd" fill="#C5BDB0" d="M433.611,114.716c1.854,2.325,3.916,4.494,5.433,7.071
		c3.339,5.673,5.89,11.767,7.921,17.952c1.989,6.052,3.775,12.249,4.756,18.604c0.184,1.193,0.477,2.37,0.719,3.553
		c1.07,0.554,2.283,0.426,3.408,0.711c-0.329-3.57-1.207-7.025-2.135-10.477c-1.045-3.887-1.461-7.933-3.008-11.698
		c-0.916-2.229-1.908-4.453-2.521-6.771c-1.221-4.606-3.341-8.768-5.881-12.726c-2.183-3.401-4.542-6.694-7.689-9.318
		c-0.747-0.396-1.219,0.031-1.624,0.572c-0.396,0.529-0.396,1.102-0.071,1.677C433.099,114.189,433.39,114.424,433.611,114.716z"/>
	<path fill-rule="evenodd" clip-rule="evenodd" fill="#CAA265" d="M439.324,68.686c0.266,0.208,0.531,0.417,0.798,0.625
		c4.618,3.786,9.143,7.678,13.323,11.951c0.271,0.277,0.529,0.513,0.908,0.603c3.982-0.1,7.818-3.896,7.493-7.425
		c-0.024-0.266-0.147-0.523-0.226-0.785c-0.654,0.434-0.102,1.684-0.982,1.769c-0.649,0.063-1.138-0.732-1.695-1.147
		c-5.33-3.983-11.064-7.245-17.268-9.665c-0.414-0.162-0.707-0.43-0.998-0.731C439,65.136,438.841,66.82,439.324,68.686z"/>
	<path fill-rule="evenodd" clip-rule="evenodd" fill="#F8502B" d="M30.865,156.311c-0.666,1.586-1.592,3.021-2.728,4.441
		c0.509,0.123,0.942,0.132,1.27,0.323c1.564,0.915,2.792,0.245,3.813-0.876c0.982-1.076,2.067-1.813,3.538-1.98
		c0.564-0.065,0.989-0.493,1.425-0.842c1.464-0.784,1.967-2.351,2.774-3.613c1.784-2.795,3.791-5.43,5.62-8.188
		c0.232-0.35,0.448-0.71,0.661-1.072c1.305-2.219,0.906-3.123-1.631-3.719c-2.048-0.085-4.081-0.067-6.005,0.777
		c-2.733,1.597-3.812,4.082-3.809,7.137c0.002,0.936-0.012,1.861-0.372,2.748c-0.162,0.401-0.104,0.818-0.011,1.237
		c0.344,1.541-0.542,2.664-2.194,2.675C32.273,155.363,31.46,155.525,30.865,156.311z"/>
	<path fill-rule="evenodd" clip-rule="evenodd" fill="#CAA060" d="M440.677,63.88c-0.052,0.368-0.362,0.688,0.342,0.934
		c5.416,1.894,10.446,4.576,15.104,7.906c1.422,1.018,2.919,1.943,4.262,3.074c0.654,0.551,1.045,0.521,1.025-0.49
		c-0.012-0.548,0.135-1.099,0.211-1.649c-0.01-0.56-0.029-1.116-0.381-1.594c-0.87-1.763-1.801-3.457-3.957-3.934
		c-0.476-0.105-0.59-0.549-0.693-0.96c-0.141-0.564-0.423-1.024-0.947-1.309c-3.592-1.568-7.08-3.505-11.164-3.432
		C443.07,62.451,441.746,62.876,440.677,63.88z"/>
	<path fill-rule="evenodd" clip-rule="evenodd" fill="#4E4F53" d="M372.374,106.106c-1.388-2.997-2.743-6.008-4.169-8.986
		c-2.688-5.618-5.416-11.217-8.131-16.823c-1.234-2.552-2.473-5.101-3.71-7.651c-0.823-0.414-1.687-0.275-2.546-0.18
		c2.307,4.83,4.602,9.665,6.924,14.488c3.23,6.708,6.482,13.407,9.725,20.11C371.469,107.475,371.964,106.874,372.374,106.106z"/>
	<path fill-rule="evenodd" clip-rule="evenodd" fill="#C29C62" d="M496.946,156.206c-0.378-1.098-0.257-2.266-0.497-3.398
		c-0.246-1.162-0.75-2.041-1.588-2.799c-0.219-0.489-0.716-0.3-1.076-0.444c-2.455,0.013-4.911-0.339-7.365,0.019
		c-0.148,0.179-0.154,0.351,0.021,0.515c2.077-0.282,3.408,0.69,4.389,2.447c0.643,1.151,0.859,2.432,1.331,3.633
		c0.454,1.157-1.237,3.489-2.927,3.741c-1.826,0.271-1.871,0.979-1.178,2.31c0.061,0.114,0.031,0.273,0.043,0.413
		c1.679-0.266,3.197-0.935,4.462-2.047C494.113,159.227,495.715,157.897,496.946,156.206z"/>
	<path fill-rule="evenodd" clip-rule="evenodd" fill="#FE562E" d="M30.865,156.311c0.903-0.287,1.694-0.792,2.794-0.514
		c0.739,0.188,1.257-0.829,1.924-1.197c1.051-0.581,0.519-1.174,0.209-1.834c-0.116-0.246-0.279-0.604-0.183-0.791
		c0.929-1.823,0.48-3.834,0.799-5.738c0.336-2.011,1.857-3.023,3.075-4.32c0.559-0.795,1.015-1.653,1.438-2.521
		c0.429-0.877,0.136-1.241-0.833-0.901c-0.633-0.066-1.271-0.088-1.892-0.211c-1.043-0.208-0.951,0.747-1.327,1.223
		c-1.343,4.111-2.941,8.132-4.255,12.252C32.031,153.276,31.447,154.793,30.865,156.311z"/>
	<path fill-rule="evenodd" clip-rule="evenodd" fill="#F3502D" d="M45.901,141.081c2.08,0.782,2.279,1.272,1.009,3.228
		c-1.668,2.564-3.451,5.055-5.157,7.596c-1.213,1.809-2.382,3.648-3.57,5.473c0.733-0.056,1.505,0.134,2.171-0.341
		c2.032-3.263,4.155-6.462,6.503-9.511c2.059-2.669,4.429-5.11,5.982-8.148c-0.26-0.758-0.792-0.38-1.044-0.124
		c-1.3,1.332-2.949,1.371-4.626,1.391C46.713,140.649,46.234,140.68,45.901,141.081z"/>
	<path fill-rule="evenodd" clip-rule="evenodd" fill="#F55533" d="M45.901,141.081c0.507-0.021,1.015-0.064,1.521-0.062
		c1.714,0.015,3.412,0.011,4.628-1.514c0.188-0.236,0.454-0.524,0.789-0.129c0.344-0.558,0.688-1.113,1.031-1.669
		c-4.594,0.261-9.187,0.524-13.781,0.786c0.699-0.052,0.942,0.152,0.535,0.841c-0.482,0.811-1.223,1.517-1.141,2.581
		C41.557,141.136,43.736,141.168,45.901,141.081z"/>
	<path fill-rule="evenodd" clip-rule="evenodd" fill="#395D9B" d="M493.785,149.564c0.359,0.148,0.718,0.296,1.076,0.444
		c0.206-0.248,0.424-0.717,0.615-0.706c1.455,0.083,1.481-1.107,1.745-1.971c0.459-1.504,0.776-3.052,1.153-4.581
		c0.154-0.634,0.152-1.318-0.488-1.595c-1.463-0.633-2.297-1.734-2.744-3.202c0.244,3.521,0.075,7.028-0.271,10.539
		C494.788,149.321,494.445,149.509,493.785,149.564z"/>
	<path fill-rule="evenodd" clip-rule="evenodd" fill="#3C5F9D" d="M450.422,160.565c-0.02-0.464-0.014-0.925-0.412-1.274
		c-0.825-0.727-0.844-1.887-0.466-2.559c0.729-1.298-0.467-1.589-0.838-2.288c-0.424-0.799-0.905-1.396-2.048-0.857
		c-0.645,0.305-1.397-0.221-2.047-0.586c-0.512-0.287-0.938-0.774-1.596-0.76C444.629,155.776,447.325,158.349,450.422,160.565z"/>
	<path fill-rule="evenodd" clip-rule="evenodd" fill="#4D5054" d="M371.886,110.052c1.164,2.399,2.328,4.8,3.492,7.197
		c0.703-0.394,1.402-0.791,1.896-1.458c-1.327-2.209-2.342-4.572-3.429-6.9c-1.039-0.263-1.473,0.475-1.936,1.17L371.886,110.052z"
		/>
	<path fill-rule="evenodd" clip-rule="evenodd" fill="#385C9B" d="M453.23,81.344c-0.349,0.495-0.727,0.366-1.014-0.021
		c-1.107-1.487-1.929,0.133-2.871,0.278c-0.789,0.12-0.701,0.799-0.556,1.436c0.205,0.897-0.075,1.737-0.418,2.557
		c2.142-0.669,3.604-2.43,5.531-3.445C453.978,81.63,453.802,81.32,453.23,81.344z"/>
	<path fill-rule="evenodd" clip-rule="evenodd" fill="#40639F" d="M507.049,127.051c1.206,1.205,1.242,1.867,0.512,3.537
		c-1.955,4.466-3.406,9.1-4.49,13.851c-0.039,0.174,0.014,0.368,0.024,0.554c1.306-4.266,2.882-8.44,4.376-12.644
		c0.344-0.967,0.663-1.935,1.131-2.851c0.361-0.705,0.693-1.429,0.753-2.237c0.087-1.188-0.151-1.354-1.229-0.836
		C507.752,126.604,507.406,126.841,507.049,127.051z"/>
	<path fill-rule="evenodd" clip-rule="evenodd" fill="#41639F" d="M331.615,71.37c0.34,0.725,1.074,0.752,1.676,0.773
		c3.1,0.11,6.202,0.202,9.303,0.182c2.734-0.018,5.477,0.296,8.207-0.086c-2.056-0.176-4.109-0.434-6.17-0.514
		C340.295,71.558,335.954,71.483,331.615,71.37z"/>
	<path fill-rule="evenodd" clip-rule="evenodd" fill="#BD9964" d="M453.23,81.344c0.352,0.161,0.551,0.45,0.672,0.805
		c0.151-0.095,0.301-0.19,0.451-0.285c-4.252-4.484-8.784-8.657-13.709-12.396c-0.137-0.103-0.347-0.107-0.523-0.158
		c2.518,2.67,5.279,5.081,8.07,7.449C449.927,78.23,451.652,79.703,453.23,81.344z"/>
	<path fill-rule="evenodd" clip-rule="evenodd" fill="#3C5F9D" d="M86.959,99.466c1.215-0.739,1.939-1.968,2.936-2.926
		c2.032-1.956,3.601-4.355,5.955-6.018c0.819-0.58,0.728-1.737,0.762-2.709C93.393,91.698,90.177,95.582,86.959,99.466z"/>
	<path fill-rule="evenodd" clip-rule="evenodd" fill="#4164A0" d="M108.557,72.465c1.274-0.894,2.312-2.066,3.157-3.32
		c1.748-2.592,3.855-4.887,5.772-7.337c0.592-0.756,1.327-1.429,1.496-2.445C115.173,63.464,111.88,67.976,108.557,72.465z"/>
	<path fill-rule="evenodd" clip-rule="evenodd" fill="#BA955D" d="M486.441,150.098c-0.008-0.171-0.015-0.344-0.021-0.515
		c-0.104,0.007-0.207,0.014-0.309,0.02c-0.114,0.075-0.228,0.214-0.342,0.214c-3.912,0.007-7.787,0.62-11.691,0.721
		c-0.176,0.005-0.355-0.102-0.533-0.156c-0.062,0.715,0.18,1.341,0.825,1.623c0.62,0.271,0.998-0.34,1.33-0.714
		c0.315-0.354,0.628-0.482,1.067-0.503C479.998,150.64,483.238,150.619,486.441,150.098z"/>
	<path fill-rule="evenodd" clip-rule="evenodd" fill="#CEA66B" d="M455.642,65.858c0.205,0.458,0.527,0.899,0.592,1.377
		c0.125,0.919,0.468,1.276,1.478,1.39c1.237,0.14,1.942,1.268,2.685,2.195c0.313,0.39,0.398,0.938,0.844,1.241
		C460.205,69.243,458.382,67.136,455.642,65.858z"/>
	<path fill-rule="evenodd" clip-rule="evenodd" fill="#BDB7B1" d="M56.907,160.847c-0.489-0.266-0.337-0.754-0.406-1.166
		c-0.938,0.88-1.853,1.787-2.523,2.896c-0.295,0.488-0.687,0.709-1.231,0.723C54.361,163.657,55.803,162.806,56.907,160.847z"/>
	<path fill-rule="evenodd" clip-rule="evenodd" fill="#3F629E" d="M121.879,55.632c1.358-0.819,1.936-2.328,3.005-3.416
		c0.996-1.013,1.723-2.285,2.656-3.368c0.415-0.481,0.349-1.015,0.499-1.527C125.883,50.016,123.769,52.742,121.879,55.632z"/>
	<path fill-rule="evenodd" clip-rule="evenodd" fill="#40639F" d="M319.168,168.678c-0.479,1.435-0.962,2.867-1.441,4.301
		c0.83,0.145,1.655,0.01,2.48-0.063c-0.838-1.021-1.646-2.038-0.828-3.476C319.47,169.278,319.246,168.936,319.168,168.678z"/>
	<path fill-rule="evenodd" clip-rule="evenodd" fill="#637FB0" d="M447.825,86.095c-0.231,0.037-0.526,0.088-0.298,0.399
		c1.219,1.651,2.189,3.538,4.182,4.466C450.457,89.303,449.344,87.538,447.825,86.095z"/>
	<path fill-rule="evenodd" clip-rule="evenodd" fill="#4E6693" d="M477.168,161.997c-1.017-1.329-1.639-3.001-3.29-3.776
		c0.202,0.825,0.664,1.532,1.153,2.194c0.301,0.406,0.305,0.734,0.13,1.139C475.903,161.372,476.526,161.728,477.168,161.997z"/>
	<path fill-rule="evenodd" clip-rule="evenodd" fill="#3C5F9D" d="M96.595,87.834c0.836-0.608,1.668-1.219,1.918-2.312
		C97.778,86.213,97.051,86.911,96.595,87.834z"/>
	<path fill-rule="evenodd" clip-rule="evenodd" fill="#E0DBD4" d="M264.768,36.627c-1.624-0.34-3.279-0.191-4.919-0.293
		c-1.84-0.114-3.688-0.111-5.53-0.159c-0.017,0.068-0.032,0.136-0.048,0.204c0.278,0.832,0.992,0.751,1.627,0.72
		c4.383-0.22,3.137-0.335,5.692,2.817c2.838,3.499,5.663,7.021,8.337,10.654c1.049,1.427,1.98,2.927,3.003,4.367
		c0.861,0.803,1.47,1.798,2.091,2.784c0.967,1.535,1.873,3.108,3.026,4.524c1.069,1.314,1.757,2.843,2.286,4.45
		c0.699,2.122,0.028,3.801-1.535,5.282c-1.44,1.366-2.999,1.214-4.673,0.595c-1.083-0.401-1.925-1.31-3.126-1.443
		c-0.211,0.252-0.195,0.555-0.023,0.772c1.625,2.063,2.844,4.424,4.656,6.351c0.295,0.229,0.538,0.561,0.871,0.7
		c2.064,0.874,3.762,2.146,4.926,4.114c0.398,0.672,1.211,0.608,1.922,0.596c3.66-0.114,7.32-0.483,10.977,0.06
		c0.411,0.062,0.894,0.084,1.227-0.154c1.007-0.717,2.176-0.716,3.311-0.879c0.574-0.554,0.191-1.041-0.161-1.466
		c-3.858-4.639-7.008-9.788-10.552-14.654c-3.872-5.317-7.668-10.69-11.502-16.036c-3.353-4.672-7.07-9.044-10.995-13.242
		C265.39,37.012,265.031,36.892,264.768,36.627z"/>
	<path fill-rule="evenodd" clip-rule="evenodd" fill="#C6BDB0" d="M291.293,46.73c-3.229-2.7-6.748-4.953-10.551-6.747
		c-2.572-1.212-5.229-2.185-8.082-2.494c0.979,1.809,2.602,3.082,3.876,4.647c2.429,2.984,4.73,6.062,6.879,9.252
		c3.232,4.467,6.11,9.175,9.255,13.702c3.073,5.036,5.874,10.23,8.952,15.261c0.36,0.587,0.58,1.281,1.223,1.661
		c0.138,0.049,0.276,0.067,0.421,0.057c0.572-0.167,1.115-0.451,1.469,0.414c0.35,0.847,1.035,1.205,1.93,0.718
		c0.736-0.403,1.063-1.549,0.708-2.34c-0.177-0.395-0.468-0.698-0.812-0.944c-0.477-0.34-0.574-0.737-0.151-1.164
		c1.116-1.128,0.948-2.51,0.634-3.82c-1.39-5.784-3.35-11.34-6.824-16.254c-1.911-3.017-3.57-6.216-6.242-8.687
		C292.914,49.044,292.169,47.833,291.293,46.73z"/>
	<path fill-rule="evenodd" clip-rule="evenodd" fill="#C6BDB0" d="M212.054,44c-2.162,0.993-4.333,1.964-6.345,3.25
		c-0.217,0.527,0.151,0.879,0.385,1.268c2.001,3.311,4.39,6.367,6.378,9.685c2.586,4.314,5.675,8.302,8.2,12.656
		c0.376,0.646,0.743,1.292,1.034,1.982c2.962,4.23,4.931,9.05,8.032,13.317c-0.804-0.081-1.452-0.066-2.104-0.043
		c-0.543,0.055-1.144-0.042-1.477,0.559c0.435,0.701,1.146,0.542,1.767,0.507c2.835-0.162,5.679-0.127,8.507-0.529
		c1.649-0.234,3.346,0.139,5.02,0.04c0.492-0.072,0.618-0.345,0.414-0.787c-0.234-0.511-0.553-0.973-0.871-1.432
		c-5.912-8.495-12.008-16.859-17.952-25.331c-3.104-4.423-6.435-8.688-9.542-13.111C213.023,45.35,212.806,44.482,212.054,44z"/>
	<path fill-rule="evenodd" clip-rule="evenodd" fill="#C6BDB0" d="M242.368,37.908c-3.362-0.382-6.709,0.106-10.016,0.483
		c-3.206,0.365-6.345,1.317-9.514,2.011c-0.173,0.422,0.104,0.719,0.318,1.006c3.771,5.085,7.469,10.226,11.153,15.374
		c3.113,4.353,6.153,8.76,9.346,13.057c0.269,0.362,0.545,1.591,1.256,0.264c0.138-0.746,0.042-1.491,0.029-2.234
		c-0.072-3.908-0.33-7.807-0.302-11.725c0.039-5.443-0.836-10.857-0.92-16.307c-0.005-0.427-0.144-0.825-0.43-1.158l-0.074,0.029
		C242.966,38.408,242.755,38.064,242.368,37.908z"/>
	<path fill-rule="evenodd" clip-rule="evenodd" fill="#E1DCD5" d="M244.552,70.636c-3.534-4.952-7.069-9.903-10.604-14.857
		c-3.025-4.24-6.042-8.486-9.075-12.72c-0.65-0.906-1.354-1.772-2.034-2.657c-2.179,0.469-4.34,0.998-6.367,1.962
		c-0.449,0.603-0.029,1.074,0.283,1.509c2.534,3.518,4.749,7.245,7.175,10.829c1.596,2.353,3.154,4.725,4.656,7.137
		c1.501,2.413,3.226,4.668,4.851,6.994c0.588,0.839,1.254,1.625,1.718,2.545c2.641,3.76,5.323,7.489,7.969,11.246
		c0.215,0.304,0.458,0.585,0.729,0.843c0.629,0.601,1.054,0.44,1.314-0.354c-0.192-3.61,0.039-7.221-0.072-10.828
		C245.075,71.697,245.118,71.058,244.552,70.636z"/>
	<path fill-rule="evenodd" clip-rule="evenodd" fill="#C6BDB0" d="M187.155,66.872c-3.27,5.165-5.07,10.875-6.251,16.817
		c-0.196,0.431-0.104,0.837,0.098,1.237c0.548,0.916,1.304,1.431,2.42,1.235c0.531-0.093,0.863,0.182,1.164,0.582
		c0.489,0.65,1.097,1.132,1.962,1.173c0.159-0.001,0.312-0.023,0.465-0.058c2.629-0.214,5.254-0.506,7.893-0.116
		c4.428,0.001,8.855,0.168,13.282,0.014c0.69-0.025,1.415,0.033,2.002-0.459c-0.083-1.057-0.996-0.787-1.552-0.842
		c-1.576-0.153-3.176-0.05-4.739,0.137c-1.874,0.224-3.037-0.352-4.147-1.981c-1.677-2.457-3.109-5.093-5.063-7.359
		c-1.979-3.075-4.212-5.979-6.118-9.106C188.241,67.609,188.068,66.802,187.155,66.872z"/>
	<path fill-rule="evenodd" clip-rule="evenodd" fill="#DFDAD3" d="M187.155,66.872c2.122,3.108,4.243,6.215,6.362,9.323
		c0.259,0.378,0.378,0.87,0.867,1.057c2.423,2.545,6.525,2.485,8.801-0.133c1.316-1.514,1.06-3.293,0.815-5.058
		c-0.056-0.412-0.226-0.806-0.292-1.219c-0.918-1.776-1.96-3.475-3.209-5.042c-1.078-1.349-1.931-2.848-2.822-4.317
		c-0.872-1.436-2.083-2.623-2.906-4.09c-0.227-0.401-0.583-0.601-1.058-0.35c-1.27,1.004-2.088,2.376-2.942,3.704
		C189.489,62.74,188.156,64.709,187.155,66.872z"/>
	<path fill-rule="evenodd" clip-rule="evenodd" fill="#D4CEC4" d="M227.879,86.45c0.646-0.027,1.294-0.055,2.322-0.099
		c-3.093-4.51-5.135-9.38-8.23-13.643c-2.451-3.5-5.144-6.827-7.539-10.361c-2.246-3.312-4.595-6.546-6.869-9.833
		c-0.795-1.149-1.638-2.26-2.484-3.369c-0.606-0.796-1.295-1.018-2.129-0.333c-1.775,1.098-3.507,2.251-4.878,3.86
		c2.48,3.012,4.676,6.238,7.003,9.366c1.551,2.085,3.147,4.141,4.793,6.153c0.266,0.326,0.551,0.632,0.979,0.753
		c1.037,0.281,2.14,0.161,3.163,0.48c1.896,0.589,3.335,1.8,4.44,3.429c2.583,3.808,5.312,7.519,7.607,11.518
		C226.519,85.178,227.069,85.935,227.879,86.45z"/>
	<path fill-rule="evenodd" clip-rule="evenodd" fill="#DAD4CC" d="M210.859,68.694c-1.236-1.065-2.095-2.448-3.068-3.726
		c-2.94-3.86-5.838-7.755-8.733-11.648c-0.268-0.357-0.511-0.655-0.986-0.649c-1.686,1.226-3.037,2.783-4.357,4.371
		c0.359,0.012,0.586,0.196,0.784,0.495c1.692,2.556,3.312,5.167,5.129,7.631c1.326,1.796,2.476,3.7,3.743,5.529
		c1.151,2.183,2.457,4.278,3.917,6.261c1.1,1.494,1.749,1.664,3.479,1.057c1.837-0.644,3.349-0.163,4.806,0.993
		c1.856,1.471,3.006,3.554,4.642,5.208c0.487,0.493,0.91,1.103,1.755,0.875c0.239-0.388,0.035-0.716-0.154-1.038
		C218.61,78.613,214.808,73.601,210.859,68.694z"/>
	<path fill-rule="evenodd" clip-rule="evenodd" fill="#D7D0C7" d="M302.873,81.892c-3.205-5.52-6.41-11.04-9.621-16.556
		c-0.089-0.156-0.236-0.278-0.355-0.416c-1.225-0.857-2.471-1.653-3.865-2.235c-1.119-0.468-1.723-1.55-2.375-2.51
		c-5.014-7.372-10.256-14.579-15.474-21.804c-0.874-1.208-2.004-1.508-3.331-1.563c-1.017-0.273-2.053-0.173-3.083-0.18
		c1.575,2.312,3.733,4.116,5.468,6.288c2.17,2.717,4.332,5.444,6.402,8.237c3.232,4.357,6.414,8.75,9.559,13.172
		c2.742,3.855,5.374,7.788,8.107,11.649c1.338,1.889,2.789,3.698,4.206,5.53c0.202,0.26,0.442,0.478,0.458,0.832
		c0.172,0.606,0.389,1.184,0.973,1.53c0.357,0.14,0.717,0.112,1.077,0.02C301.941,83.505,303.178,83.414,302.873,81.892z"/>
	<path fill-rule="evenodd" clip-rule="evenodd" fill="#CAC1B5" d="M244.825,83.512c-0.807,0.227-1.001-0.534-1.286-0.929
		c-1.889-2.594-3.691-5.249-5.552-7.862c-0.832-1.168-1.733-2.288-2.602-3.429c-3.8-5.139-7.967-9.998-11.584-15.271
		c-2.481-3.618-5.059-7.167-7.614-10.731c-0.568-0.793-1.082-1.639-1.924-2.194c-0.737,0.301-1.473,0.603-2.209,0.904
		c0.416,1.362,1.285,2.476,2.095,3.599c4.523,6.283,9.2,12.454,13.572,18.852c3.218,4.708,6.732,9.211,9.982,13.898
		c1.398,2.019,2.818,4.027,4.208,6.055c0.988,0.693,1.943,0.288,2.633-0.364C245.233,85.391,245.364,84.426,244.825,83.512z"/>
	<path fill-rule="evenodd" clip-rule="evenodd" fill="#D2CBC1" d="M267.851,36.807c2.625,0.118,3.403,2.417,4.659,4.068
		c2.526,3.327,4.853,6.804,7.318,10.173c2.571,3.518,4.92,7.19,7.548,10.667c0.585,0.772,1.24,1.368,2.198,1.587
		c1.229,0.283,1.968,1.582,3.321,1.617c-3.09-4.545-5.859-9.31-9.277-13.632c-0.727-0.9-1.654-1.509-2.762-1.821
		c-0.923-0.26-1.496-0.856-1.955-1.671c-1.881-3.341-4.271-6.348-6.344-9.564c-0.319-0.494-0.842-0.722-1.321-1.006
		C270.138,36.829,269.01,36.71,267.851,36.807z"/>
	<path fill-rule="evenodd" clip-rule="evenodd" fill="#D0C9BE" d="M214.263,43.096c0.528,1.203,1.475,2.117,2.211,3.175
		c3.122,4.491,6.218,9.004,9.479,13.393c2.845,3.827,5.896,7.501,8.866,11.234c0.137,0.172,0.374,0.265,0.565,0.395
		c-1.074-2.229-2.704-4.087-4.125-6.077c-1.565-2.195-2.903-4.528-4.402-6.762c-3.331-4.973-6.618-9.978-9.943-14.957
		c-0.241-0.36-0.471-0.685-0.443-1.132C215.667,42.402,215.007,42.877,214.263,43.096z"/>
	<path fill-rule="evenodd" clip-rule="evenodd" fill="#CBC3B8" d="M202.949,48.812c0.875-0.398,1.478-0.054,1.993,0.673
		c3.009,4.246,6.029,8.481,9.003,12.753c2.509,3.602,4.938,7.299,8.025,10.471c-1.018-2.415-2.527-4.549-3.97-6.704
		c-2.506-3.744-4.857-7.589-7.381-11.314c-1.666-2.461-3.221-4.996-4.91-7.44C204.722,47.653,203.715,48.018,202.949,48.812z"/>
	<path fill-rule="evenodd" clip-rule="evenodd" fill="#C0B9AF" d="M300.219,58.679c1.48,2.681,2.86,5.413,3.964,8.27
		c1.183,3.065,2.296,6.157,2.675,9.456c0.1,0.856-0.085,1.551-0.754,2.123c-0.715,0.612-1.103,1.201,0.192,1.619
		c0.403,0.131,0.702,0.496,0.825,0.908c0.251,0.848,0.016,1.598-0.777,2.001c-0.621,0.317-1.217-0.062-1.287-0.666
		c-0.223-1.917-1.09-1.032-1.904-0.513c0.154,0.63-0.109,1.34,0.365,1.913c0.994,0.224,1.999,0.008,2.996,0.094
		c0.391,0.034,0.723-0.087,0.863-0.505c0.179-0.383,0.634-0.335,0.899-0.581c0.431-2.044,0.196-4.109-0.079-6.117
		c-0.684-4.99-2.955-9.451-5.107-13.919C302.375,61.28,301.497,59.813,300.219,58.679z"/>
	<path fill-rule="evenodd" clip-rule="evenodd" fill="#CEC7BC" d="M271.237,37.225c2.681,3.448,5.147,7.046,7.392,10.791
		c0.535,0.892,1.099,1.571,2.174,1.772c1.08,0.202,1.809,1.127,2.816,1.5c-0.775-1.968-2.318-3.424-3.491-5.123
		c-1.99-2.883-4.365-5.479-6.718-8.078c-0.213-0.234-0.499-0.4-0.75-0.599C272.195,37.342,271.742,37.15,271.237,37.225z"/>
	<path fill-rule="evenodd" clip-rule="evenodd" fill="#565655" d="M371.91,110.062c0.713-0.281,1.148-1.017,1.937-1.17
		c0.013-0.071,0.017-0.143,0.014-0.214c-0.184-0.992-0.403-1.966-1.347-2.557l-0.14-0.014c-0.661,0.268-1.089,1.003-1.907,0.958
		c-0.01,0.087-0.011,0.173-0.001,0.26C371.166,108.122,371.373,109.179,371.91,110.062z"/>
	<path fill-rule="evenodd" clip-rule="evenodd" fill="#A5A7AB" d="M291.293,46.73c0.692,1.253,1.141,2.709,2.684,3.262
		C293.408,48.637,292.399,47.643,291.293,46.73z"/>
	<path fill-rule="evenodd" clip-rule="evenodd" fill="#B0ACA9" d="M181.249,84.823c-0.114-0.378-0.23-0.755-0.345-1.134
		c-0.733,1.245-0.475,2.583-0.363,3.906c0.264,0.098,0.319,0.317,0.329,0.563c0.113,0.092,0.228,0.094,0.343,0.006
		c0.353-0.411,0.314-0.88,0.094-1.304C180.948,86.176,181.396,85.496,181.249,84.823z"/>
	<path fill-rule="evenodd" clip-rule="evenodd" fill="#B0ACA6" d="M252.466,36.684c-0.093,0.269-0.186,0.537-0.276,0.806
		c1.228,0.485,1.484-0.152,1.386-1.199c-0.313-0.126-0.624-0.25-0.864,0.125C252.629,36.505,252.547,36.594,252.466,36.684z"/>
	<path fill-rule="evenodd" clip-rule="evenodd" fill="#4C628B" d="M252.711,36.416c0.272-0.04,0.545-0.08,0.815-0.119
		c0.286,0.22,0.573,0.253,0.863,0.01c-0.026-0.042-0.051-0.085-0.07-0.131C253.704,35.726,253.161,35.759,252.711,36.416z"/>
	<path fill-rule="evenodd" clip-rule="evenodd" fill="#ACA69F" d="M242.368,37.908c0.222,0.333,0.32,0.792,0.848,0.801
		c-0.019-0.286-0.035-0.571-0.054-0.857C242.897,37.872,242.633,37.89,242.368,37.908z"/>
	<path fill-rule="evenodd" clip-rule="evenodd" fill="#D5C7B2" d="M113.677,161.437c-5.463-1.038-10.906-2.213-16.5-2.32
		c-0.68,0.342-0.755,1.03-0.917,1.648c-1.017,3.891-1.558,7.842-1.313,11.863c0.105,1.721,0.5,3.421,1.219,5.001
		c1.106,2.436,3.269,2.774,5.65,1.03c2.58-1.891,4.768-4.119,6.471-6.844c1.406-2.251,2.841-4.486,4.215-6.757
		C113.161,163.969,113.922,162.848,113.677,161.437z"/>
	<path fill-rule="evenodd" clip-rule="evenodd" fill="#D5C7B2" d="M88.911,163.095c-0.761,2.801-0.818,5.681-1.079,8.548
		c-0.268,2.95,0.356,5.666,1.537,8.253c1.637,3.587,4.396,5.963,8.404,6.502c2.148,0.289,4.137-0.457,5.92-1.666
		c4.367-2.962,7.573-6.977,10.313-11.413c1.348-2.184,2.548-4.438,3.426-6.854c0.527-1.435,1.425-2.864,0.061-4.325
		c-0.102-0.052-0.204-0.105-0.307-0.157c-1.272,0.754-1.558,2.176-2.151,3.348c-2.482,4.896-5.324,9.517-9.304,13.38
		c-1.226,1.191-2.588,2.16-4.063,2.938c-2.454,1.295-5.837,0.064-7.204-2.509c-1.635-3.08-1.79-6.41-1.743-9.81
		c0.044-3.111,0.696-6.108,1.336-9.118c0.086-0.412,0.2-0.824-0.014-1.232c-1.109,0.05-2.222,0.102-3.333,0.15
		c-0.748,0.344-0.778,1.104-1.001,1.747C89.45,161.619,89.349,162.418,88.911,163.095z"/>
	<path fill-rule="evenodd" clip-rule="evenodd" fill="#4F4F4F" d="M94.043,158.979c-1.618,5.968-2.506,11.974-0.86,18.093
		c0.741,2.76,2.345,4.746,5.252,5.364c1.342,0.284,2.662,0.099,3.876-0.674c4.676-2.979,7.999-7.159,10.648-11.938
		c1.438-2.598,2.82-5.227,4.228-7.843c-1.14-0.377-2.231-1.07-3.51-0.545c-0.489,1.822-1.4,3.451-2.442,4.99
		c-1.848,2.734-3.412,5.647-5.492,8.242c-1.55,1.934-3.569,3.216-5.561,4.535c-1.245,0.823-2.92,0.028-3.607-1.571
		c-0.927-2.153-1.104-4.421-1.25-6.768c-0.219-3.478,0.717-6.71,1.334-10.023c0.11-0.587,0.343-1.15,0.519-1.726
		C96.133,159.037,95.072,159.389,94.043,158.979z"/>
	<path fill-rule="evenodd" clip-rule="evenodd" fill="#CDC0AC" d="M117.493,162.139c0.584,1.45,0.281,2.887-0.061,4.325
		c0.806-1.268,1.539-2.565,1.747-4.089C118.635,162.158,118.08,162.034,117.493,162.139z"/>
	<path fill-rule="evenodd" clip-rule="evenodd" fill="#C2B6A4" d="M88.911,163.095c0.941-0.474,0.852-1.476,1.163-2.272
		c0.218-0.563,0.425-1.13,0.636-1.693c-0.274,0.003-0.552,0.004-0.827,0.007C89.426,160.424,88.857,161.683,88.911,163.095z"/>
	<path fill-rule="evenodd" clip-rule="evenodd" fill="#D5C7B2" d="M397.455,141.454c-3.539-2.489-9.072-1.983-12.131,1.091
		c-2.965,2.979-4.691,6.656-6.204,10.516c-2.532,6.452-3.14,13.161-3.366,20.005c-0.143,4.335,0.572,8.421,1.971,12.46
		c0.902,2.611,2.546,4.709,4.699,6.313c2.965,2.208,9.074,1.457,11.7-1.18c2.214-2.223,3.589-4.995,5.108-7.663
		c2.746-4.819,3.908-10.14,4.658-15.571c0.752-4.235,0.392-8.471,0.005-12.706l0.007,0.012c-0.711-3.121-1.725-6.134-3.158-9.003
		C399.924,144.084,398.777,142.704,397.455,141.454z"/>
	<path fill-rule="evenodd" clip-rule="evenodd" fill="#CABDAA" d="M397.455,141.454c3.161,3.85,4.867,8.391,6.246,13.091
		c0.022,0.074,0.132,0.124,0.201,0.185c-0.352-3.505-1.287-6.845-2.965-9.947C400.146,143.318,398.908,142.259,397.455,141.454z"/>
	<path fill-rule="evenodd" clip-rule="evenodd" fill="#CABDAA" d="M403.895,154.718c0.056,3.319,0.425,6.634,0.142,9.96
		c-0.078,0.91-0.395,1.815-0.146,2.746c0.504-0.921,0.575-1.956,0.602-2.953c0.08-2.999-0.111-5.996-0.338-8.986
		C404.135,155.224,403.984,154.973,403.895,154.718z"/>
	<path fill-rule="evenodd" clip-rule="evenodd" fill="#C4BCB0" d="M372.513,106.12c0.481,0.834,0.658,1.831,1.347,2.557
		c3.116-1.964,6.346-3.725,9.718-5.2c3.307-1.447,6.845-1.94,10.382-2.542c4.229-0.719,8.376-0.309,12.478,0.443
		c6.363,1.169,12.622,2.767,18.14,6.414c1.198,0.792,2.497,1.435,3.749,2.147c0.648,0.41,1.318,0.795,2.016,0.138
		c0.571-0.536,0.945-1.164,0.465-1.97c-3.226-3.365-7.379-5.142-11.65-6.631c-6.42-2.238-13.059-3.604-19.832-4.078
		c-3.997-0.279-7.957,0.352-11.826,1.495c-5.079,1.5-9.778,3.792-14.227,6.631C373.002,105.694,372.764,105.92,372.513,106.12z"/>
	<path fill-rule="evenodd" clip-rule="evenodd" fill="#49515C" d="M366.386,84.517c1.992,4.199,3.984,8.399,5.98,12.598
		c0.46,0.967,0.96,1.913,1.394,2.892c0.299,0.673,0.724,1.189,1.481,0.889c0.857-0.341,0.953-1.101,0.592-1.875
		c-0.904-1.939-1.829-3.868-2.771-5.792c-1.576-3.217-3.17-6.425-4.758-9.637c-0.328-0.504-0.795-0.649-1.317-0.394
		C366.459,83.457,366.088,83.85,366.386,84.517z"/>
	<path fill-rule="evenodd" clip-rule="evenodd" fill="#4A505B" d="M386.449,94.528c-0.391-0.898-0.879-2.099-1.432-3.272
		c-1.705-3.62-3.432-7.229-5.154-10.84c-0.363-0.758-0.877-1.518-1.805-1.088c-0.96,0.445-0.609,1.269-0.246,2.037
		c1.949,4.121,3.868,8.257,5.809,12.382c0.298,0.632,0.598,1.275,1.006,1.833c0.314,0.43,0.857,0.588,1.389,0.358
		C386.476,95.739,386.506,95.3,386.449,94.528z"/>
	<path fill-rule="evenodd" clip-rule="evenodd" fill="#485160" d="M372.289,84.828c1.975,4.312,3.937,8.627,5.938,12.924
		c0.268,0.577,0.735,1.285,1.485,0.941c0.975-0.445,0.84-1.367,0.469-2.181c-1.063-2.327-2.156-4.642-3.252-6.953
		c-0.897-1.892-1.815-3.773-2.725-5.659c-0.325-0.518-0.785-0.593-1.29-0.333C372.42,83.825,371.969,84.147,372.289,84.828z"/>
	<path fill-rule="evenodd" clip-rule="evenodd" fill="#49515D" d="M385.115,83.167c1.164,3.327,2.658,6.517,4.054,9.748
		c0.358,0.832,0.96,1.206,1.761,0.85c0.788-0.352,0.553-1.078,0.287-1.695c-1.379-3.188-2.77-6.372-4.157-9.557
		C386.195,82.088,385.443,82,385.115,83.167z"/>
	<path fill-rule="evenodd" clip-rule="evenodd" fill="#BEB8AF" d="M430.806,108.107c-0.244,1.888-0.67,2.203-2.48,1.832
		c1.762,1.591,3.523,3.185,5.285,4.777c-1-1.954-0.771-2.661,1.002-3.099C433.388,110.4,432.247,109.092,430.806,108.107z"/>
	<path fill-rule="evenodd" clip-rule="evenodd" fill="#455269" d="M372.289,84.828c0.262-1.087,0.926-1.345,1.916-0.928
		c-0.26-1.217-0.967-2.226-1.537-3.299c-0.398-0.571-0.875-1.033-1.615-0.639c-0.688,0.366-0.552,0.974-0.307,1.565
		C371.187,82.662,371.627,83.797,372.289,84.828z"/>
	<path fill-rule="evenodd" clip-rule="evenodd" fill="#465166" d="M366.386,84.517c0.222-1.176,0.906-1.389,1.918-0.925
		c-0.271-1.212-0.963-2.229-1.54-3.3c-0.329-0.502-0.796-0.651-1.319-0.395c-0.529,0.259-0.9,0.654-0.603,1.32
		C365.276,82.354,365.73,83.483,366.386,84.517z"/>
	<path fill-rule="evenodd" clip-rule="evenodd" fill="#465165" d="M385.115,83.167c0.494-0.674,1.232-0.628,1.944-0.654
		c-0.184-0.822-0.542-1.571-0.986-2.276c-0.261-0.415-0.655-0.681-1.17-0.515c-0.562,0.181-0.788,0.606-0.716,1.191
		C384.29,81.75,384.513,82.537,385.115,83.167z"/>
	<path fill-rule="evenodd" clip-rule="evenodd" fill="#415372" d="M364.843,81.217c0.222-1.179,0.909-1.389,1.922-0.925
		c-0.294-1.041-0.926-2.151-2.017-1.63C363.533,79.243,364.386,80.359,364.843,81.217z"/>
	<path fill-rule="evenodd" clip-rule="evenodd" fill="#3F5479" d="M370.746,81.528c0.067-1.616,0.432-1.791,1.922-0.926
		c-0.396-0.952-0.649-2.464-2.057-1.729C369.472,79.469,370.246,80.646,370.746,81.528z"/>
	<path fill-rule="evenodd" clip-rule="evenodd" fill="#335898" d="M181.117,88.15c-0.082,0.012-0.165,0.015-0.247,0.008
		c-1.487,1.883-1.327,4.277-1.989,6.416c-0.19,0.617-0.342,1.247-0.512,1.87c-0.316,0.641-0.765,1.262-0.295,2.019
		c0.58,0.555,1.273,0.577,2.004,0.435c1.316-0.404,2.697-0.422,4.024-0.304c2.288,0.204,4.174-0.777,6.089-1.72
		c0.916-0.451,1.772-1.28,2.788-0.401c1.03,0.894,1.642,2.022,1.217,3.467c-0.649,2.037-2.166,2.948-4.176,3.185
		c-0.694,0.082-1.381,0.203-2.071,0.315c-1.361,0.224-2.585,0.078-3.878-0.65c-1.617-0.909-3.514-1.193-5.382-1.354
		c-0.371-0.032-0.749,0.049-1.004,0.384c0.01,1.322,0.001,2.639-0.308,3.936c0.473,3.115,0.928,6.232,1.425,9.346
		c0.228,1.421,0.291,2.859,0.49,4.286c0.722,5.148,1.151,10.334,1.867,15.48c0.572,4.099,0.952,8.212,1.37,12.326
		c0.25,2.44,0.755,4.856,1.113,7.286c0.119,0.798,0.678,0.581,1.164,0.622c4.012,0.334,8.01-0.283,12.013-0.211
		c4.39,0.077,8.766-0.338,13.141-0.242c3.507,0.075,6.99-0.31,10.481-0.202c4.249,0.129,8.485-0.346,12.719-0.229
		c3.694,0.102,7.361-0.244,11.042-0.233c1.627,0.004,3.251,0.118,4.883,0.07c1.045-0.027,1.303-0.354,1.298-1.397
		c-0.047-12.513-1.099-24.991-1.301-37.495c-0.208-12.883-1.165-25.736-1.354-38.612c-0.183-12.465-1.015-24.898-1.327-37.354
		c-0.02-0.787-0.216-0.99-0.917-0.873c-0.73,0.122-1.463,0.237-2.195,0.355c0.023,5.361,0.771,10.69,0.821,16.039
		c0.052,5.312,0.35,10.61,0.441,15.917c0.381,3.185-0.082,6.375,0.069,9.561c0.053,1.105,0.134,2.209,0.203,3.314
		c0.001,0.137,0.025,0.277,0.004,0.411c-0.359,2.336-0.449,2.411-2.917,2.481c-3.885-0.607-7.742,0.187-11.613,0.224
		c-1.383,0.013-2.768,0.294-4.147-0.035c-0.807-0.685-1.758-0.354-2.649-0.341c-1.1,0.016-2.197,0.244-3.292-0.052
		c-2.897-0.118-5.783,0.158-8.673,0.274c-0.465,0.019-0.938,0.088-1.257,0.507c-1.765,0.505-3.586,0.378-5.384,0.406
		c-3.339,0.051-6.679-0.017-10.018-0.034c-1.992,0.062-3.98,0.201-5.976,0.146c-0.74-0.021-1.484-0.099-2.202,0.171
		c-0.06,0.049-0.127,0.069-0.204,0.062C184.736,88.283,182.912,88.042,181.117,88.15z"/>
	<path fill-rule="evenodd" clip-rule="evenodd" fill="#335898" d="M307.377,83.379c-1.381,0.043-2.763,0.087-4.143,0.131
		c-0.785-0.483-1.505,0.035-2.248,0.146c-0.374,0.022-0.748,0.043-1.12,0.066c-1.02-0.724-2.176-0.386-3.252-0.321
		c-3.155,0.19-6.304,0.005-9.452-0.059c-1.35-0.028-2.689,0.087-4.032,0.093c-1.295,0.088-2.55-0.293-3.834-0.341
		c-6.097,0.675-12.251,0.458-18.344,1.198c-2.037,0.248-4.086,0.06-6.113,0.303c-2.239,0.44-2.711-0.136-2.403-2.941
		c-0.004-2.748,0.046-5.498,0.113-8.236c0.083-3.407-0.269-6.806,0.018-10.213c0.514-6.11,0.099-12.218-0.247-18.322
		c-0.034-0.608-0.042-1.213,0.127-1.806c-0.014-1.848,0.29-3.725-0.482-5.506c-0.872,0.111-1.747,0.207-2.615,0.338
		c-0.978,0.149-0.749,0.918-0.726,1.539c0.193,4.853,0.4,9.705,0.603,14.556c0.198,4.759,0.542,9.517,0.566,14.277
		c0.061,12.561,1.138,25.085,1.296,37.635c0.127,10.084,0.792,20.142,1.065,30.215c0.149,5.454,0.313,10.906,0.409,16.361
		c0.02,1.108,0.371,1.353,1.468,1.372c4.621,0.083,9.232-0.361,13.841-0.277c3.785,0.067,7.553-0.369,11.32-0.221
		c3.881,0.151,7.74-0.356,11.601-0.211c3.929,0.147,7.832-0.347,11.741-0.219c2.758,0.092,5.496-0.097,8.242-0.109
		c0.932-0.005,1.307-0.255,1.258-1.282c-0.229-4.934-0.698-9.854-1.02-14.781c-0.183-2.781-0.229-5.584-0.568-8.353
		c-0.479-3.895-0.365-7.827-0.824-11.704c-0.366-3.068-0.291-6.144-0.629-9.195c-0.211-1.895-0.456-3.784-0.528-5.691
		c-1.81-1.118-3.834-1.303-5.857-1.112c-1.116,0.104-2.19,0.203-3.278-0.062c-0.45,0.003-0.793,0.251-1.105,0.526
		c-1.547,1.37-3.363,1.873-5.401,1.835c-1.062-0.018-2.06,0.023-2.62-1.111c-0.572-1.165-0.657-2.301,0.076-3.441
		c0.537-0.834,1.379-1.375,1.997-2.127c1.12-1.243,2.548-0.697,3.888-0.665c2.056-0.601,3.878,0.213,5.711,0.956
		c1.093,0.725,2.189,1.438,3.6,1.228c0.96-0.178,1.862-0.56,2.805-0.801C307.599,92.513,307.759,87.929,307.377,83.379z"/>
	<path fill-rule="evenodd" clip-rule="evenodd" fill="#E6E2DD" d="M251.964,37.569c0.041,1.822,0.081,3.645,0.121,5.467
		c-0.329,2.017,0.346,3.617,1.671,5.192c3.162,3.758,6.194,7.628,9.021,11.652c0.188,0.267,0.376,0.528,0.639,0.731
		c0.446,0.34,0.901,0.662,1.364,0.974c3.508,2.368,8.009,0.569,8.944-3.573c0.262-1.16,0.05-2.216-0.615-3.191
		c-1.194-2.539-3.028-4.643-4.713-6.839c-2.62-3.414-5.354-6.74-7.967-10.158c-0.67-0.875-1.356-1.197-2.453-1.197
		c-1.188,0-2.482,0.7-3.586-0.322c-0.287-0.003-0.575-0.006-0.863-0.01c-0.218,0.653-0.365,1.385-1.337,1.192
		C252.117,37.528,252.043,37.554,251.964,37.569z"/>
	<path fill-rule="evenodd" clip-rule="evenodd" fill="#D1C4B1" d="M299.183,100.808c0.969,0.578,1.957,0.637,3.055,0.331
		c1.408-0.39,2.824-0.007,4.205,0.295c0.672,0.147,1.32,0.392,2.021,0.385c-0.063-1.591-0.125-3.182-0.187-4.772
		c-1.056-0.646-1.813,0.482-2.764,0.463c-1.541,0.692-2.586-0.034-3.477-1.21c-1.895-0.748-3.737-1.835-5.889-0.895
		c-0.516,0.182-1.126,0.042-1.573,0.459c-0.671,0.501-1.347,1-1.8,1.728c-0.507,0.816-0.604,1.658-0.077,2.496
		c0.499,0.792,1.339,1.223,2.152,0.934C296.308,100.505,297.732,100.7,299.183,100.808z"/>
	<path fill-rule="evenodd" clip-rule="evenodd" fill="#44526A" d="M177.378,105.756c0.665-1.221,0.417-2.533,0.381-3.823
		c0.528-1.138,0.517-2.338,0.41-3.55c0.067-0.646,0.134-1.292,0.2-1.938c-0.906,0.448-1.114,1.166-1.046,2.151
		C177.488,100.979,177.621,103.367,177.378,105.756z"/>
	<path fill-rule="evenodd" clip-rule="evenodd" fill="#C6BDB0" d="M263.525,60.279c-3.179-4.428-6.479-8.765-10.034-12.896
		c-1.117-1.297-1.409-2.746-1.406-4.347c-0.414,2.271-0.005,4.535,0.091,6.797c0.22,5.114,0.281,10.22-0.175,15.324
		c-0.037,0.415,0.009,0.838,0.016,1.257c0.066,3.86,0.178,7.72,0.175,11.58c-0.001,1.363-0.591,2.718-0.062,4.094
		c0.686,1.06,1.449,2.058,2.339,2.955c4.591-0.275,9.184-0.543,13.773-0.831c3.713-0.233,7.425-0.49,11.137-0.737
		c-0.412-1.827-1.715-3.114-2.767-4.549c-0.244-0.333-0.602-0.581-0.835-0.933c-1.676-2.211-3.308-4.453-4.775-6.811
		c-0.025-0.792-0.494-1.393-0.938-1.968c-1.558-2.016-2.925-4.16-4.292-6.302C265.14,61.926,264.212,61.208,263.525,60.279z"/>
	<path fill-rule="evenodd" clip-rule="evenodd" fill="#E4E0DA" d="M263.525,60.279c0.778,1.686,2.139,2.971,3.113,4.532
		c1.361,2.182,2.9,4.253,4.363,6.371c1.189,0.806,2.405,1.534,3.793,1.991c1.627,0.537,2.979,0.241,4.23-0.902
		c1.605-1.466,2.418-3.198,1.762-5.354c-0.625-2.053-1.648-3.891-3-5.599c-1.26-1.594-2.254-3.397-3.335-5.127
		c-0.353-0.565-0.741-1.064-1.344-1.37c0.306,1.546,0.616,3.058-0.289,4.567c-1.854,3.092-4.909,3.823-7.907,1.809
		C264.451,60.889,263.987,60.585,263.525,60.279z"/>
	<path fill-rule="evenodd" clip-rule="evenodd" fill="#DAD5CD" d="M275.777,77.993c1.2,1.827,2.4,3.654,3.602,5.482
		c1.212,0.325,2.43,0.125,3.646,0.041c0.09-0.053,0.117-0.103,0.086-0.151c-0.033-0.048-0.064-0.072-0.095-0.071
		c-0.799,0.17-1.315-0.184-1.692-0.865c-0.891-1.62-2.111-2.825-3.964-3.356C276.777,78.904,276.301,78.363,275.777,77.993z"/>
	<path fill-rule="evenodd" clip-rule="evenodd" fill="#D9D5CF" d="M283.016,83.294c0.003,0.074,0.007,0.148,0.009,0.222
		c5.613,0.162,11.224,0.371,16.841,0.206c-0.075-0.608-0.513-0.98-0.897-1.387c-1.167,0.27-2.408-0.231-3.531,0.877
		c-0.697,0.688-2.063,0.03-3.104-0.072C289.213,82.831,286.121,83.277,283.016,83.294z"/>
	<path fill-rule="evenodd" clip-rule="evenodd" fill="#CDC8C1" d="M300.986,83.656c0.748-0.048,1.497-0.097,2.246-0.146
		c1.178-0.605-0.008-1.091-0.08-1.632c-0.094,0.004-0.188,0.009-0.279,0.014C302.802,83.077,301.708,83.168,300.986,83.656z"/>
	<path fill-rule="evenodd" clip-rule="evenodd" fill="#D8D1C8" d="M220.241,86.564c1.968,0.378,3.94-0.006,5.91,0.027
		c0.576-0.047,1.152-0.094,1.728-0.142c-2.275-3.147-3.992-6.657-6.357-9.747c-0.816-1.066-1.636-2.146-2.299-3.309
		c-1.861-3.261-4.664-4.754-8.363-4.7c0.979,2.119,2.597,3.791,3.96,5.64c2.549,3.458,5.092,6.915,7.116,10.72
		c0.142,0.639,0.129,1.146-0.76,1.107C220.831,86.147,220.454,86.204,220.241,86.564z"/>
	<path fill-rule="evenodd" clip-rule="evenodd" fill="#DCD7CF" d="M220.241,86.564c0.364-0.028,0.73-0.039,1.091-0.089
		c0.439-0.061,1.075,0.184,1.273-0.23c0.241-0.502-0.364-0.828-0.67-1.191c-1.922-0.888-2.806-2.773-4.075-4.28
		c-0.79-0.936-1.667-1.786-2.639-2.492c-1.339-0.974-2.835-1.238-4.495-0.639c-1.729,0.623-2.452,0.245-3.521-1.313
		c-1.288-1.873-2.215-3.991-3.836-5.635c0.179,1.233,0.475,2.447,0.447,3.711c-0.03,1.417-0.614,2.458-1.819,3.221
		c-2.642,1.672-5.157,1.423-7.613-0.377c1.463,2.192,2.925,4.386,4.39,6.578c0.077,0.115,0.226,0.192,0.274,0.314
		c1.102,2.82,3.266,3.205,5.949,2.796c1.735-0.264,3.524-0.282,5.282,0.041C213.6,86.841,216.921,86.703,220.241,86.564z"/>
	<path fill-rule="evenodd" clip-rule="evenodd" fill="#BCB6AE" d="M181.117,88.15c1.855,0.667,3.661,0.685,5.38-0.418
		c-0.25-0.116-0.559-0.174-0.745-0.358c-0.948-0.937-1.736-2.083-3.411-1.588c-0.454,0.133-0.683-0.672-1.092-0.963
		c-0.486,0.67-0.759,1.376-0.235,2.143C181.281,87.358,181.162,87.749,181.117,88.15z"/>
	<path fill-rule="evenodd" clip-rule="evenodd" fill="#BCB6AE" d="M186.701,87.67c2.233-0.011,4.467,0.186,6.699-0.024
		c0.5-0.048,1.034,0.056,1.479-0.293c-2.528-0.458-5.056,0.003-7.583,0.032C187.097,87.386,186.9,87.571,186.701,87.67z"/>
	<path fill-rule="evenodd" clip-rule="evenodd" fill="#4F4F4F" d="M380.804,171.088c-0.525,5.192,1.541,9.955,3.761,14.664
		c1.814,3.848,4.586,4.184,7.521,1.035c1.343-1.442,2.423-3.067,3.55-4.666c1.157-1.642,1.383-3.63,1.971-5.469
		c0.986-3.08,2.326-6.055,2.68-9.345c0.365-3.396,0.343-6.755,0.023-10.149c-0.39-4.123-2.883-6.684-6.027-8.907
		c-2.4-1.698-7.313-0.177-9.029,2.332c-3.229,4.728-4.574,9.907-4.422,15.544C380.874,167.716,380.463,169.287,380.804,171.088z"/>
	<path fill-rule="evenodd" clip-rule="evenodd" fill="#C6BDB0" d="M178.169,98.382c-0.646,1.124-0.564,2.332-0.41,3.549
		c2.354-0.047,4.645,0.215,6.672,1.547c0.663,0.436,1.365,0.594,2.116,0.464c2.063-0.357,4.247-0.097,6.142-1.344
		c0.999-0.657,1.626-1.471,1.828-2.634c-0.073-1.345-0.652-1.858-1.936-1.944c-3.991-0.264-7.927,0.912-11.925,0.439
		c-0.186-0.022-0.369,0.025-0.523,0.148C179.453,98.743,178.815,98.54,178.169,98.382z"/>
	<path fill-rule="evenodd" clip-rule="evenodd" fill="#C0B9AF" d="M180.133,98.609c0.785-0.009,1.561-0.083,2.347,0.145
		c2.038,0.588,4.013-0.281,6.026-0.342c0.318-0.011,0.682-0.252,0.938-0.155c1.09,0.4,2.141,0.333,3.272,0.155
		c0.989-0.155,1.613,0.553,1.8,1.556c0.462-1.591-0.394-3.509-1.814-4.181c-0.739-0.35-1.375-0.159-1.944,0.282
		c-1.387,1.077-3.032,1.658-4.664,2.068c-1.339,0.337-2.821,0.083-4.238,0.142C181.275,98.303,180.635,98.132,180.133,98.609z"/>
	<path fill-rule="evenodd" clip-rule="evenodd" fill="#CBC0B0" d="M299.183,100.808c-1.273-0.501-2.471-1.055-3.9-0.189
		c-0.74,0.45-1.734,0.214-2.306-0.669c-0.56-0.866-0.363-1.691,0.261-2.417c0.475-0.552,1.025-1.038,1.541-1.552
		c-0.937-0.435-1.844-0.22-2.746,0.121c-0.588,0.581-1.211,1.131-1.756,1.748c-1.017,1.155-1.2,2.444-0.594,3.887
		c0.488,1.171,1.238,1.663,2.556,1.702C294.955,103.518,297.269,102.745,299.183,100.808z"/>
	<path fill-rule="evenodd" clip-rule="evenodd" fill="#DCD7D1" d="M254.469,85.043c-0.496-1.208-1.227-2.232-2.339-2.955
		C251.469,84.306,252.406,85.49,254.469,85.043z"/>
	<path fill-rule="evenodd" clip-rule="evenodd" fill="#C0B9AF" d="M292.033,96.102c0.932,0.325,1.832-0.052,2.746-0.121
		c0.482-0.129,0.971-0.244,1.369-0.576C294.697,95.165,293.189,94.597,292.033,96.102z"/>
	<path fill-rule="evenodd" clip-rule="evenodd" fill="#8993A6" d="M302.037,96.299c0.937,1.932,1.639,2.175,3.477,1.21
		C304.129,97.755,303.096,96.989,302.037,96.299z"/>
	<path fill-rule="evenodd" clip-rule="evenodd" fill="#D5C7B2" d="M383.804,170.537c0.107,5.161,1.314,9.932,3.688,14.396
		c0.684,1.287,0.956,1.224,1.939,0.153c4.027-4.377,5.54-9.848,7-15.402c0.729-2.768,1.146-5.553,1.219-8.368
		c0.104-4.047-0.721-7.774-4.514-10.176c-1.352-0.856-3.974-0.463-4.955,0.813c-2.86,3.714-4.207,7.878-4.141,12.575
		C384.068,166.562,383.566,168.592,383.804,170.537z"/>
</g>
</svg>
