<?xml version="1.0" encoding="utf-8"?>
<!-- Generator: Adobe Illustrator 16.0.0, SVG Export Plug-In . SVG Version: 6.00 Build 0)  -->
<!DOCTYPE svg PUBLIC "-//W3C//DTD SVG 1.1//EN" "http://www.w3.org/Graphics/SVG/1.1/DTD/svg11.dtd">
<svg version="1.1" id="Layer_1" xmlns="http://www.w3.org/2000/svg" xmlns:xlink="http://www.w3.org/1999/xlink" x="0px" y="0px"
	 width="368px" height="335px" viewBox="0 0 368 335" enable-background="new 0 0 368 335" xml:space="preserve">
<g>
	<path fill="#F6AD17" d="M153.9,265.7c1.3-5.5,0.5-39,14.3-32.3c6.8,3.3-1.3,20.8-2.8,26.5c-1,3.3-13.8,43.8-21,40
		C137.7,296.2,152.7,272,153.9,265.7z"/>
	<path fill="#B97549" d="M30.9,100c-6,0.3-11,2.8-12.3,9.3c-1.3,6,16.3,23.8,22.3,22.8c-10.3,1.8-28.5,7.8-33.5,17.5
		c-10,19,13.5,16.3,24.3,18.3c-8.5,4.8-14.5,12.8-8.8,22.3c7.5,12,21,6.5,30.3,0.5c15.5-10.3,54.5-25.5,54-47.5
		c-0.8-22-32-34-49.5-37.8C52.2,104,40.2,99.5,30.9,100z"/>
	<path fill="#EA1F28" d="M298.2,40.5c3.5-5.8,18.8-5.8,16.5-12c-2.8-7.5-19.8-4.3-25-4.5c-3-6.8-15-37.8-18.5-2.3
		c-10.8-11.3-36.3-9.8-36.5,3.3c-0.3,7,23.5,10.8,27.3,19.8C298.2,40.5,298.2,40.5,298.2,40.5z"/>
	<path fill="#C0925D" d="M131.7,251.2c-24-17.3-44-43.8-53.5-65.3c-5-11.8-9.5-32-3.5-44.5c14.8-30.3,42.3-34.5,73.3-36.5
		c17.5-1,35.8-5.3,51.8-12.8c13.5-6.5,24.8-14.3,40.5-10.5c12,3,25.3,10.5,33,20.5c4.5,5.8,7,11.3,8.3,16.5c5,22.8-2.3,52.3-6.3,75
		c-3.8,21.5-13,39.5-32,51.3C206.7,267.7,168.9,278,131.7,251.2z"/>
	<path fill="#B97549" d="M248.7,40.7c22.5-16.8,62.3-6.8,77.8,16c5.5,8.3,8.5,18,5.3,27c-5.5-0.3-14.3,21-18,26.3
		c-6.8,9.5-15.8,18-22.3,27.5c-2.5,4-5.3,10-7,14.5c-1.3,3.8-1,11.8-3.3,14.8c-8.5,10-10.5-13.8-10.8-19.8c-8,1.8-12,14-22,11.8
		c-9-1.8-6.3-12.5-6-20.3c-5.3,5-17.8,9.3-24.3,6.8c-9-3.5-5.8-15.3-4.3-22.3c-13.3,3.8-25.8,4.5-18-11.8c0.3-0.3,0.3-0.3,0,0.3
		c-9.5,6.5-25.5-1.3-24.8-13.3c1.3-18,25-10.5,36-13.3C228.7,79.7,232.2,52.5,248.7,40.7z"/>
	<path fill="#FFFFFF" d="M282.7,55.5c10.8,10,5,28.3-7.3,34.5c-14,7.3-30.8-8.5-28.3-23c2-10.8,11.3-18.3,22.3-17
		C275.2,50.7,279.4,52.7,282.7,55.5z"/>
	<path fill="#100F0D" d="M276.2,81c-10.5,3.3-18.8-8.8-11.8-17.5c6.3-7.8,19.8-4,19.5,6.3C283.9,75,281.7,79.5,276.2,81z"/>
	<path fill="#FFFFFF" d="M269.7,74c-2.3,2.8-7.3,1-7-2.8c0.3-3,3.3-5.3,5.8-3.5C270.4,69.2,271.7,71.7,269.7,74z"/>
	<path fill="#F6AD17" d="M324.7,91.7c-17.3,8-20-26.3-11.5-34c5-4.5,13.5-5,19.8-4.3c12.5,1.5,17.8,7.5,27.8,13
		C353.2,76.5,336.4,86.2,324.7,91.7z"/>
	<path fill="#F6AD17" d="M239.4,263.7c-5-3.3-36.8-14-25.5-24.5c5.3-5.3,19,8.3,24,11.8c2.5,2,36.3,28,30.3,33.3
		S244.7,267,239.4,263.7z"/>
	<path fill="#B97549" d="M137.7,136.7c-6.3-3.8-19.8-8-20.5,3.5c-0.8,6.5,9.5,12.8,14.5,15.3c-7,0.3-15.3,3-12.3,11.3
		c2.5,7.5,13.3,9,19.8,10.3c-33.3,13.5,31.8,42.8,49,41.3c12-1,27.5-5.8,33.3-18c9.3-18.8-8.3-28.3-23.8-33
		c-8.3-2.5-15.8-3.8-23.5-7.5C161.2,153.2,149.9,144.2,137.7,136.7z"/>
	<path fill="#F6AD17" d="M292.2,252.2c11-0.3,6.8,3,0,6.5c-6.5,3-12,6.8-17,12.8c4.3-1.8,34-14.8,34.3-2.3c0.3,4.5-24.8,9.5-30,11.8
		c7.8-2,19.8,1.5,23.3,8.8c0,0.5,0,1-0.3,1.5c-9.8,2-20.8-4.5-31-3.5c-5.3,0.3-13.5,4.3-14.8-3.8c-1.3-7.3,9.5-14.8,13.5-19.3
		C276.2,258,282.2,252.2,292.2,252.2z"/>
	<path fill="#F6AD17" d="M193.4,296c7.5,8,2.3,7-4.8,4.5c-6.8-2.8-13.3-4.3-20.8-3.8c4,2,33.8,14.5,25,23.5
		c-3.3,3.3-24-11.5-29-13.8c6.5,4.3,12.3,15.3,9.3,23c-0.3,0.3-0.8,0.5-1.3,0.8c-8.3-5.8-11-18.3-18.5-25c-4-3.8-12.5-7-7.5-13.5
		c4.3-5.8,17.3-3,23.3-3.3C178.2,288.2,186.4,288.7,193.4,296z"/>
	<path fill="#C0925D" d="M231.2,225c6.5,6.8,30.5,37,14,44.3c-9,3.8-20.8-3.3-29-6.8c-9.8-4.5-23.3-8.3-29.3-17.5
		C231.2,225,231.2,225,231.2,225z"/>
	<path fill="#C0925D" d="M181.7,248c0.3,7-6.8,15.8-10.3,21.8c-4.8,8.5-11.5,12-20.8,8.5c-18-6.3-6.8-26.5-15.8-38.3
		C181.7,248,181.7,248,181.7,248z"/>
</g>
</svg>
