<?xml version="1.0" encoding="utf-8"?>
<!-- Generator: Adobe Illustrator 16.0.0, SVG Export Plug-In . SVG Version: 6.00 Build 0)  -->
<!DOCTYPE svg PUBLIC "-//W3C//DTD SVG 1.1//EN" "http://www.w3.org/Graphics/SVG/1.1/DTD/svg11.dtd">
<svg version="1.1" id="Layer_1" xmlns="http://www.w3.org/2000/svg" xmlns:xlink="http://www.w3.org/1999/xlink" x="0px" y="0px"
	 width="180px" height="333px" viewBox="0 0 180 333" enable-background="new 0 0 180 333" xml:space="preserve">
<g>
	<path fill="#35231A" d="M19.3,245.9c45.3,19.5,96.3,19.5,141.5,0c0-48,0-95.8,0-143.5c-47.3,0-94.3,0-141.5,0
		C19.3,150.1,19.3,197.9,19.3,245.9z"/>
	<path fill="#EBAE9D" d="M44.3,228.1c9.8,0,20.5-7,31.8-21c2-2.5,1.5-6.3-1-8c-2.5-2-6-1.8-8,0.8c-9.8,12.3-18.5,18-24.8,16.5
		c-8.5-2-13.8-17.5-14.8-22.8c-0.8-3-3.8-5-6.8-4.3c-3.3,0.5-5.3,3.8-4.5,6.8c0.5,2.8,6.3,27.5,23.3,31.5
		C41.3,227.9,42.8,228.1,44.3,228.1z"/>
	<path fill="#EBAE9D" d="M25.3,187.9c-4.5-1.8-5.3-0.5-8,2.3s-5,5-2.3,8c2.8,2.8,8.5,4,11.5,1.3C29.3,196.4,28,190.6,25.3,187.9z"/>
	<path fill="#EBAE9D" d="M11,190.1c-0.5-0.3-1.3-0.3-1.8,0l0,0c-0.3,0.5-0.3,1.3,0,1.8c6,5.8,6,5.8,6,5.8c0.5,0.5,1.3,0.5,1.5,0l0,0
		c0.5-0.3,0.5-1,0-1.5C11,190.1,11,190.1,11,190.1z"/>
	<path fill="#EBAE9D" d="M11.3,185.6c-0.5-0.3-1.3-0.3-1.5,0l0,0c-0.5,0.5-0.5,1.3,0,1.5c5.8,6,5.8,6,5.8,6c0.5,0.5,1.3,0.5,1.8,0
		l0,0c0.3-0.3,0.3-1,0-1.5C11.3,185.6,11.3,185.6,11.3,185.6z"/>
	<path fill="#EBAE9D" d="M13,182.6c-0.5-0.5-1.3-0.5-1.8,0l0,0c-0.3,0.3-0.3,1,0,1.5c6,6,6,6,6,6c0.5,0.3,1.3,0.3,1.5,0l0,0
		c0.5-0.5,0.5-1.3,0-1.5C13,182.6,13,182.6,13,182.6z"/>
	<path fill="#EBAE9D" d="M16.5,181.4c-0.5-0.5-1-0.5-1.5,0l0,0c-0.5,0.5-0.5,1,0,1.5c6,6,6,6,6,6c0.5,0.5,1,0.5,1.5,0l0,0
		c0.5-0.5,0.5-1,0-1.5C16.5,181.4,16.5,181.4,16.5,181.4z"/>
	<path fill="#EBAE9D" d="M27.5,185.1c0.3-0.3-0.3-0.8-1-1l0,0c-0.8-0.3-1.3-0.3-1.5,0.3c-2,5.5-2,5.5-2,5.5c-0.3,0.3,0.3,1,1,1.3
		l0,0c0.5,0.3,1.3,0,1.5-0.3C27.5,185.1,27.5,185.1,27.5,185.1z"/>
	<path fill="#E70E91" d="M64.8,198.1c1.8-2,5-2.8,6.8-3.3c2.5-0.5,9.3-0.8,12.3-0.3c2.3,0.3-4,5.8-3.8,8s-0.5,4.5-2,6.3
		c-8.3,10.5-16.5,17.3-24.5,20.3c-6-16-6-16-6-16C52.3,211.4,58.3,206.1,64.8,198.1z"/>
	<path fill="#F283C7" d="M45.5,213.6c-0.5,0.3-1,1-0.5,1.5c0.3,0.8,0.8,1,1.5,0.8c0,0,0,0,0,0.3c-0.8,0.3-1,1-0.8,1.5
		c0.5,0.8,1,1,1.8,0.8c-0.8,0.5-1,1-0.8,1.8s1,1,1.8,0.8l0,0c-0.5,0.3-0.8,1-0.5,1.8c0.3,0.5,1,1,1.5,0.8c-0.5,0.3-0.8,1-0.5,1.5
		c0.3,0.8,1,1,1.8,0.8l0,0c-0.5,0.5-0.8,1-0.5,1.8c0.3,0.5,1,0.8,1.8,0.5v0.3c-0.5,0.3-0.8,1-0.5,1.5c0.5,0.5,1,1,1.8,0.8l2.5-1.3
		c0.5-0.5,0.5-1,0.3-1.5s-0.8-1-1.5-0.8c0,0,0,0,0-0.3c0.3-0.3,0.5-0.8,0.3-1.3c-0.3-0.8-0.8-1-1.3-0.8c-0.3-0.3-0.3-0.3-0.3-0.3
		c0.5-0.5,0.5-1,0.3-1.5s-0.8-0.8-1.3-0.8c0,0,0,0,0-0.3c0.3-0.3,0.3-0.8,0.3-1.3c-0.3-0.5-0.8-0.8-1.5-0.8c0,0,0,0,0-0.3l0,0
		c0.5-0.5,0.5-1,0.3-1.5s-0.8-0.8-1.3-0.8c0,0,0,0,0-0.3c0.5-0.3,0.5-1,0.3-1.5s-0.8-0.8-1.3-0.8l0,0c0.5-0.5,0.5-1,0.5-1.8
		c-0.3-0.5-0.8-0.8-1.3-0.8C47.5,212.6,45.5,213.6,45.5,213.6z"/>
	<path fill="#EBAE9D" d="M142.8,262.9c0,0,0,0,0.3,0c3,0,5.5-2.8,5.5-5.8c-0.8-24.3-11.8-38.8-21-46.8c-9.8-8.5-19.8-11.5-20-11.5
		c-3.3-1-6.3,0.8-7.3,3.8c-0.8,3.3,1,6.3,4,7.3c1.3,0.3,31.8,9.8,32.8,47.5C137.3,260.4,139.8,262.9,142.8,262.9z"/>
	<path fill="#EBAE9D" d="M135.5,264.9c1.8,4.3,3.3,4,7,4c4,0,7.3,0,7.3-4s-3.3-9-7.3-9C138.8,255.9,135.5,260.9,135.5,264.9z"/>
	<path fill="#EBAE9D" d="M147.3,273.1c0,0.8,0.5,1.3,1,1.3l0,0c0.8,0,1.3-0.5,1.3-1.3c0-8.3,0-8.3,0-8.3c0-0.8-0.5-1.3-1.3-1.3l0,0
		c-0.5,0-1,0.5-1,1.3C147.3,273.1,147.3,273.1,147.3,273.1z"/>
	<path fill="#EBAE9D" d="M143.8,276.1c0,0.8,0.5,1.3,1.3,1.3l0,0c0.5,0,1-0.5,1-1.3c0-8.3,0-8.3,0-8.3c0-0.8-0.5-1.3-1-1.3l0,0
		c-0.8,0-1.3,0.5-1.3,1.3C143.8,276.1,143.8,276.1,143.8,276.1z"/>
	<path fill="#EBAE9D" d="M140.3,277.1c0,0.8,0.5,1.3,1.3,1.3l0,0c0.5,0,1-0.5,1-1.3c0-8.3,0-8.3,0-8.3c0-0.8-0.5-1.3-1-1.3l0,0
		c-0.8,0-1.3,0.5-1.3,1.3C140.3,277.1,140.3,277.1,140.3,277.1z"/>
	<path fill="#EBAE9D" d="M137,275.4c0,0.8,0.5,1.3,1,1.3l0,0c0.8,0,1.3-0.5,1.3-1.3c0-8.3,0-8.3,0-8.3c0-0.8-0.5-1.3-1.3-1.3l0,0
		c-0.5,0-1,0.5-1,1.3C137,275.4,137,275.4,137,275.4z"/>
	<path fill="#EBAE9D" d="M132,265.1c-0.5,0-0.5,0.8-0.3,1.5l0,0c0.3,0.5,0.8,1,1.3,0.8c5.5-2.5,5.5-2.5,5.5-2.5c0.3,0,0.3-0.8,0-1.5
		l0,0c-0.3-0.5-0.8-1-1.3-0.8C132,265.1,132,265.1,132,265.1z"/>
	<path fill="#E70E91" d="M103.5,212.6c-4.5-1.5-7.3-6.3-6-10.8c1.3-3.5,1-7,5-7c0.8,0,5,1,5.8,1.3c0.3,0,10.8,3.3,21.3,12.3
		c2.5,2.3,5.3,5,7.8,8.3c-12.8,11.3-12.8,11.3-12.8,11.3C115.8,216.4,104.3,212.6,103.5,212.6z"/>
	<path fill="#F283C7" d="M124.8,229.1c0.5,0.5,1.3,0.5,1.8,0c0.5-0.3,0.5-1,0.3-1.5v-0.3c0.5,0.5,1.3,0.8,2,0.3
		c0.5-0.5,0.5-1,0.3-1.8c0.5,0.5,1.3,0.8,1.8,0.3s0.8-1.3,0.3-1.8l0,0c0.5,0.5,1.3,0.5,1.8,0c0.8-0.3,0.8-1.3,0.5-1.8
		c0.3,0.5,1,0.5,1.5,0c0.8-0.3,0.8-1,0.3-1.8l0,0c0.5,0.5,1.3,0.5,1.8,0c0.5-0.3,0.8-1.3,0.3-1.8l0,0c0.5,0.3,1.3,0.3,1.8,0
		c0.5-0.5,0.8-1.3,0.3-1.8l-1.8-2.3c-0.5-0.3-1-0.3-1.5,0.3c-0.5,0.3-0.8,1-0.5,1.5c0,0,0,0,0,0.3c-0.5-0.3-1-0.3-1.5,0
		c-0.5,0.5-0.5,1-0.3,1.5c-0.3,0-0.3,0.3-0.3,0.3c-0.5-0.3-1-0.3-1.5,0c-0.5,0.5-0.5,1-0.3,1.5c-0.3,0-0.3,0-0.3,0.3
		c-0.5-0.3-1-0.3-1.5,0c-0.3,0.3-0.5,1-0.3,1.5c-0.3,0-0.3,0-0.3,0l0,0c-0.5-0.3-1-0.3-1.5,0.3c-0.5,0.3-0.5,0.8-0.5,1.3
		c0,0,0,0,0,0.3c-0.5-0.5-1.3-0.5-1.8,0c-0.3,0.3-0.5,0.8-0.3,1.3c-0.3,0.3-0.3,0.3-0.3,0.3c-0.5-0.5-1-0.5-1.5,0
		c-0.5,0.3-0.8,1-0.5,1.3C123.3,227.4,124.8,229.1,124.8,229.1z"/>
	<polygon fill="#FBD5B8" points="111.5,318.1 98,318.1 98,258.4 111.5,258.4 111.5,318.1 	"/>
	<polygon fill="#EBAE9D" points="111.5,318.1 98,318.1 98,258.4 111.5,258.4 111.5,318.1 	"/>
	<path fill="#59B4E1" d="M98,258.4c0,42.5,0,42.5,0,42.5c1.8,0.5,4.3,1,6.8,1s4.8-0.5,6.8-1c0-8.5,0-8.5,0-8.5c0-34,0-34,0-34
		C98,258.4,98,258.4,98,258.4z"/>
	<path fill="#F4F4F5" d="M98.3,314.6c1.5,0.8,4,1,6.3,1c2.8,0,5.3-0.5,7-1.3c9,1,12.8,10,11,12c-2.5,2.5-11.8,3.5-18.5,0.3
		c-2.5-1-7,0-7-2.8c0-7.8,0-7.8,0-7.8C97,315.4,97.5,314.9,98.3,314.6z"/>
	<path fill="#E9EAE8" d="M118.3,317.1c-1.8,0.8-3,1.8-4,3c-0.8-0.8-1.3-1.3-2-1.8c1.5-1,3-1.8,4.8-2.3
		C117.5,316.6,118,316.9,118.3,317.1z"/>
	<path fill="#FFFFFF" d="M117,316.1c-1.8,0.5-3.3,1.3-4.8,2.3c-0.5-0.5-1.3-1-2-1.3c1.5-1,2.8-1.8,4.3-2
		C115.5,315.4,116.3,315.9,117,316.1z"/>
	<path fill="#515356" d="M122.8,323.9c0.3,1,0.3,2-0.3,2.5c-2.5,2.5-11.8,3.5-18.5,0.3c-2.5-1-7,0-7-2.8c0-1.5,0-1.5,0-1.5
		c2.3,0,5.5,0.8,9.8,2.5C111.8,327.1,117.8,325.9,122.8,323.9z"/>
	<path fill="#3C3A3D" d="M122.8,323.9c-3,1.3-6.3,2-9.5,2.3c0.8-4,3.3-7,6.5-7.5C121.5,320.4,122.5,322.4,122.8,323.9z"/>
	<path fill="#FFFFFF" d="M115.5,321.4c-0.5-0.5-0.8-1-1.3-1.3c1-1.3,2.3-2.3,4-3c0.8,0.5,1.3,1,1.5,1.5
		C118.3,318.9,116.8,319.9,115.5,321.4z"/>
	<path fill="#D4D4D3" d="M100,319.1c0,1,0.8,2,2,2c1,0,1.8-1,1.8-2s-0.8-2-1.8-2C100.8,317.1,100,318.1,100,319.1z"/>
	<path fill="#FFFFFF" d="M122.8,323.9c0-0.3,0-0.3,0-0.5C122.8,323.6,122.8,323.6,122.8,323.9z"/>
	<path fill="#E9EAE8" d="M111.5,314.4c1.3,0.3,2,0.3,3,0.8c-1.5,0.3-2.8,1-4.3,2c-0.8-0.8-1.5-1.3-2.5-1.8
		C109.3,315.4,110.5,314.9,111.5,314.4z"/>
	<polygon fill="#FBD5B8" points="82,318.1 68.3,318.1 68.3,258.4 82,258.4 82,318.1 	"/>
	<polygon fill="#EBAE9D" points="82,318.1 68.3,318.1 68.3,258.4 82,258.4 82,318.1 	"/>
	<path fill="#59B4E1" d="M68.3,258.4c0,42.5,0,42.5,0,42.5c2,0.5,4.3,1,6.8,1s5-0.5,7-1c0-8.5,0-8.5,0-8.5c0-34,0-34,0-34
		C68.3,258.4,68.3,258.4,68.3,258.4z"/>
	<path fill="#F4F4F5" d="M81.8,314.6c-1.8,0.8-4,1-6.5,1c-2.8,0-5-0.5-6.8-1.3c-9.3,1-12.8,10-11,12c2.5,2.5,11.8,3.5,18.3,0.3
		c2.8-1,7.3,0,7.3-2.8c0-7.8,0-7.8,0-7.8C83,315.4,82.5,314.9,81.8,314.6z"/>
	<path fill="#E9EAE8" d="M61.5,317.1c1.8,0.8,3,1.8,4.3,3c0.8-0.8,1.3-1.3,2-1.8c-1.5-1-3.3-1.8-4.8-2.3
		C62.5,316.6,62,316.9,61.5,317.1z"/>
	<path fill="#FFFFFF" d="M63,316.1c1.5,0.5,3.3,1.3,4.8,2.3c0.5-0.5,1.3-1,1.8-1.3c-1.3-1-2.5-1.8-4-2
		C64.5,315.4,63.8,315.9,63,316.1z"/>
	<path fill="#515356" d="M57.3,323.9c-0.3,1-0.3,2,0.3,2.5c2.5,2.5,11.8,3.5,18.3,0.3c2.8-1,7.3,0,7.3-2.8c0-1.5,0-1.5,0-1.5
		c-2.3,0-5.8,0.8-9.8,2.5C68.3,327.1,62.3,325.9,57.3,323.9z"/>
	<path fill="#3C3A3D" d="M57.3,323.9c2.8,1.3,6.3,2,9.5,2.3c-0.8-4-3.5-7-6.8-7.5C58.5,320.4,57.5,322.4,57.3,323.9z"/>
	<path fill="#FFFFFF" d="M64.5,321.4c0.5-0.5,0.8-1,1.3-1.3c-1.3-1.3-2.5-2.3-4.3-3c-0.5,0.5-1,1-1.5,1.5
		C61.8,318.9,63.3,319.9,64.5,321.4z"/>
	<path fill="#D4D4D3" d="M80,319.1c0,1-1,2-2,2s-2-1-2-2s1-2,2-2S80,318.1,80,319.1z"/>
	<path fill="#FFFFFF" d="M57.3,323.9c0-0.3,0-0.3,0-0.5C57.3,323.6,57.3,323.6,57.3,323.9z"/>
	<path fill="#E9EAE8" d="M68.5,314.4c-1.3,0.3-2.3,0.3-3,0.8c1.5,0.3,2.8,1,4,2c1-0.8,1.8-1.3,2.8-1.8
		C70.8,315.4,69.5,314.9,68.5,314.4z"/>
	<path fill="#E70E91" d="M64.8,233.4c0.5-9.5,2-24,4.3-29.8c4.5-11.5,12-9,21-9s16.3-2.5,20.8,9c2.3,5.8,4,20.3,4.5,29.8
		c2.3,33-7.8,31-25.3,31S62.5,266.4,64.8,233.4z"/>
	<path fill="#F283C7" d="M90,219.9c9,0,17-1.5,23.5-3.8c-0.8-5.3-1.5-9.8-2.8-12.5c-4.5-11.5-11.8-9-20.8-9s-16.5-2.5-21,9
		c-1,2.8-1.8,7.3-2.5,12.5C72.8,218.4,81,219.9,90,219.9z"/>
	<path fill="#E70E91" d="M79.8,198.4c0,3.3,4.5,5.8,10.3,5.8s10.3-2.5,10.3-5.8s-4.5-6-10.3-6S79.8,195.1,79.8,198.4z"/>
	<path fill="#EBAE9D" d="M81.8,196.4c0,3.3,3.8,6,8.3,6l0,0c4.5,0,8.3-2.8,8.3-6c0-8.8,0-8.8,0-8.8c0-3.3-3.8-6-8.3-6l0,0
		c-4.5,0-8.3,2.8-8.3,6C81.8,196.4,81.8,196.4,81.8,196.4z"/>
	<path fill="#E47B89" d="M81.8,187.6c0-3.3,3.8-6,8.3-6s8.3,2.8,8.3,6c0,4.8,0,4.8,0,4.8c-5.5,0-11-0.3-16.5-0.3
		C81.8,187.6,81.8,187.6,81.8,187.6z"/>
	<path fill="#EBAE9D" d="M98.3,192.4c0,4,0,4,0,4c0,3.3-3.8,6-8.3,6s-8.3-2.8-8.3-6c0-4.3,0-4.3,0-4.3
		C87.3,192.1,92.8,192.4,98.3,192.4z"/>
	<path fill="#F4F4F5" d="M91.8,246.4c8.5,0,16.8-1.3,23.8-3.3c-0.3,22.8-10,21.3-25.5,21.3c-15.8,0-25.5,1.8-25.5-22.3
		C72.3,244.9,81.8,246.4,91.8,246.4z"/>
	<path fill="#E70E91" d="M54,275.4c23.8,2.5,48,2.5,71.8,0c-3.3-10.3-7.3-20-10.8-30c-16.8,1.8-33.3,0.8-50.3-1
		C61.3,254.6,57.3,265.1,54,275.4z"/>
	<path fill="#F283C7" d="M91.8,249.1c-10,0-19.3-1.3-27.3-3.8c0-1,0-2.3,0-3.3c7.8,2.8,17.3,4.3,27.3,4.3c8.5,0,16.8-1.3,23.8-3.3
		c0,1.3,0,2.3,0,3.3C108.3,248.1,100.3,249.1,91.8,249.1z"/>
	<path fill="#F283C7" d="M113.8,217.9c0-0.5,0-3.5-1.5-3.5c-0.8,0-1.3,0.5-1.3,1.3l0,0l0,0c-0.3-0.5-0.8-0.8-1.3-0.8
		c-0.8,0-1.3,0.5-1.3,1.3h-0.3c0-0.5-0.5-0.8-1.3-0.8c-0.5,0-1.3,0.5-1.3,1.3l0,0c-0.3-0.5-0.8-0.8-1.3-0.8c-0.8,0-1.3,0.5-1.3,1.3
		H103c0-0.5-0.5-1-1.3-1c-0.5,0-1,0.5-1.3,1.3l0,0c-0.3-0.5-0.8-0.8-1.3-0.8c-0.8,0-1.3,0.3-1.3,1c-0.3,0-0.3,0-0.3,0
		c-0.3-0.5-0.8-0.8-1.3-0.8s-1,0.3-1.3,0.8c0,0,0,0.3-0.3,0.3c0-0.5-0.5-1-1.3-1c-0.5,0-1,0.5-1,1c-0.3,0-0.3,0-0.3,0
		c-0.3-0.5-0.8-0.8-1.3-0.8s-1,0.3-1.3,0.8l0,0h-0.3c-0.3-0.5-0.5-0.8-1.3-0.8c-0.5,0-1,0.3-1,0.8c-0.3,0-0.3,0-0.3,0
		c-0.3-0.5-0.8-1-1.3-1s-1,0.5-1.3,0.8c0,0,0,0-0.3,0c0-0.5-0.5-0.8-1.3-0.8c-0.5,0-1,0.3-1.3,0.8l0,0c-0.3-0.8-0.8-1-1.3-1
		c-0.8,0-1,0.3-1.3,0.8h-0.3c0-0.8-0.5-1.3-1.3-1.3c-0.5,0-1,0.5-1.3,1l0,0c-0.3-0.8-0.8-1.3-1.3-1.3c-0.8,0-1.3,0.3-1.3,0.8H74
		c0-0.8-0.5-1.3-1.3-1.3c-0.5,0-1,0.3-1.3,0.8l0,0c0-0.8-0.8-1.3-1.3-1.3c-0.8,0-1,0.3-1.3,0.8c0,0,0,0-0.3,0c0-0.8-0.5-1.3-1.3-1.3
		s-1.3,3.5-1.3,3.5l0,0c0,0.8,0.5,1.3,1.3,1.3c0.5,0,1-0.3,1.3-0.5l0,0c0,0.5,0.8,1.3,1.5,1.3c0.5,0,0.8-0.5,1-0.8h0.3
		c0,0.8,0.5,1.3,1.3,1.3c0.5,0,1-0.5,1.3-0.8l0,0c0,0.5,0.8,1.3,1.5,1.3c0.5,0,1-0.5,1-1c0.3,0,0.3,0,0.3,0c0,0.8,0.5,1.3,1.3,1.3
		c0.5,0,1-0.5,1.3-1l0,0c0.3,0.8,0.8,1.3,1.5,1.3c0.5,0,1-0.5,1.3-1l0,0c0,0.8,0.5,1.3,1.3,1.3s1.3-0.5,1.3-1c0.3,0,0.3,0,0.3,0
		c0,0.8,0.5,1.3,1.3,1.3s1.3-0.5,1.3-1.3c0,0.8,0.8,1.3,1.3,1.3c0.8,0,1.3-0.5,1.5-1.3l0,0c0,0.8,0.5,1.3,1.3,1.3s1.3-0.5,1.3-1.3
		c0.3,0.8,0.8,1.3,1.3,1.3c0.8,0,1.5-0.5,1.5-1.3l0,0c0,0.5,0.5,1,1.3,1s1.3-0.5,1.3-1.3H98c0,0.5,0.5,1,1.3,1s1.3-0.5,1.3-1.3l0,0
		c0.3,0.5,0.8,1,1.3,1c0.8,0,1.3-0.5,1.5-1.3l0,0c0.3,0.5,0.8,1,1.3,1c0.8,0,1.3-0.8,1.3-1.3c0,0,0,0,0.3,0c0,0.3,0.5,0.8,1,0.8
		c0.8,0,1.3-0.5,1.5-1.3l0,0c0.3,0.3,0.8,0.8,1.3,0.8c0.8,0,1.3-0.8,1.3-1.3h0.3c0.3,0.3,0.5,0.5,1,0.5
		C113.8,219.1,113.8,217.9,113.8,217.9z"/>
	<path fill="#F283C7" d="M126.3,275.4c-0.3-1-1.3-5.5-3.3-5.5c-1.3,0-2,1-1.8,2l0,0l0,0c-0.5-0.5-1.3-1-2-1c-1,0-1.8,0.8-1.8,2l0,0
		c-0.5-0.8-1.3-1.3-2-1.3c-1,0-1.8,0.8-1.8,2l0,0c-0.5-0.8-1.3-1.5-2-1.5c-1.3,0-1.8,1-1.8,2h-0.3c-0.3-0.8-1.3-1.3-2-1.3
		c-1,0-1.8,0.8-1.8,1.8h-0.3c-0.3-0.8-1-1.5-2-1.5s-1.8,0.8-1.8,1.8h-0.3c-0.3-0.8-1-1.3-2-1.3c-0.8,0-1.5,0.8-1.8,1.5h-0.3
		c-0.5-0.8-1.3-1.3-2-1.3s-1.5,0.5-1.8,1.5c-0.3,0-0.3,0-0.3,0c-0.5-0.8-1-1.3-2-1.3c-0.8,0-1.5,0.5-1.8,1.3l0,0c-0.3,0-0.3,0-0.3,0
		c-0.5-0.8-1.3-1.3-2-1.3s-1.5,0.5-1.8,1.3c-0.3,0-0.3,0-0.3,0c-0.3-1-1-1.5-2-1.5c-0.8,0-1.5,0.5-1.8,1.3c-0.3,0-0.3,0-0.5,0
		c0-0.8-0.8-1.5-1.8-1.5c-0.8,0-1.5,0.5-2,1.3c0,0,0,0-0.3,0c0-1-0.8-1.8-1.8-1.8c-0.8,0-1.5,0.8-2,1.5c0,0,0,0-0.3,0
		c0-1-0.8-1.8-1.8-1.8c-0.8,0-1.5,0.5-2,1.3l0,0c0-1-0.8-2-1.8-2s-1.8,0.8-2,1.3c-0.3,0-0.3,0-0.3,0c0.3-1-0.5-1.8-1.5-1.8
		s-1.8,0.5-2.3,1.3c0,0,0,0,0-0.3c0.3-1-0.5-1.8-1.8-1.8c-0.8,0-1.5,0.3-2,1l0,0c0.3-1-0.5-2-1.5-2c-2,0.3-3.3,5.5-3.3,5.5l0,0
		c-0.3,1.3,0.3,2.3,1.5,2.3c0.8,0,1.5-0.5,2-1.3h0.3c-0.3,1.3,0.5,2,1.5,2s1.8-0.5,2.3-1.3c0,0.3,0,0.3,0,0.3c0,1,0.8,2,1.8,2
		s1.8-0.8,2.3-1.5v0.3c0,1,0.8,2,1.8,2s1.8-0.8,2.3-1.5l0,0c0,1.3,0.8,2,2,2c0.8,0,1.8-0.5,2-1.5h0.3c0,1.3,0.8,2,1.8,2
		s2-0.8,2.3-1.8l0,0c0,1.3,1,2.3,2,2.3s2-0.8,2.3-1.8l0,0c0,1,0.8,2,2,2c1,0,2-0.8,2-2c0.3,1.3,1,2.3,2.3,2.3c1,0,2-1,2-2.3l0,0
		c0.3,1.3,1,2.3,2.3,2.3c1,0,2-1,2-2.3c0.3,1.3,1,2,2,2c1.3,0,2-1,2-2h0.3c0.3,1,1,1.8,2,1.8c1.3,0,2-1,2-2c0,0,0,0,0-0.3
		c0.5,1,1.3,1.8,2.3,1.8c1.3,0,2-0.8,2-2l0,0c0.5,1,1.3,1.5,2.3,1.5s1.8-0.8,1.8-2c0,0,0,0,0.3,0c0.3,0.8,1.3,1.5,2,1.5
		c1.3,0,1.8-1,1.8-2h0.3c0.5,0.8,1.3,1.3,2,1.3c1,0,1.8-1,1.8-2h0.3c0.5,0.5,1.3,1,2,1c1,0,1.8-0.8,1.8-2l0,0c0.5,0.8,1.3,1.3,2,1.3
		C126.8,277.6,126.3,275.4,126.3,275.4z"/>
	<path fill="#F386C9" d="M89.5,247.9c0,1.8-2.5,3.5-5.5,3.5s-2.5-1.8-2.5-3.5c0-2-0.5-3.5,2.5-3.5S89.5,245.9,89.5,247.9z"/>
	<path fill="#F386C9" d="M89.3,247.9c0-2,2.5-3.5,5.5-3.5s2.8,1.5,2.8,3.5c0,1.8,0.3,3.5-2.8,3.5S89.3,249.6,89.3,247.9z"/>
	<path fill="#F26FBD" d="M92.3,247.6c0,1-1,2-2.5,2s-2.8-1-2.8-2c0-1.3,1.3-2,2.8-2S92.3,246.4,92.3,247.6z"/>
	<path fill="#E6A08D" d="M155.5,134.1c0,5.5,4.3,9.8,9.8,9.8l0,0c5.5,0,9.8-4.3,9.8-9.8c0-12,0-12,0-12c0-5.3-4.3-9.8-9.8-9.8l0,0
		c-5.5,0-9.8,4.5-9.8,9.8C155.5,134.1,155.5,134.1,155.5,134.1z"/>
	<path fill="#E6A08D" d="M5,134.1c0,5.5,4.3,9.8,9.8,9.8l0,0c5.3,0,9.8-4.3,9.8-9.8c0-12,0-12,0-12c0-5.3-4.5-9.8-9.8-9.8l0,0
		c-5.5,0-9.8,4.5-9.8,9.8C5,134.1,5,134.1,5,134.1z"/>
	<path fill="#EBAE9D" d="M171.3,138.1c0-12,0-12,0-12c0-5.3-4-9.8-9.3-9.8c-2.3,0-4.3,0.8-5.8,2.3c1.5-3.8,5-6.3,9-6.3
		c5.5,0,9.8,4.5,9.8,9.8c0,12,0,12,0,12c0,3.5-1.8,6.8-4.5,8.3C171,141.1,171.3,139.6,171.3,138.1z"/>
	<path fill="#EBAE9D" d="M14.8,112.4c4,0,7.5,2.5,9,6.3c-1.5-1.5-3.5-2.3-5.8-2.3c-5.3,0-9.5,4.5-9.5,9.8c0,12,0,12,0,12
		c0,1.5,0.5,3,1,4.3c-2.8-1.5-4.5-4.8-4.5-8.3c0-12,0-12,0-12C5,116.9,9.3,112.4,14.8,112.4z"/>
	<path fill="#EBAE9D" d="M21.5,129.6c0,31.8,25.8,57.5,57.5,57.5c22,0,22,0,22,0c31.8,0,57.5-25.8,57.5-57.5c0-43.5,0-43.5,0-43.5
		c0-31.5-25.8-57.3-57.5-57.3c-22,0-22,0-22,0c-31.8,0-57.5,25.8-57.5,57.3C21.5,129.6,21.5,129.6,21.5,129.6z"/>
	<path fill="#E6A08D" d="M79,177.4c22,0,22,0,22,0c31.8,0,57.5-25.8,57.5-57.5c0,9.8,0,9.8,0,9.8c0,31.8-25.8,57.5-57.5,57.5
		c-22,0-22,0-22,0c-31.8,0-57.5-25.8-57.5-57.5c0-9.8,0-9.8,0-9.8C21.5,151.6,47.3,177.4,79,177.4z"/>
	<path fill="#E47B89" d="M97.5,144.4c0.8,1.8,0,3.5-2,3.8c-3,0.5-3,0.5-3,0.5c-2,0.3-3.3-1-3.3-2.8c1.3-12.8,1.3-12.8,1.3-12.8
		c0-2,0.8-2,1.8-0.3C97.5,144.4,97.5,144.4,97.5,144.4z"/>
	<path fill="#FFFFFF" d="M117,136.9c0,6,3.3,10.8,7,10.8s7-4.8,7-10.8s-3.3-10.8-7-10.8S117,130.9,117,136.9z"/>
	<path fill="#515356" d="M117,136.9c0,5,2.5,8.8,5.8,8.8s5.8-3.8,5.8-8.8s-2.5-9-5.8-9S117,131.9,117,136.9z"/>
	<path fill="#211C1D" d="M118.8,136.9c0,3.5,1.8,6.3,4,6.3s4-2.8,4-6.3s-1.8-6.3-4-6.3S118.8,133.4,118.8,136.9z"/>
	<path fill="#FFFFFF" d="M119.3,133.6c0,0.8,0.5,1.8,1,1.8c0.8,0,1.3-1,1.3-1.8c0-1-0.5-1.8-1.3-1.8
		C119.8,131.9,119.3,132.6,119.3,133.6z"/>
	<path fill="#5A371D" d="M118.5,112.4c0,0,0-0.3,0-0.5s0-0.3,0-0.5c0.3-0.3,0.3-0.8,0.5-1c0.3-0.5,0.5-1,1.3-1.5
		c0.3-0.3,0.3-0.3,0.5-0.3c0.3-0.3,0.5-0.3,0.8-0.3c0.3-0.3,0.8-0.3,1.3-0.3c0.3,0,0.3,0,0.3,0l0,0l0,0c0.3,0,0.3,0,0.3,0
		c0.3,0,0.3,0,0.3,0s0,0,0.3,0s0.3,0,0.3,0c0.5,0.3,0.5,0.3,0.5,0.3c0.3,0.3,0.3,0.3,0.3,0.3c0.3,0,0.5,0,0.5,0.3
		c0.8,0.5,1.3,1,1.5,1.5c0,0.3,0.3,0.8,0.3,1c0,0,0,0.3,0,0.5s0,0.5,0,0.5s0,0-0.5-0.3c0,0-0.3,0-0.5-0.3c0,0-0.3-0.3-0.5-0.3
		c-0.3-0.3-0.5-0.3-0.8-0.3c-0.3-0.3-0.5-0.3-0.8-0.3c0,0,0-0.3-0.3-0.3h-0.3c0,0,0,0-0.3,0l0,0l0,0c-0.3,0-0.3,0-0.3,0
		c-0.3,0-0.3,0-0.3,0l0,0l0,0l0,0l0,0l0,0c0,0-0.3,0,0,0c-0.3,0-0.5,0-0.5,0c-0.3,0-0.5,0-0.8,0.3c-0.3,0-0.5,0-0.8,0.3
		c-0.3,0-0.5,0-0.8,0.3c0,0-0.3,0.3-0.5,0.3s-0.3,0.3-0.5,0.3C118.8,112.4,118.5,112.4,118.5,112.4z"/>
	<path fill="#FFFFFF" d="M49,136.9c0,6,3.3,10.8,7,10.8s7-4.8,7-10.8s-3.3-10.8-7-10.8S49,130.9,49,136.9z"/>
	<path fill="#515356" d="M51.5,136.9c0,5,2.5,8.8,5.8,8.8c3,0,5.8-3.8,5.8-8.8s-2.8-9-5.8-9C54,127.9,51.5,131.9,51.5,136.9z"/>
	<path fill="#211C1D" d="M53.3,136.9c0,3.5,1.8,6.3,4,6.3c2,0,4-2.8,4-6.3s-2-6.3-4-6.3C55,130.6,53.3,133.4,53.3,136.9z"/>
	<path fill="#FFFFFF" d="M53.5,133.6c0,0.8,0.5,1.8,1.3,1.8c0.5,0,1-1,1-1.8c0-1-0.5-1.8-1-1.8C54,131.9,53.5,132.6,53.5,133.6z"/>
	<path fill="#5A371D" d="M53,112.4c0,0-0.3-0.3,0-0.5c0-0.3,0-0.3,0-0.5s0.3-0.8,0.3-1c0.3-0.5,0.8-1,1.5-1.5c0-0.3,0.3-0.3,0.5-0.3
		c0-0.3,0.3-0.3,0.5-0.3c0.3-0.3,0.5-0.3,0.8-0.3s0.3,0,0.3,0c0.3,0,0.3,0,0.3,0l0,0c0.3,0,0.3,0,0.3,0l0,0l0,0l0,0l0,0
		c0.5,0,0.5,0,0.5,0H58c0.5,0,0.5,0,0.5,0c0.3,0.3,0.3,0.3,0.3,0.3c0.5,0.3,0.5,0.3,0.5,0.3s0.3,0,0.5,0.3c0.5,0.5,1,1,1.3,1.5
		c0.3,0.3,0.3,0.8,0.3,1c0.3,0,0.3,0.3,0.3,0.5s0,0.5,0,0.5s-0.3,0-0.5-0.3c-0.3,0-0.3,0-0.5-0.3c-0.3,0-0.5-0.3-0.8-0.3
		c0-0.3-0.3-0.3-0.5-0.3c-0.3-0.3-0.5-0.3-0.8-0.3s-0.3-0.3-0.3-0.3c-0.3,0-0.3,0-0.5,0l0,0l0,0c-0.3,0-0.3,0-0.3,0
		c-0.5,0-0.5,0-0.5,0c0.3,0,0,0,0.3,0l0,0l0,0l0,0l0,0c-0.3,0-0.3,0-0.3,0l0,0c-0.3,0-0.3,0-0.3,0s0,0-0.3,0s-0.5,0-0.8,0.3
		c0,0-0.3,0-0.5,0.3c-0.3,0-0.5,0-0.8,0.3c-0.3,0-0.5,0.3-0.5,0.3c-0.3,0-0.5,0.3-0.8,0.3C53,112.4,53,112.4,53,112.4z"/>
	<path fill="#5A371D" d="M161.8,108.6c-11.8,1.8-22-5-29.5-15.5c1.3,4.3,9.5,16.3,9.5,16.3S114,107.9,99,96.9
		c-1.5,8.3,10.8,22,10.8,22s-51.5-1.5-62.5-39c-1.3,36-20,42.5-30.3,26c0-54.3,20.5-80,77.3-80C150.8,25.9,161.8,64.6,161.8,108.6z"
		/>
	<path fill="#5A371D" d="M51.8,75.9c0,0,6.3,41.3-14.8,47.3c2.5-4.8,8-23,0-44L51.8,75.9z"/>
	<polygon fill="#5A371D" points="153.3,179.9 161.3,128.4 157.8,88.4 149,96.9 153.3,179.9 	"/>
	<polygon fill="#5A371D" points="27,175.6 18.5,129.9 19,96.9 29.5,107.1 27,175.6 	"/>
	<path fill="#721327" d="M80.8,156.4c0.5,0,2.8,2,9.3,2.3c6.5-0.3,8.8-2.3,9.3-2.3s1,0.3,1,1c0,1.8-2.3,5.3-9.3,6c-0.3,0-0.5,0-1,0
		s-0.8,0-1,0c-7.3-0.8-9.3-4.3-9.3-6C79.8,156.6,80.3,156.4,80.8,156.4z"/>
	<path fill="none" stroke="#F7AF9C" stroke-width="0.5" stroke-miterlimit="10" d="M80.8,156.4c0.5,0,2.8,2,9.3,2.3
		c6.5-0.3,8.8-2.3,9.3-2.3s1,0.3,1,1c0,1.8-2.3,5.3-9.3,6c-0.3,0-0.5,0-1,0s-0.8,0-1,0c-7.3-0.8-9.3-4.3-9.3-6
		C79.8,156.6,80.3,156.4,80.8,156.4L80.8,156.4z"/>
	<path fill="#4ABA4E" d="M161.5,130.1c0,0-0.3-1-0.5-3.3s-0.5-5.3-1-9.3c-0.3-4-0.8-9-1.3-14.5c-0.3-3-0.5-5.8-0.8-9
		c0-1.5-0.3-3.3-0.3-4.8c0-1-0.3-1.8-0.3-2.5s0-1.8-0.3-2.5c-0.3-3-1-6.5-2-9.8s-2.3-6.5-4-9.5c-1.8-3.3-3.8-6.3-6.3-9
		c-2.5-3-5.3-5.5-8.3-8c-3-2.3-6.5-4.3-10-6s-7.3-3-11.3-4s-8-1.5-12-1.8c-2,0-4.3,0-6.5,0c-7,0-7,0-7,0c-7,0-7,0-7,0
		c-3.3,0-3.3,0-3.3,0c-1,0-1,0-1,0c-0.3,0-0.3,0-0.3,0l0,0c0.3,0,0,0,0,0c-0.5,0-0.5,0-0.5,0c-1.5,0-1.5,0-1.5,0
		c-4,0.3-8.3,0.8-12,1.8c-4,1-7.8,2.3-11.3,4s-7,3.8-10,6c-6,4.8-11,10.8-14.5,17c-3.3,6.3-5.3,13-6,19.3c-0.3,0.8-0.3,1.8-0.3,2.5
		s-0.3,1.5-0.3,2.5c0,1.5-0.3,3.3-0.3,4.8c-0.3,3.3-0.5,6-0.8,9c-0.5,5.5-1,10.5-1.3,14.5c-0.5,4-0.8,7-1,9.3s-0.5,3.3-0.5,3.3
		s0-1-0.5-3.3c0-2.3-0.5-5.3-1-9.3c-0.3-4-0.8-9-1.3-14.5c-0.3-3-0.5-5.8-0.8-9c0-1.5-0.3-3.3-0.3-4.8c0-1,0-1.8-0.3-2.5
		c0-1,0-2,0-2.8c0-3.8,0.3-7.8,1-11.8s2-8,3.8-12s4-7.8,6.5-11.5c2.8-3.8,6-7.3,9.5-10.3c7.3-6.3,16-11.3,25.8-13.8
		c4.8-1.5,9.8-2.3,15-2.5c1.8,0,1.8,0,1.8,0c1,0,1,0,1,0c1,0,1,0,1,0c3.3,0,3.3,0,3.3,0c7,0,7,0,7,0c7,0,7,0,7,0c2.3,0,4.3,0,7,0
		c5,0.3,10.3,1,15,2.5c9.8,2.5,18.5,7.5,25.8,13.8c3.5,3,6.8,6.5,9.5,10.3c2.5,3.8,4.8,7.8,6.5,11.5c1.8,4,3,8.3,3.8,12
		c0.8,4,1,8,1,11.8c0,0.8,0,1.8-0.3,2.5c0,1,0,1.8,0,2.8c-0.3,1.5-0.3,3.3-0.5,4.8c-0.3,3.3-0.3,6-0.5,9c-0.5,5.5-1,10.5-1.5,14.5
		c-0.3,4-0.8,7-1,9.3S161.5,130.1,161.5,130.1z"/>
	<path fill="#ED4FAF" d="M89,42.4c8.3,6.8,22,6.8,29,0c6.3-6.3,4-14.8-4.3-19.8c-7.5-4.3-18-4.3-24.5,0C82,27.6,81.3,36.1,89,42.4z"
		/>
	<path fill="#ED4FAF" d="M66.5,24.4c6.3,5,18,5,25,0c6.8-4.5,6.3-11,0-14.8c-5.8-3.5-15.3-3.5-21.8,0C62.8,13.4,61,19.9,66.5,24.4z"
		/>
	<path fill="#ED4FAF" d="M114.3,24.4c5.5-4.5,3.8-11-3.3-14.8c-6.5-3.5-16-3.5-21.8,0C83,13.4,82.5,19.9,89,24.4
		C96.3,29.4,108,29.4,114.3,24.4z"/>
	<path fill="#ED4FAF" d="M91.8,42.4c7.8-6.3,7-14.8-0.3-19.8c-6.5-4.3-17-4.3-24.5,0c-8.3,5-10.5,13.5-4.3,19.8
		C69.8,49.1,83.5,49.1,91.8,42.4z"/>
	<path fill="#F8B6DE" d="M101,30.9c5.3-4.3,4.3-10.3-1.3-13.8c-5.3-3-13.5-3-18.8,0c-5.8,3.5-6.5,9.5-1.3,13.8
		C85.5,35.1,95.3,35.1,101,30.9z"/>
	<path fill="#724727" d="M49,67.1c0,0,0.3,0.3,0.5,0.8s0.5,1.3,1,2c1,1.8,2.3,4.3,4,7c1,1.5,2,3,3,4.5c1,1.8,2.3,3.3,3.5,5
		c1.3,1.5,2.5,3.3,4,4.8s3,3.3,4.5,4.8s3.3,2.8,4.8,4.3c1,0.5,1.8,1.3,2.5,1.8c1,0.8,1.8,1.3,2.5,2c0.5,0.3,1,0.5,1.3,0.8
		c0.5,0.3,1,0.5,1.3,0.8c1,0.5,1.8,1,2.5,1.5c1.8,1,3.3,1.8,4.8,2.5c0.8,0.5,1.5,0.8,2.3,1.3c0.5,0.3,1.3,0.5,2,0.8
		c1.3,0.5,2.3,1.3,3.3,1.5c0.8,0.5,1.5,0.8,2,1s0.8,0.3,0.8,0.3s-0.3,0-0.8,0s-1.3,0-2.3,0s-2.3-0.3-3.8-0.5s-3-0.5-4.8-1
		c-0.8-0.3-1.8-0.5-2.5-0.8c-1-0.3-2-0.5-2.8-1c-1-0.3-2-0.8-3-1c-1-0.5-2-1-3-1.5c-0.5-0.3-1-0.5-1.5-1c-0.3-0.3-0.8-0.5-1.3-0.8
		c-1-0.8-2-1.3-3-2c-1.8-1.3-3.8-3-5.5-4.5c-1.5-1.8-3.3-3.5-4.8-5.3c-0.3-0.5-0.8-1-1-1.5c-0.3-0.3-0.8-0.8-1-1.3
		c-0.8-1-1.3-2-1.8-2.8c-1.3-2-2.3-3.8-3.3-5.8c-0.8-1.8-1.5-3.5-2-5.3c-1.3-3.3-1.8-6-2.3-8C49,68.4,49,67.1,49,67.1z"/>
	<path fill="#724727" d="M81,66.4c0,0,0.3,0.3,0.5,0.8c0.3,0.3,0.8,1,1.3,1.5c1.3,1.5,2.8,3.5,5,5.8c1,1.3,2,2.3,3.3,3.5
		s2.5,2.5,3.8,4c1.5,1.3,3,2.5,4.5,3.8s3,2.5,4.5,3.5c1.8,1.3,3.3,2.3,5,3.5c0.8,0.5,1.8,1,2.5,1.5c0.3,0.3,0.8,0.5,1.3,0.5
		c0.3,0.3,0.8,0.5,1.3,0.8c0.3,0.3,0.8,0.5,1.3,0.8c0.3,0.3,0.8,0.3,1,0.5c1,0.5,1.8,0.8,2.5,1.3c1.5,0.8,3,1.3,4.5,2
		c1.5,0.5,2.8,1,3.8,1.5c1.3,0.5,2.3,0.8,3.3,1c0.8,0.5,1.5,0.8,2,0.8c0.5,0.3,0.8,0.3,0.8,0.3s-0.3,0-0.8,0.3c-0.5,0-1.3,0-2.3,0
		s-2,0-3.3,0c-1.5,0-2.8-0.3-4.5-0.5c-1.5-0.3-3.3-0.5-5-1c-1-0.3-1.8-0.5-2.8-1c-1-0.3-1.8-0.5-2.8-1c-0.5,0-1-0.3-1.5-0.5
		s-1-0.5-1.5-0.8c-0.3-0.3-0.8-0.5-1.3-0.5c-0.5-0.3-1-0.5-1.5-1c-1.8-1-3.8-2-5.5-3.3c-0.8-0.8-1.5-1.5-2.5-2
		c-0.8-0.8-1.5-1.5-2.5-2.3c-0.8-0.8-1.5-1.5-2.3-2.3c-0.5-0.8-1.3-1.5-2-2.3c-2.5-3-4.8-6.3-6.3-9s-2.5-5.3-3-7
		c-0.3-1-0.5-1.8-0.5-2.3C81,66.6,81,66.4,81,66.4z"/>
	<path fill="#724727" d="M119,61.4c0,0,0.5,0.8,1.5,1.8s2.5,2.5,4,4.3s3.3,4,5,6.3c1,1.3,2,2.3,3,3.5c0.8,1.3,1.8,2.5,2.8,3.8
		s2,2.3,3,3.5c0.5,0.5,0.8,1.3,1.3,1.8s1,1,1.5,1.8c1,1,1.8,2,2.8,3c0.8,1,1.8,1.8,2.5,2.8c0.8,0.8,1.5,1.5,2.3,2
		c0.5,0.3,0.8,0.5,1,1c0.5,0.3,0.8,0.3,1,0.5c0.5,0.5,1,0.8,1.3,1c0.5,0.3,0.5,0.3,0.5,0.3s0,0-0.5,0s-1,0-1.8,0
		c-0.3-0.3-0.8-0.3-1.3-0.3c-0.3-0.3-0.8-0.3-1.3-0.5c-1-0.3-2-0.8-3.3-1.3c-2.3-1.3-4.8-2.8-7-5c-2.3-2-4.5-4.3-6.5-6.8
		c-1.3-1.5-2-2.8-3-4s-1.8-2.8-2.5-4c-1.5-2.5-2.8-5.3-3.8-7.5s-1.5-4-2-5.5c-0.3-0.8-0.3-1.3-0.5-1.5C119,61.6,119,61.4,119,61.4z"
		/>
</g>
</svg>
