<?xml version="1.0" encoding="utf-8"?>
<!-- Generator: Adobe Illustrator 16.0.0, SVG Export Plug-In . SVG Version: 6.00 Build 0)  -->
<!DOCTYPE svg PUBLIC "-//W3C//DTD SVG 1.1//EN" "http://www.w3.org/Graphics/SVG/1.1/DTD/svg11.dtd">
<svg version="1.1" id="Layer_1" xmlns="http://www.w3.org/2000/svg" xmlns:xlink="http://www.w3.org/1999/xlink" x="0px" y="0px"
	 width="218px" height="318px" viewBox="0 0 218 318" enable-background="new 0 0 218 318" xml:space="preserve">
<g>
	<polygon fill="#F7B241" points="87.9,301 101.4,301 101.4,241.3 87.9,241.3 87.9,301 	"/>
	<path fill="#48BB72" d="M101.1,297.5c-1.8,0.5-4,1-6.5,1c-2.8,0-5.3-0.5-7-1.3c-9,1-12.8,10-10.8,12c2.3,2.5,11.5,3.5,18.3,0.3
		c2.5-1.3,7-0.3,7-2.8c0-7.8,0-7.8,0-7.8C102.1,298.3,101.6,297.8,101.1,297.5z"/>
	<path fill="#E9EAE8" d="M80.9,300c1.8,0.8,3,1.8,4.3,2.8c0.5-0.5,1.3-1,1.8-1.5c-1.5-1-3-1.8-4.8-2.3
		C81.6,299.3,81.4,299.8,80.9,300z"/>
	<path fill="#FFFFFF" d="M82.1,299c1.8,0.5,3.3,1.3,4.8,2.3c0.8-0.5,1.3-1,2-1.5c-1.3-0.8-2.8-1.5-4.3-1.8
		C83.9,298.3,82.9,298.5,82.1,299z"/>
	<path fill="#BCBCBC" d="M76.4,306.8c-0.3,1,0,2,0.5,2.5c2.3,2.5,11.5,3.5,18.3,0.3c2.5-1.3,7-0.3,7-2.8c0-1.5,0-1.5,0-1.5
		c-2,0-5.5,0.8-9.8,2.5C87.6,310,81.4,308.8,76.4,306.8z"/>
	<path fill="#D4D4D3" d="M76.4,306.8c3,1.3,6.3,2,9.5,2.3c-0.8-4-3.3-7-6.5-7.8C77.6,303,76.6,305.3,76.4,306.8z"/>
	<path fill="#FFFFFF" d="M83.6,304.3c0.5-0.5,1-1,1.5-1.5c-1.3-1-2.5-2-4.3-2.8c-0.5,0.5-1,0.8-1.5,1.3
		C81.1,301.8,82.6,302.8,83.6,304.3z"/>
	<path fill="#89CC3C" d="M99.1,302c0,1-0.8,2-1.8,2c-1.3,0-2-1-2-2s0.8-2,2-2C98.4,300,99.1,301,99.1,302z"/>
	<path fill="#FFFFFF" d="M76.4,306.8c0-0.3,0-0.5,0.3-0.5C76.4,306.3,76.4,306.5,76.4,306.8z"/>
	<path fill="#E9EAE8" d="M87.6,297.3c-1,0-2,0.3-3,0.8c1.5,0.3,3,1,4.3,1.8c0.8-0.5,1.8-1,2.8-1.5C90.1,298,88.6,297.8,87.6,297.3z"
		/>
	<polygon fill="#F7B241" points="117.4,301 130.9,301 130.9,241.3 117.4,241.3 117.4,301 	"/>
	<path fill="#48BB72" d="M117.4,297.5c1.8,0.5,4,1,6.5,1c2.8,0,5.3-0.5,7-1.3c9,1,12.8,10,10.8,12c-2.5,2.5-11.8,3.5-18.3,0.3
		c-2.5-1.3-7-0.3-7-2.8c0-7.8,0-7.8,0-7.8C116.4,298.3,116.6,297.8,117.4,297.5z"/>
	<path fill="#E9EAE8" d="M137.6,300c-1.8,0.8-3,1.8-4.3,2.8c-0.5-0.5-1.3-1-2-1.5c1.8-1,3.3-1.8,5-2.3
		C136.6,299.3,137.1,299.8,137.6,300z"/>
	<path fill="#FFFFFF" d="M136.4,299c-1.8,0.5-3.3,1.3-5,2.3c-0.5-0.5-1-1-1.8-1.5c1.3-0.8,2.8-1.5,4.3-1.8
		C134.6,298.3,135.6,298.5,136.4,299z"/>
	<path fill="#BCBCBC" d="M142.1,306.8c0.3,1,0,2-0.5,2.5c-2.5,2.5-11.8,3.5-18.3,0.3c-2.5-1.3-7-0.3-7-2.8c0-1.5,0-1.5,0-1.5
		c2,0,5.5,0.8,9.5,2.5C130.9,310,137.1,308.8,142.1,306.8z"/>
	<path fill="#D4D4D3" d="M142.1,306.8c-3,1.3-6.3,2-9.5,2.3c0.8-4,3.3-7,6.5-7.8C140.9,303,141.6,305.3,142.1,306.8z"/>
	<path fill="#FFFFFF" d="M134.6,304.3c-0.3-0.5-0.8-1-1.3-1.5c1.3-1,2.5-2,4.3-2.8c0.5,0.5,1,0.8,1.5,1.3
		C137.4,301.8,135.9,302.8,134.6,304.3z"/>
	<path fill="#89CC3C" d="M119.1,302c0,1,1,2,2,2s2-1,2-2s-1-2-2-2S119.1,301,119.1,302z"/>
	<path fill="#FFFFFF" d="M142.1,306.8c0-0.3-0.3-0.5-0.3-0.5S142.1,306.5,142.1,306.8z"/>
	<path fill="#E9EAE8" d="M130.9,297.3c1,0,2,0.3,3,0.8c-1.5,0.3-3,1-4.3,1.8c-0.8-0.5-1.8-1-2.8-1.5
		C128.4,298,129.6,297.8,130.9,297.3z"/>
	<path fill="#FACCA5" d="M73.6,220c9-4,15.8-14.8,20.3-32.3c0.8-3-1-6-4.3-7c-3-0.8-6,1.3-6.8,4.3c-4,15-9.5,24-15.8,25.3
		c-8.8,1.8-19.8-10.3-23-14.5c-1.8-2.5-5.5-3.3-8-1.3c-2.5,1.8-3,5.5-1.3,8c1.8,2.3,17.3,22.3,34.3,19
		C70.9,221.3,72.4,220.8,73.6,220z"/>
	<path fill="#FACCA5" d="M39.6,191.3c-4.5,0.3-4.8,1.8-6.3,5.3c-1.3,3.8-2.5,6.8,1.3,8.3s9.5,0.3,11-3.5
		C46.9,197.5,43.4,192.8,39.6,191.3z"/>
	<path fill="#FACCA5" d="M27.6,199.3c-0.5-0.3-1.3,0.3-1.3,0.8l0,0c-0.3,0.5,0,1.3,0.5,1.3c8,3,8,3,8,3c0.5,0.3,1.3,0,1.3-0.5l0,0
		c0.3-0.5,0-1.3-0.5-1.5C27.6,199.3,27.6,199.3,27.6,199.3z"/>
	<path fill="#FACCA5" d="M26.1,195c-0.5-0.3-1.3,0.3-1.5,0.8l0,0c-0.3,0.5,0.3,1.3,0.8,1.3c7.8,3,7.8,3,7.8,3c0.8,0.3,1.3,0,1.5-0.5
		l0,0c0.3-0.5,0-1.3-0.8-1.5C26.1,195,26.1,195,26.1,195z"/>
	<path fill="#FACCA5" d="M26.4,191.5c-0.5-0.3-1.3,0-1.5,0.8l0,0c-0.3,0.5,0.3,1,0.8,1.3c7.8,3,7.8,3,7.8,3c0.8,0.3,1.3,0,1.5-0.5
		l0,0c0.3-0.8,0-1.3-0.8-1.5C26.4,191.5,26.4,191.5,26.4,191.5z"/>
	<path fill="#FACCA5" d="M29.1,189c-0.5-0.3-1.3,0-1.3,0.5l0,0c-0.3,0.8,0,1.3,0.5,1.5c8,3,8,3,8,3c0.5,0.3,1.3-0.3,1.3-0.8l0,0
		c0.3-0.5,0-1.3-0.5-1.3C29.1,189,29.1,189,29.1,189z"/>
	<path fill="#FACCA5" d="M40.9,188c0-0.5-0.8-0.8-1.5-0.8l0,0c-0.8,0-1.3,0.5-1.3,0.8c0.3,6,0.3,6,0.3,6c0.3,0.5,0.8,0.8,1.5,0.8
		l0,0c0.8-0.3,1.3-0.5,1.3-1C40.9,188,40.9,188,40.9,188z"/>
	<polygon fill="#BC212C" points="91.9,198 79.1,194 80.9,188.5 93.6,192.5 91.9,198 	"/>
	<path fill="#EC2539" d="M97.4,185.3c0,5-4,9.3-9.3,9.3c-5,0-9.3-4.3-9.3-9.3c0-5.3,4.3-9.3,9.3-9.3C93.4,176,97.4,180,97.4,185.3z"
		/>
	<path fill="#FACCA5" d="M161.9,245.8c0.3,0,0.3,0,0.3,0c3.3,0,5.8-2.8,5.5-5.8c-0.5-24.3-11.8-38.8-20.8-46.8
		c-10-8.5-19.8-11.5-20.3-11.5c-3-1-6.3,0.8-7,3.8c-1,3,0.8,6.3,3.8,7.3c1.5,0.3,31.8,9.8,33,47.5
		C156.4,243.3,158.9,245.8,161.9,245.8z"/>
	<path fill="#FACCA5" d="M154.6,247.8c1.8,4.3,3.3,4,7.3,4s7.3,0,7.3-4s-3.3-9-7.3-9S154.6,243.8,154.6,247.8z"/>
	<path fill="#FACCA5" d="M166.4,256c0,0.8,0.5,1.3,1.3,1.3l0,0c0.5,0,1-0.5,1-1.3c0-8.3,0-8.3,0-8.3c0-0.8-0.5-1.3-1-1.3l0,0
		c-0.8,0-1.3,0.5-1.3,1.3C166.4,256,166.4,256,166.4,256z"/>
	<path fill="#FACCA5" d="M163.1,259c0,0.8,0.5,1.3,1,1.3l0,0c0.5,0,1-0.5,1-1.3c0-8.3,0-8.3,0-8.3c0-0.8-0.5-1.3-1-1.3l0,0
		c-0.5,0-1,0.5-1,1.3C163.1,259,163.1,259,163.1,259z"/>
	<path fill="#FACCA5" d="M159.6,260c0,0.8,0.5,1.3,1,1.3l0,0c0.8,0,1.3-0.5,1.3-1.3c0-8.3,0-8.3,0-8.3c0-0.8-0.5-1.3-1.3-1.3l0,0
		c-0.5,0-1,0.5-1,1.3C159.6,260,159.6,260,159.6,260z"/>
	<path fill="#FACCA5" d="M156.1,258.3c0,0.8,0.5,1.3,1.3,1.3l0,0c0.5,0,1-0.5,1-1.3c0-8.3,0-8.3,0-8.3c0-0.8-0.5-1.3-1-1.3l0,0
		c-0.8,0-1.3,0.5-1.3,1.3C156.1,258.3,156.1,258.3,156.1,258.3z"/>
	<path fill="#FACCA5" d="M151.1,247.8c-0.3,0.3-0.5,1,0,1.8l0,0c0.3,0.5,0.8,1,1.3,0.8c5.3-2.5,5.3-2.5,5.3-2.5
		c0.5,0,0.5-0.8,0.3-1.5l0,0c-0.5-0.5-1-1-1.3-0.8C151.1,247.8,151.1,247.8,151.1,247.8z"/>
	<polygon fill="#BC212C" points="134.1,198.8 143.1,189 139.1,185.3 129.9,194.8 134.1,198.8 	"/>
	<path fill="#EC2539" d="M123.1,190c2.5,4.5,8,6,12.5,3.8c4.5-2.5,6.3-8.3,3.8-12.8s-8.3-6-12.8-3.5S120.6,185.5,123.1,190z"/>
	<path fill="#EC2539" d="M83.9,216.3c0.8-9.8,2.3-24,4.5-29.8c4.5-11.5,12-9,20.8-9c9,0,16.5-2.5,21,9c2.3,5.8,3.8,20,4.5,29.8
		c2,33-7.8,31-25.5,31C91.6,247.3,81.9,249.3,83.9,216.3z"/>
	<path fill="#BC212C" d="M99.1,181.3c0,3.3,4.5,5.8,10.3,5.8c5.5,0,10.3-2.5,10.3-5.8c0-3.5-4.8-6-10.3-6
		C103.6,175.3,99.1,177.8,99.1,181.3z"/>
	<path fill="#FACCA5" d="M100.9,179.3c0,3.3,3.8,6,8.3,6l0,0c4.8,0,8.5-2.8,8.5-6c0-8.8,0-8.8,0-8.8c0-3.3-3.8-6-8.5-6l0,0
		c-4.5,0-8.3,2.8-8.3,6C100.9,179.3,100.9,179.3,100.9,179.3z"/>
	<path fill="#F7AF9C" d="M100.9,170.5c0-3.3,3.8-6,8.3-6c4.8,0,8.5,2.8,8.5,6c0,4.8,0,4.8,0,4.8c-5.8,0-11.3-0.3-16.8-0.3
		C100.9,170.5,100.9,170.5,100.9,170.5z"/>
	<path fill="#FACCA5" d="M117.6,175.3c0,4,0,4,0,4c0,3.3-3.8,6-8.5,6c-4.5,0-8.3-2.8-8.3-6c0-4.3,0-4.3,0-4.3
		C106.4,175,111.9,175.3,117.6,175.3z"/>
	<path fill="#F4F4F5" d="M110.9,229.3c8.8,0,16.8-1.3,24-3.3c-0.5,22.8-10,21.3-25.8,21.3S83.9,249,83.6,225
		C91.6,227.8,100.9,229.3,110.9,229.3z"/>
	<path fill="#F2EF1B" d="M71.6,263c24.8,3.3,50.3,3.3,75,0c-4-12-8.5-23.3-12.3-34.8c-17,2-33.5,1-50.5-1
		C80.1,238.8,75.6,251,71.6,263z"/>
	<path fill="#FAD50A" d="M73.1,258.8c23.8,2.5,48.3,2.5,72,0c-3.5-10.5-7.3-20.3-10.8-30.8c-17,2-33.5,1-50.5-0.8
		C80.6,237.5,76.6,248.3,73.1,258.8z"/>
	<path fill="#FBC11B" d="M87.9,260c14,2.8,28.5,2.8,42.5,0c-2.3-10.8-4.5-29-6.5-30.3c-10,0.3-19.5,0-29.5-0.3
		C92.4,231,89.9,249.3,87.9,260z"/>
	<path fill="#FAD50A" d="M99.9,261.8c6,1.3,12.5,1.3,18.5,0c-1-11.8-2-30.5-2.8-32c-4.5,0.3-8.5,0-13-0.3
		C101.9,231,100.9,250,99.9,261.8z"/>
	<line fill="none" stroke="#BC212C" stroke-width="0.5" stroke-miterlimit="10" x1="109.1" y1="187" x2="109.1" y2="229.3"/>
	<path fill="#D4D4D3" d="M110.6,194.5c0,0.5-0.8,1.3-1.5,1.3c-0.5,0-1.3-0.8-1.3-1.3c0-0.8,0.8-1.5,1.3-1.5
		C109.9,193,110.6,193.8,110.6,194.5z"/>
	<path fill="#D4D4D3" d="M110.6,203.3c0,0.8-0.8,1.3-1.5,1.3c-0.5,0-1.3-0.5-1.3-1.3s0.8-1.3,1.3-1.3
		C109.9,202,110.6,202.5,110.6,203.3z"/>
	<path fill="#D4D4D3" d="M110.6,212c0,0.8-0.8,1.3-1.5,1.3c-0.5,0-1.3-0.5-1.3-1.3s0.8-1.3,1.3-1.3
		C109.9,210.8,110.6,211.3,110.6,212z"/>
	<path fill="#D4D4D3" d="M110.6,221c0,0.5-0.8,1.3-1.5,1.3c-0.5,0-1.3-0.8-1.3-1.3c0-0.8,0.8-1.3,1.3-1.3
		C109.9,219.8,110.6,220.3,110.6,221z"/>
	<path fill="#F2EF1B" d="M111.1,232c-10,0-19.3-1.3-27.3-3.8c-0.3-1-0.3-2.3-0.3-3.3c8,2.8,17.3,4.3,27.3,4.3c8.8,0,16.8-1.3,24-3.3
		c0,1.3-0.3,2.3-0.3,3.3C127.6,231,119.6,232,111.1,232z"/>
	<path fill="#9A5329" d="M150.4,93.8c9.3,7.3,31.3,57,39,39.3c10.3,11.8-11.8,44-32,24L150.4,93.8z"/>
	<path fill="#9A5329" d="M146.9,124.3c3.5,7.5,1.5,45.3,11.8,36.8c3,10.5-21,23.5-27.3,4.8L146.9,124.3z"/>
	<path fill="#9A5329" d="M72.1,128.3c-3.5,7.5-1.5,45.3-12,36.8c-2.8,10.5,21,23.5,27.5,4.8L72.1,128.3z"/>
	<path fill="#9A5329" d="M71.1,92.3c-9.5,7.5-31.5,57-39,39.5c-10.5,11.5,11.5,44,32,24L71.1,92.3z"/>
	<path fill="#FABE93" d="M174.6,117c0,5.5,4.5,9.8,10,9.8l0,0c5.3,0,9.8-4.3,9.8-9.8c0-12,0-12,0-12c0-5.3-4.5-9.8-9.8-9.8l0,0
		c-5.5,0-10,4.5-10,9.8C174.6,117,174.6,117,174.6,117z"/>
	<path fill="#FABE93" d="M24.1,117c0,5.5,4.5,9.8,9.8,9.8l0,0c5.5,0,10-4.3,10-9.8c0-12,0-12,0-12c0-5.3-4.5-9.8-10-9.8l0,0
		c-5.3,0-9.8,4.5-9.8,9.8C24.1,117,24.1,117,24.1,117z"/>
	<path fill="#FACCA5" d="M190.6,121c0-12,0-12,0-12c0-5.3-4.3-9.8-9.3-9.8c-2.3,0-4.3,0.8-6,2.3c1.5-3.8,5-6.3,9.3-6.3
		c5.3,0,9.8,4.5,9.8,9.8c0,12,0,12,0,12c0,3.5-2,6.5-4.8,8.3C190.4,124,190.6,122.5,190.6,121z"/>
	<path fill="#FACCA5" d="M33.9,95.3c4.3,0,7.8,2.5,9.3,6.3c-1.8-1.5-3.8-2.3-6-2.3c-5,0-9.3,4.5-9.3,9.8c0,12,0,12,0,12
		c0,1.5,0.3,3,1,4.3c-2.8-1.8-4.8-4.8-4.8-8.3c0-12,0-12,0-12C24.1,99.8,28.6,95.3,33.9,95.3z"/>
	<path fill="#FACCA5" d="M40.9,112.5c0,31.8,25.5,57.5,57.3,57.5c22.3,0,22.3,0,22.3,0c31.8,0,57.3-25.8,57.3-57.5
		c0-43.5,0-43.5,0-43.5c0-31.5-25.5-57.3-57.3-57.3c-22.3,0-22.3,0-22.3,0c-31.8,0-57.3,25.8-57.3,57.3
		C40.9,112.5,40.9,112.5,40.9,112.5z"/>
	<path fill="#FABE93" d="M98.1,160.3c22.3,0,22.3,0,22.3,0c31.8,0,57.3-25.8,57.3-57.5c0,9.8,0,9.8,0,9.8
		c0,31.8-25.5,57.5-57.3,57.5c-22.3,0-22.3,0-22.3,0c-31.8,0-57.3-25.8-57.3-57.5c0-9.8,0-9.8,0-9.8
		C40.9,134.5,66.4,160.3,98.1,160.3z"/>
	<path fill="#F7AF9C" d="M116.9,127.3c0.8,1.8-0.3,3.5-2,3.8c-3.3,0.5-3.3,0.5-3.3,0.5c-1.8,0.3-3.3-1-3-2.8c1-12.8,1-12.8,1-12.8
		c0.3-2,1-2,1.8-0.5C116.9,127.3,116.9,127.3,116.9,127.3z"/>
	<path fill="#FFFFFF" d="M136.4,119.8c0,6,3,10.8,7,10.8c3.8,0,6.8-4.8,6.8-10.8s-3-10.8-6.8-10.8
		C139.4,109,136.4,113.8,136.4,119.8z"/>
	<path fill="#845E41" d="M136.4,119.8c0,4.8,2.5,8.8,5.8,8.8c3,0,5.8-4,5.8-8.8c0-5-2.8-9-5.8-9
		C138.9,110.8,136.4,114.8,136.4,119.8z"/>
	<path fill="#211C1D" d="M138.1,119.8c0,3.3,1.8,6,4,6s4-2.8,4-6c0-3.5-1.8-6.3-4-6.3S138.1,116.3,138.1,119.8z"/>
	<path fill="#FFFFFF" d="M138.4,116.5c0,0.8,0.5,1.5,1.3,1.5c0.5,0,1-0.8,1-1.5c0-1-0.5-1.8-1-1.8
		C138.9,114.8,138.4,115.5,138.4,116.5z"/>
	<path fill="#9A5329" d="M137.9,95.3c0,0,0-0.3,0-0.5s0-0.5,0-0.8c0,0,0.3-0.5,0.3-0.8c0.3-0.5,0.8-1,1.5-1.5c0-0.3,0.3-0.3,0.5-0.5
		c0.3,0,0.3,0,0.5-0.3c0.5,0,1,0,1.5-0.3l0,0l0,0c0.3,0.3,0.3,0.3,0.3,0.3l0,0c0.3,0,0.3,0,0.3,0c0.3,0,0.3,0,0.3,0
		c0.3,0,0.3,0,0.3,0c0.3,0,0.3,0,0.3,0c0.3,0.3,0.3,0.3,0.3,0.3c0.5,0,0.5,0,0.5,0c0,0.3,0.3,0.3,0.5,0.5c0.8,0.5,1,1,1.3,1.5
		c0.3,0.3,0.3,0.8,0.3,0.8c0.3,0.3,0.3,0.5,0.3,0.8s0,0.5,0,0.5s-0.3,0-0.5-0.3c-0.3,0-0.3-0.3-0.5-0.3s-0.5-0.3-0.8-0.3
		c0-0.3-0.3-0.3-0.5-0.3c-0.3-0.3-0.5-0.3-0.8-0.3c0-0.3-0.3-0.3-0.3-0.3c-0.3,0-0.3,0-0.5,0l0,0l0,0c-0.3,0-0.3,0-0.3,0
		c-0.3,0-0.3,0-0.3,0l0,0c-0.3,0-0.3,0-0.3,0l0,0l0,0l0,0l0,0c0,0,0,0,0.3,0c-0.3,0-0.5,0-0.8,0s-0.5,0-0.8,0.3c0,0-0.3,0-0.5,0.3
		c-0.3,0-0.5,0-0.8,0.3c-0.3,0-0.5,0.3-0.5,0.3c-0.3,0-0.5,0.3-0.5,0.3C137.9,95.3,137.9,95.3,137.9,95.3z"/>
	<path fill="#FFFFFF" d="M68.4,119.8c0,6,3,10.8,6.8,10.8c4,0,7-4.8,7-10.8s-3-10.8-7-10.8C71.4,109,68.4,113.8,68.4,119.8z"/>
	<path fill="#845E41" d="M70.6,119.8c0,4.8,2.8,8.8,5.8,8.8c3.3,0,5.8-4,5.8-8.8c0-5-2.5-9-5.8-9C73.4,110.8,70.6,114.8,70.6,119.8z
		"/>
	<path fill="#211C1D" d="M72.4,119.8c0,3.3,1.8,6,4,6s4-2.8,4-6c0-3.5-1.8-6.3-4-6.3S72.4,116.3,72.4,119.8z"/>
	<path fill="#FFFFFF" d="M72.9,116.5c0,0.8,0.5,1.5,1,1.5c0.8,0,1.3-0.8,1.3-1.5c0-1-0.5-1.8-1.3-1.8
		C73.4,114.8,72.9,115.5,72.9,116.5z"/>
	<path fill="#9A5329" d="M72.1,95.3c0,0,0-0.3,0-0.5s0-0.5,0.3-0.8c0,0,0-0.5,0.3-0.8c0.3-0.5,0.5-1,1.3-1.5
		c0.3-0.3,0.5-0.3,0.5-0.5c0.3,0,0.5,0,0.8-0.3c0.3,0,0.8,0,1.3-0.3c0.3,0,0.3,0,0.3,0l0,0c0,0.3,0,0.3,0,0.3c0.3,0,0.3,0,0.3,0
		c0.3,0,0.3,0,0.3,0l0,0c0.3,0,0.3,0,0.3,0c0.5,0,0.5,0,0.5,0c0.3,0.3,0.3,0.3,0.3,0.3c0.3,0,0.3,0,0.3,0c0.3,0.3,0.5,0.3,0.5,0.5
		c0.8,0.5,1.3,1,1.5,1.5c0,0.3,0.3,0.8,0.3,0.8c0,0.3,0,0.5,0,0.8s0,0.5,0,0.5s0,0-0.5-0.3c0,0-0.3-0.3-0.5-0.3c0,0-0.3-0.3-0.5-0.3
		c-0.3-0.3-0.5-0.3-0.8-0.3C78.1,94,77.9,94,77.6,94c0-0.3,0-0.3-0.3-0.3h-0.3l0,0c-0.3,0-0.3,0-0.3,0l0,0c-0.3,0-0.3,0-0.3,0
		c-0.3,0-0.3,0-0.3,0l0,0l0,0l0,0l0,0l0,0c0,0-0.3,0,0,0c-0.3,0-0.3,0-0.5,0s-0.5,0-0.8,0.3c-0.3,0-0.5,0-0.8,0.3
		c-0.3,0-0.5,0-0.8,0.3c0,0-0.3,0.3-0.5,0.3S72.9,95,72.6,95C72.4,95.3,72.1,95.3,72.1,95.3z"/>
	<path fill="#721327" d="M100.4,142c-0.8,2.8,4,9.3,12.3,10.8c8.3,1.3,13-6.5,10.5-12.8c-2.3-6.5-5-0.5-11.3,0.5
		C105.9,141.8,101.1,139,100.4,142z"/>
	<path fill="#FFFFFF" d="M100.6,141.5c1.3-2,5.8,0,11.3-1c5.8-0.8,8.5-6,10.5-2c-2.3,2.5-6,4.5-10.3,4.8
		C107.9,143.8,103.9,142.8,100.6,141.5z"/>
	<path fill="#F46C98" d="M114.4,147.3c3,0,5.8,0.8,7.8,1.8c-2,2.8-5.3,4.5-9.5,3.8c-2.8-0.5-5.3-1.5-7-3
		C107.4,148.3,110.6,147.3,114.4,147.3z"/>
	<path fill="none" stroke="#F7AF9C" stroke-width="0.5" stroke-miterlimit="10" d="M100.4,142c-0.8,2.8,4,9.3,12.3,10.8
		c8.3,1.3,13-6.5,10.5-12.8c-2.3-6.5-5-0.5-11.3,0.5C105.9,141.8,101.1,139,100.4,142L100.4,142z"/>
	<path fill="#9A5329" d="M180.6,102.8c-3.3,13.8-20.5-35-40.3-35.5c-3.8,3.5-3.8,18-3.8,18s-22-8.5-35.3-28.3
		c-4.3,8.8,0.3,31.8,0.3,31.8s-26.8-8-39.5-26c-21.5,14.3-18.5,60-25,44.5C16.4,38,51.6,4,114.1,5C190.6,6.3,189.6,64,180.6,102.8z"
		/>
	<path fill="#9A5329" d="M45.6,28.8c-9.3,7.3-31.3,57-39,39.3c-10.3,11.8,11.8,44,32,24L45.6,28.8z"/>
	<path fill="#9A5329" d="M173.1,28.8c9.3,7.3,31.3,57,39,39.3c10.3,11.8-11.8,44-32,24L173.1,28.8z"/>
	<path fill="#972292" d="M48.4,38.8c0,4.8-4,8.5-8.8,8.5s-8.5-3.8-8.5-8.5c0-5,3.8-8.8,8.5-8.8S48.4,33.8,48.4,38.8z"/>
	<polygon fill="#972292" points="57.9,56 34.4,41.3 38.9,34.3 62.4,48.8 57.9,56 	"/>
	<path fill="#BA6333" d="M100.4,35.3c0,0,0.3,0.3,0.5,0.5c0.3,0.5,0.5,0.8,1,1.5c0.8,1.3,2,3,3.5,5c1.3,2,2.8,4.5,4.5,7
		c1,1.3,1.8,2.5,2.8,3.8c0.8,1.3,1.8,2.8,2.8,4c0.8,1.3,1.8,2.5,2.8,3.8c0.5,0.8,1,1.3,1.3,2c0.5,0.5,1,1,1.5,1.8
		c2,2.3,3.8,4.3,5.5,6c0.8,0.8,1.8,1.5,2.3,2.3c0.8,0.8,1.5,1.3,2,1.8c1.3,1,1.8,1.5,1.8,1.5s0,0-0.5,0c-0.5-0.3-1-0.3-1.8-0.5
		s-1.5-0.3-2.5-0.8c-0.5-0.3-1-0.5-1.8-0.8c-0.5-0.3-1-0.5-1.5-0.8c-1.3-0.8-2.5-1.5-3.8-2.3c-1-1-2.3-1.8-3.5-3
		c-2.5-2.3-4.8-4.8-6.8-7.5c-2-3-3.8-5.8-5-8.8c-1.5-2.8-2.5-5.8-3.3-8c-0.8-2.5-1.3-4.5-1.3-6C100.6,36.3,100.4,35.3,100.4,35.3z"
		/>
	<path fill="#BA6333" d="M71.9,36.8c0,0,0,0,0,0.5c0,0.3,0,1,0,1.8c0,0.5,0,1.5,0.3,2.5c0,0.8,0,2,0.3,3c0,1.3,0.3,2.5,0.5,3.8
		s0.5,2.5,0.8,4c0.3,1.3,0.8,2.8,1.3,4c0.3,1.5,0.8,2.8,1.5,4c0.3,0.8,0.5,1.5,1,2c0.5,1,0.5,1,0.5,1c0.5,1,0.5,1,0.5,1
		c0.8,1.3,1.5,2.3,2.3,3.5c0.8,1,1.5,2.3,2.5,3.3c0.3,0.3,0.3,0.5,0.5,0.8s0.5,0.5,0.8,0.5c0.3,0.5,0.8,1,1.3,1.5
		c0.8,0.8,1.5,1.5,2,2.3c0.8,0.5,1.5,1.3,2,1.8s0.8,0.8,1,1.3c0.5,0.3,0.5,0.3,0.5,0.3s-0.3,0-0.5,0c-0.5-0.3-1-0.3-1.8-0.5
		s-1.5-0.5-2.5-0.8c-0.8-0.5-1.8-1-3-1.5c-1-0.8-2.3-1.5-3.5-2.3c-1-1-2.3-2-3.3-3c-0.5-0.8-1.3-1.3-1.8-2c-0.5-0.5-1-1.3-1.5-2
		s-1-1.5-1.3-2.3c-0.5-0.8-0.8-1.5-1.3-2.3c-0.3-0.8-0.5-1.5-1-2.5c-0.3-0.8-0.5-1.5-0.8-2.3c0-1-0.3-1.8-0.5-2.5
		c0-1-0.3-1.8-0.3-2.5c0-1.5,0-3,0-4.5s0.3-2.8,0.5-4c0.5-2.5,1.3-4.5,1.8-5.8C71.4,37.3,71.9,36.8,71.9,36.8z"/>
	<path fill="#BA6333" d="M157.9,40c0,0,0,0.3,0.5,0.8c0.3,0.5,0.8,1.3,1.3,2.3c1,2,2.8,4.8,4.8,8c1.8,3.3,4,7,6.5,10.8
		c1.3,2,2.5,4,4,6c1.3,2,2.8,4,4.3,6c1.5,1.8,3,3.5,4.8,5.3c1.5,1.5,3.3,3,5,4.3c1,0.5,1.8,1,2.8,1.5c0.8,0.3,1.8,0.5,2.8,0.8
		c1.8,0.3,3.5,0.3,5,0c1.8-0.5,3.3-1.3,4.5-1.8c1.3-0.8,2.3-1.5,3.3-2.3c0.5-0.3,0.8-0.8,1.3-1c0.3-0.3,0.5-0.5,0.8-0.5
		c0.5-0.5,0.8-0.8,0.8-0.8s-0.3,0.3-0.5,0.8c-0.3,0.8-0.8,1.5-1.5,2.3c-0.3,0.5-0.8,1-1,1.5c-0.5,0.5-1,1.3-1.8,1.8
		c-1,1-2.5,2.3-4.5,3.3c-2,0.8-4.3,1.3-6.8,1.3c-1.5,0-2.8-0.3-4-0.8c-1.3-0.3-2.5-0.8-3.5-1.5c-1.3-0.5-2.5-1.3-3.5-2s-2-1.8-3-2.5
		c-2-1.8-3.8-3.8-5.5-6c-1.5-2-3-4-4.5-6.3c-1.3-2.3-2.5-4.5-3.5-6.5c-2.3-4.3-4-8.5-5.3-12.3c-1.3-3.5-2-6.8-2.5-8.8
		c-0.3-1.3-0.5-2-0.8-2.5C157.9,40.3,157.9,40,157.9,40z"/>
	<path fill="#BA6333" d="M156.6,29.3c-1.5,5.8-13.8,7-27.3,3c-13.3-4.3-22.8-12-21.3-17.8c1.8-5.5,14-6.8,27.5-2.8
		C148.9,15.8,158.4,23.8,156.6,29.3z"/>
</g>
</svg>
