<?xml version="1.0" encoding="utf-8"?>
<!-- Generator: Adobe Illustrator 16.0.0, SVG Export Plug-In . SVG Version: 6.00 Build 0)  -->
<!DOCTYPE svg PUBLIC "-//W3C//DTD SVG 1.1//EN" "http://www.w3.org/Graphics/SVG/1.1/DTD/svg11.dtd">
<svg version="1.1" id="Layer_1" xmlns="http://www.w3.org/2000/svg" xmlns:xlink="http://www.w3.org/1999/xlink" x="0px" y="0px"
	 width="186px" height="329px" viewBox="0 0 186 329" enable-background="new 0 0 186 329" xml:space="preserve">
<g>
	<polygon fill="#FAB9A1" points="85,313.9 71.5,313.9 71.5,254.4 85,254.4 85,313.9 	"/>
	<path fill="#55B6E9" d="M78.3,292.9c-2.5,0-4.8-0.8-6.8-1.8c0,22.8,0,22.8,0,22.8c13.5,0,13.5,0,13.5,0c0-22.8,0-22.8,0-22.8
		C83,292.2,80.8,292.9,78.3,292.9z"/>
	<path fill="#D4D4D3" d="M78.3,299.7c-2.5,0-4.8-0.5-6.8-1.3c0,15.5,0,15.5,0,15.5c13.5,0,13.5,0,13.5,0c0-15.5,0-15.5,0-15.5
		C83,299.2,80.8,299.7,78.3,299.7z"/>
	<path fill="#3C3A3D" d="M85,310.4c-1.8,0.8-4,1.3-6.5,1.3c-2.8,0-5.3-0.5-7-1.5c-9,1.3-12.8,10-11,12c2.5,2.8,11.8,3.8,18.5,0.5
		c2.5-1.3,7-0.3,7-2.8c0-8,0-8,0-8C86,311.4,85.5,310.7,85,310.4z"/>
	<path fill="#E9EAE8" d="M64.8,312.9c1.8,0.8,3,1.8,4.3,3c0.5-0.5,1.3-1.3,1.8-1.8c-1.5-0.8-3-1.5-4.8-2
		C65.5,312.4,65,312.7,64.8,312.9z"/>
	<path fill="#FFFFFF" d="M66,312.2c1.8,0.5,3.3,1.3,4.8,2c0.8-0.5,1.3-0.8,2-1.3c-1.3-1-2.8-1.5-4.3-2
		C67.5,311.2,66.8,311.7,66,312.2z"/>
	<path fill="#67696E" d="M60.3,319.7c-0.3,1.3,0,2,0.3,2.5c2.5,2.8,11.8,3.8,18.5,0.5c2.5-1.3,7-0.3,7-2.8c0-1.8,0-1.8,0-1.8
		c-2,0.3-5.5,0.8-9.8,2.8C71.3,322.9,65.3,321.9,60.3,319.7z"/>
	<path fill="#515356" d="M60.3,319.7c3,1.3,6.3,2.3,9.5,2.3c-0.8-3.8-3.3-6.8-6.5-7.5C61.5,316.2,60.5,318.2,60.3,319.7z"/>
	<path fill="#FFFFFF" d="M67.5,317.2c0.5-0.3,1-0.8,1.5-1.3c-1.3-1.3-2.5-2.3-4.3-3c-0.5,0.5-1,1-1.5,1.5
		C65,314.7,66.5,315.9,67.5,317.2z"/>
	<path fill="#FFFFFF" d="M83,314.9c0,1.3-0.8,2-1.8,2c-1.3,0-2-0.8-2-2c0-1,0.8-1.8,2-1.8C82.3,313.2,83,313.9,83,314.9z"/>
	<path fill="#E9EAE8" d="M71.5,310.2c-1,0.3-2,0.5-3,0.8c1.5,0.5,3,1,4.3,2c0.8-0.5,1.8-1,2.5-1.5C74,311.2,72.5,310.7,71.5,310.2z"
		/>
	<path fill="#3C3A3D" d="M77.5,245.9c-4.3,0-7.8,2.5-7.8,5.3c-0.8,20-0.8,20-0.8,20c5.5,1.3,11.3,2,17,2.3
		c-0.8-22.3-0.8-22.3-0.8-22.3C85.3,248.4,81.8,245.9,77.5,245.9z"/>
	<polygon fill="#FAB9A1" points="114.5,313.9 101,313.9 101,254.4 114.5,254.4 114.5,313.9 	"/>
	<path fill="#55B6E9" d="M107.8,292.9c-2.5,0-4.8-0.8-6.8-1.8c0,22.8,0,22.8,0,22.8c13.5,0,13.5,0,13.5,0c0-22.8,0-22.8,0-22.8
		C112.5,292.2,110.3,292.9,107.8,292.9z"/>
	<path fill="#D4D4D3" d="M107.8,299.7c-2.5,0-4.8-0.5-6.8-1.3c0,15.5,0,15.5,0,15.5c13.5,0,13.5,0,13.5,0c0-15.5,0-15.5,0-15.5
		C112.5,299.2,110.3,299.7,107.8,299.7z"/>
	<path fill="#3C3A3D" d="M101.3,310.4c1.8,0.8,4,1.3,6.5,1.3c2.8,0,5.3-0.5,7-1.5c9,1.3,12.5,10,10.8,12c-2.5,2.8-11.8,3.8-18.3,0.5
		c-2.5-1.3-7-0.3-7-2.8c0-8,0-8,0-8C100.3,311.4,100.5,310.7,101.3,310.4z"/>
	<path fill="#E9EAE8" d="M121.5,312.9c-1.8,0.8-3,1.8-4.3,3c-0.5-0.5-1.3-1.3-2-1.8c1.5-0.8,3.3-1.5,5-2
		C120.5,312.4,121,312.7,121.5,312.9z"/>
	<path fill="#FFFFFF" d="M120.3,312.2c-1.8,0.5-3.5,1.3-5,2c-0.5-0.5-1.3-0.8-1.8-1.3c1.3-1,2.5-1.5,4.3-2
		C118.5,311.2,119.5,311.7,120.3,312.2z"/>
	<path fill="#67696E" d="M126,319.7c0,1.3,0,2-0.5,2.5c-2.5,2.8-11.8,3.8-18.3,0.5c-2.5-1.3-7-0.3-7-2.8c0-1.8,0-1.8,0-1.8
		c2,0.3,5.5,0.8,9.5,2.8C114.8,322.9,121,321.9,126,319.7z"/>
	<path fill="#515356" d="M126,319.7c-3,1.3-6.3,2.3-9.5,2.3c0.8-3.8,3.3-6.8,6.5-7.5C124.5,316.2,125.5,318.2,126,319.7z"/>
	<path fill="#FFFFFF" d="M118.5,317.2c-0.3-0.3-0.8-0.8-1.3-1.3c1.3-1.3,2.5-2.3,4.3-3c0.5,0.5,1,1,1.5,1.5
		C121.3,314.7,119.8,315.9,118.5,317.2z"/>
	<path fill="#FFFFFF" d="M103,314.9c0,1.3,1,2,2,2s2-0.8,2-2c0-1-1-1.8-2-1.8S103,313.9,103,314.9z"/>
	<path fill="#FFFFFF" d="M125.8,319.7c0,0,0-0.3,0-0.5C125.8,319.4,125.8,319.7,125.8,319.7z"/>
	<path fill="#E9EAE8" d="M114.8,310.2c1,0.3,2,0.5,3,0.8c-1.8,0.5-3,1-4.3,2c-0.8-0.5-1.8-1-2.8-1.5
		C112.3,311.2,113.5,310.7,114.8,310.2z"/>
	<path fill="#3C3A3D" d="M108.8,245.9c-4.3,0-7.8,2.5-7.8,5.3c-1,22.3-1,22.3-1,22.3c6-0.3,11.8-1,17-2.3c-0.8-20-0.8-20-0.8-20
		C116.3,248.4,113,245.9,108.8,245.9z"/>
	<path fill="#D4D4D3" d="M111.3,265.9c-1.3,0.8-1.8-2-0.5-2.3c0,0,0,0,0-0.3c0,0,0,0,0,0.3c0-0.3,0-0.3,0.3-0.3
		C112,263.4,112,265.4,111.3,265.9L111.3,265.9z M108.5,261.9c-2,2.3,0,8.8,3.5,6.5C116,266.2,112.5,257.9,108.5,261.9L108.5,261.9z
		 M104.5,268.7c0.8,0,1.8,0,2.5,0c0-2.5,0-5,0-7.3C103.8,261.7,104,265.4,104.5,268.7z"/>
	<path fill="#FAB9A1" d="M40.3,258.9L40.3,258.9c-3.3-0.3-5.8-2.8-5.8-6c0.8-24,11.8-38.5,21-46.5c10-8.8,19.8-11.5,20.3-11.8
		c3-0.8,6,1,7,4c0.8,3-1,6.3-4,7c-1.3,0.5-31.8,10-32.8,47.8C46,256.4,43.5,258.9,40.3,258.9z"/>
	<path fill="#FAB9A1" d="M47.8,260.7c-2,4.5-3.3,4-7.3,4s-7.3,0-7.3-4s3.3-9,7.3-9S47.8,256.7,47.8,260.7z"/>
	<path fill="#FAB9A1" d="M35.8,269.2c0,0.5-0.5,1-1,1l0,0c-0.5,0-1-0.5-1-1c0-8.5,0-8.5,0-8.5c0-0.5,0.5-1,1-1l0,0c0.5,0,1,0.5,1,1
		C35.8,269.2,35.8,269.2,35.8,269.2z"/>
	<path fill="#FAB9A1" d="M39.3,272.2c0,0.5-0.5,1-1,1l0,0c-0.8,0-1.3-0.5-1.3-1c0-8.5,0-8.5,0-8.5c0-0.5,0.5-1,1.3-1l0,0
		c0.5,0,1,0.5,1,1C39.3,272.2,39.3,272.2,39.3,272.2z"/>
	<path fill="#FAB9A1" d="M42.8,273.2c0,0.5-0.5,1-1.3,1l0,0c-0.5,0-1-0.5-1-1c0-8.5,0-8.5,0-8.5c0-0.5,0.5-1,1-1l0,0
		c0.8,0,1.3,0.5,1.3,1C42.8,273.2,42.8,273.2,42.8,273.2z"/>
	<path fill="#FAB9A1" d="M46,271.4c0,0.5-0.5,1-1,1l0,0c-0.5,0-1-0.5-1-1c0-8.5,0-8.5,0-8.5c0-0.5,0.5-1,1-1l0,0c0.5,0,1,0.5,1,1
		C46,271.4,46,271.4,46,271.4z"/>
	<path fill="#FAB9A1" d="M51.3,260.9c0.3,0.3,0.3,0.8,0,1.5l0,0c-0.3,0.8-0.8,1-1.3,1c-5.3-2.5-5.3-2.5-5.3-2.5
		c-0.5-0.3-0.5-1-0.3-1.5l0,0c0.3-0.8,0.8-1.3,1.3-1C51.3,260.9,51.3,260.9,51.3,260.9z"/>
	<path fill="#D4D4D3" d="M79.3,207.2L79.3,207.2c-2-7-2-7-2-7C79.3,207.2,79.3,207.2,79.3,207.2c-1-15.3-1-15.3-1-15.3
		c-0.5,0-11.5,3.8-21.3,11.3c7.8,12.3,7.8,12.3,7.8,12.3C72,209.4,78.5,207.4,79.3,207.2L79.3,207.2z"/>
	<path fill="#55B6E9" d="M57,203.2c7.8,12.3,7.8,12.3,7.8,12.3c1-0.8,1.8-1.3,2.5-2c-7-12.8-7-12.8-7-12.8
		C59.3,201.4,58.3,202.2,57,203.2z"/>
	<path fill="#FAB9A1" d="M138.8,223.9c-9.8,0-20.3-7-31.5-21c-2-2.5-1.8-6,0.8-8s6-1.5,8,1c9.8,12,18.5,18,24.8,16.5
		c8.8-2,13.8-17.5,15-22.8c0.5-3.3,3.5-5,6.8-4.5c3,0.8,5,3.8,4.3,6.8c-0.5,2.8-6.3,27.5-23.3,31.5
		C142,223.9,140.3,223.9,138.8,223.9z"/>
	<path fill="#FAB9A1" d="M157.8,183.7c4.5-1.8,5.3-0.5,8,2.3c2.8,3,5,5.3,2.3,8s-8.5,4-11.3,1.3C153.8,192.4,155,186.7,157.8,183.7z
		"/>
	<path fill="#FAB9A1" d="M172.3,186.2c0.3-0.5,1-0.5,1.5,0l0,0c0.5,0.5,0.5,1,0,1.5c-6,6-6,6-6,6c-0.5,0.5-1,0.5-1.5,0l0,0
		c-0.5-0.5-0.5-1.3,0-1.5C172.3,186.2,172.3,186.2,172.3,186.2z"/>
	<path fill="#FAB9A1" d="M171.8,181.7c0.5-0.5,1.3-0.5,1.8,0l0,0c0.3,0.3,0.3,1,0,1.5c-6,6-6,6-6,6c-0.5,0.3-1.3,0.3-1.5,0l0,0
		c-0.5-0.5-0.5-1.3,0-1.5C171.8,181.7,171.8,181.7,171.8,181.7z"/>
	<path fill="#FAB9A1" d="M170.3,178.4c0.3-0.5,1-0.5,1.5,0l0,0c0.5,0.5,0.5,1.3,0,1.5c-6,6-6,6-6,6c-0.5,0.5-1.3,0.5-1.5,0l0,0
		c-0.5-0.5-0.5-1,0-1.5C170.3,178.4,170.3,178.4,170.3,178.4z"/>
	<path fill="#FAB9A1" d="M166.5,177.2c0.5-0.3,1.3-0.3,1.5,0l0,0c0.5,0.5,0.5,1.3,0,1.8c-6,5.8-6,5.8-6,5.8c-0.3,0.5-1,0.5-1.5,0
		l0,0c-0.5-0.3-0.5-1,0-1.5C166.5,177.2,166.5,177.2,166.5,177.2z"/>
	<path fill="#FAB9A1" d="M155.5,181.2c-0.3-0.5,0.3-1,1-1.3l0,0c0.8-0.3,1.3-0.3,1.5,0.3c2,5.5,2,5.5,2,5.5c0.3,0.5-0.3,1-0.8,1.3
		l0,0c-0.8,0.3-1.5,0.3-1.8-0.3C155.5,181.2,155.5,181.2,155.5,181.2z"/>
	<path fill="#D4D4D3" d="M117.3,194.9c-2-2-11.3-4.5-13.3-3.3c-1.8,1.3,2,12.3,2,12.3c4.3,5.3,8.5,9.8,12.8,13c8-13,8-13,8-13
		C124,201.2,120.8,198.2,117.3,194.9z"/>
	<path fill="#55B6E9" d="M126.8,203.9c-0.8-0.8-1.5-1.5-2.3-2.3c-8.3,13.3-8.3,13.3-8.3,13.3c0.8,0.8,1.5,1.5,2.5,2
		C126.8,203.9,126.8,203.9,126.8,203.9z"/>
	<path fill="#FFFFFF" d="M60.3,319.7c0,0,0-0.3,0.3-0.5C60.3,319.4,60.3,319.7,60.3,319.7z"/>
	<path fill="#55B6E9" d="M118.3,229.2c-0.5-9.5-2-23.8-4.3-29.5c-4.5-11.5-12-9-21-9s-16.3-2.5-20.8,9c-2.3,5.8-3.8,20-4.5,29.5
		c-2.3,33.3,7.8,31,25.3,31C110.8,260.2,120.5,262.4,118.3,229.2z"/>
	<path fill="#D4D4D3" d="M103.5,192.9c0-0.8-0.3-1.8-0.5-2.5c-3-0.3-6.3,0.3-10,0.3c-3.5,0-6.8-0.5-9.8-0.3
		c-0.5,0.8-0.8,1.8-0.8,2.5c0,4.3,4.8,7.5,10.5,7.5S103.5,197.2,103.5,192.9z"/>
	<path fill="#FAB9A1" d="M101.3,192.4c0,3.3-3.5,5.8-8.3,5.8l0,0c-4.5,0-8.3-2.5-8.3-5.8c0-9,0-9,0-9c0-3.3,3.8-5.8,8.3-5.8l0,0
		c4.8,0,8.3,2.5,8.3,5.8C101.3,192.4,101.3,192.4,101.3,192.4z"/>
	<path fill="#F69D91" d="M101.3,183.4c0-3.3-3.5-5.8-8.3-5.8c-4.5,0-8.3,2.5-8.3,5.8c0,4.8,0,4.8,0,4.8c5.5,0,11,0,16.5-0.3
		C101.3,183.4,101.3,183.4,101.3,183.4z"/>
	<path fill="#FAB9A1" d="M84.8,188.2c0,4.3,0,4.3,0,4.3c0,3.3,3.8,5.8,8.3,5.8c4.8,0,8.3-2.5,8.3-5.8c0-4.5,0-4.5,0-4.5
		C95.8,188.2,90.3,188.2,84.8,188.2z"/>
	<path fill="#3C3A3D" d="M91.3,242.2c-8.5,0-16.5-1-23.8-3c0.5,22.8,10,21,25.5,21c16,0,25.5,1.8,25.8-22.3
		C110.8,240.7,101.3,242.2,91.3,242.2z"/>
	<path fill="#515356" d="M91.3,245.2c10,0,19.3-1.5,27.3-4c0-1,0.3-2,0.3-3.3c-8,2.8-17.5,4.3-27.5,4.3c-8.5,0-16.5-1-23.8-3
		c0,1,0,2,0.3,3C74.8,244.2,82.8,245.2,91.3,245.2z"/>
	<path fill="#D4D4D3" d="M117,214.4c-0.3-1-0.3-2-0.5-3c-7.5,2-16.3,3.3-25.3,3.3c-7.8,0-15-1-21.8-2.5c-0.3,1-0.3,2-0.5,3
		c7,1.5,14.3,2.3,22.3,2.3C100.5,217.4,109.3,216.4,117,214.4z"/>
	<path fill="#D4D4D3" d="M91.3,236.4c9.8,0,19.3-1.3,27.3-3.5c0-1,0-2,0-3.3c-8,2.5-17.3,4-27.3,4c-8.5,0-16.5-1-23.5-3
		c0,1.3-0.3,2.3-0.3,3.3C74.8,235.4,82.8,236.4,91.3,236.4z"/>
	<path fill="#D4D4D3" d="M68.3,224.7c-0.3,1-0.3,2-0.3,3c7,1.5,14.8,2.5,23.3,2.5c9.8,0,18.8-1.3,27-3.5c-0.3-1-0.3-2-0.3-3
		c-8,2.3-17,3.5-26.8,3.5C83,227.2,75.3,226.2,68.3,224.7z"/>
	<path fill="#D4D4D3" d="M68.8,218.4c0,1-0.3,2-0.3,3c7,1.5,14.5,2.3,22.8,2.3c9.5,0,18.5-1,26.5-3.3c-0.3-1-0.3-2-0.5-3
		c-7.8,2.3-16.5,3.5-26,3.5C83.3,220.9,75.5,219.9,68.8,218.4z"/>
	<polygon fill="#CDCAC9" points="107.3,205.2 105.8,205.2 103.8,206.7 107.3,211.4 110.3,206.7 108.5,205.2 107.3,205.2 	"/>
	<path fill="#3C3A3D" d="M95.8,209.2c-1.5,0.8-1.8-2-0.5-2.3l0,0l0,0l0,0C96.3,206.9,96.5,208.9,95.8,209.2L95.8,209.2z M93,205.4
		c-2.3,2.3-0.3,8.8,3.3,6.5C100.3,209.4,96.8,201.4,93,205.4L93,205.4z M88.8,212.2c1,0,1.8,0,2.8,0c0-2.5,0-5-0.3-7.5
		C88,205.2,88.3,208.7,88.8,212.2z"/>
	<path fill="#35231A" d="M21,112.4c0,0-14.8,50.5,2.5,40.5c-2.8,16.3,10.3,26,17.3,16.3c-3.5,10,9.5,14,13.5,9
		c3.5,11.3,14.3,9.3,17,0.8c0.5,9.5,12.5,10,15.5-2c1.3,2.5,7.5,4,14.5,1.3c1,15.3,19,12.8,20-0.3c3.5,10.3,13.5,8.3,16.5,0.5
		c4.8,6,18.5-5,13.8-15.3c2,5.8,15,4.3,8.8-17.8c9,16.5,14.3-10,10.3-44.5L21,112.4z"/>
	<path fill="#F8AE95" d="M27.5,130.2c0,5.3-4.3,9.8-9.8,9.8l0,0c-5.3,0-9.8-4.5-9.8-9.8c0-12,0-12,0-12c0-5.5,4.5-9.8,9.8-9.8l0,0
		c5.5,0,9.8,4.3,9.8,9.8C27.5,130.2,27.5,130.2,27.5,130.2z"/>
	<path fill="#F8AE95" d="M178,130.2c0,5.3-4.3,9.8-9.8,9.8l0,0c-5.3,0-9.8-4.5-9.8-9.8c0-12,0-12,0-12c0-5.5,4.5-9.8,9.8-9.8l0,0
		c5.5,0,9.8,4.3,9.8,9.8C178,130.2,178,130.2,178,130.2z"/>
	<path fill="#FAB9A1" d="M11.8,133.9c0-11.8,0-11.8,0-11.8c0-5.5,4.3-9.8,9.3-9.8c2.3,0,4.3,0.8,5.8,2c-1.3-3.5-4.8-6-9-6
		c-5.3,0-9.8,4.3-9.8,9.8c0,12,0,12,0,12c0,3.5,2,6.5,4.8,8.3C12,137.2,11.8,135.7,11.8,133.9z"/>
	<path fill="#FAB9A1" d="M168.3,108.4c-4,0-7.5,2.5-9,6c1.8-1.3,3.8-2,5.8-2c5.3,0,9.5,4.3,9.5,9.8c0,11.8,0,11.8,0,11.8
		c0,1.8-0.5,3.3-1,4.5c2.8-1.8,4.5-4.8,4.5-8.3c0-12,0-12,0-12C178,112.7,173.8,108.4,168.3,108.4z"/>
	<path fill="#FAB9A1" d="M161.5,125.4c0,31.8-25.8,57.5-57.3,57.5c-22.3,0-22.3,0-22.3,0c-31.8,0-57.5-25.8-57.5-57.5
		c0-43.3,0-43.3,0-43.3c0-31.8,25.8-57.5,57.5-57.5c22.3,0,22.3,0,22.3,0c31.5,0,57.3,25.8,57.3,57.5
		C161.5,125.4,161.5,125.4,161.5,125.4z"/>
	<path fill="#F8AE95" d="M104.3,173.2c-22.3,0-22.3,0-22.3,0c-31.8,0-57.5-25.5-57.5-57.3c0,9.5,0,9.5,0,9.5
		c0,31.8,25.8,57.5,57.5,57.5c22.3,0,22.3,0,22.3,0c31.5,0,57.3-25.8,57.3-57.5c0-9.5,0-9.5,0-9.5
		C161.5,147.7,135.8,173.2,104.3,173.2z"/>
	<path fill="#F69D91" d="M100.5,140.4c0.8,1.8,0,3.3-2,3.8c-3,0.5-3,0.5-3,0.5c-1.8,0.3-3.3-1-3-3c1-12.8,1-12.8,1-12.8
		c0.3-1.8,1-2,1.8-0.3C100.5,140.4,100.5,140.4,100.5,140.4z"/>
	<path fill="#FFFFFF" d="M66,132.7c0,6-3,10.8-7,10.8c-3.8,0-7-4.8-7-10.8c0-5.8,3.3-10.8,7-10.8C63,121.9,66,126.9,66,132.7z"/>
	<path fill="#BF263D" d="M66,132.7c0,5-2.5,9-5.8,9s-5.8-4-5.8-9c0-4.8,2.5-8.8,5.8-8.8S66,127.9,66,132.7z"/>
	<path fill="#211C1D" d="M64.3,132.7c0,3.5-1.8,6.3-4,6.3s-4-2.8-4-6.3c0-3.3,1.8-6,4-6S64.3,129.4,64.3,132.7z"/>
	<path fill="#FFFFFF" d="M63.8,129.4c0,1-0.5,1.8-1,1.8c-0.8,0-1.3-0.8-1.3-1.8s0.5-1.8,1.3-1.8C63.3,127.7,63.8,128.4,63.8,129.4z"
		/>
	<path fill="#6E4A2F" d="M64.5,108.4c0,0-0.3-0.3-0.5-0.3c0-0.3-0.3-0.3-0.5-0.5c-0.3,0-0.3,0-0.5-0.3c-0.3,0-0.5-0.3-0.8-0.3
		s-0.5-0.3-0.8-0.3s-0.5,0-0.5,0c-0.3-0.3-0.5-0.3-0.8-0.3c0.3,0,0,0,0.3,0c-0.3,0-0.3,0-0.3,0l0,0l0,0l0,0l0,0c-0.3,0-0.3,0-0.3,0
		c-0.3,0-0.3,0-0.3,0l0,0l0,0c0,0.3-0.3,0.3-0.3,0.3s0,0-0.3,0H59c-0.3,0-0.5,0.3-0.8,0.3s-0.5,0.3-0.8,0.3
		c-0.3,0.3-0.3,0.3-0.5,0.5c-0.3,0-0.5,0-0.5,0.3c-0.3,0-0.5,0.3-0.5,0.3s0-0.3,0-0.8c0,0,0-0.3,0-0.5c0.3-0.3,0.3-0.5,0.3-0.8
		c0.5-0.5,0.8-1.3,1.5-1.8c0.3,0,0.3-0.3,0.5-0.3c0.3-0.3,0.3-0.3,0.3-0.3c0.5,0,0.5,0,0.5,0c0.3-0.3,0.3-0.3,0.3-0.3
		c0.3,0,0.3,0,0.5,0s0.3,0,0.3,0l0,0l0,0l0,0c0.3,0,0.3,0,0.3,0c0.5,0,1,0,1.5,0.3c0,0,0.3,0.3,0.5,0.3s0.5,0.3,0.5,0.3
		c0.8,0.5,1.3,1.3,1.5,1.8c0,0.3,0,0.5,0.3,0.8c0,0.3,0,0.5,0,0.5C64.5,108.2,64.5,108.4,64.5,108.4z"/>
	<path fill="#FFFFFF" d="M134,132.7c0,6-3,10.8-7,10.8c-3.8,0-6.8-4.8-6.8-10.8c0-5.8,3-10.8,6.8-10.8
		C131,121.9,134,126.9,134,132.7z"/>
	<path fill="#BF263D" d="M131.5,132.7c0,5-2.5,9-5.5,9c-3.3,0-5.8-4-5.8-9c0-4.8,2.5-8.8,5.8-8.8C129,123.9,131.5,127.9,131.5,132.7
		z"/>
	<path fill="#211C1D" d="M129.8,132.7c0,3.5-1.8,6.3-3.8,6.3c-2.3,0-4-2.8-4-6.3c0-3.3,1.8-6,4-6C128,126.7,129.8,129.4,129.8,132.7
		z"/>
	<path fill="#FFFFFF" d="M129.5,129.4c0,1-0.5,1.8-1.3,1.8c-0.5,0-1-0.8-1-1.8s0.5-1.8,1-1.8C129,127.7,129.5,128.4,129.5,129.4z"/>
	<path fill="#6E4A2F" d="M130.3,108.4c0,0-0.3-0.3-0.5-0.3c-0.3-0.3-0.5-0.3-0.5-0.5c-0.3,0-0.5,0-0.8-0.3c-0.3,0-0.5-0.3-0.5-0.3
		c-0.3,0-0.5-0.3-0.8-0.3s-0.5,0-0.8,0c-0.3-0.3-0.5-0.3-0.5-0.3l0,0l0,0l0,0l0,0l0,0c-0.3,0-0.3,0-0.3,0l0,0c-0.3,0-0.3,0-0.3,0
		c-0.3,0-0.3,0-0.3,0l0,0c0,0.3,0,0.3,0,0.3c-0.3,0-0.3,0-0.3,0c-0.3,0-0.3,0-0.5,0s-0.5,0.3-0.5,0.3c-0.3,0-0.5,0.3-0.8,0.3
		c-0.3,0.3-0.5,0.3-0.8,0.5c0,0-0.3,0-0.5,0.3c-0.3,0-0.5,0.3-0.5,0.3s0-0.3,0-0.8c0,0,0.3-0.3,0.3-0.5s0-0.5,0.3-0.8
		c0.3-0.5,0.8-1.3,1.3-1.8c0.3,0,0.5-0.3,0.8-0.3c0.3-0.3,0.3-0.3,0.3-0.3c0.3,0,0.3,0,0.3,0c0.5-0.3,0.5-0.3,0.5-0.3h0.3
		c0.3,0,0.3,0,0.3,0c0.3,0,0.3,0,0.3,0l0,0l0,0c0.3,0,0.3,0,0.3,0c0.3,0,0.8,0,1.3,0.3c0.3,0,0.5,0.3,0.5,0.3c0.3,0,0.5,0.3,0.8,0.3
		c0.5,0.5,1,1.3,1.3,1.8c0.3,0.3,0.3,0.5,0.3,0.8c0.3,0.3,0.3,0.5,0.3,0.5C130.3,108.2,130.3,108.4,130.3,108.4z"/>
	<path fill="#721327" d="M102.5,153.2c0,4.3-2.8,15-9.5,15.5c-6.5-0.5-9.3-11.3-9.5-15.5c0-5,4.3-3.3,9.5-3
		C98.3,149.9,102.5,148.2,102.5,153.2z"/>
	<path fill="#FFFFFF" d="M102.5,151.9c-0.8-3.5-4.8-2-9.5-1.8c-4.8-0.3-8.8-1.8-9.3,1.8c2.5,1.3,5.8,2.5,9.3,2.5
		C96.8,154.4,100,153.2,102.5,151.9z"/>
	<path fill="#35231A" d="M17.3,106.4c-3,14,13,26.3,17-4.8c2,11.3,22.5-3.8,23.3-24.8c5.8,17,25.3,9,22.8-7.3
		c12.5,21.3,25.3,6.5,25.5-3c6.5,19.8,16.5,15.3,22,6c2,23.8,15.5,35,21.5,20.3c0,16,10.5,41.3,17,17.8c5,4.5,14.3-8.5,7-27.5
		c9.3,2,9-23.5-7.5-35.3c12.5-1.3-2.5-20.5-20-19.5c10.8-4.8-19.3-23.3-35.5-10c9-15.8-28.8-15.5-39,2.5c-0.8-17.8-20.8-7.3-26.5,9
		c-10.5-14.8-14.3-1.5-7.3,4.8c-16,0-15,8.3-5.3,8.8c-21,9.5-33.5,57.8-14.8,44.3C8.8,105.7,11.5,112.7,17.3,106.4z"/>
	<path fill="#5A371D" d="M48.3,62.2c0.5,1.3,0.5,1.3,0.5,1.3c0,0.3,0.3,0.5,0.5,1c0.3,0.8,0.8,1.3,1.3,1.8c0.3,0.3,0.5,0.8,1,1
		c0.3,0.3,0.5,0.5,0.8,0.5c0.8,0.5,1.3,1,2,1.3c0.5,0,0.8,0.3,1,0.3c0.5,0.3,0.8,0.3,1.3,0.3c0.8,0.3,1.5,0.3,2.3,0.3s1.3-0.3,2-0.3
		c0.5-0.3,0.8-0.3,1-0.5c0.5,0,0.8-0.3,1-0.3c0.3-0.3,0.8-0.5,1-0.8c0.3,0,0.5-0.3,0.8-0.5s0.5-0.5,0.8-0.8s0.5-0.5,0.5-1
		c0.5-0.5,0.8-1,1-1.8c0.3-0.3,0.3-0.5,0.5-1c0-0.3,0.3-0.8,0.3-1c0.3-0.8,0.3-1.5,0.3-2c0.3-0.8,0.3-1.5,0.3-2.3s0-1.5-0.3-2.3
		c0-0.8-0.3-1.5-0.3-2.3c-0.8-5-0.8-5-0.8-5c4,3.3,4,3.3,4,3.3c1,0.8,2,1.5,3,2.3c0.5,0.3,1,0.8,1.5,1s1,0.5,1.8,1c1,0.5,2,1,3,1.5
		c0.5,0,1,0.3,1.5,0.5c0.5,0,1.3,0.3,1.5,0.3s0.5,0,0.8,0s0.5,0,0.8,0c0.3-0.3,0.8-0.3,1-0.5c0.3,0,0.5-0.3,0.8-0.5s0.3-0.5,0.5-0.8
		c0-0.5,0.3-0.8,0.3-1.3s0-1,0-1.5s-0.3-1-0.3-1.5c-0.3-0.5-0.3-1-0.5-1.5c-2.8-7.8-2.8-7.8-2.8-7.8c7,4.5,7,4.5,7,4.5
		c2.3,1.8,4.8,3,7.3,4.3c0.5,0.3,1.3,0.5,1.8,0.8c0.8,0.3,1.3,0.5,2,0.8c1.3,0.3,2.5,0.5,3.5,0.5c0.8,0.3,1.3,0.3,1.8,0
		c0.3,0,0.8,0,0.8-0.3c0.3,0,0,0,0,0c0-0.3,0.3-0.5,0-0.8c0-0.3,0-0.5,0-0.8c-0.3-0.3-0.3-0.5-0.5-0.8c0-0.3-0.3-0.5-0.3-0.8
		c-0.5-0.8-0.5-0.8-0.5-0.8c-0.3-0.8-0.8-1.3-1-1.8c-0.5-0.5-1-1-1.3-1.5c-5.5-7.5-5.5-7.5-5.5-7.5c8.8,2.8,8.8,2.8,8.8,2.8
		c0.8,0.3,1.8,0.5,2.8,0.8c0.8,0.3,1.8,0.8,2.8,0.8c1.3,0.3,1.3,0.3,1.3,0.3c1.5,0.3,1.5,0.3,1.5,0.3c0.5,0,1,0,1.5,0
		c0.3,0,0.8,0,1.3,0s1,0,1.3,0c1.3-0.3,1.3-0.3,1.3-0.3c1.3-0.3,1.3-0.3,1.3-0.3c1.3-0.5,1.3-0.5,1.3-0.5c0.8-0.3,1.5-0.8,2-1.3
		c0.5-0.3,1-1,1.3-1.5s0.3-1.3,0.5-1.8c0-0.8-0.3-1.3-0.5-1.8c-0.3-0.8-0.8-1.3-1.3-1.8c-0.8-0.5-1.3-1-2.3-1.3
		c-0.3-0.3-0.8-0.5-1-0.5c-0.5-0.3-1-0.3-1.3-0.5c-1-0.3-1.8-0.3-2.8-0.3c-1.5,0-1.5,0-1.5,0c-0.5-0.3-1,0-1.3,0c-1,0-2,0.3-3,0.3
		c-11.3,1-11.3,1-11.3,1c10-4.8,10-4.8,10-4.8c1-0.5,1-0.5,1-0.5c0.3-0.3,0.5-0.3,0.8-0.5c0.5-0.3,0.8-0.8,0.8-0.5l0,0
		c0,0.3,0,0,0,0l0,0c-0.3-0.3-0.3-0.3-0.3-0.3c-0.5-0.3-1-0.5-1.8-0.8c-0.5-0.3-1.3-0.3-2-0.5c-0.8,0-1.5-0.3-2.3-0.3s-1.5,0-2.3,0
		c-0.8-0.3-1.5,0-2.3,0s-1.5,0-2.3,0c-0.8,0.3-1.5,0.3-2.3,0.5c-0.8,0-1.5,0.3-2.3,0.5c-0.8,0-1.5,0.3-2.3,0.5s-1.5,0.5-2,0.8
		c-0.8,0.5-1.5,0.8-2.3,1c-0.8,0.5-1.3,0.8-2,1.3c-0.8,0.3-1.3,0.8-2,1.3c0.5-0.5,1.3-1.3,1.8-1.8s1.3-0.8,2-1.3
		c0.5-0.5,1.3-1,2-1.3c0.8-0.5,1.3-0.8,2-1.3c3-1.3,6-2.3,9.3-2.8c0.8,0,1.8-0.3,2.5-0.3s1.5,0,2.5-0.3c0.8,0,1.5,0.3,2.3,0.3
		c1,0,1.8,0.3,2.8,0.3c0.8,0.3,1.8,0.5,2.5,1.3c0.3,0,0.5,0.3,0.8,0.3c0.3,0.3,0.5,0.5,0.8,0.8c0.3,0.5,0.5,0.8,0.5,1.3s0.3,1,0,1.3
		c0,0.3,0,0.5,0,0.8c-0.3,0-0.3,0.3-0.3,0.5c-0.3,0-0.3,0.3-0.3,0.3c-0.3,0.5-0.3,0.5-0.3,0.5c-0.5,0.5-0.8,0.8-1.3,1
		c-0.3,0.5-0.8,0.8-1,1c-1.3,0.5-1.3,0.5-1.3,0.5c-1.3-3.8-1.3-3.8-1.3-3.8c1-0.3,2-0.5,3.3-0.5c0.5,0,1-0.3,1.8-0.3
		c1.5,0,1.5,0,1.5,0c1.3,0,2.5,0,3.5,0.3c0.8,0,1.3,0.3,1.8,0.5c0.8,0,1.3,0.3,1.8,0.5c1.3,0.5,2.3,1,3.3,2c1,0.8,2,1.8,2.8,3
		c0.5,1.3,1,2.5,1,4s-0.3,3-0.8,4.3s-1.5,2.5-2.5,3.5c-1,0.8-2,1.5-3.3,2c-0.5,0.3-1,0.5-1.8,0.8c-1.8,0.5-1.8,0.5-1.8,0.5
		c-1.8,0.3-1.8,0.3-1.8,0.3c-0.5,0.3-1.3,0.3-1.8,0.3s-1.3,0-1.8,0s-1.3,0-1.8,0c-1.8-0.3-1.8-0.3-1.8-0.3c-1.5-0.3-1.5-0.3-1.5-0.3
		c-1.3-0.3-2.3-0.5-3.3-0.8c-1.3-0.3-2.3-0.8-3.3-1c3.3-4.5,3.3-4.5,3.3-4.5c0.5,0.5,1,1.3,1.5,1.8c0.5,0.8,0.8,1.3,1.3,2
		c0.8,1.3,0.8,1.3,0.8,1.3c0.3,0.3,0.3,0.8,0.5,1c0.3,0.5,0.3,1,0.5,1.5c0.3,0.3,0.3,0.8,0.5,1.3c0,1,0.3,2.3-0.3,3.8
		c-0.3,1.3-1.5,2.5-2.5,3.3c-1.3,0.8-2.3,1-3.3,1.3c-1,0-2,0-2.8,0c-2-0.3-3.5-0.5-5-1c-0.8-0.3-1.5-0.5-2.3-1
		c-0.8-0.3-1.5-0.5-2.3-0.8c-1.5-0.8-2.8-1.5-4-2.3c-1.5-0.8-2.8-1.8-4-2.5c4.3-3.3,4.3-3.3,4.3-3.3c0.3,0.8,0.5,1.5,0.5,2.3
		c0.3,0.8,0.3,1.5,0.3,2.3c0.3,0.8,0,1.5,0,2.5c-0.3,0.8-0.3,1.5-0.8,2.5c-0.3,0.8-0.8,1.5-1.5,2.3s-1.5,1.3-2.3,1.8
		c-1,0.5-2,0.5-2.8,0.8c-1,0-1.8,0-2.5-0.3c-0.8,0-1.5-0.3-2.3-0.5s-1.5-0.5-2-0.8c-1.3-0.5-2.5-1.3-3.8-2c-0.5-0.5-1-0.8-1.8-1.3
		c-0.5-0.3-1-0.8-1.5-1.3c-1-0.8-2-1.5-3-2.5c3.3-1.8,3.3-1.8,3.3-1.8c0,0.8,0.3,1.5,0.3,2.5c0,0.8,0,1.8,0,2.5
		c-0.3,1-0.3,1.8-0.5,2.8c0,0.8-0.3,1.5-0.5,2.5c-0.3,0.3-0.3,0.8-0.5,1.3c-0.3,0.3-0.5,0.8-0.5,1.3c-0.5,0.8-1,1.5-1.5,2.3
		c-0.5,0.3-0.8,0.5-1,1c-0.5,0.3-0.8,0.5-1,0.8c-0.5,0.3-0.8,0.5-1.3,0.8c-0.3,0.3-0.8,0.5-1.3,0.5c-0.3,0.3-0.8,0.5-1.3,0.5
		c-0.5,0.3-0.8,0.3-1.3,0.3c-1,0.3-1.8,0.3-2.8,0.3c-0.8-0.3-1.5-0.3-2.5-0.5c-0.3-0.3-0.8-0.5-1.3-0.5c-0.3-0.3-0.8-0.5-1-0.5
		c-0.8-0.5-1.5-1-2-1.5c-0.5-0.3-0.8-0.8-1-1s-0.5-0.8-0.8-1c-0.5-0.8-0.8-1.5-1.3-2.3c0-0.3-0.3-0.8-0.3-1
		C48.3,62.2,48.3,62.2,48.3,62.2z"/>
	<path fill="#5A371D" d="M121.3,61.4c1.3,1.3,2.8,2.5,4.3,3.5c0.8,0.5,1.5,1,2.3,1.3c0.8,0.5,1.5,0.8,2,0.8c0.3,0,0.5,0,0.5,0
		c0.3,0,0.5,0,0.5,0c0.3,0,0.5-0.3,0.8-0.3c0-0.3,0.3-0.5,0.5-0.8c0,0,0.3-0.3,0.3-0.8c0.3-0.3,0.5-0.5,0.5-1c0-0.3,0.3-0.8,0.3-1
		c0.3-1.3,0.3-1.3,0.3-1.3c0.3-1.3,0.3-1.3,0.3-1.3c0.8-5.8,0.8-5.8,0.8-5.8c3.8,5,3.8,5,3.8,5c0.3,0.5,0.5,1,0.8,1.3
		c0.5,0.5,0.8,0.8,1,1.3c0.5,0.3,0.8,0.8,1,1c0.5,0.3,0.8,0.5,1,0.8c0.5,0.3,0.8,0.5,1.3,0.8c0.3,0.3,0.8,0.5,1,0.5s0.8,0.3,1,0.3
		s0.5,0,0.8,0c0.3-0.3,0.3-0.3,0.5-0.3c0-0.3,0.3-0.3,0.3-0.5c0.3-0.3,0.3-0.5,0.5-0.8c0-0.3,0-0.5,0-1c0-0.3,0-0.8,0-1
		c0-0.5,0-1-0.3-1.5c0-0.3-0.3-0.8-0.3-1.3c-0.3-0.5-0.5-1-0.5-1.3c-2.5-6.8-2.5-6.8-2.5-6.8c6.3,3,6.3,3,6.3,3c0.5,0,1,0.3,1.5,0.5
		c0.3,0.3,0.8,0.3,1.3,0.3s0.8,0,1.3,0c0.3,0,0.5,0,0.8,0c0,0,0.3-0.3,0.5-0.3c0.3-0.3,0.8-0.3,1-0.5c0.5-0.3,0.8-0.8,1-1
		s0.5-0.8,0.8-1.3c0.3-0.3,0.3-0.8,0.5-1.3c0-0.3,0-0.5,0-0.8s0-0.5,0-0.8c0-0.5-0.3-1-0.3-1.5c-0.3-0.3-0.3-0.5-0.5-0.8
		c0-0.3-0.3-0.5-0.3-0.8c-0.3-0.5-0.8-1-1-1.3c-0.5-0.5-1-1-1.5-1.3c-0.5-0.5-1-1-1.5-1.3s-1-0.5-1.5-1c-0.8-0.3-1.3-0.5-2-0.8
		c0.8,0,1.5,0,2,0.3c0.8,0,1.5,0.3,2,0.3c0.8,0.3,1.5,0.5,2,0.8c0.8,0.3,1.3,0.8,2,1c0.5,0.5,1.3,1,1.8,1.5c0.3,0.3,0.5,0.5,0.8,0.8
		s0.5,0.8,0.5,1c0.5,0.8,0.8,1.5,1,2.3c0.3,0.3,0.3,0.8,0.3,1.3c0,0.3,0.3,0.8,0.3,1.3c0,0.8-0.3,1.5-0.3,2.5
		c-0.3,0.8-0.8,1.5-1,2.3c-0.5,0.8-1,1.5-1.8,2c-0.5,0.8-1.3,1.3-2,1.5c-0.5,0.3-0.8,0.5-1.3,0.8c-0.5,0-0.8,0.3-1.3,0.3
		c-1,0.3-1.8,0.3-2.8,0.3c-0.8,0-1.8-0.3-2.5-0.5c-0.8,0-1.5-0.5-2.3-0.8c4-3.8,4-3.8,4-3.8c0.3,0.5,0.5,1.3,0.8,1.8
		c0.3,0.8,0.3,1.3,0.5,2c0.3,0.5,0.3,1.3,0.5,2c0,0.8,0,1.5,0,2.3s-0.3,1.5-0.3,2.3c-0.3,0.8-0.8,1.5-1.3,2.3s-1.3,1.5-2,2
		s-1.8,1-2.5,1.3c-1,0-1.8,0-2.8,0c-0.8,0-1.5-0.3-2.3-0.5s-1.3-0.8-2-1c-0.5-0.5-1-1-1.8-1.3c-0.5-0.5-1-1-1.3-1.5
		c-0.5-0.5-1-1-1.3-1.5c-0.5-0.5-0.8-1-1-1.5c-0.5-0.8-0.8-1.3-1-1.8c4.5-0.8,4.5-0.8,4.5-0.8c-0.5,1.5-0.5,1.5-0.5,1.5
		c0,0.5-0.3,1-0.3,1.5c-0.3,0.3-0.5,0.8-0.8,1.3s-0.5,1-1,1.5c0,0.3-0.3,0.5-0.5,0.8s-0.3,0.5-0.5,0.8c-0.5,0.3-1.3,0.8-1.8,1
		c-0.8,0.3-1.5,0.3-2,0.3s-0.8,0-1,0s-0.5-0.3-1-0.3c-1-0.5-1.8-1-2.8-1.8c-0.8-0.5-1.3-1.3-2-2C123,64.7,122,63.2,121.3,61.4z"/>
	<path fill="#5A371D" d="M21.3,73.2c-0.8,1.5-1.5,3-1.8,4.5c-0.3,0.5-0.3,0.8-0.3,1c0,0.5,0,0.8,0,1.3c0,0.3,0,0.5,0,0.8
		c0.3,0.3,0.3,0.5,0.5,0.5c0,0,0,0,0.3,0s0.3,0,0.5,0c0.5,0,1.3-0.3,1.8-0.5c1.3-0.5,2.5-1.5,3.5-2.5c3.8-2.8,3.8-2.8,3.8-2.8
		c0,5,0,5,0,5c0,0.5,0,1,0,1.5c0.3,0.5,0.3,1,0.3,1.5s0,1,0,1.5c0.3,0.5,0.3,1,0.5,1.3c0,0.5,0,1,0.3,1.3c0.3,0.5,0.3,0.8,0.5,1
		c0.3,0.5,0.3,0.8,0.5,0.8c0.3,0.3,0.3,0.3,0.3,0.3c0.3,0,0.3,0,0.3,0c0.3,0,0.3-0.3,0.5-0.3s0.5-0.3,0.8-0.5s0.5-0.5,0.8-1
		c0-0.3,0.3-0.5,0.5-1c0.3-0.3,0.3-0.8,0.5-1.3c0.3-0.3,0.3-0.8,0.5-1.3c0-0.5,0-1,0.3-1.3C39,67.7,39,67.7,39,67.7
		c2.3,15,2.3,15,2.3,15c0.3,0.5,0.3,1,0.3,1.5c0.3,0.3,0.3,0.5,0.3,0.8s0.3,0.5,0.3,0.5c0.3,0.5,0.3,1,0.5,1.3
		c0.3,0.5,0.5,0.8,0.8,1s0.5,0.5,0.8,0.5c0,0.3,0.3,0.3,0.5,0.3c0,0,0.3,0,0.5,0s0.3-0.5,0.5-0.8s0.5-0.8,0.8-1c0-0.5,0.3-1,0.3-1.5
		s0-1,0-1.8c0-0.5,0.3-1,0-1.5c0-0.8,0-1.3,0-1.8s-0.3-1.3-0.3-1.8C46,76.7,46,76.7,46,76.7c-0.3-0.5-0.3-1.3-0.5-1.8
		c0.8,1,1.5,2,2,3c0.3,0.5,0.5,1.3,0.8,1.8s0.5,1,0.8,1.8c0.3,0.5,0.3,1.3,0.5,1.8c0,0.8,0.3,1.3,0.3,2c0,0.3,0,0.8,0,1
		c0,0.5,0,0.8,0,1c0,0.8-0.3,1.5-0.5,2.3c-0.5,0.8-0.8,1.5-1.5,2.3S46,92.9,45,92.9c-1,0.3-2,0-3-0.3c-0.8-0.3-1.5-0.8-2.3-1.3
		c-0.5-0.5-1.3-1.3-1.5-1.8c-0.5-0.8-1-1.3-1.3-2c-0.3-0.3-0.3-0.8-0.5-1c0-0.3-0.3-0.8-0.3-1c-0.3-0.8-0.3-1.3-0.5-2
		c5.5,0,5.5,0,5.5,0c0,1.3-0.3,2.5-0.8,3.8c-0.3,0.8-0.3,0.8-0.3,0.8c-0.5,1-0.5,1-0.5,1c-0.3,0.8-0.5,1.3-1,1.8
		c-0.3,0.8-0.8,1.3-1.3,1.8c-0.5,0.8-1.3,1.3-2,1.5c-0.8,0.5-1.5,1-2.5,1c-1,0.3-2.3,0-3.3-0.3c-0.8-0.5-1.8-1-2.3-1.5
		c-0.8-0.8-1-1.5-1.5-2c-0.3-0.5-0.3-0.8-0.5-1c0-0.5-0.3-0.8-0.3-1.3c-0.3-0.5-0.5-1.3-0.5-1.8c0-0.8-0.3-1.3-0.3-2
		c0-0.5,0-1.3,0-1.8c0-1.3,0.3-2.5,0.3-3.8c3.8,2.3,3.8,2.3,3.8,2.3c-1.5,1-3,1.8-5,2.3c-0.8,0.3-1.8,0.5-3,0.3
		c-0.5,0-1.3,0-1.8-0.5c-0.8-0.3-1.3-0.8-1.5-1.3c-0.5-0.5-0.5-1.3-0.5-1.8c-0.3-0.8,0-1.3,0-1.8c0.3-0.8,0.8-1.8,1-2.5
		C18.8,75.4,20,74.2,21.3,73.2z"/>
	<path fill="#F46C98" d="M93,158.4c-3,0-5.8,0.8-7.8,2c1.3,4,4,8,7.8,8.3c4-0.3,6.5-4.3,8-8.3C98.8,159.2,96,158.4,93,158.4z"/>
	<path fill="none" stroke="#F69D91" stroke-width="0.5" stroke-miterlimit="10" d="M102.5,153.2c0,4.3-2.8,15-9.5,15.5
		c-6.5-0.5-9.3-11.3-9.5-15.5c0-5,4.3-3.3,9.5-3C98.3,149.9,102.5,148.2,102.5,153.2L102.5,153.2z"/>
</g>
</svg>
