<?xml version="1.0" encoding="utf-8"?>
<!-- Generator: Adobe Illustrator 16.0.0, SVG Export Plug-In . SVG Version: 6.00 Build 0)  -->
<!DOCTYPE svg PUBLIC "-//W3C//DTD SVG 1.1//EN" "http://www.w3.org/Graphics/SVG/1.1/DTD/svg11.dtd">
<svg version="1.1" id="Layer_1" xmlns="http://www.w3.org/2000/svg" xmlns:xlink="http://www.w3.org/1999/xlink" x="0px" y="0px"
	 width="190px" height="310px" viewBox="0 0 190 310" enable-background="new 0 0 190 310" xml:space="preserve">
<g>
	<polygon fill="#DF9F8D" points="85,293.8 71.5,293.8 71.5,234 85,234 85,293.8 	"/>
	<path fill="#5A371D" d="M85,290.8c-1.8,0.8-4,1-6.5,1c-2.8,0-5.3-0.5-7-1.3c-9,1-12.8,10-11,12C63,305,72.3,306,79,303
		c2.5-1.3,7-0.3,7-3c0-7.8,0-7.8,0-7.8C86,291.5,85.5,291,85,290.8z"/>
	<path fill="#E9EAE8" d="M64.8,293.3c1.8,0.8,3,1.8,4,3c0.8-0.8,1.3-1.3,2-1.8c-1.5-1-3-1.8-4.8-2C65.5,292.8,65,293,64.8,293.3z"/>
	<path fill="#FFFFFF" d="M66,292.5c1.8,0.3,3.3,1,4.8,2c0.8-0.5,1.3-1,2-1.3c-1.5-1-2.8-1.8-4.3-2C67.5,291.5,66.8,292,66,292.5z"/>
	<path fill="#BCBCBC" d="M60.3,300c-0.3,1,0,2,0.3,2.5C63,305,72.3,306,79,303c2.5-1.3,7-0.3,7-3c0-1.5,0-1.5,0-1.5
		c-2,0.3-5.5,0.8-9.8,2.5C71.3,303.3,65.3,302,60.3,300z"/>
	<path fill="#D4D4D3" d="M60.3,300c3,1.3,6.3,2.3,9.5,2.3c-0.8-3.8-3.3-6.8-6.5-7.5C61.5,296.5,60.5,298.5,60.3,300z"/>
	<path fill="#FFFFFF" d="M67.5,297.5c0.5-0.5,1-1,1.3-1.3c-1-1.3-2.3-2.3-4-3c-0.5,0.5-1,1-1.5,1.5C65,295,66.5,296,67.5,297.5z"/>
	<path fill="#FFFFFF" d="M83,295.3c0,1-0.8,2-2,2c-1,0-1.8-1-1.8-2s0.8-2,1.8-2C82.3,293.3,83,294.3,83,295.3z"/>
	<path fill="#FFFFFF" d="M60.3,300c0-0.3,0-0.3,0-0.5C60.3,299.8,60.3,299.8,60.3,300z"/>
	<path fill="#E9EAE8" d="M71.5,290.5c-1,0.3-2,0.5-3,0.8c1.5,0.3,2.8,1,4.3,2c0.8-0.8,1.8-1.3,2.5-1.8
		C73.8,291.5,72.5,291,71.5,290.5z"/>
	<path fill="#3AAB9D" d="M77.5,292.5c-4.3,0-10,0-10-2.5c2.3-59.3,2.3-59.3,2.3-59.3c0-2.5,3.5-4.5,7.8-4.5l0,0c4.3,0,7.8,2,7.8,4.5
		c2.3,59.3,2.3,59.3,2.3,59.3C87.5,292.5,81.8,292.5,77.5,292.5z"/>
	<polygon fill="#379D92" points="68.3,272.8 86.8,272.8 86.3,256.3 68.8,256.3 68.3,272.8 	"/>
	<polygon fill="#DF9F8D" points="114.5,293.8 101,293.8 101,234 114.5,234 114.5,293.8 	"/>
	<path fill="#5A371D" d="M101.3,290.8c1.8,0.8,4,1,6.5,1c2.8,0,5-0.5,7-1.3c9,1,12.5,10,10.8,12c-2.5,2.5-11.8,3.5-18.3,0.5
		c-2.5-1.3-7-0.3-7-3c0-7.8,0-7.8,0-7.8C100.3,291.5,100.5,291,101.3,290.8z"/>
	<path fill="#E9EAE8" d="M121.5,293.3c-1.8,0.8-3,1.8-4.3,3c-0.5-0.8-1.3-1.3-2-1.8c1.5-1,3.3-1.8,4.8-2
		C120.5,292.8,121,293,121.5,293.3z"/>
	<path fill="#FFFFFF" d="M120,292.5c-1.5,0.3-3.3,1-4.8,2c-0.5-0.5-1.3-1-1.8-1.3c1.3-1,2.5-1.8,4-2
		C118.5,291.5,119.3,292,120,292.5z"/>
	<path fill="#BCBCBC" d="M125.8,300c0.3,1,0.3,2-0.3,2.5c-2.5,2.5-11.8,3.5-18.3,0.5c-2.5-1.3-7-0.3-7-3c0-1.5,0-1.5,0-1.5
		c2,0.3,5.5,0.8,9.5,2.5C114.8,303.3,121,302,125.8,300z"/>
	<path fill="#D4D4D3" d="M125.8,300c-2.8,1.3-6,2.3-9.3,2.3c0.8-3.8,3.3-6.8,6.5-7.5C124.5,296.5,125.5,298.5,125.8,300z"/>
	<path fill="#FFFFFF" d="M118.5,297.5c-0.3-0.5-0.8-1-1.3-1.3c1.3-1.3,2.5-2.3,4.3-3c0.5,0.5,1,1,1.5,1.5
		C121.3,295,119.8,296,118.5,297.5z"/>
	<path fill="#FFFFFF" d="M103,295.3c0,1,1,2,2,2s2-1,2-2s-1-2-2-2S103,294.3,103,295.3z"/>
	<path fill="#FFFFFF" d="M125.8,300c0-0.3,0-0.3,0-0.5C125.8,299.8,125.8,299.8,125.8,300z"/>
	<path fill="#E9EAE8" d="M114.8,290.5c1,0.3,2,0.5,2.8,0.8c-1.5,0.3-2.8,1-4,2c-1-0.8-1.8-1.3-2.8-1.8
		C112.3,291.5,113.5,291,114.8,290.5z"/>
	<path fill="#3AAB9D" d="M108.5,292.5c4.3,0,10,0,10-2.5c-2.3-59.3-2.3-59.3-2.3-59.3c0-2.5-3.5-4.5-7.8-4.5l0,0
		c-4.3,0-7.5,2-7.5,4.5C98.5,290,98.5,290,98.5,290C98.5,292.5,104.3,292.5,108.5,292.5z"/>
	<polygon fill="#379D92" points="99.3,272.8 118,272.8 117.3,256.3 100,256.3 99.3,272.8 	"/>
	<path fill="#DF9F8D" d="M40.3,239c0,0,0,0-0.3,0c-3,0-5.5-2.8-5.5-5.8c0.8-24,11.8-38.8,21-46.5c10-8.8,19.8-11.8,20.3-11.8
		c3-0.8,6,0.8,7,4c0.8,3-1,6-4,7c-1.3,0.3-31.8,9.8-32.8,47.5C46,236.8,43.3,239,40.3,239z"/>
	<path fill="#DF9F8D" d="M47.5,241c-1.8,4.3-3,4-7,4s-7.3,0-7.3-4s3.3-9,7.3-9S47.5,237,47.5,241z"/>
	<path fill="#DF9F8D" d="M35.8,249.5c0,0.5-0.5,1-1,1l0,0c-0.8,0-1-0.5-1-1c0-8.5,0-8.5,0-8.5c0-0.8,0.3-1.3,1-1.3l0,0
		c0.5,0,1,0.5,1,1.3C35.8,249.5,35.8,249.5,35.8,249.5z"/>
	<path fill="#DF9F8D" d="M39.3,252.5c0,0.5-0.5,1-1,1l0,0c-0.8,0-1.3-0.5-1.3-1c0-8.5,0-8.5,0-8.5c0-0.8,0.5-1.3,1.3-1.3l0,0
		c0.5,0,1,0.5,1,1.3C39.3,252.5,39.3,252.5,39.3,252.5z"/>
	<path fill="#DF9F8D" d="M42.8,253.5c0,0.5-0.5,1-1.3,1l0,0c-0.5,0-1-0.5-1-1c0-8.5,0-8.5,0-8.5c0-0.8,0.5-1.3,1-1.3l0,0
		c0.8,0,1.3,0.5,1.3,1.3C42.8,253.5,42.8,253.5,42.8,253.5z"/>
	<path fill="#DF9F8D" d="M46,251.8c0,0.5-0.5,1-1,1l0,0c-0.5,0-1-0.5-1-1c0-8.5,0-8.5,0-8.5c0-0.8,0.5-1.3,1-1.3l0,0
		c0.5,0,1,0.5,1,1.3C46,251.8,46,251.8,46,251.8z"/>
	<path fill="#DF9F8D" d="M51.3,241.3c0.3,0,0.3,0.8,0,1.5l0,0c-0.3,0.5-0.8,1-1.3,0.8c-5.5-2.3-5.5-2.3-5.5-2.3
		c-0.3-0.3-0.3-1,0-1.8l0,0c0.3-0.5,0.8-1,1.3-0.8C51.3,241.3,51.3,241.3,51.3,241.3z"/>
	<path fill="#3C3A3D" d="M48,233.5C33.5,233,33.5,233,33.5,233c0.8-24.8,12-39.8,21.3-47.8c10-8.8,23-13,23.5-13
		c0.8,15.3,0.8,15.3,0.8,15.3c-1.8-7-1.8-7-1.8-7c2,7,2,7,2,7C78,187.8,49.3,196.5,48,233.5z"/>
	<path fill="#DF9F8D" d="M171.3,162.8c-2.3-2.3-5.8-2.3-8,0c-27.5,25.8-55.8,11-57,10.3c-2.8-1.5-6.3-0.5-7.8,2.3s-0.5,6.3,2.3,7.8
		c0.5,0.3,9.5,5.3,22.5,6c12.3,1,30.3-1.5,47.8-18C173.3,168.8,173.5,165.3,171.3,162.8L171.3,162.8z"/>
	<path fill="#DF9F8D" d="M167.3,156.3c4.3-1.8,5-0.5,8,2.3c2.8,2.8,5,5,2.3,8c-2.8,2.8-8.8,4-11.5,1.3
		C163.3,164.8,164.5,159,167.3,156.3z"/>
	<path fill="#DF9F8D" d="M181.5,158.5c0.5-0.3,1.3-0.3,1.5,0l0,0c0.5,0.5,0.5,1.3,0,1.8c-5.8,6-5.8,6-5.8,6c-0.5,0.3-1.3,0.3-1.8,0
		l0,0c-0.3-0.5-0.3-1.3,0-1.8C181.5,158.5,181.5,158.5,181.5,158.5z"/>
	<path fill="#DF9F8D" d="M181.3,154c0.5-0.3,1.3-0.3,1.5,0l0,0c0.5,0.5,0.5,1.3,0,1.8c-6,5.8-6,5.8-6,5.8c-0.3,0.5-1,0.5-1.5,0l0,0
		c-0.3-0.3-0.3-1,0-1.5C181.3,154,181.3,154,181.3,154z"/>
	<path fill="#DF9F8D" d="M179.5,151c0.5-0.5,1.3-0.5,1.5,0l0,0c0.5,0.5,0.5,1,0,1.5c-5.8,6-5.8,6-5.8,6c-0.5,0.5-1.3,0.5-1.8,0l0,0
		c-0.3-0.5-0.3-1.3,0-1.5C179.5,151,179.5,151,179.5,151z"/>
	<path fill="#DF9F8D" d="M176,149.8c0.3-0.5,1-0.5,1.5,0l0,0c0.5,0.5,0.5,1.3,0,1.5c-6,6-6,6-6,6c-0.5,0.5-1,0.5-1.5,0l0,0
		c-0.5-0.5-0.5-1,0-1.5C176,149.8,176,149.8,176,149.8z"/>
	<path fill="#DF9F8D" d="M165,153.5c-0.3-0.3,0.3-0.8,1-1l0,0c0.5-0.3,1.3-0.3,1.5,0.3c2,5.5,2,5.5,2,5.5c0.3,0.3-0.3,1-1,1.3l0,0
		c-0.8,0.3-1.3,0-1.5-0.3C165,153.5,165,153.5,165,153.5z"/>
	<path fill="#3C3A3D" d="M161.8,161.3c10,10.5,10,10.5,10,10.5c-18.3,17.3-36.8,19.8-49,18.8c-13.3-0.8-25.3-7-25.8-7.3
		c10.3-11.5,10.3-11.5,10.3-11.5c-3.8,6.3-3.8,6.3-3.8,6.3c3.8-6.3,3.8-6.3,3.8-6.3C108.3,172.3,134.8,186.5,161.8,161.3z"/>
	<path fill="#F4F4F5" d="M118.3,209.5c-0.5-9.5-2-24-4.3-29.8c-4.5-11.3-12-9-21-9s-16.3-2.3-20.8,9c-2.3,5.8-3.8,20.3-4.5,29.8
		c-2.3,33,7.8,31,25.3,31S120.5,242.5,118.3,209.5z"/>
	<path fill="#67696E" d="M83.3,199c0,1.5-1.3,2.5-2.8,2.5s-2.5-1-2.5-2.5s1-2.8,2.5-2.8S83.3,197.5,83.3,199z"/>
	<path fill="#67696E" d="M108.3,199c0,1.5-1.3,2.5-2.8,2.5s-2.5-1-2.5-2.5s1-2.8,2.5-2.8S108.3,197.5,108.3,199z"/>
	<path fill="#5F6062" d="M80.5,192.3c0,14.3,0,14.3,0,14.3c0,0.8,0.5,1,1,1c23,0,23,0,23,0c0.8,0,1-0.3,1-1c0-14.3,0-14.3,0-14.3
		C80.5,192.3,80.5,192.3,80.5,192.3z"/>
	<polygon fill="#8F9294" points="99,197 105.5,197 105.5,192.3 99,192.3 99,197 	"/>
	<path fill="#8F9294" d="M87.8,202.5c-7.3,0-7.3,0-7.3,0c0,4,0,4,0,4c0,0.8,0.5,1,1,1c6.3,0,6.3,0,6.3,0
		C87.8,202.5,87.8,202.5,87.8,202.5z"/>
	<path fill="#3C3A3D" d="M104.5,173.5c0-1-0.3-1.8-0.5-2.8c-3.3-0.5-7,0-11,0s-7.5-0.5-10.8,0c-0.5,1-0.8,1.8-0.8,2.8
		c0,4.5,5.3,8.3,11.5,8.3C99.5,181.8,104.5,178,104.5,173.5z"/>
	<path fill="#3C3A3D" d="M93,175.8c7.5,0,14-1,19.5,1c-4.8-8-11.5-6-19.5-6s-14.8-2-19.3,6C79,174.8,85.8,175.8,93,175.8z"/>
	<path fill="#3C3A3D" d="M94.8,240.5c1.8,0,3.3,0,4.8,0C98,240.5,96.3,240.5,94.8,240.5z"/>
	<path fill="#3C3A3D" d="M86.8,240.5c1.5,0,3,0,4.5,0C89.8,240.5,88.3,240.5,86.8,240.5z"/>
	<path fill="#DF9F8D" d="M101.3,172.5c0,3.3-3.8,6-8.3,6l0,0c-4.5,0-8.3-2.8-8.3-6c0-8.8,0-8.8,0-8.8c0-3.3,3.8-6,8.3-6l0,0
		c4.5,0,8.3,2.8,8.3,6C101.3,172.5,101.3,172.5,101.3,172.5z"/>
	<path fill="#D2867B" d="M101.3,163.8c0-3.3-3.8-6-8.3-6s-8.3,2.8-8.3,6c0,4.8,0,4.8,0,4.8c5.5,0,11-0.3,16.5-0.3
		C101.3,163.8,101.3,163.8,101.3,163.8z"/>
	<path fill="#DF9F8D" d="M84.8,168.5c0,4,0,4,0,4c0,3.3,3.8,6,8.3,6s8.3-2.8,8.3-6c0-4.3,0-4.3,0-4.3
		C95.8,168.3,90.3,168.5,84.8,168.5z"/>
	<path fill="#3AAB9D" d="M91.3,222.5c-8.5,0-16.8-1.3-23.8-3.3c0.5,23,10,21.3,25.5,21.3c16,0,25.5,1.8,25.5-22.3
		C110.8,221,101.3,222.5,91.3,222.5z"/>
	<path fill="#379D92" d="M115.8,231.3c0.3,0,0.8,0,1.3,0c1-3.3,1.5-7.5,1.5-13c-4,1.5-8.5,2.5-13.5,3.3
		C105.5,227,110,231.3,115.8,231.3z"/>
	<path fill="#379D92" d="M81,222c-4.8-0.5-9.3-1.5-13.5-2.8c0,5,0.5,9,1.5,12c0.5,0,1,0,1.5,0C75.8,231.3,80.3,227.3,81,222z"/>
	<path fill="#35978E" d="M91.3,225.3c10,0,19.3-1.3,27.3-3.8c0-1,0-2,0-3.3c-7.8,2.8-17.3,4.3-27.3,4.3c-8.5,0-16.8-1.3-23.8-3.3
		c0,1.3,0,2.3,0,3.3C74.8,224.3,82.8,225.3,91.3,225.3z"/>
	<path fill="#E9EAE8" d="M67.5,216.8c0,1.3,0,2.3,0,3.5c7.3,1.5,15.3,2.5,23.5,2.5c10,0,19.3-1.3,27.5-3.5c0.3-1.3,0-2.3,0-3.5
		c-8,2.5-17.5,3.8-27.5,3.8C82.8,219.5,74.8,218.5,67.5,216.8z"/>
	<path fill="#E9EAE8" d="M101,203.8c0,0-0.3,0-0.5,0c-14.8,0-14.8,0-14.8,0c-0.5,0-0.8,0-0.8,0c0-2,0-2,0-2s0.3-0.3,0.8-0.3
		c14.8,0,14.8,0,14.8,0c0.3,0,0.5,0.3,0.5,0.3C101,203.8,101,203.8,101,203.8z"/>
	<polygon fill="#D4D4D3" points="88.5,199.3 83.5,199.3 83.5,194.3 88.5,194.3 88.5,199.3 	"/>
	<polygon fill="#D4D4D3" points="102.5,199.3 97.5,199.3 97.5,194.3 102.5,194.3 102.5,199.3 	"/>
	<polygon fill="#F2EF1B" points="87.3,198.3 84.8,198.3 84.8,195.5 87.3,195.5 87.3,198.3 	"/>
	<polygon fill="#F2EF1B" points="101.5,198.3 98.8,198.3 98.8,195.5 101.5,195.5 101.5,198.3 	"/>
	<path fill="#67696E" d="M105.5,190.5c0-0.5-0.3-1-1-1c-23,0-23,0-23,0c-0.5,0-1,0.5-1,1c0,1.8,0,1.8,0,1.8c25,0,25,0,25,0
		C105.5,190.5,105.5,190.5,105.5,190.5z"/>
	<path fill="#E0968B" d="M27.5,110.5c0,5.3-4.3,9.8-9.8,9.8l0,0c-5.5,0-9.8-4.5-9.8-9.8c0-12,0-12,0-12c0-5.5,4.3-9.8,9.8-9.8l0,0
		c5.5,0,9.8,4.3,9.8,9.8C27.5,110.5,27.5,110.5,27.5,110.5z"/>
	<path fill="#E0968B" d="M178,110.5c0,5.3-4.3,9.8-9.8,9.8l0,0c-5.3,0-9.8-4.5-9.8-9.8c0-12,0-12,0-12c0-5.5,4.5-9.8,9.8-9.8l0,0
		c5.5,0,9.8,4.3,9.8,9.8C178,110.5,178,110.5,178,110.5z"/>
	<path fill="#DF9F8D" d="M11.8,114.5c0-12,0-12,0-12c0-5.5,4-9.8,9.3-9.8c2.3,0,4.3,0.8,5.8,2c-1.5-3.5-5-6-9-6
		C12.3,88.8,8,93,8,98.5c0,12,0,12,0,12c0,3.5,1.8,6.5,4.8,8.3C12,117.5,11.8,116,11.8,114.5z"/>
	<path fill="#DF9F8D" d="M168.3,88.8c-4,0-7.5,2.5-9,6c1.5-1.3,3.5-2,5.8-2c5.3,0,9.5,4.3,9.5,9.8c0,12,0,12,0,12c0,1.5-0.5,3-1,4.3
		c2.8-1.8,4.5-4.8,4.5-8.3c0-12,0-12,0-12C178,93,173.8,88.8,168.3,88.8z"/>
	<path fill="#DF9F8D" d="M161.5,105.8c0,31.8-25.8,57.5-57.5,57.5c-22,0-22,0-22,0c-31.8,0-57.5-25.8-57.5-57.5
		c0-43.3,0-43.3,0-43.3C24.5,30.8,50.3,5,82,5c22,0,22,0,22,0c31.8,0,57.5,25.8,57.5,57.5C161.5,105.8,161.5,105.8,161.5,105.8z"/>
	<path fill="#B07F74" d="M54.8,135.8c0,0.5-0.5,1.3-1.3,1.3s-1.3-0.8-1.3-1.3c0-0.8,0.5-1.5,1.3-1.5S54.8,135,54.8,135.8z"/>
	<path fill="#B07F74" d="M59.5,130.8c0,0.8-0.8,1.3-1.3,1.3c-0.8,0-1.5-0.5-1.5-1.3s0.8-1.3,1.5-1.3C58.8,129.5,59.5,130,59.5,130.8
		z"/>
	<path fill="#B07F74" d="M63.3,135.5c0,0.8-0.5,1.3-1.3,1.3s-1.3-0.5-1.3-1.3s0.5-1.3,1.3-1.3S63.3,134.8,63.3,135.5z"/>
	<path fill="#B07F74" d="M131.3,135.8c0,0.5,0.5,1.3,1.3,1.3s1.3-0.8,1.3-1.3c0-0.8-0.5-1.5-1.3-1.5S131.3,135,131.3,135.8z"/>
	<path fill="#B07F74" d="M126.8,130.8c0,0.8,0.5,1.3,1.3,1.3s1.3-0.5,1.3-1.3s-0.5-1.3-1.3-1.3S126.8,130,126.8,130.8z"/>
	<path fill="#B07F74" d="M122.8,135.5c0,0.8,0.5,1.3,1.3,1.3s1.3-0.5,1.3-1.3s-0.5-1.3-1.3-1.3S122.8,134.8,122.8,135.5z"/>
	<path fill="#FFFFFF" d="M66,112.5c0,6-3.3,10.8-7,10.8s-7-4.8-7-10.8s3.3-10.8,7-10.8S66,106.5,66,112.5z"/>
	<path fill="#21673C" d="M66,112.5c0,5-2.5,9-5.8,9s-5.8-4-5.8-9c0-4.8,2.5-8.8,5.8-8.8S66,107.8,66,112.5z"/>
	<path fill="#211C1D" d="M64.3,112.5c0,3.5-1.8,6.3-4,6.3s-4-2.8-4-6.3c0-3.3,1.8-6,4-6S64.3,109.3,64.3,112.5z"/>
	<path fill="#FFFFFF" d="M63.8,109.3c0,1-0.5,1.8-1,1.8c-0.8,0-1.3-0.8-1.3-1.8s0.5-1.8,1.3-1.8C63.3,107.5,63.8,108.3,63.8,109.3z"
		/>
	<path fill="#BF8875" d="M64.5,88c0,0-0.3,0-0.5-0.3c0,0-0.3,0-0.5-0.3c-0.3,0-0.3,0-0.5-0.3c-0.3,0-0.5-0.3-0.8-0.3
		c-0.3-0.3-0.5-0.3-0.8-0.3S61,86.5,61,86.5c-0.3,0-0.5,0-0.8,0c0.3,0,0,0,0,0l0,0l0,0l0,0l0,0l0,0c-0.3,0-0.3,0-0.3,0
		c-0.3,0-0.3,0-0.3,0l0,0l0,0h-0.3c0,0,0,0-0.3,0.3H59c-0.3,0-0.5,0-0.8,0.3c-0.3,0-0.5,0.3-0.8,0.3c-0.3,0.3-0.3,0.3-0.5,0.3
		c-0.3,0.3-0.5,0.3-0.5,0.3C56.3,88,56,88,56,88s0,0,0-0.5c0,0,0-0.3,0-0.5c0.3-0.3,0.3-0.5,0.3-0.8c0.3-0.5,0.8-1.3,1.5-1.8
		c0,0,0.3-0.3,0.5-0.3c0.3-0.3,0.3-0.3,0.3-0.3c0.5,0,0.5,0,0.5,0c0.3-0.3,0.3-0.3,0.3-0.3c0.3,0,0.3,0,0.3,0c0.3,0,0.3,0,0.3,0
		c0.3,0,0.3,0,0.3,0l0,0l0,0c0.3,0,0.3,0,0.3,0c0.5,0,1,0,1.3,0.3c0.3,0,0.5,0,0.8,0.3c0.3,0,0.3,0.3,0.5,0.3c0.8,0.5,1,1.3,1.3,1.8
		c0.3,0.3,0.3,0.5,0.5,0.8c0,0.3,0,0.5,0,0.5C64.5,88,64.5,88,64.5,88z"/>
	<path fill="#E0968B" d="M104,153.8c-22,0-22,0-22,0c-31.8,0-57.5-25.8-57.5-57.5c0,9.5,0,9.5,0,9.5c0,31.8,25.8,57.5,57.5,57.5
		c22,0,22,0,22,0c31.8,0,57.5-25.8,57.5-57.5c0-9.5,0-9.5,0-9.5C161.5,128,135.8,153.8,104,153.8z"/>
	<path fill="#D2867B" d="M100.5,120.8c0.8,1.8,0,3.5-2,3.8c-3,0.5-3,0.5-3,0.5c-1.8,0.3-3.3-1-3-3c1-12.8,1-12.8,1-12.8
		c0.3-1.8,1-2,1.8-0.3C100.5,120.8,100.5,120.8,100.5,120.8z"/>
	<path fill="#FFFFFF" d="M134,113c0,6-3,10.8-7,10.8c-3.8,0-7-4.8-7-10.8c0-5.8,3.3-10.8,7-10.8C131,102.3,134,107.3,134,113z"/>
	<path fill="#21673C" d="M131.5,113c0,5-2.5,9-5.8,9c-3,0-5.8-4-5.8-9c0-4.8,2.8-8.8,5.8-8.8C129,104.3,131.5,108.3,131.5,113z"/>
	<path fill="#211C1D" d="M129.8,113c0,3.5-1.8,6.3-4,6.3c-2,0-4-2.8-4-6.3c0-3.3,2-6,4-6C128,107,129.8,109.8,129.8,113z"/>
	<path fill="#FFFFFF" d="M129.5,109.8c0,1-0.5,1.8-1.3,1.8c-0.5,0-1-0.8-1-1.8s0.5-1.8,1-1.8C129,108,129.5,108.8,129.5,109.8z"/>
	<path fill="#BF8875" d="M130.3,88.8c0,0-0.3-0.3-0.5-0.3c-0.3-0.3-0.5-0.3-0.5-0.3c-0.3-0.3-0.5-0.3-0.8-0.5
		c-0.3,0-0.5-0.3-0.8-0.3c0,0-0.3-0.3-0.5-0.3s-0.5,0-0.8,0c-0.3-0.3-0.5-0.3-0.8-0.3c0.3,0,0.3,0,0.3,0l0,0l0,0l0,0l0,0
		c-0.3,0-0.3,0-0.3,0l0,0c-0.3,0-0.3,0-0.3,0c-0.3,0-0.3,0-0.3,0s0,0,0,0.3l0,0c-0.3,0-0.3,0-0.3,0c-0.3,0-0.3,0-0.5,0
		s-0.5,0.3-0.8,0.3s-0.3,0.3-0.5,0.3c-0.3,0.3-0.5,0.3-0.8,0.5c-0.3,0-0.3,0-0.5,0.3c-0.3,0-0.5,0.3-0.5,0.3s0-0.3,0-0.8
		c0,0,0-0.3,0.3-0.5c0-0.3,0-0.5,0.3-0.8c0.3-0.5,0.8-1.3,1.3-1.8c0.3,0,0.5-0.3,0.5-0.3c0.5-0.3,0.5-0.3,0.5-0.3c0.3,0,0.3,0,0.3,0
		c0.5-0.3,0.5-0.3,0.5-0.3h0.3c0.3,0,0.3,0,0.3,0l0,0c0.3,0,0.3,0,0.3,0l0,0l0,0c0.5,0,1,0,1.5,0.3c0.3,0,0.5,0.3,0.5,0.3
		c0.3,0,0.5,0.3,0.8,0.3c0.5,0.5,1,1.3,1.3,1.8c0.3,0.3,0.3,0.5,0.3,0.8s0,0.5,0,0.5C130.3,88.5,130.3,88.8,130.3,88.8z"/>
	<path fill="#BF8875" d="M104,5C82,5,82,5,82,5C50.3,5,22.3,30.8,22.3,62.5c0,9.3,0,9.3,0,9.3c0,17.8,0,17.8,0,17.8
		C24,93,28,98.3,28,105c5.3,0,5.8,0.3,5.8,0.5c0-0.5-3.5-23.5,4.5-39.5c7-13.8,22.3,6,55,6s48-19.8,54.8-6c8,16,4.8,39,4.5,39.5
		c0.3-0.3,0.5-0.5,6-0.5c0-6.5,3.8-11.3,5.5-15c0-18.3,0-18.3,0-18.3c0-9.3,0-9.3,0-9.3C164,30.8,135.8,5,104,5z"/>
	<path fill="#721327" d="M106,131c1,3.3-6.8,13.3-13,13.3s-13.8-10-12.8-13.3c1-3.8,6.3,1.5,12.8,1.5
		C99.8,132.5,104.8,127.3,106,131z"/>
	<path fill="#FFFFFF" d="M105.5,130.3c-1.8-2.3-6.5,2.3-12.5,2.3s-10.8-4.5-12.5-2.3c3.8,2.8,8,5,12.5,5S102,133,105.5,130.3z"/>
	<path fill="#F46C98" d="M93,144.3c2.5,0,4.8-1.3,6.8-3c-0.8-1.5-3.5-2-6.8-2s-5.8,0.5-6.8,2C88.5,143,90.5,144.3,93,144.3z"/>
	<path fill="none" stroke="#D2867B" stroke-width="0.5" stroke-miterlimit="10" d="M106,131c1,3.3-6.8,13.3-13,13.3
		s-13.8-10-12.8-13.3c1-3.8,6.3,1.5,12.8,1.5C99.8,132.5,104.8,127.3,106,131L106,131z"/>
</g>
</svg>
