<?xml version="1.0" encoding="utf-8"?>
<!-- Generator: Adobe Illustrator 16.0.2, SVG Export Plug-In . SVG Version: 6.00 Build 0)  -->
<!DOCTYPE svg PUBLIC "-//W3C//DTD SVG 1.1//EN" "http://www.w3.org/Graphics/SVG/1.1/DTD/svg11.dtd">
<svg version="1.1" id="Layer_1" xmlns="http://www.w3.org/2000/svg" xmlns:xlink="http://www.w3.org/1999/xlink" x="0px" y="0px"
	 width="238px" height="149px" viewBox="0 0 238 149" enable-background="new 0 0 238 149" xml:space="preserve">
<g>
	<path fill-rule="evenodd" clip-rule="evenodd" fill="#6EC7FE" d="M152.518,14.273c2.742,2.008,4.857,4.62,6.844,7.33
		c0.579,0.791,0.926,0.812,1.68,0.268c4.293-3.094,9.183-4.623,14.311-5.686c6.512-1.349,12.431,0.253,18.198,3.063
		c3.588,1.748,7.303,3.35,10.23,6.124c6.01,5.693,11.134,11.929,12.517,20.559c1.179,7.353,0.493,14.466-1.861,21.459
		c-0.399,1.188-0.336,1.563,1.047,1.854c5.459,1.147,9.354,4.595,12.611,8.966c1.735,2.326,3.23,4.829,3.729,7.627
		c1.186,6.648,0.633,13.008-4.077,18.439c-2.435,2.802-4.965,5.417-8.414,6.957c-1.435,0.641-2.923,1.132-4.496,1.082
		c-1.383-0.043-2.713,0.534-4.101,0.257c-0.716-1.271-1.262-2.631-1.979-3.902c-0.302-0.536-0.219-1.062,0.267-1.485
		c1.344-0.767,2.881-0.641,4.302-0.677c2.488-0.063,4.591-0.865,6.415-2.459c2.907-2.541,5.485-5.323,6.441-9.253
		c0.987-4.06,0.501-7.92-1.741-11.428c-2.125-3.325-4.586-6.351-8.468-7.83c-1.612-0.615-3.185-0.874-4.832-0.286
		c-1.341,0.479-2.579,0.336-3.524-0.773c-0.998-1.17-0.923-2.464-0.383-3.889c1.754-4.624,3.348-9.374,3.824-14.27
		c0.792-8.144-1.305-15.456-6.745-21.946c-5.002-5.97-11.436-9.277-18.42-11.873c-2.553-0.948-5.252-1.108-8.019-0.705
		c-4.185,0.611-8.183,1.695-11.855,3.837c-1.521,0.886-2.923,1.836-3.5,3.706c-0.364,1.182-1.435,1.833-2.686,1.823
		c-1.294-0.011-2.325-0.683-2.826-1.886c-1.21-2.904-3.05-5.351-5.192-7.602c-0.319-0.337-0.596-0.707-0.597-1.21
		c0.409-1.531,0.322-3.099,0.373-4.658C151.61,15.163,151.506,14.352,152.518,14.273z"/>
	<path fill-rule="evenodd" clip-rule="evenodd" fill="#70C7FE" d="M21.743,64.205c2.417-1.277,4.951-2.179,7.704-2.264
		c1.252-0.038,2.114-0.343,2.603-1.697c0.905-2.508,1.889-5.005,3.081-7.384c1.678-3.351,4.233-6.115,6.477-9.083
		c2.984-3.949,6.427-7.491,10.288-10.522c4.036-3.169,8.099-6.363,12.695-8.738c6.93-3.58,14.401-5.264,22.043-6.388
		c4.014-0.59,8.047-0.649,12.072-0.479c2.441,0.103,4.912,0.405,7.24,1.309c-0.749,1.426-0.53,2.939-0.383,4.441
		c0.036,0.36,0.221,0.704,0.125,1.081c-0.509,0.455-1.054,0.161-1.565,0.037c-4.42-1.073-8.874-1.152-13.399-0.818
		c-6.605,0.489-12.96,1.989-19.183,4.17c-3.812,1.335-7.171,3.475-10.433,5.823c-3.322,2.392-6.657,4.758-9.597,7.626
		c-2.741,2.674-5.036,5.734-7.406,8.728c-1.715,1.99-3.204,4.129-4.259,6.555c-0.857,1.986-1.579,4.026-2.446,6.008
		c-0.253,0.576-0.195,1.16-0.176,1.761c0.079,2.396-1.66,3.83-4.002,3.465c-2.152-0.338-4.281-0.021-6.367,0.575
		c-0.971,0.276-1.892,0.701-2.864,0.976c-1.572-0.018-2.305-1.17-2.91-2.338C20.54,66.002,20.895,65.008,21.743,64.205z"/>
	<path fill-rule="evenodd" clip-rule="evenodd" fill="#6FC7FE" d="M141.476,119.857c-2.652-0.334-5.187-1.099-7.613-2.196
		c-0.838-0.379-1.516-0.341-2.339,0.034c-5.076,2.304-10.381,3.823-15.93,4.398c-6.228,0.645-12.441,0.112-18.666-0.226
		c-5.537-0.3-11.031-0.98-16.543-1.506c-6.155-0.584-12.227-1.685-18.241-3.12c-2.585-0.618-5.091-1.464-7.564-2.424
		c-0.057-0.124-0.122-0.269-0.063-0.388c0.803-1.652,1.83-3.149,3.082-4.493c1.845,0.191,3.517,1.012,5.302,1.442
		c7.428,1.783,14.953,2.884,22.547,3.639c5.888,0.584,11.773,1.13,17.688,1.398c2.384,0.107,4.764,0.257,7.149,0.228
		c6.333-0.081,12.354-1.605,18.172-4.031c0.381-0.16,0.771-0.317,1.122-0.527c2.161-1.292,4.258-1.017,6.413,0.083
		c2.567,1.308,5.407,1.736,8.191,2.329c0.937,0.201,1.923,0.271,2.713,0.908c0.541,0.641,0.074,0.979-0.404,1.288
		c-0.576,0.372-1.217,0.61-1.853,0.854C143.377,118.033,142.461,118.993,141.476,119.857z"/>
	<path fill-rule="evenodd" clip-rule="evenodd" fill="#6FC6FE" d="M105.618,24.472c-0.984-1.508-0.438-3.188-0.515-4.794
		c-0.023-0.487,0.398-0.669,0.842-0.72c0.978,0.461,1.721,0.27,2.57-0.497c6.175-5.571,13.235-9.401,21.571-10.426
		c2.814-0.345,5.689-0.278,8.51,0.203c4.845,0.825,9.404,2.382,13.333,5.472c0.212,0.167,0.393,0.375,0.588,0.563
		c-0.7,0.331-0.521,0.976-0.549,1.548c-0.079,1.615,0.293,3.283-0.549,4.81c-0.618,0.184-0.94-0.291-1.267-0.636
		c-3.361-3.556-7.682-5.133-12.337-5.864c-8.394-1.318-15.771,1.22-22.427,6.265c-0.208,0.158-0.482,0.295-0.471,0.719
		c1.234,0.602,2.579,1.068,3.809,1.75c3.777,2.093,6.948,4.957,9.863,8.112c1.625,1.759,2.996,3.727,4.412,5.659
		c0.897,1.224,1.44,2.56,1.751,4.016c0.381,1.78-0.437,3.345-2.018,3.907c-1.46,0.519-3.196-0.212-3.783-1.909
		c-1.269-3.663-3.863-6.342-6.406-9.046c-3.855-4.1-8.665-6.58-14.058-8.013C107.503,25.329,106.353,25.412,105.618,24.472z"/>
	<path fill-rule="evenodd" clip-rule="evenodd" fill="#70C7FE" d="M141.476,119.857c0.555-1.61,2.027-2.104,3.35-2.78
		c0.777-0.396,1.799-0.412,2.178-1.425c0.619-0.536,1.306-0.262,1.973-0.158c2.726,0.42,5.358,1.276,8.089,1.695
		c5.607,0.861,11.251,0.889,16.9,0.825c2.328,0.235,4.576-0.388,6.857-0.655c0.493-0.057,0.987-0.122,1.48-0.167
		c5.826-1.44,11.541-3.256,17.196-5.26c1.249-0.444,2.213-1.17,2.401-2.708c0.177-1.432,1.367-2.57,2.809-2.597
		c1.473-0.029,2.979,0.14,4.372,0.764c-0.332,0.472-0.191,0.846,0.07,1.351c0.637,1.225,1.584,2.338,1.584,3.83
		c-0.261,0.089-0.541,0.289-0.779,0.246c-2.043-0.367-3.224,0.859-4.492,2.183c-1.77,1.847-4.198,2.579-6.548,3.366
		c-4.775,1.596-9.55,3.237-14.461,4.328c-3.024,0.672-6.127,1.152-9.273,1.073c-4.957-0.126-9.917,0.153-14.873-0.275
		c-4.125-0.355-8.139-1.251-12.163-2.135C145.921,120.869,143.699,120.357,141.476,119.857z"/>
	<path fill-rule="evenodd" clip-rule="evenodd" fill="#6FC7FE" d="M57.334,110.143c-0.372,1.883-2.111,2.953-2.754,4.676
		c-6.342-2.038-11.931-5.192-15.765-10.876c-0.577-0.854-1.104-1.179-2.104-0.726c-4.45,2.016-9.164,2.574-13.973,2.238
		c-7.177-0.503-12.614-3.97-15.985-10.323c-1.196-2.254-1.558-4.903-0.418-7.462c0.188-0.708,0.262-1.438,0.485-2.142
		c0.355-1.114,1.058-1.809,2.209-2.007c1.177-0.205,2.171,0.232,3.026,0.989c0.415,0.368,0.411,0.92,0.282,1.423
		c-0.188,0.727-0.132,1.461-0.157,2.193c0,0.091,0,0.183-0.016,0.273c-0.251,1.434-0.889,2.867-0.085,4.311
		c0.998,1.79,2.291,3.301,4.004,4.473c4.212,2.881,8.814,3.096,13.602,2.108c2.525-0.521,4.941-1.39,7.282-2.472
		c0.334-0.153,0.674-0.293,1.016-0.426c2.665-1.044,4.146-0.253,4.901,2.536c0.649,2.396,2.473,3.952,4.219,5.49
		c2.592,2.281,5.8,3.494,8.923,4.831C56.517,109.462,57.121,109.516,57.334,110.143z"/>
	<path fill-rule="evenodd" clip-rule="evenodd" fill="#72C8FE" d="M11.816,88.251c0-0.505,0.01-1.01-0.004-1.515
		c-0.018-0.667,0.657-1.396,0.068-1.959c-0.472-0.451-1.166-0.751-1.813-0.918c-1.367-0.355-2.776,0.686-3.194,2.284
		c-0.139,0.527-0.202,1.073-0.54,1.526c0.35-4.272,1.45-8.351,3.65-12.025c2.21-3.688,5.031-6.908,8.392-9.611
		c1.005-0.807,2.122-1.449,3.368-1.828c-0.931,2.565-0.102,4.426,2.191,4.915c0.118,0.45-0.274,0.514-0.523,0.679
		c-5.309,3.482-9.02,8.139-10.514,14.429c-0.236,0.994-0.083,2.031-0.399,3.005C12.37,87.627,12.498,88.222,11.816,88.251z"/>
	<path fill-rule="evenodd" clip-rule="evenodd" fill="#E4F4FE" d="M11.816,88.251c0.73-1.294,0.467-2.771,0.727-4.15
		c0.771-4.094,2.991-7.369,5.649-10.389c1.634-1.855,3.411-3.589,5.743-4.592c2.527-1.337,5.303-1.633,8.076-1.912
		c0.387-0.04,0.8,0.146,1.198,0.241c2.294,0.541,4.024-1.094,3.604-3.425c-0.057-0.315-0.188-0.597-0.047-0.933
		c0.945-2.239,1.876-4.484,2.812-6.727c1.527-2.043,2.866-4.212,4.202-6.381c3.584-5.052,7.64-9.673,12.646-13.344
		c3.255-2.388,6.436-4.9,9.982-6.866c4.872-2.701,10.202-4.025,15.572-5.235c5.349-1.205,10.776-1.596,16.232-1.368
		c2.5,0.104,4.975,0.649,7.407,1.301c3.102,0.797,6.136,1.751,9.104,3.008c2.833,1.201,5.031,3.179,7.293,5.104
		c2.182,1.857,3.849,4.199,5.574,6.467c0.689,0.908,1.194,1.92,1.519,3.058c0.504,1.77,1.997,2.625,3.418,2.165
		c1.611-0.523,2.202-1.896,1.852-3.738c-0.586-3.071-2.715-5.203-4.506-7.483c-3.028-3.852-6.622-7.157-10.89-9.616
		c-1.536-0.885-3.226-1.501-5.036-2.327c3.024-2.347,6.018-4.535,9.6-5.785c3.932-1.373,7.959-2.292,12.129-1.857
		c5.658,0.59,10.955,2.169,15.014,6.541c0.216,0.232,0.485,0.416,0.73,0.621c1.338,1.569,2.794,3.037,3.912,4.794
		c0.668,1.049,1.337,2.071,1.752,3.265c0.485,1.387,1.744,2.32,2.884,2.152c1.403-0.207,2.225-1.008,2.532-2.498
		c0.284-1.369,1.604-1.994,2.665-2.645c3.837-2.358,8.063-3.557,12.502-4.269c4.644-0.744,8.773,0.626,12.836,2.523
		c2.158,1.008,4.289,2.084,6.384,3.218c2.544,1.376,4.535,3.439,6.417,5.589c1.239,1.416,2.311,2.98,3.529,4.413
		c2.875,3.375,3.667,7.538,4.446,11.697c1.14,6.097-0.545,11.847-2.273,17.575c-0.491,1.623-0.899,3.275-1.649,4.822
		c-0.53,1.096-0.249,2.218,0.562,3.075c0.646,0.683,1.528,1.115,2.502,0.726c3.535-1.423,6.56-0.029,9.146,2.086
		c3.029,2.478,5.571,5.48,6.729,9.394c1.528,5.172,0.728,9.904-2.721,14.089c-1.839,2.231-3.803,4.326-6.534,5.551
		c-1.964,0.881-4.058,0.541-6.073,0.884c-0.627,0.105-1.275,0.099-1.886,0.319c-1.101-0.004-2.187-0.065-3.269-0.336
		c-1.916-0.482-3.551,0.697-3.589,2.641c-0.021,0.946-0.493,1.449-1.191,1.842c-2.412,1.357-5.08,2.042-7.693,2.86
		c-2.878,0.902-5.764,1.779-8.652,2.645c-0.697,0.21-1.418,0.341-2.127,0.508c-1.733-0.183-3.461,0.018-5.146,0.317
		c-1.114,0.199-2.24,0.31-3.35,0.53c-6.422,0.228-12.83,0.033-19.152-1.144c-2.143-0.398-4.267-0.991-6.417-1.415
		c-0.489-0.098-0.994-0.127-1.491-0.188c-1.886-0.719-3.889-0.942-5.842-1.368c-2.386-0.519-4.639-1.394-6.861-2.379
		c-1.243-0.55-2.432-0.482-3.69,0.16c-4.816,2.462-9.996,3.859-15.298,4.642c-3.749,0.553-7.561,0.548-11.366,0.111
		c-2.128-0.244-4.29-0.082-6.443-0.291c-4.446-0.431-8.903-0.697-13.337-1.313c-2.659-0.367-5.344-0.606-8.018-0.891
		c-4.192-0.444-8.235-1.587-12.356-2.354c-2.215-0.41-4.283-1.296-6.456-1.828c-2.481-0.949-4.917-1.995-7.27-3.24
		c-2.861-1.51-5.087-3.715-6.966-6.303c-0.402-0.553-0.56-1.242-0.667-1.938c-0.302-1.952-1.88-2.855-3.749-2.142
		c-2.094,0.801-4.136,1.766-6.271,2.424c-6.268,1.937-12.372,2.079-17.77-2.403c-1.469-1.22-2.687-2.714-3.256-4.648
		C10.999,90.587,11.786,89.476,11.816,88.251z"/>
	<path fill-rule="evenodd" clip-rule="evenodd" fill="#F6FBFE" d="M43.78,49.984c-0.611,1.889-1.732,3.492-2.927,5.026
		c-0.368,0.474-0.565,1.181-1.274,1.355C40.589,53.979,42.05,51.892,43.78,49.984z"/>
	<path fill-rule="evenodd" clip-rule="evenodd" fill="#FBFDFE" d="M174.063,118.398c2.769-0.92,5.57-1.499,8.496-0.848
		C179.717,117.731,176.948,118.646,174.063,118.398z"/>
</g>
</svg>
