<?xml version="1.0" encoding="utf-8"?>
<!-- Generator: Adobe Illustrator 16.0.2, SVG Export Plug-In . SVG Version: 6.00 Build 0)  -->
<!DOCTYPE svg PUBLIC "-//W3C//DTD SVG 1.1//EN" "http://www.w3.org/Graphics/SVG/1.1/DTD/svg11.dtd">
<svg version="1.1" id="Layer_1" xmlns="http://www.w3.org/2000/svg" xmlns:xlink="http://www.w3.org/1999/xlink" x="0px" y="0px"
	 width="95px" height="78px" viewBox="0 0 95 78" enable-background="new 0 0 95 78" xml:space="preserve">
<g>
	<path fill-rule="evenodd" clip-rule="evenodd" fill="#CD2457" d="M59.674,65.66c-0.237,0.107-0.48,0.205-0.711,0.323
		c-2.836,1.462-3.315,1.354-5.205-1.071c-0.707-0.906-1.48-1.764-2.208-2.657c-0.724-0.889-1.427-1.796-2.208-2.779
		c-0.542,0.707-0.565,1.394-0.604,2.098c-0.132,2.396-0.922,4.609-2.162,6.633c-1.09,1.779-3.389,2.734-4.965,2.248
		c-0.613-0.189-1.226-0.45-1.542-1.017c-0.94-1.685-2.365-2.93-3.739-4.221c-2.891-2.717-4.139-6.196-4.64-10.148
		c-2.03,1.34-3.946,2.61-5.868,3.87c-2.043,1.342-4.319,2.138-6.685,2.63c-3.333,0.696-6.61-1.517-6.354-4.656
		c0.097-1.188-0.5-2.322-0.591-3.541c-0.293-3.896,1.816-6.687,4.259-9.239c1.46-1.523,3.159-2.879,5.287-3.678
		c-0.692-0.614-1.411-0.563-2.118-0.556c-2.146,0.021-4.318,0.134-6.371-0.619c-3.932-1.439-6.577-4.149-7.683-8.215
		c-0.41-1.507-0.893-3.008-0.938-4.601C4.557,23.909,5.745,22,8.21,21.193c4.626-1.514,9.176-1.693,13.438,1.177
		c0.243,0.164,0.516,0.286,0.92,0.507C21.246,17.756,22.332,12.883,23.181,8c0.123-0.708,0.173-1.53,1.082-1.728
		c0.942-0.204,1.611,0.341,2.167,0.997c2.03,2.386,4.359,4.529,5.956,7.617c0.471-1.464,0.812-2.62,1.212-3.753
		c1.596-4.515,5.226-6.798,9.462-8.233c2.197-0.744,4.963,1.292,5.95,4.073c0.382,1.08,0.763,2.185,0.93,3.31
		c0.158,1.062,0.034,2.164,0.034,3.459c2.469-1.149,4.896-1.493,7.329-1.799c3.843-0.482,6.926,1.153,9.715,3.537
		c0.702,0.601,0.69,1.416,0.165,2.122c-2.236,3.011-3.767,6.535-6.623,9.096c-0.494,0.443-0.989,0.885-1.789,1.599
		c3.493-0.244,6.362,0.807,9.216,1.921c1.354,0.127,2.174,1.081,3.045,1.955c0.725,0.724,1.307,1.559,1.904,2.384
		c0.165,0.339,0.275,0.698,0.414,1.048c0.293,1.347,1.618,2.36,1.277,3.912c-0.165,0.644-0.604,1.082-1.1,1.48
		c-0.565,0.369-1.13,0.741-1.726,1.062c-1.153,0.548-2.278,1.151-3.425,1.716c-1.374,0.588-2.814,0.954-4.263,1.289
		c-0.585,0.154-1.177,0.279-1.759,0.446c-0.665,0.174-1.348,0.109-2.021,0.15c-0.297,0.021-0.668-0.005-0.575,0.489
		c0.181,0.456,0.505,0.825,0.735,1.247c1.007,1.885,2.255,3.654,2.809,5.757c0.132,0.804,0.517,1.536,0.652,2.338
		c0.211,1.897-0.016,3.747-0.618,5.555c-0.31,0.717-0.693,1.396-1.031,2.1c-0.136,0.267-0.281,0.53-0.445,0.781
		C61.217,64.607,60.722,65.483,59.674,65.66z"/>
	<path fill-rule="evenodd" clip-rule="evenodd" fill="#24632B" d="M70.917,32.392c-0.898-0.83-1.842-1.598-2.93-2.174
		c3.122-0.496,6.244-0.533,9.374-0.05c0.791,0.122,1.551,0.316,2.244,0.674c0.869,0.447,1.229,1.149,0.626,2.064
		c-1.165,1.772-1.759,3.781-2.397,5.766c-0.457,1.416-1.065,2.757-2.158,3.766c-0.805,0.744-0.584,1.063,0.214,1.559
		c2.226,1.383,4.391,2.832,6.206,4.773c2.552,2.727,3.678,6.074,4.138,9.626c0.508,3.926,0.752,7.887,0.682,11.858
		c-0.032,1.844-0.478,2.154-2.272,1.777c-5.128-1.08-10.284-2.035-15.394-3.195c-3.281-0.745-6.56-1.585-9.575-3.176
		c0.646-0.625,1.291-1.252,1.938-1.877c0.313-0.112,0.421-0.354,0.421-0.663c0.154-0.679,0.48-1.272,0.9-1.821
		c0.841,0.336,0.786,1.176,0.996,1.839c0.261,0.822,0.715,1.337,1.56,1.585c2.408,0.718,4.827,1.394,7.294,1.888
		c0.947,0.189,1.138-0.103,1.169-1.017c0.079-2.438-0.804-4.24-3.025-5.38c-2.192-1.127-4.196-2.559-6.218-3.959
		c-0.432-0.3-0.873-0.579-1.143-1.051c-0.345-0.627-0.554-1.295-0.565-2.018c0.524-0.215,0.945,0.085,1.3,0.358
		c1.374,1.073,2.858,1.102,4.475,0.684c3.515-0.906,7.12-1.323,10.704-1.846c1.311-0.189,1.471-0.443,0.621-1.406
		c-1.936-2.189-4.368-3.757-6.945-5.073c-0.944-0.481-2.063-0.245-3.108-0.076c-2.748,0.44-5.495,0.886-8.201,1.56
		c-0.557,0.138-1.122,0.307-1.694,0.041c-0.226-0.382-0.452-0.764-0.678-1.146c0.781-0.99,1.987-0.643,2.987-0.939
		c0.612-0.228,1.27-0.294,1.877-0.535c1.624-0.069,3.11-1.026,4.795-0.712c0.202-0.005,0.01-0.309,0.025-0.1
		c0.009,0.104-0.025,0.117-0.101,0.12c-0.491,0.018-0.777-0.187-0.805-0.696c1.172-0.546,2.345-1.094,3.517-1.641
		c0.604-0.181,1.165-0.429,1.563-0.946c0.339-0.399,0.679-0.8,1.018-1.201c0.692-1.441,1.108-2.97,1.514-4.568
		c-1.055,0.003-1.8,1.087-2.854,0.575c-0.349-0.269-0.296-0.659-0.318-1.027c0.528-0.922,1.814-0.706,2.446-1.643
		C73.746,32.417,72.211,33.184,70.917,32.392z"/>
	<path fill-rule="evenodd" clip-rule="evenodd" fill="#C69C53" d="M30.105,40.791c0.222-1.012-0.203-1.793-0.885-2.484
		c-0.23-0.195-0.47-0.384-0.571-0.688c-0.124-0.368-0.143-0.747-0.149-1.132c-0.008-0.232,0.005-0.464,0.043-0.693
		c0.045-0.236,0.153-0.439,0.329-0.605c0.325-0.834,0.65-1.668,0.976-2.502c0.177-0.387,0.54-0.487,0.907-0.584
		c1.038-0.555,2.078-1.11,3.116-1.665c0.59-0.454,1.008-1.104,1.688-1.457c0.438-0.2,0.894-0.347,1.371-0.429
		c0.514-0.048,1.019-0.058,1.402,0.376c0.743,0.545,1.429,0.669,2.227-0.007c0.908-0.768,2.06-0.659,3.169-0.59
		c0.978-0.1,1.654,0.495,2.362,1.021c0.394,0.366,0.786,0.734,1.041,1.22c0.212,0.593,0.545,1.183,0.06,1.798
		c-0.097,0.446-0.129,0.92-0.307,1.332c-0.333,0.774-0.135,1.25,0.655,1.504c0.992,0.447,1.373,1.309,1.564,2.299
		c0.081,0.494,0.074,0.991,0.064,1.491c-0.068,0.688-0.16,1.367-0.768,1.829c-0.902,0.921-1.998,1.568-3.113,2.19
		c-0.141,0.304-0.477,0.401-0.673,0.645c-0.291,0.391-0.187,0.854-0.239,1.287c-0.018,0.21-0.066,0.412-0.145,0.606
		c-0.308,0.472-0.52,1.037-1.154,1.193c-0.889,0.259-1.507,1.147-2.535,1.083c-0.21,0.101-0.421,0.197-0.644,0.267
		c-0.383,0.079-0.766,0.062-1.147-0.008c-0.658-0.179-1.176-0.599-1.713-0.988c-0.46-0.417-0.883-0.876-1.326-1.312
		c-0.268-0.223-0.364-0.561-0.558-0.832c-1.264,0.09-2.505-0.069-3.738-0.327c-0.477-0.267-0.777-0.743-1.229-1.041
		c-0.1-0.099-0.174-0.216-0.225-0.348c-0.079-0.622-0.154-1.244-0.125-1.874C29.866,41.146,29.999,40.975,30.105,40.791z"/>
	<path fill-rule="evenodd" clip-rule="evenodd" fill="#99B986" d="M60.151,47.428c3.877-1.117,7.818-1.897,11.848-2.188
		c0.456-0.033,1.011-0.025,1.374,0.197c2.622,1.629,5.359,3.13,7.326,5.604c0.31,0.389,0.993,0.778,0.731,1.275
		c-0.25,0.474-1.002,0.491-1.559,0.532c-2.875,0.213-5.685,0.848-8.523,1.283c-0.57,0.087-1.169,0.133-1.689,0.351
		c-2.524,1.055-4.689,0.42-6.658-1.296C62.052,51.269,61.102,49.348,60.151,47.428z"/>
	<path fill-rule="evenodd" clip-rule="evenodd" fill="#F3758B" d="M48.765,37.422c-0.231-0.836-0.716-1.534-1.227-2.218
		c4.145-0.005,8.294-0.149,12.43,0.026c3.277,0.141,6.563,0.557,9.51,2.246c0.59,0.339,1.41,0.614,1.453,1.311
		c0.048,0.748-0.882,0.753-1.402,1.037c-3.59,1.954-7.393,3.124-11.528,2.914c-3.29-0.168-6.497-0.792-9.601-1.914
		c0.123-0.626,0.246-1.253,0.37-1.881c0.376-0.708,1.121-0.638,1.745-0.831c0.563-0.173,1.232-0.06,1.72-0.618
		C51.049,37.133,49.881,38.234,48.765,37.422z"/>
	<path fill-rule="evenodd" clip-rule="evenodd" fill="#F3748B" d="M38.332,28.928c-0.519-0.007-1.038-0.015-1.556-0.022
		c-0.955-1.67-0.241-3.354-0.051-5.033c0.114-0.466,0.267-0.923,0.368-1.392c0.046-0.189,0.135-0.374,0.156-0.568
		c0.024-0.218,0.201-0.571-0.139-0.604c-0.238-0.023-0.255,0.375-0.358,0.594c-0.178,0.439-0.221,0.905-0.307,1.364
		c-0.258,1.498-0.536,2.99-0.49,4.52c0.016,0.531-0.077,1.044-0.424,1.479c-0.471,0.505-0.792,1.223-1.659,1.173
		c0.407-5.763,0.39-11.565,1.861-17.221c0.919-3.537,3.135-5.785,6.6-7.14c0.361,1.691-0.326,3.22-0.576,4.733
		c-0.412,2.493-0.126,4.991-0.486,7.487C40.737,21.986,40.108,25.601,38.332,28.928z"/>
	<path fill-rule="evenodd" clip-rule="evenodd" fill="#F3748B" d="M28.903,37.688c0.106,0.205,0.212,0.412,0.318,0.62
		c-2.113,0.281-4.129-0.479-6.189-0.697c-2.337-0.248-4.686,0.036-7.008-0.453c-4.785-1.006-7.338-3.461-8.247-8.145
		c-0.369-1.904-0.385-1.843,1.474-1.379c1.916,0.477,3.853,0.894,5.802,1.198c2.672,0.418,5.126,1.397,7.514,2.601
		c0.08,0.071,0.114,0.15,0.104,0.235c-0.01,0.089-0.027,0.134-0.046,0.133c-0.744,0.823,0.128,0.922,0.557,1.218
		c1.392,0.703,2.787,1.391,4.265,1.903c0.519,0.179,1.127,0.293,1.409,0.883c-0.001,0.219-0.001,0.438-0.001,0.657
		c-0.698,0.581-1.471,0.356-2.219,0.172c-2.161-0.532-4.238-1.333-6.348-2.021c-0.663-0.243-1.304-0.561-2.233-0.775
		c0.562,0.868,1.297,0.937,1.944,1.158C22.924,36.035,25.898,36.91,28.903,37.688z"/>
	<path fill-rule="evenodd" clip-rule="evenodd" fill="#F3748B" d="M47.189,32.369c-0.12-0.619-0.24-1.24-0.361-1.859
		c0.277-1.003,1.229-1.363,1.9-1.992c0.556-0.521,1.171-0.997,1.652-1.862c-0.959,0.228-1.357,0.876-1.908,1.313
		c-0.788,0.626-1.396,1.56-2.565,1.571c-0.727-0.402-1.454-0.806-2.18-1.208c2.1-1.706,4.201-3.412,6.3-5.118
		c0.585-0.326,1.02-0.852,1.597-1.188c1.823-1.328,3.791-2.356,5.99-2.915c0.847-0.211,1.706-0.36,2.553-0.575
		c0.744-0.129,1.463-0.416,2.221-0.434c0.334-0.008,0.856-0.271,0.918,0.403c-3.418,6.219-8.553,10.562-14.917,13.55
		C48.021,32.226,47.591,32.268,47.189,32.369z"/>
	<path fill-rule="evenodd" clip-rule="evenodd" fill="#F3748B" d="M30.105,40.791c0.005,0.231,0.009,0.465,0.014,0.696
		c-1.058,1.559-2.747,2.189-4.347,2.959c-2.143,1.029-4.127,2.259-5.426,4.559c0.608-0.153,0.882-0.538,1.145-0.855
		c2.016-2.456,5.084-3.236,7.654-4.81c0.305-0.187,0.69-0.281,1.02,0.031l-0.017-0.016c0.382,1.225-0.631,1.76-1.275,2.418
		C28,46.664,27,47.433,26.68,48.723c-3.376,2.105-6.751,4.213-10.13,6.315c-1.144,0.712-1.383,0.548-1.566-0.896
		c-0.485-3.803,1.463-6.466,4.068-8.862C22.182,42.396,26.185,41.707,30.105,40.791z"/>
	<path fill-rule="evenodd" clip-rule="evenodd" fill="#99B986" d="M63.566,55.204c3.065,1.891,6.188,3.698,9.171,5.711
		c1.089,0.735,1.591,2.095,1.477,3.47c-0.08,0.961,0.626,2.3-0.039,2.73c-0.602,0.387-1.867-0.189-2.824-0.415
		c-1.678-0.397-3.323-0.955-5.017-1.247c-2.011-0.346-2.988-1.455-3.143-3.422c-0.02-0.248-0.17-0.488-0.258-0.732
		C63.358,59.289,63.891,57.292,63.566,55.204z"/>
	<path fill-rule="evenodd" clip-rule="evenodd" fill="#F3748B" d="M37.121,46.828c0.535,0.325,1.069,0.65,1.604,0.976
		c0.691,1.268,0.12,2.646,0.34,3.964c0.463,0.098,0.407-0.371,0.607-0.55c0.227-0.287,0.362-0.707,0.863-0.59
		c0.119,2.966,0.297,5.932,0.335,8.896c0.02,1.555-0.188,3.114-0.332,4.666c-0.062,0.679-0.302,0.96-0.982,0.395
		c-3.183-2.65-5.095-5.929-5.011-10.148c0.063-3.165-0.424-6.374,0.607-9.48c0.36,0.1,0.57,0.354,0.703,0.687
		c0.27,0.412,0.367,0.863,0.287,1.35c-0.399,2.445,0.041,4.924-0.275,7.375c0.712-1.604,0.339-3.312,0.457-4.971
		C36.389,48.482,36.161,47.471,37.121,46.828z"/>
	<path fill-rule="evenodd" clip-rule="evenodd" fill="#F3748B" d="M44.317,43.36c0.236-0.355,0.623-0.294,0.969-0.346
		c1.769,0.817,2.596,2.525,3.726,3.941c3.238,4.052,5.213,8.633,5.745,13.808c0.025,0.257,0.003,0.518-0.151,0.884
		c-3.861-4.96-7.929-9.749-11.531-14.901c0.291-0.415,0.432-0.945,0.928-1.201c1.008,0.074,1.112,1.094,1.695,1.613
		c0.494,0.44,0.746,1.117,1.583,1.558c-0.773-1.952-2.589-3.043-3.009-4.944C44.213,43.627,44.229,43.49,44.317,43.36z"/>
	<path fill-rule="evenodd" clip-rule="evenodd" fill="#F3748B" d="M52.601,44.907c1.813-0.297,2.871,0.443,3.81,2.072
		c1.648,2.86,3.54,5.595,4.232,8.873c0.544,2.565-0.329,4.827-2.011,6.788c-0.194,0.226-0.434,0.502-0.79,0.41
		c-0.337-0.087-0.26-0.412-0.273-0.655c-0.315-5.772-1.893-11.099-5.546-15.698c-0.089-0.112-0.087-0.297-0.128-0.445
		C51.664,45.561,51.647,44.979,52.601,44.907z"/>
	<path fill-rule="evenodd" clip-rule="evenodd" fill="#F3748B" d="M27.32,27.324c-2.331-3.671-2.876-7.721-2.551-11.956
		c0.471-0.448,1.072-0.475,1.625-0.337c0.955,0.237,1.741-0.03,2.484-0.582c3.035,3.202,2.743,7.159,2.405,11.066
		c-0.114,1.327-0.104,2.708-0.734,4.196c-1.414-1.193-1.815-2.81-1.948-4.468c-0.096-1.189-0.104-2.381-0.34-3.561
		c-0.113-0.566-0.329-1.149-0.891-1.093c-0.661,0.066-0.434,0.802-0.335,1.168c0.492,1.832,0.052,3.75,0.578,5.567
		C27.515,27.472,27.417,27.472,27.32,27.324z"/>
	<path fill-rule="evenodd" clip-rule="evenodd" fill="#F3748B" d="M54.753,17.821c-2.303,0.442-3.931,2.111-5.846,3.245
		c-1.888,1.117-3.724,2.34-5.255,3.949c-0.164,0.172-0.328,0.425-0.767,0.218c3.196-5.294,6.807-9.896,13.723-10.251
		c1.352-0.069,2.679-0.473,4.017,0.06c0.533,0.212,1.117,0.335,1.364,0.95c-0.396,0.461-1,0.377-1.496,0.573
		c-0.439,0.111-0.89,0.178-1.322,0.315c-0.5,0.12-1.017,0.159-1.513,0.302c-0.416,0.104-0.842,0.166-1.25,0.303
		C55.856,17.6,55.349,17.931,54.753,17.821z"/>
	<path fill-rule="evenodd" clip-rule="evenodd" fill="#F3748B" d="M16.302,58.277c5.167-3.326,10.466-6.117,15.263-9.795
		c0.528,1.667,0.049,2.958-1.101,3.793c-3.538,2.573-6.971,5.367-11.399,6.376C18.169,58.854,17.313,58.938,16.302,58.277z"/>
	<path fill-rule="evenodd" clip-rule="evenodd" fill="#F3748B" d="M7.948,24.568c6.885-3.567,13.181-0.758,16.849,4.96
		C19.768,26.319,13.793,26.317,7.948,24.568z"/>
	<path fill-rule="evenodd" clip-rule="evenodd" fill="#F3748B" d="M42.527,67.591c1.314-5.108,1.425-10.107,0.679-15.495
		c1.434,1.053,2.451,1.97,3.044,3.152c0.57,1.137-0.014,2.431-0.074,3.639c-0.106,2.113-0.374,4.246-1.235,6.233
		C44.483,66.178,44.053,67.256,42.527,67.591z"/>
	<path fill-rule="evenodd" clip-rule="evenodd" fill="#F3748B" d="M44.003,17.877c0.5-1.368,0.286-2.791,0.3-4.192
		c0.024-2.359,0.482-4.644,1.101-7.275c1.537,2.385,1.808,4.67,1.753,7.16c-0.048,2.216-1.737,3.185-2.807,4.641
		C44.06,18.28,43.913,18.202,44.003,17.877z"/>
	<path fill-rule="evenodd" clip-rule="evenodd" fill="#F3748B" d="M68.008,33.935c-4.865-1.539-9.693-1.234-14.634-1.26
		C56.532,29.768,65.443,31.288,68.008,33.935z"/>
	<path fill-rule="evenodd" clip-rule="evenodd" fill="#F3768D" d="M28.878,14.449c-0.204,1.012-0.813,1.435-1.799,1.098
		c-0.769-0.263-1.54-0.13-2.309-0.179c-0.081-1.417,0.473-2.735,0.65-4.114c0.122-0.944,0.617-0.401,0.928-0.107
		C27.364,12.112,28.26,13.176,28.878,14.449z"/>
	<path fill-rule="evenodd" clip-rule="evenodd" fill="#97B684" d="M73.01,35.639c1.004-0.121,1.805-0.743,2.708-1.11
		c0.355-0.146,0.938-0.309,0.714,0.191c-0.73,1.624-0.547,3.64-2.081,4.912C74.657,38.05,73.09,37.092,73.01,35.639z"/>
	<path fill-rule="evenodd" clip-rule="evenodd" fill="#D23266" d="M56.319,17.245c0.344-0.446,0.836-0.261,1.276-0.297
		c0.437,0.829,1.521,1.656,0.006,2.489c-2.164,0.614-4.054,1.796-5.991,2.879c-0.21-0.215-0.185-0.434-0.01-0.654
		c0.104-0.105,0.21-0.21,0.315-0.315C53.327,19.918,55.234,19.021,56.319,17.245z"/>
	<path fill-rule="evenodd" clip-rule="evenodd" fill="#D12C5B" d="M26.68,48.723c-0.561-1.682,1.008-2.179,1.793-3.06
		c0.644-0.723,1.409-1.324,1.675-2.308c0.754,0.095,1.14,0.556,1.266,1.273C29.988,46.167,28.679,47.842,26.68,48.723z"/>
	<path fill-rule="evenodd" clip-rule="evenodd" fill="#98B785" d="M70.917,32.392c1.408-0.01,2.816-0.026,4.226-0.023
		c0.357,0.002,0.817,0.037,0.847,0.463c0.016,0.218-0.307,0.563-0.559,0.678c-0.894,0.407-1.823,0.74-2.739,1.102
		C71.899,34.03,71.461,33.17,70.917,32.392z"/>
	<path fill-rule="evenodd" clip-rule="evenodd" fill="#D0285A" d="M28.855,35.805c-2.055-0.68-4.089-1.406-5.96-2.518
		c-0.331-0.437-0.108-0.746,0.234-1.03c0.462-0.173,0.77,0.031,1.006,0.411c1.79,0.445,3.08,1.825,4.736,2.521
		C28.867,35.394,28.861,35.599,28.855,35.805z"/>
	<path fill-rule="evenodd" clip-rule="evenodd" fill="#CF285B" d="M56.319,17.245c-0.001,1.023-0.717,1.639-1.409,2.17
		c-0.939,0.72-1.991,1.294-2.994,1.932c-0.021-0.875,0.852-0.957,1.286-1.425c0.598-0.645,1.291-1.208,1.551-2.099
		C55.197,17.42,55.723,17.235,56.319,17.245z"/>
	<path fill-rule="evenodd" clip-rule="evenodd" fill="#98B383" d="M68.253,43.42c0.348,0.259,0.697,0.518,1.157,0.86
		c-1.841-0.005-3.423,0.773-5.133,0.704c-0.305,0.151-0.378,0.013-0.338-0.269C65.378,44.285,66.815,43.853,68.253,43.42z"/>
	<path fill-rule="evenodd" clip-rule="evenodd" fill="#F07087" d="M30.755,32.103c-0.191,0.368-0.499,0.554-0.907,0.584
		c-0.753-0.934-1.24-2.005-1.625-3.129c-0.128-0.335,0.031-0.39,0.316-0.323C29.278,30.19,30.016,31.146,30.755,32.103z"/>
	<path fill-rule="evenodd" clip-rule="evenodd" fill="#DA477E" d="M60.434,16.311c0.434-0.519,1.032-0.239,1.556-0.319
		c0.464,0.376,1.175,0.5,1.275,1.247c-0.494,0.539-1.028,0.982-1.84,0.784C60.864,17.587,60.677,16.933,60.434,16.311z"/>
	<path fill-rule="evenodd" clip-rule="evenodd" fill="#CF285B" d="M61.381,17.893c0.628-0.218,1.256-0.436,1.885-0.654
		c-0.105,0.426,0.555,0.827,0.04,1.265c-1.105-0.323-2.101,0.453-3.188,0.317c-0.08-0.123-0.089-0.249-0.028-0.382
		C60.452,18.095,60.865,17.872,61.381,17.893z"/>
	<path fill-rule="evenodd" clip-rule="evenodd" fill="#98B685" d="M62.624,45.51c-1.051,0.258-2.101,0.515-3.15,0.772
		c-0.178-0.24-0.522-0.499-0.497-0.714c0.061-0.507,0.556-0.297,0.872-0.308c0.817-0.033,1.638-0.016,2.457-0.016
		C62.632,45.069,62.654,45.256,62.624,45.51z"/>
	<path fill-rule="evenodd" clip-rule="evenodd" fill="#EF7389" d="M52.601,44.907c-0.465,0.328-0.629,0.813-0.706,1.342
		c-0.478-0.581-0.955-1.162-1.626-1.979C51.274,44.473,51.979,44.514,52.601,44.907z"/>
	<path fill-rule="evenodd" clip-rule="evenodd" fill="#E9607D" d="M40.535,50.628c-0.189,0.21-0.378,0.421-0.566,0.628
		c-0.776-1.127-0.707-2.269-0.057-3.419c0.209-0.002,0.419-0.005,0.628-0.008C39.975,48.762,40.373,49.696,40.535,50.628z"/>
	<path fill-rule="evenodd" clip-rule="evenodd" fill="#CF285B" d="M51.601,21.661c0.003,0.218,0.007,0.436,0.01,0.654
		c-0.477,0.389-0.911,0.853-1.583,0.898C50.441,22.585,50.954,22.056,51.601,21.661z"/>
	<path fill-rule="evenodd" clip-rule="evenodd" fill="#99A27B" d="M62.624,45.51c-0.105-0.088-0.213-0.177-0.318-0.265
		c0.449-0.466,1.116-0.269,1.634-0.529c0.112,0.089,0.225,0.179,0.338,0.269C63.819,45.45,63.13,45.191,62.624,45.51z"/>
	<path fill-rule="evenodd" clip-rule="evenodd" fill="#98AB7F" d="M73.333,40.833c-0.131,0.958-0.793,1.04-1.563,0.946
		C72.224,41.354,72.698,40.963,73.333,40.833z"/>
	<path fill-rule="evenodd" clip-rule="evenodd" fill="#E95E7D" d="M24.136,32.668c-0.31-0.105-0.62-0.21-0.929-0.315
		c-0.356-0.046-0.718-0.083-0.632-0.595c-0.003-0.108-0.005-0.217-0.009-0.326C23.12,31.807,24.014,31.749,24.136,32.668z"/>
	<path fill-rule="evenodd" clip-rule="evenodd" fill="#DD486F" d="M44.003,17.877c0.115,0.112,0.23,0.222,0.346,0.333
		c-0.157,0.238-0.286,0.763-0.521,0.604C43.543,18.622,43.687,18.153,44.003,17.877z"/>
	<path fill-rule="evenodd" clip-rule="evenodd" fill="#E85E7D" d="M28.54,29.234c-0.104,0.107-0.21,0.215-0.315,0.323
		c-0.324-0.234-0.307-0.579-0.299-0.921c-0.133-0.142-0.124-0.273,0.029-0.394C28.15,28.573,28.344,28.904,28.54,29.234z"/>
	<path fill-rule="evenodd" clip-rule="evenodd" fill="#F06E87" d="M27.955,28.243c-0.009,0.131-0.019,0.262-0.029,0.393
		c-0.368-0.361-0.559-0.803-0.605-1.312c0.098,0,0.195,0.001,0.292,0C27.727,27.63,27.84,27.937,27.955,28.243z"/>
	<path fill-rule="evenodd" clip-rule="evenodd" fill="#91A77A" d="M62.033,63.12c0.249,0.161,0.375,0.417,0.244,0.666
		c-0.179,0.343-0.439,0.035-0.665-0.003C61.752,63.563,61.892,63.34,62.033,63.12z"/>
	<path fill-rule="evenodd" clip-rule="evenodd" fill="#99B986" d="M84.441,68.403c-4.004-6.218-11.05-7.934-16.516-12.069
		c1.675-0.802,3.387-0.927,5.021-1.242c2.698-0.52,5.438-0.83,8.158-1.236c1.075-0.162,1.489,0.491,1.799,1.347
		c0.642,1.777,0.86,3.642,1.048,5.493C84.204,63.197,84.279,65.719,84.441,68.403z"/>
	<path fill-rule="evenodd" clip-rule="evenodd" fill="#98B886" d="M75.31,62.377c2.828,1.332,5.092,3.043,7.02,5.199
		c0.361,0.404,0.745,0.873,0.386,1.377c-0.331,0.469-0.738-0.092-1.109-0.161c-1.276-0.243-2.524-0.709-3.807-0.819
		c-1.93-0.164-2.368-1.398-2.479-2.955C75.261,64.193,75.31,63.36,75.31,62.377z"/>
	<path fill-rule="evenodd" clip-rule="evenodd" fill="#F8DEB0" d="M34.274,33.311c1.023,0.071,1.971-0.104,2.636-0.962
		c0.73-0.941,1.377-0.023,2.062,0.048c0.094,0.134,0.084,0.266-0.012,0.395c-0.301,0.282-0.711,0.422-0.974,0.753
		c-0.422,0.531-0.557,1.101-0.198,1.715c0.224,0.38,0.559,0.636,1.02,0.55c0.671-0.126,1.077-0.578,1.274-1.21
		c0.16-0.511-0.046-1.021-0.047-1.533c0.011-0.352,0.243-0.532,0.523-0.676c0.361-0.211,0.802-0.351,1.069-0.646
		c0.909-1.005,1.764-0.602,2.386,0.19c0.674,0.859,0.117,1.698-0.572,2.282c-0.438,0.372-0.942,0.664-1.238,1.173
		c-0.359,0.616-0.599,1.266-0.021,1.88c0.579,0.612,1.255,0.959,2.104,0.494c0.523-0.289,1.11-0.881,1.51,0.069
		c0.305,0.725,0.232,1.485-0.562,1.909c-0.771,0.413-1.514,0.779-2.51,0.552c-1.676-0.384-2.295,0.457-1.748,2.118
		c0.258,0.78,0.604,1.654-0.262,2.278c-1.02,0.735-1.648-0.084-2.262-0.717c-1.26-1.298-2.454-2.597-4.6-1.94
		c-0.744,0.227-0.92-0.563-0.878-1.16c0.101-1.413-0.21-2.661-1.027-3.854c-0.361-0.527-0.74-1.443,0.671-1.368
		c0.541,0.029,0.875-0.532,1.302-0.826C34.347,34.391,33.847,33.743,34.274,33.311z"/>
	<path fill-rule="evenodd" clip-rule="evenodd" fill="#CE2558" d="M30.166,43.371c-3.184,1.536-6.581,2.722-8.949,5.582
		c-0.291,0.352-0.638,1.261-1.293,0.638c-0.577-0.548,0.197-0.978,0.491-1.434c1.245-1.929,3.093-3.135,5.129-3.997
		c1.657-0.702,3.059-1.77,4.576-2.671C30.199,42.113,30.35,42.738,30.166,43.371z"/>
	<path fill-rule="evenodd" clip-rule="evenodd" fill="#CE2658" d="M20.07,34.238c2.167,0.642,4.343,1.257,6.497,1.938
		c0.759,0.242,1.514,0.28,2.287,0.285c0.016,0.408,0.032,0.817,0.048,1.227c-3.303,0.074-6.184-1.393-9.169-2.483
		c-0.233-0.265-0.935-0.174-0.69-0.78C19.243,33.928,19.68,34.056,20.07,34.238z"/>
	<path fill-rule="evenodd" clip-rule="evenodd" fill="#CF2859" d="M37.121,46.828c-0.629,1.618-0.271,3.304-0.331,4.958
		c-0.036,0.991-0.016,1.972-0.313,2.935c-0.116,0.376,0.015,0.942-0.623,0.855c-0.602-0.08-0.737-0.636-0.617-1.086
		c0.709-2.655-0.156-5.422,0.588-8.069c0.069-0.243,0.022-0.52,0.03-0.781C36.395,45.911,36.779,46.347,37.121,46.828z"/>
	<path fill-rule="evenodd" clip-rule="evenodd" fill="#CF2859" d="M37.097,23.57c-0.044,1.782-0.524,3.538-0.322,5.335
		c-0.415,0.119-0.83,0.238-1.245,0.358c-0.056-2.142-0.104-4.284,0.628-6.349c0.215-0.284,0.19-0.967,0.765-0.679
		C37.494,22.521,37.268,23.09,37.097,23.57z"/>
	<path fill-rule="evenodd" clip-rule="evenodd" fill="#D02B5C" d="M45.907,29.539c1.279-0.835,2.331-1.935,3.479-2.924
		c0.359-0.31,0.911-0.836,1.369-0.355c0.514,0.541-0.15,0.944-0.502,1.264c-1.118,1.02-2.279,1.993-3.425,2.984
		C46.521,30.187,46.214,29.863,45.907,29.539z"/>
	<path fill-rule="evenodd" clip-rule="evenodd" fill="#CF2759" d="M44.354,43.717c1.042,1.413,2.083,2.827,3.127,4.238
		c0.295,0.396,0.571,0.883,0.124,1.242c-0.49,0.394-0.867-0.095-1.148-0.451c-0.834-1.053-1.638-2.131-2.454-3.201
		c0.021-0.197,0.042-0.392,0.063-0.589C44.356,44.588,44.003,44.07,44.354,43.717z"/>
	<path fill-rule="evenodd" clip-rule="evenodd" fill="#D12C5C" d="M39.912,47.837c0.019,1.14,0.038,2.279,0.057,3.419
		c-0.086,0.246-0.161,0.499-0.262,0.737c-0.131,0.315-0.11,0.83-0.631,0.737c-0.538-0.097-0.584-0.663-0.519-1.011
		c0.246-1.304,0.05-2.615,0.167-3.916C39.121,47.814,39.516,47.827,39.912,47.837z"/>
	<path fill-rule="evenodd" clip-rule="evenodd" fill="#D02A5B" d="M48.765,37.422c1.021-0.156,2.051-0.273,3.062-0.483
		c0.489-0.103,1.018-0.276,1.201,0.285c0.236,0.724-0.503,0.854-0.938,0.978c-1.088,0.311-2.211,0.504-3.319,0.742
		C48.768,38.437,48.767,37.93,48.765,37.422z"/>
	<path fill-rule="evenodd" clip-rule="evenodd" fill="#F0D3A0" d="M40.558,32.39c-0.111,0.211-0.222,0.421-0.333,0.632
		c-0.508,0.161-0.93,0.044-1.254-0.388c0.003-0.079,0.003-0.159,0-0.238C39.501,32.394,40.029,32.392,40.558,32.39z"/>
	<path fill-rule="evenodd" clip-rule="evenodd" fill="#CEA762" d="M34.274,33.311c-0.143,0.498,0.21,1.112-0.354,1.514
		C34.016,34.313,33.704,33.709,34.274,33.311z"/>
	<path fill-rule="evenodd" clip-rule="evenodd" fill="#CD5759" d="M44.354,43.717c-0.032,0.428,0.12,0.898-0.289,1.239
		c0.038-0.54-0.221-1.124,0.251-1.594C44.329,43.481,44.342,43.599,44.354,43.717z"/>
	<path fill-rule="evenodd" clip-rule="evenodd" fill="#D22E5D" d="M37.097,23.57c-0.081-0.368,0.182-0.861-0.25-1.088
		c-0.343-0.181-0.42,0.337-0.688,0.432c-0.067-0.459,0.071-0.869,0.308-1.254c0.208-0.345,0.516-0.623,0.884-0.347
		c0.317,0.237,0.264,0.648,0.064,0.999C37.365,22.745,37.532,23.233,37.097,23.57z"/>
	<path fill-rule="evenodd" clip-rule="evenodd" fill="#D73964" d="M37.416,22.313c0.023-0.71-0.159-1.121-0.948-0.652
		c0.062-0.603,0.416-1.305,0.949-1.035C38.04,20.943,37.842,21.736,37.416,22.313z"/>
	<path fill-rule="evenodd" clip-rule="evenodd" fill="#D22E5D" d="M20.07,34.238c-0.281,0.05-0.671-0.1-0.797,0.259
		c-0.128,0.36,0.376,0.42,0.459,0.708c-0.994-0.031-1.764-0.468-2.288-1.306c-0.048-0.075,0.046-0.348,0.128-0.377
		C18.568,33.168,19.265,33.897,20.07,34.238z"/>
	<path fill-rule="evenodd" clip-rule="evenodd" fill="#D53461" d="M22.576,31.758c0.21,0.198,0.421,0.396,0.632,0.595
		c-0.104,0.312-0.208,0.623-0.313,0.935c-0.514-0.27-1.27-0.343-1.186-1.156C21.759,31.647,22.236,31.773,22.576,31.758z"/>
	<path fill-rule="evenodd" clip-rule="evenodd" fill="#D4366A" d="M60.123,18.52c0,0.101-0.003,0.201-0.005,0.301
		c-0.771,0.479-1.659,0.49-2.517,0.615c1.005-0.832-0.251-1.659-0.006-2.489c0.435-0.524,1.039-0.245,1.567-0.33
		C60.323,16.83,60.152,17.71,60.123,18.52z"/>
	<path fill-rule="evenodd" clip-rule="evenodd" fill="#D73E73" d="M60.123,18.52c-0.551-0.519-0.221-1.479-0.96-1.902
		c0.339-0.449,0.833-0.26,1.271-0.306c0.878,0.192,0.729,0.996,0.947,1.582C61.058,18.295,60.618,18.463,60.123,18.52z"/>
	<path fill-rule="evenodd" clip-rule="evenodd" fill="#C79E55" d="M35.043,35.155c1.169,0.124,1.875,0.7,1.845,1.797
		c-0.03,1.124-0.76,1.917-1.867,1.909c-0.992-0.005-1.77-0.589-1.712-1.787C33.366,35.911,33.969,35.279,35.043,35.155z"/>
	<path fill-rule="evenodd" clip-rule="evenodd" fill="#C79E55" d="M38.972,32.634c0.418,0.129,0.836,0.259,1.254,0.388
		c0.305,0.457,0.427,0.964,0.331,1.499c-0.179,0.991-0.864,1.593-1.771,1.792c-0.66,0.145-1.154-0.323-1.461-0.956
		c-0.441-0.91-0.09-1.62,0.498-2.285C38.124,32.731,38.549,32.678,38.972,32.634z"/>
	<path fill-rule="evenodd" clip-rule="evenodd" fill="#C89E55" d="M38.362,41.824c-0.989-0.013-1.56-0.463-1.584-1.501
		c-0.023-0.979,0.382-1.641,1.417-1.667c1.113-0.027,1.62,0.773,1.643,1.706C39.858,41.185,39.364,41.842,38.362,41.824z"/>
</g>
</svg>
