<?xml version="1.0" encoding="utf-8"?>
<!-- Generator: Adobe Illustrator 16.0.2, SVG Export Plug-In . SVG Version: 6.00 Build 0)  -->
<!DOCTYPE svg PUBLIC "-//W3C//DTD SVG 1.1//EN" "http://www.w3.org/Graphics/SVG/1.1/DTD/svg11.dtd">
<svg version="1.1" id="Layer_1" xmlns="http://www.w3.org/2000/svg" xmlns:xlink="http://www.w3.org/1999/xlink" x="0px" y="0px"
	 width="91px" height="81px" viewBox="0 0 91 81" enable-background="new 0 0 91 81" xml:space="preserve">
<g>
	<path fill-rule="evenodd" clip-rule="evenodd" fill="#A222AB" d="M23.243,32.002c2.334-1.422,4.796-2.43,7.801-2.284
		c-1.303-1.991-2.505-3.797-2.9-6.03c-0.497-2.806,1.821-7.888,4.3-9.249c1.01-0.554,1.908-0.585,2.917,0.022
		c3.337,2.01,5.861,4.797,7.873,8.313c0.657-2.527,1.459-4.9,2.622-7.111c1.568-2.98,3.677-5.591,6.721-7.008
		c4.262-1.983,7.064-1.688,8.79,4.049c0.885,2.944,0.962,3.381-0.514,8.737c2.146-1.704,4.318-3.213,6.933-3.806
		c2.945-0.667,5.66-0.343,7.75,2.213c1.511,1.85,1.689,3.892,0.914,6.065c-1.137,3.181-3.384,5.359-6.256,6.947
		c-0.533,0.294-1.069,0.583-1.923,1.05c2.936,0.647,5.525,1.252,7.892,2.497c2.452,1.291,4.783,2.743,6.313,5.202
		c2.431,3.906,0.301,8.158-4.284,8.734c-1.916,0.24-3.821,0.237-5.735,0.307c-1.911,0.066-3.78-0.321-5.906-0.542
		c1.623,3.865,1.677,7.788,1.58,11.731c-0.046,1.876-0.505,3.641-1.356,5.292c-1.081,2.097-2.424,2.616-4.637,1.903
		c-2.388-0.767-3.745-2.511-4.527-4.818c-0.3-0.885-0.6-1.767-1.025-3.022c-0.734,2.848-1.455,5.273-2.679,7.509
		c-1.592,2.912-4.932,3.473-7.288,1.138c-1.777-1.765-3.35-3.715-4.538-5.95c-0.988-0.828-0.962-2.156-1.532-3.189
		c-0.336-1.379-0.587-2.771-0.415-4.273c-2.049,2.03-4.166,3.852-6.662,5.171c-0.789,0.419-1.603,0.751-2.465,0.941
		c-2.963,0.656-5.224-0.597-6.295-3.473c-0.183-0.489-0.356-0.985-0.463-1.502c-0.071-0.396-0.083-0.795-0.054-1.194
		c0.054-0.55,0.224-1.077,0.329-1.615c0.028-0.154,0.072-0.301,0.119-0.45c1.088-3.002,2.811-5.539,5.354-7.472
		c0.561-0.502,1.122-1.006,1.757-1.497c-1.063-0.323-2.125-0.322-3.158-0.514c-2.973-0.733-5.652-1.987-7.662-4.433
		c-0.257-0.392-0.507-0.789-0.764-1.184c-0.961-1.545-0.727-3.077,0.047-4.604C21.04,33.518,21.821,32.377,23.243,32.002z"/>
	<path fill-rule="evenodd" clip-rule="evenodd" fill="#27B290" d="M23.243,32.002c-0.88,0.833-1.759,1.666-2.639,2.499
		c-0.499,0.256-1.029,0.147-1.531,0.076c-3.108-0.44-5.816,0.667-8.422,2.179c-0.314,0.235-0.979,0.245-0.57,0.937
		c2.521,2.578,5.086,5.047,8.276,6.833c2.206,1.233,4.317,1.289,6.546,0.46c1.197-0.446,2.4-0.569,3.647-0.499
		c1.29,0.167,2.579,0.333,4.164,0.537c-0.982,0.806-1.752,1.438-2.522,2.071c-2.107,1.111-4.445,1.545-6.666,2.325
		c-0.724,0.255-1.488,0.43-2.056,1.009c-1.65,2.022-2.685,4.373-3.511,6.83c-1.195,3.095-1.917,6.305-2.306,9.688
		c0.84-1.373,1.555-2.758,2.3-4.108c1.317-2.387,3.242-4.197,5.122-6.067c0.395-0.394,0.799-0.864,1.474-0.641
		c0,0.432,0.001,0.864,0.001,1.296c-0.421,0.883-1.238,1.404-1.871,2.094c-2.751,2.997-4.688,6.509-6.583,10.362
		c1.917-0.211,3.461-0.401,4.247-2.29c0.546-1.309,1.49-2.402,2.404-3.482c1.332-1.572,2.766-1.675,4.319-0.286
		c0.855,0.765,1.728,1.544,2.302,2.558c0.566,0.998,1.324,1.214,2.36,0.905c3.211-0.957,6.159-2.269,7.826-5.495
		c0.267-0.517,0.492-1.201,1.289-1.173c0.611,1.014,0.835,2.177,1.234,3.272c-2.973,4.779-7.742,6.325-12.817,7.375
		c-0.841,0.172-0.791-0.35-1.008-0.798c-0.376-0.771-0.332-1.772-1.266-2.253c-0.744-0.384-1.137-1.749-1.815-1.552
		c-0.883,0.26-1.569,1.24-2.315,1.935c-0.225,0.209-0.474,0.481-0.535,0.765c-0.626,2.914-2.909,3.49-5.307,3.923
		c-0.254,0.046-0.523,0.066-0.757,0.17c-3.125,1.355-3.738,0.144-3.781-2.773c-0.114-7.784,1.744-14.969,5.851-21.546
		c0.328-0.524,0.5-0.809-0.269-1.148c-3.728-1.648-6.726-4.304-9.504-7.249c-0.715-0.759-1.497-1.453-2.254-2.171
		c-1.16-1.101-1.123-2.077,0.167-2.967c1.801-1.243,3.666-2.398,5.652-3.296C15.765,30.658,19.511,31.23,23.243,32.002z"/>
	<path fill-rule="evenodd" clip-rule="evenodd" fill="#DD66E2" d="M43.962,46.779c-3.154,4.553-6.822,8.578-11.533,11.531
		c-0.436,0.273-0.906,0.51-1.389,0.682c-2.313,0.829-3.611-0.2-3.354-2.719c0.276-2.688,1.925-4.625,3.788-6.317
		c2.278-2.069,4.692-3.983,7.443-5.414c0.792-0.412,1.588-1.019,1.103-2.117c-0.432-0.976-1.2-1.032-2.216-0.812
		c-4.118,0.89-8.125,0.521-11.932-1.418c-0.186-0.094-0.368-0.195-0.546-0.303c-3.017-1.806-3.04-3.596-0.174-5.547
		c3.305-2.251,6.634-1.856,10.033-0.333c0.422,0.189,0.865,0.397,1.314,0.443c0.652,0.068,1.44,0.196,1.722-0.663
		c0.267-0.814,0.123-1.566-0.689-2.051c-2.448-1.458-4.082-3.682-5.552-6.059c-1.466-2.368-0.758-6.432,1.364-8.232
		c0.645-0.547,1.047-0.16,1.499,0.158c3.747,2.639,5.981,6.319,7.187,10.716c0.567,2.068,0.851,4.212,1.637,6.22
		c-0.327,0.966-0.64,1.945-1.783,2.249c-1.659-0.414-3.323-0.785-5.234-0.569c0.784,0.598,1.583,0.798,2.286,1.181
		c0.366,0.201,0.787,0.434,0.68,0.939c-0.106,0.498-0.581,0.582-0.995,0.598c-1.348,0.057-2.7,0.039-4.025,0.359
		c-0.449,0.108-0.935,0.086-1.386,0.454c2.591,0.01,5.085,0.391,7.593,0.626c0.469,0.045,0.929,0.12,1.333,0.394
		c0.683,0.635,0.976,1.451,1.086,2.354c-0.105,0.794-0.785,1.064-1.32,1.456c-1.763,1.293-3.697,2.327-5.316,3.849
		c-0.844,0.792-1.661,1.579-2.292,2.569c1.74-2.272,4.029-3.876,6.37-5.41c0.6-0.394,1.178-0.896,1.982-0.77
		c0.105,0.109,0.168,0.24,0.188,0.393c-0.613,1.551-2.002,2.483-2.949,3.772c-0.521,0.71-1.159,1.33-1.489,2.187
		c1.12-1.61,2.524-2.972,3.765-4.478c0.458-0.555,0.838-1.547,1.921-1.039C44.244,46.054,44.267,46.435,43.962,46.779z"/>
	<path fill-rule="evenodd" clip-rule="evenodd" fill="#DD66E2" d="M46.354,33.165c-1.322-7.05-0.27-13.567,4.294-19.256
		c1.301-1.623,2.955-2.724,5.03-3.211c1.097-0.258,1.645,0.115,2.124,1.004c1.297,2.406,1.373,4.867,0.559,7.453
		c-1.354,4.296-4.136,7.715-6.639,11.306c-0.392,0.56-0.858,1.05-0.968,1.759c-0.416,0.459-0.909,0.424-1.426,0.229
		c-0.727-0.702-0.44-1.547-0.277-2.346c0.452-2.217,1.305-4.295,2.188-6.358c-1.062,2.486-2.227,4.94-2.346,7.724
		c-0.023,0.495-0.134,0.929-0.519,1.263C47.744,33.068,47.168,33.69,46.354,33.165z"/>
	<path fill-rule="evenodd" clip-rule="evenodd" fill="#DA8748" d="M46.354,33.165c0.645-0.211,1.288-0.422,1.933-0.632
		c0.297-0.179,0.604-0.332,0.965-0.282c0.502-0.011,1.003-0.021,1.503-0.031c0.948,0.321,1.896,0.642,2.845,0.964
		c0.359,0.209,0.812,0.132,1.16,0.38c0.952,0.523,1.871,1.083,2.254,2.204c0.479,0.854,0.756,1.83,1.488,2.531
		c0.457,0.231,0.643,0.684,0.872,1.101c0.181,0.364,0.415,0.695,0.639,1.035c0.179,0.305,0.334,0.622,0.486,0.942
		c0.215,0.481,0.384,0.98,0.576,1.472c0.195,0.691,0.559,1.388-0.018,2.071c-0.31,0.846-0.617,1.691-0.927,2.538
		c-0.16,0.385-0.276,0.795-0.627,1.066c-0.178,0.121-0.371,0.204-0.574,0.272c-1.632,0.337-2.82,1.634-4.396,2.087
		c-0.211,0.124-0.419,0.244-0.63,0.365c-0.86,0.764-1.892,0.777-2.947,0.685c-0.417-0.031-0.811-0.157-1.191-0.324
		c-1.216-0.782-2.751-1.034-3.701-2.262c-0.944-0.649-1.562-1.576-2.102-2.566c-0.051-0.414-0.102-0.828-0.152-1.243
		c-0.318-0.179-0.445-0.482-0.526-0.818c-0.038-0.126-0.066-0.255-0.094-0.383c-0.113-0.31-0.096-0.645-0.192-0.956
		c-0.314-0.78-0.629-1.562-0.943-2.342c-0.286-0.315-0.39-0.699-0.408-1.116c-0.016-0.24-0.015-0.481-0.012-0.721
		c-0.005-0.319-0.001-0.639,0.001-0.958c0.002-0.325,0.007-0.651,0.071-0.972c0.063-0.247,0.167-0.464,0.416-0.573
		c0.413-0.791,0.89-1.538,1.544-2.152C44.563,34.084,45.458,33.625,46.354,33.165z"/>
	<path fill-rule="evenodd" clip-rule="evenodd" fill="#DD66E2" d="M59.188,39.556c-0.377-0.337-0.56-0.782-0.684-1.259
		c2.163-0.735,4.374-1.381,6.639-1.558c3.112-0.242,6.042,0.794,8.877,1.958c2.022,0.83,3.911,1.959,5.354,3.7
		c0.706,0.852,1.581,1.742,1.225,2.906c-0.383,1.252-1.604,1.872-2.772,2.053c-5.047,0.779-10.007,0.562-14.72-1.734
		c-0.645-0.313-1.364-0.475-2.049-0.706c-0.114-0.74-0.226-1.482-0.34-2.224c1.454-0.833,3.036-0.504,4.531-0.334
		c2.341,0.265,4.721,0.479,6.927,1.444c-3.112-1.391-6.525-1.388-9.95-1.935c0.561-1.354,2.107-0.798,2.57-1.834
		c-1.24-0.172-2.469-0.046-3.696-0.062C60.436,39.965,59.757,40.018,59.188,39.556z"/>
	<path fill-rule="evenodd" clip-rule="evenodd" fill="#DD66E2" d="M57.014,35.766c-0.838-0.669-1.493-1.571-2.499-2.027
		c0.008-0.86,0.757-1.071,1.284-1.432c2.448-1.679,5.132-2.957,7.641-4.54c-2.552,1.131-4.931,2.582-7.306,4.042
		c-0.502,0.307-0.96,0.889-1.672,0.466c1.443-2.421,3.653-4.133,5.623-6.038c2.049-1.981,4.093-4.063,6.824-5.146
		c1.645-0.652,3.301-1.369,5.074-0.391c1.877,1.035,2.358,2.655,1.537,4.666c-1.233,3.016-3.847,4.437-6.446,5.858
		C63.838,32.996,60.515,34.587,57.014,35.766z"/>
	<path fill-rule="evenodd" clip-rule="evenodd" fill="#DD66E2" d="M46.063,49.346c1.261,0.638,2.523,1.276,3.784,1.912
		c0.974,1.237,0.809,2.657,0.575,4.057c-0.396,2.374-1.066,4.682-1.763,6.979c-0.225,0.576-0.553,1.111-0.764,1.924
		c0.461-0.614,0.585-1.162,0.77-1.682c1.056-3.378,2.214-6.734,1.97-10.367c-0.014-0.211,0.047-0.411,0.152-0.597
		c1.045-0.046,2.097-0.016,3.115-0.324c-0.373,0.561-0.519,1.212-0.271,1.809c0.826,1.991,0.671,3.997,0.272,6.035
		c-0.545,2.785-1.169,5.535-2.504,8.071c-0.528,1.001-1.39,1.585-2.237,0.842c-3.464-3.03-5.982-6.649-5.532-11.578
		C43.861,53.904,44.646,51.491,46.063,49.346z"/>
	<path fill-rule="evenodd" clip-rule="evenodd" fill="#DAFBA2" d="M40.842,60.618c-1.24,1.335-1.782,3.224-3.295,4.34
		c-1.952,1.44-4.143,2.341-6.479,2.928c-0.731,0.183-1.169-0.003-1.539-0.648c-0.764-1.335-1.803-2.444-2.984-3.4
		c-1.332-1.078-2.43-0.955-3.474,0.414c-0.855,1.121-1.891,2.209-2.364,3.493c-0.95,2.582-3.18,2.16-5.082,2.675
		c2.295-4.852,4.446-9.744,8.923-12.993c1.305,5.021,4.409,6.138,9.083,3.643c2.648-1.412,4.672-3.596,7.125-5.683
		C40.238,57.295,40.688,58.949,40.842,60.618z"/>
	<path fill-rule="evenodd" clip-rule="evenodd" fill="#DD65E2" d="M54.533,50.882c1.283-1.101,2.673-2.006,4.323-2.441
		c1.578,1.199,1.863,3.041,2.28,4.798c0.286,1.212,0.34,2.467,0.532,3.696c0.007,0.209-0.005-0.064,0.011,0.146
		c0.014,0.201-0.029,0.407,0.03,0.607c-0.029-0.195-0.016-0.391-0.021-0.587c0.011-0.303-0.059-0.599-0.091-0.9
		c-0.036-0.699,0.056-1.409-0.178-2.094c-0.265-2.045-1.13-3.891-1.89-5.771c0.025-0.415,0.216-0.717,0.6-0.88
		c4.069,2.233,4.816,6.157,4.977,10.297c0.083,2.135,0.326,4.321-0.359,6.407c-0.258,0.787-0.223,2.092-1.29,2.071
		c-1.121-0.023-2.159-0.718-2.616-1.93c-0.937-2.492-1.897-4.972-2.303-7.643c-0.253-1.667-0.896-3.2-1.952-4.565
		C56.025,51.368,55.419,50.936,54.533,50.882z"/>
	<path fill-rule="evenodd" clip-rule="evenodd" fill="#DAFBA2" d="M28.549,44.486c-1.285,0.378-2.636,0.481-3.886,1.019
		c-2.984,1.28-5.535,0.078-7.997-1.507c-2.687-1.731-4.965-3.933-7.043-6.359c0.425-0.374,0.889-0.186,1.319-0.053
		c3.056,0.944,6.116,1.865,9.314,2.185c0.312,0.031,0.581,0.205,0.856,0.346C23.086,42.457,25.726,43.632,28.549,44.486z"/>
	<path fill-rule="evenodd" clip-rule="evenodd" fill="#DAFBA2" d="M24.547,56.13c-3.32,2.482-5.736,5.724-7.661,9.376
		c-0.452,0.856-0.911,1.711-1.508,2.516c0.14-3.769,0.785-7.408,2.293-10.865c0.887,0.354,1.566,0.038,2.193-0.623
		c0.708-0.743,1.397-1.518,2.324-2.012c0.937-0.501,1.837-0.638,2.688,0.17C24.985,55.222,24.704,55.661,24.547,56.13z"/>
	<path fill-rule="evenodd" clip-rule="evenodd" fill="#DAFBA2" d="M10.164,36.672c2.693-1.906,5.624-2.921,8.958-2.527
		c0.519,0.061,1.014,0.122,1.481,0.356c-0.624,1.544-1.06,3.093-0.119,4.677c-0.586,0.588-1.267,0.271-1.916,0.19
		c-2.478-0.308-4.862-1.044-7.272-1.662C10.755,37.569,10.126,37.482,10.164,36.672z"/>
	<path fill-rule="evenodd" clip-rule="evenodd" fill="#DBFBA6" d="M24.877,54.691c-1.719-0.584-2.965,0.181-4.071,1.426
		c-0.484,0.542-0.975,1.121-1.573,1.504c-0.567,0.366-1.299,0.563-1.561-0.465c0.677-2.55,1.78-4.875,3.497-6.878
		c1.56-0.015,3.08,1.126,3.301,2.489c0.093,0.571,0.418,1.067,0.487,1.644C24.971,54.517,24.944,54.609,24.877,54.691z"/>
	<path fill-rule="evenodd" clip-rule="evenodd" fill="#DAFBA2" d="M24.958,54.411c-0.628-0.617-1.281-1.222-0.875-2.253
		c0.082-0.206,0.042-0.541-0.129-0.515c-1.255,0.192-1.729-1.191-2.785-1.365c0.147-0.368,0.446-0.56,0.792-0.691
		c2.688-1.019,5.41-1.919,8.229-2.492C27.79,49.051,26.048,51.491,24.958,54.411z"/>
	<path fill-rule="evenodd" clip-rule="evenodd" fill="#A525AD" d="M54.462,32.275c2.749-1.549,5.488-3.114,8.256-4.631
		c0.456-0.25,0.892-0.755,1.633-0.465c-0.255,0.944-1.063,1.217-1.745,1.607c-2.746,1.568-5.625,2.914-8.091,4.953
		c-0.355-0.1-0.7-0.219-0.915-0.557C53.888,32.88,54.175,32.578,54.462,32.275z"/>
	<path fill-rule="evenodd" clip-rule="evenodd" fill="#2FB591" d="M10.164,36.672c0.669,0.905,1.721,0.779,2.639,0.983
		c2.549,0.566,5.037,1.456,7.682,1.523c0.209,0.313,0.418,0.626,0.627,0.939c-3.817,0.099-7.324-1.289-10.903-2.331
		c-0.194-0.057-0.391-0.099-0.586-0.148C9.083,36.903,9.625,36.788,10.164,36.672z"/>
	<path fill-rule="evenodd" clip-rule="evenodd" fill="#A626AE" d="M42.122,36.697c-0.051,0.213-0.1,0.427-0.149,0.641
		c-0.518,0.361-0.949-0.07-1.419-0.156c-0.09-0.042-0.183-0.078-0.271-0.122c-0.161-0.081-0.181-0.082-0.046,0.011
		c0.608,0.338,1.41,0.346,1.709,1.129c-0.002,0.329-0.003,0.659-0.004,0.988c-0.515,0.503-1.163,0.266-1.757,0.327
		c-1.124-0.127-2.252-0.206-3.387-0.139c0.959-0.021,1.92-0.079,2.868,0.13c0.758,0.13,1.593-0.253,2.277,0.354
		c0.036,0.392,0.073,0.785,0.109,1.177c-2.942-0.433-5.873-1.045-8.871-0.68c-0.453,0.055-0.899,0.093-0.999-0.423
		c-0.089-0.46,0.408-0.575,0.726-0.67c1.488-0.445,3.005-0.728,4.566-0.711c0.612,0.006,1.224,0.001,1.899-0.17
		c-1.025-1.104-2.619-1.222-3.958-2.44C37.919,35.552,40.069,35.547,42.122,36.697z"/>
	<path fill-rule="evenodd" clip-rule="evenodd" fill="#A424AD" d="M42.997,43.379c0.164,0.283,0.329,0.566,0.494,0.849
		c-0.201,0.315-0.415,0.614-0.836,0.628c-3.414,1.834-6.402,4.229-9.058,7.078C35.502,47.682,39.573,45.896,42.997,43.379z"/>
	<path fill-rule="evenodd" clip-rule="evenodd" fill="#A929B1" d="M43.543,44.592c0.089,0.313,0.179,0.629,0.267,0.944
		c-1.828,1.762-3.426,3.726-4.945,5.76c-0.252,0.337-0.496,1.031-1.013,0.648c-0.46-0.342,0.004-0.877,0.251-1.237
		c1.353-1.971,3.018-3.678,4.571-5.479C42.914,44.947,42.992,44.437,43.543,44.592z"/>
	<path fill-rule="evenodd" clip-rule="evenodd" fill="#CE55D1" d="M43.543,44.592c-0.29,0.211-0.58,0.423-0.87,0.634
		c-0.006-0.122-0.012-0.245-0.018-0.37c0.169-0.36,0.462-0.549,0.836-0.628C43.508,44.349,43.525,44.471,43.543,44.592z"/>
	<path fill-rule="evenodd" clip-rule="evenodd" fill="#A727AF" d="M49.252,32.25c-0.263,0.298-0.603,0.329-0.965,0.282
		c0.366-2.469,0.706-4.944,1.794-7.232c0.313-0.659,0.57-1.344,0.893-1.998c0.173-0.349,0.36-0.941,0.853-0.642
		c0.411,0.249,0.112,0.725-0.064,1.119C50.547,26.487,49.213,29.161,49.252,32.25z"/>
	<path fill-rule="evenodd" clip-rule="evenodd" fill="#FBF29F" d="M57.008,43.627c0.315,0.502,1.603,0.297,0.985,1.497
		c-0.513,1-1.372,1.361-2.293,1.112c-0.972-0.262-1.414-0.284-1.548,0.904c-0.127,1.136-1.202,1.316-2.093,1.528
		c-0.561,0.134-0.632-0.319-0.68-0.787c-0.154-1.494-0.868-2.321-2.473-1.992c-0.336,0.374-0.418,0.97-0.976,1.152
		c-0.792-0.423-1.205-1.043-1.3-1.991c-0.099-0.987-0.406-1.952-0.911-2.831c-0.157-0.271-0.314-0.552-0.414-0.848
		c-1.02-3.032-0.815-4.346,2.099-5.445c3.386-1.277,5.994-0.491,7.854,2.684c0.608,1.041,1.209,2.086,1.812,3.13
		C57.482,42.385,56.562,42.982,57.008,43.627z"/>
	<path fill-rule="evenodd" clip-rule="evenodd" fill="#A424AD" d="M65.785,39.816c0.458,0.623-0.163,0.724-0.466,0.841
		c-0.859,0.335-1.751,0.588-2.645,0.977c2.705-0.022,5.329,0.519,7.949,1.067c0.604,0.126,1.2,0.316,1.78,0.535
		c0.438,0.164,0.967,0.422,0.704,1.011c-0.244,0.544-0.857,0.429-1.236,0.219c-3.517-1.936-7.352-1.737-11.154-1.772
		c-0.18-0.426-0.358-0.852-0.536-1.277c0.147-0.523,0.596-0.795,1.025-0.751c0.875,0.089,0.194-0.563,0.419-0.761
		C63.008,39.501,64.396,39.641,65.785,39.816z"/>
	<path fill-rule="evenodd" clip-rule="evenodd" fill="#A626AF" d="M48.262,62.571c0.465-1.868,0.904-3.743,1.404-5.604
		c0.512-1.896,0.675-3.789,0.182-5.71c0.313,0.105,0.627,0.208,0.94,0.313c0.741,2.199,0.148,4.337-0.371,6.449
		c-0.408,1.659-0.707,3.369-1.551,4.893c-0.119,0.234-0.305,0.432-0.555,0.283C48.076,63.06,48.096,62.795,48.262,62.571z"/>
	<path fill-rule="evenodd" clip-rule="evenodd" fill="#AA2BB3" d="M59.531,48.336c1.572,1.569,1.904,3.621,2.167,5.702
		c0.377,0.705-0.104,1.528,0.294,2.23c0.007,0.319,0.014,0.636,0.02,0.954c-0.21,0.183-0.418,0.186-0.628-0.005
		c-0.216-1.229-0.499-2.451-0.631-3.691c-0.2-1.873-1.036-3.479-1.896-5.086C59.082,48.405,59.307,48.371,59.531,48.336z"/>
	<path fill-rule="evenodd" clip-rule="evenodd" fill="#A627AF" d="M65.785,39.816c-0.965,0.007-1.929,0.001-2.892,0.023
		c-0.478,0.012-1.069-0.167-1.204,0.586c-0.632,0.45-1.279,0.479-1.943,0.07c-0.314-0.235-0.531-0.529-0.559-0.94
		C61.385,39.667,63.606,39.193,65.785,39.816z"/>
	<path fill-rule="evenodd" clip-rule="evenodd" fill="#F8E998" d="M49.236,46.494c0.818,0.119,1.475,0.632,1.134,1.409
		c-0.29,0.665-0.895-0.301-1.41-0.191C48.476,47.172,48.662,46.787,49.236,46.494z"/>
	<path fill-rule="evenodd" clip-rule="evenodd" fill="#D058D3" d="M41.946,38.201c-0.69-0.304-1.382-0.607-2.072-0.91
		c-0.055-0.6,0.283-0.457,0.611-0.333c0.496,0.127,0.991,0.253,1.487,0.38C41.964,37.626,41.955,37.913,41.946,38.201z"/>
	<path fill-rule="evenodd" clip-rule="evenodd" fill="#DA63DE" d="M59.746,40.496c0.648-0.022,1.296-0.046,1.943-0.069
		c0.125,0.092,0.646,0.088,0.142,0.354c-0.517,0.274-1.099,0.428-1.649,0.635C60.037,41.11,59.893,40.803,59.746,40.496z"/>
	<path fill-rule="evenodd" clip-rule="evenodd" fill="#DD65E2" d="M40.161,39.201c0.594-0.004,1.188-0.008,1.781-0.011
		c0,0.222,0.001,0.446,0.002,0.67c-0.791-0.013-1.581-0.027-2.371-0.04C39.341,39.196,40.055,39.495,40.161,39.201z"/>
	<path fill-rule="evenodd" clip-rule="evenodd" fill="#DE9654" d="M49.236,46.494c-0.272,0.364-0.421,0.758-0.277,1.218
		c-0.395-0.139-0.804-0.26-1.027-0.67c0.094-0.585,0.381-1.002,0.976-1.152C48.907,46.152,48.993,46.368,49.236,46.494z"/>
	<path fill-rule="evenodd" clip-rule="evenodd" fill="#DF9754" d="M57.008,43.627c-0.673-0.652-0.036-1.261,0.062-1.886
		C57.914,42.398,57.218,43.005,57.008,43.627z"/>
	<path fill-rule="evenodd" clip-rule="evenodd" fill="#AC2DB5" d="M48.262,62.571c-0.006,0.491,0.221,0.556,0.604,0.342
		c-0.211,0.839-0.389,1.697-1.43,2.194C47.435,64.058,47.676,63.26,48.262,62.571z"/>
	<path fill-rule="evenodd" clip-rule="evenodd" fill="#AF31B7" d="M61.384,57.218c0.21,0.003,0.419,0.003,0.628,0.005
		c0,0.461,0,0.921,0,1.484C61.22,58.439,61.396,57.783,61.384,57.218z"/>
	<path fill-rule="evenodd" clip-rule="evenodd" fill="#AF31B7" d="M61.992,56.269c-0.588-0.677-0.196-1.487-0.295-2.23
		C62.231,54.723,61.867,55.527,61.992,56.269z"/>
	<path fill-rule="evenodd" clip-rule="evenodd" fill="#B73ABE" d="M40.161,39.201c-0.196,0.206-0.393,0.413-0.588,0.619
		c-0.981-0.563-2.103-0.114-3.12-0.619C37.689,39.201,38.925,39.201,40.161,39.201z"/>
	<path fill-rule="evenodd" clip-rule="evenodd" fill="#BA3DC2" d="M40.485,36.958c-0.244,0.034-0.49,0.067-0.611,0.333
		c-0.227-0.116-0.454-0.231-0.869-0.443C39.645,36.644,40.074,36.541,40.485,36.958z"/>
	<path fill-rule="evenodd" clip-rule="evenodd" fill="#DD904F" d="M48.959,38.252c0.613,0.162,0.969,0.485,0.81,1.03
		c-0.212,0.733-0.694,1.378-1.496,1.352c-0.533-0.018-1.173-0.444-1.014-1.116C47.464,38.659,48.452,38.702,48.959,38.252z"/>
	<path fill-rule="evenodd" clip-rule="evenodd" fill="#DC8F4E" d="M52.17,39.439c0.111-0.675,0.312-1.247,1.146-1.166
		c0.6,0.058,1.008,0.39,0.896,1.018c-0.127,0.715-0.339,1.499-1.287,1.463C52.06,40.723,52.396,39.897,52.17,39.439z"/>
	<path fill-rule="evenodd" clip-rule="evenodd" fill="#E2A05C" d="M53.24,43.849c-0.286-0.062-0.512-0.214-0.5-0.503
		c0.02-0.434,0.315-0.645,0.721-0.619c0.3,0.019,0.427,0.255,0.381,0.551C53.79,43.626,53.577,43.817,53.24,43.849z"/>
	<path fill-rule="evenodd" clip-rule="evenodd" fill="#E1A05C" d="M50.368,41.692c-0.028,0.353-0.223,0.566-0.57,0.616
		c-0.302,0.044-0.505-0.113-0.545-0.407c-0.047-0.351,0.122-0.633,0.459-0.709C50.067,41.112,50.284,41.331,50.368,41.692z"/>
</g>
</svg>
