<?xml version="1.0" encoding="utf-8"?>
<!-- Generator: Adobe Illustrator 16.0.2, SVG Export Plug-In . SVG Version: 6.00 Build 0)  -->
<!DOCTYPE svg PUBLIC "-//W3C//DTD SVG 1.1//EN" "http://www.w3.org/Graphics/SVG/1.1/DTD/svg11.dtd">
<svg version="1.1" id="Layer_1" xmlns="http://www.w3.org/2000/svg" xmlns:xlink="http://www.w3.org/1999/xlink" x="0px" y="0px"
	 width="77px" height="98px" viewBox="0 0 77 98" enable-background="new 0 0 77 98" xml:space="preserve">
<g>
	<path fill-rule="evenodd" clip-rule="evenodd" fill="#A9AB22" d="M41.648,59.928c-0.744,0.71-1.177,1.812-2.348,1.981
		c-1.112,0.16-2.29,0.517-3.261-0.311c-3.586-3.057-5.953-6.819-6.191-11.75c-0.023-0.502,0.065-1.01,0.115-1.712
		c-0.784,0.725-1.488,1.381-2.198,2.03c-1.802,1.644-3.676,3.158-6.068,3.822c-3.399,0.942-6.333-1.977-5.641-5.565
		c0.748-3.875,3.194-6.461,6.074-8.749c0.212-0.168,0.415-0.348,0.618-0.529c0.026-0.023,0.021-0.084,0.051-0.22
		c-1.823-0.37-3.718-0.424-5.448-1.218c-1.875-0.862-3.634-1.853-4.756-3.745c-1.019-1.719-0.934-3.365,0.396-4.854
		c2.255-2.525,5.083-3.752,8.568-3.781c-1.111-1.721-2.158-3.32-2.502-5.295c-0.434-2.482,1.585-6.981,3.745-8.186
		c0.88-0.49,1.663-0.52,2.543,0.018c2.909,1.779,5.108,4.246,6.862,7.357c0.574-2.237,1.272-4.337,2.286-6.293
		c1.367-2.638,3.205-4.948,5.86-6.202c3.713-1.754,6.156-1.491,7.658,3.585c0.761,2.566,0.854,2.94-0.444,7.73
		c1.868-1.509,3.764-2.844,6.043-3.368c2.565-0.59,4.934-0.301,6.754,1.961c1.316,1.637,1.471,3.445,0.794,5.368
		c-0.991,2.815-2.949,4.743-5.454,6.146c-0.465,0.261-0.931,0.517-1.675,0.929c2.563,0.569,4.82,1.108,6.884,2.212
		c2.094,1.121,4.094,2.374,5.424,4.49c2.215,3.521,0.397,7.311-3.665,7.837c-3.333,0.432-6.633,0.317-10.143-0.203
		c1.396,3.379,1.453,6.803,1.384,10.248c-0.03,1.614-0.402,3.135-1.058,4.58c-1.033,2.286-2.313,2.651-5.2,1.556
		c-1.381-0.209-2.002-1.384-2.804-2.332c-0.364-1.213-0.816-2.401-1.053-3.654c-0.063-0.175-0.31,0.057-0.144-0.02
		c0.066-0.031,0.105-0.008,0.114,0.068c0.166,1.328-0.46,2.469-0.817,3.674C42.502,58.323,42.239,59.22,41.648,59.928z"/>
	<path fill-rule="evenodd" clip-rule="evenodd" fill="#1E7158" d="M45.052,57.503c0.989,0.618,1.566,1.731,2.602,2.294
		c0.823,5.013,0.022,9.78-2.036,14.361c-0.132,0.293-0.244,0.606-0.3,0.923c-0.146,0.827-0.916,1.822,0.595,2.237
		c0.25,0.068,0.381,0.596,0.642,1.038c1.586-3.617,4.985-4.985,7.822-7.036c2.145-1.552,4.277-3.119,6.411-4.687
		c0.541-0.397,1.051-1.039,1.762-0.374c0.721,0.674,0.257,1.335-0.101,1.996c-3.79,7.005-9.263,12.441-15.295,17.35
		c-2.507,2.038-4.656,4.366-6.065,7.355c-0.445,0.944-1.54,1.075-2.01,0.139c-0.699-1.396-1.917-2.069-3.139-2.735
		c-6.621-3.603-11.673-8.981-16.102-15.048c-3.615-4.951-5.626-10.635-6.876-16.635c-0.114-0.545-0.206-1.107-0.202-1.66
		c0.005-0.641,0.264-1.253,0.952-1.337c0.633-0.076,0.966,0.453,1.116,1.015c0.711,2.652,2.2,4.871,3.706,7.076
		c1.792,2.626,4.084,4.714,6.72,6.404c2.722,1.745,5.458,3.468,8.199,5.183c1.517,0.948,2.849,2.124,4.064,3.498
		c4.057-5.763,5.462-12.032,4.13-18.932c0.072-0.904,0.64-1.593,0.978-2.379c1.314,0.635,1.341,1.989,1.579,3.165
		c0.562,2.771,0.331,5.554-0.04,8.338c-0.477,3.591-1.917,6.777-3.758,9.806c-0.432,0.712-0.839,1.439-1.268,2.151
		c-0.616,1.021-1.46,1.154-2.418,0.451c-0.11-0.081-0.22-0.169-0.309-0.273c-2.997-3.503-7.016-5.542-10.789-7.925
		c-2.278-1.438-4.554-2.858-6.214-4.871c3.154,4.622,6.922,8.753,12.034,11.477c2.243,1.195,4.285,2.788,6.488,4.083
		c0.598,0.351,1.011,0.92,1.657,1.523c0.691-1.344,1.511-2.548,2.135-3.851c0.327-0.686-0.229-1.491-0.018-2.32
		c0.652-2.572,1.259-5.164,2.305-7.598c1.852-4.313,1.945-8.741,1.053-13.268C45.003,58.127,44.832,57.818,45.052,57.503z"/>
	<path fill-rule="evenodd" clip-rule="evenodd" fill="#DDE266" d="M32.831,40.492c-2.762,4.01-5.943,7.584-10.051,10.187
		c-0.38,0.24-0.791,0.447-1.211,0.601c-2.006,0.726-3.137-0.19-2.91-2.418c0.242-2.376,1.681-4.087,3.301-5.584
		c1.983-1.83,4.084-3.523,6.48-4.788c0.688-0.363,1.385-0.897,0.968-1.869c-0.37-0.865-1.037-0.926-1.923-0.73
		c-3.634,0.803-7.165,0.454-10.514-1.301c-0.121-0.063-0.237-0.136-0.354-0.206c-2.675-1.611-2.671-3.248-0.078-4.987
		c2.853-1.913,5.711-1.551,8.624-0.244c0.369,0.166,0.751,0.36,1.142,0.403c0.567,0.063,1.261,0.191,1.522-0.548
		c0.249-0.705,0.154-1.395-0.557-1.828c-2.083-1.269-3.445-3.21-4.778-5.225c-1.741-2.629-0.407-5.713,1.067-7.397
		c0.51-0.583,0.852-0.158,1.267,0.116c3.378,2.233,5.225,5.551,6.32,9.408c0.517,1.821,0.729,3.726,1.419,5.5
		c-0.195,0.922-0.542,1.727-1.507,2.051c-1.443-0.373-2.894-0.678-4.601-0.521c0.687,0.529,1.357,0.715,1.955,1.033
		c0.321,0.171,0.702,0.363,0.647,0.8c-0.067,0.532-0.548,0.592-0.943,0.593c-1.539,0.001-3.055,0.147-4.539,0.634
		c2.104,0.121,4.19,0.388,6.279,0.614c0.495,0.053,0.993,0.081,1.422,0.389c0.601,0.658,0.968,1.41,0.885,2.34
		c-0.793,1.06-1.979,1.59-3.022,2.299c-1.822,1.238-3.504,2.611-4.793,4.453c1.542-2.028,3.552-3.479,5.622-4.851
		c0.523-0.347,1.024-0.791,1.725-0.68c0.092,0.097,0.146,0.213,0.164,0.348c-0.538,1.375-1.747,2.208-2.58,3.348
		c-0.459,0.627-0.994,1.195-1.303,1.937c1.018-1.466,2.277-2.717,3.399-4.091c0.368-0.451,0.709-1.283,1.586-0.779
		C33.087,39.852,33.112,40.193,32.831,40.492z"/>
	<path fill-rule="evenodd" clip-rule="evenodd" fill="#DDE266" d="M34.938,28.44c-1.184-6.299-0.234-12.105,3.815-17.16
		c1.115-1.392,2.533-2.324,4.295-2.745c0.954-0.229,1.425,0.1,1.856,0.884c1.571,2.854,1.062,5.676-0.188,8.426
		c-1.343,2.958-3.2,5.601-5.117,8.189c-0.36,0.486-0.748,0.932-0.841,1.56c-0.37,0.39-0.798,0.363-1.246,0.186
		c-0.622-0.625-0.377-1.372-0.234-2.08c0.396-1.961,1.138-3.798,1.907-5.623c-0.926,2.196-1.936,4.366-2.045,6.825
		c-0.02,0.436-0.108,0.823-0.442,1.12C36.15,28.332,35.648,28.856,34.938,28.44z"/>
	<path fill-rule="evenodd" clip-rule="evenodd" fill="#4BBC7C" d="M45.052,57.503c0.683,1.169,0.516,2.522,0.743,3.786
		c0.636,3.533-0.059,6.913-1.343,10.189c-1.052,2.678-1.828,5.438-2.468,8.244c-0.031,0.135-0.157,0.314-0.11,0.391
		c1.056,1.755-0.62,2.649-1.155,3.896c-0.31,0.719-0.663,1.418-0.979,2.087c-3.075-3.014-6.911-4.911-10.508-7.156
		c-4.564-2.848-7.789-6.948-10.68-11.428c1.092,0.37,1.735,1.343,2.516,2.078c2.204,2.074,4.889,3.358,7.364,4.98
		c2.932,1.92,5.993,3.645,8.289,6.432c0.625,0.76,1.474,1.028,2.007,0.063c1.558-2.821,3.482-5.468,4.339-8.649
		c1.105-4.106,1.563-8.265,0.63-12.492c-0.193-0.878-0.559-1.657-1.07-2.374c0.38-1.313,0.759-2.627,1.199-4.15
		C44.396,54.835,44.956,56.087,45.052,57.503z"/>
	<path fill-rule="evenodd" clip-rule="evenodd" fill="#DA8848" d="M37.445,27.59c0.438,0.002,0.876,0.003,1.314,0.005
		c0.824,0.282,1.648,0.563,2.473,0.845c0.318,0.178,0.712,0.108,1.019,0.329c0.832,0.462,1.63,0.961,1.971,1.949
		c0.463,0.73,0.589,1.675,1.339,2.222c0.341,0.257,0.527,0.631,0.717,1.003c0.157,0.321,0.363,0.611,0.556,0.909
		c0.157,0.269,0.29,0.55,0.423,0.833c0.187,0.426,0.334,0.866,0.502,1.3c0.17,0.613,0.484,1.227-0.014,1.833
		c-0.271,0.747-0.543,1.493-0.814,2.239c-0.134,0.346-0.234,0.711-0.542,0.953c-0.155,0.108-0.326,0.183-0.502,0.243
		c-1.425,0.309-2.474,1.444-3.851,1.858c-0.177,0.096-0.354,0.192-0.529,0.289c-0.738,0.715-1.646,0.699-2.565,0.626
		c-0.364-0.027-0.708-0.138-1.04-0.288c-1.053-0.701-2.411-0.892-3.213-2.018c-0.879-0.513-1.312-1.42-1.856-2.229
		c-0.021-0.374-0.044-0.748-0.066-1.122c-0.271-0.134-0.422-0.361-0.488-0.655c-0.03-0.105-0.053-0.212-0.076-0.318
		c-0.058-0.258-0.225-0.484-0.223-0.761c-0.025-0.845-0.479-1.525-0.82-2.249c-0.221-0.295-0.328-0.631-0.337-1.002
		c-0.013-0.213-0.013-0.426-0.01-0.639c-0.001-0.352,0.003-0.705,0.006-1.058c-0.002-0.215,0.012-0.429,0.051-0.642
		c0.049-0.218,0.137-0.41,0.33-0.533c0.455-0.644,0.91-1.288,1.365-1.931c0.792-0.38,1.584-0.76,2.375-1.141
		c0.555-0.188,1.111-0.376,1.667-0.564C36.857,27.695,37.127,27.567,37.445,27.59z"/>
	<path fill-rule="evenodd" clip-rule="evenodd" fill="#DDE266" d="M47.744,38.818c-0.093-0.659-0.185-1.316-0.276-1.975
		c1.078-0.733,2.295-0.438,3.419-0.338c2.188,0.194,4.393,0.444,6.466,1.325c-0.394-0.455-0.945-0.517-1.481-0.63
		c-1.899-0.402-3.801-0.793-5.751-0.828c-0.439-0.007-1.104,0.053-1.181-0.432c-0.106-0.66,0.663-0.571,1.06-0.795
		c0.334-0.189,0.788-0.144,1.057-0.572c-1.636-0.478-3.366,0.31-4.934-0.498c-0.335-0.301-0.509-0.687-0.562-1.135
		c2.024-0.644,4.067-1.384,6.186-1.359c3.25,0.037,6.292,1.045,9.137,2.684c1.081,0.623,2.021,1.401,2.836,2.347
		c0.631,0.735,1.376,1.536,1.049,2.568c-0.349,1.101-1.406,1.643-2.425,1.802c-4.394,0.684-8.712,0.493-12.814-1.538
		C48.966,39.165,48.341,39.022,47.744,38.818z"/>
	<path fill-rule="evenodd" clip-rule="evenodd" fill="#DDE266" d="M44.222,30.718c-0.752-0.545-1.268-1.404-2.178-1.739
		c-0.059-0.782,0.606-0.964,1.058-1.28c2.129-1.491,4.466-2.619,6.652-4.018c-2.206,0.98-4.253,2.26-6.303,3.538
		c-0.436,0.272-0.836,0.786-1.454,0.411c0.854-1.874,2.585-2.949,3.926-4.344c2.399-2.495,4.817-5.088,8.314-6.057
		c1.776-0.494,3.281-0.165,4.175,1.105c0.937,1.327,0.491,2.626-0.172,3.924c-1.148,2.244-3.237,3.307-5.249,4.438
		C50.179,28.279,47.271,29.668,44.222,30.718z"/>
	<path fill-rule="evenodd" clip-rule="evenodd" fill="#DDE266" d="M38.796,44.687c0.911-0.015,1.828,0.029,2.708-0.288
		c-0.303,0.499-0.455,1.074-0.236,1.6c0.746,1.802,0.584,3.626,0.23,5.463c-0.474,2.457-1.025,4.891-2.208,7.112
		c-0.454,0.853-1.209,1.325-1.977,0.634c-2.881-2.592-5.018-5.663-4.782-9.832c0.134-2.378,0.855-4.637,2.156-6.657
		c1.092,0.561,2.185,1.123,3.276,1.684c0.846,1.096,0.719,2.352,0.514,3.594c-0.348,2.104-0.928,4.15-1.537,6.186
		c-0.19,0.509-0.491,0.971-0.614,1.512c-0.081,0.167,0.25,0.115,0.082,0.046c-0.168-0.069-0.013,0.048,0.047-0.129
		c0.074-0.215,0.137-0.434,0.221-0.647c1.136-3.052,2.116-6.137,1.978-9.468C38.644,45.217,38.641,44.937,38.796,44.687z"/>
	<path fill-rule="evenodd" clip-rule="evenodd" fill="#DDE265" d="M42.035,44.111c1.124-0.985,2.363-1.758,3.782-2.209
		c1.363,1.075,1.637,2.7,1.993,4.266c0.245,1.076,0.299,2.19,0.465,3.282c0.007,0.185-0.004-0.057,0.009,0.13
		c0.015,0.182-0.028,0.367,0.029,0.547c-0.029-0.173-0.014-0.348-0.021-0.521c0.009-0.27-0.05-0.532-0.078-0.798
		c-0.032-0.62,0.048-1.249-0.155-1.853c-0.192-1.821-0.842-3.487-1.639-5.103c-0.009-0.385,0.164-0.648,0.509-0.793
		c3.543,1.981,4.204,5.454,4.342,9.12c0.072,1.891,0.283,3.828-0.314,5.676c-0.223,0.693-0.189,1.853-1.128,1.828
		c-0.978-0.026-1.881-0.642-2.278-1.716c-0.815-2.208-1.651-4.403-2.006-6.769c-0.219-1.476-0.783-2.835-1.711-4.042
		C43.342,44.513,42.817,44.128,42.035,44.111z"/>
	<path fill-rule="evenodd" clip-rule="evenodd" fill="#ACAD25" d="M41.997,27.629c2.384-1.364,4.758-2.749,7.164-4.073
		c0.404-0.223,1.004-0.928,1.338-0.324c0.248,0.444-0.546,0.82-1.005,1.079c-2.323,1.313-4.69,2.548-6.866,4.119
		c-0.214,0.155-0.39,0.365-0.584,0.549c-0.296-0.14-0.627-0.224-0.812-0.54C41.644,28.325,41.692,27.85,41.997,27.629z"/>
	<path fill-rule="evenodd" clip-rule="evenodd" fill="#4BBC7C" d="M20.563,72.08c0.944,0.614,1.475,1.631,2.182,2.463
		c2.61,3.076,5.978,5.06,9.32,7.098c1.788,1.091,3.566,2.197,5.333,3.322c1.648,1.051,2.042,2.343,1.452,4.649
		c-7.886-3.825-13.648-10.053-18.566-17.246C20.187,72.075,20.308,72.009,20.563,72.08z"/>
	<path fill-rule="evenodd" clip-rule="evenodd" fill="#4ABB7C" d="M55.65,73.506c-2.385,2.608-4.727,5.268-8.021,7.17
		c1.603-3.836,4.645-5.679,7.724-7.479C55.644,73.104,55.715,73.235,55.65,73.506z"/>
	<path fill-rule="evenodd" clip-rule="evenodd" fill="#49BA7C" d="M40.389,86.638c0.449-2.228,2.517-4.683,4.177-6.419
		c0.221,0.825,0.436,1.637,1.565,1.787c-1.7,1.209-3.308,2.166-4.374,3.766c-0.319,0.559-0.37,1.341-1.171,1.504
		C40.259,87.147,40.217,86.928,40.389,86.638z"/>
	<path fill-rule="evenodd" clip-rule="evenodd" fill="#49B97B" d="M49.404,81.067c-1.296,1.641-3.135,2.61-4.676,3.952
		c-1.071,0.933-2.027,1.954-2.968,3.007c-0.255,0.087-0.36-0.077-0.442-0.281c-0.084-0.638,0.267-1.044,0.71-1.397
		c1.14-1.749,3.034-2.558,4.537-3.854c0.783-0.676,1.628-1.268,2.553-1.729C49.401,80.679,49.473,80.803,49.404,81.067z"/>
	<path fill-rule="evenodd" clip-rule="evenodd" fill="#207459" d="M42.028,86.348c0.066,0.564-0.57,0.835-0.549,1.383
		c-0.108,0.415-0.256,0.813-0.537,1.143c-0.18-0.281-0.357-0.563-0.535-0.844c-0.153-0.361,0.046-0.6,0.273-0.828
		c0.335-0.496,0.568-1.072,1.076-1.43C41.772,86.001,41.809,86.22,42.028,86.348z"/>
	<path fill-rule="evenodd" clip-rule="evenodd" fill="#43B076" d="M20.563,72.08c-0.093,0.095-0.186,0.19-0.279,0.286
		c-0.317-0.492-0.633-0.982-0.949-1.474C20.048,70.984,20.196,71.646,20.563,72.08z"/>
	<path fill-rule="evenodd" clip-rule="evenodd" fill="#41AC75" d="M49.404,81.067c-0.096-0.101-0.19-0.202-0.286-0.302
		c0.295-0.241,0.587-0.481,1.034-0.85C50.119,80.629,49.716,80.815,49.404,81.067z"/>
	<path fill-rule="evenodd" clip-rule="evenodd" fill="#21765A" d="M40.681,87.201c-0.09,0.276-0.182,0.552-0.273,0.828
		c-0.408-0.458-0.396-0.923-0.019-1.392C40.42,86.862,40.446,87.089,40.681,87.201z"/>
	<path fill-rule="evenodd" clip-rule="evenodd" fill="#44B177" d="M55.65,73.506c-0.099-0.103-0.198-0.206-0.298-0.31
		c0.239-0.273,0.51-0.485,0.92-0.463C56.288,73.2,55.898,73.295,55.65,73.506z"/>
	<path fill-rule="evenodd" clip-rule="evenodd" fill="#44B177" d="M40.942,88.873c0.024-0.459,0.211-0.835,0.537-1.143
		c0.094,0.098,0.188,0.197,0.281,0.296C41.579,88.402,41.329,88.708,40.942,88.873z"/>
	<path fill-rule="evenodd" clip-rule="evenodd" fill="#247C5D" d="M54.211,76.442c-0.122,0.098-0.238,0.246-0.386,0.295
		c-0.155,0.05-0.235-0.098-0.137-0.227c0.104-0.134,0.263-0.22,0.397-0.328C54.119,76.252,54.152,76.321,54.211,76.442z"/>
	<path fill-rule="evenodd" clip-rule="evenodd" fill="#ACAE26" d="M31.198,31.513c-0.02,0.2-0.04,0.4-0.061,0.6
		c-0.45,0.327-0.831-0.052-1.241-0.128c-0.107-0.049-0.215-0.102-0.327-0.143c-0.058-0.021-0.097-0.028-0.115-0.029
		c0.008,0.055,0.06,0.022,0.094,0.047c0.531,0.28,1.163,0.331,1.587,0.809c-0.001,0.365-0.003,0.729-0.004,1.094
		c-0.466,0.41-1.03,0.23-1.556,0.274c-0.987-0.108-1.977-0.185-2.973-0.122c0.841-0.022,1.683-0.065,2.516,0.115
		c0.671,0.101,1.398-0.202,2.014,0.295c0.009,0.354,0.017,0.708,0.026,1.061c-2.526-0.406-5.05-0.869-7.622-0.636
		c-0.38,0.035-0.78,0.176-0.93-0.258c-0.183-0.529,0.352-0.601,0.646-0.689c1.255-0.378,2.538-0.608,3.855-0.626
		c0.567-0.007,1.16,0.152,1.843-0.204c-1.015-0.931-2.425-1.014-3.555-2.14C27.557,30.566,29.424,30.521,31.198,31.513z"/>
	<path fill-rule="evenodd" clip-rule="evenodd" fill="#ABAD24" d="M31.979,37.635c0.17,0.194,0.341,0.389,0.511,0.584
		c-0.204,0.27-0.411,0.536-0.786,0.547c-2.945,1.644-5.594,3.676-7.867,6.224C25.552,41.383,28.818,39.571,31.979,37.635z"/>
	<path fill-rule="evenodd" clip-rule="evenodd" fill="#AFB129" d="M32.504,38.52c0.086,0.283,0.174,0.566,0.261,0.85
		c-1.684,1.479-3.001,3.291-4.35,5.073c-0.23,0.305-0.444,0.911-0.884,0.607c-0.424-0.292-0.019-0.775,0.195-1.093
		c1.178-1.752,2.638-3.265,3.994-4.865C31.94,38.842,32.005,38.365,32.504,38.52z"/>
	<path fill-rule="evenodd" clip-rule="evenodd" fill="#D0D254" d="M32.504,38.52c-0.262,0.191-0.524,0.381-0.786,0.572
		c-0.004-0.109-0.01-0.218-0.015-0.326c0.161-0.337,0.428-0.512,0.787-0.547C32.495,38.319,32.499,38.419,32.504,38.52z"/>
	<path fill-rule="evenodd" clip-rule="evenodd" fill="#ACAF26" d="M37.445,27.59c-0.21,0.315-0.526,0.297-0.84,0.286
		c0.33-2.183,0.614-4.377,1.567-6.399c0.294-0.624,0.548-1.267,0.838-1.893c0.134-0.289,0.32-0.685,0.68-0.479
		c0.313,0.18,0.183,0.573,0.029,0.875c-0.924,1.809-1.614,3.703-2.095,5.689C37.468,26.316,37.441,26.943,37.445,27.59z"/>
	<path fill-rule="evenodd" clip-rule="evenodd" fill="#FBF29F" d="M44.214,37.677c0.274,0.444,1.396,0.263,0.857,1.325
		c-0.447,0.885-1.195,1.205-1.998,0.985c-0.848-0.233-1.232-0.252-1.349,0.8c-0.112,1.005-1.048,1.163-1.823,1.352
		c-0.49,0.118-0.551-0.282-0.594-0.696c-0.134-1.322-0.757-2.055-2.155-1.764c-0.293,0.332-0.365,0.858-0.85,1.02
		c-0.69-0.375-1.051-0.923-1.133-1.762c-0.086-0.874-0.354-1.727-0.794-2.504c-0.137-0.241-0.274-0.488-0.36-0.751
		c-0.89-2.685-0.71-3.846,1.829-4.819c2.951-1.13,5.225-0.435,6.845,2.375c0.531,0.921,1.053,1.848,1.58,2.771
		C44.627,36.577,43.824,37.106,44.214,37.677z"/>
	<path fill-rule="evenodd" clip-rule="evenodd" fill="#ABAD24" d="M46.122,34.074c1.673-0.007,3.346-0.02,5.02-0.021
		c0.356,0,0.796-0.017,0.825,0.486c0.024,0.401-0.388,0.474-0.669,0.576c-0.71,0.257-1.434,0.474-2.159,0.804
		c2.372-0.044,4.664,0.448,6.957,0.939c0.567,0.122,1.123,0.324,1.668,0.535c0.353,0.135,0.685,0.395,0.487,0.84
		c-0.192,0.432-0.682,0.377-0.956,0.226c-3.099-1.715-6.473-1.594-9.827-1.617c-0.173-0.374-0.347-0.748-0.519-1.123
		c0.307-0.692,0.891-0.594,1.458-0.639c-0.576-0.088-1.247,0.338-1.77-0.194C46.317,34.716,46.128,34.457,46.122,34.074z"/>
	<path fill-rule="evenodd" clip-rule="evenodd" fill="#ADAF26" d="M38.796,44.687c0.656,1.983,0.119,3.912-0.344,5.809
		c-0.398,1.633-0.69,3.327-1.607,4.785c-0.634-0.102-0.349-0.502-0.256-0.839c0.408-1.657,0.796-3.32,1.229-4.971
		c0.441-1.683,0.591-3.363,0.146-5.068C38.241,44.498,38.519,44.593,38.796,44.687z"/>
	<path fill-rule="evenodd" clip-rule="evenodd" fill="#B1B32B" d="M48.559,48.864c0.005,0.281,0.01,0.563,0.016,0.843
		c-0.184,0.164-0.366,0.164-0.549-0.002c-0.188-1.12-0.409-2.236-0.556-3.363c-0.21-1.621-0.925-3.031-1.652-4.441
		c0.201-0.017,0.401-0.034,0.603-0.051c1.496,1.336,1.672,3.194,1.881,5.039C48.631,47.514,48.209,48.242,48.559,48.864z"/>
	<path fill-rule="evenodd" clip-rule="evenodd" fill="#F8E998" d="M37.439,40.214c0.714,0.106,1.285,0.559,0.988,1.247
		c-0.254,0.588-0.78-0.266-1.229-0.168C36.775,40.813,36.938,40.474,37.439,40.214z"/>
	<path fill-rule="evenodd" clip-rule="evenodd" fill="#DDE265" d="M31.132,34.326c-0.706-0.006-1.41-0.013-2.116-0.02
		c-0.201-0.552,0.419-0.287,0.515-0.545c0.533,0.001,1.067,0.001,1.6,0.002C31.132,33.951,31.132,34.138,31.132,34.326z"/>
	<path fill-rule="evenodd" clip-rule="evenodd" fill="#DBDE62" d="M46.638,34.888c0.631,0,1.262,0,2.288,0
		c-0.891,0.375-1.434,0.604-1.977,0.833C46.845,35.442,46.742,35.165,46.638,34.888z"/>
	<path fill-rule="evenodd" clip-rule="evenodd" fill="#DE9654" d="M37.439,40.214c-0.237,0.322-0.368,0.67-0.242,1.078
		c-0.344-0.124-0.699-0.23-0.895-0.593c0.081-0.519,0.332-0.887,0.85-1.021C37.152,39.912,37.228,40.102,37.439,40.214z"/>
	<path fill-rule="evenodd" clip-rule="evenodd" fill="#D1D456" d="M31.135,32.669c-0.69,0.034-1.207-0.502-1.857-0.6
		c-0.047-0.529,0.246-0.407,0.533-0.294c0.442,0.112,0.884,0.224,1.326,0.336C31.137,32.298,31.136,32.484,31.135,32.669z"/>
	<path fill-rule="evenodd" clip-rule="evenodd" fill="#DF9754" d="M44.214,37.677c-0.588-0.577-0.032-1.115,0.053-1.669
		C45.003,36.59,44.396,37.126,44.214,37.677z"/>
	<path fill-rule="evenodd" clip-rule="evenodd" fill="#B5B831" d="M36.588,54.442c0.028,0.298-0.049,0.63,0.257,0.839
		c-0.054,0.608-0.199,1.148-0.998,1.358C35.875,55.752,36.073,55.045,36.588,54.442z"/>
	<path fill-rule="evenodd" clip-rule="evenodd" fill="#B5B731" d="M48.025,49.705c0.184,0.001,0.365,0.001,0.549,0.002
		c0,0.408,0,0.817,0,1.313C47.884,50.787,48.04,50.203,48.025,49.705z"/>
	<path fill-rule="evenodd" clip-rule="evenodd" fill="#B5B731" d="M48.559,48.864c-0.514-0.599-0.171-1.316-0.258-1.975
		C48.769,47.495,48.45,48.209,48.559,48.864z"/>
	<path fill-rule="evenodd" clip-rule="evenodd" fill="#BCC03C" d="M29.531,33.761c-0.172,0.182-0.344,0.364-0.515,0.546
		c-0.858-0.474-1.826-0.151-2.718-0.546C27.375,33.761,28.453,33.761,29.531,33.761z"/>
	<path fill-rule="evenodd" clip-rule="evenodd" fill="#BEC23D" d="M29.812,31.776c-0.214,0.028-0.427,0.059-0.534,0.294
		c-0.197-0.103-0.396-0.206-0.753-0.392C29.079,31.497,29.455,31.404,29.812,31.776z"/>
	<path fill-rule="evenodd" clip-rule="evenodd" fill="#DD904F" d="M36.608,35.077c-0.441-0.204-1.016-0.422-0.896-1.009
		c0.157-0.763,0.962-0.874,1.552-1.085c0.343-0.123,0.704,0.272,0.653,0.684C37.826,34.422,37.352,34.883,36.608,35.077z"/>
	<path fill-rule="evenodd" clip-rule="evenodd" fill="#DC8F4E" d="M40,33.99c0.079-0.593,0.245-1.104,0.969-1.052
		c0.516,0.037,0.893,0.309,0.809,0.875c-0.094,0.64-0.279,1.323-1.097,1.323C39.915,35.136,40.188,34.405,40,33.99z"/>
	<path fill-rule="evenodd" clip-rule="evenodd" fill="#E2A05C" d="M41.07,36.866c0.262,0.031,0.407,0.178,0.388,0.45
		c-0.021,0.311-0.192,0.53-0.495,0.54c-0.304,0.01-0.519-0.183-0.466-0.515C40.545,37.042,40.776,36.892,41.07,36.866z"/>
	<path fill-rule="evenodd" clip-rule="evenodd" fill="#E1A05C" d="M38.424,36.024c-0.054,0.293-0.232,0.475-0.54,0.489
		c-0.267,0.014-0.43-0.148-0.431-0.411c-0.002-0.38,0.198-0.63,0.58-0.584C38.258,35.544,38.421,35.734,38.424,36.024z"/>
</g>
</svg>
