<?xml version="1.0" encoding="utf-8"?>
<!-- Generator: Adobe Illustrator 16.0.0, SVG Export Plug-In . SVG Version: 6.00 Build 0)  -->
<!DOCTYPE svg PUBLIC "-//W3C//DTD SVG 1.1//EN" "http://www.w3.org/Graphics/SVG/1.1/DTD/svg11.dtd">
<svg version="1.1" id="Layer_1" xmlns="http://www.w3.org/2000/svg" xmlns:xlink="http://www.w3.org/1999/xlink" x="0px" y="0px"
	 width="141px" height="121px" viewBox="0 0 141 121" enable-background="new 0 0 141 121" xml:space="preserve">
<g>
	<path fill="#9370B1" d="M46.9,99.8c0,0-5.4,6.9-6.1,13c-0.4,3.7,2.3,3.8,6,4.1c3.7,0.1,10.4,0.8,12-5.6
		C63.4,93.4,52.8,90,46.9,99.8z"/>
	<path fill="#7D589D" d="M48.2,116.9c0,0,0,0-0.1,0c0.2-0.1,0.4-0.5,0.4-1.1c0,0,0-0.1-0.1-0.3c0.1,0,0.2,0,0.2,0
		C48.5,116,48.3,116.5,48.2,116.9L48.2,116.9z M53.8,116.5v-0.1c0-0.1-0.1-0.4-0.1-0.7l0,0c0-0.3-0.1-0.4-0.1-0.5
		c-0.2-0.5-0.6-1.1-1-1.5c2.3-2.6,4.1-7.6,2.6-8.6c-1.8-1.2-5.5-8-5.7-8.6c1.6,2.3,4.7,5.8,10.4,8.3c-0.1,1.9-0.5,4.1-1.1,6.5l0,0
		C58,114.5,56,115.8,53.8,116.5z M43.1,116.5c-0.2-0.1-0.5-0.3-0.7-0.3c0.2-0.1,0.4-0.1,0.6-0.3c0,0,0.1,0,0.2,0l0,0
		C43.1,116.1,43.1,116.2,43.1,116.5z"/>
	<path fill="#E6E7E8" d="M43,116c0,0,1.3,0,1.1-1.9c-0.2-1.6-1.3-3.3-2.9-2.9c-1.4,0.3-1.8,2-2.4,3.4C38.2,116,40,117.2,43,116z"/>
	<path fill="#7B5E95" d="M44.1,113.9c0-0.1-0.1-0.3-0.1-0.4C43.9,113.6,44.1,113.8,44.1,113.9L44.1,113.9z"/>
	<path fill="#C1C2C4" d="M40.7,116.5c-1.2,0-2-0.7-2-1.5c0-0.1,0.1-0.3,0.1-0.4c0.1-0.1,0.1-0.3,0.2-0.4c0.2,1,1.3,1.2,2.4,1.2
		c1,0,2-0.3,2.1-0.5c0.2-0.7,0.2-1.6,0.2-1.6c0.1,0.1,0.1,0.1,0.1,0.3c0,0.1,0.1,0.3,0.1,0.4c-0.4,0.7-0.6,1.4-0.8,2
		c-0.1,0-0.2,0-0.2,0c-0.2,0.1-0.4,0.1-0.6,0.3l0,0C41.8,116.4,41.2,116.5,40.7,116.5z"/>
	<path fill="#FFFFFF" d="M41.8,112.4c-0.5,0-0.7-0.3-0.6-0.5c0-0.3,0.4-0.4,0.7-0.4c0.5,0,0.7,0.3,0.7,0.5
		C42.5,112.3,42.1,112.6,41.8,112.4z"/>
	<path fill="#E6E7E8" d="M47.3,117.5c0,0,1.3-0.1,1.1-2c-0.1-1.6-1.2-3.1-2.7-2.9c-1.5,0.4-1.9,2.2-2.4,3.4
		C42.6,117.5,44.4,118.7,47.3,117.5z"/>
	<path fill="#7B5E95" d="M48.3,115.4v-0.1V115.4z"/>
	<path fill="#C1C2C4" d="M45.1,117.9c-1.3,0-2-0.5-2-1.4c0-0.1,0-0.3,0.1-0.5c0-0.1,0.1-0.3,0.1-0.4c0.4,1.1,1.4,1.4,2.4,1.4
		c1.1,0,2-0.3,2.1-0.7c0.2-0.5,0.4-1.5,0.4-1.6c0,0.3,0.1,0.4,0.1,0.7v0.1l0,0c0.1,0.1,0.1,0.4,0.1,0.4c0,0.5-0.1,1-0.4,1.1
		c-0.2,0.5-0.8,0.5-0.8,0.5C46.4,117.7,45.7,117.9,45.1,117.9z M48.2,114.6L48.2,114.6L48.2,114.6z"/>
	<path fill="#FFFFFF" d="M46.1,113.9c-0.4-0.1-0.6-0.4-0.6-0.7c0.1-0.1,0.5-0.4,0.8-0.3c0.4,0,0.7,0.3,0.6,0.5
		C46.9,113.8,46.6,113.9,46.1,113.9z"/>
	<path fill="#E6E7E8" d="M52.8,117.9c0,0,1.4-0.3,1-2.2c-0.4-1.8-1.7-3.3-3.3-2.7c-1.6,0.7-1.7,2.6-2.1,3.9
		C47.7,118.5,49.8,119.6,52.8,117.9z"/>
	<path fill="#694A84" d="M53.7,115.7c0-0.3-0.1-0.4-0.1-0.5C53.6,115.3,53.7,115.4,53.7,115.7z"/>
	<path fill="#C1C2C4" d="M50,118.8c-1.2,0-1.8-0.7-1.8-1.4c0-0.3,0-0.4,0-0.5c0.1-0.1,0.1-0.3,0.1-0.4c0.4,0.8,1.2,1.1,2,1.1
		c1.3,0,2.7-0.5,2.9-1c0.2-0.7,0.2-1.8,0.2-1.8s0,0.1,0.1,0.3c0,0.1,0.1,0.3,0.1,0.5l0,0c0,0.3,0.1,0.5,0.1,0.7
		c0,1.4-1.1,1.5-1.1,1.5C51.7,118.5,50.7,118.8,50,118.8z M53.5,114.9L53.5,114.9L53.5,114.9z"/>
	<path fill="#FFFFFF" d="M51.1,114.3c-0.4,0-0.7-0.3-0.7-0.5c0.1-0.3,0.5-0.5,0.8-0.5c0.5,0,0.7,0.3,0.7,0.5
		C51.9,114.1,51.6,114.3,51.1,114.3z"/>
	<path fill="#9370B1" d="M89.4,102.4c0,0-2.6,5.6-2.3,9.9c0.2,2.4,2,2.2,4.5,1.6c2.5-0.5,7.2-1.2,7.4-5.8
		C99.6,95,92.1,94.8,89.4,102.4z"/>
	<path fill="#7D589D" d="M89.1,114.3c-0.2,0-0.4,0-0.5-0.1c0.1,0,0.2-0.1,0.4-0.3c0,0,0,0,0.1,0l0,0c0,0.1,0,0.1,0,0.3
		C89.1,114.2,89.1,114.2,89.1,114.3z M92.6,113.8c0-0.1,0.1-0.3,0.1-0.5c0-0.1-0.1-0.3-0.1-0.5h0.1c0,0.3,0,0.7,0,1l0,0
		C92.6,113.8,92.6,113.8,92.6,113.8z M96.4,112.4c-0.1-0.1-0.1-0.4-0.2-0.5l0,0c0-0.1,0-0.1-0.1-0.1c-0.2-0.4-0.5-0.8-0.8-1.1
		c1.2-2.2,1.7-5.8,0.6-6.2c-0.2,0-0.6-0.3-0.8-0.5c0.7-0.1,1.3-0.5,1.8-1l0,0l0,0l0,0l0,0l0,0c0,0,0.5,4.3,0.5,8
		C96.9,111.2,96.6,111.7,96.4,112.4L96.4,112.4z"/>
	<path fill="#E6E7E8" d="M89,113.9c0,0,0.8-0.3,0.4-1.5c-0.4-1.1-1.3-1.9-2.3-1.4c-1,0.4-1,1.8-1.1,2.7
		C85.8,114.9,87.1,115.3,89,113.9z"/>
	<path fill="#7B5E95" d="M89.4,112.4c0-0.1,0-0.1-0.1-0.3C89.4,112.3,89.4,112.3,89.4,112.4L89.4,112.4z"/>
	<path fill="#C1C2C4" d="M87,114.7c-0.6,0-1.1-0.3-1.1-0.8c0,0,0-0.1,0.1-0.1c0-0.1,0-0.3,0-0.3c0.2,0.4,0.6,0.5,1.1,0.5
		c1,0,2-0.7,2.1-1c0-0.4,0-1.1-0.1-1.1c0.1,0,0.1,0.1,0.1,0.1c0.1,0.1,0.1,0.1,0.1,0.3c-0.1,0.4-0.1,1-0.2,1.5c-0.1,0-0.1,0-0.1,0
		c-0.1,0.1-0.2,0.3-0.4,0.3l0,0C87.9,114.6,87.5,114.7,87,114.7z M89.1,112L89.1,112L89.1,112z"/>
	<path fill="#FFFFFF" d="M87.7,111.9c-0.4,0-0.5-0.1-0.5-0.4c0-0.1,0.1-0.3,0.5-0.4c0.2,0,0.5,0.1,0.5,0.3
		C88.2,111.6,87.9,111.7,87.7,111.9z"/>
	<path fill="#E6E7E8" d="M92.1,114.2c0,0,0.8-0.3,0.5-1.5c-0.4-1.1-1.3-1.9-2.3-1.5c-1.1,0.5-1.1,1.8-1.2,2.7
		C88.9,115,90.3,115.5,92.1,114.2z"/>
	<path fill="#7B5E95" d="M92.6,112.7c-0.1-0.1-0.1-0.3-0.1-0.3S92.5,112.6,92.6,112.7z"/>
	<path fill="#C1C2C4" d="M90.1,115c-0.6,0-1-0.4-1-0.8c0-0.1,0-0.1,0-0.3c0,0,0-0.1,0-0.3c0.2,0.4,0.7,0.5,1.1,0.5
		c1,0,2-0.5,2.1-0.8c0.1-0.5,0-1.2,0-1.2c0,0.1,0.1,0.1,0.1,0.3c0,0,0,0.1,0.1,0.3l0,0c0,0.3,0.1,0.4,0.1,0.5c0,0.8-0.6,1-0.6,1
		C91.3,114.7,90.7,115,90.1,115z"/>
	<path fill="#FFFFFF" d="M90.8,112c-0.2,0-0.5-0.1-0.5-0.3c0-0.1,0.2-0.4,0.5-0.4s0.5,0.1,0.5,0.3C91.3,111.7,91,112,90.8,112z"/>
	<path fill="#E6E7E8" d="M95.8,113.5c0,0,1-0.4,0.4-1.6c-0.5-1.1-1.5-1.9-2.6-1.2c-1,0.7-0.8,2-0.8,3
		C92.6,114.9,94,115.3,95.8,113.5z"/>
	<path fill="#694A84" d="M96.2,111.9c0-0.1,0-0.1-0.1-0.1C96.2,111.7,96.2,111.7,96.2,111.9z"/>
	<path fill="#C1C2C4" d="M93.7,114.7c-0.6,0-1-0.4-1-1c0,0,0,0,0-0.1c0,0,0-0.1,0-0.3c0.2,0.4,0.6,0.4,1,0.4c1,0,2.3-0.8,2.4-1.2
		c0-0.4-0.1-1.2-0.2-1.2c0.1,0.1,0.2,0.3,0.2,0.4c0.1,0,0.1,0,0.1,0.1l0,0c0.1,0.3,0.2,0.5,0.2,0.7c-0.1,0.3-0.1,0.4-0.1,0.5
		c-0.2,0.3-0.5,0.4-0.5,0.4C95,114.3,94.3,114.7,93.7,114.7z M95.8,111.3L95.8,111.3L95.8,111.3z"/>
	<path fill="#FFFFFF" d="M94.3,111.5c-0.4,0-0.6-0.1-0.6-0.3c0-0.3,0.2-0.4,0.5-0.5c0.4,0,0.6,0,0.6,0.3
		C94.7,111.1,94.5,111.3,94.3,111.5z"/>
	<path fill="#B295C6" d="M110.8,99.5c2.7-1.2,5.1-2.4,5.7-3.1c2.3-2.6,3.9-3.1,3.9-3.1s-0.6,0,7.4,0.1c8.1,0.1,10.6-6.4,10.6-6.4
		c-6.2,3.8-8.5,4.6-18.6-0.3c-10.1-4.8-7.4-8.4-20.3-17.9c-13-9.4-24.3-0.3-24.3-0.3C71.1,69.8,61.2,79,51.8,82
		c-9.4,3-4.4,19.2,10.3,23.6c0,0,3.7,1.2,6,1.2c0,0,1,2.7,0.2,5.4c-0.7,2.7-1.4,6.5,5,6.5c5.4,0,10.5-1.8,10.4-5
		c0-3.1-1.9-9.5-1.9-9.5s11.1,1.5,15-1.4c0,0,0.8,7.6,0.4,11c-0.2,2.3,5.5,2.2,10.9,0.5c5.4-1.6,4.9-4.9,4.7-7.7
		S110.8,99.5,110.8,99.5z"/>
	<path fill="#9561A8" d="M81.7,69.2c1-0.3,3-2.4,4.3-1.6c1.2,0.7,2,2.4,2.3,3.8c0.2,1.4-0.4,3.1-0.8,4.2c-0.5,1-5.1,1.9-6.7,2.9
		c-1.5,1.1-5.8,1-5.6-1.4C75.3,74.8,78.6,69.9,81.7,69.2z"/>
	<path fill="#9561A8" d="M67.7,79.8c-1.9,1.4-3.7,1.4-3,3c0.8,1.6,2,2.6,3.6,2.6c0.2,0,0.5,0,0.6,0c1.1,0.1,1.4,0.1,1.9-1.6
		c0.6-2.2,1.4-3.9,0.7-4.5C70.8,78.7,69.3,78.6,67.7,79.8z"/>
	<path fill="#9561A8" d="M84.6,81c0,0,2-1,2.9-1.2c1-0.3,2.6-0.1,3,0.8c0.4,1-0.6,1.9-1.6,2.4c-1.1,0.4-1.4,0-2.6,0.7
		c-1.3,0.5-2.9,1-3.1-0.5C82.9,81.7,83.5,81.4,84.6,81z"/>
	<path fill="#9561A8" d="M95.6,80.1c3.5,0.1,5-2.7,6.7-1.5c1.5,1.2,1.3,3.3,4.5,2.7c1.8-0.3,3.6-0.3,4.7-1
		c-2.4-2.9-4.8-6.4-11.8-11.5c-2.6-1.8-5-2.9-7.4-3.5c-0.2,0.5-0.5,1.2-0.5,2c0.1,3,2.4,2.7,0.7,6.4C90.9,77.5,92.1,80,95.6,80.1z"
		/>
	<path fill="#9561A8" d="M119.3,86.5c0,0-1.3,1.1,0,2.4c1.3,1.4,0,2.2,1.6,2.6c1.5,0.3,2.9-0.4,2.9-0.4s0.2-1,1.2-0.4
		c0.8,0.5,2.4-1,2.1-1.1l0,0c-1.9-0.4-4.2-1.4-7.2-2.9C119.7,86.7,119.4,86.6,119.3,86.5z"/>
	<path fill="#9561A8" d="M133.4,92.2c0.1,0-0.5-0.7-1.8-0.4c-1.3,0.3-1.7,1.4-1.7,1.5C131.2,93.1,132.4,92.7,133.4,92.2z"/>
	<path fill="#9776B0" d="M110.8,99.5c-0.4-0.7-0.4-0.7-0.4-0.7c-0.1-0.4-0.4-0.8-0.5-1.2c0.7-0.4,6.6-3.1,7.5-4.5
		c0.7-0.8,2.5-1.1,4.8-1.1c1.4,0,3.1,0.1,4.5,0.1c0.1,0,0.2,0,0.4,0c3.7,0,9.1-1.6,11.3-5.2c0,0-2.4,6.4-10.4,6.4
		c-0.1,0-0.1,0-0.2,0c-6.3-0.1-7.3-0.1-7.4-0.1c0,0-1.7,0.5-3.9,3.1C116,97.1,113.6,98.3,110.8,99.5L110.8,99.5L110.8,99.5z
		 M132.2,91.6c-0.2,0-0.4,0.1-0.6,0.1c-1.3,0.3-1.7,1.4-1.7,1.5c1.3-0.1,2.5-0.5,3.5-1.1C133.5,92.2,133,91.6,132.2,91.6z"/>
	<path fill="#7E4D95" d="M129.9,93.3c0-0.1,0.4-1.2,1.7-1.5c0.2,0,0.4-0.1,0.6-0.1c0.8,0,1.3,0.5,1.2,0.5
		C132.4,92.7,131.2,93.1,129.9,93.3z"/>
	<path fill="#FACBD6" d="M68,106.9c-2.3,0-6-1.2-6-1.2c-5-1.6-8.8-4.5-11.4-7.7c2-8,12.2-6.2,17.2-5.2C67.8,92.7,65.4,97.3,68,106.9
		z"/>
	<path fill="#FACBD6" d="M80.2,97.5c2,0.7,6.3,0.7,9.8,0.7c2.5,0,4.5,0,4.9,0.1c1,0.7,1.9,4.6,1.9,4.6c-3.9,2.9-15,1.4-15,1.4
		C80.2,97.5,80.2,97.5,80.2,97.5z"/>
	<path fill="#D8CAE2" d="M88.4,104.7c-2.6,0-5-0.3-6.2-0.4c1.1,0.1,3.3,0.4,5.8,0.4l0,0l0,0l0,0l0,0
		C88.2,104.7,88.3,104.7,88.4,104.7L88.4,104.7z"/>
	<path fill="#7D589D" d="M88.4,104.7L88.4,104.7L88.4,104.7c2.3,0,4.7-0.3,6.4-0.8c0,0,0,0,0.1,0C93.2,104.5,90.8,104.7,88.4,104.7z
		"/>
	<path fill="#6A458B" d="M95,103.9c-0.1,0-0.1,0-0.1,0c0.7-0.3,1.3-0.5,1.8-0.8c0,0,0,0,0.1,0c0-0.1,0-0.1,0-0.1l0,0
		C96.3,103.3,95.7,103.7,95,103.9z"/>
	<path fill="#9776B0" d="M88.1,104.7L88.1,104.7L88.1,104.7L88.1,104.7z M88.1,104.7c3.2,0,6.8-0.4,8.6-1.6
		c-0.5,0.3-1.1,0.5-1.8,0.8c-1.8,0.5-4.2,0.8-6.4,0.8C88.3,104.7,88.2,104.7,88.1,104.7z M96.8,103c0-0.1,0-0.1,0-0.1l0,0
		C96.8,102.9,96.8,102.9,96.8,103z"/>
	<path fill="#9776B0" d="M81.7,104.3L81.7,104.3c-0.8-2.6-0.8-2.6-0.8-2.6c0.1,0,0.1,0.1,0.2,0.1C81.7,104.3,81.7,104.3,81.7,104.3
		L81.7,104.3L81.7,104.3z M96.8,102.9c0,0-1-3.9-1.9-4.6c0,0,0,0-0.1,0c-0.8-2.9-2.6-6.1-2.6-6.1C95.4,94.4,96.8,102.9,96.8,102.9z"
		/>
	<path fill="#D4A1BE" d="M88.1,104.7L88.1,104.7L88.1,104.7c-2.5,0-4.8-0.3-5.7-0.4c-0.5,0-0.6,0-0.6,0l0,0l0,0
		c-0.6-2.4-0.6-2.4-0.6-2.4c1.7,0.5,3.6,0.7,5.5,0.7c4.3,0,8.3-1,8.3-1c0.2-0.8,0.1-2-0.2-3.3c0.1,0,0.1,0,0.1,0
		c1,0.7,1.9,4.6,1.9,4.6l0,0c0,0,0,0,0,0.1c-0.1,0-0.1,0-0.1,0C94.8,104.3,91.3,104.7,88.1,104.7L88.1,104.7z"/>
	<path fill="#9776B0" d="M68,106.9c-0.4-1.4-0.7-2.7-0.8-3.9l0,0C68,106.9,68,106.9,68,106.9z"/>
	<path fill="#D8CAE2" d="M64.8,106.3c-1.8-0.4-3.5-1-4.9-1.5l0,0c0.7,0.3,1.4,0.5,2.1,0.7l0,0l0,0c0,0,0,0,0,0.1
		C62.1,105.6,63.4,106,64.8,106.3z M49.5,96.5c-0.1-0.1-0.2-0.3-0.2-0.4l0,0C49.4,96.3,49.4,96.4,49.5,96.5L49.5,96.5z"/>
	<path fill="#7D589D" d="M59.9,104.8L59.9,104.8L59.9,104.8L59.9,104.8L59.9,104.8z M49.5,96.5L49.5,96.5L49.5,96.5L49.5,96.5
		L49.5,96.5L49.5,96.5z"/>
	<path fill="#6A458B" d="M59.9,104.8c-5.7-2.4-8.8-6-10.4-8.3l0,0l0,0C51.7,99.8,55.3,102.9,59.9,104.8L59.9,104.8z"/>
	<path fill="#9776B0" d="M62.1,105.5L62.1,105.5L62.1,105.5z M62.1,105.5c-0.7-0.1-1.4-0.4-2.1-0.7l0,0c-4.6-1.9-8.2-5-10.4-8.3l0,0
		c-0.1-0.1-0.1-0.3-0.2-0.4c0-0.1,0.1-0.1,0.2-0.1c0.1,0,0.4,0,0.5,0c0.4,0.3,0.6,0.5,1,0.8c-0.1,0.4-0.2,0.7-0.4,1.1
		C53.2,101.1,57,104,62.1,105.5z"/>
	<path fill="#D4A1BE" d="M68,106.9L68,106.9c-1.2-0.1-2.3-0.3-3.2-0.5c-1.4-0.3-2.7-0.7-2.7-0.7c0-0.1,0-0.1,0-0.1l0,0l0,0
		c-5-1.5-8.8-4.3-11.4-7.6c0.1-0.4,0.2-0.7,0.4-1.1c6.9,5.7,14,6.1,15.7,6.1c0.2,0,0.4,0,0.5,0C67.3,104.1,67.7,105.5,68,106.9
		L68,106.9z"/>
	<path fill="#D8CAE2" d="M83.6,113.8L83.6,113.8L83.6,113.8z M83.6,113.8c0-1.8-0.6-4.5-1.1-6.5C83,109.3,83.6,112,83.6,113.8z"/>
	<path fill="#9776B0" d="M71.4,118.7c-0.5,0-0.8-0.1-1.2-0.3c0.2-0.1,0.6-0.3,0.8-0.4c0,0,0.2-0.1,0.5-0.3c0,0.1,0,0.3,0,0.4
		c-0.1,0.1-0.1,0.3-0.1,0.4V118.7z M76.5,118.7c0.1-0.1,0.1-0.3,0.2-0.4c0,0,0,0,0,0.1v0.1C76.6,118.5,76.6,118.7,76.5,118.7z
		 M76.8,117c0-0.1,0-0.3,0-0.4l0,0c-0.1-0.1-0.1-0.4-0.2-0.5c0-0.1-0.1-0.3-0.1-0.4c0.1,0,0.4,0,0.6-0.1C77,116.1,77,116.6,76.8,117
		z M82.4,116.4c0-0.1-0.1-0.4-0.2-0.5l0,0c0-0.1,0-0.3-0.1-0.4c-0.2-0.5-0.6-1.1-1.1-1.5c0.5-0.5,0.7-1.4,0.5-2.3
		c-1.2-4.9-3.6-17.3-1.3-20.8c0,0-0.1,3.4,0.1,6.7h-0.1c0.2,1.1,0.2,1.1,0.2,1.1c0.1,1.2,0.2,2.3,0.5,3.1c0.4,1.2,0.8,3,1.4,4.9
		c0.1,0.3,0.1,0.4,0.2,0.7c0.5,2,1.1,4.8,1.1,6.5l0,0l0,0l0,0v0.1C83.6,114.9,83.3,115.7,82.4,116.4z M72,116.1c0-0.1,0-0.1,0-0.3
		c0,0,0,0,0.1,0C72,116,72,116,72,116.1z"/>
	<path fill="#D4A1BE" d="M80.4,98.6c-0.2-1.1-0.2-1.1-0.2-1.1h0.1C80.4,97.9,80.4,98.2,80.4,98.6z"/>
	<path fill="#9776B0" d="M100.8,115.7c-0.5,0-1,0-1.3,0c0.4-0.1,0.6-0.4,1-0.5c0,0,0.1,0,0.2-0.1c0,0.1,0,0.1,0,0.1
		c0,0.3,0,0.4,0,0.5H100.8z"/>
	<path fill="#D8CAE2" d="M112.6,106.7L112.6,106.7L112.6,106.7z M112.6,106.7L112.6,106.7L112.6,106.7z M112.5,105.9L112.5,105.9
		L112.5,105.9z M112.5,105.9c0-0.1,0-0.1,0-0.1S112.5,105.8,112.5,105.9z M112.5,105.8L112.5,105.8L112.5,105.8z M112.5,105.8
		L112.5,105.8L112.5,105.8z M112.5,105.8c-0.1-0.8-0.4-1.6-0.5-2.4C112.1,104.1,112.4,105,112.5,105.8z M112,103.3L112,103.3
		L112,103.3z"/>
	<path fill="#9776B0" d="M105.9,115c0.1-0.1,0.1-0.3,0.2-0.4c0,0,0,0-0.1,0c0,0.1,0,0.3,0,0.3c0,0.1,0,0.1,0,0.1
		S106.1,115,105.9,115z M106.2,114.2L106.2,114.2c0-0.3,0-0.5-0.1-0.8l0,0c0-0.3-0.1-0.4-0.1-0.5c0.1,0,0.2-0.1,0.5-0.1
		C106.3,113.2,106.3,113.8,106.2,114.2z M111.7,112.3c-0.1-0.1-0.1-0.1-0.2-0.3c-0.4-0.8-0.8-1.5-1.6-1.8c2.5-3.9,0.1-8.6-2.9-19.3
		c0,0,1.4,3.1,3,6.7c-0.1,0-0.1,0-0.1,0c0.6,1.2,0.6,1.2,0.6,1.2c0.2,0.4,0.4,0.8,0.5,1.2c0.2,0.7,0.7,1.9,1.1,3.3l0,0l0,0
		c0.1,0.8,0.4,1.6,0.5,2.4l0,0l0,0l0,0l0,0l0,0c0,0,0,0,0,0.1l0,0l0,0c0,0.3,0.1,0.5,0.1,0.8l0,0l0,0l0,0l0,0c0,0.7,0.1,1.5,0.1,2.2
		C112.7,110.1,112.5,111.3,111.7,112.3z"/>
	<path fill="#805D9C" d="M110.5,98.8c-0.6-1.2-0.6-1.2-0.6-1.2s0,0,0.1,0C110.1,98,110.3,98.4,110.5,98.8z"/>
	<path fill="#E6E7E8" d="M100.5,115.1c0,0,1.3-0.3,0.8-2.3c-0.4-1.6-1.8-3-3.2-2.4c-1.6,0.5-1.8,2.6-2.1,3.9
		C95.6,116,97.6,116.9,100.5,115.1z"/>
	<path fill="#957DA7" d="M99.5,115.7L99.5,115.7L99.5,115.7L99.5,115.7L99.5,115.7z M101.3,112.7c0-0.1,0-0.1,0-0.1
		S101.3,112.6,101.3,112.7L101.3,112.7z"/>
	<path fill="#C1C2C4" d="M97.6,116.1c-1.1,0-1.7-0.5-1.7-1.4c0-0.1,0-0.3,0-0.4c0.1-0.1,0.1-0.3,0.1-0.4c0.4,0.7,1.1,1,1.9,1
		c1.3,0,2.9-0.7,3-1.1c0.1-0.5,0.1-1.6,0.1-1.8c0,0.3,0.1,0.4,0.2,0.5c0,0,0,0,0,0.1c-0.2,0.7-0.4,1.5-0.6,2c0,0.1,0,0.3,0,0.3
		c-0.1,0.1-0.2,0.1-0.2,0.1c-0.4,0.1-0.6,0.4-1,0.5l0,0C98.8,116,98.2,116.1,97.6,116.1z"/>
	<path fill="#FFFFFF" d="M98.8,111.6c-0.5,0-0.8-0.1-0.7-0.5c0-0.3,0.4-0.4,0.7-0.4c0.5-0.1,0.7,0.1,0.7,0.4
		C99.5,111.3,99.1,111.6,98.8,111.6z"/>
	<path fill="#E6E7E8" d="M105.2,115.5c0,0,1.3-0.3,0.8-2.2c-0.5-1.8-1.8-3.1-3.3-2.6c-1.5,0.7-1.7,2.6-2,3.9
		C100.3,116.4,102.2,117.3,105.2,115.5z"/>
	<polygon fill="#957DA7" points="105.9,112.8 105.9,112.8 105.9,112.8 	"/>
	<path fill="#7F6394" d="M106.1,113.4c0-0.3-0.1-0.4-0.1-0.5l0,0C105.9,113,106.1,113.1,106.1,113.4z"/>
	<path fill="#C1C2C4" d="M102.4,116.5c-1.1,0-1.7-0.5-1.7-1.4c0-0.1,0-0.3,0-0.4c0-0.1,0.1-0.3,0.1-0.4c0.4,0.8,1.1,1.1,1.9,1.1
		c1.3,0,2.9-0.7,3-1.1c0.1-0.7,0.1-1.8,0.1-1.8s0,0.1,0.1,0.3l0,0c0,0.1,0.1,0.3,0.1,0.5l0,0c0.1,0.3,0.1,0.5,0.1,0.8l0,0
		c0,0.1,0,0.3,0,0.4c-0.2,0.8-1,1-1,1C104.1,116.2,103.2,116.5,102.4,116.5z"/>
	<path fill="#FFFFFF" d="M103.4,112.2c-0.4,0-0.7-0.3-0.7-0.5c0.1-0.3,0.5-0.5,0.8-0.5c0.4,0,0.7,0.1,0.7,0.4
		C104.3,111.9,103.9,112,103.4,112.2z"/>
	<path fill="#E6E7E8" d="M110.9,114.9c0,0,1.4-0.5,0.7-2.6c-0.7-1.6-2.3-3-3.8-2.2c-1.6,1-1.4,3-1.7,4.5
		C105.8,116.4,108.1,117.2,110.9,114.9z"/>
	<polygon fill="#D6D6D7" points="111.7,112.3 111.7,112.3 111.7,112.3 	"/>
	<path fill="#7F6394" d="M111.7,112.3c-0.1-0.1-0.1-0.1-0.1-0.3C111.5,112.2,111.5,112.2,111.7,112.3L111.7,112.3z"/>
	<path fill="#C1C2C4" d="M107.7,116.2c-1,0-1.6-0.5-1.7-1.2c0,0,0,0,0-0.1c0,0,0-0.1,0.1-0.3c0-0.1,0-0.3,0-0.4
		c0.4,0.5,1,0.8,1.7,0.8c1.5,0,3.3-1.1,3.5-1.6c0.1-0.7-0.1-1.8-0.1-1.9c0.1,0.1,0.2,0.4,0.4,0.5c0,0.1,0,0.1,0.1,0.3l0,0l0,0l0,0
		c0.1,0.4,0.2,0.8,0.2,1.1c0,1.1-1,1.5-1,1.5C109.8,115.8,108.6,116.2,107.7,116.2z"/>
	<path fill="#FFFFFF" d="M108.8,111.3c-0.5,0.1-0.8,0-0.8-0.4c0-0.3,0.4-0.5,0.7-0.7c0.5,0,0.8,0.1,0.8,0.4
		C109.5,111.1,109.2,111.3,108.8,111.3z"/>
	<path fill="#E6E7E8" d="M71,118c0,0,1.4-0.3,0.8-2.3c-0.4-1.6-1.7-3-3.2-2.4c-1.6,0.7-1.7,2.6-2.1,3.9
		C66.1,118.8,68.1,119.8,71,118z"/>
	<path fill="#957DA7" d="M71.8,115.7c0,0,0-0.1,0-0.3C71.8,115.5,71.8,115.7,71.8,115.7z"/>
	<path fill="#C1C2C4" d="M68.1,118.9c-1.1,0-1.7-0.5-1.7-1.4c0-0.1,0-0.3,0-0.4c0.1-0.1,0.1-0.3,0.1-0.4c0.4,0.7,1.2,1,2,1
		c1.3,0,2.7-0.5,2.9-1.1c0.2-0.5,0.1-1.6,0.1-1.8c0.1,0.3,0.1,0.4,0.2,0.5c0,0.1,0,0.3,0,0.3l0,0c0.1,0.1,0.1,0.3,0.1,0.4
		c-0.2,0.5-0.4,1.1-0.5,1.6c-0.2,0.1-0.5,0.3-0.5,0.3c-0.2,0.1-0.6,0.3-0.8,0.4l0,0C69.4,118.8,68.7,118.9,68.1,118.9z"/>
	<path fill="#FFFFFF" d="M69.3,114.5c-0.5,0-0.8-0.1-0.7-0.4c0-0.4,0.4-0.5,0.7-0.5c0.5,0,0.7,0.1,0.7,0.4S69.7,114.5,69.3,114.5z"
		/>
	<path fill="#E6E7E8" d="M75.9,118.9c0,0,1.4-0.3,1-2.3c-0.5-1.6-1.8-3-3.3-2.4s-1.7,2.6-2,3.9C71,119.6,73,120.7,75.9,118.9z"/>
	<path fill="#7F6394" d="M76.8,116.6c-0.1-0.1-0.1-0.4-0.2-0.5C76.7,116.2,76.7,116.5,76.8,116.6z"/>
	<path fill="#C1C2C4" d="M73.1,119.9c-1.1,0-1.8-0.5-1.8-1.4c0-0.1,0-0.3,0.1-0.4c0-0.1,0-0.3,0.1-0.4c0.2,0.7,1.1,1,1.9,1
		c1.3,0,2.7-0.7,2.9-1.1c0.2-0.7,0.1-1.8,0.1-1.8c0,0.1,0.1,0.3,0.1,0.3c0.1,0.1,0.1,0.4,0.2,0.5l0,0c0,0.1,0,0.3,0,0.4
		c0,0.4,0,0.7-0.1,1.1c0,0,0,0,0,0.1c-0.2,0.5-0.8,0.7-0.8,0.7C74.8,119.6,73.9,119.9,73.1,119.9z"/>
	<path fill="#FFFFFF" d="M74.2,115.4c-0.5,0-0.7-0.3-0.7-0.5c0-0.3,0.4-0.4,0.7-0.5c0.5,0,0.8,0.3,0.8,0.5
		C75.1,115.1,74.6,115.4,74.2,115.4z"/>
	<path fill="#E6E7E8" d="M81.6,118.3c0,0,1.4-0.5,0.6-2.4c-0.6-1.8-2.1-3.1-3.7-2.2c-1.5,0.8-1.5,2.9-1.8,4.5
		C76.5,119.8,78.7,120.6,81.6,118.3z"/>
	<path fill="#7F6394" d="M76.7,118.5v-0.1V118.5L76.7,118.5z M82.2,115.8c0-0.1,0-0.3-0.1-0.4C82.2,115.5,82.2,115.7,82.2,115.8z"/>
	<path fill="#C1C2C4" d="M78.3,119.6c-0.8,0-1.4-0.4-1.5-1.1v-0.1c0-0.1,0-0.3,0-0.3c0.1-0.3,0.1-0.4,0.1-0.5c0.4,0.7,1,0.8,1.7,0.8
		c1.4,0,3.3-1.1,3.5-1.6c0.1-0.7-0.1-1.8-0.1-1.9c0.1,0.3,0.2,0.4,0.2,0.5c0.1,0.1,0.1,0.3,0.1,0.4l0,0c0.2,0.4,0.2,0.7,0.2,1
		c0,1.2-0.8,1.5-0.8,1.5C80.3,119.2,79.2,119.8,78.3,119.6z"/>
	<path fill="#FFFFFF" d="M79.3,114.9c-0.4,0-0.7-0.1-0.7-0.5c0-0.3,0.2-0.5,0.7-0.7c0.5,0,0.8,0.1,0.8,0.4
		C80.2,114.5,79.8,114.7,79.3,114.9z"/>
	<path fill="#9776B0" d="M50,96l-0.1-0.1c0.6-0.1,1.3-0.4,1.9-0.7c-0.1,0.3-0.2,0.4-0.4,0.7C51,95.8,50.5,96,50,96z M62.8,91.9
		c-0.8-0.1-1.5-0.1-2.4-0.1c-0.6,0-1.2,0-1.8,0c3.2-1.9,6.1-4.3,7.8-6.9c0.6,0.3,1.1,0.5,1.7,0.5c-0.6,1.1-1.2,2.3-1.9,3.3
		C65.4,89.6,64.3,90.8,62.8,91.9z M71.6,80.9c0.2-0.8,0.2-1.4-0.1-1.6c-0.2-0.1-0.6-0.3-1-0.4c1.8-2,3.3-3.1,5.1-3.5l0,0
		c-0.2,0.7-0.5,1.2-0.5,1.8c-0.1,0.8,0.4,1.4,1,1.6C74.2,79.3,72.8,80.1,71.6,80.9z"/>
	<path fill="#7E4D95" d="M76.1,78.7c-0.6-0.3-1.1-0.8-1-1.6c0-0.5,0.2-1.1,0.5-1.8c0.8,1,2.1,1.2,3.5,1.2c0.4,0,0.8,0,1.2-0.1
		C79,77.5,77.6,78.3,76.1,78.7L76.1,78.7z"/>
	<path fill="#7E4D95" d="M68,85.4c-0.6,0-1.1-0.3-1.7-0.5c0.1-0.1,0.1-0.3,0.2-0.3c1.4-2.4,2.7-4.2,3.9-5.7c0.4,0.1,0.7,0.3,1,0.4
		c0.4,0.3,0.4,0.8,0.1,1.6C69.9,82.3,68.9,83.9,68,85.4z"/>
	<path fill="#D4A1BE" d="M51.4,95.8c0.1-0.3,0.2-0.4,0.4-0.7c2.3-0.8,4.7-2,6.8-3.4c0.6,0,1.2,0,1.8,0c0.8,0,1.5,0,2.4,0.1
		C60.1,93.7,56.5,95.3,51.4,95.8z"/>
	<path fill="#805D9C" d="M49.5,96c0.1,0,0.2-0.1,0.4-0.1L50,96C49.9,96,49.7,96,49.5,96z"/>
	<path fill="#9776B0" d="M87.2,68.8c-0.2-0.5-0.7-1-1.2-1.2c-0.2-0.1-0.4-0.3-0.6-0.3c-0.2,0-0.4,0.1-0.6,0.1
		c-0.1-0.3-0.2-0.7-0.6-0.8c0.4-0.8,0.6-1.4,0.8-1.9c0.7-0.1,1.4-0.1,2.3-0.1c0.8,0,1.7,0,2.5,0.1C89.8,64.7,88.9,66.5,87.2,68.8z"
		/>
	<path fill="#7E4D95" d="M85.1,71.8c0-0.4,0-0.8,0-1.4c0-0.5,0-1.2-0.1-1.9c0,0,0-0.1,0-0.3c0-0.3,0-0.5-0.1-0.8
		c0.2,0,0.4-0.1,0.6-0.1c0.2,0,0.4,0.1,0.6,0.3c0.5,0.3,1,0.7,1.2,1.2C86.6,69.8,85.9,70.9,85.1,71.8z"/>
	<path fill="#B295C6" d="M28.4,99.9c0,0,11.6-3,16.5-3c4.8,0,17.3-5.3,21.7-12.4c4.4-7.2,7.4-9.8,11.2-9.5c3.8,0.3,4.5,0.5,5.7-5.4
		c1.1-6.1,3.2-6.7,5-8.4c1.8-1.8,2.3-4.9-1.2-8.3c-3.5-3.4-0.6-6.7,0.5-9.4c1.2-2.9-0.7-5-3.7-6.5c-3.1-1.6-0.8-4.1,0.4-7.2
		c1.3-3.1-0.6-5.3-4.7-5.4c-4.2-0.3-3.2-3.1-2.7-6.8c0.4-3.7-2.7-3.4-7.3-2.7c-4.4,0.7-2.4-5.2-2.7-7.2c-0.4-2-5.2-1.5-8.7,0.8
		c-3.5,2.3-4.3-3-6.1-4.9c-1.8-1.9-3.6,0.4-5.7,2.6c-2,2.2-3.1-0.5-5.4-2c-2.1-1.4-4.5-1.6-6.4,2c-2,3.7-1.3,5.3-4.9,4.5
		c-3.6-0.8-5.4-0.5-6,3c-0.6,3.5-0.4,4.5-2.6,4.8c-0.7,0.1-1.6,0-2.3-0.3c-1.7-0.3-3.2-0.7-3.7,1.6c-0.8,3.4,2.1,5.7-0.7,6.5
		c-2.7,0.8-6.4-0.7-5.7,3.1c0.6,3.7,2.7,7.5,1,8.3c-1.7,1-4.8,0.5-3.1,4.9c1.6,4.3,3.7,6.8,3.1,8.2c-0.6,1.2-5,0-3.9,3.3
		c1,3.1,4.1,3.4,4.1,5c0,1.5,1.2,6.4,4.8,12.2c3.6,5.8,4.2,9.4,3.6,12.8C17.6,87.4,20.1,99.4,28.4,99.9z"/>
	<path fill="#D8CAE2" d="M45.1,7c-0.1,0-0.2,0-0.2,0l0,0C44.9,7,45,7,45.1,7c0.2,0,0.4-0.1,0.6-0.1l0,0C45.5,6.9,45.4,7,45.1,7z"/>
	<path fill="#9776B0" d="M28.4,99.9L28.4,99.9c-0.1-0.1-0.4-0.1-0.5-0.1c1.7-2.3,6.6-3.7,10.9-5.2c5.7-1.9,11.8-4.5,20-8.8
		c8.1-4.3,17.3-24.5,17.2-26.2c-0.1-1.6,1.4-5.2,2.7-8.6c1.4-3.3-0.4-9-3-11.3c-2.6-2.2-0.5-2.7-1.8-8.8c-1.2-6.1-6.4-9.1-8.1-9.1
		c0,0,0,0-0.1,0h-0.1c-1.4,0-3.1-1.9-4.9-4.6c-1.8-2.7-5-4.1-7.4-4.1c-0.2,0-0.4,0-0.6,0c-1.7,0.3-3.9,2-5.4,2
		c-0.7,0-1.2-0.4-1.3-1.6C45.7,9.9,44.9,7,44.9,7s0.1,0,0.2,0c0.2,0,0.4-0.1,0.6-0.1c0.1,0.4,0.5,0.8,1.1,1.4l0,0
		c1.3,1,3.1,1.6,4.8,1.6c1.1,0,2.1-0.3,3-1.1c0.2-0.3,0.4-0.4,0.5-0.7c0.5,0.5,1.1,1,1.8,1c0.4,0,0.7-0.1,1.2-0.4
		c-0.2,0.3-0.4,0.7-0.4,1.2s0.1,1.1,0.5,1.9l0,0c1,2,3,3.7,5.1,3.7c0.5,0,1.1-0.1,1.7-0.4c1.1-0.5,1.7-1.2,2-2.2
		c0.1,1,0.6,1.8,1.5,2c-0.4,0.3-0.6,0.8-0.6,1.5c0,0.5,0.1,1.1,0.5,1.8l0,0c1,2.4,3.1,4.8,5.4,4.8c0.5,0,1.1-0.1,1.6-0.4
		c0.6-0.3,1-0.5,1.3-1.1c0,1.1,0.4,1.9,1.2,2.4c-0.2,0.4-0.4,1.1-0.5,1.9c-0.2,3.4,1.3,7.6,4.3,7.7c0.1,0,0.1,0,0.2,0
		c0.4,0,0.8-0.1,1.1-0.3c-0.2,0.5-0.4,1.1-0.4,1.6C82,35,81.1,35.5,80.8,38l0,0l0,0l0,0l0,0c-0.4,4.1,0.8,9.2,3.7,10.1
		c0.2,0,0.5,0,0.6,0c0.4,0,0.6,0,0.8-0.1c-0.1,0.5-0.2,1-0.2,1.5c0,0.4,0,0.8,0.1,1.2c-0.5,0-1.2,0.4-1.9,1.1
		c-2.5,2.6-3.9,7.3-1.2,10.3c1,1.1,1.9,1.5,3,1.5c0.1,0,0.2,0,0.4,0c-0.6,0.7-1.2,1.6-1.8,3.1c-0.2-0.3-0.6-0.4-1.2-0.4
		c-0.5,0-1,0.1-1.7,0.3l0,0c0,0-0.1,0-0.2,0.1c-3.8,1.4-7.4,5.2-5.8,8.2c0.1,0.1,0.2,0.4,0.4,0.5c-1.8,0.4-3.3,1.5-5.1,3.5
		c-1.2,1.5-2.5,3.3-3.9,5.7c-0.1,0-0.1,0.1-0.2,0.3c-1.7,2.6-4.5,5-7.8,6.9c-2.1,1.4-4.5,2.6-6.8,3.4c-0.7,0.3-1.6,0.5-2.3,0.8
		c-0.1,0-0.1,0-0.2,0.1l0,0c-1.8,0.4-3.3,0.8-4.4,0.8C40,96.9,28.4,99.9,28.4,99.9z"/>
	<path fill="#7A68AE" d="M50.4,57.4c0,0,11.1-3.7,20,1.6C70.4,59,61.2,60.4,50.4,57.4z"/>
	<path fill="#7A68AE" d="M49.8,66.1c0,0,10.1,0.1,16.8,7.2C66.6,73.3,58.5,71.7,49.8,66.1z"/>
	<path fill="#7A68AE" d="M54.5,49c0,0,7.6-8.4,16-8.6C70.5,40.4,63.7,46,54.5,49z"/>
	<path fill="#7A68AE" d="M45.4,41c0,0,3.9-12.2,11.3-17.3C56.7,23.7,52.5,32.8,45.4,41z"/>
	<path fill="#7A68AE" d="M36.5,39.3c0,0,1.3-13.3,7.3-21.6C43.8,17.7,41.7,28.3,36.5,39.3z"/>
	<path fill="#7A68AE" d="M31.4,44.6c0,0-5.2-11.4-4.2-22.6C27.2,22.1,30.5,31.9,31.4,44.6z"/>
	<path fill="#7A68AE" d="M25.7,45.7c0,0-7.2-5.7-8.9-14.5C16.7,31.2,21.9,36.8,25.7,45.7z"/>
	<path fill="#D8CAE2" d="M18.3,84L18.3,84L18.3,84z"/>
	<path fill="#9776B0" d="M18.2,84.2c0,0,0-0.1,0.1-0.1l0,0l0,0c0.1-0.7,0.1-1.5,0.1-2.3S18.3,80,18.2,79c0.7,0.3,1.4,0.5,2.1,0.5
		c-0.1,1.4-0.2,2.9-0.4,4.2c0,0,0,0-0.1,0s-0.4,0-0.5,0C18.5,83.8,18.3,84,18.2,84.2L18.2,84.2z M13.9,67.9
		c-0.4-0.1-0.8-0.1-1.2-0.3c-0.5-1.1-1-2-1.3-3C11.5,64.7,12.6,66.1,13.9,67.9z"/>
	<path fill="#9776B0" d="M11.4,64.5c-1.1-2.6-1.4-4.6-1.4-5.4l0,0c0-0.1,0-0.3,0-0.4c0,0.1,0,0.1,0,0.1c0.4,0,0.7-0.3,1.2-0.8
		c0.1-0.3,0.2-0.5,0.4-0.7l0,0c0.6-1.1,1-2.6,1-3.9c0.1,0.1,0.4,0.3,0.5,0.4c0.1,2.3,0.7,4.8-0.6,6C10.5,61.3,11.1,63.9,11.4,64.5z
		 M15.3,28.1L15.3,28.1c-0.2-1-0.6-1.4-1.1-1.6c0.1,0,0.2-0.1,0.4-0.1c0.6-0.1,1-0.4,1.1-0.7c0.1,0,0.1,0,0.2,0s0.1,0,0.2,0l0,0
		c0.5,0,1-0.1,1.4-0.3C16.3,26.8,15.3,28.1,15.3,28.1L15.3,28.1z M21.8,22.1c0.2-0.4,0.5-1,0.5-1.6l0,0
		C22.5,22.1,22.3,21.9,21.8,22.1z M22.2,19.6c0-0.5-0.2-1-0.5-1.2c0.7-0.1,1.1-0.5,1.3-1.1c0.4,0.3,0.7,0.3,1.2,0.3
		c0.1,0,0.2,0,0.5,0l0,0c1-0.1,2-0.4,3-0.8C24.9,18.8,22.6,18.1,22.2,19.6z"/>
	<path fill="#8177B7" d="M29.9,78.5c0.1,1-0.5,1.8-1.3,1.9c-0.8,0.1-1.6-0.5-1.6-1.5c-0.1-1,0.5-1.8,1.3-1.9
		C29,77,29.9,77.5,29.9,78.5z"/>
	<path fill="#FACBD6" d="M85,68.5c0,0,0.5-3.3-3.6-2c-3.9,1.4-7.6,5.2-6.1,8.3c1.2,2.4,4.5,1.6,6.4,1.6C83.6,76.3,85.7,73.3,85,68.5
		z"/>
	<path fill="#925194" d="M81.3,76.4L81.3,76.4c0.1,0,0.4,0,0.5,0c1.4-0.1,3-1.8,3.3-4.6l0,0c-0.4,2.9-1.9,4.5-3.3,4.6
		C81.6,76.4,81.4,76.4,81.3,76.4z"/>
	<path fill="#94639B" d="M81.1,66.6c0.1-0.1,0.2-0.1,0.2-0.1S81.3,66.5,81.1,66.6z"/>
	<path fill="#F6ABBD" d="M81.3,76.4c2.9-1.9,2.9-8.4,1.8-8.8c-0.5-0.3-1.3-0.3-2-0.3c-0.8,0-1.4,0-1.6,0c0.6-0.3,1.2-0.5,1.7-0.7
		c0.1-0.1,0.2-0.1,0.2-0.1l0,0c0.7-0.1,1.2-0.3,1.7-0.3c1.8,0,1.9,1.4,1.9,2c0,0.1,0,0.3,0,0.3l0,0l0,0c0.1,0.7,0.1,1.4,0.1,1.9
		c0,0.5,0,1,0,1.4c-0.4,2.9-1.9,4.5-3.3,4.6C81.6,76.4,81.4,76.4,81.3,76.4z"/>
	<path fill="#FEF3F7" d="M78,72.9c0,0.8-0.6,1.5-1.1,1.6c-0.6,0-1.2-0.5-1.2-1.4c0-1,0.5-1.8,1.2-1.8C77.6,71.3,78,72.1,78,72.9z"/>
	<path fill="#FACBD6" d="M87.9,51.6c0,0-1.6-2.3-4.1,0.1c-2.5,2.6-3.9,7.3-1.2,10.3c2.6,3,6,0.5,8.3-0.4
		C93.3,60.7,92.7,55.8,87.9,51.6z"/>
	<path fill="#FBD6E1" d="M90.3,61.9L90.3,61.9c0.2,0,0.4-0.1,0.6-0.3C90.7,61.7,90.6,61.9,90.3,61.9z M91,61.6L91,61.6
		c0.8-0.3,1.3-1.2,1.3-2.4C92.3,60.4,91.9,61.3,91,61.6L91,61.6z"/>
	<path fill="#F6ABBD" d="M90.3,61.9c1.7-3.9-3.3-10.2-4.5-10.2l0,0c-1.2,0.1-3,1.4-3,1.4c0.4-0.4,0.7-1,1.1-1.4
		c0.8-0.8,1.7-1.1,2.3-1.1c1.2,0,1.8,1,1.8,1c3.1,2.6,4.4,5.6,4.4,7.6c0,1.2-0.5,2.2-1.3,2.4l0,0c-0.1,0-0.1,0-0.1,0
		C90.7,61.7,90.6,61.9,90.3,61.9z"/>
	<path fill="#FEF3F7" d="M84.2,58.8c0.5,1,0.4,2-0.2,2.3c-0.5,0.3-1.3-0.3-1.7-1.2c-0.5-1-0.4-2,0.1-2.3
		C83,57.3,83.8,57.8,84.2,58.8z"/>
	<path fill="#FACBD6" d="M79.7,22.9c0,0-2.1-0.5-2.4,2.9c-0.2,3.4,1.3,7.6,4.3,7.7c3,0.1,3.7-3.8,4.7-6
		C87.1,25.2,84.5,22.4,79.7,22.9z"/>
	<path fill="#FBD6E1" d="M86,28.1L86,28.1c0,0,0-0.1,0.1-0.3C86,27.9,86,28.1,86,28.1z"/>
	<path fill="#F6ABBD" d="M86,28.1c-0.7-2.9-4.3-3.9-6.3-3.9c-0.6,0-1.1,0.1-1.3,0.4c-0.6,0.8-1,2.9-1,2.9c-0.1-0.5-0.1-1.1-0.1-1.6
		c0.2-2.6,1.4-3,2-3c0.2,0,0.4,0.1,0.4,0.1c0.4-0.1,0.7-0.1,1.1-0.1c3.5,0,5.6,1.9,5.6,3.8c0,0.3,0,0.7-0.1,1l0,0
		c-0.1,0-0.1,0.1-0.1,0.3C86,27.9,86,28.1,86,28.1z"/>
	<path fill="#FEF3F7" d="M80.9,30.1c0.7,0.4,1.2,1.2,1.1,1.8c-0.2,0.5-1,0.7-1.7,0.4c-0.7-0.4-1.2-1.1-1-1.8
		C79.5,30,80.2,29.8,80.9,30.1z"/>
	<path fill="#FACBD6" d="M69.3,14.2c0,0-2.3,0.7-1,3.9c1.2,3,4.1,5.7,6.9,4.3c2.9-1.4,2.3-5,2.4-7.6C77.8,12.3,73.9,10.9,69.3,14.2z
		"/>
	<path fill="#FBD6E1" d="M77.7,15.7L77.7,15.7c0-0.3,0-0.5,0-0.7c0-0.1,0-0.1,0-0.1s0,0,0,0.1C77.7,15.1,77.7,15.4,77.7,15.7z"/>
	<path fill="#F6ABBD" d="M69.1,19.6c-0.4-0.5-0.6-1-0.7-1.5l0,0c-0.4-0.7-0.5-1.2-0.5-1.8c0-1.8,1.4-2.2,1.4-2.2
		c1.9-1.4,3.7-1.9,5.1-1.9c2,0,3.2,1.1,3.2,2.6l0,0c0,0.3,0,0.5,0,0.8c-0.8-1.1-2-1.5-3.3-1.5c-2.6,0-5.4,1.5-5.5,2.3
		C68.6,17.6,69.1,19.5,69.1,19.6z"/>
	<path fill="#FEF3F7" d="M73.5,20.2c0.7-0.1,1.4,0.3,1.6,0.8c0,0.7-0.6,1.1-1.4,1.2c-0.7,0-1.4-0.4-1.6-1
		C72.1,20.7,72.7,20.2,73.5,20.2z"/>
	<path fill="#FACBD6" d="M58.8,7.9c0,0-2.1,0.8-0.7,3.8c1.3,2.6,4.2,4.5,6.8,3.3c2.9-1.4,2.4-4.6,2.7-7.2C67.9,5.1,63.6,4,58.8,7.9z
		"/>
	<path fill="#F6ABBD" d="M58.8,13c-0.2-0.4-0.5-0.8-0.7-1.2l0,0c-0.4-0.8-0.5-1.4-0.5-1.9c0-1.4,1.2-1.9,1.2-1.9
		c2.3-1.8,4.4-2.6,6-2.6c1.7,0,2.9,0.8,2.9,2.2c0,0.1,0,0.3,0,0.3l0,0c-0.1,0.3-0.1,0.5-0.1,0.8c-0.7-1-1.8-1.2-2.9-1.2
		c-2.9,0-6.1,1.9-6.2,2.7C58.4,11.2,58.8,12.8,58.8,13z"/>
	<path fill="#FEF3F7" d="M63.1,13.1c0.8-0.1,1.6,0.1,1.6,0.7c0,0.4-0.6,1-1.3,1.1c-0.8,0-1.4-0.3-1.6-0.7
		C61.8,13.7,62.3,13.2,63.1,13.1z"/>
	<path fill="#FACBD6" d="M46.2,5.5c0,0-1.3,1.1,0.6,2.7c2.1,1.6,5.8,2.4,7.8,0.5c2-2.2-0.5-4.5-1.6-6.1C51.9,1,48.3,2,46.2,5.5z"/>
	<polygon fill="#FBD6E1" points="53.4,3.2 53.4,3.2 53.4,3.1 	"/>
	<path fill="#F6ABBD" d="M47.9,8.9c-0.4-0.3-0.7-0.4-1.1-0.7l0,0C46,7.5,45.7,7,45.7,6.5c0-0.5,0.5-1,0.5-1c1.4-2.4,3.6-3.7,5.1-3.7
		c0.7,0,1.3,0.3,1.7,0.8c0.1,0.1,0.2,0.3,0.4,0.4v0.1c-0.4-0.1-0.6-0.1-1-0.1c-3.1,0-6,3.3-5.8,3.9C46.9,7.8,47.9,8.9,47.9,8.9z"/>
	<path fill="#FEF3F7" d="M51.7,7.7c0.7-0.3,1.5-0.3,1.9,0.1c0.2,0.4,0,1-0.7,1.2c-0.7,0.4-1.5,0.3-1.8,0C50.7,8.6,51.1,8.1,51.7,7.7
		z"/>
	<path fill="#FACBD6" d="M33.4,7.3c0,0-1.1,1.8,1.4,2.6c2.9,0.8,7.5,0,8.6-3.1c1-3.1-2.7-3.9-4.4-4.9C37.5,1,34.5,3.2,33.4,7.3z"/>
	<path fill="#FBD6E1" d="M39.5,2.1C39.4,2,39.4,2,39.3,2C39.4,2,39.5,2,39.5,2.1L39.5,2.1z"/>
	<path fill="#F6ABBD" d="M36.3,10.1c-0.2,0-0.4-0.1-0.5-0.1c0,0-0.1-0.1-0.1-0.3C36.1,10,36.3,10.1,36.3,10.1z M34.3,7.8
		c-0.1-0.1-0.4-0.3-0.5-0.3c-0.2,0-0.4,0.1-0.5,0.1c0-0.3,0.1-0.4,0.1-0.4c1-3.5,3.2-5.6,4.9-5.6c0.2,0,0.5,0,0.7,0.1
		c0.1,0,0.1,0.1,0.2,0.1s0.1,0,0.2,0.1C36.8,2.7,34.7,6,34.3,7.8z"/>
	<path fill="#FEF3F7" d="M39.9,7c0.5-0.7,1.4-1.1,1.9-0.8c0.6,0.3,0.6,1-0.1,1.8c-0.5,0.7-1.4,1-1.9,0.7C39.3,8.4,39.3,7.7,39.9,7z"
		/>
	<path fill="#FACBD6" d="M22.5,15.8c0,0-0.5,2,2.3,1.8c3-0.3,7.2-2.4,7.5-5.6c0.5-3.3-3.3-2.9-5.4-3.3C25,8.5,22.3,11.6,22.5,15.8z"
		/>
	<path fill="#FBD6E1" d="M27.5,8.9c-0.1,0-0.2-0.1-0.4-0.1C27.2,8.8,27.4,8.9,27.5,8.9L27.5,8.9z"/>
	<path fill="#F6ABBD" d="M24.3,17.6c-1.6,0-1.8-0.8-1.8-1.4c0-0.1,0-0.4,0-0.4l0,0l0,0v-0.1c0-3.9,2.3-6.9,4.2-6.9c0,0,0.1,0,0.2,0
		s0.1,0,0.2,0c0.1,0,0.2,0.1,0.4,0.1c-3.5,1.8-4.4,7.5-3.8,7.9c0.8,0.4,2.4,0.5,2.5,0.5c-0.6,0.1-1.1,0.3-1.4,0.3l0,0
		C24.5,17.6,24.4,17.6,24.3,17.6z"/>
	<path fill="#FEF3F7" d="M28.9,13.4c0.4-0.7,1.2-1.4,1.8-1.4c0.5,0,0.7,0.8,0.2,1.6c-0.5,0.8-1.2,1.4-1.8,1.2
		C28.7,14.9,28.5,14.2,28.9,13.4z"/>
	<path fill="#FACBD6" d="M14.2,24.1c0,0-0.2,1.6,1.9,1.5c2.4-0.1,5.8-2.2,6.1-5.2c0.4-3.3-3.1-3-5-3.4C15.4,16.8,13.5,20,14.2,24.1z
		"/>
	<path fill="#FBD6E1" d="M17.8,17.2c-0.1,0-0.2-0.1-0.4-0.1C17.6,17.1,17.7,17.1,17.8,17.2L17.8,17.2z"/>
	<path fill="#F6ABBD" d="M15.9,25.6c-1.6,0-1.7-1.1-1.7-1.4c0-0.1,0-0.1,0-0.1l0,0l0,0c-0.1-0.5-0.1-1.1-0.1-1.6
		c0-3.1,1.4-5.4,2.9-5.4c0.1,0,0.2,0,0.2,0c0.1,0,0.2,0,0.2,0c0.1,0,0.2,0.1,0.4,0.1c-3,1.9-3.1,7.3-2.5,7.7c0.6,0.3,2,0.4,2,0.5
		c-0.5,0-0.8,0.1-1.2,0.1l0,0C16,25.6,16,25.6,15.9,25.6z"/>
	<path fill="#FEF3F7" d="M19.4,21.8c0.4-0.7,1-1.4,1.4-1.4c0.6,0.1,0.7,0.8,0.4,1.6c-0.4,0.7-1,1.2-1.4,1.2
		C19.2,23.3,19.1,22.6,19.4,21.8z"/>
	<path fill="#FACBD6" d="M9.2,34.6c0,0,0.5,1.6,2.5,0.5c2-1.2,4.3-4.3,3.6-7.1c-0.8-3.1-3.8-1.5-5.7-1.2C7.7,27.2,7.1,31.2,9.2,34.6
		z"/>
	<path fill="#FBD6E1" d="M9.8,26.8c0.1,0,0.2,0,0.2-0.1l0,0C10.1,26.8,9.9,26.8,9.8,26.8z"/>
	<path fill="#F6ABBD" d="M9.8,27.2c-0.1-0.1-0.1-0.3-0.1-0.4h0.1c0.1,0,0.2,0,0.2-0.1C9.9,27,9.9,27.1,9.8,27.2z"/>
	<path fill="#FEF3F7" d="M13.3,30.4c0-0.8,0.4-1.6,0.8-1.8c0.5-0.1,0.7,0.4,0.7,1.2c0,0.8-0.4,1.5-0.8,1.6
		C13.6,31.6,13.3,31.2,13.3,30.4z"/>
	<path fill="#FACBD6" d="M8.4,47.8c0,0,0.7,1.1,2-0.3c1.4-1.5,2.9-4.5,2.3-7.5c-1-4.8-4.2-2.3-6.6-1.8C3.3,38.9,4.8,45,8.4,47.8z"/>
	<path fill="#F6ABBD" d="M8.2,47.5c-2.1-1.8-3.5-4.8-3.5-6.9c0-0.4,0-0.8,0.1-1.1C5.8,42.6,6.8,45.3,8.2,47.5z"/>
	<path fill="#FEF3F7" d="M11.1,42.9c-0.1-0.8,0.2-1.8,0.6-2c0.4-0.3,0.6,0.4,0.7,1.4c0,0.8-0.2,1.6-0.6,1.8
		C11.6,44.2,11.3,43.7,11.1,42.9z"/>
	<path fill="#FACBD6" d="M9.5,58.5c0,0,0.7,0.8,1.7-0.5s1.8-4.1,1-6.4c-1.3-3.7-3.7-1.4-5.6-0.5C4.3,52,6.2,56.7,9.5,58.5z"/>
	<path fill="#94639B" d="M9.9,58.8L9.9,58.8L9.9,58.8L9.9,58.8c0.4,0,0.7-0.3,1.2-0.8c0.1-0.3,0.2-0.4,0.4-0.7l0,0
		c-0.1,0.1-0.2,0.4-0.4,0.7C10.7,58.5,10.3,58.8,9.9,58.8z"/>
	<path fill="#FBD6E1" d="M6.8,50.9c0,0,0.1-0.1,0.2-0.1l0,0C7,50.9,6.8,50.9,6.8,50.9z"/>
	<path fill="#F6ABBD" d="M9.9,58.8L9.9,58.8c-0.4-0.1-0.5-0.3-0.5-0.3c-2.3-1.2-3.9-3.9-3.9-5.8c0-0.7,0.4-1.4,1-1.6
		c0.1,0,0.2,0,0.4-0.1c0,0,0.1,0,0.2-0.1c-0.6,4.1,2.6,7.3,3.2,7.3c0.1,0,0.1,0,0.1,0c0.4-0.1,1.1-0.8,1.1-0.8
		c-0.1,0.3-0.2,0.4-0.4,0.7C10.7,58.5,10.3,58.8,9.9,58.8z"/>
	<path fill="#FEF3F7" d="M11.1,54.1c-0.1-0.7-0.1-1.6,0.2-1.8c0.2-0.3,0.6,0.3,0.7,1c0.1,0.7,0,1.4-0.2,1.5
		C11.6,55.1,11.3,54.8,11.1,54.1z"/>
	<path fill="#FACBD6" d="M83.3,35c0,0-2-1.1-2.5,3c-0.4,3.9,0.8,9.2,3.7,10.1c2.9,0.7,3.8-3.7,4.9-6.2C90.3,39.3,87.9,35.4,83.3,35z
		"/>
	<path fill="#94639B" d="M80.8,38L80.8,38L80.8,38z M80.8,38L80.8,38L80.8,38z"/>
	<path fill="#F6ABBD" d="M89,42.6c-0.6-4.1-4.7-6.1-6.3-6.1c-0.4,0-0.6,0-0.7,0.3c-0.7,0.8-1.2,3.1-1.2,3.1c0-0.7,0-1.2,0-1.9l0,0
		l0,0l0,0l0,0c0.4-2.7,1.3-3.1,1.9-3.1c0.4,0,0.6,0.1,0.6,0.1c3.9,0.3,6.3,3.3,6.3,5.6c0,0.5-0.1,1-0.2,1.2l0,0
		C89.2,42,89.1,42.3,89,42.6z"/>
	<path fill="#FEF3F7" d="M84,44c0.7,0.5,1.1,1.5,0.8,2.2c-0.1,0.7-0.8,0.7-1.6,0.1c-0.7-0.5-1.1-1.5-0.8-2.2
		C82.6,43.4,83.3,43.4,84,44z"/>
	<path fill="#FFFFFF" d="M43.2,67c-0.1,4.2-3.2,7.5-6.9,7.3c-3.7-0.1-6.6-3.7-6.4-7.9c0.1-4.1,3.2-7.5,6.9-7.3
		C40.5,59.3,43.3,62.8,43.2,67z"/>
	<path fill="#231F20" d="M39.9,67.2c0,2.3-1.7,4.1-3.8,4.1c-2-0.1-3.6-2-3.5-4.3c0-2.3,1.7-4.1,3.7-4.1C38.4,63,40,64.9,39.9,67.2z"
		/>
	<path fill="#FFFFFF" d="M40.6,63.9c0,1.1-0.8,1.9-1.8,1.9c-1.1,0-1.8-1-1.8-2c0-1.2,0.8-2,1.9-2C39.9,61.7,40.6,62.7,40.6,63.9z"/>
	<path fill="#FFFFFF" d="M35.2,70.2c0,0.7-0.6,1.2-1.2,1.2S32.8,70.9,33,70c0-0.7,0.5-1.2,1.2-1.2C34.7,68.8,35.2,69.4,35.2,70.2z"
		/>
	<path fill="#9776B0" d="M27.8,99.5c0.5-1.6,1.1-3.5,1.1-3.5c0.1-0.3,0.1-0.5,0.1-0.7l0,0l0,0l0,0l0,0l0,0l0,0
		c0-0.3-0.1-0.4-0.2-0.5l0,0l0,0c0,0,0,0-0.1-0.1c-1-1.8-4.3-7.6-7.2-9.8c-0.6-0.4-1.1-0.5-1.6-0.7c0-0.1,0-0.3,0-0.4
		c2.3,0.4,7.6,8,8.9,10.2C30.2,96.3,28.4,99.4,27.8,99.5z"/>
	<path fill="#805D9C" d="M18.2,84.2c0.1-0.1,0.4-0.4,1.2-0.4c0.1,0,0.4,0,0.5,0s0.1,0,0.1,0c0,0.1,0,0.3,0,0.4
		C19.7,84,19.5,84,19.2,84C18.9,84,18.5,84,18.2,84.2z"/>
	<path fill="#F8971D" d="M28.9,96c0,0-1.4,4.5-1.8,5.4c-0.4,1-1.7,1.2-3.6,1.1c-1.9,0-6-1.9-3.8-2.9c2.1-1,5.4-2.3,6.2-3.4
		C26.9,95,29.4,93.4,28.9,96z"/>
	<path fill="#FFE49D" d="M20,100.3c0,0,1.6-0.8,2.7-1.4c1.2-0.5,2.1-1,2.3-1.1s-1.1,1.6-2.1,2.3C21.9,100.9,19.1,101,20,100.3z"/>
	<path fill="#FEDD97" d="M24,102.5L24,102.5L24,102.5L24,102.5z M24,102.5c1.7,0,2.7-0.3,3.1-1.1c0.1-0.3,0.4-1,0.6-1.6l0,0
		c-0.2,0.7-0.5,1.4-0.6,1.6C26.8,102.2,25.7,102.5,24,102.5z"/>
	<path fill="#FEDD97" d="M23.5,102.5L23.5,102.5L23.5,102.5L23.5,102.5L23.5,102.5z M23.5,102.5c-0.2,0-0.6,0-1-0.1
		C22.9,102.5,23.3,102.5,23.5,102.5z"/>
	<path fill="#966668" d="M27.8,99.5c0.5-1.6,1.1-3.5,1.1-3.5c0.1-0.3,0.1-0.5,0.1-0.7l0,0c0,0.1,0,0.4-0.1,0.7
		C28.9,96,28.3,97.9,27.8,99.5L27.8,99.5z M29,95.3c0,0,0,0,0-0.1c0-0.1-0.1-0.3-0.2-0.4C28.9,94.9,29,95,29,95.3z M28.8,94.8
		L28.8,94.8L28.8,94.8z"/>
	<path fill="#F78311" d="M24,102.5L24,102.5c-0.1,0-0.2,0-0.5,0l0,0l0,0l0,0c-0.2,0-0.6,0-1-0.1c-0.4,0-0.8-0.1-1.2-0.3l0,0l0,0
		c1.4,0,2.9-0.5,4.2-1.9c0.8-0.8,1.1-2.4,1.2-3.5c1-0.5,1.8-1,2.3-1.4c0,0.1,0,0.4-0.1,0.7c0,0-0.6,1.9-1.1,3.5
		c-0.1,0.1-0.1,0.1-0.1,0.3c-0.2,0.7-0.5,1.4-0.6,1.6C26.8,102.2,25.7,102.5,24,102.5L24,102.5z M29,95.2c-0.1,0-0.1-0.1-0.4-0.5
		c0.1,0.1,0.1,0.1,0.1,0.1l0,0l0,0C28.9,94.9,29,95,29,95.2z"/>
	<path fill="#FDBB30" d="M29,95.3c0,0-4.1-7.9-7.5-10.5c-3.9-2.9-7,1.9-7.4,9c-0.4,5.4,0.5,6.7,4.3,5.4C22.2,98.2,27.4,96.8,29,95.3
		z"/>
	<path fill="#FEDD97" d="M15.4,99.5c-0.1,0-0.4-0.1-0.5-0.3l0,0C15.1,99.4,15.3,99.5,15.4,99.5z"/>
	<path fill="#FCA21C" d="M16.3,99.7c-0.4,0-0.6,0-0.8-0.1c-0.1,0-0.4-0.1-0.5-0.3c0.8-0.3,1.9-0.7,3-1.5c2.6-2,7.8-8,7.8-8
		c1.9,2.9,3.3,5.4,3.3,5.6l0,0l0,0l0,0c-0.5,0.4-1.3,0.8-2.3,1.4c-0.8,0.3-1.7,0.5-2.6,1c-0.2,0-0.5,0.1-0.7,0.1
		c-1.7,0.5-3.5,1.1-5,1.5l0,0C17.5,99.5,16.9,99.7,16.3,99.7z"/>
	<path fill="#FFE49D" d="M19,85.9c-0.1,0-2.1,0.3-3,3.3c-0.8,2.7-1.9,7.7-0.7,7.3c1.2-0.5,2.4-5,3.2-6.7
		C19.4,88.2,20.6,85.9,19,85.9z"/>
	<path fill="#9776B0" d="M47.2,49.5c-1.6,0-2.7-0.5-3.3-1.8c-0.1-0.1-0.2-0.4-0.2-0.7c1.3,0.8,2.6,1.2,3.9,1.2l0,0l0,0l0,0l0,0
		c0.6,0,1.2,0,1.8-0.3l0,0l0,0l0,0l0,0c0.1,0,0.1,0,0.1,0l0,0l0,0c5.4-1.9,5.7-8.3,5.7-8.3c-1-0.4-1.9-1-2.9-1.6
		c0.4,0,0.7-0.1,1.1-0.1c1.6,0,2.7,0.7,3.3,1.8c1.1,2.2-1,5.8-4.4,8C50.5,49,48.6,49.5,47.2,49.5z"/>
	<path fill="#E6E7E8" d="M55.1,39.7c0,0-0.4,6.4-5.8,8.3c-5.6,1.9-13-5.4-16.2-22s0.1-21.5,2.4-16.7C37.7,13.9,42.6,34.4,55.1,39.7z
		"/>
	<path fill="#7F6394" d="M47.5,48.3L47.5,48.3L47.5,48.3L47.5,48.3z M47.5,48.3c0.6,0,1.2,0,1.8-0.3C48.7,48.3,48.1,48.3,47.5,48.3z
		 M49.3,48L49.3,48L49.3,48L49.3,48L49.3,48z M49.3,48c0.1,0,0.1,0,0.1,0S49.4,48,49.3,48z M49.4,48L49.4,48L49.4,48z"/>
	<path fill="#C1C2C4" d="M47.5,48.3L47.5,48.3c-5.2,0-11.4-7.3-14.4-22.1c0-0.1,0-0.1,0-0.1l0,0C30.7,13.4,32,7.5,33.8,7.5
		c0.2,0,0.5,0.1,0.7,0.4c0,0.1-1.2,21.2,7,29.5c8.2,8.3,10.7,8.8,10.7,8.8c-0.8,0.7-1.7,1.4-2.9,1.8l0,0l0,0c0,0,0,0-0.1,0l0,0l0,0
		l0,0l0,0C48.7,48.3,48.1,48.3,47.5,48.3L47.5,48.3z"/>
	<path fill="#FFFFFF" d="M51.8,41.6c0,0-0.5-1.6-1.7-3c-1.3-1.4-5.6-5.6-6.2-6.9c-0.6-1.5-2.6,0-0.4,3.1C46,38.1,51.1,45,51.8,41.6z
		"/>
	<path fill="#9776B0" d="M17.3,56.9c-1.4,0-2.7-0.5-3.2-1.6c-0.1-0.3-0.2-0.5-0.2-0.8c1.3,0.8,2.6,1.4,3.9,1.4l0,0l0,0l0,0l0,0
		c0.6,0,1.2-0.1,1.7-0.4l0,0l0,0c0.1,0,0.1,0,0.1,0l0,0l0,0l0,0l0,0l0,0l0,0c5.5-1.9,5.8-8.3,5.8-8.3c-1.1-0.4-2-1-2.9-1.5
		c0.4-0.1,0.7-0.1,1.1-0.1c1.6,0,2.7,0.5,3.2,1.6c1.2,2.2-0.8,5.8-4.4,8.2C20.7,56.3,18.9,56.9,17.3,56.9z"/>
	<path fill="#E6E7E8" d="M25.4,47.1c0,0-0.4,6.5-6,8.3c-5.5,1.9-12.9-5.3-16.1-22C0.2,16.8,3.4,12,5.8,16.6
		C8,21.4,12.9,41.8,25.4,47.1z"/>
	<path fill="#D6D6D7" d="M3.5,33.8L3.5,33.8L3.5,33.8z M3.4,33.8L3.4,33.8L3.4,33.8z M2.7,29.6c-0.2-1.9-0.5-3.5-0.6-5
		C2.2,26,2.4,27.6,2.7,29.6z M2.1,24.5L2.1,24.5L2.1,24.5z M2.1,24.5L2.1,24.5L2.1,24.5z"/>
	<path fill="#7F6394" d="M17.8,55.8L17.8,55.8L17.8,55.8L17.8,55.8z M17.8,55.8c0.6,0,1.2-0.1,1.7-0.4C19,55.6,18.4,55.8,17.8,55.8z
		 M19.5,55.4L19.5,55.4c0.1,0,0.1,0,0.1,0S19.6,55.4,19.5,55.4L19.5,55.4z M19.6,55.4L19.6,55.4L19.6,55.4z M19.6,55.4L19.6,55.4
		L19.6,55.4z M19.6,55.4L19.6,55.4L19.6,55.4z"/>
	<path fill="#C1C2C4" d="M17.8,55.8L17.8,55.8c-5.2-0.1-11.4-7.3-14.3-22l0,0c-0.1,0-0.1,0-0.1,0l0,0c0-0.1,0-0.3,0-0.4l0,0l0,0
		c-0.2-1.4-0.5-2.6-0.7-3.8c-0.2-1.9-0.5-3.5-0.6-5l0,0l0,0l0,0l0,0C1.7,18,2.7,15,4,15c0.2,0,0.5,0.1,0.8,0.3
		c0,0.1-1.2,21.2,7,29.5c8.2,8.3,10.6,8.8,10.6,8.8c-0.7,0.7-1.7,1.4-2.9,1.8l0,0l0,0l0,0l0,0l0,0l0,0c0,0,0,0-0.1,0l0,0l0,0
		C19,55.6,18.4,55.8,17.8,55.8L17.8,55.8z"/>
	<path fill="#FFFFFF" d="M22.1,49c0,0-0.5-1.6-1.8-3c-1.2-1.4-5.6-5.4-6.1-6.9c-0.6-1.4-2.7,0-0.4,3.3C16.3,45.6,21.4,52.4,22.1,49z
		"/>
	<path fill="#9776B0" d="M21.6,79.4c0.4-0.1,0.7-0.4,1.1-0.7l0,0c0,0,2.9-3.1,2.7-5.8c0-2.4-2.5-4.1-4.4-4.2c0.2,0,0.5,0,0.6,0
		c1.8,0,3.3,0.8,4.1,2.4c1.3,2.6,0.2,5.8-2.3,7.5C22.8,79,22.2,79.3,21.6,79.4z"/>
	<path fill="#E6E7E8" d="M22.7,78.7c0,0,2.9-3.1,2.7-5.8c0-2.7-3.2-4.5-5.4-4.2c-2,0.4-9.7-1.4-12.6-2.9c-3.1-1.5-2.5,1.5-0.1,4.2
		C9.7,72.6,18.3,82.3,22.7,78.7z"/>
	<path fill="#D6D6D7" d="M18.2,79c-4.3-1.6-9.2-7.1-10.9-9c-0.6-0.7-1.1-1.4-1.3-1.9c0.2,0.5,0.7,1.2,1.3,1.9
		C9,71.9,13.9,77.4,18.2,79L18.2,79z"/>
	<path fill="#C1C2C4" d="M20.4,79.5h-0.1c-0.7,0-1.4-0.3-2.1-0.5l0,0c-4.3-1.6-9.2-7.1-10.9-9c-0.6-0.7-1.1-1.4-1.3-1.9
		c-0.8-1.5-1-2.7,0.1-2.7l0,0c0,0,4.5,7.3,9.9,8.7c2.1,0.5,3.9,0.8,5.4,0.8c2.4,0,3.8-0.5,4.1-1.1c-0.5,2.4-2.7,4.9-2.7,4.9l0,0
		C22,79.3,21.3,79.5,20.4,79.5z M25.4,73.8c0,0,0,0,0-0.1C25.4,73.8,25.4,73.8,25.4,73.8z"/>
	<path fill="#FFFFFF" d="M22.3,70.6c0.1,0.7-0.7,1.2-1.8,1.4c-1.1,0.1-1.9-0.3-2-1c0-0.7,0.7-1.2,1.8-1.4
		C21.4,69.5,22.3,69.9,22.3,70.6z"/>
</g>
</svg>
