<?xml version="1.0" encoding="utf-8"?>
<!-- Generator: Adobe Illustrator 16.0.0, SVG Export Plug-In . SVG Version: 6.00 Build 0)  -->
<!DOCTYPE svg PUBLIC "-//W3C//DTD SVG 1.1//EN" "http://www.w3.org/Graphics/SVG/1.1/DTD/svg11.dtd">
<svg version="1.1" id="Layer_1" xmlns="http://www.w3.org/2000/svg" xmlns:xlink="http://www.w3.org/1999/xlink" x="0px" y="0px"
	 width="313px" height="321px" viewBox="0 0 313 321" enable-background="new 0 0 313 321" xml:space="preserve">
<g>
	<path fill="#F68E1E" d="M159.3,284c-2.8-1.3-4-1.8-5.8-4.3c-1.8-2.8-2.8-6.3-3.5-9.5c-1.3-4.5-4-13,2.3-15.3c4.8-1.8,7,6.3,7.8,9.3
		c0.8,3.5,1.5,7,2.3,10.3c0.3,1.5,0.3,2.8,0.5,4c0.3,1.8-1,3-1.3,4.5C161.3,284.3,160,284.5,159.3,284L159.3,284z"/>
	<path fill="#F68E1E" d="M118,287.5c-3-2.8-3.3-7-4.3-10.8c-1.3-5-1.8-10-2.8-15c-2-9.5,12.3-11.5,13-1.8c0.5,4.5,0.5,9,0.5,13.5
		c0,4.3,0.3,9.5-2,13.3C121.8,288.5,119.3,288.8,118,287.5L118,287.5z"/>
	<path fill="#F68E1E" d="M165,312.5c-0.3-0.3-2.3-3.8-2.8-5c-1.5-3.3-3.3-6.5-5-9.5c-1.8-2.8-8.8-10.5-3.3-13.3
		c6.3-2.8,11.3,6.8,13.5,10.8c1.8,3,3,6.5,3.5,9.8c0.3,1.5,0.3,2.8,0.3,4c-0.3,1.5-1,2-1.3,3.3C169.5,315.3,165.5,315,165,312.5
		L165,312.5z"/>
	<path fill="#F68E1E" d="M130.5,308c-2.3-2.3-4.3-4.5-5.8-7c-2-3-5-6-5.8-9.5c-0.8-3.3,3-7,6.3-4.8c3,2.3,4.5,5.8,6.5,8.8
		c1.8,3,3.3,6,3.8,9.5C136,307.8,132.8,310.3,130.5,308L130.5,308z"/>
	<path fill="#F68E1E" d="M122.3,313.3c-5.5-7.3-7-15.8-9.5-24.5c3.3,0.8,6.3,1.8,9.5,2.5c-3.3,3.5-5.5,7.8-7.8,11.8
		c-2.3,3.5-7,11.3-12,6c-4-4.3,0-9.3,2.5-13c2.8-4.3,5.5-9,9.3-12.8c2.8-2.8,8.5-1.5,9.3,2.5c2,9,3.8,17,3.3,26.3
		C126.8,314.5,123.8,315,122.3,313.3L122.3,313.3z"/>
	<path fill="#F68E1E" d="M177.5,307.8c-4.3,1-8.5-3-11.5-5.8c-4.8-4.5-9-9.5-13.3-14.5c3.5-1.5,7-2.8,10.5-4.3
		c0.3,8.8-1.5,17.8-2,26.5c-0.5,8-12,8-12.3,0c-0.3-8.8,1.8-17.8,2-26.5c0.5-6.3,8-8.3,11.5-3c3,4.5,6.3,9,9.5,13.5
		c2.5,3,7.5,7,7.3,11.3C179.3,306.3,178.5,307.3,177.5,307.8L177.5,307.8z"/>
	<path fill="#DFDFDC" d="M3,162.5c33,21.8,42,64,70,88.8c29.8,26.3,88.5,20,120.3,2C206,246,216,236,222.5,224.5
		c0.5-0.5,0.8-1.3,1-1.8c7.5-14,10.3-30.5,7.8-47.8c-2-13-10.8-23.8-13.5-36.3c-0.3-1-0.5-2-0.5-3c-0.3-1-0.3-1.8-0.3-2.8
		c-0.3-3.8,0.3-7.3,1.3-10.3c0.8-2,1.8-4,2.8-5.8l0,0c13-22.3,52.5-32.8,42-68.8C255.5,23,216.5,3.3,191.3,7
		c-18.8,2.8-32,22.3-35.5,39.8c-4.3,20.3,8.5,34.5,13.3,52.8c0.8,3.3,1.5,6.5,1.8,10c0,1.3,0,2.3,0,3.3c0,1.3-0.3,2.3-0.3,3.5
		c-0.8,2.8-1.8,5.5-3,7.8c-3.5,5.3-8.8,9.3-15.3,12.3c-17.5,8.3-43.3,10-57.5,12.3C75.5,151.8,13.8,145.8,3,162.5z"/>
	<path fill="#FFFFFF" d="M82.8,166.3c1.8,5.8,0.8,10.5,5.5,15.8c-10.5-3.8-20.5-11.3-32.3-9.8c1.3,8,6.8,13.8,11.3,20.5
		c-4.3-3-7.5-2.5-11.3-4c1.3,28,45,54.3,69.5,57c22.5,2.8,48.8-14.5,38.8-40C157.3,187.3,100.5,166.5,82.8,166.3z"/>
	<path fill="#E04A1F" d="M189.8,223.3c0.5,12-4.3,23,11.3,20c8.3-1.5,12.5-8.5,18-14.8c1.3-1.3,2.5-2.8,3.5-4
		c10.3-12.8,16-27.3,14.3-43.5c5.5-4.3-2-10-7.3-13.5c0.8-0.5,2.5-2,3.5-2.8c-2.8-3-4.5-8-6.3-10.8c1.8-0.3,3.5-0.5,5.3-0.5
		c-8.3-3.8-11-12.8-15-20.5c-0.5-0.5-0.5-0.5-0.5-0.5C171.3,117,171.3,117,171.3,117c-0.3-0.3-0.5-0.5-0.8-0.8
		c-0.8,2.8-1.8,5.5-3,7.8c-3.5,5.3-8.8,9.3-15.3,12.3c3.8,8.3,11,17.5,14.5,23.3C178.3,179.3,188.5,199.8,189.8,223.3z"/>
	<path fill="#39AC3E" d="M242,13c-1.8,1.3-3.8,2.5-5.8,3.8s-4.3,2.8-6.8,2c-1.5-0.5-2.5-1.8-2.5-3.5c-0.3-3,2.8-5,5.3-6
		c2.8-1,5.8-1.3,8.5-1.3S244,11.5,242,13L242,13z"/>
	<path fill="#39AC3E" d="M228,2.8c0.8,1,2,2,2.5,3c0.8,1.5,1.5,3.3,2.3,4.8c1.5,3.5,4,6,2.3,9.8c-0.8,1-2,1.8-3.3,1.8
		c-4.5,0-6.3-4.5-7.5-8c-0.8-2-1.3-4-1.3-6.3c0-1.8,1.3-3.5,2.3-5C225.8,1.8,227.3,1.8,228,2.8L228,2.8z"/>
	<path fill="#39AC3E" d="M170.8,109.5c0,1.3,0,2.3,0,3.3c1.5,0.5,3.3,1.3,4.8,1.8c13.3,4.5,28.3,7.8,42.8,8.3
		c9-26.5,56.3-35.5,44.8-74.5C255.5,23,216.5,3.3,191.3,7c-18.8,2.8-32,22.3-35.5,39.8C151,70.5,169,86,170.8,109.5z"/>
	<path fill="#F68E1E" d="M224.3,65C223,89.3,277,99.8,293.8,99.5C322,99,306.5,83,290,76.3c-8.3-3.3-15.3-2.8-21-10.3
		c-5.8-7.8-6.5-26.5-20.3-23.3C238.5,45.3,237.8,63.3,224.3,65z"/>
	<path fill="#FFFFFF" d="M208.8,62C223,51,218,28.5,204,19.5c-16.3-10.3-38.3,7-36.8,24.8c1,13.3,11.5,23.3,25,23
		C199.3,67,204.8,65,208.8,62z"/>
	<path fill="#100F0D" d="M189,28.8c-12.8-5-23.8,8.8-16.3,20c6.5,10,23.3,7,24.3-5.5C197.5,37,195.3,31.3,189,28.8z"/>
	<path fill="#FFFFFF" d="M180.3,36.5c-2.5-3.8-8.8-1.8-8.8,2.8c0,3.8,3.3,6.8,6.5,4.8C180.8,42.5,182.3,39.3,180.3,36.5z"/>
	<path fill="#F68E1E" d="M167.5,124c4.8,3.5,14.3,6,18,7.3c7.5,2.3,21.3,5.5,31.8,4.5c-0.8-5-0.3-9.3,1-13c0.8-2,1.8-4,2.8-5.8
		c-16.5,1.3-41-9-52-17.5C167.5,124,167.5,124,167.5,124z"/>
	<path fill="#4CBD4D" d="M236.8,24.8c4.3,2.3,6.5,10.5,3,14c-1,1.3-2.8,1-4,0c-1.5-1.3-2-3.8-2.5-5.8c-0.3-1.5-0.8-3-1.5-4.5
		C230.8,25.8,234.5,23.5,236.8,24.8L236.8,24.8z"/>
	<path fill="#4CBD4D" d="M222.8,23.8c1.5,1.8,2.5,3.5,3.3,5.8c0.5,1.8,0.5,4.3-1.5,5.3c-1.5,0.8-3.5-1-3.8-2.5
		c-0.5-2.3-1.5-4.5-2-6.8C218,22.8,221.5,21.8,222.8,23.8L222.8,23.8z"/>
	<path fill="#E95939" d="M216,150.3c3.5,2.8,7.5,10.8,3.3,14.5c-0.8,0.8-1.5,0.5-2.3,0c-1.8-1.3-2.5-3.5-3-5.3c-0.5-2-1.8-4-2.8-5.8
		c-0.8-1-0.5-2.8,0.5-3.5C213,149,214.8,149.3,216,150.3L216,150.3z"/>
	<path fill="#E95939" d="M200.8,150.3c5,2.8,8.3,9.5,6,15c-1,2.8-5.8,2.8-5.5-0.8c0.3-4,0-7.5-3.3-10.5
		C196,152.3,198.5,149,200.8,150.3L200.8,150.3z"/>
	<path fill="#E95939" d="M214,177.8c1.8,2,4.5,5.3,2.3,7.8c-0.3,0.8-1.5,1-2,0.5c-0.8-1-1-2-1.5-3c-0.5-0.8-1.3-1.5-2-2.3
		C208.8,178.8,212,175.8,214,177.8L214,177.8z"/>
	<path fill="#DFDFDC" d="M118.8,189c-1,0-2.3,0-3.5,0c-2.3-0.3-2.8,0.3-4.3,2.3c0-1.3,0.3-2.3,0.5-3.5c1.3,2.5,2.8,4.8,4.3,7
		c0.8,1.8-0.3,4.8-2.5,4.5c-2.8-0.3-5.8-0.8-8.3,0.3c-2,1,2.5,5.5,3,6c1.8,1.8,0.8,4-1.3,4.8c-3.8,1.8-7,1.3-10.5-0.3
		c1.3-0.3,2.5-0.8,3.8-1c-1.5,3.3-2,5.5,0.8,8c1.8,2,3.5,3.3,4.3,5.8c0.3,1.3-1,2.3-2.3,2c-3.5-0.5-6.8-4.3-8.5-7.3
		c-2.3-3.8-0.5-7.8,1-11.3c0.5-1,2-1.8,3-1.3c2.3,0.8,4,1.3,6.5,0.3c-0.3,1.5-0.5,3-0.8,4.5c-3.3-3.5-6.8-7.8-4.5-12.8
		c2-4.5,9.8-4,13.8-3.5c-1,1.3-1.8,2.8-2.5,4.3c-1.3-2.5-3-4.8-4.3-7c-0.8-1.3-0.5-2.5,0.5-3.5c1.8-2.5,3.8-4.3,7-4.3
		c2.5,0,4,2.3,5.8,4C120.5,187.5,119.8,189,118.8,189L118.8,189z"/>
	<path fill="#DFDFDC" d="M140.8,204c-2.3,0.3-2.8-0.5-4.8,0.8c0.5-1.3,1-2.5,1.5-3.8c0.5,2.3,1.5,4.3,2.8,6.3c0.8,1.5,0.5,4-1.3,4.8
		c-3.3,1.3-6.8,1.5-10,2.8c0.5-1.3,1.3-2.5,1.8-3.8c0.3,2.8,2.5,5,2.8,8c0.3,1.5-1,2.8-2.5,3.3c-5.5,2.3,1.8,5.8,3.3,8.8
		c0.5,1,0,2.3-1.3,2.3c-4,0-8.8-3.3-10-7.3c-1.5-4.5,2-7.5,5.5-10c-0.5,1.3-1,2.5-1.5,3.8c-0.5-2.8-2.8-4.8-3-8
		c-0.3-1.5,1.3-2.8,2.5-3.3c3.3-1.3,6.8-1.3,10-2.8c-0.8,1.8-1.5,3.3-2,5c-1.5-3-3-5.8-3.3-8.8c-0.3-1.3,0.8-2.3,1.5-2.8
		c2-1.3,4-2,6-1.3c1,0.3,1.5,0.5,2,1.3c0,0.3,1,1.3,0.5,1C142.5,201,142.5,203.8,140.8,204L140.8,204z"/>
	<path fill="#E04A1F" d="M250,55.3c0.5,0.5,1,0.5,1.3,1.3c-0.3-0.3,0,0,0.3,0c0.3,0.5,0.5,0.8,1,1c1,1.3,1.8,2.8,2.3,4.3
		c1.3,3.3-4,5.3-5.5,2.3c-0.8-1.5-1.3-3-1.3-4.8c0-0.3,0-0.5,0-0.8c0,0.3,0-1.3,0.3-0.8c-0.3-0.5,0-1.3,0-1.8
		C248,55,249.3,54.8,250,55.3L250,55.3z"/>
</g>
</svg>
