<?xml version="1.0" encoding="utf-8"?>
<!-- Generator: Adobe Illustrator 16.0.0, SVG Export Plug-In . SVG Version: 6.00 Build 0)  -->
<!DOCTYPE svg PUBLIC "-//W3C//DTD SVG 1.1//EN" "http://www.w3.org/Graphics/SVG/1.1/DTD/svg11.dtd">
<svg version="1.1" id="Layer_1" xmlns="http://www.w3.org/2000/svg" xmlns:xlink="http://www.w3.org/1999/xlink" x="0px" y="0px"
	 width="480px" height="360px" viewBox="0 0 480 360" enable-background="new 0 0 480 360" xml:space="preserve">
<g>
	<polygon fill="#80CC3C" points="0,361 480,361 480,180.5 0,180.5 0,361 	"/>
	<polygon fill="#9DDEDE" points="0,180.5 480,180.5 480,1 0,1 0,180.5 	"/>
	<path fill="#B8E7E7" d="M68.5,69.75c-1.25,0-2.25,0-3.25-0.25c-0.25-1-0.5-2-0.5-3H64.5c-1.5,0-2.75,1.25-3.75,2.5
		C59,68.5,57,68.25,55.5,67.5c-0.5-1.25-1.25-2.75-2-2.75h-0.25c-0.75,0-1.25,0.5-1.75,1.25c-5.75-2.5-10-6.75-10.75-12
		c0-0.75,0-1.25,0-2c1.5,2.75,5,6.75,7.75,6.75c0.25,0,0.25,0,0.5,0c0.25-1.75,0.5-4.5-0.25-6.5c2,2.25,5.5,4.75,8.75,4.75
		c0.5,0,1.25,0,1.75-0.25c4.5-1.5,0.5-5.25-2-6.25c1.75,0.5,4.25,1,6.25,1c1.75,0,3.25-0.25,4-1.75c1.5-3-3-5-5.25-6.75
		c1,0,2.25,0,3.5,0c1,0,2.25,0,3.25-0.25c1-2.5-2.75-4.5-4.75-6.25c1.75,0.25,3.25,1.25,5,1.25c0.25,0,0.75-0.25,1-0.25
		C71,35,65.75,33,63.5,31.75c0.25,0,0.25,0,0.25,0c0.5,0,1,0.25,1.5,0.25c0.5,0.25,1,0.25,1.5,0.25c0.25,0,0.5,0,0.75,0
		c1-2.25-3-3.5-4.75-4.75c2,0.25,6,3,9,3c0.5,0,1-0.25,1.5-0.5c2.75-1.5,0.5-5.75-1.5-8.5l0,0c1.5,1,3.25,1.75,4.75,1.75
		c0.5,0,0.75,0,1.25-0.25c1-0.75,1.25-1.75,0.75-3c0.25,0,0.5,0,0.75,0c0.5,0,1,0,1.5,0c-1.5,2.75-6.25,5.25-5.25,8.5
		c0.5,0,0.75,0,1.25,0c4,0,9.25-2,11.75-4.25c1.5,1.75-3.75,5.5,0,6.5c0.5,0,0.75,0.25,1.25,0.25c4.5,0,11.25-5.75,14-7.5
		c0,2.25,0.25,4.75,3.5,4.75c0.5,0,1,0,1.5-0.25c4.25-0.75,5.75-3.75,7.75-6.5c0.25,1.5,0.5,3.25,0.75,4.75
		c1.25,6.75,3.75,14,6.25,20.5c1,2.75,2.5,5.25,4.25,7.25c-6.25,2.25-13.25,3.25-19.25,3.25c-7.5,0-13.5-1.75-14.5-5.5
		c2.75,11.75-8.75,17.5-21.75,18c0.25-0.75,0.25-1.5,0.25-2.25C71,68,69.75,68.75,68.5,69.75 M27.25,60c-1.75,0-3.75-0.25-5.75-0.25
		c0-2.5-1.5-4.5-3-6.5c1,1.25,4.25,3.5,6.75,3.5c0.5,0,1,0,1.25,0c2.25-1,1.5-5,1.5-6.5c0,2,4.75,6.75,8.25,8.5
		C33.75,59.5,30.75,60,27.25,60 M14.25,58.5c-0.5,0-0.75-0.25-1.25-0.25c-0.25-0.75-0.75-1.5-0.75-2C12.75,57,13.5,57.75,14.25,58.5
		 M0,54L0,54C0,1,0,1,0,1c204.5,0,204.5,0,204.5,0l0,0C1.75,1,1.75,1,1.75,1C1.25,1.25,0.5,1.5,0,1.75C0,54,0,54,0,54 M134.25,51.25
		c-2.25-3.5-4-7-5-9.5c-0.5-0.5-1-2.25-1.75-4.5c2.25-1.25,5-3.75,6-4.75c0,2.5-4,9.5-0.75,11.5c0.75,0.25,1.25,0.5,1.75,0.5
		c3.25,0,5.5-5.75,6.75-6.75c0.25,1.25,0,4.75,1,7.25C140.5,47.5,137.75,49.5,134.25,51.25 M125.75,32.5c-1-2.25-1.75-5-2.5-7.5
		c2.25-0.75,5-3,6-4.25C130,24.75,127.25,28.5,125.75,32.5"/>
	<path fill="#EBF8FA" d="M226.25,122c0.25,0.25,0.75,0.5,1,0.5c-0.25,0-0.5-0.25-0.75-0.5C226.25,122,226.25,122,226.25,122"/>
	<path fill="#B8E7E7" d="M347.25,107.75c-115.25,0-115.25,0-115.25,0c0.25-5.5,0.25-10.75,0.5-16c1.25-0.25,2.5-0.25,4-0.25
		c10.25,0,21.25,1.75,25.75,4.25c-0.25-7.25,1-13.5,12-14.25c0.25,0,0.75,0,1,0c8.5,0,19.75,5.75,25,10c1.25-5-0.75-9.5-0.75-14.25
		c-0.5-11,3.75-23.25,14-31.5c4-3.5,10.25-6,16.25-6c4.25,0,8.25,1.25,11,4.25c3.5,3.5,5.25,7.5,7,11.5c0.75,1.75,1,3.75,3.25,4.5
		c2.25-1,1.5-2.5,2.5-4.5c1.75-3.25,4.5-6.25,7-9C366,40.5,374.25,33,385,33c0.25,0,0.5,0,0.75,0C401.5,33.5,399.5,56.5,399,65
		c0.5-1,1.5-2,2.75-3.25c-1,2.5-0.25,6-0.25,7.75c-1.75-3.5-4.75-7-10-7c-0.5,0-1.25,0.25-2,0.25c-1.25,4.5,3.25,9.25,4.5,13.25l0,0
		c-1.75,0-2.75-0.75-3.75-1.25c-1-0.75-2-1.5-4-1.5c-0.5,0-1,0.25-1.5,0.25c1,6.25,9.5,11.5,9.25,17.75c-3-0.25-6.5-4.5-9-4.5
		c-0.25,0-0.25,0-0.5,0c-3.75,0.5-2.5,5-2.25,7c-1.75-1.25-3.75-3.25-6.25-3.25c-0.25,0-0.5,0.25-0.75,0.25
		c-0.75,3-0.5,6.25-0.25,9.5c0-2-8.5-3.25-11-3.25h-0.25c0.75,3.5,3.5,6.75,5.25,10.25c-3-1.5-5.5-3.5-9.25-4
		C359,103,358.25,103,357.5,103C352.75,103,348.5,104.75,347.25,107.75 M429.25,71.5c-0.25-2-1.25-8.75-5-9H424
		c-4.5,0-3.5,6.75-8,7.25C415.25,67,411,59,406.25,59l0,0c-0.25,0-0.25,0-0.5,0c5.75-3.25,13.25-5.75,19.75-5.75c0.5,0,1,0,1.5,0
		c2.25,5.5,4.25,10.75,6.5,16.25C432,70.5,430.75,71.25,429.25,71.5"/>
	<path fill="#B8E7E7" d="M395,22.5c-2.25,0-4.5-0.25-6.75-0.25c-10.25-0.75-14.75-3.75-21.5-9c-3.75,4-4.5,9-12,9c-0.5,0-1,0-1.5,0
		c-8.25-0.75-17-5.5-19-11.5c-3.75,7-10.5,10.5-19.25,10.5c-2.25,0-4.5-0.25-7-0.75c-7.75-1.25-12.25-5-14.25-9.75
		c1.25-0.75,2-1.75,3-3c1.5-2.5,1.75-4.75,1-6.75C257,1,257,1,257,1l0,0c180.25,0,180.25,0,180.25,0c-2.5,5.5-6.5,10.5-12,14.25
		c-0.5,0.5-1.25,0.75-1.75,1c-1.25-6-2.25-11.75-2.75-15.25C408,1,408,1,408,1c0.25,2.75,0.75,5.75,1.5,8.5
		c1,3.75,2.25,7.25,3.75,11C407.5,22,401,22.5,395,22.5"/>
	<path fill="#58B7D1" d="M316.75,86.25c2-1.5,6-7.5,2.75-9c-3-1.75-8,4-9,5.25c-0.5-2.5,0.5-9.5-5.75-8.25
		c-4.5,1.25-3.75,7.25-5.5,9.75c-2-2.75-3.75-6.5-8.75-5.75c-0.5,3-0.25,6.5,0,9.75c-1.5-1-4.75-5.25-7.25-4.5
		c-2.5,0.5-1,6.25-1.5,8c-1.5-1-3.25-4.25-5.5-4.5c-3.75,0-1.75,4.75-2.25,6.5c-2.25-1-2.75-6.25-6.75-5.75c-0.5,2,0,4-0.25,5.75
		c-3.75-2-5-6-10.5-5.25C256,91,257.75,93.5,257.75,96c-2-0.75-10.5-7.75-13-5.5c-1.75,1,3,6,3.75,7.25c-5,0.75-8.5-4.75-13.25-3.5
		c-2,6.25,9.5,12.25,14.75,15.5c-0.25,0-0.5-0.25-0.75-0.25c-0.5,7.5-0.5,7.5-0.5,7.5c2,1.5,2.75,3.75,4.75,5.25
		c2.75,2,7.25,3.25,10.75,4c8.5,1.5,19.75,0.5,27.75-1.75c11.5-3,22-9.25,27.5-17.5c4-6.25,7.25-13.75,6.25-20.75
		C323.75,86,318,87.25,316.75,86.25"/>
	<path fill="#58B7D1" d="M194.5,141.5c0-0.25,0-0.5,0-0.75c-0.75,0-0.75,0-0.75,0C194,141,194.25,141.25,194.5,141.5"/>
	<path fill="#58B7D1" d="M129.25,41.75c-0.5-0.5-1-2.25-1.75-4.5c2.25-1.25,5-3.75,6-4.75c0,2.5-4,9.5-0.75,11.5
		c4.25,2.25,7-5,8.5-6.25c0.25,2-0.25,9,3,9.75c4.25,1.25,6.75-5.5,9.75-6.25c0.25,1.5,0.5,6.75,3.5,7c0.25,5.25-1,10-5.75,11.5
		C139.5,63.75,132,48,129.25,41.75 M123.25,25c2.25-0.75,5-3,6-4.25c0.75,4-2,7.75-3.5,11.75C124.75,30.25,124,27.5,123.25,25
		 M162.5,62.25c0.25-1.25,2.5-9.25,4-16.5c0.5,0.5,1.25,1,2.5,1c3-0.25,3-5.25,4-6.75c0.25,0.25,0.75,0.75,0.75,0.75
		c0.5-2.25,1-4.25,1-6.75c0.5,1.5,2,2.75,3.75,3c4.25,8.5,9,15.25,16.25,23c0.5,0.5,1,1,1.25,1.5c-3.75,2-3.75,9-7.75,9.5
		c-0.5-2.75,0.5-7.25-2.5-9.5c-3,1.25-5.25,6-4.75,8.25c-1.5-1-3.75-7.25-6.5-6c-2,1-0.25,7-0.75,9c-1.75-1.25-4.5-3.75-7.5-3.25
		c-1.25,2.5,4.25,4,4.75,5.75c-2.25-0.25-4.25-0.5-6.75-0.25c1.25,2.75,8,1.75,9.75,4c-2,0.25-9,1.75-6.5,3.75
		c2,1.5,6.75-0.5,9.75-1.25c0,0,0,0,0,0.25c-2.25,0.75-5.25,2-4.5,3.5c1.25,0.25,2.25,0.25,3.5,0.25c-0.25,0.5-0.5,1-0.75,1.5
		c-1.5,1.75-6,3.25-5,5.75c1.25,0.25,3.25-0.5,4.75-1.25c-2,6.5-6.25,10.5-13.25,0.25C155.75,82.5,159.5,71.75,162.5,62.25
		 M183.75,29.75c0.25,5,12.25-2.25,13.75-3.25c-0.75,2-2.5,8,0,9.5c1.5,0.75,3,0.5,4.5-0.25c1.25,6.75,1,13.75-5.25,13
		c-7-1-10.5-10-13-15C184,32.5,184,31,183.75,29.75 M207.5,31.75c1.25-1,2.25-2,3.25-2.25c0.5,2-1.5,7.5,1.5,8.25
		c2.5,0.5,4-2.25,5.5-3.25c3,3.25,1.75,9.5,8.25,11l0,0c0.25,5.25,0.5,10.75,0.25,16c-0.25,5-2.5,9-5,10c-1.5,0-2.75-0.25-4-0.25
		c-0.5-0.5-1-0.75-1.5-1.5c2.25-0.75,3.75-2.25,2-3.25c-0.5-0.5-2.25-0.5-4.25-0.25c-0.25-0.75-0.5-1.25-0.75-2
		c-2.75-8.25-3.75-17-5-25.5C207.5,36.5,207.5,34,207.5,31.75 M199.75,68.75c0-0.25,0.25-0.5,0.25-1c0.25,0.25,0.25,0.5,0.25,0.75
		S200,68.75,199.75,68.75 M47,144.5c7.25,2,14.5,2.5,21.75,3.25c4.25,0.5,8,1.5,12.25,1.5c5.75,0.25,11.5,0,17.25,0
		c8,0,16-0.25,24-1.25c7-0.75,13.75-1.25,20.5-2.5c0.25-0.5,0.25-1,0.5-1.5c11.5,1.25,39.25,4.75,39.25,4.75
		c-3.75-2.75-2.25-9.75-1.75-14.5c0.25-1,0.25-2,0.25-2.75c-0.25-8.5-1-16.75-0.5-25.25c0-2,0.25-4,0.5-6.25c0.5,0,1,0,1.5-0.25
		c3.25-1.25,7.25-5.25,8.5-7.75c0,2-0.25,6.25,3.5,6.25c2.75,0,4.25-3.25,5.75-5.25c-1.5,16-3.25,32-5.75,47.75
		c12,1.5,26.75,5,38.75,4.25c-0.5-4.75-0.75-9.25-1-13.75c-1-23,0.75-46,1-68.75c0-1.75-0.5-10.5-1-19c1.5,1.75,4.25,3.5,6.75,3
		c0-0.5,0.5-1.25,0.25-2c5.75,0.75,12.75,2.25,19,1.5c0.5-1.5-1.5-2.25-2.75-3c2.5,1,7.75,3.75,10.75,2.5c2-0.75,2.75-4.25,1.25-5.5
		c6.25,4,12-2,6.5-5.5c0.75,0,2,0,3.25,0c3.5,0.25,7.75,0.25,6.5-2.75c-3.75-0.75-11-2.5-10.5-6.25c3.25-0.25,8.5,0,9.25-2.75
		c1-3.75-5.5-6.5-8.5-8.5c8.5-1,18.25,0.25,22.75-6.5c1.5-2.5,1.75-4.75,1-6.75c-296,0-296,0-296,0C1.25,1.25,0.5,1.5,0,1.75
		c0,65,0,65,0,65c1,0.25,1.75,0.25,3,0C3,64.5,4,62.5,3.75,60c1,1.75,6.25,5.5,8.75,4.25c3.5-1.5,0-6-0.25-8
		C14,58.75,17.5,61.5,21.5,61c0.5-2.75-1.25-5.5-3-7.75c1,1.5,5.5,4.5,8,3.5c2.25-1,1.5-5.25,1.5-6.75c-0.25,2.5,6.75,9,9.75,9.25
		c3.75,0.5,3-1.75,3-3.75c0-1,0-2.25,0-3.5c1.75,3,5.5,7.5,8.25,6.75c0.25-1.75,0.5-4.5-0.25-6.5C51,55,55.5,58,59.25,56.75
		c4.5-1.5,0.5-5.25-2-6.25c3,0.75,8.75,2.25,10.25-0.75s-3-5-5.25-6.75c2.25,0,4.5,0,6.75-0.25c1-2.5-2.75-4.5-4.75-6.25
		c2.25,0.25,3.75,1.5,6,1C71,35,65.75,33,63.5,31.75c0.75,0,1.25,0.25,1.75,0.25c0.75,0.25,1.5,0.5,2.25,0.25
		c1-2.25-3-3.5-4.75-4.75c2.5,0.5,7.75,4.25,10.5,2.5c2.75-1.5,0.5-5.75-1.5-8.5l0,0c2,1.25,4.5,2.25,6,1.5c1-0.75,1.25-1.75,0.75-3
		c0.75,0,1.5,0,2.25,0c-1.5,2.75-6.25,5.25-5.25,8.5c4,0.5,10.25-1.75,13-4.25c1.5,1.75-3.75,5.5,0,6.5c4.75,1.25,12-5.5,15.25-7.25
		c0,2.5,0.5,5.25,5,4.5c4.25-0.75,5.75-3.75,7.75-6.5c0.25,1.5,0.5,3.25,0.75,4.75c1.25,6.75,3.75,14,6.25,20.5
		c3,8.5,10.75,13.25,15.5,20.75c3.5,5.25,3,11.5,2.75,17c0,3.25-0.25,6.25-0.25,9.25c0,0.25,0,0.25,0,0.25
		c-0.5-2.25,0.25-4.75-0.25-7c-3.75,0-5.25,4-6.75,6c-0.25-2.5-1-5.75-3-7.5c-3,0.5-3.25,5-4.5,6.75c-3-1.25,0.75-6.75-3.25-6.75
		c-3.25-0.25-4,4.75-3.75,6.25c-0.75-1.5-2-5.5-4-5.75c-0.5,2.5-0.25,4.75,1.25,6.75c-2.75-0.75-5-4.5-8.5-4C108,91,108,93,108,95.5
		c-0.75-1-4.5-4.5-5.75-4.75c-1.25,0-1.75,1.25-2,2.75c0-1-0.25-2-1-2.75C96.75,91.25,95,93.5,93,95c1.25-2,8.5-7.25,3.75-9
		c-3.25-1.25-6,1.5-8.5,2c-0.75-2.5,5.25-5.25,4-7.75c-1.5-0.5-3,0.5-4.5,1c1.5-1.5,3.75-3.75,3.25-5.75c-3-0.75-7,1-9,2.25
		c-0.5-2,2.75-3.25,1.75-5.5C81.5,72.5,80,74,78.5,75.25c0.5-2,1.5-3.75,1-5.75c-1.5,0-2.5,1-3.75,2c-1,0.75-2,1.75-3.5,1.75
		c-1-1.25,0.5-4,0.25-5.75c-2.75,0.75-5,3.25-7,4.5c0-1.75-0.75-3.75-0.75-5.5c-1.75-0.25-3,1.25-4,2.5c-1.5,2.25-2.75,4.5-4.5,1.25
		c-0.5-1-1.25-5.25-2.75-5.5s-2.5,2.5-3,3.25c-4.5,7-2.5-1.5-7-2.75c-3.75-1.25-4.75,6-5,8c-1.75-1-4-4.25-7-3.75
		c-3,0.75-4,5-5.5,6.75C25,70,20.25,76,16.75,78.5c1-1.5,0.75-4.25,0.5-5.75c-4-1-8.5,4.25-10.75,6.25c0.25-2,0.5-4.25,0-6.25
		C4,72.5,1.75,73,0,74.25c0,68.5,0,68.5,0,68.5c4,0,7.75,0,11.75,0S20,143,24.25,143C31.75,142.75,39.75,142.5,47,144.5"/>
	<path fill="#58B7D1" d="M457.75,31.5c-1.5-2.5-4.25-21-5.5-30.5c-5.75,0-5.75,0-5.75,0c0.25,0.75,0.5,1.5,0.5,2.25
		C448.25,15,450,27,449,39c-0.25,3,0.25,13.5-5,14.75C430,57.25,423,14.5,420.75,1C408,1,408,1,408,1c0.25,2.75,0.75,5.75,1.5,8.5
		c2.25,9,6.75,17.5,10.25,26.25c5.5,14,11.75,27.5,16.5,41.25c2.75,8.5,2.5,21.5,0.25,30c-1.5,5-8.25,35.5-12.25,34.75
		C480,151.5,480,151.5,480,151.5C480,42,480,42,480,42C470.75,43.25,463,40,457.75,31.5"/>
	<path fill="#58B7D1" d="M316.25,1C318,2.75,325,1.75,327.5,2c-2,1.75-6.25,3.5-5.5,6.5c1.25,4.25,7.75,0.75,11.75,1.5
		c1.25,4.5-6.25,9-4.75,13.75c5.25,0.5,7.75-2.25,12.5-2.75c0,2.25-2,4.25-2.75,6.5c-0.25,1-1.25,6.25,0,7c4,3,10.5-2.75,11.5-5.5
		c2.25,2.5-1,6.25,4,6.5c3,0,6.5-3.5,6.75-5.75c1,1.75,1.25,5.25,4.75,4.25c2-0.75,2.5-5.25,3-7.25c-0.25,2,2.25,3.75,4.75,2.25
		c2-1.25,1.25-4.75,1.25-6.5c0.5,1.75,2.75,3.5,5.5,2.5c2.5-0.75,2.5-3.75,2.25-6c1,1.75,5,0.75,5.75-2c0,2.75,0.25,6.5,4.75,6
		c-0.5,3.5-0.75,8.25,3.25,8.75c6,1.25,8-4.75,9.75-7.75c-0.5,2.75,0.25,5.25,4.75,4.25c5.75-1.25,5.5-6.5,7.5-9.5
		c1,2.75-0.25,5.75,5.5,4.75c4.5-0.75,7-5,6.5-8.25c5,8.25,16,5.75,14.5-3.5c1.5,4,4.5,7.25,10.75,6.25
		c3.75-0.75,9.75-6.25,4.5-8.75c5.5,1.75,10.75,4,16.75,3.5c1-0.25,2.25-0.5,3.25-0.75c0-11,0-11,0-11C316.25,1,316.25,1,316.25,1"
		/>
	<path fill="#58B7D1" d="M454.25,87.75c-0.25-3.25,5.75-9.5,1.5-12.5c-2-1.5-4.75-0.75-7.75,0c-2.5,0.5-4.75,1.25-7,0.75
		c0-3,1.5-6.25,1-9.75c-5.5-1.25-8.5,4.5-12.75,5.25c-0.25-2-1.25-8.75-5-9c-4.75-0.25-3.5,6.75-8.25,7.25
		c-0.75-2.75-5-11-9.75-10.75c-6.5,0-5,7.5-4.75,10.5c-2-4-5.75-7.75-12-6.75c-1.25,4.5,3.25,9.25,4.5,13.25
		c-1.5,0-2.5-0.5-3.75-1.25c-1.25-1-2.75-1.75-5.5-1.25c1,6.25,9.5,11.5,9.25,17.75c-3.25-0.25-6.75-4.75-9.5-4.5
		c-3.75,0.5-2.5,5-2.25,7c-1.75-1.25-4.25-3.5-7-3c-0.75,3-0.5,6.25-0.25,9.5c0-2.25-9.5-3.5-11.25-3.25
		c0.75,3.5,3.5,6.75,5.25,10.25c-3-1.5-5.5-3.5-9.25-4c-8-1-15.5,3-11.75,9c4.25,6.5,14.75,11.25,23,14.5
		c11,4.25,22.75,6.5,35.25,6.25c17.5-0.5,31.75-7,46.25-13.75c10.5-5.25,17.5-11.75,14-21.5C465,93.25,461,88.5,454.25,87.75"/>
	<path fill="#58B7D1" d="M357,103.75c1.75-1,3.25-3,2.25-5c-2.75-0.5-6.5,0.5-9.25,1.75c1-0.75,1.75-1.75,1-3.5
		c-5.5-1.25-9,3.5-12.75,5.5c4-4.5,8.75-6.75,7.75-12.75c-8.5-2-16,8-21,11.25c1.5-3.5,7.5-11.25-0.5-12.25c-7.25-1-14,6.5-19,9.75
		c-0.25-0.5-0.25-1,0-1.75c-12,8.25-12,8.25-12,8.25c1.75,18,23,24.5,44.25,20c13.75-3,29.5-9.75,27.5-21.75
		C362.25,102.5,360,104.75,357,103.75"/>
	<path fill="#358437" d="M354.5,42C285,20.25,285,20.25,285,20.25c-3.75-0.25-6,1-9.5,1.75c-7,1.5-14.25,2.25-20.75,4.75
		c-9,3-2.5,8.25,5,8.25c-2,4.25-18,4-17.75,10.5c5.25,0.5,11,0.75,16.25,1.25c-2.75,1-14.5,6-14,8.75c1,4.25,12.5,0.5,16.5,1
		C258,58.75,250,66.5,254,70c4.5,4,12.25-2.25,16.5-2.75c0,3.5-8.75,11.25-2.25,13.5c4.25,1.5,9.5-2.5,13-3.5
		c0.5,3.5-2.25,10.5,3.75,11.5c7,1.25,8.5-8,9.5-11.5c1.75,3.25,3.5,8.75,9.75,8c5.5-0.75,5.75-6.5,6.25-9.75c2.5,2.75,3,8,9.25,7
		c5.5-0.75,6.75-8.25,6-11.5c2.25,3.25,8,7,13.25,5.25c5.5-1.75,3-8,3.75-11.75c4.5,0.75,8.25,4.75,12,0.75c1.75-2,2-7,0-8.75
		C360,55.25,360.25,41,354.5,42"/>
	<path fill="#1E582B" d="M449.5,21.25C311.5,32,311.5,32,311.5,32c0.25,0.25,0.5,0.5,0.75,0.75C308.5,33.5,299.5,36.25,298,39
		c-3.25,5.25,9,1.75,11.75,1.5c-4,2.75-6.5,4.75-8.75,8.5c5,0.5,9.5,0,13.5-2.75c-2.75,2.5-8,9.5-6.5,12.75
		c4.75,1.25,9.75-4.25,13.25-6c-2.75,2.75-6.25,6.75-4.75,10.5c3.75,0.5,8.5-0.75,11.5-3c-2.5,3.5-4,8.75-3.25,12
		C330,73.25,330,71,334,70c0.75,3.75-2,9.5,2.5,11.75c6.5,3.25,8.25-2.5,11-5.25c-0.25,4-0.75,9.5,6,10.5s12.75-6.25,13.25-10.75
		c-0.25,3.75,3,6,8,5.5c8-1.25,8.5-9.5,12.25-13.5c4.25,5,8.5,11,18,8.5c5.5-1.5,7-5.5,10.75-7.75c5-3,3.5-0.25,8.5,0
		c12.5,0.75,23-20.5,25.25-26.75C450.25,40.25,454,20,449.5,21.25"/>
	<polygon fill="#E04E3C" points="21.5,107.75 0,107.75 0,200.25 21.5,200.25 21.5,107.75 	"/>
	<polygon fill="#F35F3D" points="0,200.25 480,200.25 480,107.75 0,107.75 0,200.25 	"/>
	<polygon fill="#E04E3C" points="56.75,200.25 76.25,200.25 76.25,107.75 56.75,107.75 56.75,200.25 	"/>
	<polygon fill="#E04E3C" points="164.75,200.25 183.5,200.25 183.5,107.75 164.75,107.75 164.75,200.25 	"/>
	<polygon fill="#E9563C" points="218.5,200.25 238.75,200.25 238.75,107.75 218.5,107.75 218.5,200.25 	"/>
	<path fill="#E9563C" d="M454,198c-0.25,0-0.5,0-0.75-0.25c0.25,0,0.5,0,0.75-0.25C454,198,454,198,454,198 M448.25,190.75
		c-0.5,0-0.75,0-1.25,0c2.75-2.25,5.75-5.5,1.5-8c-0.75-0.5-1.75-0.75-2.5-0.75c-2.5,0-4.75,1.5-7,2.25c0.75-1.25,4.25-5,2-6.25
		c-0.5-0.25-0.75-0.25-1.25-0.25c-2,0-4.5,1.25-6,2.25c0-1,0-1,0-1c0.75-1.5,1.5-3.25,0-4.25c0-67,0-67,0-67
		c20.25,0,20.25,0,20.25,0c0,82.75,0,82.75,0,82.75c-0.25-0.25-0.5-0.25-0.75-0.25s-0.25,0-0.25,0c-1,0-1.75,0.25-2.5,0.25
		C449.75,190.75,449,190.75,448.25,190.75"/>
	<polygon fill="#E04E3C" points="290.25,200.25 310.75,200.25 310.75,107.75 290.25,107.75 290.25,200.25 	"/>
	<polygon fill="#E04E3C" points="364.25,200.25 383,200.25 383,107.75 364.25,107.75 364.25,200.25 	"/>
	<polygon fill="#D24A33" points="21,200 22.25,200 22.25,109.25 21,109.25 21,200 	"/>
	<polygon fill="#D24A33" points="39,200 40.25,200 40.25,109.25 39,109.25 39,200 	"/>
	<polygon fill="#D24A33" points="57,200 58.25,200 58.25,109.25 57,109.25 57,200 	"/>
	<polygon fill="#D24A33" points="75,200 76.25,200 76.25,109.25 75,109.25 75,200 	"/>
	<polygon fill="#D24A33" points="93,200 94.25,200 94.25,109.25 93,109.25 93,200 	"/>
	<polygon fill="#D24A33" points="111,200 112.25,200 112.25,109.25 111,109.25 111,200 	"/>
	<polygon fill="#D24A33" points="129,200 130.25,200 130.25,109.25 129,109.25 129,200 	"/>
	<polygon fill="#D24A33" points="147,200 148.25,200 148.25,109.25 147,109.25 147,200 	"/>
	<polygon fill="#D24A33" points="165,200 166.25,200 166.25,109.25 165,109.25 165,200 	"/>
	<polygon fill="#D24A33" points="183,200 184.25,200 184.25,109.25 183,109.25 183,200 	"/>
	<polygon fill="#D24A33" points="201,200 202.25,200 202.25,109.25 201,109.25 201,200 	"/>
	<polygon fill="#D24A33" points="219,200 220.25,200 220.25,109.25 219,109.25 219,200 	"/>
	<polygon fill="#D24A33" points="237,200 238.25,200 238.25,109.25 237,109.25 237,200 	"/>
	<polygon fill="#D24A33" points="255,200 256.25,200 256.25,109.25 255,109.25 255,200 	"/>
	<polygon fill="#D24A33" points="273,200 274.25,200 274.25,109.25 273,109.25 273,200 	"/>
	<polygon fill="#D24A33" points="291,200 292.25,200 292.25,109.25 291,109.25 291,200 	"/>
	<polygon fill="#D24A33" points="309,200 310.25,200 310.25,109.25 309,109.25 309,200 	"/>
	<polygon fill="#D24A33" points="327,200 328.25,200 328.25,109.25 327,109.25 327,200 	"/>
	<polygon fill="#D24A33" points="345,200 346.25,200 346.25,109.25 345,109.25 345,200 	"/>
	<polygon fill="#D24A33" points="363,200 364.25,200 364.25,109.25 363,109.25 363,200 	"/>
	<polygon fill="#D24A33" points="381,200 382.25,200 382.25,109.25 381,109.25 381,200 	"/>
	<polygon fill="#D24A33" points="399,200 400.25,200 400.25,109.25 399,109.25 399,200 	"/>
	<polygon fill="#D24A33" points="417,200 418.25,200 418.25,109.25 417,109.25 417,200 	"/>
	<polygon fill="#D24A33" points="435,200 436.25,200 436.25,109.25 435,109.25 435,200 	"/>
	<polygon fill="#D24A33" points="453,200 454.25,200 454.25,109.25 453,109.25 453,200 	"/>
	<polygon fill="#D24A33" points="471,200 472.25,200 472.25,109.25 471,109.25 471,200 	"/>
	<polygon fill="#D24A33" points="0,110.75 480,110.75 480,107.75 0,107.75 0,110.75 	"/>
	<polygon fill="#D24A33" points="0,200.75 480,200.75 480,198.75 0,198.75 0,200.75 	"/>
	<path fill="#574745" d="M11.5,114.5c-1,0-2,0.5-2,1.25s1,1.25,2,1.25s1.75-0.5,1.75-1.25S12.5,114.5,11.5,114.5"/>
	<path fill="#574745" d="M30,114.5c-1,0-1.75,0.5-1.75,1.25S29,117,30,117s2-0.5,2-1.25S31,114.5,30,114.5"/>
	<path fill="#574745" d="M48.75,114.5c-1,0-1.75,0.5-1.75,1.25s0.75,1.25,1.75,1.25s1.75-0.5,1.75-1.25S49.75,114.5,48.75,114.5"/>
	<path fill="#574745" d="M65,114.5c-1,0-1.75,0.5-1.75,1.25S64,117,65,117s2-0.5,2-1.25S66,114.5,65,114.5"/>
	<path fill="#574745" d="M83.25,114.5c-1,0-1.75,0.5-1.75,1.25s0.75,1.25,1.75,1.25s1.75-0.5,1.75-1.25S84.25,114.5,83.25,114.5"/>
	<path fill="#574745" d="M101.25,114.5c-1,0-1.75,0.5-1.75,1.25s0.75,1.25,1.75,1.25s1.75-0.5,1.75-1.25S102.25,114.5,101.25,114.5"
		/>
	<path fill="#574745" d="M120,114.5c-1,0-1.75,0.5-1.75,1.25S119,117,120,117s1.75-0.5,1.75-1.25S121,114.5,120,114.5"/>
	<path fill="#574745" d="M138.75,114.5c-1,0-1.75,0.5-1.75,1.25s0.75,1.25,1.75,1.25s1.75-0.5,1.75-1.25S139.75,114.5,138.75,114.5"
		/>
	<path fill="#574745" d="M156.75,114.5c-1,0-1.75,0.5-1.75,1.25s0.75,1.25,1.75,1.25s1.75-0.5,1.75-1.25S157.75,114.5,156.75,114.5"
		/>
	<path fill="#574745" d="M175.5,114.5c-1,0-1.75,0.5-1.75,1.25s0.75,1.25,1.75,1.25s1.75-0.5,1.75-1.25S176.5,114.5,175.5,114.5"/>
	<path fill="#574745" d="M192.5,114.5c-1,0-2,0.5-2,1.25s1,1.25,2,1.25s1.75-0.5,1.75-1.25S193.5,114.5,192.5,114.5"/>
	<path fill="#574745" d="M209.25,114.5c-1,0-1.75,0.5-1.75,1.25s0.75,1.25,1.75,1.25s1.75-0.5,1.75-1.25S210.25,114.5,209.25,114.5"
		/>
	<path fill="#574745" d="M226.75,114.5c-1,0-1.75,0.5-1.75,1.25s0.75,1.25,1.75,1.25s1.75-0.5,1.75-1.25S227.75,114.5,226.75,114.5"
		/>
	<path fill="#574745" d="M246.75,114.5c-1,0-1.75,0.5-1.75,1.25s0.75,1.25,1.75,1.25s1.75-0.5,1.75-1.25S247.75,114.5,246.75,114.5"
		/>
	<path fill="#574745" d="M263.5,114.5c-1,0-1.75,0.5-1.75,1.25s0.75,1.25,1.75,1.25s2-0.5,2-1.25S264.5,114.5,263.5,114.5"/>
	<path fill="#574745" d="M282.25,114.5c-1,0-1.75,0.5-1.75,1.25s0.75,1.25,1.75,1.25s1.75-0.5,1.75-1.25S283.25,114.5,282.25,114.5"
		/>
	<path fill="#574745" d="M299.75,114.5c-1,0-1.75,0.5-1.75,1.25s0.75,1.25,1.75,1.25s1.75-0.5,1.75-1.25S300.75,114.5,299.75,114.5"
		/>
	<path fill="#574745" d="M317.25,114.5c-1,0-1.75,0.5-1.75,1.25s0.75,1.25,1.75,1.25s1.75-0.5,1.75-1.25S318.25,114.5,317.25,114.5"
		/>
	<path fill="#574745" d="M335.5,114.5c-1,0-2,0.5-2,1.25s1,1.25,2,1.25s1.75-0.5,1.75-1.25S336.5,114.5,335.5,114.5"/>
	<path fill="#574745" d="M354.75,114.5c-1,0-1.75,0.5-1.75,1.25s0.75,1.25,1.75,1.25s1.75-0.5,1.75-1.25S355.75,114.5,354.75,114.5"
		/>
	<path fill="#574745" d="M374,114.5c-1,0-1.75,0.5-1.75,1.25S373,117,374,117s1.75-0.5,1.75-1.25S375,114.5,374,114.5"/>
	<path fill="#574745" d="M389.75,114.5c-1,0-1.75,0.5-1.75,1.25s0.75,1.25,1.75,1.25s1.75-0.5,1.75-1.25S390.75,114.5,389.75,114.5"
		/>
	<path fill="#574745" d="M406,114.5c-1,0-1.75,0.5-1.75,1.25S405,117,406,117s1.75-0.5,1.75-1.25S407,114.5,406,114.5"/>
	<path fill="#574745" d="M427.25,114.5c-1,0-1.75,0.5-1.75,1.25s0.75,1.25,1.75,1.25s1.75-0.5,1.75-1.25S428.25,114.5,427.25,114.5"
		/>
	<path fill="#574745" d="M443.25,114.5c-1,0-1.75,0.5-1.75,1.25s0.75,1.25,1.75,1.25s1.75-0.5,1.75-1.25S444.25,114.5,443.25,114.5"
		/>
	<path fill="#574745" d="M463.25,114.5c-1,0-1.75,0.5-1.75,1.25s0.75,1.25,1.75,1.25s1.75-0.5,1.75-1.25S464.25,114.5,463.25,114.5"
		/>
	<path fill="#574745" d="M11.5,192.75c-1,0-2,0.5-2,1.25s1,1.5,2,1.5s1.75-0.75,1.75-1.5S12.5,192.75,11.5,192.75"/>
	<path fill="#574745" d="M30,192.75c-1,0-1.75,0.5-1.75,1.25s0.75,1.5,1.75,1.5s2-0.75,2-1.5S31,192.75,30,192.75"/>
	<path fill="#574745" d="M48.75,192.75c-1,0-1.75,0.5-1.75,1.25s0.75,1.5,1.75,1.5s1.75-0.75,1.75-1.5S49.75,192.75,48.75,192.75"/>
	<path fill="#574745" d="M65,192.75c-1,0-1.75,0.5-1.75,1.25s0.75,1.5,1.75,1.5s2-0.75,2-1.5S66,192.75,65,192.75"/>
	<path fill="#574745" d="M83.25,192.75c-1,0-1.75,0.5-1.75,1.25s0.75,1.5,1.75,1.5S85,194.75,85,194S84.25,192.75,83.25,192.75"/>
	<path fill="#574745" d="M101.25,192.75c-1,0-1.75,0.5-1.75,1.25s0.75,1.5,1.75,1.5s1.75-0.75,1.75-1.5S102.25,192.75,101.25,192.75
		"/>
	<path fill="#574745" d="M120,192.75c-1,0-1.75,0.5-1.75,1.25s0.75,1.5,1.75,1.5s1.75-0.75,1.75-1.5S121,192.75,120,192.75"/>
	<path fill="#574745" d="M138.75,192.75c-1,0-1.75,0.5-1.75,1.25s0.75,1.5,1.75,1.5s1.75-0.75,1.75-1.5S139.75,192.75,138.75,192.75
		"/>
	<path fill="#574745" d="M156.75,192.75c-1,0-1.75,0.5-1.75,1.25s0.75,1.5,1.75,1.5s1.75-0.75,1.75-1.5S157.75,192.75,156.75,192.75
		"/>
	<path fill="#574745" d="M175.5,192.75c-1,0-1.75,0.5-1.75,1.25s0.75,1.5,1.75,1.5s1.75-0.75,1.75-1.5S176.5,192.75,175.5,192.75"/>
	<path fill="#574745" d="M192.5,192.75c-1,0-2,0.5-2,1.25s1,1.5,2,1.5s1.75-0.75,1.75-1.5S193.5,192.75,192.5,192.75"/>
	<path fill="#574745" d="M209.25,192.75c-1,0-1.75,0.5-1.75,1.25s0.75,1.5,1.75,1.5s1.75-0.75,1.75-1.5S210.25,192.75,209.25,192.75
		"/>
	<path fill="#574745" d="M226.75,192.75c-1,0-1.75,0.5-1.75,1.25s0.75,1.5,1.75,1.5s1.75-0.75,1.75-1.5S227.75,192.75,226.75,192.75
		"/>
	<path fill="#574745" d="M246.75,192.75c-1,0-1.75,0.5-1.75,1.25s0.75,1.5,1.75,1.5s1.75-0.75,1.75-1.5S247.75,192.75,246.75,192.75
		"/>
	<path fill="#574745" d="M263.5,192.75c-1,0-1.75,0.5-1.75,1.25s0.75,1.5,1.75,1.5s2-0.75,2-1.5S264.5,192.75,263.5,192.75"/>
	<path fill="#574745" d="M282.25,192.75c-1,0-1.75,0.5-1.75,1.25s0.75,1.5,1.75,1.5s1.75-0.75,1.75-1.5S283.25,192.75,282.25,192.75
		"/>
	<path fill="#574745" d="M299.75,192.75c-1,0-1.75,0.5-1.75,1.25s0.75,1.5,1.75,1.5s1.75-0.75,1.75-1.5S300.75,192.75,299.75,192.75
		"/>
	<path fill="#574745" d="M317.25,192.75c-1,0-1.75,0.5-1.75,1.25s0.75,1.5,1.75,1.5s1.75-0.75,1.75-1.5S318.25,192.75,317.25,192.75
		"/>
	<path fill="#574745" d="M335.5,192.75c-1,0-2,0.5-2,1.25s1,1.5,2,1.5s1.75-0.75,1.75-1.5S336.5,192.75,335.5,192.75"/>
	<path fill="#574745" d="M354.75,192.75c-1,0-1.75,0.5-1.75,1.25s0.75,1.5,1.75,1.5s1.75-0.75,1.75-1.5S355.75,192.75,354.75,192.75
		"/>
	<path fill="#574745" d="M374,192.75c-1,0-1.75,0.5-1.75,1.25s0.75,1.5,1.75,1.5s1.75-0.75,1.75-1.5S375,192.75,374,192.75"/>
	<path fill="#574745" d="M389.75,192.75c-1,0-1.75,0.5-1.75,1.25s0.75,1.5,1.75,1.5s1.75-0.75,1.75-1.5S390.75,192.75,389.75,192.75
		"/>
	<path fill="#574745" d="M406,192.75c-1,0-1.75,0.5-1.75,1.25s0.75,1.5,1.75,1.5s1.75-0.75,1.75-1.5S407,192.75,406,192.75"/>
	<path fill="#574745" d="M427.25,192.75c-1,0-1.75,0.5-1.75,1.25s0.75,1.5,1.75,1.5s1.75-0.75,1.75-1.5S428.25,192.75,427.25,192.75
		"/>
	<path fill="#574745" d="M443.25,192.75c-1,0-1.75,0.5-1.75,1.25s0.75,1.5,1.75,1.5s1.75-0.75,1.75-1.5S444.25,192.75,443.25,192.75
		"/>
	<path fill="#574745" d="M463.25,192.75c-1,0-1.75,0.5-1.75,1.25s0.75,1.5,1.75,1.5s1.75-0.75,1.75-1.5S464.25,192.75,463.25,192.75
		"/>
	<path fill="#784C32" d="M353,56.75c1.25,0.25,2.25,0.5,3.5,0.75c0-0.75,0-0.75,0-0.75C355.25,56.75,354.25,56.75,353,56.75"/>
	<path fill="#784C32" d="M430.75,83c-14.25-1.5-28-5-40.75-10.25c-6.5-2.75-12-6-18.25-8.75c-4.5-2-10-5.25-15.25-6.5
		c0,10,0,10,0,10c7.25,10.75,22.75,15.75,37,20c20.25,5.75,38.75,12.75,59.75,17.25c9.5,1.75,18.5,3.75,26.75,6.75
		c0-32.75,0-32.75,0-32.75C463.75,80.75,448,84.5,430.75,83"/>
	<path fill="#96D549" d="M339.5,242.5c-0.25,0-0.5,0-0.75,0C339,242.5,339.25,242.5,339.5,242.5"/>
	<path fill="#96D549" d="M339.5,242.5c1-0.25,1.75-0.25,2.75-0.25C341.25,242.25,340.5,242.25,339.5,242.5"/>
	<path fill="#96D549" d="M339.5,242.5c-0.25,0-0.5,0-0.75,0C339,242.5,339.25,242.5,339.5,242.5"/>
	<path fill="#96D549" d="M410.75,254c-19.5-6.5-46-13.5-68.5-11.75c-1,0-1.75,0-2.75,0.25c-0.25,0-0.5,0-0.75,0c-0.5,0-1,0-1.5,0.25
		c0.5-0.25,1-0.25,1.5-0.25c0.25,0,0.5,0,0.75,0c1-0.25,1.75-0.25,2.75-0.25c11.75-1,29.75-1.75,34-9.25
		c15-26-108-15.25-122.25-14.5c-23.25,1-46.5,1-70,0.75c-18-0.25-36.25-0.25-54.25,0c-4,0.25-9.25,0-15.25,0
		c-19.25-0.5-45.5-1.25-53.75,7c-21.5,21,51.25,29,65.25,30c16,1.5,32.5,1.5,48.75,1.5c12.25,0,24.25-0.25,36.25,0.5
		c11,0.5,65.5,0.5,69.25,12s-33.5,14.75-42.75,16c-7.25,1-23.75,1-44,0.75C140,286.5,60,286.25,52.75,307
		c-6.25,18.5,28,27.5,69.5,31.75c50,5,110.5,3.25,124.25,2.75c50.5-1.75,104,1.75,153-10c38.25-9.25,33.75-28.25,2.25-43.75
		c9.25,4.75,30.75-8.75,31.5-16.25C434.25,261.5,421,257.5,410.75,254"/>
	<path fill="#88D042" d="M98.75,289.75c-42-4-78.75-11.5-73.25-26.75c0.25-0.5,0.5-1,0.75-1.5c5.25,1.25,10.5,2.25,16,3
		c3.5,0.5,7,1,10.75,1c1.25,0,2.5,0,3.75-0.25c2-0.25,4.25-1,4.5-2.75c0,0.5,3.75,0.75,8.75,0.75c12.75,0,34.5-2.25,24.75-11.25H95
		c2,1.25,4.75,1.75,7.75,1.75c0.5,0,1.25,0,1.75,0c9.5,1.5,17.5,2.25,21.5,2.5c12.75,1.25,26,1.5,39.25,1.5c3.25,0,6.25,0,9.5,0
		s6.5,0,9.75,0c8.75,0,17.75,0,26.5,0.5c4.75,0.25,17.75,0.25,31.25,1.25c-3,1.5-6,3-9,4.5C218.5,271.25,208,279,201,287
		c-2.5,0-5,0-7.5,0c-7.75,0-15.75,0-24.25,0C145.5,287,120,287.25,98.75,289.75"/>
	<path fill="#96D549" d="M196,293.75c-19.75,0-60.5-0.5-97.25-4c21.25-2.5,46.75-2.75,70.5-2.75c8.5,0,16.5,0,24.25,0
		c2.5,0,5,0,7.5,0C199,289.25,197.25,291.5,196,293.75 M242.25,259.5c-13.5-1-26.5-1-31.25-1.25c-8.75-0.5-17.75-0.5-26.5-0.5
		c-3.25,0-6.5,0-9.75,0s-6.25,0-9.5,0c-13.25,0-26.5-0.25-39.25-1.5c-4-0.25-12-1-21.5-2.5c1.75-0.25,3.75-0.5,5-1
		c2.5-0.75,4.75-3.5,7-3.75c0.25,0,0.75,0,1.25,0c2,0,4.25,0.5,6.75,1s5,1.25,7,1.25c0.25,0,0.25,0,0.5,0
		c1.75-0.25,15.5-1.25,16-2.75c0.25-0.25,0.25-0.5,0.25-0.5c0.25,0,0.25,0,0.25,0c-0.75,5.75,7.75,7,16.75,7
		c2.5,0,4.75-0.25,7.25-0.25c2.25,0,4.25-0.25,6-0.25c1.25,0,2.25,0,3,0.25c11,1.25,21,2,29.25,2c13.5,0,23.5-2,29.75-7.5
		c4.25,0.5,8.25,1,12.25,1.75c1.75,0.25,3.75,0.5,5.5,1C253,254.25,247.75,256.75,242.25,259.5 M95,252h-0.25c0,0,0,0-0.25,0
		C94.75,252,94.75,252,95,252"/>
	<path fill="#C2B357" d="M322.5,361c-118.25,0-118.25,0-118.25,0c-4-5.25-8-11.75-11-19c3.75,0.25,7.5,0.25,11.25,0.25
		c20,0,35.75-0.5,42-0.75c19.5-0.75,39.75-0.75,59.75-1C312.25,348.75,318.5,356.25,322.5,361 M337.25,242.75L337.25,242.75
		L337.25,242.75 M337.25,242.75c0.5-0.25,1-0.25,1.5-0.25C338.25,242.5,337.75,242.5,337.25,242.75 M342.25,242.25
		c2.25-0.25,4.5-0.5,7-0.75c-0.25,0.25-0.5,0.25-0.5,0.5C346.5,242,344.25,242,342.25,242.25 M355.25,217.75L355,217.5
		c0.25,0,0.25,0,0.5,0C355.5,217.5,355.25,217.5,355.25,217.75 M352.5,217.25c-0.75,0-1.25,0-2-0.25c0.25,0,0.5,0,0.75,0
		C351.75,217,352,217.25,352.5,217.25"/>
	<path fill="#C5B559" d="M339.5,242.5c1-0.25,1.75-0.25,2.75-0.25C341.25,242.25,340.5,242.25,339.5,242.5"/>
	<polyline fill="#C5B559" points="339.25,242.5 339.5,242.5 339.25,242.5 	"/>
	<path fill="#C5B559" d="M204.5,342.25c-3.75,0-7.5,0-11.25-0.25c-6-14.25-8.25-31.25,2.75-48.25c4.25,0.25,7.75,0.25,9.75,0.25
		c9.75,0,19.5,0.5,29.25,0.5c8.75,0,17.75-0.25,26.25-1.25c53.25-4.75,31.25-33.25-3-41.25c50-23,79-31.75,92.25-35
		c0.75,0.25,1.25,0.25,2,0.25c0.75,0.25,1.5,0.25,2.5,0.25l0,0l0.25,0.25C353,218,350.5,219.5,350.5,221c0,0.75,0.5,1.25,1,2
		c1.5,1,5,1.75,8,1.75c1.25,0,2.25-0.25,3.25-0.5c-1.75,0.75-3,2.25-3,3.75c0,1,0.75,2,2,2.5s2.5,1.25,3.75,1.75
		c-4.75,2.75-10.5,6-16.25,9.25c-2.5,0.25-4.75,0.5-7,0.75c2-0.25,4.25-0.25,6.5-0.25c-29.25,17-66,42-63.5,57.75
		c1.75,12,11.5,27.5,21,40.75c-20,0.25-40.25,0.25-59.75,1C240.25,341.75,224.5,342.25,204.5,342.25 M337.25,242.75L337.25,242.75
		L337.25,242.75 M338.75,242.5c-0.5,0-1,0-1.5,0.25C337.75,242.5,338.25,242.5,338.75,242.5 M339.25,242.5L339.25,242.5h0.25l0,0
		H339.25 M339.5,242.5L339.5,242.5c1-0.25,1.75-0.25,2.75-0.25l0,0C341.25,242.25,340.5,242.25,339.5,242.5"/>
	<path fill="#C3B458" d="M214.5,287.25c-4,0-8.75-0.25-13.5-0.25c7-8,17.5-15.75,32.25-23c3-1.5,6-3,9-4.5
		c17.5,1.25,36,4.25,38,10.75c3.75,11.5-33.5,14.75-42.75,16C233,287,224.75,287.25,214.5,287.25"/>
	<path fill="#C5B559" d="M235,294.5c-9.75,0-19.5-0.5-29.25-0.5c-2,0-5.5,0-9.75-0.25c1.25-2.25,3-4.5,5-6.75
		c4.75,0,9.5,0.25,13.5,0.25c10.25,0,18.5-0.25,23-1c9.25-1.25,46.5-4.5,42.75-16c-2-6.5-20.5-9.5-38-10.75
		c5.5-2.75,10.75-5.25,16-7.5c34.25,8,56.25,36.5,3,41.25C252.75,294.25,243.75,294.5,235,294.5"/>
	<path fill="#47BB3A" d="M213.25,289c0.5-0.25,0.5-0.25,0.5-0.25C213.5,288.75,213.25,289,213.25,289"/>
	<rect x="213.25" y="289" fill="#47BB3A" width="0" height="0"/>
	<path fill="#47BB3A" d="M211,275.25c-1.25,1-3.5,3.25-3.75,4.75c0,0.25,0,0.5,0,0.75c0-0.25,0-0.5,0-0.75c0-2.25,0.25-7.5-3.25-6
		c-4,1.5-3,7.5-2.75,10.25c-1.25-1.5-2.75-10.5-6.5-8.5c-1.75,0.75-1.5,5-1.25,6.25c0,1.25,0.25,2.25,0.75,3.25
		c0.5,0.75,0.75,1.5,1,2c-0.5-0.5-0.75-1.25-1-2c-2-2.5-5.5-5-9.25-4.5c-0.25,3.25,2,5.5,4.25,8c2.25,2,5.75,5,6,7.75
		c18-7.5,18-7.5,18-7.5c-0.25-1.5,0.5-3.25,0.75-5c0.25-2.5,0.25-4.5-0.25-7C213.5,275,213.5,273.75,211,275.25"/>
	<path fill="#47BB3A" d="M207.25,280.75c0-0.25,0-0.5,0-0.75C207.25,280.25,207.25,280.5,207.25,280.75"/>
	<path fill="#47BB3A" d="M195.25,287.25c-0.25-0.5-0.5-1.25-1-2C194.5,286,194.75,286.75,195.25,287.25"/>
	<path fill="#47BB3A" d="M292.75,239.5c0.25-0.5,0-0.75,0-1.25C292.75,238.75,292.75,239,292.75,239.5"/>
	<path fill="#47BB3A" d="M297.5,235.25c0-0.25,0-0.5,0-0.75C297.5,234.75,297.5,235,297.5,235.25"/>
	<path fill="#47BB3A" d="M304.25,227.75c-3.25,0.25-6.25,4-6.75,6.75c0,0.25,0,0.5,0,0.75c0-0.25,0-0.5,0-0.75
		c0-2.5-0.25-7.5-3.75-6.5c-3.5,1.25-1.25,7.25-1,10.25c0,0.5,0.25,0.75,0,1.25c0-0.5,0-0.75,0-1.25c-0.5-3-5.5-8.5-8.75-7.75
		c-0.75,2.25-0.25,5.5,1.75,7.25c1.25,1,3.25,1.5,4.5,2.5c-0.25,0-0.25-0.25-0.5-0.25c14.5,0.75,14.5,0.75,14.5,0.75
		c-0.25-0.75,0.75-1.25,1-2.25c0.5-1,0.25-2.25,0.25-3.5C305.5,232.75,306,229.75,304.25,227.75"/>
	<path fill="#47BB3A" d="M285.25,291.5c0.75-0.75,1.5-2,2.25-3.25C286.25,289.25,285.25,290.5,285.25,291.5"/>
	<path fill="#47BB3A" d="M290.75,290.25c1-1,2.5-2.25,2.25-3.5c-1.5-0.5-3.75,0.5-5.5,1.5c-0.75,1.25-1.5,2.5-2.25,3.25
		c0-1,1-2.25,2.25-3.25c1.25-2,1.5-4.5-1.75-4.25c-2.25,0-8,3-8.75,5c-0.25,0.25-0.25,0.5-0.25,0.5s0-0.25,0.25-0.5
		c0.5-2.5,3.25-4.5,2.75-7.25c-4.5-0.25-8.25,3.5-10.25,6.25c-1,1.75-1.25,3-1,4.75c0,1,0.25,2-0.75,2.75
		c20.5,4.25,20.5,4.25,20.5,4.25c2.25-1.25,4.5-2.5,7-3.25c2.5-0.5,6.5-0.75,6.75-3.25C302.75,288.5,294.5,289,290.75,290.25"/>
	<path fill="#47BB3A" d="M277,289c-0.25,0.25-0.25,0.5-0.25,0.5S276.75,289.25,277,289"/>
	<path fill="#B35C1E" d="M286.25,294.75c-9.75-1.75-20-3.25-30-3.5c-18.5-0.5-42.5-8.25-58.75,2c-20,12.75-3,21.75,16,22.5
		c0.75,0,1.5,0,2,0C242,317,277,327,291,303.75C294,299,292.75,296.25,286.25,294.75"/>
	<path fill="#B35C1E" d="M253.25,261.5c-4.75,0.25-53.5,9-32.5,14.75c11.5,3,36.75,3.75,42.25,3.5c7.75,0,33.75-2,35.25-9.25
		C300.5,258.25,261.25,261,253.25,261.5"/>
	<path fill="#B35C1E" d="M319.5,240.5c-10-1.75-21.5-2.25-31.5-0.5c-1.5,0.5-6,1.5-9.75,3.25c-6,2.25-11,5.75-5,9.25
		c5.25,2.75,15,2.75,21.25,3.75c10.75,1.75,25.75,5,36.5,3C353.75,254.75,331,242.25,319.5,240.5"/>
	<path fill="#B35C1E" d="M351.25,221c-7.75,0.25-39-4-37.5,6.25c2.5,16.25,57.5,21.5,70.5,11.5C403,224.25,362.25,220.25,351.25,221
		"/>
	<path fill="#B35C1E" d="M277,329.5c-22,0.5-93.25-5.5-80.5,24c1.25,3,3,5.5,5.25,7.5c147.75,0,147.75,0,147.75,0v-0.25
		C366,327.5,300.25,329,277,329.5"/>
	<path fill="#E78340" d="M288,293c-9.75-2-20-3.25-30-3.5c-18.5-0.5-42.5-8.25-58.5,2c-20.25,12.75-3.25,21.75,16,22.5
		c0.5,0,1.25,0,1.75,0c26.5,1.25,61.5,11.25,75.5-12C295.75,297.25,294.5,294.25,288,293"/>
	<path fill="#C87226" d="M255,259.75c-4.75,0.25-53.5,9-32.5,14.75c11.5,3,36.75,3.75,42.25,3.5c7.75-0.25,34-2.25,35.25-9.25
		C302.25,256.5,263,259.25,255,259.75"/>
	<path fill="#DA7A36" d="M321.25,238.5c-10-1.5-21.25-2-31.25-0.25c-1.75,0.25-6,1.5-10,3c-6,2.5-11,6-5,9.25c5.25,3,15,3,21.25,4
		c10.75,1.75,25.75,5,36.5,3C355.5,253,332.75,240.5,321.25,238.5"/>
	<path fill="#C87226" d="M353.25,219.25c-7.75,0.25-39.25-4-37.75,6.25c2.5,16.25,57.5,21.25,70.5,11.25
		C404.75,222.25,364,218.5,353.25,219.25"/>
	<path fill="#C87226" d="M279,327.75c-22,0.5-93.5-5.75-80.75,24c1.75,4,4.25,7,7.5,9.25C350,361,350,361,350,361
		c0.5-0.75,1-1.25,1.25-2C367.75,325.75,302,327.25,279,327.75"/>
	<path fill="#59C136" d="M84.25,190.75c-0.5-1.75,0-3.5-0.5-5c-1.75,2-2.5,4.25-4.25,6.5c0-3,0-5.75-1-8.75
		c-3.75,1.5-4.5,6-5.5,8.75c-2.25-2.5-0.5-10.25-4.25-12.25c-3.5,1.75-5.75,7.25-6.5,10.25c-3.25-2.75-1-11-7-12.75
		c-4,2.75-2.5,8.25-5.25,10.75c-0.25-2.5-2.5-12-7.25-10.75c-0.75,5-0.25,10.5-1.25,15.25c-2-2.75-3.75-15.5-9.5-14.5
		c-1,5.25,0,11.5,1.5,16.75c0.5,1.25,2.5,4.25,2.75,6.25c53,0,53,0,53,0c0-1,0.25-2,0.25-2.75c0-4,0.5-8.25-0.25-12.25
		C87,186.75,85.75,189.5,84.25,190.75"/>
	<path fill="#33A83F" d="M236,188.5c-1.5,0.75-2.5,2-3.25,3.25c0.25-1.75,0-3.5-1.5-3.25c-1.75,0-3.75,4-4.5,6.5c0.5-3,1.25-8.5-1-9
		c-3-0.75-4.5,8.25-5.25,9.5c0-2,0.25-3.75,0-5.5c0-1.5,0-5-1.5-6c-3,2.75-3.75,7.25-3.75,10.5c-1.5-2-1-4.75-1.5-6.75
		c-0.25-1.75-1-7-3.25-7.75c-1.75,1.25-2.25,4.25-2.75,6c-0.75,2.5-1.5,5.5-1.5,8.25c0-1.5,0-11.5-3.25-10.75c-2,0.75-2,5.5-2,6.5
		c-0.25,2.5-0.75,5.25-0.5,7.75c-1.75-2,0-5-1.75-7c-2.25,1.75-1.5,5-3.5,6.25c-0.5-1.25,0.75-8.25-2.75-7.75
		c-2.25,0.25-3,7.5-3.25,9c0.25-2.25-1-7.75-3.5-8.75c-2.25,2.75-1.75,6.5-2.5,9.5c-1-1-1-8.25-4.5-7.5c-2.25,0.5-1,6.25-1,7.75
		c-0.75-1.5-2.25-5.5-4.75-5.75c-0.25,1.75-0.25,3.75,0.5,5.25c0.5,1,1.75,1.75,2.25,2.75c62.25,0,62.25,0,62.25,0
		c0.25-1.5,0-3,0-4.5C238,194.5,238.5,190.5,236,188.5"/>
	<path fill="#59C136" d="M478.75,184c-3,2.5-3.75,7.25-3.75,10.5c-1.25-2-1-4.75-1.25-7c-0.5-1.5-1.25-6.75-3.25-7.5
		c-2,1.25-2.5,4-3,5.75c-0.75,2.75-1.5,5.5-1.5,8.25c0-1.5,0.25-11.25-3-10.5c-2,0.5-2.25,5.25-2.25,6.5
		c-0.25,2.25-0.75,5.25-0.5,7.75c-1.75-2,0-5-1.75-7c-2,1.5-1.5,4.75-3.5,6.25c-0.25-1.5,0.75-8.25-2.5-8c-2.5,0.5-3,7.5-3.5,9
		c0.25-2-1-7.75-3.5-8.5c-2.25,2.5-1.75,6.5-2.25,9.5c-1-1-1-8.5-4.75-7.5c-2.25,0.25-1,6.25-1,7.75c-0.75-1.5-2.25-5.5-4.75-5.75
		c-0.25,1.5-0.25,3.75,0.5,5.25c0.5,0.75,1.75,1.75,2.25,2.5c44.5,0,44.5,0,44.5,0c0-15.25,0-15.25,0-15.25
		C479.75,185.25,479.5,184.25,478.75,184"/>
	<path fill="#33A83F" d="M396.75,188.25c-1.5,1-2.5,2-3.25,3.5c0.25-2,0-3.75-1.5-3.5c-1.75,0.25-3.5,4.25-4.5,6.75
		c0.75-3.25,1.25-8.5-0.75-9.25c-3.25-0.75-4.5,8.5-5.5,9.5c0.25-1.75,0.25-3.75,0.25-5.5c-0.25-1.25-0.25-5-1.75-5.75
		c-3,2.5-3.75,7.25-3.75,10.5c-1.25-2-1-4.75-1.25-7c-0.5-1.5-1.25-6.75-3.25-7.5c-2,1.25-2.5,4-3,5.75c-0.75,2.75-1.5,5.5-1.5,8.25
		c0-1.5,0.25-11.25-3-10.5c-2,0.5-2.25,5.25-2.25,6.5c-0.25,2.25-0.75,5.25-0.5,7.75c-1.75-2,0-5-1.75-7c-2,1.5-1.5,4.75-3.5,6.25
		c-0.25-1.5,0.75-8.25-2.5-8c-2.5,0.5-3,7.5-3.5,9c0.25-2-1-7.75-3.5-8.5c-2.25,2.5-1.75,6.5-2.25,9.5c-1-1-1-8.5-4.75-7.5
		c-2.25,0.25-1,6.25-1,7.75c-0.75-1.5-2.25-5.5-4.75-5.75c-0.25,1.5-0.25,3.75,0.5,5.25c0.5,0.75,1.75,1.75,2.25,2.5
		c62.25,0,62.25,0,62.25,0c0.25-1.5,0-3,0-4.25C398.75,194.5,399.5,190.25,396.75,188.25"/>
	<path fill="#33A83F" d="M176.5,189.5c-0.75,1.25-2.75,5.75-4.75,6c-0.5-2,1.25-10.25-1.25-10.25c-2-0.25-4.75,6.25-5,7
		c-0.75,2.25-1.5,5.75-4,6.75c-0.75-5.5,1.25-11.25-2-16.5c-3,0.25-4.5,12.25-4.75,14.25c-2-2.25-0.75-15.75-5.25-15.25
		c-2.25,5-1.5,10.75-1.25,16c-0.75-2.5-3.25,0-4,1.25c1-1.75,2.25-8.75-0.75-8.25c-1.75,0.5-4.25,4-5,5s-1.75,4-3.5,4
		c-0.75-3.25,2.75-8.5-0.5-11.25c-2.5,3.25-3.75,7-6,10.25c-0.5-2.25,1-5.5,1-8c0.25-2.75,0.75-6.5-1-9c-3,0.5-3.75,4-4.5,5.75
		c-1.25,3-2.25,6-3.5,9c0.25-5.75,0.5-12-1.75-17.5c-3-0.25-4.25,4.75-4.75,6.25c-1.25,3.25-3.5,7-3.75,10.5c-1.5-2,0-10.25-4-10.5
		c-4.5-0.25-4.25,10.5-4.25,12.75c0-1.25-2-9-4.75-8c-2.25,0.5-2,6-2,8.75c0-1.5-1-3-1.75-4c-0.5-0.5-3.25-4.5-4.25-4.5
		c-3,0-0.25,8.25-0.5,9.75c0-2.5-2.75-8-7-7c-0.75,3,0.75,5.75,2,8.5c98.75,0,98.75,0,98.75,0c0-5.75,0-5.75,0-5.75
		c0-2.5,1.5-9.5-0.75-11.75C179.25,184.5,177.5,187.75,176.5,189.5"/>
	<path fill="#33A83F" d="M335,189.5c-0.75,1.25-2.75,5.75-4.75,6c-0.25-2,1.25-10.25-1.25-10.25c-2-0.25-4.5,6.25-4.75,7
		c-0.75,2.25-1.5,5.75-4.25,6.75c-0.75-5.5,1.5-11.25-2-16.5c-3,0.25-4.25,12.25-4.75,14.25c-2-2.25-0.75-15.75-5.25-15.25
		c-2,5-1.5,10.75-1.25,16c-0.75-2.5-3,0-3.75,1.25c0.75-1.75,2-8.75-1-8.25c-1.75,0.5-4,4-4.75,5s-2,4-3.5,4
		c-1-3.25,2.75-8.5-0.5-11.25c-2.5,3.25-4,7-6.25,10.25c-0.5-2.25,1-5.5,1.25-8c0.25-2.75,0.5-6.5-1.25-9c-3,0.5-3.75,4-4.25,5.75
		c-1.25,3-2.25,6-3.5,9c0.25-5.75,0.5-12-2-17.5c-3-0.25-4,4.75-4.75,6.25c-1.25,3.25-3.5,7-3.75,10.5c-1.5-2,0-10.25-4-10.5
		c-4.5-0.25-4.25,10.5-4.25,12.75c0-1.25-2-9-4.75-8c-2.25,0.5-2,6-1.75,8.75c-0.25-1.5-1.25-3-2-4c-0.5-0.5-3-4.5-4-4.5
		c-3,0-0.5,8.25-0.75,9.75c0-2.5-2.75-8-7-7c-0.5,3,0.75,5.75,2,8.5c98.75,0,98.75,0,98.75,0c0-5.75,0-5.75,0-5.75
		c0-2.5,1.5-9.5-0.5-11.75C337.75,184.5,336,187.75,335,189.5"/>
	<path fill="#1E582B" d="M467.5,164.5c0-2.75,1.25-7.25-3.75-7.5c-4.75,0-9.25,7.25-10.75,9.75c0.25-2.25-1.5-4.25-1.5-6.75
		c-4.25-1.25-5.5,3.75-7.75,5.25c-0.75-2.5-5.75-6.25-8.5-6.25c-0.5,1.75-1.75,3.5-1.75,5.25c-2.5-1.5-4.75-5.5-9-4.25
		c-0.5,2.25-0.25,4.5-0.25,6.75c-1.25-2.5-6.5-7.25-11-5c-3.75,2,0.75,6.5,1.25,8.75c-3.75-2-7.75-4.5-13-4.25
		c-1.75,4.25,9,14,14.25,14.25c-4.75,0-4.75,0-4.75,0c-2.75,2-8.25,0.75-11.75,1c-1,2-0.25,4,2,4.5c-1.5,0-2.5,0.75-3,1.75
		c1.75,1,4,1.5,6.5,1.75c-4.25-0.5-11.25,2-8.25,5.25c2.25,2.5,9,1.25,10.75,3.5c-3.75,1.25-9.75,3.5-7.25,7.5
		c2,2.75,5.75,1.5,9.5,2c-4.5,3-5.25,7-4.25,11.5c4.5,0.25,8.75-0.25,13.25-1c4-1,8.75-3.25,12.5-3.5c-3.75,1.5-6.5,5.5-5.5,8.75
		c8.25,1.5,15.5-3.5,23.5-3.5c-1.25,1.25-2.5,2.25-3,3.5c5.5,0.75,11-1.5,16.5-0.5c0.25,2.25-0.25,4.75,0.25,7
		c3.75,0.25,7-2,10.5-2.5c0.25,2-1.25,7,2.5,7c2.75,0,3.75-2.75,4.25-4.25c0-74.5,0-74.5,0-74.5
		C475.25,156.75,467.75,161.5,467.5,164.5"/>
	<path fill="#47BB3A" d="M421.5,242.75c0.25,0.25,0.25,0.25,0.25,0.25L421.5,242.75 M463.5,202c-0.25-0.75-3.25-2.25-4-2.5
		c-2-1-4.25-1-6.25-1.75c2.25-0.75,10.25-1.75,8.25-5c-1-1.5-6.5-2.25-8.25-2.5c-1,0-1.75,0.25-2.75,0.25c-1,0.25-2.25,0.5-3.5,0.25
		c2.75-2.25,5.75-5.5,1.5-8c-3-1.75-6.5,0.25-9.5,1.5c0.75-1.25,4.25-5,2-6.25s-7.25,1.75-8.5,2.75c1-1.75,4.25-5.75-0.25-6.25
		c-4.25-0.5-8.75,4-12,5.5c1-1.75,3.75-6.5-1-6.25c-4,0.25-5.75,3.75-9,4.5c-0.25-1.75-0.25-3.75-0.75-5.5
		c-2-0.25-4.75,2.25-6.25,3.25c-0.25-1.5,1-4.75-1.5-4c-1.25,0.25-3.25,2-3.75,2.5c-0.5,0.75-0.25,1.75-1.25,2.25
		c-0.25-1.5-0.75-2.75-0.75-4.25c0-1.25,0.75-2.75-1.5-2.25c-3,0.75-3.75,5.25-5.75,6.5c0-2.5-4.25-6.75-7.75-4.75
		c-3.25,1.5-3.5,5.5-3.5,8c-1.75-1.5-6-5.5-9-3.5c-4.5,2.75-0.25,9.25,0,12.5c-1.75-1-6.25-2.75-8-1c-1.25,1.5,0.25,5.5,1.5,7
		c-1.75-1.5-7-1.25-8.75,0.5c-2.25,2.5,2,4.5,4.5,5.75c-2-0.5-4.5-0.25-6.5-0.25c-2.5,0-2.75,0-2.75,1.75
		c0.25,2.25,1.5,3.75,3.25,5.25c-4.25,0.75-8.5-0.25-6.5,4c1.5,2.75,6,6,10.25,5.5c-3,0.5-6.75,3-4,5.25
		c2.25,1.75,8.25,2.25,11.5,1.5c-3.25,1-4.75,5-1.25,6.25c2,0.75,4.25,0.5,6.5,0c1.5-0.25,3.25-0.5,4.75-0.5
		c48.25,12.75,48.25,12.75,48.25,12.75c0,0.25,0,1,0,1.25c1.25,0.25,2-0.25,3-0.25c2-0.25,1.25,0,3,0.75c2.5,1,4.5,0,6.5-0.75
		c0.5,1.75,1.75,3.25,4.25,3.25c4.75,0,4.25-2.25,4-4.75c0.25,1.75,4,2.5,6,1.75c1.5-0.75,1-2.75,1-4c1.25,0.75,0.75,1.25,2.25,1.75
		s3.75,0,4.75-0.75c3-2.25-0.75-5.75-2.75-7.5c2.75,0,9,0.25,9-2.75c-0.25-3.5-6-4.25-7.75-6.75c2.75-0.25,9.25,0.5,8.75-2.75
		c-0.5-2.5-5.25-2.75-7.5-4c2,0,7.25,0,7-2.25s-6.75-2.75-9.5-2.75c3,0,9.5-1.25,9-3.75c-0.75-2.25-6.5-2.25-8.5-3.5
		C455.75,205.25,464.25,204.75,463.5,202"/>
	<path fill="#3EAD3D" d="M421.5,242.75c0.25,0.25,0.25,0.25,0.25,0.25L421.5,242.75 M455.75,217.25c2,0,7.25,0,7-2.25
		c-0.25-1.5-3-2-5.75-2.5c-4,2.5-12.5-1.5-9.75-6.25c-2.75,1.5-6-1.25-6.75-3c-0.25-0.5-0.25-1.25-0.25-1.75
		c-0.25,0.5-1,1-1.75,1.25c-2.25,0.5-7.75-0.75-9.25-2.5c1.25,2.5-0.75,7.25-4,8.5c-4,1.5-7.25-0.75-9.25-3
		c0.25,3.25,1,9.75-4.25,10.75c-7.5,1.75-7.25-5.75-7-9.25c-0.75,2-2.5,4.5-5.25,5.5c-1.75,0.5-6.5,1-8,0
		c-1.75-1.25,0-5.5,0.75-6.75c0.25-0.25,0.25-0.5,0.5-0.5c-2,1-4.25,1.5-6.5,1.75c-3.25,0-6.25-0.5-5.25-3.5c-3,1.5-5,5.25-9.5,4
		c-2.75-1-1.5-3.25-2-5.5c-4.75,2-18,15-19,6c-3.75,0.25-7-0.25-5.25,3.75c1.5,2.75,6,6,10.25,5.5c-3,0.5-6.75,3-4,5.5
		c2.25,1.5,8.25,2,11.5,1.25c-3.25,1-4.75,5-1.25,6.25c3.5,1.5,7.75,4.25,11.25,4.5c48.25,7.75,48.25,7.75,48.25,7.75
		c0,0.25,0,1,0,1.25c1.25,0.25,2-0.25,3-0.25c2-0.25,1.25,0,3,0.75c2.5,1,4.5,0,6.5-0.75c0.5,1.75,1.75,3.25,4.25,3.25
		c4.75,0,4.25-2.25,4-4.75c0.25,1.75,4,2.5,6,1.75c1.5-0.75,1-2.75,1-4c1.25,0.75,0.75,1.5,2.25,1.75c1.5,0.5,3.75,0,4.75-0.75
		c3-2-0.75-5.75-2.75-7.5c2.75,0,9,0.25,9-2.75c-0.25-3.5-6-4.25-7.75-6.75c2.75-0.25,9.25,0.5,8.75-2.75
		C462.75,218.75,458,218.5,455.75,217.25"/>
	<path fill="#1E582B" d="M351.25,44.75c0.25-0.25,0.25-0.25,0.25-0.25c-0.5-0.5-1-1-1.5-1.5C350.5,43.5,350.75,44.25,351.25,44.75"
		/>
	<path fill="#1E582B" d="M251.5,7.25C250,7.5,248.5,8,247,9c1,5.5,17.75,3.5,22.25,3.25c-2.75,1.5-8.25,3-6.75,6.25
		c5.5,0.75,10.75,1,16.5,1c-3.25,0.25-8,3.75-6.75,6.25c6.25,0.75,12.75-1.5,18.5-1.5c-1.75,2.25-5.75,2.75-4.25,6
		c7.25,0.75,13.25-1,20-2.5c-2,2-5.75,5.75-5.5,8c8.75,0.75,14.5-3.25,22.5-4.25c-2.5,2.25-4.25,4.75-3.25,7.75
		c5.75-1.75,13-2.25,17.25-6.75c-1.25,2.25-1,6.25-0.5,8.75c2,0,3-0.5,4.75-1.25c4.25-1.25,8.25-3,13-4.25
		c-3.25,8.75-3.25,8.75-3.25,8.75c2.25,2.25,4.75,3.75,9.75,2.75c2.25-0.25,5.25-1.75,7-3.75c0,0.25,0,0.25,0,0.25
		c2.25-0.75,5.75-4.5,7.75-8c2.25,2.25,6.25,3.5,11,2.25c9-2.75,8.5-11.75,12.5-17.25c4.25,5,11,16.5,20,8
		c7.75-7.5,3.5-16.5,3.75-25c4.5,2.75,15.25,6.75,15.75-1c0-0.5-0.25-1.25-0.25-1.75c-195.5,0-195.5,0-195.5,0
		c0,0.25,0,0.5,0.25,0.5C244.5,3,248.25,5.75,251.5,7.25"/>
	<path fill="#1E582B" d="M350,43c-0.75-1-1.25-1.75-2-2.5C348.75,41.25,349.25,42,350,43"/>
	<path fill="#6FBE3B" d="M26.25,261.5c-1.5-0.5-3-1-4.75-1.5C10.75,256.5,2,245.5,3,236.75C3.25,233.5,4,229,7.75,227
		c2.75-1.75,6.75-2.25,10.25-3c6-0.75,11.75-1.75,18-2.25c4.75-0.25,9.75-0.25,14.5-0.25c6.25,0,12.5,0,18.75,0.25
		c-3.75,1.25-6.5,2.5-8.5,4.5c-10,9.75,0.5,16.75,16.25,21.5c-16.75,1-32.5,3-42,7.25C31,256.75,28,258.75,26.25,261.5"/>
	<path fill="#80CD43" d="M240.5,249.25c-15-1.75-30.25-2.25-45.5-2.25c-15,0-30,0.5-45,1c-0.5,0-1,0-1.5,0
		c0.25-0.5,0.25-0.75,0.25-1.25c0,0.5-0.25,0.75-0.5,1.25c-0.25,0-0.5,0-0.75,0c-4.5,0-11-0.25-18.75-0.5
		c-7.5,0-16.5-0.25-25.75-0.25c-8.5,0-17.5,0-26,0.5C61.25,243,50.75,236,60.75,226.25c2-2,4.75-3.25,8.5-4.5
		c5.75,0.25,11.75,0.75,17.5,1c36.5,1.75,73,4.5,109.5,6c13.25,0.5,27.75,1.75,40.25,5.25c6.75,2,12.5,1.25,9,9
		C244.25,245.5,242.5,247.5,240.5,249.25"/>
	<path fill="#75C33E" d="M53,265.5c-3.75,0-7.25-0.5-10.75-1c-5.5-0.75-10.75-1.75-16-3C28,258.75,31,256.75,35,255
		c9.5-4.25,25.25-6.25,42-7.25c5.5,1.75,11.75,3.25,17.75,4.25c9.75,9-12,11.25-24.75,11.25c-5,0-8.75-0.25-8.75-0.75
		c-0.25,1.75-2.5,2.5-4.5,2.75C55.5,265.5,54.25,265.5,53,265.5 M102.75,253.75c-3,0-5.75-0.5-7.75-1.75
		c3.25,0.75,6.5,1.25,9.5,1.75C104,253.75,103.25,253.75,102.75,253.75"/>
	<path fill="#80CD43" d="M210.75,256.75c-8.25,0-18.25-0.75-29.25-2c-0.75-0.25-1.75-0.25-3-0.25c-1.75,0-3.75,0.25-6,0.25
		c-2.5,0-4.75,0.25-7.25,0.25c-9,0-17.5-1.25-16.75-7c0.5,0,1,0,1.5,0c15-0.5,30-1,45-1c15.25,0,30.5,0.5,45.5,2.25
		C234.25,254.75,224.25,256.75,210.75,256.75 M104.5,253.75c-3-0.5-6.25-1-9.5-1.75c-0.25,0-0.25,0-0.5,0c0.25,0,0.25,0,0.25,0
		c-6-1-12.25-2.5-17.75-4.25c8.5-0.5,17.5-0.5,26-0.5c9.25,0,18.25,0.25,25.75,0.25c7.75,0.25,14.25,0.5,18.75,0.5
		c0.25,0,0.5,0,0.75,0c0,0,0,0.25-0.25,0.5c-0.5,1.5-14.25,2.5-16,2.75c-0.25,0-0.25,0-0.5,0c-2,0-4.5-0.75-7-1.25s-4.75-1-6.75-1
		c-0.5,0-1,0-1.25,0c-2.25,0.25-4.5,3-7,3.75C108.25,253.25,106.25,253.5,104.5,253.75"/>
	<path fill="#60B038" d="M414.75,255.25c-1.25-0.5-2.75-0.75-4-1.25c-6-2-13-4.25-20-6c8.25-2.25,19.75-4.25,27.25-5.75
		c3.25,0.5,3.25,0.5,3.25,0.5V243c0,0.5,0,0.75,0,1c0.25,0,0.5,0,0.75,0c1,0,1.5-0.25,2.25-0.25c0.5-0.25,1-0.25,1-0.25
		c0.75,0,0.75,0.25,2,1c0.75,0.25,1.5,0.25,2,0.25c1.75,0,3-0.5,4.5-1c0.5,1.75,1.75,3.25,4,3.25H438c3.5,0,4-1.25,4-2.75
		c0-0.75,0-1.25,0-2c0,1.25,2.25,2,4,2c0.75,0,1.5,0,2-0.25c1-0.5,1-1.25,1-2.25c0-0.5,0-1.25,0-1.75c1.25,0.75,0.75,1.5,2.25,1.75
		c0.5,0.25,1,0.25,1.5,0.25c1.25,0,2.5-0.5,3.25-1s1.25-1.25,1.25-2s-0.5-1.5-1-2.5c1.5-0.25,1.5-0.25,1.5-0.25
		c5.75-0.75,11.5-1,17.25-1c1.75,0,3.25,0,5,0c0,14.25,0,14.25,0,14.25c-14.75,2.75-30.5,3-45.75,3
		C431.75,252.5,424,254.25,414.75,255.25"/>
	<path fill="#6BBB3F" d="M397.75,256.5c-6.25,0-12-0.5-15.5-2.75C379,252,383.5,250,390.75,248c7,1.75,14,4,20,6
		c1.25,0.5,2.75,0.75,4,1.25C409.25,256,403.25,256.5,397.75,256.5"/>
	<path fill="#41A63B" d="M442,244.25c0-0.75,0-1.25,0-2l0,0C442,243,442,243.5,442,244.25 M421.25,243v-0.25l0,0V243 M449,241.75
		c0-0.5,0-1.25,0-1.75l0,0C449,240.5,449,241.25,449,241.75 M457.25,239c0-0.75-0.5-1.5-1.25-2.5c0.25,0,0.25,0,0.25,0
		C456.75,237.5,457.25,238.25,457.25,239"/>
	<path fill="#60B038" d="M421.75,243l-0.25-0.25C421.75,243,421.75,243,421.75,243"/>
	<polyline fill="#41A63B" points="421.75,243 421.5,242.75 421.5,242.75 421.75,243 421.75,243 	"/>
	<path fill="#3C9D3B" d="M437.75,247c-2.25,0-3.5-1.5-4-3.25c-1.5,0.5-2.75,1-4.5,1c-0.5,0-1.25,0-2-0.25c-1.25-0.75-1.25-1-2-1
		c0,0-0.5,0-1,0.25c-0.75,0-1.25,0.25-2.25,0.25c-0.25,0-0.5,0-0.75,0c0-0.25,0-0.5,0-1v-0.25l0,0c-3.25-0.5-3.25-0.5-3.25-0.5
		c3.25-0.75,5.5-1.25,6.5-1.75c31.5-4,31.5-4,31.5-4c0.75,1,1.25,1.75,1.25,2.5s-0.5,1.5-1.25,2s-2,1-3.25,1c-0.5,0-1,0-1.5-0.25
		c-1.5-0.25-1-1-2.25-1.75l0,0c0,0.5,0,1.25,0,1.75c0,1,0,1.75-1,2.25c-0.5,0.25-1.25,0.25-2,0.25c-1.75,0-4-0.75-4-2l0,0
		c0,0.75,0,1.25,0,2c0,1.5-0.5,2.75-4,2.75H437.75 M421.5,242.75l0.25,0.25l0,0C421.5,242.75,421.5,242.75,421.5,242.75
		L421.5,242.75"/>
	<path fill="#918E7D" d="M417.5,228c-2.25,2-4,4.5-4.75,7.25l0,0c-4.25,13,28.5,11.75,37.75,11.25c7.75-0.5,20.5-1.75,29.5-5.5
		c0-22.75,0-22.75,0-22.75c-3.75-1.5-8-2.25-11.5-2.75C453,214.25,428.5,217.5,417.5,228"/>
	<path fill="#A9A591" d="M434.5,226.25L434.5,226.25c-2,8,9.5,11.75,22.25,12.25c5.75,0,16.25-1.25,23.25-4.25
		c0-14.75,0-14.75,0-14.75C467.75,213.25,437.75,213.75,434.5,226.25"/>
	<path fill="#918E7D" d="M401.5,239.75c-9-0.25-27.75,2-14.75,10.5l0,0c5.5,3.5,15.5,4.25,21.5,3c6.5-1.25,17-6,10.75-10.5
		C415.75,240.25,405.75,240,401.5,239.75"/>
	<path fill="#A9A591" d="M392.5,240.25c-12.75,3-2.5,9.75,6.5,10c9.25,0.25,20-2.25,17.5-6.25C414,239.75,397.5,239,392.5,240.25"/>
	<path fill="#267234" d="M44,234.75c5-1,9.75-2.5,13.75-5c2-1.5,8-7,2.25-7.75c0.25-0.25,9.75-7.5,8-7.75c-2,0-4,0-5.75-0.25
		c0.5-1.25,11.5-7.5,1.5-6.25c2.75-2.5,7-4.25,5.5-7.75c-2.5-0.25-4.75,0-7-0.25c1.25-3.75,9-5,7-9.75c-4.5-0.5-12.5-0.75-14.5,3.25
		c1-2,3.5-9-1-9.75c-5.25-1-8.75,6.5-10.5,8C42.5,189.25,45,179,40.5,179c-4,0.25-6.25,8.75-8.5,10.5c-0.5-4-2.25-10.5-5-14
		c-3.75,2.25-5.25,8.75-6,12.25c-2.5-2-3.25-12.25-7.75-9.75c-3.75,2.25-2.75,10.5-2.75,13.5C9,188.75,4.5,180.25,0,181
		c0,48.5,0,48.5,0,48.5c4,2.25,8.25,4.5,12.75,6C22.75,238.5,34.25,237,44,234.75"/>
	<path fill="#358437" d="M455.5,73c-0.25,0.25-0.75,0.75-1,1C454.75,73.75,455.25,73.5,455.5,73"/>
	<path fill="#358437" d="M445.25,73.25c-0.25,0.25-0.5,0.5-0.75,0.75C444.75,73.75,445,73.5,445.25,73.25"/>
	<path fill="#358437" d="M390.75,10c-1.5-0.75-2.5-1.25-3.5-1.5C388.5,9.25,389.75,10,390.75,10"/>
	<path fill="#358437" d="M462.75,75.75c1.75-1.5,3.25-3,4-4.25C465.25,72.25,463.75,73.75,462.75,75.75"/>
	<path fill="#358437" d="M389.5,1c0.25,1.25,0.5,2.5,0.5,3.25c-2-1-4.75-0.5-7.25-0.5c0.5,1.25,2.5,3.25,4.5,4.75
		c1,0.25,2,0.75,3.5,1.5c-1,0-2.25-0.75-3.5-1.5c-4.75-1.5-5.25,4-5.75,7.5c-2.5-1.25-5-4-8-3.25C373.25,14,372.25,15,372,16
		c-1.5-1.5-4.5-3.5-7-3.25c-0.25,1.75,0,3.5-0.5,5.25c-2.75,0.25-8.5-1-10.25,1c-2.75,2.75,3,5.5,3.25,7.75
		c-4-1.5-10.75-1.25-11,1.5c-0.25,3.75,6.75,6,8.25,9.5c-3.75,0.5-7.75,0-11.5,0.25c-3,7.25,14,8.25,16.75,12.25
		c-4,0.5-8,0-11.75,0.5c-2,3.75,6,4.5,9,5.75c-2.5,0.5-5.25,0.25-8,0.5c-0.75,3,7.25,3.5,10.25,4.25c-2.5,2-12-0.5-10.25,4.5
		c1.5,3.75,11.25,3.5,15.25,3.75c-6.25,2.25-6,6.25,0.25,7c8.25,1.25,16-2.5,23.5-2.5c-1,1.75-1,3.5-0.5,5.25c2.75-1.5,5.5-1,8-3.25
		c0.75,3-1.75,9.25,5,7.75c3.25-0.75,5.25-5,7-6.75c1.75,6.75,2.75,11.25,12.25,5c4.5-3,10.75-11.5,16.5-11.5c0.5,2.25,0,4.5,0.5,7
		c3.25-0.25,5.25-1.75,7.5-3.5c0.25-0.25,0.5-0.5,0.75-0.75c-0.25,0.25-0.5,0.5-0.75,0.75c-1.25,1.25-2.25,2.75-1.5,4.25
		c3.5,1,8.5-2,11.5-4.25c0.25-0.25,0.75-0.75,1-1c-0.25,0.5-0.75,0.75-1,1c-1.5,1.5-2.75,3.5-2,5.25c3.25,0.25,7.25-1.5,10.25-3.5
		c1-2,2.5-3.5,4-4.25c-0.75,1.25-2.25,2.75-4,4.25c-1.75,2.75-2.5,6-1.75,8c6,0.75,12.25-3.75,15.5-7.25c1.5-1.75,2.25-4,3.5-5.75
		C480,1,480,1,480,1C389.5,1,389.5,1,389.5,1"/>
	<path fill="#DB3726" d="M455.5,28.75c-18.75,7-4.5,30.75,16.75,24.5c3.5-1,6-2.5,7.75-4.25c0-17.25,0-17.25,0-17.25
		C475.25,27,466.75,24.5,455.5,28.75"/>
	<path fill="#E44540" d="M454,38c-0.5,9,15.5,9.25,21.25,3.25C486.25,30.25,454.25,26.5,454,38"/>
	<path fill="#1E582B" d="M156.25,197.25c-3.5-0.25-7-0.25-10.25,0.75c2.25-2.25,7.5-6.25,6-9.5c-1.5-2.5-9.75-2-11.75,0.5
		c1.5-2.5,11.75-6.25,7.25-9.5c-4.25-3-13,1.5-17,2.75c0.25-2.5,4.25-9.75,1.5-12c-4-3.5-10,2.75-10.75,5.25
		c0.25-4.5,0.25-8.25,0-12.5c-5-1.25-7.75,6.25-10,8.25c0.25-2.75,2-10.75-2.5-11.25c-6.25-0.5-8,9-11.5,10.75
		c-0.5-2,0.5-9.5-4.75-8.75c-4.5,0.75-3.25,8.25-5.25,10c-2.75-2-1.5-8.75-7.5-7.75c-4.75,1-4.5,6.75-6.5,9.25c-2-1-3.25-7-7.5-3.75
		c-2.5,1.75-1.75,7-2.25,9.25c-2-1-2.75-6-6-5.25c-0.5,3-0.25,6.5,0,9.75c-1-1.5-3.75-3.75-6.25-3c-0.5,3.25,0.75,6,0.75,9
		c-1.5-1.25-3.75-2.25-6.25-1.5c-0.75,1.75,0.75,6,1.5,7.75c-1.75-0.25-3.5-0.75-6-0.5c-1.25,2.75,2.5,7,5,8.75
		c-2.5-1-7.75-1.5-7.75,1.25c-0.25,2.25,4.75,4.5,7,5.5c-18.5-0.5,4,12,8.25,8.75C132,225,132,225,132,225c4,0,11.25-3,13.25-5.5
		c-2.25,0-5.5,1-7.5,2c2.5-1.75,12.25-4.5,11.25-7.25c-2-0.5-4.25,0.25-5.75,1.25c2.25-2.75,12-4.75,10.25-8.75
		c-2.75-0.5-5,0.75-7.75,0.75C152.25,205.75,157,202.5,156.25,197.25"/>
	<path fill="#A92B21" d="M282.5,21.25c-18.75,7-4.75,30.75,16.75,24.5C321.25,39.25,309.25,11,282.5,21.25"/>
	<path fill="#B13A36" d="M281,30.5c-0.5,9,15.5,9.25,21.25,3.25C313,22.75,281.25,19,281,30.5"/>
	<path fill="#A92B21" d="M237,13.75c8-2.25,11.5-7.5,11.25-12.75c-37,0-37,0-37,0C212.25,9.5,223,18,237,13.75"/>
	<path fill="#B13A36" d="M239.75,1.75c0.25-0.25,0.5-0.5,0.75-0.75c-21.75,0-21.75,0-21.75,0C221.25,7.5,234.5,7.25,239.75,1.75"/>
	<path fill="#C87226" d="M101.5,217.75c-54,0-97.75,6.25-97.75,14s43.75,14,97.75,14c53.75,0,97.5-6.25,97.5-14
		S155.25,217.75,101.5,217.75"/>
	<path fill="#784C32" d="M110.5,187.5c-9.75-21.5-14.75-44-16-66.75C92.75,90,99.25,58.5,104,28c0.5-2,1.25-6,2.5-8
		c-12,0.75-12,0.75-12,0.75c0.5,3-1.75,7-2.25,10c-1,3.75-2.5,7.25-4.75,10.75c-3,4.75-5.5,11.75-13.25,12.75
		c-15.5,1.75-21-12.5-29.25-19c-3.5,1.25-7.25,4.5-10,6.5C41.25,46,58.25,58,47.75,64C36.5,70.5,26.5,58,16,56.5
		c-1.5,8,12.75,13.75,20,18.25c10.5,6.25,16,14,18.25,24c6,26,8.25,53,9.25,79.25c0.5,11,1.75,22,1.5,33
		c-0.25,5.75-2,11.5-2.75,17.5c2.75-0.75,5.5-1,8.25-1.5c12-1.75,24.25-2.75,36.5-2.75c5.25-0.25,10.5,0,15.75,0.75
		c4,0.75,8,2,12,3.25c-3.25-4.75-6-8.75-6.75-10C121,208.25,115.25,198,110.5,187.5"/>
	<path fill="#44AB3C" d="M435.25,1c-0.5,1.75-0.75,3.25-0.75,4c-1-0.5-1.75-2.5-2.5-4c-5.75,0-5.75,0-5.75,0c-0.75,2.5,0,6-0.25,7.5
		c-1.75-1.25-4-5-6.25-7.5C415,1,415,1,415,1c-0.5,2.25-0.75,4-0.75,6.5c-1-2.5-4.25-7-8.25-6c-0.5,2.75-0.25,5.75,0,8.75
		C404,8.5,403,6,400,6c-0.75,3.5,0.5,6.5,2.5,9.5c-2.5-2-9-2.5-10.75,0.25s2,4.5,0.75,7.25c-4,0.25-7.75,0.5-11.75,1.25
		c0.75,2,2.5,4.25,4.25,6c-12.75-0.25,1,5.75,3.75,7.25c-0.75,0-1.25,0-2,0.25c1.75,3.75,7.75-0.25,11.25,0.75
		c-2.25,0.5-5.5,2-5.25,4.25c5.75,0.75,10.25-0.5,15.5-2.25c-1.75,1.75-4.5,4.5-3.25,6.75c5.25,1.25,8.25-3,12-5
		c0.25,1.25,0.75,2.75,1,4c1.75,0.5,3,0.25,3.75-0.5c1,1,2.75,2,4.5,1.5c2-0.25,3.25-2,3.5-3.5c0,1.25,0.25,2.5,0.25,3.5
		c8.25,0.5,7.75-4.75,10.75-8.75C440.5,42,440,49,447.5,46.25c5-1.75,5.75-8.75,6.5-12c0,2,4,10,8.5,7.5c3.25-1.75,0.25-9,0-11.25
		c4,3,9,4.25,14,2.25c1.25-3-2.75-5-2-7.75c1.75,1,3.5,1.5,5.5,1.5c0-10.25,0-10.25,0-10.25C479.75,16,479.75,16,479.5,16
		c0.25-0.25,0.25-0.25,0.5-0.25C480,1,480,1,480,1C435.25,1,435.25,1,435.25,1"/>
	<path fill="#44AB3C" d="M476,67c-0.25-2-0.25-4-0.25-6c0,3.5-6,7.75-10.5,7c-0.25-1.75,0-3.5-0.5-5c-4.5,2.5-9,5-15.25,4
		c-0.25-1-0.5-2.25-0.25-3.5C445,65,436,63.5,441,59.25c-5.25-0.75-34-4.5-31,4.25c1.5,0.25,2.75,0.75,4.25,1
		c-3.5-0.25-10,0.5-11.5,3.5c-1.75,4,4.25,4,9,3.75c-3.25,1.25-2.75,4.75,1,6.25c-2,2-3,4.25-1.75,6.25c3.5,6.25,11.5-3.5,15.5-4.5
		c-1,3.75-6,7.5-4.5,11.5c7.5,1,9.5-3.25,12.75-7c1,2.25-4.5,11.25,3.75,9.75c5.25-1,8-7.5,10.75-10.5
		c1.25,10.5,16.75,7.25,14.5-1.75c1.25,2.75,3,6.5,7.25,7c5.5,0.75,4.75-2.5,5-5.25c1.75,0.5,2.75,1.75,4,2.75c0-19,0-19,0-19
		C478.75,67.5,477.5,67.5,476,67"/>
	<path fill="#8A5A40" d="M90.25,151.25c-5.75-23,0.75-47.5-7-70c-8.25,6-6.75,15-7.25,22.75c-0.25,11,0,22,0.75,33
		c1.25,14.25,4,28.75,10.75,42.25c5.25,10.75,12.75,33.5,29.75,37c0.5,0,0.75,0,1.25,0c1.25-9-7-22-11.75-30.25
		C100.5,174.5,93.5,163.25,90.25,151.25"/>
	<path fill="#8A5A40" d="M97,213c-2.75-4-4.5-7.75-6.75-11.75c-3.75-7-7.5-13.25-10.5-20.5c-1.5-4-3.25-11.25-8-13.75
		c-2,9.75,4.25,21,8,30c4.25,10,8.5,19,8.5,29.5c13.25-4.5,13.25-4.5,13.25-4.5C99.5,221,98.5,215.25,97,213"/>
	<path fill="#8A5A40" d="M71,73.25C69.25,75,64.25,78,65.5,80.5c6.5-0.5,11-8,19-7c2.5-7.25,2.5-7.25,2.5-7.25c0,0.5,0,1,0,1.5
		c1.5-4.75,4.5-9.75,7.25-14c3.25-5.5,3.25-11,3.5-17c-6,7.5-9.5,16.25-15.25,24C79,65.25,75.5,69,71,73.25"/>
	<path fill="#1E582B" d="M39.25,29.75c1,1.25,2.5,2.75,4,3.5C42,31.75,40.75,30.75,39.25,29.75"/>
	<path fill="#1E582B" d="M6.25,76c5.5-0.25,3.5-6.75,4.25-9.5c2.75,2.75,6,2.75,10.25,2.25c0.5-2.25,0-4.5,0.5-7
		c3.5-0.25,9.25,2.25,13,0.75c5.25-2.25,1.5-6.25-2-8c4,0.25,7.75-0.25,10-2.75c3.5-4-0.75-4.5-5.25-5.25
		c3.75,0,7.75,0.25,11.5-0.25c0.5-4-1.75-9.25-5.25-13c-1.5-0.75-3-2.25-4-3.5c1.5,1,2.75,2,4,3.5c2,0.75,4.25,1.25,6.75,0.5
		C57,32,57,26,57,21.5c2.75,3,3.25,5.75,8.5,6c5.5,0.5,7.5-3,7.25-7c2.25,3,6,6,11,5c6.25-1,5.75-5.75,5.5-9.25
		c10.5,4.75,16-9.5,9.25-10.25h-0.25h0.25c4,0.25,7.75-2,10-5C0,1,0,1,0,1c0,72.5,0,72.5,0,72.5C2,75,4.25,76.25,6.25,76"/>
	<polyline fill="#1E582B" points="98.5,6 98.25,6 98.5,6 	"/>
	<path fill="#358437" d="M46.5,10.25c3.5,0.75,5.75-1,9.25-1.5c0.5,3.5-3,6.75-2.25,10.5c5.5,1,10.25-3.25,14-5
		c1,2.5-3.25,6.5-3.25,9.5c4.75,1.25,7.25-2,10.5-3.5c0.75,3-2,10.25,2.75,11C81.25,32,85,27,87,25.25c-0.25,2,1,7.25,3.5,8.75
		c6,3,3.5-3.75,6-5.25c3.5,3.5,4.75,13.25,13,12.25c0.5-2,0-4,0.5-6c3.75,2.75,8,6.5,14.25,6c5.5-0.5,6.75-5,2.25-7.75
		c4.5,3.25,11.75,4.75,18,4c0.75-4-0.75-6.5-4.25-9.5c3.5-0.25,9.25,2.25,12.5-0.25c3-2,1.5-6-1.75-7.25c2.75,0.25,7.75,0.75,10.5,0
		c3-1,5.5-5,1.5-5.25c4.75,0,9,0.5,12.75-2C180,10.25,183,5,177,3.5c2.5-0.25,5-1.25,7-2.5C51.75,1,51.75,1,51.75,1
		C48,3.75,45.25,7,46.5,10.25"/>
	<path fill="#44AB3C" d="M78.75,12.25c5.5,1.5,12.75-4.5,13-8.5c0,4-1.75,11,4.75,12.5c9.25,1.75,6.5-6,9.5-9
		c-3,3,8.25,20.25,13.75,4.75c0.75-2.25,16.25,12,15.5,0c2.5,1.5,5.75,3,9.25,2.25c5.25-1,3-3.5,4-7c3.25,0,7,1.5,10.25,1.5
		c0-0.75,0.5-1.75,0.5-2.5c4-0.5,7,0.5,10.75-1.75c1.25-1,2.5-2.25,3.25-3.5c-90,0-90,0-90,0C81.5,4,77.25,8.75,78.75,12.25"/>
	<path fill="#44AB3C" d="M62,7c8.25,1.25,14-4,20.75-6C64.5,1,64.5,1,64.5,1C62.25,2.5,61,4.5,62,7"/>
	<path fill="#47BB3A" d="M33.25,241.75c8,0,16-0.25,23.75,0.75c6.5,1,12.25,1.75,18.5,2.75c6,1,9.5,1.5,13.75-2
		c3-2.25,11-7.25,9.5-10.25c-4.25-1-6,3-9.75,2.5c1-2,3-3.5,4.25-5c2.25-3,2.75-5.5,2-8.75c-5.5-0.75-8.5,1.5-12.25,4.25
		c3.25-2.75,3.75-7,3-10.5c-7,2.25-8.25,6-12.5,10.25c0.75-1.75,5-12.25-0.25-12.25c-3.75,0.25-9.25,10.5-11.5,13
		c-0.5-2.75,1-6-1.5-8.25c-4.5,0.25-5,7.25-6.5,10c-0.5-2,1.25-9-1.75-10c-3-1.25-7.5,6.5-8.75,7.75c-0.75-2.75,1-6.25-1.5-8
		c-4,2-3.5,7-6.75,8.75c-0.75-6.5-6.25-13-8.75-2.5c-2-2-1-6.25-3.5-8.75c-4.75,0-3,4.5-3.5,6.75c-5.5-4.5-10.5-8-11.5,1
		c-3-1.25-4-4.25-7.75-5C0,221,0,221,0,221c0.75,1.75,2.5,3.5,2,5.5c-0.25-1-1-2.5-2-3.75C0,233,0,233,0,233c1.25,1.5,2.25,2.75,3,4
		c-0.25-0.25-0.5-0.25-1-0.5c-2,3.75-2,3.75-2,3.75c0,4.25,0,4.25,0,4.25C10,242,23,241.75,33.25,241.75"/>
	<path fill="#61C447" d="M23,249c12.25-0.75,24.5,0.75,36.75,1c5.25,0,11.5,1.25,15.25-2.5c4.5-4.5,4.25-13.5-5.5-8.5
		c-0.25-0.75-1.5-1.5-1.5-2.75c-0.5,0-1.25,0.25-2,0.5c-0.25-0.5-0.25-1-0.75-1.25c-1.5,0.5-3.5,0.25-5,0.75c-2.25-2.75,0-3.75-4-3
		c-1.75,0.25-4,2.5-5.25,3.25c1.75-1-8-7.25-8.75,0c0.75-5.25-7.75-2.75-8.5,1.25c0.75-3.25-1-6.5-5.75-5.75
		c-0.25,1.5-0.5,3.25-1.5,5c0.25-2.5-0.25-7.75-4.75-7.5c-4,0-4.75,5.25-5.5,7.5c-0.75-2.5-2.5-10-7.25-9.75
		c-5,0.5-4.25,7.5-4.25,9.75C4,236,2,233.5,0,231.5c0,18,0,18,0,18C8.75,250,18.25,249.25,23,249"/>
	<path fill="#F03B2B" d="M389.25,68c-19,7-4.75,30.75,16.75,24.5C428,86,415.75,58,389.25,68"/>
	<path fill="#F14A47" d="M387.5,77.25c-0.25,9,15.5,9.25,21.5,3.25C419.75,69.5,388,65.75,387.5,77.25"/>
	<path fill="#F03B2B" d="M217.5,266.25c-18.75,7-4.5,31,17,24.75C256.5,284.5,244.25,256.25,217.5,266.25"/>
	<path fill="#F14A47" d="M216,275.5c-0.25,9,15.5,9.25,21.25,3.5C248.25,267.75,216.5,264,216,275.5"/>
	<path fill="#F03B2B" d="M380.75,20.75c11.75-3.25,13.75-13,9-19.75C357,1,357,1,357,1C350,10.5,362.75,26,380.75,20.75"/>
	<path fill="#F14A47" d="M383.75,9c3.25-3.5,2.5-6.25,0-8c-19,0-19,0-19,0c-1.5,1-2.5,2.75-2.5,4.5C362,14.5,377.75,14.75,383.75,9"
		/>
	<path fill="#358437" d="M3,46.75c1.75,3,9.25,10.75,14.25,8c3.5-2,2.5-7.75,0-12c2.75,1.5,6.5,2.25,9.5,1.75c1-5-1.25-10-6.5-13.5
		c2.5,1.25,15.5,2.5,17.25,0.25c3-3.5-5.5-6.25-7.75-8c2.5-0.25,5.25,0,7.75-0.25c2-4.25-4.25-8-9.25-8.25C34.5,11.75,40,11,31.75,6
		c-5-3.25-4.25-4.25-2.75-5C0,1,0,1,0,1c0,57.75,0,57.75,0,57.75c1.5,1,3,1.75,4,2C5,56,2.5,51.25,3,46.75"/>
	<path fill="#918E7D" d="M72.5,237.75c-7,0-18.5-0.5-24,3.5c-12.25,9,35.75,27,46.25,10.25C101,241.75,82.25,237.75,72.5,237.75"/>
	<path fill="#A4A18F" d="M51.5,248c-18.25-5.25-28,10.75-4.25,12.75c0.5,0,1,0,1.25,0C64.75,261,66,252.25,51.5,248"/>
	<path fill="#A9A591" d="M66,240.25c-3,0.75-5.25,2.25-5.25,4c0,7,26.5,8.75,29.5,2C92.75,240.5,75.25,238,66,240.25"/>
	<path fill="#33B040" d="M53.75,311.25C56.5,320,56.5,320,56.5,320c9.5,0,18.5,1,24.5-5.25c5.75-6.25,9.75-14,19.25-17.25
		c-4.75-0.75-8.25-2-13.75-2C74.75,295.75,57,301.5,53.75,311.25"/>
	<path fill="#33B040" d="M32.25,320.75c8-0.75,12.75-8.75,13.5-14c-30.5-8.25-30.5-8.25-30.5-8.25c2-2.75-10.5-3.25-15.25-3.25
		c0,19.25,0,19.25,0,19.25c4.25,2.25,8.75,4,13.5,5.25C19,321.25,26.5,321.5,32.25,320.75"/>
	<path fill="#49BC3F" d="M37.25,249c-3.25,16-19.75,32.5-7,48.5c0.25,0,0.5,0.25,0.5,0.5c10,11.25,30.5,10.75,26.75-5.75
		C54.5,279,34.5,262,37.25,249"/>
	<path fill="#33B040" d="M65.75,245.5C54,254,44.25,266.75,39.5,276c-1,2-2,4.75-2.5,7.5c-0.75,4.5,0,9,4.25,11.75
		c9.75,6.75,16,3,20-3.75v-0.25c-1-8-2-16.25-1.5-24.25C60.25,259.75,62,252.25,65.75,245.5"/>
	<path fill="#51BF45" d="M49,280.5c-8.5,7.25-19.25,23.75-9,32.5c8,6.75,21.5,2.75,30.5-1c31.75-13.25,10.75-36.75,29.75-60
		C82.25,260.25,62.75,268.25,49,280.5"/>
	<path fill="#33B040" d="M19.5,308.25c0.75,1,1.75,2,3,2.75c7.5,4.75,20,3.75,26-3.25c5-5.75,0.75-13.75-3.5-19.25
		c-10.75-13.25-27.75-17.25-43.5-26c-0.5-0.25-1-0.5-1.5-0.75c0,4.75,0,4.75,0,4.75c3.5,4.25,6.25,9,8.75,13.5
		C13.75,289,12.75,300.25,19.5,308.25"/>
	<path fill="#49BC3F" d="M39.5,316.5c26,27,54.75-30.75,59.75-36.5c-11,3.75-21.5,11.25-31.5,17C60.5,301,32.25,309.25,39.5,316.5"
		/>
	<path fill="#51BF45" d="M40.25,320.5c15.75-5,1.25-16-7-20.75c-1.75-1-3.5-2-5.25-2.75c-9.25-4.25-18.25-5.75-28-7.75
		c0,7.25,0,7.25,0,7.25c3.25,5.5,5,11.75,10,16.25C15.5,317.5,32,323,40.25,320.5"/>
	<path fill="#5AC250" d="M33,304.25c-2,2-3.5,4.25-3.5,7.25c-1,15.25,22,10.5,31.5,4c4.25-3,7.25-7,9.25-11.25
		c1-2.5,1.75-13.5,5-14.75c-9.5,3.25-20.25,5.5-30,8.5C40.25,299.5,35.75,301.5,33,304.25"/>
	<path fill="#2B8139" d="M7,285.5c-0.5-0.75-2.25-0.5-1.75,0.25c7,13.25,15.25,25.75,18,40c0,0.75,1.75,0.5,1.75-0.5
		C22.25,311.25,14,298.5,7,285.5"/>
	<path fill="#2B8139" d="M21.5,259c11.75,19.25,14.25,41,16,61.75c0.25,0.75,2,1,1.75,0c-1.75-21-4.25-43-16.25-62.5
		C22.5,257.5,21,258.25,21.5,259"/>
	<path fill="#2B8139" d="M84.5,276.5c-10.75,14.25-10.75,31.75-12.75,47.75c0,0.75,1.75,0.75,1.75,0c2-15.75,2-33,12.5-47
		C86.5,276.5,85,275.75,84.5,276.5"/>
	<path fill="#BC2E27" d="M73.75,301c0-1.75,0.75-5.75-2.75-5.25c-2.5,0.5-3,7-4.25,8c-0.5-2.5-1.5-4.75-2.25-7.25
		c-4.5-0.75-4.75,8.25-5.25,10.5c0.5-4.25-2.25-10.75-8.75-9.75c-3.75,0.5,4.25,14.25,5.5,15.75c3,3.5,7.75,6.75,14,5.75
		c14.25-1.75,8-16.5,8-23.75C75.25,295.75,73.75,299,73.75,301"/>
	<path fill="#F03B2B" d="M92.25,263.75c-0.25,0.5-0.5,1-0.5,1.25C91.75,264.75,92,264.25,92.25,263.75"/>
	<path fill="#F03B2B" d="M98.5,267c0.75-2.25,2.5-4.5,3-6.75c-2.25-1.25-7.5,1.5-9.25,3.5c-0.25,0.5-0.5,1-0.5,1.25
		c0-0.25,0.25-0.75,0.5-1.25c0.5-1,1.25-2,1.5-3c0.5-1.25,0.25-2.75,1-4c-5.5-3.25-10,5-13,7c3-3.75,3.25-19.5-4.5-10.75
		c-7,7.75-9,23,3.75,28c12.25,5,23.75-5.25,27.5-13.25C111.5,261.25,102.25,264.5,98.5,267"/>
	<path fill="#F03B2B" d="M28,239.5c-3.5-2-5.5,4.5-6.25,6c-1-1.75-0.5-4.75-3-6c-2.5,1.5-0.75,4.75-2,6.5c-1.25-2-1-4.75-3.75-6
		c-4,2-1.75,6-0.75,9c-3-2-5.75-7.25-10.75-5.25C2.75,251,14,266,26,260.5C33,257.25,35,243.5,28,239.5"/>
	<path fill="#F03B2B" d="M10.75,292.75c5.5-2.25,6.25-7,5.5-11c-0.25-1.5-6.5-15.5-6.75-15.25c-2.5,1.25-2,5-2,7
		c-0.25-1.75-2.75-4-4.5-5c-2,2,0,5-0.25,7.5c-0.25-1.25-1.25-3.5-2.75-5c0,21.25,0,21.25,0,21.25C3.5,293.75,7,294,10.75,292.75"/>
	<path fill="#3EAD3D" d="M184,360c4.75-4-2.5-4-6.75-4c2-2.25,9.25-3.75,7.5-7.25c-2.25-0.25-4.5,0-7-0.25
		c2.5-2.25,11.25-4.25,8-8.5c-2.5-3-11-1.25-15-1.5c2.75-2.75,7.75-8.5,1.5-10.25c-5.75-1.75-11,4.25-15.75,4.75
		c2.25-2.25,12.75-9.5,8.5-12.75c-3.5-2.75-16.5,3.25-19.25,5.25c3-3.5,5.75-8,5-12.5c-5.75-0.75-8,1-11.75,3.75
		c2-2.5,6.75-9.75,2-12c-4.25-1.75-11.75,2.25-14.25,4.5c1-2,4-10.75-0.25-11.25c-2.75-0.5-6.75,5-8.75,8c1.25-3.75,0-11.75-5.75-8
		c-5.5,3.5-5.25,11.5-10.5,14.75c-0.75-3,1.5-10.5-4.75-8.5c-3.75,1-7.75,6.75-9,9.25c-1.25,2.25-1.5,4.5-2,6.75
		c-2.5-2-1.75-6.25-4-8.75c-4.75-5.25-5.25,3.25-6.25,5.75c-2-1.5-2.75-8.5-7.5-7.75c-4.5,0.5-2.25,7-3,9.25
		c-1.75-1.25-6.25-8-10.25-5.75c-2.5,1.25-1.25,7.75,1.5,8c-20.75,8.75-20.75,8.75-20.75,8.75c2.25,10.25,1.25,21,4.5,31.25
		c142.5,0,142.5,0,142.5,0C183,360.75,183.5,360.5,184,360"/>
	<path fill="#4CBD38" d="M94,331c0-0.5,0-0.75,0-1C94,330.25,94,330.5,94,331L94,331z M145.75,325.5c3-3.5,5.75-8,5-12.5
		c-5.75-0.75-8,1-11.75,3.75c2-2.5,6.75-9.75,2-12c-4.25-1.75-11.75,2.25-14.25,4.5c1-2,4-10.75-0.25-11.25c-2.75-0.5-6.75,5-8.75,8
		c1.25-3.75,0-11.75-5.75-8c-5.5,3.5-5.25,11.5-10.5,14.75c-0.75-3,1.5-10.5-4.75-8.5c-3.75,1-7.75,6.75-9,9.25
		c-1.25,2.25-1.5,4.5-2,6.75c-2.5-2-1.75-6.25-4-8.75c-4.75-5.25-5.25,3.25-6.25,5.75c-2-1.5-2.75-8.5-7.5-7.75
		c-4.5,0.5-2.25,7-3,9.25c-1.75-1.25-6.25-8-10.25-5.75c-2.5,1.25-1.25,7.75,1.5,8c-20.75,8.75-20.75,8.75-20.75,8.75
		c0.5,2,0.75,4.25,1,6.5c3-1.25,5.75-2.75,7-3.5c1.25,3.25-4.75,10-1.5,13.25c3.75,3.5,10.5-6.5,11.5-8.75c0,2.5-1.25,10.75,3,12
		c4,1,6-7.75,6-11c0.5,3,4.75,11.75,8,10.25c2.25-1,1.5-7.25,0.5-10.25c1.75,2.5,5.5,6.5,8.5,5.5c3.25-1,2.25-6.75,1.25-8.5
		c3,1.5,7,7.75,12.25,5.25c2.5-1.25,2.5-3.5,2-5.75c1.5,4,4.75,8.25,9.25,9.25c8.5,1.75,9.5-4.25,9.5-9c0.5,3.75,3.25,9.75,8.25,9.5
		c6-0.25,5.5-7.25,5.25-10.5c0.75,4.25,4.25,9.25,11,8c2.75-0.75,4.25-2.75,4.75-4.75c2.5,1.5,6.75,2,9.5,1.25
		c4.25-1.75,3.5-4,1.25-6c1.25,0,2.25,0,3.5-0.25c3.25-2.75,11.5-9,7.75-12C161.5,317.5,148.5,323.5,145.75,325.5"/>
	<path fill="#4CBD38" d="M166.25,329.75c0.75-0.5,1.75-1,2.25-1.5c-2.75,0.5-5.5,2.25-8,3.5C162.75,331,165,330.25,166.25,329.75"/>
	<path fill="#277B38" d="M82.5,357.25c-1-2.5-4.25-2.5-6.75-3.25c2.75-2.25,5.5-3.5,5-7c-0.75-4.25-5.5-2.75-9.75-3.5
		c2.25-0.75,7.75-3.25,5.5-6c-2.75-3-5.75,0.5-9,0c1.25-1.75,10.5-3.5,7.75-6.5c-2-2-9-0.5-11.25-0.25c2-1.75,7-4.25,5.25-7.25
		c-2-3-6-0.5-9-0.25c1.5-1.5,4.5-7,2-8.75c-3.5-2.25-7.75,3.75-10.25,4.25c1.25-1.5,5.25-8.75,1.75-10c-2.75-1-9.5,3.75-11.5,6
		c2-2.75,2-10.25-2-10.25c-3,0-7.25,3.5-10.25,6.75c0.75-1.25,1.25-2.75,1.25-4c0.25-1.75-0.25-8-3.5-8.25
		c-5.25-0.25-12.5,12.25-12.75,15.5c0-3,2.5-16.25-3.5-13.5c-2.25,1.25-4.5,6-5.5,7.75c-1,2.25-1,5-2.5,7C3,313.25,3,305.75,0,303
		c0,58,0,58,0,58c81,0,81,0,81,0C82.25,360,83,358.75,82.5,357.25"/>
	<path fill="#F3E5B1" d="M39.75,337.5c3-1.5,8.25-6,2.25-7c-4.25-0.75-11,2.25-12.5,5.25c-0.25-1.5-3.25-6.75-6.5-5.25
		c-1.5,1-1,3.75,0,5.25c-3.25-1.75-11-3.5-10.75,0.25c0.25,3.5,4.5,4.5,8.5,4.75c-4.75,0.25-13,3.5-7,7c2.5,1.5,7.25,0.5,10,0
		c0.25,0,0.5-0.25,0.75-0.25c-0.75,1.25-1.25,2.5-0.5,3.75c0.5,1.25,3.75,3.25,5.5,3.25c5.75-0.25,4.25-4,4.5-6.5
		c1.25,1.25,1.5,4,3.5,4.75c1.75,0.5,5.25-0.75,6.5-1.5c2-1.5,2.25-4,0.75-5.5c5,0.25,11.25-1.25,10-3.75
		C53,338.25,44.5,335.5,39.75,337.5"/>
	<path fill="#FCC917" d="M31,338c-4.75,0.5-5.25,2.5-3.75,4.25c2.25,2.5,8,4.25,11.75,0.5C43,338.75,34.5,337.75,31,338"/>
	<path fill="#F3E5B1" d="M142,306.75c0.25-2-0.5-3.5-0.5-5.5c-2.25-0.25-4.25,2.25-5,3.5c0-2.25-0.5-4.5-2-6.75
		c-3.5,0.25-3.5,5.5-3.5,7.25c-1-2-9-10-10-4.25c-0.25,1.75,3.75,6.5,7.5,8.75c-4,1.5-5,7.75,0,8.25c3,0.25,6.5-0.25,7.5-2.75
		c0.25,1.75-1.75,2.75-1.25,4.75c0.5,1.5,1.75,2.25,4.25,1.5c4.25-1,3.75-3.75,4.5-6.25c1,2.75,9,5.5,12.25,3.75
		c4.75-2.75-1.25-7.75-4.25-8.75c4.25,0,10.25-2.75,7.75-6.75C156.25,299,143.75,303,142,306.75"/>
	<path fill="#FCC917" d="M138.25,306.5c-4.75,0.25-5.25,2.5-3.75,4.25c2.25,2.5,8,4.25,11.75,0.5
		C150.25,307.25,141.75,306.25,138.25,306.5"/>
	<path fill="#F3E5B1" d="M148.5,333c-3.5,0.25-4.5,2.25-7.5,3.5c3.5-3,3.5-14.75-4.25-9c-2.5,2-2.25,5.5-2,8c-1-1.75-4.75-10-9-8.5
		c-3.25,1.25-0.5,7.25,1,8.75c-6.25-5.75-19,1.5-6.25,5.75c3.75,1,5.5,0,9,0.25c-3.25,1.5-10.75,7.75-2.5,7.25
		c2,0,3.75-0.5,5.25-1.25c0.5,1.25,1.5,2.25,2,2.75c1.75,2,5.75,4.75,9.25,3.5c4.25-1.75,0-4.5-0.25-7.25c2.75,1.5,9.5,7,12,2
		c2-4.5-4.25-7.5-8.5-8.75c6.75,2.25,13.25-2.25,11.75-5C157.75,333.5,154.75,332.5,148.5,333"/>
	<path fill="#FCC917" d="M136.5,334.5c-4.75,0.5-5.25,2.5-3.75,4.25c2.25,2.5,8,4.25,11.75,0.5
		C148.25,335.25,140,334.25,136.5,334.5"/>
	<path fill="#F3E5B1" d="M47.75,306.25c2.5-1.5,7.25-4.75,2-6.5c-4-1.25-10.25,1.25-10.5,4.5c-1.5-1.25-3.75-6.25-7.25-5
		c-3.5,1-0.25,5,1.5,6.5c-2-1.75-7.75-3-8.5-0.5s3.25,3.5,5.75,3.75c-1.25,0.75-4.5,0.75-6,2c-2.25,2,0,2.75,2.5,3.25
		c1,0,5,0,8-0.25c-1.25,3.75-1.25,7.75,3.5,6.5c2.75-0.5,3-3.25,3-5.25c0.25,2,3.5,2.75,5.75,1.75c2.5-1.25,3.5-4.5,1.25-5.75
		c3.5,0.75,9,0.5,8.5-2.5C56.5,304.75,51.25,306.5,47.75,306.25"/>
	<path fill="#FCC917" d="M34.75,306.5c-1.25,3.5,10.75,3.25,9.75-0.5C43.75,303.25,35.5,304,34.75,306.5"/>
	<path fill="#2B8139" d="M337.5,271.25c-0.25-0.75-2-0.5-1.75,0.5c5,16.25,12,32.5,21.75,47.75c0.5,0.75,2,0,1.5-0.75
		C349.5,303.5,342.25,287.75,337.5,271.25"/>
	<path fill="#2B8139" d="M386,273c-0.5-0.75-2.25-0.25-1.75,0.5c7,13,15.25,25.75,18,39.75c0.25,1,2,0.5,1.75-0.25
		C401.25,298.75,393,286.25,386,273"/>
	<path fill="#2B8139" d="M400.5,246.5c11.75,19.5,14.25,41,16.25,62c0,0.75,1.75,0.75,1.75,0c-2-21.25-4.5-43-16.5-62.5
		C401.5,245.25,400,245.75,400.5,246.5"/>
	<path fill="#2B8139" d="M463.5,264.25c-10.75,14-10.75,31.75-12.75,47.5c0,0.75,1.75,0.75,1.75,0c2-15.5,2-33,12.5-47
		C465.75,264,464,263.5,463.5,264.25"/>
	<path fill="#F9B025" d="M443.5,278c0-1.5,0.75-5.75-2.75-5c-2.5,0.5-3,7-4.25,8c-0.25-2.5-1.5-4.75-2.25-7.25
		c-4.5-0.75-4.75,8.25-5.25,10.5c0.5-4.25-2-10.75-8.75-10c-3.5,0.75,4.25,14.5,5.5,15.75c3,3.75,7.75,6.75,14,6
		c14.5-1.75,8.25-16.75,8-23.75C445.25,273,443.75,276,443.5,278"/>
	<path fill="#FBD221" d="M471.25,251.5c-0.25,0.25-0.25,0.75-0.5,1C470.75,252.25,471,252,471.25,251.5c0.75-1,1.25-2,1.5-3
		c0.5-1.5,0.25-2.75,1-4c-5.5-3.5-10,5-13,6.75c3-3.5,3.25-19.25-4.5-10.5c-7,7.5-9,23,3.75,28c7.5,2.75,14.75,0.25,20-4
		c0-11.5,0-11.5,0-11.5c-1,0.5-1.75,0.75-2.25,1.25c0.25-1.75,1.5-3.5,2.25-5c0-2,0-2,0-2C477.5,247,473,249.5,471.25,251.5"/>
	<path fill="#FBD221" d="M471.25,251.5c-0.25,0.5-0.5,0.75-0.5,1C471,252.25,471,251.75,471.25,251.5"/>
	<path fill="#FBD221" d="M407,227c-3.5-1.75-5.5,4.75-6,6.25c-1.25-2-0.75-4.75-3-6c-2.75,1.5-1,4.75-2.25,6.5c-1-2-0.75-5-3.5-6.25
		c-4.25,2-2,6.25-1,9c-3-2-5.75-7.25-10.5-5c1,7,12.25,22.25,24.25,16.75C412,245,414.25,231.25,407,227"/>
	<path fill="#FBD221" d="M388.5,254c-2.5,1.5-2,5-1.75,7c-0.5-1.5-3-4-4.75-4.75c-2,2,0,5,0,7.25c-0.5-1.75-3.5-7.75-6.75-6
		c-3,1.75-0.25,7.25,0.5,9.25c-3.75-1.75-4.25-7-8.75-8.25c-6.25-1.5-4.25,3.5-3.25,6.25c2.5,6.75,14.5,19.75,26,15.5
		c5.5-2,6.25-6.75,5.5-10.75C395,268,388.75,253.75,388.5,254"/>
	<path fill="#FBD221" d="M347,254c-2.75,0.75-3.75,4.5-4.25,6.5c0.25-1.75-1.5-4.5-2.75-5.75c-2.5,1.5-1.75,4.75-2.75,7
		c0.25-1.75-0.5-8.25-4.25-7c-3.5,1-3,6.75-3,9c-3-2.75-1.25-7.75-5.25-9.75c-5.5-2.75-5.5,2.25-5.5,5.25c0,7,6.75,22,19.5,20.25
		c5.75-0.75,8.5-5.25,9.25-9.25C348.25,268.75,347.5,253.75,347,254"/>
	<path fill="#FBD221" d="M314,314.75c-2.5,1.25-2,5-2,7c-0.25-1.75-2.75-4-4.5-5c-2,2,0,5.25-0.25,7.5c-0.25-1.75-3.25-8-6.5-6
		c-3,1.75-0.5,7.25,0.5,9.25c-3.75-2-4.25-7-8.75-8.25c-6.25-1.5-4.25,3.5-3.25,6c2.5,7,14.5,20,26,15.75c5.5-2,6.25-6.75,5.5-11
		C320.5,328.75,314.25,314.5,314,314.75"/>
	<path fill="#F3E5B1" d="M98.75,318.75c2.25-1,7.75-5.5,4-7c-1.75-0.75-5.75,0.75-7,1.5C94.25,314,93.5,315,92.5,316
		c-0.5,0.5-0.25,1-1.25,1.25c-0.75-3.25-3.75-5.75-8-5.5c-0.5,2.75,2.25,8,5.5,9.75c-3.5,0-9.25-2.5-12.75-1.75
		c-1.5,4,5.75,4.5,9.5,4.75c-3.25,0.25-9,3.25-4.5,4.5c3,1,8.75,1.75,12,0.5c0.5,1.75-1,1.75,0.25,2.5c1,0.75,1,1,2.5,0
		c0.5-0.25,1-1,1-1.75c2,0.75,7.5,5,9,2.25s-3.5-7-6-8.5c2.75,0.5,12.25,1.25,11.75-2C110.75,318,102.5,317.25,98.75,318.75"/>
	<path fill="#FCC917" d="M91.75,323.5c-1.25,3.25,10.75,3.25,9.75-0.5C100.75,320.25,92.5,321,91.75,323.5"/>
	<path fill="#277B38" d="M479.25,277c-5.25,0-5.5,7.25-10.5,8c-0.5-3.5-0.25-6.5-1.5-9.75C459.5,278,461.5,289,454.5,292
		c-0.5-2.75-1-14.25-7.5-12.5c-5.75,1.75-4,11-5,14.5c-3-1.75-5-9-9.25-9.75c-6.25-1.25-6.25,6.75-7.5,9.5
		c-2.75-2.25-4.75-4.25-9.25-3.25c-0.75,3.25-0.25,7-0.25,10.25c-3-3-5-4.75-10.5-4c-1.25,3.25,1.5,6.5,0.75,9.75
		c-4-0.5-2.25-4.5-5.75-5.5c-3.25-0.75-4.5,1.75-7,1.75c0-2.75-0.75-7-5-6.75s-5.5,4.75-8.25,6c-0.5-2.25,1.25-7-3.75-6.25
		c-2.75,0.5-4.5,6-7,7.25c0-3.25-2-6-2.75-9c-7.75,0.5-3.75,8.5-7.5,11.5c-2-2.5-3-9.5-8.25-6.25c-3.25,2-2.25,9.75-2,12.5
		c-0.75-3.75-7.5-10-13.25-8.75c-0.75,5.25-0.25,10.75,0,16c-1.75-3.25-5.5-10.5-12-8.75c-1,5.75,3,11,2.25,16.75
		c-3-3.25-8-8.25-14.25-6.75c-2,6.25,8.25,11,7.25,16.5c-5-3-12.25-4-12.5,2.25c-2.75-1.75-4.25-5.75-9-4.5c-0.5,3,0.25,6-0.5,8.75
		c-1.25-1.75-5.25-6.75-9.25-6c-0.5,3.25,2.25,6.5,0.75,9.5c-1.5-2.75-8.25-8-12.75-6.75c-1,4,2,8,4.5,11.25
		c-3.25-1.75-7.5-3-11.5-2.25c-1,3.5,3.5,8.25,8.75,12C480,361,480,361,480,361c0-78.5,0-78.5,0-78.5c-0.25,0.25-0.25,0.25-0.5,0.5
		C479.25,281,479.5,279,479.25,277"/>
	<path fill="#3EAD3D" d="M430,357.5c-2.75-0.25-6-0.25-9,0c2-1.25,4.75-1.75,5.5-3.75c-2.25-0.5-4.75,0-6.75,0.75
		c2.75-1.75,8.5-3.5,6.75-7c-0.75,0-1.5-0.25-2-0.25c2.75-1.5,5.25-4.5,4.25-7c-2.75-0.25-6-0.5-8.75,0.5c3.25-1.75,6-5.5,1.75-7
		c-3.25-1-8.5,1-11.75,1.5c2-1.75,7.25-5.5,4.5-8.25c-3-2.75-7.25-1-9.5,1.5c0.75-3,0.25-8-0.25-9.75c-5.5,1-6,5.5-7.75,8.5
		c-0.75-2.5,1.75-10-2.75-10.5c-5.5-0.75-5.5,6.5-7.25,8.75c0.5-2.75-1.25-10.5-5-9.75c-5.5,0.75-6,9.25-5.75,12.5
		c-3.75-2.5-4.75-11.5-10-7c-4.5,3.75-1.5,12.25-2.25,16.75c-4.75-1-11.25-10.25-14.25-6.75c-2,2.25,0.5,10.25,0,13.25
		c-4.5,0.75-8.25-4-12-5c-6.25-1.75-7.75,2-7,5.75c-0.75-2-2.5-5-6-4c-0.75,2-0.25,4,1.75,5.5c-3.25-1.5-6.5-6.5-11.5-4.75
		c-3,1-3.25,3.75-1.75,5.75c-3.75-1.5-8.5-2.5-10-0.5c-1.5,2.25,1.5,6.5,5,7.25c-3.75,0-7.25,1-11,1.25c-0.5,1.5,0.25,3.5,1.75,5.25
		c129.5,0,129.5,0,129.5,0C429.75,359.75,430.25,358.5,430,357.5"/>
	<path fill="#3EAD3D" d="M468.5,302.25c-1.75,2.5,0.75,7.5-0.25,10.5c-3.25-1-3-5.75-7.75-4.25c-0.5,2.75-0.25,5.75,1.75,8
		c-2-2.5-8.75-6.25-10.5-1.75c-1,2.25,3,5,2.25,7.75c-2-1.75-7.25-6.5-10.5-3.5c-2.5,2.5,3.25,7.5,5.5,9c-2.5-1.25-6.25-0.75-9-0.5
		c-1.25,4,9.25,7.25,8,10.5c-2.25,0.25-8-1-8,1.75c0,1.75,6.25,2.5,7.75,2.75c-2.5,0-5.25,0-7.75,0.25
		c-1.75,3.25,4.75,7.25,9.5,7.75c-2,0-4.25,0.25-6,1.25c3,2.5,7,6.75,12.75,6c-2.5,1.25-5.25,1-7.75,2c-0.25,0.5,0,0.75,0.25,1.25
		c31.25,0,31.25,0,31.25,0c0-62.75,0-62.75,0-62.75c-1.25,2-1.25,5-3,6.25C474.5,302.5,471.5,297.75,468.5,302.25"/>
	<path fill="#F3E5B1" d="M475,333c-3.25-1.5-6.25,3.5-6.5,5.25c-1.5-3-8.25-6.25-12.5-5.5c-6,1-0.75,5.5,2.5,7
		c-5-1.75-13.5,0.75-15.25,4.5c-1.25,2.75,5.25,4,10,4c-1.5,1.5-1.25,3.75,0.75,5.25c1.25,1,4.75,2.25,6.5,1.5
		c2-0.75,2.25-3.5,3.5-4.75c0.25,2.5-1.25,6.5,4.5,6.5c1.75,0,5-2,5.5-3.25c0.75-1.25,0.25-2.5-0.5-3.75c0.25,0.25,0.5,0.25,1,0.25
		c1.25,0.5,3.5,0.75,5.5,1c0-7.5,0-7.5,0-7.5c-1-0.25-2-0.25-2.75-0.25C478,343,479,343,480,342.75c0-6.5,0-6.5,0-6.5
		c-1.75,0.5-3.75,1.25-5,2C476,336.5,476.5,333.75,475,333"/>
	<path fill="#FCC917" d="M467,340.25c-3.5-0.25-11.75,1-8,5c3.75,3.75,9.5,1.75,11.75-0.5C472.25,342.75,471.75,340.75,467,340.25"
		/>
	<path fill="#F3E5B1" d="M377,303.25c-1-5.5-9,2.25-10,4.5c0-2,0-7.25-3.5-7.25c-1.5,2-2,4.25-2,6.75c-0.75-1.5-2.75-4-5-3.5
		c0,1.75-0.75,3.5-0.5,5.25c-1.75-3.5-14.25-7.75-17.25-3c-2.5,3.75,3.75,6.5,7.75,6.5c-3,1-9,6-4.25,8.75
		c3.5,2,11.5-0.75,12.25-3.5c0.75,2.25,0.25,5.25,4.5,6.25c2.5,0.5,3.75,0,4.25-1.75s-1.5-3-1.25-4.5c1,2.25,4.5,2.75,7.5,2.5
		c5-0.5,4-6.75,0-8C373.25,309.75,377.25,305,377,303.25"/>
	<path fill="#FCC917" d="M359.75,308.75c-3.5-0.25-11.75,1-8,4.75s9.5,2,11.75-0.25C365,311.25,364.5,309.25,359.75,308.75"/>
	<path fill="#F3E5B1" d="M371.25,338c1.5-1.5,4.25-7.25,1-8.5c-4.25-1.75-8,6.5-9,8.5c0.25-2.75,0.5-6.25-2-8.25
		c-7.75-5.75-7.75,6-4.25,9c-3-1.25-4-3.25-7.5-3.5c-6.25-0.5-9.25,0.5-10,2c-1.5,2.75,5,7.25,11.75,5c-4.25,1.5-10.5,4.25-8.5,8.75
		c2.5,5,9.25-0.25,12-1.75c-0.25,2.5-4.5,5.25-0.25,7c3.5,1.5,7.5-1.5,9.25-3.25c0.5-0.75,1.5-1.75,2-2.75
		c1.5,0.75,3.25,1,5.25,1.25c8.25,0.5,1-6-2.5-7.5c3.5-0.25,5.25,1,9-0.25C390.25,339.5,377.5,332.5,371.25,338"/>
	<path fill="#FCC917" d="M361.75,336.75c-3.75-0.25-12,1-8,5c3.5,3.75,9.25,1.75,11.5-0.5C366.75,339.25,366.5,337.25,361.75,336.75
		"/>
	<path fill="#F3E5B1" d="M463,309c2.5-0.25,6.25-1.25,5.75-3.75c-1-2.5-6.5-1.25-8.5,0.5c1.5-1.5,4.75-5.5,1.5-6.5
		c-3.75-1.25-5.75,3.75-7.5,5C454,301,448,298.5,444,299.75c-5.5,1.75-0.75,5,2,6.5c-3.5,0.25-9-1.5-9.75,2.5
		c-0.5,3,5.25,3.25,8.75,2.5c-2.25,1.25-1.25,4.5,1.25,5.75c2.25,1,5.25,0.25,5.75-1.75c0,2,0.25,4.75,2.75,5.25
		c4.75,1.25,4.75-2.75,3.5-6.5c3,0.25,7,0.25,8.25,0.25c2.5-0.5,4.5-1.25,2.25-3.25C467.25,309.75,464,309.75,463,309"/>
	<path fill="#FCC917" d="M449,306c-1,3.75,11,4,9.75,0.5C458,304,449.75,303.25,449,306"/>
	<path fill="#F3E5B1" d="M408.75,320.75C412,319,415,314,414.25,311c-4.25-0.25-7.25,2.25-7.75,5.5c-1.25-0.25-1-0.75-1.5-1.25
		c-1-1-1.5-2-3-2.75s-5.5-2.25-7.25-1.5c-3.5,1.5,2,6,4,7c-3.75-1.5-11.75-0.75-12.5,3.25c-0.75,3.5,8.75,2.5,11.75,2
		c-2.75,1.5-7.5,5.75-6.25,8.5c1.5,2.75,7.25-1.5,9-2c0.25,0.5,0.5,1.25,1.25,1.75c1.25,0.75,1.25,0.5,2.5-0.25
		c1-0.75-0.25-0.5,0.25-2.25c3,1,9,0.25,12-0.75c4.5-1.25-1.25-4.25-4.75-4.5c4-0.25,11-0.75,9.5-4.5
		C418,318.25,412.25,321,408.75,320.75"/>
	<path fill="#FCC917" d="M396.25,322.25c-1,3.75,10.75,4,9.75,0.5C405,320.25,397,319.5,396.25,322.25"/>
	<path fill="#F3E5B1" d="M466.25,283.25c3.25-1.75,6-7,5.5-9.75c-4.25-0.5-7.25,2.25-8,5.5c-1-0.25-0.75-0.75-1.25-1.25
		c-1-1.25-1.75-2-3.25-3c-1.25-0.5-5.25-2-7-1.25c-3.75,1.5,1.75,6,4,7c-3.75-1.5-12-0.75-12.75,3.25c-0.5,3.25,9,2.5,11.75,2
		c-2.5,1.5-7.5,5.75-6,8.5s7-1.5,9-2.25c0,0.75,0.5,1.5,1,1.75c1.5,1,1.5,0.75,2.5,0c1.25-0.75-0.25-0.75,0.25-2.5
		c3.25,1.25,9,0.5,12-0.5c4.5-1.25-1.25-4.25-4.5-4.5c3.75-0.25,11-0.75,9.5-4.75C475.5,280.75,469.75,283.25,466.25,283.25"/>
	<path fill="#FCC917" d="M453.5,284.75c-1,3.75,11,3.75,9.75,0.25C462.5,282.75,454.25,282,453.5,284.75"/>
	<path fill="#3EAD3D" d="M183.25,239.25c1,0,1.75,0,2.5,0C184.75,239.25,184,239.25,183.25,239.25"/>
	<path fill="#3EAD3D" d="M179.75,223c-0.25,0-0.75,0-1.25,0C179,223,179.5,223,179.75,223"/>
	<path fill="#3EAD3D" d="M255,241.25c1,0.25,1.75,0.5,2.75,0.75c0.5-0.25,0.75-0.5,1.25-0.75C257.75,240.75,256.5,240.75,255,241.25
		"/>
	<path fill="#3EAD3D" d="M267.75,217.75c4.25-0.75,10.75-3.25,5.75-7.25c-3.25-2.5-10-1.5-14-2c2.75-2.5,7.5-7,3.5-10
		c-4.25-3-12.75,1.5-16.5,3c1.5-1.75,2-7.5-0.75-9c-5.25-2.75-9.25,5.5-12.5,6c-2.5-2.25-1.25-8.75-7.5-8c-4,0.5-6,5.75-8.25,7.25
		c-0.75-2.5-2-7.25-6.25-7.25c-4.75,0-4.5,5.75-6,8c-1.75-2-4.5-5-8.25-4.25c-0.25,2.5-0.25,5.25,0,7.75c-1.25-2.5-8-5-10.75-2.5
		c-2,2,0.5,6.5,1.75,8c-3.25,0-5.75-2-10.25-1.5c-0.5,3.75,0.25,8,4.25,10.5c-1.75-1-8.75-1.75-10.25,0c-2,2.75,3.5,6,6.75,6.5
		c0.5,0,1,0,1.25,0c-0.25,0-0.75,0-1.25,0c-3,0-6-0.25-9,0c-2.5,4.75,7,6.5,11.5,7.25c-3,0-6.25-0.25-9.25,0
		c-1,3.5,6.25,8.25,11.5,9c0.75,0,1.5,0,2.5,0c-0.75,0-1.5,0-2.5,0c-2.25,0-4.25,0.5-6.5,1c-1.25,2.25,9.25,3.25,19.75,4
		c8.75,0.75,17.5,0.75,20,1c8.25,0.25,33.75,0,41.25-3.25c-1-0.25-1.75-0.5-2.75-0.75c1.5-0.5,2.75-0.5,4,0
		c-0.5,0.25-0.75,0.5-1.25,0.75c5.5,1,11.75-1.5,3.75-5c3.75,0.75,12.75,1.75,15.75-1.25c3.75-4.25-7.75-6.25-10.5-7.25
		c4-0.25,16,0,14-4.5C279,219.75,270,220.5,267.75,217.75"/>
	<path fill="#47BB3A" d="M259.5,208.5c2.75-2.5,7.5-7,3.5-10c-4.25-3-12.75,1.5-16.5,3c1.5-1.75,2-7.5-0.75-9
		c-5.25-2.75-9.25,5.5-12.5,6c-2.5-2.25-1.25-8.75-7.5-8c-4,0.5-6,5.75-8.25,7.25c-0.75-2.5-2-7.25-6.25-7.25c-4.75,0-4.5,5.75-6,8
		c-1.75-2-4.5-5-8.25-4.25c-0.25,2.5-0.25,5.25,0,7.75c-1.25-2.5-8-5-10.75-2.5c-2,2,0.5,6.5,1.75,8c-3.25,0-5.75-2-10.25-1.5
		c-0.25,3.25,0,6.5,2.25,9c1.75-0.25,3.5-0.25,5-0.25c-1.25,0.25-2.25,1-3.25,1.5c0,0.25,0.25,0.25,0.25,0.25h-0.25
		c-3.25,2.5-3.25,6.75,2.5,7.25c7.5,0.75,8.75-4.25,14-6.25c0.25,3,1.25,10.5,7.5,9c3.25-0.75,5.5-5.25,6-8c0,3.75,2.75,10,8.5,9.75
		c6.25-0.25,4.75-8,4.75-11.5c0.25,4.5,9.25,10,15.5,8.75c0.25-2.5,0.25-5.25,0-7.75c3,2,9.75,6.25,14.25,5c0.5-2.25,0.75-5.5-0.5-7
		c1.75,2,7,4.25,10.25,3.5c0.25-1.75,0-3.5,0.25-5.25c4.25-0.5,7.5-0.25,10.5-0.5c0-1-0.5-2-1.75-3
		C270.25,208,263.5,209,259.5,208.5"/>
	<path fill="#E0C274" d="M197.5,207.75c1.25-1,2.5-4.25,0-4.75c-2.75-0.75-5.25,3.5-5.5,4.75c-0.75-2-5-2.75-6-0.75
		c-1.25,2,2,3.25,3.75,4c-2.25,0.75-5.5,2-3.25,4.25c1.75,1.75,3.75,0.75,6,0c-0.25,1.5,1,3.25,2.75,3.75
		c4.25,1,3.75-1.25,4.25-3.25c4.75,2.75,7.75-4,1.5-5.75c2.25,0.25,7-0.25,5.25-2.5C204.75,205.5,199.75,207,197.5,207.75"/>
	<path fill="#E0C274" d="M246,220.25c1.25-0.75,2.5-4.25-0.25-4.75c-2.5-0.5-5.25,3.5-5.25,5c-0.75-2-5-3-6.25-1
		c-1,2.25,2.25,3.25,4,4c-2.25,1-5.5,2-3.5,4.25c2,1.75,4,0.75,6,0c0,1.75,1,3.25,3,3.75c4.25,1.25,3.75-1.25,4.25-3.25
		c4.75,2.75,7.5-4,1.5-5.75c2.25,0.25,6.75,0,5-2.5C253,218.25,248,219.5,246,220.25"/>
	<path fill="#E0C274" d="M232.75,194.25c3-0.5,3-0.5,3-0.5C235,194.25,233.75,194.25,232.75,194.25L232.75,194.25z M238.75,193
		c1-1.25,1.75-5-1.5-5c-3,0.25-3,3.5-4.25,4.5c0-1.5-1.75-6.5-4-3.25c-0.5,1-0.25,3,0.75,4.5c-1.5-0.25-3-0.25-4.25,0.5
		c-5,3.75,3.75,4,6.25,3.75c-1.75,0.75-1.25,3.25-1,4.5c3.5,1,6.25-2.75,6-4.75c0.75,1.75,6.75,2.75,8,0.5
		C246.5,195.25,242.25,192.75,238.75,193"/>
	<path fill="#918E7D" d="M106.25,243c-3.25-0.5-7.25-0.25-10,1.25c-2.25,1.25-3,4.25-1,6c2.25,1.75,7,1.75,9.75,1.5
		c1-0.25,2-0.25,3.25-0.5c3.25-0.75,6.75-2,7.25-4.5C115.75,244,108.75,243.25,106.25,243"/>
	<path fill="#918E7D" d="M138.5,239.5c-3.75-0.75-7.25-0.5-10.25,1.25c-2.25,1.5-6.5,4.5-3.25,6.5c2.75,1.75,8.5,2,12,1.5
		c3-0.5,7.5-0.5,9.5-2.75C149.5,242.25,141.75,240.25,138.5,239.5"/>
	<path fill="#918E7D" d="M191.25,233.5c-6.5-2.75-18-0.75-24.5,1c-5,1.5-12.25,4.5-13,9c-0.5,3,2,5.5,5,7.25
		c8.25,5.5,23.25,2,32-1.5C198.25,246.25,198.75,236.5,191.25,233.5"/>
	<path fill="#B9B297" d="M138,240.25c-3-1.25-7.25,0-9.5,1.75c-1,1-1.75,1.75-0.75,3c1.25,1.5,3.5,1,5.25,1.25c3,0.25,6,0.75,8.5-1
		C145.25,243.25,140.5,241.25,138,240.25"/>
	<path fill="#B9B297" d="M169.25,235.5c-3.5,1.5-10.75,5.25-9,8.75c1,2,5.75,3,8.25,3.25c4.75,0.25,9.5-0.75,13.5-2.25
		c3.5-1.5,9.5-4.5,8-8C187,229.75,175.5,233,169.25,235.5"/>
	<path fill="#A9A591" d="M105.5,242.75c-2.5-0.5-6.75,1-8,2.75c-1.25,2.25,2,2.75,4.25,2.75c2.5,0,5.75,0.5,7.75-0.75
		C112.25,245.75,108,243.25,105.5,242.75"/>
	<path fill="#918E7D" d="M227.25,239c-2.25-0.75-4.5-0.75-7-0.75c-3,0-6.25,0-9.25,0.25c-4.5,0.25-10.25,1.25-12.75,4.5
		c-8.5,10,40,18,37.25,1.5C235,241.25,230.5,240,227.25,239"/>
	<path fill="#A9A591" d="M225.25,242c-4.75-2.5-12.5-4.25-18.25-2.5c-3.5,1.25-4.5,3.5-2,5.75c2.25,2.25,8.25,2.75,12.5,2.75
		c0.75,0,1.75,0,2.5,0C225.5,248.25,233.75,246.25,225.25,242"/>
</g>
</svg>
