<?xml version="1.0" encoding="utf-8"?>
<!-- Generator: Adobe Illustrator 16.0.0, SVG Export Plug-In . SVG Version: 6.00 Build 0)  -->
<!DOCTYPE svg PUBLIC "-//W3C//DTD SVG 1.1//EN" "http://www.w3.org/Graphics/SVG/1.1/DTD/svg11.dtd">
<svg version="1.1" id="Layer_1" xmlns="http://www.w3.org/2000/svg" xmlns:xlink="http://www.w3.org/1999/xlink" x="0px" y="0px"
	 width="140px" height="99px" viewBox="0 0 140 99" enable-background="new 0 0 140 99" xml:space="preserve">
<g>
	<path fill="#94C85B" d="M13.3,94.3c0,0,9.5-62.8-8.3-82.5c0,0,19,13.3,19,58.8c0,0,3.8-31.5-4-61.3c0,0,14.5,20.3,11.5,63.8
		c0,0,1.3-56,7.5-70c0,0-5.8,57.5,3.3,73.8c0,0,5-36.5,3.8-59.3c0,0,10.8,32.3,4.5,58c0,0,14-39.8,2-72.5c0,0,19.3,32.8,14,74.5
		c0,0,9.8-67.5,27.5-69.5c0,0-15.3,17.8-9.5,68.3c0,0,13-24.5,9.5-45.8c0,0,5.5,16,0.5,48.3c0,0,16.5-62.5,43-48.3
		c0,0-26.5-6-31,63.8C13.3,94.3,13.3,94.3,13.3,94.3z"/>
	<path fill="#8BB751" d="M109.8,69L109.8,69c-11,20.3-96.5,25.3-96.5,25.3c93.3,0,93.3,0,93.3,0C107.3,84.3,108.3,76,109.8,69z"/>
</g>
</svg>
