<?xml version="1.0" encoding="utf-8"?>
<!-- Generator: Adobe Illustrator 16.0.0, SVG Export Plug-In . SVG Version: 6.00 Build 0)  -->
<!DOCTYPE svg PUBLIC "-//W3C//DTD SVG 1.1//EN" "http://www.w3.org/Graphics/SVG/1.1/DTD/svg11.dtd">
<svg version="1.1" id="Layer_1" xmlns="http://www.w3.org/2000/svg" xmlns:xlink="http://www.w3.org/1999/xlink" x="0px" y="0px"
	 width="337px" height="337px" viewBox="0 0 337 337" enable-background="new 0 0 337 337" xml:space="preserve">
<g>
	<path fill="#2E2D2D" d="M101,237.3c-0.5,1-9.3,7.8-12.8,10.8c-6.5,5.8-12.8,10-14.5,18.5c-0.5,2-0.5,4-0.3,6
		c0.8,5,2.8,10.5,2.3,14.5c-1.8,13.3-28,15.3-38.3,9.8c-8.5-4.3-8.3-14.5-5.8-24c1.3-5.5,3.5-10.5,5.5-14
		c5.5-10,12.3-17.5,21.5-24.8c5-3.8,18.8-17,23.8-16.3C101,237.3,101,237.3,101,237.3z"/>
	<path fill="#2E2D2D" d="M231.8,313.3c-4.5,5.5-13.3,5-19.5,4.3c-18.3-1.5-24.5-12-22.8-29c0.3-1.5,0.3-3,0.5-4.5
		c2.3-11.8,4.3-24,8-35.5c2.5-8,4.5-26.3,11-31c11-1.5,11-1.5,11-1.5c20.8-5.8,6.5,34,5.3,43c-0.8,7.8,3.5,18.8,6.8,29.3
		C234.8,298.3,236.5,307.5,231.8,313.3z"/>
	<path fill="#100F0D" d="M265.8,157.3c23-24.3,58-21,66.5,12.5c3.8,15-1.3,25.3-6.3,39.3c-5.3,14.5,0.8,26.8-1.8,40.8
		c-7,1.5-7.3-3.5-11.5-6.8c-2-1.8,0.5-3.5-3-4.8c-1.5-0.5-5,2.3-7,2c-11.3-2.3-9.5-14.5-8-24.5c-11,9-13.3-21.3-14.5-27.3
		c-2.3-11-5.5-23.3-18.5-25.5C265.8,157.3,265.8,157.3,265.8,157.3z"/>
	<path fill="#3C3B3E" d="M267.5,239.3c-27,44-104.5,44.8-147.3,27c-19.8-8.3-39-21-46.5-41.8c-1.3-4-2.3-8.5-2.5-13.3
		C70,195,74,176,79,163c40-118.3,40-118.3,40-118.3c-3.3,10,5.8,23.3,7.8,33c1.5,9.3,2,18.8,5.5,27.5c0.8,2.3,2,4.8,3.5,7
		c8,12.8,28,18.8,42,22.8c22.5,6.3,45.5-4,68,3.5c17.5,6,28.3,12.8,32.5,31.3C283,191.3,279.3,220,267.5,239.3z"/>
	<path fill="#100F0D" d="M75.8,287c-1.8,13.3-28,15.3-38.3,9.8c-8.5-4.3-8.3-14.5-5.8-24c6,4,17.3,5.3,22.3,5.5
		c5.8,0.3,13.3-3.8,19.5-5.8C74.3,277.5,76.3,283,75.8,287z"/>
	<path fill="#3C3B3E" d="M146.3,326.3c-3.8,6.3-12.8,6.8-19,7c-18.3,0.8-26-9-26.3-26c0-1.3,0-2.8,0-4.3c0.5-12.3,1-24.5,3-36.5
		c1.5-8.3,1.3-26.5,6.8-32.3c10.8-2.8,10.8-2.8,10.8-2.8c20-8.5,11,32.8,11,41.8c0,7.8,6,18.3,10.5,28.3
		C147,311,150,320,146.3,326.3z"/>
	<path fill="#100F0D" d="M146.3,326.3c-3.8,6.3-12.8,6.8-19,7c-18.3,0.8-26-9-26.3-26c10.3,6.5,30,0.5,42-5.8
		C147,311,150,320,146.3,326.3z"/>
	<path fill="#3C3B3E" d="M319,290c0.8,7.3-6,13-10.5,17c-14,12-26,9.3-36.8-4c-1-1-2-2.3-2.8-3.5c-7.3-9.8-14.3-19.8-20-30.5
		c-4-7.3-15.5-21.5-14.8-29.5c6.8-9,6.8-9,6.8-9c10.5-18.8,29,19,34.5,26.3c5,6,16,10.8,25.8,15.8C310.3,277.5,318.3,282.8,319,290z
		"/>
	<path fill="#100F0D" d="M319,290c0.8,7.3-6,13-10.5,17c-14,12-26,9.3-36.8-4c12-1.3,24-18,29.5-30.5
		C310.3,277.5,318.3,282.8,319,290z"/>
	<path fill="#100F0D" d="M231.8,313.3c-4.5,5.5-13.3,5-19.5,4.3c-18.3-1.5-24.5-12-22.8-29c9.5,7.8,29.8,4.5,42.5-0.3
		C234.8,298.3,236.5,307.5,231.8,313.3z"/>
	<path fill="#2E2D2D" d="M120.8,176.8c-10.5,16.5-26,30.3-46,34c-1.3,0.3-2.3,0.3-3.5,0.5C70,195,74,176,79,163
		c40-118.3,40-118.3,40-118.3c-3.3,10,5.8,23.3,7.8,33c1.5,9.3,2,18.8,5.5,27.5c0,0.3,0,0.8,0,1c0.3,8.3,1.5,16.5,2,24.5
		C135,147.5,129.5,162.8,120.8,176.8z"/>
	<path fill="#3C3B3E" d="M167.3,30.3c-3.5,5.8-4.5,12.5-7.3,18.5c-3.8,8.5-11,18.5-19,23.3c-2.5,1.5-6.3,3.8-9.5,4
		c-1.3,0-2.3-0.3-3.5-1c-2.8-2-5.8-8.3-7-11.3c-3.3-7.8-5.3-15.3,1.3-21.8c5-5,11.8-7.8,18-10c8.8-3.5,18-5.3,26.8-1.8
		C167,30.3,167,30.3,167.3,30.3z"/>
	<path fill="#252322" d="M167.3,30.3c-3.5,5.8-4.5,12.5-7.3,18.5c-3.8,8.5-11,18.5-19,23.3c-2.5,1.5-6.3,3.8-9.5,4
		c0.3-1.8,0.3-3.3,0.5-4.5c0.3-10.3,7.3-21,14.5-27.5c5.5-4.8,12.8-11.3,20.5-13.8C167,30.3,167,30.3,167.3,30.3z"/>
	<path fill="#3C3B3E" d="M7.5,5c1,6.3-0.8,13.3-0.5,19.8c0.3,9.3,3,21,8.5,28.5c2,2.5,4.3,6,7.3,7.5c1.3,0.5,2.5,0.8,3.8,0.5
		c3.3-0.8,8.5-5.5,10.8-7.8c6-6,10.8-12,7.3-20.8c-2.8-6.3-8-11.5-12.8-16C25,10,17.3,5,7.8,5H7.5z"/>
	<path fill="#252322" d="M7.5,5c1,6.3-0.8,13.3-0.5,19.8c0.3,9.3,3,21,8.5,28.5c2,2.5,4.3,6,7.3,7.5c0.5-1.5,1-3,1.5-4.3
		c3.5-9.8,1.3-22.3-3-31.3C18,18.8,14,10,7.8,5H7.5z"/>
	<path fill="#3C3B3E" d="M20.5,132.8c0.3-11-0.8-22-0.5-32.8c0.5-13,1.3-26,1.3-39c0-1.5,0.3-2.8,0.8-4c3-3.5,6.3-7,9.8-10.3
		c1.3-1.3,2.5-2.3,3.8-3.3C50.8,27.8,72.3,24.3,91.8,33c1.5,0.3,3,0.8,4.5,1.3c1.3,0.5,2.8,1,4.3,1.8s2.8,1.5,4,2.3s2.5,1.5,3.8,2.3
		c1.8,0.8,3.5,1.5,5,2.3c1.8,1,3.3,2,5,2.8c2,0,3.5,0.3,5.3,0.5c7.3,1.3,12,8,10.3,15.5c-2,7.8,0,15-0.8,22.8
		c-0.3,1.8-0.5,3.5-0.8,5.3c-0.5,5.3-1.3,10.5-2.3,16c-0.3,1.5-0.8,3.3-1.3,5c-4,17.3-7.3,41-16.5,56.5
		C20.5,132.8,20.5,132.8,20.5,132.8z"/>
	<path fill="#565759" d="M122.8,150c0.3-2.3,0-4.5-0.3-6.8c-4-25.8-39.8-37.5-65.3-33.8C31.5,113,10.8,122.8,14.5,148
		c3.3,21.8,29.5,31.5,51.3,35.5C90.8,187.8,121.3,174,122.8,150z"/>
	<path fill="#FFFFFF" d="M99.3,74.8c-8.5,7.8-4,22.3,5.5,27.3c11.3,5.8,24.5-7,22.5-18.3c-1.5-8.5-9-14.5-17.8-13.5
		C105,70.8,101.8,72.5,99.3,74.8z"/>
	<path fill="#100F0D" d="M114,95c8.5,2.5,15-7,9.5-14c-5-6-15.8-3-15.5,5C108,90.3,109.8,93.8,114,95z"/>
	<path fill="#FFFFFF" d="M119.3,89.5c1.8,2.3,5.8,0.8,5.5-2.3c-0.3-2.5-2.5-4.3-4.5-2.8C118.5,85.8,117.8,87.8,119.3,89.5z"/>
	<path fill="#FFFFFF" d="M31,66c-8.8,8-4.3,22.3,5.5,27.3C47.5,99,61,86.5,59,75c-1.8-8.5-9-14.5-17.8-13.3
		C36.8,62.3,33.3,63.8,31,66z"/>
	<path fill="#100F0D" d="M45.8,86.3c8.5,2.5,14.8-7,9.3-13.8c-4.8-6.3-15.5-3.3-15.3,5C39.8,81.5,41.5,85.3,45.8,86.3z"/>
	<path fill="#FFFFFF" d="M50.8,80.8c2,2.3,6,0.8,5.8-2.3c-0.3-2.5-2.8-4.3-4.8-2.8C50.3,77,49.5,79,50.8,80.8z"/>
	<path fill="#100F0D" d="M46,16.3c-3,1-16.5,6.5-11,11c2.8,2,7,1,9.8,2.5c-5,1.5-15.8,6.3-16,12.8c0,7.8,13.3,1.5,17,1
		c-4.5,5.3-12.3,12.5-0.3,13.8c6.3,0.8,12.8-1.8,18.3-4.5c4.5-2.3,8.8-7.3,13.5-8.5c0.3,7.8-6.8,20,6.3,21.8
		c8.8,1.3,13.3-7.3,16.8-13.8c3.8,5,7.8,14,15.5,13.3c6.5-0.5,6.3-8.5,6.5-13.3c1-19.5-15.8-31.5-32.5-36.8c-4.5-1.5-9.5-3-14-3.3
		C65.8,11.5,55.5,12.5,46,16.3z"/>
	<path fill="#252322" d="M88.5,149.5c4.3,2.5,11.8,4.5,16.3,1.5c6-4.5,3.5-10.5-2.3-13.8c-5.5-3-12.5-1-16,4.3
		C84,145.3,85.5,147.8,88.5,149.5z"/>
	<path fill="#252322" d="M31.3,149.5c4.5,2.5,12,4.5,16.5,1.5c6-4.5,3.5-10.5-2.5-13.8c-5.3-3-12.3-1-15.8,4.3
		C26.8,145.3,28.5,147.8,31.3,149.5z"/>
	<path fill="#100F0D" d="M131.3,77c9.8,6.5,9,5.5,11.8,17.8c2.5,11,6.8,15.5,15.8,22c9.3,7,18,14.3,17.5,26.8
		c-1.3,19.8-13,5-16.5-4.5c-2.5,22.8-21.8-13.5-23.5-19c-2.5-7.5-5.3-11.8-5.5-19.8C130.5,95,129.5,81.5,131.3,77L131.3,77z"/>
</g>
</svg>
