<?xml version="1.0" encoding="utf-8"?>
<!-- Generator: Adobe Illustrator 16.0.0, SVG Export Plug-In . SVG Version: 6.00 Build 0)  -->
<!DOCTYPE svg PUBLIC "-//W3C//DTD SVG 1.1//EN" "http://www.w3.org/Graphics/SVG/1.1/DTD/svg11.dtd">
<svg version="1.1" id="Layer_1" xmlns="http://www.w3.org/2000/svg" xmlns:xlink="http://www.w3.org/1999/xlink" x="0px" y="0px"
	 width="232px" height="330px" viewBox="0 0 232 330" enable-background="new 0 0 232 330" xml:space="preserve">
<g>
	<path fill="#F7B1C1" d="M79,104.8c1.5,25.5-5.7,51.8-20.7,72.6c-7.5,10.5-17,19.3-25.2,29.3c-4,4.8-8,10-11,15.5
		c-3.2,6-5.5,12.5-7.5,19c-4,14.5-6.2,29.8-13.7,43c-3.5,5.8,5,11.3,8.5,5.5c7.7-12,10.2-26.3,13.5-40c1.5-6.5,3.2-13,5.7-19
		c2.7-6,6.2-11.5,10.2-16.8c8-10.3,17.5-19.3,25.2-30c7.5-10.8,13.2-22.8,16.5-35.5c3.7-14.5,4.7-29.3,2.5-44
		C82.7,102,78.7,102.3,79,104.8L79,104.8z"/>
	<path fill="#F7B1C1" d="M94.7,127.3c0.7,6.5,2,13,2.5,19.5c0.5,6.3,0.5,12.5,0,18.5c-1.2,12.3-5,23.3-10.7,34.3
		c-6,10.8-13,20.8-18,32c-2.5,5.8-4.5,11.5-5.5,17.5c-1.2,6.3-1.5,12.8-1.5,19.3c-0.5,12-1.5,25.5-10.7,34.5
		c-4.5,4.5,2,11.5,6.5,7.3c9.5-8.3,12.5-21.5,13.2-33.5c0.2-6.5,0.2-13.3,0.7-20c0.5-6.3,1.7-12.3,4-18.3c4.2-11.8,11.5-22,17.2-33
		c6.2-11.5,10.5-23.5,11.5-36.5c0.7-7.3,0.2-14.5-0.7-21.8c-0.7-7-2.2-14.3-5-21C97.2,123.8,94.4,125.3,94.7,127.3L94.7,127.3z"/>
	<path fill="#F7B1C1" d="M124.4,146.1c-3.7,10.5-3,21.3-3,32.3c0,10.8-0.5,21.8-4.7,32c-4,10-8.7,19.5-11.2,30.3
		c-1.2,5.5-2,11.3-2,16.8s0.7,11.3,1.2,16.8c1.2,12.3,1,24.8-1.2,37c-0.5,2.5,0.5,5,3.2,6c2,0.5,5.5-0.8,5.7-3.3
		c2-11.3,2.7-22.5,2-34c-0.5-11-2.5-21.8-0.7-32.8c1.5-11,5.7-21.3,10.2-31.3c4.5-10,5.7-20.8,5.5-31.8c-0.3-6.3-1.5-12.3-2-18.3
		c-0.7-6.5-0.5-13,0.5-19.3C128.1,144.6,124.9,144.3,124.4,146.1L124.4,146.1z"/>
	<path fill="#F38397" d="M104.2,139.6c2,5.5,3.7,11,4.7,16.8c1,5.8,1,11.5,0.7,17.3c-1,12.3-5,24.5-10.2,35.8
		c-2.7,5.8-6,11.5-8.5,17.3c-2.7,6-4.2,12-4.2,18.5c0,6.3,0.7,12.5,1.2,18.5c0.2,6.8,0.5,13.5,0.2,20c0,13.5-0.7,27.8-8.7,39
		c-3.5,5,4.5,10.3,8,5.3c7.7-10.8,9.7-24.3,10.2-37c0.5-13.3-0.2-26.5-1.2-39.8c-0.5-6.3-0.5-12.3,1.7-18.5c2.2-6.3,5.7-12,8.2-18
		c5.2-12,9.2-24.5,10-37.5c0.7-13-2-27.8-9.5-38.5C106.2,137.3,103.7,137.8,104.2,139.6L104.2,139.6z"/>
	<path fill="#F38397" d="M90.7,110c1.2,12.8,2.5,25.5-0.7,38c-3,11.5-9.7,21.3-17,30.8c-7.2,9.3-15.2,18.3-21.5,28.8
		c-6.7,11.8-9.7,25-14.2,38c-5,14.5-11.5,28.8-19,42.3c-3,5,4.7,9.8,7.5,4.8c7-12.3,13-25.3,18-38.8c2.5-6.5,4.5-13.3,6.5-20
		c2-6.5,4-13,7.2-19c11.2-21.5,32.2-37.5,38.7-61.6c4-14.3,2.7-29.8-1.7-43.5C93.7,107.8,90.4,107.8,90.7,110L90.7,110z"/>
	<path fill="#EF6279" d="M219,155.6c-30.7,34-93.4,24-130.5,9c-34.7-14-95.6-42-84.6-89.6c3.7-16,11-29.3,20.5-40
		C54.7,0.4,109.7-8.6,153.6,8.2C197.3,25,229.5,66.2,232,114.3c0,0.3,0,0.5,0,1C232.5,129.8,228.7,144.8,219,155.6z"/>
	<path fill="#F38397" d="M232,114.3c0.2,4.2-7,4.5-10.5,6.3c-40.2,21.5-89.9,19.8-133,4.3c-20.5-7.3-40.7-18-53.9-35.3
		C22.8,74,17.8,52.7,24.3,35C54.7,0.4,109.7-8.6,153.6,8.2C197.3,25,229.5,66.2,232,114.3z"/>
	<path fill="#F7B1C1" d="M81.7,34.7c0-16-27.5-17.3-31.2-2.3c-1,4.3,1.2,8.5,4.2,11.5c4.5,4,11,6,16.7,4
		C77.2,46.2,81.7,40.7,81.7,34.7z"/>
	<path fill="#F7B1C1" d="M45.8,46.7c0-8-13.7-8.5-15.5-1c-0.5,2,0.5,4.3,2,5.8c2.2,2,5.5,3,8.5,2C43.5,52.5,45.8,49.7,45.8,46.7z"/>
	<path fill="#FFFFFF" d="M135.9,171.6c4.5-0.2,9-1.3,12.2-4c13.2-10.8,7.2-37.3-10.7-38c-10.5-0.5-19,5.8-22.7,15.5
		c-3.2,8,0,18.8,7.7,23.3C126.4,170.6,131.1,171.8,135.9,171.6z"/>
	<path fill="#1D1B19" d="M129.6,141.1c-3.4,2.2-5.7,6-5.7,10c0,4,2,8,5.2,10.3c6.2,4.5,17.2,5.8,21.7-1.5c3.5-5.5,2.2-14.3-2.7-18.3
		C142.8,137.1,135.1,137.6,129.6,141.1z"/>
	<path fill="#FFFFFF" d="M138.6,150.3c0.8,2,2.7,3.5,5,3.5c2.2,0,4.2-1.3,5.2-3.3s0.7-4.5-0.5-6.3
		C144.6,139.3,136.4,144.8,138.6,150.3z"/>
	<path fill="#FFFFFF" d="M75.2,152.8c4.5-0.2,9-1.3,12.2-4c13-10.8,7.2-37.3-11-38c-10.2-0.5-18.7,5.8-22.5,15.5
		c-3.2,8,0,18.8,7.7,23.3C65.5,151.8,70.5,153.1,75.2,152.8z"/>
	<path fill="#1D1B19" d="M69,122.3c-3.4,2.2-5.7,6-5.7,10c0,4,2,8,5.2,10.3c6,4.5,17.2,5.8,21.7-1.5c3.2-5.5,2.2-14.3-2.7-18.3
		C82.2,118.3,74.5,118.8,69,122.3z"/>
	<path fill="#FFFFFF" d="M77.7,131.6c0.8,2.1,3,3.5,5.2,3.5c2.2,0,4.2-1.3,5.2-3.3c1-2,0.7-4.5-0.5-6.3
		C83.9,120.5,75.5,126,77.7,131.6z"/>
</g>
</svg>
