<?xml version="1.0" encoding="utf-8"?>
<!-- Generator: Adobe Illustrator 16.0.0, SVG Export Plug-In . SVG Version: 6.00 Build 0)  -->
<!DOCTYPE svg PUBLIC "-//W3C//DTD SVG 1.1//EN" "http://www.w3.org/Graphics/SVG/1.1/DTD/svg11.dtd">
<svg version="1.1" id="Layer_1" xmlns="http://www.w3.org/2000/svg" xmlns:xlink="http://www.w3.org/1999/xlink" x="0px" y="0px"
	 width="480px" height="360px" viewBox="0 0 480 360" enable-background="new 0 0 480 360" xml:space="preserve">
<rect id="BACKGROUND_1_" fill="#B6DFE9" width="480.345" height="359.239"/>
<g id="OBJECTS_2_">
	<g>
		<g id="OBJECTS_1_">
			<g>
				<path fill="#75AC5C" d="M454.906,359.239H1.556V258.753C1.556,258.753,298.602,263.933,454.906,359.239z"/>
				<path fill="#5CC1CE" d="M0,199.436v6.883v1.372v5.008v0.087v11.272v5.489v6.308v0.008c90.17,6.063,192.4,27.015,236.496,36.765
					c0.436,0.093,0.865,0.187,1.287,0.287c0.686,0.158,1.357,0.31,2.018,0.453c1.012,0.223,1.985,0.438,2.921,0.652
					c0.051,0.016,0.102,0.022,0.153,0.037c0.839,0.187,1.646,0.374,2.421,0.546c0.718,0.165,1.409,0.324,2.069,0.475
					c0.108,0.021,0.211,0.05,0.32,0.072c0.454,0.107,0.89,0.2,1.313,0.301c0.013,0,0.031,0,0.045,0.007
					c0.294,0.065,0.582,0.13,0.871,0.202c0.02,0,0.038,0.007,0.063,0.014c0.275,0.058,0.545,0.123,0.808,0.187
					c0.025,0.008,0.051,0.008,0.076,0.015c0.404,0.102,0.782,0.188,1.153,0.273c0.166,0.036,0.333,0.071,0.493,0.107
					c0.128,0.029,0.256,0.065,0.377,0.093c0.212,0.044,0.417,0.094,0.615,0.146c0.115,0.021,0.23,0.05,0.34,0.078
					c0.563,0.129,1.082,0.252,1.55,0.359c0.142,0.036,0.275,0.064,0.403,0.101c0.66,0.15,1.211,0.28,1.646,0.388
					c0.089,0.022,0.173,0.043,0.256,0.058c0.353,0.086,0.608,0.151,0.769,0.188c0.064,0.014,0.115,0.027,0.153,0.035
					c0.039,0.007,0.058,0.015,0.058,0.015l130.142-34.66l-157.758-17.718l-111.785-12.551l-0.769-0.087l-50.385-5.661l-67.741-7.602
					L0,199.392V199.436z"/>
				<g>
					<path fill="#2BA1B2" d="M377.346,245.54l-89.927,24.378l-28.744,7.796c0,0-0.019-0.008-0.058-0.015
						c-0.038-0.008-0.089-0.021-0.153-0.035c-0.16-0.036-0.416-0.102-0.769-0.188c-0.083-0.015-0.167-0.035-0.256-0.058
						c-0.436-0.107-0.986-0.237-1.646-0.388c-0.128-0.036-0.262-0.064-0.403-0.101c-0.468-0.107-0.986-0.23-1.55-0.359
						c-0.109-0.028-0.225-0.058-0.34-0.078c-0.198-0.052-0.403-0.102-0.615-0.146c-0.121-0.027-0.249-0.063-0.377-0.093
						c-0.16-0.036-0.327-0.071-0.493-0.107c-0.371-0.094-0.756-0.18-1.153-0.273c-0.025-0.007-0.051-0.007-0.076-0.015
						c-0.263-0.063-0.532-0.129-0.808-0.187c-0.025-0.007-0.044-0.014-0.063-0.014c-0.289-0.072-0.577-0.137-0.871-0.202
						c-0.014-0.007-0.032-0.007-0.045-0.007c-0.423-0.101-0.858-0.193-1.313-0.301c-0.109-0.022-0.212-0.052-0.32-0.072
						c-0.66-0.15-1.352-0.31-2.069-0.475c-0.775-0.172-1.582-0.359-2.421-0.546c-0.052-0.015-0.103-0.021-0.153-0.037
						C201.732,264.744,89.632,240.921,0,235.854v-29.536l11.823,1.229l49.565,5.151l0.826,0.087l156.515,16.266L377.346,245.54z"/>
					<path fill="#45B6C6" d="M377.346,245.54l-89.927,24.378c-28.437-6.416-83.458-18.235-145.435-28.48
						C95.813,233.801,45.78,227.046,0,224.058v-17.739l11.823,1.229l49.565,5.151l0.826,0.087l156.515,16.266L377.346,245.54z"/>
					<path fill="#45B6C6" d="M478.433,212.701l-359.928-0.003l271.826,30.358c23.333-5.764,77.467-10.872,88.103-11.84V212.701z"/>
					<polygon fill="#5CC1CE" points="480.345,212.7 129.806,212.701 480.345,238.018 					"/>
				</g>
				<g>
					<path opacity="0.2" fill="#FFFFFF" d="M0.378,199.436H0V66.115c4.912-2.558,9.915,2.96,14.256,6.646
						C24.325,81.303,38.44,81.087,49.29,88.33c3.734,2.493,7.039,5.849,11.074,7.659c13.77,6.186,29.167-7.623,43.66-4.067
						c9.376,2.3,16.588,11.532,26.061,13.292c3.631,0.676,7.41,0.194,10.978,1.222c10.209,2.953,14.961,16.683,24.434,21.885
						c6.686,3.671,15.281,2.816,20.847,8.363c1.441,1.437,3.817,6.811,6.571,13.809c2.12,5.367,4.458,11.69,6.763,17.926
						c4.88,13.199,9.626,25.995,11.836,28.481C216.45,202.461,87.608,198.308,0.378,199.436z"/>
					<path opacity="0.2" fill="#FFFFFF" d="M480.345,53.956c-4.738,3.187-9.398,6.592-14.782,7.592
						c-3.649,0.678-7.443,0.196-11.025,1.229c-10.26,2.961-15.027,16.754-24.543,21.98c-6.721,3.691-15.353,2.826-20.945,8.404
						c-4.904,4.893-5.884,13.296-10.517,18.511c-4.988,5.615-13.011,6.154-19.916,4.469c-6.906-1.684-13.403-5.198-20.374-6.498
						c-8.935-1.667-18.396,0.523-26.013,6.021c-5.342,3.855-45.505,50.601-52.745,77.816c0,0,110.021-0.98,200.86-1.118V53.956z"/>
				</g>
				<g>
					<path fill="#FFFFFF" d="M231.738,206.218c0,0-8.686,0.021-22.922,0.086h-0.038c-31.19,0.115-88.992,0.359-140.658,0.733
						c-20.392,0.15-39.83,0.323-56.296,0.51C7.686,207.59,3.734,207.64,0,207.69V96.075c4.054-1.933,8.179,2.601,11.759,5.647
						c8.422,7.148,20.232,6.961,29.308,13.019c3.125,2.09,5.892,4.893,9.267,6.409c11.516,5.18,24.402-6.374,36.525-3.399
						c4.164,1.02,7.814,3.678,11.509,6.158c3.267,2.198,6.578,4.267,10.292,4.957c3.036,0.567,6.199,0.165,9.184,1.028
						c8.543,2.464,12.515,13.953,20.437,18.307c5.598,3.075,12.79,2.356,17.446,6.998c4.086,4.074,4.899,11.079,8.761,15.419
						c4.15,4.677,10.837,5.122,16.588,3.721c5.751-1.401,11.163-4.326,16.966-5.41c0,0,0.596-0.272,1.633-0.51
						c4.547-1.049,17.645-1.523,26.72,23.826l4.675,12.235L231.738,206.218z"/>
					<path fill="#FFFFFF" d="M282.91,204.735c65.812,0.893,131.623,1.787,197.435,2.681V107.407
						c-6.296,2.21-13.011,3.563-18.664,7.337c-3.123,2.085-5.89,4.892-9.263,6.408c-11.52,5.179-24.403-6.377-36.525-3.402
						c-7.844,1.926-13.882,9.649-21.803,11.119c-3.039,0.564-6.199,0.163-9.183,1.025c-8.544,2.466-12.517,13.954-20.44,18.306
						c-5.598,3.075-12.787,2.354-17.445,7c-4.085,4.074-4.9,11.074-8.759,15.417c-4.155,4.676-10.837,5.125-16.588,3.722
						c-5.752-1.402-11.163-4.329-16.97-5.412c-7.441-1.388-15.321,0.437-21.665,5.015c-4.448,3.21-8.572,7.884-13.858,8.121
						c-2.353,0.105-4.661-0.716-7.013-0.865c0,0-17.029-0.772-23.059,21.895L282.91,204.735z"/>
				</g>
				<g>
					<path fill="#90C57B" d="M461.534,359.239H0V236.021c68.414,5.726,165.149,17.409,259.034,41.111h0.006
						c0.57,0.144,1.146,0.287,1.717,0.438c4.035,1.02,8.063,2.069,12.085,3.14c0.039,0.007,0.077,0.021,0.122,0.028
						c2.505,0.668,5.008,1.344,7.5,2.026c11.01,3.024,21.937,6.215,32.746,9.584c0.077,0.021,0.154,0.051,0.231,0.072
						c3.977,1.243,7.941,2.515,11.881,3.808c0.063,0.015,0.121,0.036,0.179,0.058C375.777,312.79,422.889,333.432,461.534,359.239z"
						/>
					<path fill="#81BB6B" d="M454.906,359.239C287.669,255.239,0,258.738,0,258.738v59.871v32.454
						c0.244-0.072,0.48-0.145,0.724-0.209c34.399-10.059,71.604-15.706,109.55-18.185c106.304-6.94,218.512,10.985,291.666,26.569
						h52.134H454.906z"/>
					<path fill="#6D9957" d="M205.216,359.239H0v-40.63c0.244,0.008,0.48,0.008,0.724,0.015
						c35.533,0.689,72.686,5.956,109.55,14.046C142.573,339.754,174.647,349.009,205.216,359.239z"/>
					<path fill="#81BC69" d="M480.345,231.529v127.71h-22.34c-25.311-15.964-70.63-41.276-131.678-62.234
						c-0.058-0.021-0.115-0.043-0.179-0.058c-13.898-4.771-28.617-9.318-44.097-13.472c-0.724-0.193-1.524-0.402-2.369-0.61h-0.007
						c-1.78-0.445-3.792-0.927-5.886-1.408c-0.045-0.007-0.083-0.021-0.122-0.028c-5.123-1.187-10.721-2.415-14.583-3.335
						c0,0,0.263-0.086,0.775-0.244h0.006c0.243-0.078,0.538-0.172,0.891-0.279C276.884,272.44,404.488,230.474,480.345,231.529z"/>
					<path fill="#75AC5C" d="M480.345,271.837v87.402h-22.628c-27.199-16.948-77.047-44.438-143.449-66.1
						c-0.077-0.021-0.154-0.051-0.23-0.072c-11.01-3.585-22.469-7.013-34.354-10.202c0.256-0.029,0.513-0.064,0.781-0.101
						C312.775,278.727,408.856,267.928,480.345,271.837z"/>
				</g>
				<g>
					<path fill="#3F5753" d="M480.345,116.496l-46.217,38.863l-18.512-5.061c-4.251-1.165-8.748-0.06-12.176,2.988l-66.559,59.44
						l143.463-0.025V116.496z"/>
					<path fill="#4C6A63" d="M0,199.436v6.883v1.372v5.008h61.388h57.116h3.676h7.628h0.711h346.399l3.427,0.002l-24.606-5.612
						l-0.013-0.008h-0.039l-56.372-13.723l-1.832-0.697h-0.006h-0.021l-26.976-10.087l-5.034-1.883
						c-3.222-1.207-6.68-1.358-9.972-0.453l-47.222,13.012h-0.006h-0.02l-15.454,4.254l-44.953-6.912l-1.704-1.516l-40.279-35.795
						c-3.433-3.046-7.929-4.153-12.182-2.989l-0.743,0.201l-17.766,4.864l-47.227-38.639c-3.178-2.601-7.333-3.162-10.972-1.466
						l-18.58,8.658l-15.595,7.271l-33.26,21.418H30.396c-1.614,0-3.215,0.294-4.74,0.876L0,163.281v36.11V199.436z"/>
					<path opacity="0.14" fill="#232020" d="M480.345,212.7l-3.427,0.235l-77.604,6.408l-33.868,4.297
						c-3.222,0.409-6.68,0.461-9.972,0.152l-62.701-5.856l-44.953,2.349l-2.633,0.791h-0.007l-13.366,4.03h-0.006l-0.75,0.229
						l-12.329,3.715l-12.892,3.888c-3.433,1.034-7.929,1.407-12.182,1.013l-18.509-1.717l-33.163,9.203l-14.064,3.909
						c-3.178,0.883-7.333,1.069-10.972,0.495l-34.174-5.402l-33.26-7.265H30.396c-1.614,0-3.215-0.1-4.74-0.302L0,229.547v-16.762
						L480.345,212.7z"/>
				</g>
				<g>
					<g>
						<g opacity="0.23">
							<ellipse fill="#FFFFFF" cx="240.173" cy="74.173" rx="58.296" ry="65.396"/>
						</g>
						<g opacity="0.23">
							<ellipse fill="#FFFFFF" cx="240.173" cy="74.173" rx="48.273" ry="54.153"/>
						</g>
						<g opacity="0.23">
							<ellipse fill="#FFFFFF" cx="240.172" cy="74.173" rx="36.649" ry="41.113"/>
						</g>
						<g>
							<ellipse fill="#FFFFFF" cx="240.172" cy="74.173" rx="29.395" ry="32.976"/>
						</g>
					</g>
				</g>
				<g>
					<path fill="#FFFFFF" d="M0,58.497h121.611c0,0-7.223-3.347-19.388-5.571c0,0,3.802-18.429-5.702-20.134
						c-9.504-1.706-13.686,7.853-13.686,7.853s2.662-21.926-12.545-25.765c-15.206-3.838-23.949,25.765-23.949,25.765
						s-4.562-14.677-13.306-9.985c-5.059,2.714-7.442,8.374-8.555,12.665c-2.566-1.563-5.252-2.485-7.411-1.578
						c-4.479,1.884-5.658,7.786-5.97,10.771L0,55.793V58.497z"/>
					<path fill="#FFFFFF" d="M155.996,95.421c0,0,2.115-10.255-3.173-11.204c-5.288-0.949-7.615,4.37-7.615,4.37
						s1.481-12.201-6.981-14.337s-13.327,14.337-13.327,14.337s-2.538-8.167-7.403-5.557c-2.815,1.511-4.142,4.66-4.761,7.047
						c-1.429-0.87-2.923-1.382-4.124-0.877c-2.492,1.048-3.148,4.333-3.322,5.994l-11.274,3.327h72.77
						C166.784,98.521,162.765,96.658,155.996,95.421z"/>
					<path fill="#FFFFFF" d="M480.345,56.745l-16.507-4.871c-0.308-2.938-1.469-8.747-5.876-10.601
						c-2.125-0.894-4.769,0.013-7.294,1.552c-1.096-4.224-3.441-9.794-8.422-12.465c-8.604-4.617-13.095,9.828-13.095,9.828
						s-8.606-29.137-23.573-25.359S393.23,40.188,393.23,40.188s-4.115-9.408-13.47-7.729c-9.354,1.679-5.612,19.818-5.612,19.818
						c-11.974,2.189-19.083,5.483-19.083,5.483h125.279V56.745z"/>
					<path fill="#FFFFFF" d="M390.974,97.492c-1.451-0.61-3.258,0.009-4.983,1.061c-0.749-2.886-2.352-6.692-5.754-8.517
						c-5.88-3.154-8.947,6.715-8.947,6.715s-5.88-19.907-16.106-17.327c-10.225,2.581-8.436,17.327-8.436,17.327
						s-2.813-6.429-9.203-5.281c-6.392,1.147-3.835,13.54-3.835,13.54c-8.181,1.496-13.037,3.747-13.037,3.747h87.941l-13.624-4.021
						C394.778,102.728,393.985,98.759,390.974,97.492z"/>
				</g>
			</g>
		</g>
		<path fill="#63807A" d="M240.596,212.7l-66.562-36.296c-11.055-6.028-23.185-9.16-35.476-9.16h-39.04l-52.266-25.802
			c-4.257-3.784-9.832-5.151-15.108-3.708l-22.958,6.282L0,151.519V212.7H240.596z"/>
	</g>
	<g>
		<g>
			<g>
				<path fill="#FAFAFA" d="M29.094,275.05c-0.802,0.261-1.441,0.981-1.817,1.818c-0.377,0.836-0.518,1.781-0.577,2.715
					c-0.145,2.286,0.215,4.671,0.98,6.85c-0.213-0.311-0.429-0.614-0.632-0.902c-1.028-1.46-2.322-2.732-3.872-3.398
					c-0.913-0.394-2.003-0.547-2.825,0.048c-0.827,0.599-1.156,1.839-0.973,2.924c0.183,1.084,0.794,2.023,1.507,2.786
					c1.282,1.369,2.955,2.229,4.701,2.525c-1.389,0.451-2.75,1.001-3.95,1.891c-1.659,1.227-2.99,3.235-3.001,5.464
					s1.66,4.476,3.643,4.343c1.818-0.121,3.127-1.978,4-3.771c0.765-1.572,1.384-3.233,1.859-4.944c0.078,2.313,0.768,5,1.447,6.703
					c0.323,0.81,0.725,1.608,1.34,2.164s1.486,0.825,2.217,0.489c0.63-0.291,1.06-0.985,1.234-1.724s0.125-1.52,0.019-2.274
					c-0.25-1.79-0.82-3.519-1.646-5.073c-0.244-0.461-0.985-1.778-1.767-2.808c0.03,0.01,0.06,0.024,0.091,0.033
					c2.193,0.68,4.576,0.612,6.723-0.243c0.786-0.313,1.563-0.746,2.101-1.459c0.538-0.715,0.789-1.762,0.441-2.612
					c-0.295-0.72-0.966-1.179-1.659-1.335s-1.41-0.049-2.104,0.104c-2.246,0.494-4.4,1.482-6.323,2.875
					c0.838-1.13,1.605-2.179,2.194-3.629c0.806-1.984,1.18-4.271,0.634-6.363c-0.255-0.977-0.721-1.906-1.43-2.541
					C30.938,275.069,29.966,274.768,29.094,275.05z"/>
				<path fill="#F07F3C" d="M26.339,288.729c-1.584,2.712,2.311,5.228,3.895,2.516C31.817,288.532,27.922,286.017,26.339,288.729z"
					/>
			</g>
			<g>
				<path fill="#FAFAFA" d="M142.812,319.347c0.101-0.831-0.193-1.68-0.667-2.328c-0.474-0.648-1.113-1.121-1.773-1.514
					c-1.615-0.961-3.485-1.496-5.352-1.583c0.303-0.083,0.604-0.171,0.887-0.253c1.438-0.415,2.835-1.143,3.883-2.323
					c0.618-0.695,1.124-1.641,0.988-2.611c-0.136-0.976-0.922-1.729-1.78-1.953c-0.857-0.226-1.765-0.004-2.578,0.374
					c-1.465,0.681-2.698,1.904-3.547,3.4c0.174-1.438,0.266-2.887,0.053-4.312c-0.295-1.968-1.278-3.919-2.899-4.737
					c-1.622-0.818-3.868-0.098-4.49,1.771c-0.57,1.714,0.309,3.588,1.302,5.039c0.871,1.273,1.857,2.443,2.933,3.5
					c-1.715-0.767-3.926-1.107-5.415-1.101c-0.708,0.003-1.435,0.081-2.064,0.446c-0.628,0.363-1.142,1.063-1.161,1.857
					c-0.016,0.684,0.334,1.33,0.81,1.758c0.476,0.428,1.064,0.665,1.653,0.843c1.396,0.419,2.864,0.522,4.298,0.327
					c0.423-0.058,1.654-0.26,2.689-0.604c-0.019,0.024-0.039,0.047-0.057,0.071c-1.291,1.768-2.105,3.979-2.259,6.261
					c-0.057,0.835-0.023,1.705,0.303,2.459c0.326,0.753,0.999,1.362,1.745,1.351c0.632-0.01,1.21-0.459,1.575-1.039
					c0.365-0.579,0.547-1.276,0.688-1.969c0.453-2.241,0.514-4.578,0.194-6.848c0.52,1.18,1.007,2.264,1.852,3.33
					c1.155,1.459,2.688,2.632,4.414,2.889c0.805,0.119,1.652,0.029,2.372-0.393C142.129,321.033,142.702,320.25,142.812,319.347z"/>
				<path fill="#F07F3C" d="M133.831,311.858c-1.405-2.437-4.652,0.229-3.248,2.664
					C131.987,316.959,135.235,314.296,133.831,311.858z"/>
			</g>
			<g>
				<path fill="#E7E888" d="M95.193,262.239c-0.583-0.24-1.249-0.123-1.802,0.192c-0.553,0.314-1.008,0.812-1.41,1.343
					c-0.982,1.297-1.703,2.903-2.099,4.586c-0.006-0.291-0.016-0.58-0.025-0.853c-0.044-1.382-0.32-2.782-0.985-3.946
					c-0.393-0.687-0.987-1.315-1.712-1.365c-0.73-0.05-1.413,0.53-1.729,1.271s-0.318,1.604-0.189,2.412
					c0.23,1.454,0.896,2.794,1.825,3.834c-1.008-0.416-2.039-0.758-3.107-0.818c-1.475-0.083-3.06,0.464-3.94,1.793
					c-0.881,1.33-0.761,3.5,0.479,4.399c1.137,0.825,2.649,0.358,3.875-0.286c1.075-0.564,2.097-1.253,3.053-2.044
					c-0.86,1.424-1.5,3.374-1.761,4.729c-0.125,0.645-0.197,1.32-0.045,1.957c0.15,0.637,0.566,1.229,1.136,1.388
					c0.491,0.137,1.021-0.067,1.415-0.423c0.394-0.356,0.67-0.85,0.903-1.354c0.552-1.195,0.888-2.512,1.004-3.852
					c0.035-0.396,0.106-1.551,0.042-2.554c0.014,0.021,0.026,0.044,0.041,0.065c1.049,1.488,2.501,2.624,4.123,3.171
					c0.594,0.2,1.229,0.325,1.832,0.163c0.602-0.162,1.163-0.666,1.288-1.347c0.105-0.577-0.116-1.184-0.47-1.618
					c-0.354-0.436-0.825-0.726-1.3-0.977c-1.54-0.813-3.217-1.284-4.915-1.398c0.945-0.263,1.816-0.513,2.737-1.091
					c1.261-0.791,2.382-1.976,2.875-3.499c0.23-0.711,0.316-1.498,0.139-2.228C96.29,263.161,95.826,262.5,95.193,262.239z"/>
				<path fill="#F07F3C" d="M88.179,269.074c-2.013,0.842-0.666,4.271,1.346,3.43C91.537,271.66,90.189,268.231,88.179,269.074z"/>
			</g>
		</g>
		<g>
			<g>
				<path fill="#FAFAFA" d="M387.776,288.428c-0.208-0.486-0.633-0.823-1.092-0.982c-0.457-0.159-0.948-0.158-1.425-0.106
					c-1.169,0.125-2.339,0.582-3.365,1.275c0.137-0.165,0.27-0.331,0.395-0.486c0.64-0.794,1.158-1.737,1.348-2.785
					c0.11-0.618,0.084-1.325-0.295-1.79c-0.38-0.469-1.038-0.56-1.568-0.34s-0.946,0.698-1.263,1.224
					c-0.569,0.945-0.844,2.09-0.827,3.229c-0.36-0.84-0.768-1.652-1.331-2.33c-0.777-0.937-1.92-1.592-3.046-1.386
					c-1.126,0.205-2.101,1.481-1.845,2.729c0.234,1.145,1.297,1.799,2.285,2.182c0.868,0.336,1.765,0.571,2.675,0.71
					c-1.16,0.271-2.451,0.965-3.246,1.559c-0.378,0.282-0.743,0.613-0.965,1.059c-0.222,0.444-0.275,1.023-0.035,1.455
					c0.206,0.373,0.599,0.58,0.988,0.62c0.389,0.04,0.778-0.066,1.15-0.205c0.879-0.33,1.697-0.857,2.404-1.529
					c0.208-0.199,0.803-0.796,1.249-1.392c-0.003,0.021-0.008,0.04-0.01,0.061c-0.133,1.459,0.129,2.967,0.765,4.249
					c0.233,0.47,0.526,0.923,0.938,1.196c0.413,0.273,0.965,0.333,1.36,0.03c0.336-0.257,0.504-0.726,0.517-1.182
					c0.013-0.455-0.109-0.9-0.254-1.327c-0.463-1.378-1.167-2.653-2.054-3.742c0.65,0.425,1.253,0.812,2.041,1.048
					c1.079,0.323,2.269,0.342,3.274-0.205c0.468-0.255,0.893-0.64,1.146-1.151C387.942,289.602,388.002,288.954,387.776,288.428z"/>
				<path fill="#F07F3C" d="M380.607,287.982c-1.52-0.748-2.419,1.968-0.899,2.715C381.229,291.444,382.128,288.729,380.607,287.982
					z"/>
			</g>
			<g>
				<path fill="#FAFAFA" d="M435.162,255.307c0.424-0.505,1.063-0.733,1.68-0.729c0.617,0.004,1.219,0.219,1.786,0.489
					c1.389,0.664,2.665,1.733,3.686,3.032c-0.11-0.262-0.216-0.524-0.316-0.771c-0.509-1.251-0.818-2.635-0.688-4.002
					c0.078-0.807,0.356-1.662,0.981-2.067c0.63-0.409,1.468-0.234,2.043,0.267c0.574,0.501,0.917,1.268,1.124,2.052
					c0.372,1.406,0.312,2.931-0.103,4.319c0.732-0.873,1.513-1.691,2.438-2.277c1.278-0.81,2.905-1.115,4.216-0.373
					c1.311,0.743,2.064,2.733,1.318,4.151c-0.684,1.301-2.214,1.642-3.56,1.681c-1.18,0.033-2.361-0.069-3.525-0.296
					c1.33,0.838,2.672,2.252,3.441,3.327c0.366,0.512,0.699,1.076,0.817,1.719c0.118,0.641-0.017,1.374-0.46,1.8
					c-0.384,0.367-0.936,0.451-1.428,0.33c-0.49-0.12-0.933-0.42-1.339-0.752c-0.965-0.788-1.787-1.792-2.42-2.924
					c-0.188-0.336-0.71-1.327-1.05-2.251c-0.005,0.026-0.006,0.052-0.011,0.077c-0.342,1.848-1.185,3.584-2.409,4.879
					c-0.449,0.474-0.964,0.902-1.564,1.059c-0.6,0.156-1.299-0.012-1.68-0.556c-0.322-0.461-0.365-1.11-0.223-1.674
					c0.142-0.563,0.445-1.057,0.769-1.518c1.047-1.489,2.353-2.747,3.817-3.696c-0.945,0.239-1.818,0.451-2.867,0.396
					c-1.435-0.073-2.902-0.568-3.944-1.678c-0.486-0.517-0.875-1.175-1.008-1.911C434.553,256.673,434.703,255.854,435.162,255.307z
					"/>
				<path fill="#F07F3C" d="M444.111,257.884c2.123-0.254,2.285,3.468,0.163,3.722C442.15,261.86,441.987,258.139,444.111,257.884z"
					/>
			</g>
			<g>
				<path fill="#E7E888" d="M342.352,323.211c-0.49-0.19-1.044-0.08-1.502,0.193c-0.457,0.273-0.828,0.697-1.156,1.148
					c-0.801,1.102-1.378,2.457-1.684,3.87c-0.009-0.243-0.021-0.485-0.033-0.712c-0.058-1.153-0.31-2.317-0.884-3.276
					c-0.338-0.566-0.843-1.08-1.449-1.108c-0.61-0.027-1.172,0.471-1.425,1.095s-0.241,1.347-0.121,2.018
					c0.214,1.21,0.79,2.316,1.582,3.166c-0.85-0.327-1.714-0.593-2.606-0.623c-1.233-0.041-2.549,0.445-3.265,1.571
					c-0.715,1.128-0.581,2.938,0.468,3.664c0.961,0.668,2.217,0.25,3.23-0.312c0.889-0.492,1.731-1.087,2.519-1.766
					c-0.697,1.206-1.202,2.846-1.399,3.983c-0.095,0.539-0.145,1.105-0.009,1.635c0.136,0.528,0.492,1.015,0.97,1.137
					c0.412,0.104,0.851-0.076,1.176-0.38c0.323-0.306,0.546-0.723,0.733-1.147c0.443-1.009,0.703-2.115,0.779-3.235
					c0.022-0.331,0.065-1.296-0.004-2.133c0.013,0.018,0.022,0.036,0.036,0.053c0.897,1.224,2.128,2.145,3.49,2.57
					c0.498,0.156,1.03,0.248,1.532,0.101c0.5-0.146,0.961-0.578,1.054-1.148c0.08-0.484-0.114-0.985-0.416-1.344
					c-0.303-0.355-0.7-0.589-1.101-0.789c-1.298-0.648-2.707-1.011-4.126-1.074c0.785-0.237,1.509-0.463,2.27-0.963
					c1.04-0.684,1.958-1.695,2.348-2.976c0.181-0.599,0.241-1.258,0.083-1.864C343.282,323.959,342.884,323.416,342.352,323.211z"/>
				<path fill="#F07F3C" d="M336.599,329.05c-1.667,0.742-0.49,3.58,1.177,2.839C339.442,331.146,338.267,328.309,336.599,329.05z"
					/>
			</g>
			<g>
				<path fill="#E7E888" d="M435.147,308.029c0.607-0.542,1.438-0.696,2.207-0.566c0.766,0.131,1.48,0.521,2.144,0.974
					c1.62,1.107,3.037,2.697,4.096,4.52c-0.095-0.348-0.184-0.695-0.27-1.022c-0.432-1.659-0.594-3.444-0.21-5.119
					c0.227-0.987,0.711-1.996,1.555-2.374c0.85-0.38,1.864,0.008,2.498,0.747c0.634,0.74,0.938,1.766,1.068,2.78
					c0.235,1.827-0.086,3.712-0.825,5.354c1.052-0.936,2.155-1.796,3.402-2.337c1.722-0.748,3.794-0.797,5.306,0.393
					c1.511,1.19,2.127,3.819,0.97,5.434c-1.061,1.479-3.02,1.592-4.699,1.367c-1.474-0.198-2.929-0.565-4.34-1.084
					c1.52,1.312,2.962,3.346,3.746,4.84c0.373,0.709,0.695,1.48,0.739,2.303c0.043,0.823-0.242,1.707-0.864,2.146
					c-0.534,0.38-1.235,0.371-1.828,0.122c-0.592-0.25-1.092-0.713-1.545-1.209c-1.074-1.177-1.934-2.592-2.539-4.13
					c-0.179-0.456-0.669-1.796-0.943-3.014c-0.011,0.031-0.016,0.063-0.026,0.096c-0.723,2.229-2.051,4.217-3.785,5.58
					c-0.634,0.498-1.345,0.926-2.116,0.999c-0.771,0.072-1.613-0.279-2-1.032c-0.327-0.638-0.275-1.456-0.008-2.128
					s0.726-1.225,1.202-1.731c1.543-1.642,3.37-2.94,5.346-3.823c-1.214,0.104-2.335,0.19-3.632-0.09
					c-1.773-0.384-3.519-1.298-4.637-2.889c-0.522-0.743-0.898-1.639-0.945-2.583C434.168,309.606,434.487,308.617,435.147,308.029z
					"/>
				<path fill="#F07F3C" d="M445.865,313.055c2.684,0.113,2.284,4.777-0.398,4.663C442.783,317.603,443.183,312.938,445.865,313.055
					z"/>
			</g>
		</g>
	</g>
</g>
</svg>
