<?xml version="1.0" encoding="utf-8"?>
<!-- Generator: Adobe Illustrator 16.0.0, SVG Export Plug-In . SVG Version: 6.00 Build 0)  -->
<!DOCTYPE svg PUBLIC "-//W3C//DTD SVG 1.1//EN" "http://www.w3.org/Graphics/SVG/1.1/DTD/svg11.dtd">
<svg version="1.1" id="Layer_1" xmlns="http://www.w3.org/2000/svg" xmlns:xlink="http://www.w3.org/1999/xlink" x="0px" y="0px"
	 width="115px" height="137px" viewBox="0 0 115 137" enable-background="new 0 0 115 137" xml:space="preserve">
<g>
	<path fill="#FCE397" d="M66.6,53.1c0,2.5,0,5-0.3,7.5c-1.3,9.8-3.8,19.3-4.3,21.5c-0.5,1.5-0.8,2.8-1,4.3c-1.5,7.8-1.5,16-1.5,24
		c0,1,0,2.3,0,3.5c0,5.3,1.3,12.5-4.2,16.5c-0.5,0.3-1,0.5-1.3,0.8c-3.8,1.8-8.3,2.5-12.5,2.8s-8.5,0-12.3-1.8
		c-5.3-2.5-7.5-4.5-7.5-9.5c0-13,4.3-25.5,12-36.8c5.3-7.5,11.5-14.5,15.3-22.8c1.5-2.8,2.5-6,3-9c0-1.3,0.3-2.8,0-4.3
		c0-0.8-0.3-1.5-0.5-2.5c-0.5-1-1-2-1.5-3c-1.3-2.8-2-5.5,2-7c8-3.5,12-0.3,13.7,6c0.3,1,0.5,2,0.5,3C66.6,48.3,66.8,50.6,66.6,53.1
		z"/>
	<path fill="#F5CC67" d="M66.6,53.1c-4.8,0.3-9.7,0.8-14.5,1c0-1.3,0.3-2.8,0-4.3c-0.3-4.5-6.5-9.8,0-12.5
		C63.8,32.3,66.8,41.6,66.6,53.1z"/>
	<path fill="#AD4E1E" d="M98.6,44.1c-8,0.5-16,1.3-24,1.8c-12.3,0.8-24.5,1.8-36.7,2.5c-8.3,0.8-19.8,2.5-28,0
		c-9.3-2.8-7.5-10.5-4-16.3c4.5-7.3,10.5-14,18.3-19.3c4.3-3,9-5.3,14.5-6.8c6-1.8,12.5-3,18.8-3c5.7-0.3,11.5,0.3,17,1.8
		c6.3,1.5,12,4,17.3,7.3c4.8,3,9.5,6.5,13.8,10.3c2.8,2.5,5.5,5.3,6.8,8.8C114.3,38.8,106.8,43.6,98.6,44.1z"/>
	<path fill="#F4DB70" d="M98.6,40.8c-8,0.8-16,1.3-24,1.8c-12.3,1-24.5,1.8-36.7,2.8c-8.3,0.5-19.8,2.3-28-0.3
		c-4.3-1.3-6.3-3.5-6.8-6.3c-0.5,4,1,7.8,6.8,9.5c8.3,2.5,19.8,0.8,28,0c12.3-0.8,24.5-1.8,36.7-2.5c8-0.5,16-1.3,24-1.8
		c7.8-0.5,15-4.8,13.8-11.8C111.3,37.3,105.1,40.3,98.6,40.8z"/>
	<path fill="#703318" d="M74.3,4.8c-6.5,3.8-16.2,6.8-27.5,8c-8.3,1-16.3,1-22.8,0c4.3-3,9-5.3,14.5-6.8c6-1.8,12.5-3,18.8-3
		C63.1,2.8,68.8,3.3,74.3,4.8z"/>
	<path fill="#F5CC67" d="M59.6,113.8c0,5.3,1.3,12.5-4.2,16.5c-0.5,0.3-1,0.5-1.3,0.8c-0.3-0.5-0.3-1-0.3-1.3
		c0.3-6.8,2-13.5,5.7-19.5C59.6,111.3,59.6,112.6,59.6,113.8z"/>
	<path fill="#F5CC67" d="M66.3,60.6c-1.3,9.8-3.8,19.3-4.3,21.5c-0.5,1.5-0.8,2.8-1,4.3c-1.5,0-2.7,0.3-4.2,0.3
		c-3.5,0.3-7,0.3-10-0.5l0,0c-0.3,0-0.3-0.3-0.5-0.3h-0.3c0,0-0.3,0-0.3-0.3h-0.3c0,0-0.3,0-0.3-0.3c-0.3,0-0.3,0-0.3,0l-0.3-0.3
		c-0.3,0-0.3,0-0.3,0s0-0.3-0.3-0.3l0,0c-0.3-0.3-0.3-0.3-0.3-0.3c0-0.3,0-0.3,0-0.3c-0.3,0-0.3,0-0.3-0.3c-0.3,0-0.3,0-0.3,0
		s0-0.3-0.3-0.3l0,0c0-0.3,0-0.3,0-0.5l0,0c-0.3,0-0.3-0.3-0.3-0.3l0,0c0-0.3-0.3-0.8-0.3-1l0,0v-0.3l0,0c0-0.3,0-0.3,0-0.5l0,0
		c0-0.3,0-0.5,0-0.8s0-0.3,0-0.3c0.3-1.3,1-2.8,1.8-3.8c2.5-4.3,6-8.5,10.5-11.5c2.8-1.8,5.5-3,8.7-4C64.6,60.8,65.3,60.8,66.3,60.6
		z"/>
	<path fill="#FCE397" d="M83.1,86.3c-0.3,7-2.5,15.5-2.8,17c-1.8,6-1.5,12.5-1.5,18.8c0,3.3,0.8,7.5-2.5,9.8c-2.3,1.5-5.3,2-8.3,2
		c-2.5,0.3-5,0-7-1c-3.2-1.5-4.5-2.8-4.5-5.8c0-7.5,2.5-15,7-21.5c3-4.5,6.8-8.5,9-13.3c0.8-1.8,1.5-3.5,1.8-5.5c0-0.8,0-1.5,0-2.5
		c-0.3-2.8-4-5.8,0-7.5C81.3,74.1,83.1,79.6,83.1,86.3z"/>
	<path fill="#F5CC67" d="M83.1,86.3c-3,0.3-6,0.3-8.8,0.5c0-0.8,0-1.5,0-2.5c-0.3-2.8-4-5.8,0-7.5C81.3,74.1,83.1,79.6,83.1,86.3z"
		/>
	<path fill="#AD4E1E" d="M101.8,81.1c-4.8,0.3-9.5,0.5-14.3,1c-7.3,0.5-14.3,1-21.5,1.5c-5,0.3-11.7,1.3-16.5,0
		c-5.5-1.8-4.5-6.3-2.5-9.8c2.5-4.3,6.3-8.3,10.8-11.3c2.5-1.8,5.5-3,8.5-4c3.5-1,7.3-1.8,11.3-1.8c3.3-0.3,6.8,0.3,10,1
		c3.5,1,7,2.3,10,4.3c3,1.8,5.8,4,8.3,6c1.5,1.5,3.3,3.3,3.8,5.3C111.1,77.8,106.6,80.6,101.8,81.1z"/>
	<path fill="#F4DB70" d="M101.8,79.1c-4.8,0.3-9.5,0.8-14.3,1c-7.3,0.5-14.3,1-21.5,1.5c-5,0.5-11.7,1.5-16.5,0
		c-2.8-0.8-3.8-2-4-3.8c-0.5,2.5,0.5,4.8,4,5.8c4.8,1.3,11.5,0.3,16.5,0c7.3-0.5,14.3-1,21.5-1.5c4.8-0.5,9.5-0.8,14.3-1
		c4.5-0.5,8.8-3,8-7C109.3,77.1,105.6,78.8,101.8,79.1z"/>
	<path fill="#703318" d="M87.6,57.8c-4,2.3-9.8,4-16.3,4.8c-5,0.5-9.8,0.5-13.5,0c2.5-1.8,5.5-3,8.5-4c3.5-1,7.3-1.8,11.3-1.8
		C80.8,56.6,84.3,57.1,87.6,57.8z"/>
</g>
</svg>
