<?xml version="1.0" encoding="utf-8"?>
<!-- Generator: Adobe Illustrator 16.0.0, SVG Export Plug-In . SVG Version: 6.00 Build 0)  -->
<!DOCTYPE svg PUBLIC "-//W3C//DTD SVG 1.1//EN" "http://www.w3.org/Graphics/SVG/1.1/DTD/svg11.dtd">
<svg version="1.1" id="Layer_1" xmlns="http://www.w3.org/2000/svg" xmlns:xlink="http://www.w3.org/1999/xlink" x="0px" y="0px"
	 width="93px" height="143px" viewBox="0 0 93 143" enable-background="new 0 0 93 143" xml:space="preserve">
<g>
	<path fill="#F2576E" d="M32.8,15.4c-0.5,3.8-2,7.3-3.3,11c-1,3.8-2,7.5-3,11.5c-1,3.8-1.5,7.5-1.8,11.3c0,0.5,0.3,5,0,5
		c0,0-2.5,1.5-5,3c-2.5,1.3-5,2.5-5.5,2.3c-0.8-0.3-1.5-8-0.3-15c0.5-4,1.8-7.8,2.8-11.5c1.3-3.8,2.3-7,2.5-10.8
		c0-1,0.3-1.8,0.3-2.5c-0.8-0.3-1.8-1-2.5-1.5c-0.3-0.3-0.5-0.5-0.8-1c-0.5-0.8-0.5-2-0.5-2.8c-0.3-1.3-0.3-2.5,0-3.5
		c0.5-1.8,1.3-3.8,2.8-5.3c3-2.5,8-3.3,11.3-0.8c2.3,2,3.5,5.3,3.3,8.3C33,13.9,33,14.6,32.8,15.4z"/>
	<path fill="#E79020" d="M24.5,15.4c0,0-18.3,4.3-19.3,2.8c-0.8-1.5,11.3-4.3,11.3-4.5C24.5,15.4,24.5,15.4,24.5,15.4z"/>
	<path fill="#F7C020" d="M18.5,12.9c0-0.5-0.3-4.5-1.5-4.3c-1,0-2,2.5-3,3.5s-9.5,1-9.8,1.8c-0.5,1-0.8,1.5,5,2
		c6.3,0.8,14.8,0.8,15.3-0.5C24.3,14.1,18.5,12.9,18.5,12.9z"/>
	<path fill="#CD741C" d="M26.8,13.4c-2.3,3.3-7.8,2.5-11,2.5c-2,0-4,0-6-0.3c-1,0-2,0-2.8-0.3c-1.3,0-1.8-0.5-2.8-1
		C4,14.1,4,14.1,4,14.1c0,0.3,0,0.3,0,0.5c0.5,0.8,1.3,1,2,1.3c1,0.3,2,0.5,3,0.5c2.5,0.3,4.8,0.3,7,0.3c3.5,0,9.3,0.5,11-3.3
		C27.3,13.1,27,13.1,26.8,13.4z"/>
	<path fill="#CD741C" d="M14,12.9c0,0-5,0.8-4.5,1.3c0.3,0.5,6.5,0.5,6.5,0s-2-0.5-2-0.5S14.8,12.9,14,12.9z"/>
	<path fill="#D34A63" d="M29,22.4c0.3,0.8-2.5,4.8-4,5s-4.3-1-4.3-1S15,43.6,18,52.1c0.8,2,1.3,3.8,1.8,5c-2.5,1.3-5,2.5-5.5,2.3
		c-0.8-0.3-1.5-8-0.3-15c0.5-4,1.8-7.8,2.8-11.5c1.3-3.8,2.3-7,2.5-10.8c0-1,0.3-1.8,0.3-2.5c0,0,2.3,1.3,5-0.5s4-6,4.5-5.3
		c0.5,0.5-1,4.8-2,6c-1,1.5-2.8,3.5-4.8,3.3c1.5,1,2,1.5,3.8,0.8C27.5,23.4,29,21.6,29,22.4z"/>
	<path fill="#FFFFFF" d="M22,5.6c-1.3,0-3.3,1.5-3.3,4c0.3,2.3,2.5,4,5.3,3.3c2.5-1,2.8-3.8,2-5.5C25.5,5.9,23.5,5.4,22,5.6z"/>
	<path fill="#1E2944" d="M25.3,8.6c0,0-0.3,0-0.3,0.3c-0.3,0-0.3,0-0.3,0h-0.3c-0.3,0.3-0.3,0.3-0.5,0.3s-0.8-0.3-1-0.5
		s-0.3-0.8-0.3-1s0-0.3,0-0.5S23,6.9,23,6.6c0.3,0,0.3-0.3,0.3-0.3s-0.3,0-0.5,0c-1.8,0-3,1.3-3,3c0,1.5,1.3,2.8,3,2.8
		c1.5,0,2.8-1.3,2.8-2.8c0-0.5,0-0.8,0-1C25.3,8.6,25.3,8.6,25.3,8.6z"/>
	<path fill="#1C2123" d="M13.8,69.4c0,0,4.8,15.8,17.8,20.8c12.8,5,17,4.8,27.8,2.8s26.8-14,30.3-18.8c3.8-4.5-3-0.8-3-0.8
		s4-4,2.8-4.3c-1.5-0.5-10-0.3-10-0.3S62.5,55.4,50,52.4s-28,2.5-28,2.5C13.8,69.4,13.8,69.4,13.8,69.4z"/>
	<path fill="#181817" d="M26.3,69.6c-0.8-0.5-1.3,0.5-0.8,0.8c0.8,0.5,1.3,1.3,1.5,2s0,1.8-0.8,1.8c-0.3,0.3-0.5,0.3-0.8,0
		c-0.3,0-0.3,0-0.3,0c0-0.8-0.3-2-1.3-2c-1-0.3-1.3,1-0.8,1.8c0,0.3,0.5,0.8,0.8,1c0,0.5-0.3,1-1,1.3c-0.3,0-0.8,0-1.3-0.3
		c0-0.8,0-1.8-0.5-2c-0.3-0.3-0.3-0.3-0.5-0.3c-1,0.3-1,1.5-0.5,2.3c0,0.3,0.3,0.5,0.3,0.5c0,0.5,0,0.8-0.3,0.8s-1-0.8-1-0.8
		c-0.5-0.8-0.5-1.5-0.5-2c0-0.3-0.5-0.3-0.5,0l0,0c-0.3,1.3-0.3,2,0.5,3c0.5,0.3,1,1,1.8,0.8c0.5,0,0.8-0.5,1-1
		c0.5,0.3,1.3,0.3,1.8,0c1-0.3,1.8-0.8,2-1.8c0.3,0,0.5,0,0.8,0c1.3-0.3,2.5-0.8,2.5-2C28.5,71.9,27.3,70.1,26.3,69.6z"/>
	<path fill="#181817" d="M29.3,74.9c-0.5-0.3-0.8,0.5-0.3,0.8s1,1,1,1.5c-0.3,1-0.8,1.5-1.5,1.3c0-0.8-0.8-2-1.8-1.8
		c-1,0.5-0.3,1.8,0.3,2.3c0.3,0,0.3,0.3,0.5,0.3c-0.3,0.5-0.3,0.8-0.5,1s-0.5,0.3-0.8,0.3H26c0-0.5-0.3-1.3-0.5-1.5
		c-0.8-0.8-2-0.5-2,0.8c0.3,0.5,0.8,1,1.3,1.5c0,0.3-0.3,0.5-0.5,0.8c-1,0.5-2.8-0.5-2.5-1.5c0-0.3-0.3-0.3-0.3-0.3
		c-0.5,1,0.3,2,1,2.5c1,0.8,2.3,0.5,3-0.8c0.3,0,0.3-0.3,0.3-0.5c0.3,0,0.5,0,0.5,0c1,0,2-1,2.3-2c0.8,0,1.5-0.3,2-1
		C31.5,77.1,30.8,75.4,29.3,74.9z"/>
	<path fill="#181817" d="M32.5,79.1c-0.3-0.3-0.5,0.5,0,0.5c0.3,0,0.8,0.3,1,0.5c0.3,0.5,0,1.5-0.8,1.5l0,0c-0.3-0.5-0.5-1.3-1-1.5
		c-1.5-0.8-1.8,0.8-1,1.8c0.3,0.3,0.5,0.5,0.8,0.5c-0.3,0.8-0.8,1-1.5,1l0,0c-0.3-0.5-0.5-1-1-1.3c-1-0.8-1.8,0.8-1,1.5
		c0,0.3,0.5,0.5,0.8,0.5c0.3,0.5,0.3,1-0.8,1c-0.8,0-1.5-0.3-2-1c-0.3-0.3-0.8,0-0.5,0.3c0.5,1.3,2.5,2.5,3.8,1.5
		c0.5-0.5,0.8-0.8,0.8-1.5c0.8,0,1.5-0.3,2-0.8c0.3-0.3,0.5-0.5,0.5-1c0.8,0,1.3-0.3,1.5-0.8C34.8,80.6,33.8,79.1,32.5,79.1z"/>
	<path fill="#293438" d="M77,139.4c-1.3,0.3-4.5,0-8-0.3c0-0.5,0.3-1,0.3-1.5c0.5-0.8,0.8-1.5,1.3-2c2.5,1.3,5.3,2.8,6.3,3.5
		L77,139.4z"/>
	<path fill="#1C2123" d="M77,139.4c-1.3,0.3-4.5,0-8-0.3c0-0.5,0.3-1,0.3-1.5c2.3,0.3,5.5,1,7.5,1.5L77,139.4z"/>
	<path fill="#F7C020" d="M77,139.4c-1.3,0.3-4.5,0-8-0.3c-5-0.5-10.3-1.3-10.3-1.3s-4.5,0.3-9.8,0.5c-8,0.3-17.8,0.5-17.8,0
		c0-0.8,10.3-3,11.8-3.3c0.8,0,2.8-0.5,4.8-1c3.8-0.8,8.3-1.8,8.8-2.3c0.3-0.5,0.5-1.8,0.8-3c0.3-0.8,0.3-1.5,0.5-2.3
		c0.3-1.3,0.5-2.8,0.8-4c0-0.8,0-1.3,0.3-1.8c0.3-1.3,0.3-2.3,0.3-2.8c0,0,0-0.5,0-1.3c-0.3-0.3-0.3-0.3-0.3-0.3c0-0.3,0-0.8,0-1
		s0-0.3,0-0.3c-0.3-1.3-0.5-2.5-0.8-4c-0.3-0.5-0.3-0.5-0.3-0.5c0-0.3,0-0.8-0.3-1c0-0.8,0-0.8,0-0.8c-0.3-0.8-0.5-1.5-0.5-2.5
		c-1-4.3-1.8-8.5-2-9c0-0.3,0-0.3,0-0.3l0,0l0,0l0,0l0,0c0.3-0.3,0.3-0.3,0.3-0.3c0.3,0,0.3,0,0.3,0c0-0.3,0-0.3,0-0.3
		c0.3,0,0.3,0,0.5,0c0.3-0.3,0.3-0.3,0.3-0.3l0,0c0.3,0,0.3,0,0.3,0l0,0c0.3,0,0.5,0,0.8-0.3c0,0,0,0,0.3,0l0,0h0.3H58
		c0.5,0,1,0,1.3,0c0.5,0,0.5,0,0.5,0s0,0,0.3,0c0,0,0,0,0.3,0l0,0c0.3,0,0.3,0,0.5,0s0.3,0,0.3,0c0.3,0.3,0.3,0.3,0.3,0.3
		c0.3,0,0.3,0,0.3,0l0,0c0.3,0,0.5,0,0.5,0.3c0.3,0,0.3,0,0.3,0c0.3,0,0.3,0,0.5,0.3l0,0c0.3,0,0.5,0,0.5,0.3c0.3,0,0.3,0,0.3,0
		s0.3,0,0.3,0.3H64c0.3,0.3,0.3,0.3,0.3,0.3s0.5,3.3,1.3,7c0.3,0.8,0.3,1.8,0.5,2.5c0.3,1,0.3,2,0.5,3c0,1,0.3,2,0.5,3l0,0
		c0,1,0.3,1.8,0.3,2.3s0,1,0,1.5s0,1.3,0,2.5c-0.3,0.5-0.3,1.5-0.3,2.3c-0.3,1.8-0.3,3.8-0.5,5.5c0,1-0.3,1.8-0.3,2.8
		c-0.3,2-0.5,3.5-0.5,3.5s2.3,1,4.8,2C73.5,137.1,77,138.9,77,139.4z"/>
	<path fill="#E79020" d="M67.3,117.1c0,0.5,0,1.3,0,2.3c-0.3,0.8-0.3,1.8-0.3,2.5c-0.3,1.8-0.3,3.8-0.5,5.5c0,1-0.3,1.8-0.3,2.8
		c-0.3,2-0.5,3.5-0.5,3.5s-3.3,1.8-4,1.5c0,0,0-2,0.5-5c0-0.5,0.3-1.3,0.3-2.3c0.3-1.5,0.5-3.3,0.8-5c0.3-0.8,0.3-1.5,0.5-2l0,0
		c0-1,0.3-1.8,0.3-2.5c0-0.5,0-1,0-1.8c0-0.5,0-1.3-0.3-2c0-1,0-2-0.3-3.3c0-0.8,0-1.5-0.3-2.5c-0.3-1.8-0.5-3.5-0.5-5
		c-0.5-3.5-1-6.3-1-6.3c1-0.5,1-0.5,1-0.5l0,0c0.3,0,0.5,0,0.5,0.3c0.3,0,0.3,0,0.3,0s0.3,0,0.3,0.3H64c0.3,0.3,0.3,0.3,0.3,0.3
		s0.5,3.3,1.3,7c0.3,0.8,0.3,1.8,0.5,2.5c0.3,1,0.3,2,0.5,2.8c0,1.3,0.3,2.3,0.5,3.3l0,0c0,1,0.3,1.8,0.3,2.3S67.3,116.6,67.3,117.1
		z"/>
	<path fill="#E79020" d="M65.5,104.9c-1.3-0.3-2.8-1-4.8-1.8c-0.8,2.8-2.8,3.5-3.8,3.5c-1-4.3-1.8-8.5-2-9c-0.3-1,6-2.5,9.3,0.3
		C64.3,97.9,64.8,101.1,65.5,104.9z"/>
	<path fill="#AF571E" d="M66.5,110.1c-1,0.8-2,1.3-3,1.3c0,0.3-0.3,0.3-0.3,0.3c-1.3,0-2.8,0-4,0c-0.5,0-1,0-1.3-0.3
		c-0.3-0.5-0.3-0.5-0.3-0.5c-0.3-1-0.3-1-0.3-1c0-0.8,0-0.8,0-0.8c0.3,0,0.8,0.3,1.3,0.3c1,0,2.3,0,3.3-0.3c0.5,0,1,0,1.3-0.3
		c0.8,0,1.3-0.3,1.8-0.8c0.5-0.3,0.8-0.5,1-0.8C66.3,108.4,66.3,109.4,66.5,110.1z"/>
	<path fill="#AF571E" d="M59,116.9c0.3,0,0.5,0,0.8,0c1.5,0,3,0,4.3-0.3c0.3,0,0.5-0.3,0.8-0.3c0.8-0.3,1.8-0.5,2.5-0.8
		c0-0.5-0.3-1.3-0.3-2.3c-1,0.5-2,1-3.3,1.3c-1.5,0.5-3.5,0.8-5,0.8C59,116.9,59,116.9,59,116.9z"/>
	<path fill="#AF571E" d="M67.3,119.4c-0.3,0.8-0.3,1.8-0.3,2.5c-0.5,0.3-1,0.5-1.5,0.5c-0.8,0.3-1.5,0.5-2.3,0.5s-1.5,0-2.5,0
		c-0.8,0-1.5-0.3-2.3-0.3c0-0.8,0-1.3,0.3-1.8c1.5,0.3,3.5,0.3,5,0l0,0c0.3-0.3,0.8-0.3,1-0.3C65.5,120.4,66.5,119.9,67.3,119.4z"/>
	<path fill="#AF571E" d="M66.5,127.4c0,1-0.3,1.8-0.3,2.8c-1.3,0-2.5,0.3-3.5,0.3c-0.3,0-0.3,0-0.5-0.3c-1.5,0-3.3-0.3-4.5-1
		c-0.3-0.3-0.3-0.3-0.5-0.3c0.3-0.8,0.3-1.5,0.5-2.3c0.5,0.5,1.5,0.8,2,1c0.8,0.3,1.8,0.3,2.8,0.3c0.5,0,0.8,0,1.3,0
		C64.8,127.9,65.5,127.6,66.5,127.4z"/>
	<path fill="#293438" d="M49,138.4c-8,0.3-17.8,0.5-17.8,0l0,0c1.3-1,10.3-3,11.8-3.3c0.8,0,2.8-0.5,4.8-1c0.5,0.5,0.8,1.3,1,2
		S49,137.6,49,138.4z"/>
	<path fill="#1C2123" d="M49,138.4c-8,0.3-17.8,0.5-17.8,0l0,0c0.8,0,1.8,0,3-0.3c2.3,0,11-1.5,14.5-2C49,136.9,49,137.6,49,138.4z"
		/>
	<path fill="#E79020" d="M40.8,119.6c-0.3,0.5-0.5,1.3-1,1.8c-1.5,2.3-4.5,4.5-5.5,4.3c-1-0.5,1.5-3.8,2-5.5c0-0.3,0-0.3,0.3-0.5
		c0.3-1.8-7.5-1.8-8.8-1.8c0,0,7-4.8,8-4.5C36.8,113.4,41.5,117.1,40.8,119.6z"/>
	<path fill="#293438" d="M39.8,121.4c-1.5,2.3-4.5,4.5-5.5,4.3c-1-0.5,1.5-3.8,2-5.5c0.8-0.3,1.3-0.3,2-0.3
		C38.8,120.1,39.5,120.9,39.8,121.4z"/>
	<path fill="#F7C020" d="M54,111.6c-0.3,0.3-2.3,1-5.5,2c-0.8,0.3-2,0.5-3,0.8c-1.3,0.5-2.8,0.8-4.3,1.3c-0.8,0.3-1.5,0.3-2,0.5
		c-1,0.3-2.3,0.5-3,0.8l0,0c-0.8,0.3-1.3,0.5-2,0.5c-4,1-7.3,2-7.3,2s0.5,2.3,1.3,4.3c0.8,1.3,1.5,2.3,2.8,2.3
		c2.8-0.3,7.5-3.8,7.8-3s-7,7.3-9.8,7.5c-1.3,0-2.8-1-4.3-2.5c-2.3-2.3-4.3-5.3-4.5-7c-0.8-2.5,2.5-8.3,4-8.8c0.5-0.3,3.3-1,6.8-1.8
		c1-0.3,1-0.3,1-0.3c1.3-0.3,2.8-0.8,4-1c0.5-0.3,1.3-0.3,1.8-0.5c1.3-0.3,2.3-0.5,3.3-0.8c0.5,0,1-0.3,1.5-0.3
		c1.5-0.5,2.5-0.8,2.5-0.8c-1-10-1-10-1-10c5,1.8,5,1.8,5,1.8c3.3,1.3,3.3,1.3,3.3,1.3c0.5,2,0.5,2,0.5,2
		C53,101.9,54.8,110.6,54,111.6z"/>
	<path fill="#E79020" d="M54,111.6c-0.5,1-27,7.8-27,7.8s-0.8-2.8,2.8-4.5c3.3-1.5,19-4.8,20.3-6.3c0.8-1-0.5-6.8-1-10
		c3.3,1.3,3.3,1.3,3.3,1.3c0.5,2,0.5,2,0.5,2C53,101.9,54.8,110.6,54,111.6z"/>
	<path fill="#1C2123" d="M29,130.4c-1.3,0-2.8-1-4.3-2.5c-0.3-1.3-0.3-2.5,0.3-3.3l0,0c0.5-1,2.3-1,3.3-1c0.8,1.3,1.5,2.3,2.8,2.3
		c2.5-0.3,7-3.5,7.8-3l0,0C39,123.6,31.8,130.1,29,130.4z"/>
	<path fill="#293438" d="M29,130.4c-1.3,0-2.8-1-4.3-2.5c-0.3-1.3-0.3-2.5,0.3-3.3l0,0c1,1.3,2.5,3.5,4.3,3.5c2,0.3,7.3-3.8,9.5-5.3
		l0,0C39,123.6,31.8,130.1,29,130.4z"/>
	<path fill="#AF571E" d="M48.5,113.6c-0.8,0.3-2,0.5-3,0.8c-1-0.8-1.8-1.8-2.3-2.5c-1-1.3-1.5-2.5-2.3-3.8c0,0,0,0,0-0.3
		c0.5,0,1-0.3,1.5-0.3c0.3,0.5,0.8,1,0.8,1.3c0.5,0.5,1,1.3,1.5,1.8C46,112.1,47,112.9,48.5,113.6z"/>
	<path fill="#AF571E" d="M41.3,115.6c-0.8,0.3-1.5,0.3-2,0.5c-0.3-0.3-0.5-0.5-0.8-0.8c-1.3-2-2-4-2.5-6.3c0.5-0.3,1.3-0.3,1.8-0.5
		c0.5,1.8,1,3.5,2,5C40.3,114.4,40.8,115.1,41.3,115.6z"/>
	<path fill="#AF571E" d="M32,110.1c0.5,1.8,1.5,3.8,2.5,5c0.5,0.8,1,1.3,1.8,1.8c-0.8,0.3-1.3,0.5-2,0.5c-0.5-0.5-0.8-1.3-1.3-2
		c-0.8-1.3-1.8-3.3-2-5C32,110.1,32,110.1,32,110.1z"/>
	<path fill="#CDDDF3" d="M43,92.6c0,0-4-2.5-5.8,0s2.5,4.8,2.5,4.8s-5.8,2.8-2.5,4.5c3.5,2,6,0.5,6,0.5s-1,4,1.5,3.3
		c2.8-1,4.3-4,4.3-4s7,2.5,7.8,0.3c0.8-2-2.3-3.8-2.3-3.8s5.8-1.3,5-3.5c-1-2.3-5.3-2.5-5.3-2.5s1.8-4.8-1.3-4.8
		c-3,0.3-4.5,3.5-4.5,3.5s-1-4.5-2.8-4.3C44,87.1,43,92.6,43,92.6z"/>
	<path fill="#FFFFFF" d="M66.8,95.6c0,0,3,1.8,2.3,4s-7.8-0.5-7.8-0.5s-1.3,3-4,4s-1.8-3.3-1.8-3.3s-2.5,1.5-5.8-0.5
		c-3.3-1.8,2-4.3,2.3-4.5l0,0l0,0c-0.3,0-4-2.3-2.5-4.5c1.8-2.5,5.8,0,5.8,0s1.3-5.8,2.8-6c1.8-0.5,2.8,4,2.8,4s1.8-3.3,4.5-3.3
		c3-0.3,1.3,4.8,1.3,4.8s1,0,2.3,0.3c1,0.3,2.5,1,3,2C72.8,94.6,66.8,95.6,66.8,95.6z"/>
	<path fill="#CDDDF3" d="M66.8,95.6c0,0,3,1.8,2.3,4s-7.8-0.5-7.8-0.5s-1.3,3-4,4s-1.8-3.3-1.8-3.3s-2.5,1.5-5.8-0.5
		c-3.3-1.8,2-4.3,2.3-4.5c0,0.3-2,2.5-1.3,3.3c1,0.8,5,0.8,6.3-0.3c0,1.8-0.5,3.5,0.5,3.5c1.3-0.3,2.8-4.3,2.8-4.3s5.8,2.8,6.3,1.5
		c0.8-1.3-2.8-3.5-2.8-3.5s5.8-1,6.3-2.3c0.3-1-0.8-2.3-1.3-2.8c1,0.3,2.5,1,3,2C72.8,94.6,66.8,95.6,66.8,95.6z"/>
	<path fill="#293438" d="M82.8,71.1c-0.5,0.8-1,1.5-1.8,2.3c-0.5,0.3-0.8,0.8-1.3,1c-1.8,1.5-3.8,3-6,4.3c-8,4.5-18.8,6.8-29,4.5
		c-12-2.5-19-16.5-20.5-23.5c-0.3-1.8-0.3-3,0-3.8c1.8-3,15-6.8,24.3-5.5c9.5,1.3,32,15.5,34.3,16c2,0.8-2.5,4.3-3.3,4.8
		C80,70.9,81.8,69.6,82.8,71.1z"/>
	<path fill="#1C2123" d="M78.3,67.1c-7-5.3-15.8-8.5-24.3-10.8c-8.8-2-17.8-2.3-26.5-1.3c-1.3,0-1.3,2,0,1.8
		c8.8-0.5,17.5,0.5,25.8,2.5c8.5,2,16,5.8,23.8,9.8C78.3,69.9,79.3,68.1,78.3,67.1z"/>
	<path fill="#1C2123" d="M76,68.9c-8.3,0-16.5-0.8-24.5-2.8S36,60.6,28.8,56.9c-0.8-0.3-1.5,0.8-0.8,1.3c6.5,5,14.8,8.3,22.8,10.3
		c8.3,2.3,17,3.3,25.5,2.3C77.3,70.6,77.3,68.9,76,68.9z"/>
	<path fill="#1C2123" d="M76.3,71.6c-2.5,0.8-4.8,1.8-7.5,2c-2.3,0.3-4.8,0.3-7.3,0.3c-4.5-0.5-9-1.3-13.5-2.5
		c-9-2.8-16.8-7.5-24-13.5c-0.8-0.5-1.3,0.5-0.8,1c6.5,7.5,15.5,12.8,24.8,15.5c4.8,1.3,9.5,2.3,14.5,2.3c4.8,0.3,10.8,0,14.8-3
		C78.3,72.9,77.5,71.1,76.3,71.6z"/>
	<path fill="#181817" d="M82.3,72.6c0,0-1,0.8-2.5,1.8c-1.5,1.3-3.8,2.8-6,4.3c-8,4.5-18.8,6.8-29,4.5c-12-2.5-19-16.5-20.5-23.5
		c1.8,0.5,1.8,0.5,1.8,0.5s7,17.8,21.8,20.5C60,82.9,76.5,75.4,81,73.4C81.8,72.9,82.3,72.6,82.3,72.6z"/>
	<path fill="#CDDDF3" d="M34.3,57.9c-0.5,3.5-7.3,1.5-7.3,1.5s3.8,3,2.3,6c-1.3,3.3-6.8-0.3-7-0.3c0,0,2,5-1.8,7.5
		c-4,2.5-5.8-3.8-5.8-3.8s-2.5,3.8-6.3,1.5c-3.5-2.3,1.5-6,1.5-6.3c0,0-2,4.5,0.5,4.3c2.5-0.5,5.3-3.3,5.3-3.3s1.5,5.8,3.8,4.8
		s0.8-6.8,0.8-6.8s5.8,2.3,6.3,0c0.5-2-2.8-5-2.8-5s7.3,1.3,7.3-0.8c-0.3-2.3-5.3-2.8-5.3-2.8s3.8-3.5,3.5-4.8c0-1-0.5-2-1.3-2.8
		c0.8-0.3,1.5,0,2.3,0.3c0.3,0,0.3,0,0.5,0.3c2.8,1.8-1.8,5.8-1.8,5.8S34.8,54.1,34.3,57.9z"/>
	<path fill="#FFFFFF" d="M34.3,57.9c-0.5,3.5-7.3,1.5-7.3,1.5s3.8,3,2.3,6c-1.3,3.3-6.8-0.3-7-0.3c0,0,2,5-1.8,7.5
		c-4,2.5-5.8-3.8-5.8-3.8s-2.5,3.8-6.3,1.5c-3.5-2.3,1.5-6,1.5-6.3l0,0c0,0-4.8-2.8-2-6.3s6.5-0.8,6.8-0.8c-0.3-0.3-2-5.8,0.8-7.3
		c2.8-1.8,6,2.5,6,2.5s3.5-4.3,6.5-5.3c0.8-0.3,1.5,0,2.3,0.3c0.3,0,0.3,0,0.5,0.3c2.8,1.8-1.8,5.8-1.8,5.8S34.8,54.1,34.3,57.9z"/>
	<path fill="#CDDDF3" d="M34.3,57.9c-0.5,3.5-7.3,1.5-7.3,1.5s3.8,3,2.3,6c-1.3,3.3-6.8-0.3-7-0.3c0,0,2,5-1.8,7.5
		c-4,2.5-5.8-3.8-5.8-3.8s-2.5,3.8-6.3,1.5c-3.5-2.3,1.5-6,1.5-6.3c0,0.3-1.8,4.5,0.8,4.8c2.8,0.3,5-3.3,5-3.3s1.8,6.3,4,3.5
		c2-2.5,0.5-6.3,0.5-6.5c0.3,0.3,7.3,3,7,0.5c0-2.5-3.5-5-3.5-5s7.8,0.3,7.8-1c0-1.5-5.8-3-5.8-3s5-3.3,5-6.5
		c2.8,1.8-1.8,5.8-1.8,5.8S34.8,54.1,34.3,57.9z"/>
	<path fill="#FFFFFF" d="M83.8,69.6c0,0,2.5,2,1.8,5.3s-4,1.5-4,1.5s1.3,5-2.8,6.5c-4.3,1.5-4.3-4-4.3-4c0,0.3,0,0.3,0,0.3l0,0
		c-0.5,0.8-1.8,3.3-5.5,2.8c-4.5-0.8,1.5-6.5,1.5-6.5s-3.8-1.8-3.8-5.3c0-3.3,5.5-2.8,5.8-2.8c-0.3,0-3.8-1-3.8-4.5
		c-0.3-3.8,5-2,7-1c-0.5-0.3,1-3.8,1.3-4c1-1.3,2.5-2.3,4-1.8c0,0.3,0,0.3,0,0.3c2.5,0.8,2.5,4,2.3,6c0,0,1.8,0.3,3,3.3
		S83.8,69.6,83.8,69.6z"/>
	<path fill="#CDDDF3" d="M83.8,69.6c0,0,2.5,2,1.8,5.3s-4,1.5-4,1.5s1.3,5-2.8,6.5c-4.3,1.5-4.3-4-4.3-4s1.8,3.8,3.5,3
		c3.5-1.8,1.3-7.3,0.5-8.8c3,1.8,4.8,1,5.3,0.3c0.8-0.8-3.3-5-3.3-5s5-0.5,4.5-2c-0.8-1.8-2.5-2.8-3.5-2.5c0.5-2.5,0.3-5.5-0.5-7.5
		c2.5,0.8,2.5,4,2.3,6c0,0,1.8,0.3,3,3.3S83.8,69.6,83.8,69.6z"/>
</g>
</svg>
