<?xml version="1.0" encoding="utf-8"?>
<!-- Generator: Adobe Illustrator 16.0.0, SVG Export Plug-In . SVG Version: 6.00 Build 0)  -->
<!DOCTYPE svg PUBLIC "-//W3C//DTD SVG 1.1//EN" "http://www.w3.org/Graphics/SVG/1.1/DTD/svg11.dtd">
<svg version="1.1" id="Layer_1" xmlns="http://www.w3.org/2000/svg" xmlns:xlink="http://www.w3.org/1999/xlink" x="0px" y="0px"
	 width="163px" height="173px" viewBox="0 0 163 173" enable-background="new 0 0 163 173" xml:space="preserve">
<g>
	<path fill="#D41F25" d="M126.8,48.2c-5.5-19.5-16-22.3-25.3-20.3c-12,2.8-24.7,2.8-36.7,0c-9.3-2-19.8,0.8-25.3,20.3
		c-12.8,45,7,112,37,100c4.3-1.8,9-1.8,13.2,0C119.8,160.2,139.6,93.2,126.8,48.2z"/>
	<path fill="#EE2722" d="M96.3,59.4c-5.5-19.5-16-22.5-25.2-20.5c-12,2.8-25,2.8-37,0c-9.3-2-19.8,1-25.3,20.5
		c-12.5,44.8,7.3,111.8,37.3,99.8c4-1.5,9-1.5,13,0C89.1,171.2,109.1,104.2,96.3,59.4z"/>
	<path fill="#E22124" d="M34.1,38.9c-4.5-1-9.5-0.8-14,2.3c7.8,6,14.3,14,11.3,31c-3.5,18.5-5.8,63.5,11.5,88c1-0.3,2-0.5,3.3-1
		c4-1.5,9-1.5,13,0c0.5,0.3,1.3,0.5,1.8,0.5c1.5-6.5,2.5-14,3-18.8c0.8-11,2.3-74.3-5.3-100.3C50.3,41.4,42.1,40.7,34.1,38.9z"/>
	<path fill="#D41F25" d="M156.8,59.4c-5.5-19.5-15.8-22.5-25.3-20.5c-12,2.8-24.8,2.8-36.8,0c-9.3-2-19.7,1-25.2,20.5
		c-12.8,44.8,7,111.8,37,99.8c4.3-1.5,9-1.5,13.3,0C149.8,171.2,169.6,104.2,156.8,59.4z"/>
	<path fill="#D41F25" d="M95.6,57.2c-5.5-17.5-15.5-20.3-24.5-18.3c-12,2.8-25,2.8-37,0c-4.3-1-8.8-0.8-13,1.5c0,0,7.3,2.8,11.5,6
		c4.8,4,6.3,7,13,8.8s49.7,3.8,49.7,3.8S95.6,58.4,95.6,57.2z"/>
	<path fill="#64B33E" d="M64.6,53.2c0,0,8.3-6.8,10-13c1.3-6,1.5-24.8,1-30.8s2.3-7,5.8-5.5c3.5,1.3,7.7-1.5,11-0.8
		c3.3,1,4,3.5,1.5,6.8c-2.5,3-4,7.3-4.8,14.5s2.5,22.8,10.5,28.3C106.8,57.4,64.6,53.2,64.6,53.2z"/>
	<path fill="#56A438" d="M99.6,52.7c-8-5.5-11.3-21-10.5-28.3s2.3-11.5,4.8-14.5c2.5-3.3,1.8-5.8-1.5-6.8c-2.8-0.8-6.5,1.5-9.7,1
		l0,0c0,0,2.5,1.8,4.7,1.8c2.5,0.3,1.3,3-1,9c-2.5,6-3.5,22.5-2.3,29c1,4.3-8.5,4.3-14.2,4c-2.5,3-5.3,5.3-5.3,5.3
		S106.8,57.4,99.6,52.7z"/>
	<path fill="#EE2722" d="M126.8,68.4c-5.5-19.5-16-22.5-25.3-20.3c-12,2.8-24.7,2.8-36.7,0c-9.3-2.3-19.8,0.8-25.3,20.3
		c-12.8,45,7,111.8,37,100c4.3-1.8,9-1.8,13.2,0C119.8,180.2,139.6,113.4,126.8,68.4z"/>
	<path fill="#E22124" d="M51.1,157.9c6.8,9.8,15.8,14.3,25.5,10.5c4.3-1.8,9-1.8,13.2,0c30,11.8,49.8-55,37-100
		c-5.5-19.5-16-22.5-25.3-20.3c-3,0.5-6,1-9,1.5l0,0c0,0,16,11.5,14.3,59S57.6,159.7,51.1,157.9z"/>
	<path fill="#D41F25" d="M126.8,68.4c-4.5-16.3-12.5-21-20.3-21c0,0.3,25.3,25.8,10.3,76.8c-6.5,21.8-18.3,35.3-29.5,43.5
		c1,0,1.8,0.3,2.5,0.8C119.8,180.2,139.6,113.4,126.8,68.4z"/>
</g>
</svg>
