<?xml version="1.0" encoding="utf-8"?>
<!-- Generator: Adobe Illustrator 16.0.4, SVG Export Plug-In . SVG Version: 6.00 Build 0)  -->
<!DOCTYPE svg PUBLIC "-//W3C//DTD SVG 1.0//EN" "http://www.w3.org/TR/2001/REC-SVG-20010904/DTD/svg10.dtd">
<svg version="1.0" id="Layer_1" xmlns="http://www.w3.org/2000/svg" xmlns:xlink="http://www.w3.org/1999/xlink" x="0px" y="0px"
	 width="100px" height="200px" viewBox="0 0 100 200" enable-background="new 0 0 100 200" xml:space="preserve">
<path fill="#00A138" d="M44.277,115.763c-12.319-1.358-19.109-7.179-19.109-15.714c0-8.537,6.79-14.356,19.109-15.714V115.763z
	 M55.626,115.763V84.334c12.319,1.358,19.109,7.178,19.109,15.714C74.735,108.682,67.945,114.501,55.626,115.763z M55.626,67.65
	H44.277v6.596c-19.206,1.552-30.749,11.155-30.749,25.802c0,14.841,11.543,24.347,30.749,25.898v6.402h11.349v-6.402
	c19.109-1.552,30.749-11.058,30.749-25.898c0-14.647-11.64-24.348-30.749-25.899V67.65z"/>
</svg>
