<?xml version="1.0" encoding="utf-8"?>
<!-- Generator: Adobe Illustrator 16.0.0, SVG Export Plug-In . SVG Version: 6.00 Build 0)  -->
<!DOCTYPE svg PUBLIC "-//W3C//DTD SVG 1.1//EN" "http://www.w3.org/Graphics/SVG/1.1/DTD/svg11.dtd">
<svg version="1.1" id="Layer_1" xmlns="http://www.w3.org/2000/svg" xmlns:xlink="http://www.w3.org/1999/xlink" x="0px" y="0px"
	 width="435px" height="300px" viewBox="0 0 435 300" enable-background="new 0 0 435 300" xml:space="preserve">
<g>
	<path fill="#58626B" d="M116.6,110c1.5,2.3-0.2,5.6-2.5,7.2c-2.5,1.3-5.5,1.8-8,2.8c-6.5,3.1-9.7,12.3-6.2,18.7
		c2.7,4.9,8,7.7,12.7,10.3c10.5,5.9,20.2,13.3,28.9,21.8c3.7,3.6,8.7,7.9,13.7,6.4C116.6,110,116.6,110,116.6,110L116.6,110z"/>
	<path fill="#58626B" d="M235.5,244.6c-19,23.8-46.9,39.7-76.7,43.3c10.7,7.7,23.6,10.8,36.4,11.8c41.9,3.1,84.5-18.2,107.9-54.1
		C235.5,244.6,235.5,244.6,235.5,244.6L235.5,244.6z"/>
	<path fill="#58626B" d="M285.9,135.4c0.7-27.9-4.5-56.1-15.2-81.8c13.2-0.5,25.8,6.4,36.1,15.4c13.5,11.3,24.4,26.4,29.6,43.6
		c5.5,17.2,5,36.4-2.7,52.6C285.9,135.4,285.9,135.4,285.9,135.4L285.9,135.4z"/>
	<path fill="#687A86" d="M374.8,153.1c1.7,1.3,3.2,2.6,4.7,4.1c2.7,9.5-2.7,16.9-8,25.4c-5.2,8.2-13,14.9-21,20.5
		c-1.2,1-2.5,1.8-3.7,2.6c-24.6,46.1-24.6,46.1-24.6,46.1c-27.9,10-57.6,17.9-86.7,12c-17.5-3.6-33.6-12-47.9-22.8
		c-33.9-25.6-57.3-65.6-63.6-108.4c-3.5-3.6-7.2-6.9-11-10.3c-6.2-5.9-13.5-12-22.2-12.6c-5.5-0.3-11,2.1-16.2,3.6
		c-27.1,8-58.8-4.3-74.2-28.4c15,0.3,29.1-6.4,41.6-14.9c25.4-17.2,46.4-41.8,59.3-70c2.7,14.1,5,27.9,7,42c0.7,4.4,1.5,9,3.2,13.3
		c1.7,3.6,3.7,7.2,7,9.7c6.5,5.4,9.2,12.8,17.7,16.7c6.2,3.1,13,4.6,19.7,6.2c5.2,1,10.2,2.3,15.5,3.6c6,1.5,12,3.3,18,4.9
		c7,1.5,14.7,2.1,22,4.1c2.5,0.8,5.2,1.5,7.5,2.8c2.2,1,4.5,2.1,6.7,3.1c18,8.5,37.6,14.4,57.1,18.5c0.7,0,1.5,0.3,2.2,0.5
		c25.4,5.1,52.9,7.2,75.2,18.2c0.5,0.3,1,0.5,1.5,0.8c6.5-0.8,13-1.5,19.2-2.6C374.8,153.1,374.8,153.1,374.8,153.1L374.8,153.1z"/>
	<path fill="#77868F" d="M290.8,126.4c-2-0.3-4-0.8-6-1c-0.7-0.3-1.5-0.5-2.2-0.5c-19.7-4.4-38.6-10.8-57.1-18.5
		c-4.7-1.8-9.5-3.8-14.2-5.9c-7.2-2.1-15-2.6-22-4.1c-6-1.5-12-3.3-18-4.9c-6.7,1.8-13,4.9-19,9.7c-7.5,6.2-10.5,15.1-9.5,24.1
		c4.5,9.5,7.7,19.5,13,28.5c9.2,15.6,22.7,24.1,38.1,32.3c22,11.5,44.4,23.1,68.8,25.9c24.4,3.1,51.4-4.1,66.6-23.8
		c1.2-1.5,2.5-3.3,3.5-5.1C337.1,153.8,314.3,136.1,290.8,126.4L290.8,126.4z"/>
	<path fill="#58626B" d="M192.9,70.8c0-0.3,0-0.5-0.3-0.8c39.6,6.4,73,43.8,86.5,80.2c2.7,7.4,5.5,16.2,2.5,23.6
		c-20.2-2.8-47.1-9.7-57.1-30C213,120.5,203.3,94.3,192.9,70.8L192.9,70.8z"/>
	<path fill="#687A86" d="M212.3,80.5c4.2,4.6,9.5,8.7,14.2,13.1c5.2,4.9,10.2,10.3,15,15.6c9.7,11,18.7,22.8,26.6,35.1
		c2,3.3,6.7,0.8,5-2.8c-6.2-13.6-14.5-25.9-24.9-36.4c-9.7-10-22.2-21.3-35.4-25.6C212.3,79.2,211.8,80,212.3,80.5L212.3,80.5
		L212.3,80.5z"/>
	<path fill="#687A86" d="M318,197.9c-5.5,23.8-6.5,49.5,2,72.3c2,5.9,4.7,11.5,9.2,15.4c8,7.7,20.5,8.5,30.6,4.6
		c10.2-3.9,18.5-12,25.6-20.5c12.2-14.9,21.7-32,29.9-49.7c13.2-28.7,23.2-60.5,17.5-91.5c-2.5-13.1-8.5-26.2-19.5-33.1
		c-12.5-7.7-28.9-5.4-41.4,2.1C339.6,115.9,326.2,163.1,318,197.9L318,197.9z"/>
	<path fill="#FFFFFF" d="M378.8,271.2c3.2-5.1,5.5-11,5-16.9c-2-23.1-34.9-37.4-49.6-17.7c-8.5,11.3-8,25.6-0.5,37.2
		c6.5,10.3,20.5,14.9,31.4,9.7C370.4,281,375.3,276.6,378.8,271.2L378.8,271.2z"/>
	<path fill="#1D1B19" d="M340.6,254.1c-0.3,5.6,2.5,11,6.7,14.4s10.2,4.1,15.2,2.3c9.2-3.6,19-14.9,14.5-25.6
		c-3.2-8.2-13.7-13.6-21.7-11.3C346.6,236.4,341.1,245.4,340.6,254.1L340.6,254.1z"/>
	<path fill="#FFFFFF" d="M357.6,251.5c2.7,0.8,6-0.5,7.5-3.1c1.7-2.3,2-5.6,0.5-8.5c-1.2-2.6-4.2-4.1-7-4.1
		C350.1,235.9,349.9,249.7,357.6,251.5L357.6,251.5z"/>
	<path fill="#FFFFFF" d="M420.5,141.5c3.2-5.1,5.2-11,4.7-16.9c-1.7-23.1-34.9-37.2-49.4-17.7c-8.5,11.3-8.2,25.6-0.5,37.4
		c6.5,10,20.5,14.6,31.1,9.5C412,151.3,417,146.9,420.5,141.5L420.5,141.5z"/>
	<path fill="#1D1B19" d="M382.2,124.6c-0.3,5.4,2.2,10.8,6.7,14.1c4.2,3.3,10,4.1,15.2,2.3c9.2-3.6,19-14.9,14.5-25.6
		c-3.2-7.9-13.7-13.3-22-11.3C388.2,106.7,382.5,115.6,382.2,124.6L382.2,124.6z"/>
	<path fill="#FFFFFF" d="M399.2,121.8c2.7,0.8,5.7-0.5,7.5-3.1c1.7-2.3,2-5.6,0.5-8.2c-1.2-2.8-4.2-4.4-7-4.4
		C391.7,106.1,391.5,120,399.2,121.8L399.2,121.8z"/>
</g>
</svg>
