<?xml version="1.0" encoding="utf-8"?>
<!-- Generator: Adobe Illustrator 16.0.0, SVG Export Plug-In . SVG Version: 6.00 Build 0)  -->
<!DOCTYPE svg PUBLIC "-//W3C//DTD SVG 1.1//EN" "http://www.w3.org/Graphics/SVG/1.1/DTD/svg11.dtd">
<svg version="1.1" id="Layer_1" xmlns="http://www.w3.org/2000/svg" xmlns:xlink="http://www.w3.org/1999/xlink" x="0px" y="0px"
	 width="307px" height="266px" viewBox="0 0 307 266" enable-background="new 0 0 307 266" xml:space="preserve">
<g>
	<path fill="#FCCF3A" d="M299.4,256.4c-14,14.8-47.8,7.8-66.5,7.5c-26,0-52-4-78.2-5.3c-12.5-0.5-25.8-2.5-38.8,0.5
		c-15.5,3.5-25.5,2.8-32-1.3c-1.5-1-3-2.3-4.3-3.5c-1-1.5-2.3-3-3-4.8c-2.3-29,0.8-61.3-20-85.8c-1.3-2.3-2.5-4.3-3.8-6.3
		c-1-2.3-2.3-4.3-3.5-6.3c-1-2-2-4-2.8-6c-4.5-10.3-8.5-20.3-8.8-31.3c-0.3-1.5-0.3-2.8-0.3-4.3c0.3-1.3,0.3-2.5,0.3-4
		c0.3-2.3,0.5-4.5,0.8-6.5c1-5,2.5-9.8,4.5-14.5c0.8-1.5,1.5-3,2.5-4.8c15-20.5,47.5-23.8,66.5-7.5c1,1,2.3,2.3,3.3,3.5
		c1.3,1,2.3,2.3,3.3,3.8s2,3,3,4.5s1.8,3.3,2.5,4.8c1,2,1.8,4,2.3,6.3c1.5,6.3,1.8,12.8,0.8,19.3c-0.3,2-0.3,4.3-0.3,6.5
		c-0.3,6.8-0.5,13.5,0.5,20c0.8,2,1.3,4,2.3,6c1,1.8,2.5,3.5,4,5c1.3,1.3,2.5,2.8,3.8,4c8,7.5,16.8,14.3,27.2,19c4.3,2,8.3,4,12.5,6
		c4.3,1.8,8.5,3.8,13,5.8c5.3,2.5,49.8,25.5,80.5,44.5C289.2,242.9,302.4,253.2,299.4,256.4z"/>
	<path fill="#F59315" d="M142.9,205.9c-0.3,0.3-0.8,0.5-1,1c1-1,0.8-0.8-0.3,0.5c-0.5,1-0.8,2.3-0.8,3.3s0.3,1.8,0.3,2.8
		c0,1.8,1,3.8,2.5,4.8c2.3,1,5.3,0.8,6.8-1c0.5-0.5,1-1.3,1.5-2c0.8-1.3,0.8-2,1-3.5c0-1.3-0.5-2.5-0.8-3.8c0-1.5-1.5-2.8-2.5-3.5
		c-1.3-0.8-3-1-4.5-0.5c-3,0.8-4.8,4-4,7c0.3,0.5,0.5,1,0.5,1.5c0.5,1,0-1.5,0-0.5c0-0.3,0-0.8,0-1c0.5-0.8,0.5-1,0.3-0.5
		c3.3,0.5,6.5,1,10,1.5c-0.3-1-0.3-1.8-0.5-2.5c-0.3-2-1.5-3.3-3-4.3C146.7,203.9,144.4,204.4,142.9,205.9z"/>
	<path fill="#F59315" d="M161.9,215.7L161.9,215.7c-1.5,0.3-2.8,0.8-4.3,1c0,0.3,0,0.5,0.3,0.8c0.3,1,1.3,1.8,2.5,1.5
		c1-0.3,1.8-1.5,1.5-2.5c0-0.3,0-0.3,0-0.3c-0.5-0.8-1.3-1.5-2-1.5c-1,0-2,0.8-2,1.5c0,0.3,0,0.3,0,0.3c1.3,0.3,2.5,0.8,4,1
		c0-0.3,0-0.5,0-0.8c0.3-1.3-0.3-2.3-1.5-2.8c-1-0.3-2.5,0.5-2.8,1.8l0,0c-0.3,1.5,0.5,2.8,2,2.8S162.4,217.2,161.9,215.7z"/>
	<path fill="#F59315" d="M148.4,221.9c-0.3,0.3-0.3,0.3-0.3,0.3c-1.3,0.8-2,2.3-2,3.8c0,2,1.3,3.8,3.3,4.3c0,0,0,0,0.3,0
		c2.8,1,5.7-1.5,5.7-4.3C155.4,222.4,151.4,220.2,148.4,221.9z"/>
	<path fill="#7645A6" d="M287.4,126.4c2.8,3,3.8,6.8,3.3,10.8c-1.3,9,13,11.5,14,2.5c1-9.5-2.3-19-12-21.5
		C288.4,117.2,284.2,122.9,287.4,126.4z"/>
	<path fill="#8D5DB3" d="M301.9,167.4c-1.5,19.3-9.8,37.8-32.3,39h-0.3l0,0c-2.3,0-4.5,0-6.5-0.5c-10-1.5-18.8-7.3-26-14.8
		c-1.3-1.3-2.3-2.8-3.5-4c-6.8-8.3-12-17.8-15.8-26.3c0-0.3-0.3-0.3-0.3-0.5c-0.8-1.5-1.3-3-2-4.3c-4.8-11.5-7.8-20.3-3.3-29l0,0
		c1.8-3,4.3-6,8-9c0.3-0.3,0.3-0.3,0.5-0.3c13-10.5,31.8-14,48.3-9.3c4.5,1.3,8.8,3.3,12.5,6c1.5,0.8,2.8,1.8,3.8,2.8l0,0
		c0.8,0.5,1.3,1,1.8,1.5c1.8,1.5,3.3,3,4.5,4.8c1.8,2,3.3,4.5,4.5,6.8c1,1.8,1.5,3.3,2.3,4.8c1.8,4.5,2.8,9,3.3,14
		c0.5,2.3,0.5,4.8,0.8,7.3C302.2,160.2,302.2,163.7,301.9,167.4z"/>
	<path fill="#A077C1" d="M285.2,117.4c-7.3-2.3-15-3.8-22.5-3.8h-0.3c-1.8,0-3.3,0-5,0.3c-3.3,0.3-6.5,0.8-9.8,1.8
		c-0.3-0.5-0.8-0.8-1.3-1.3c-1.3-0.8-2.3-1.5-3.5-2.5c0.3-0.3,0.8-0.5,1.3-0.8c4.5-1.5,9.3-2.3,14-2.5c1.5-0.3,3-0.3,4.5-0.3
		c2,0,4,0,6.3,0.3c4.5,1.3,8.8,3.3,12.5,6C282.9,115.4,284.2,116.4,285.2,117.4z"/>
	<path fill="#A077C1" d="M265.2,135.7c-0.3-0.3-0.3-0.5-0.5-0.8c-0.8-1.3-1.8-2.5-2.5-3.5c0.8-0.8,1.5-1.3,2.3-1.8
		c6.3-4.5,14.5-9.3,22.5-10.8c1.8,1.5,3.3,3,4.5,4.8c-7,0-15,4-21,8c-1.5,1-2.5,1.8-3.8,2.5C266.2,134.7,265.7,135.2,265.2,135.7z"
		/>
	<path fill="#A077C1" d="M277.9,156.9c-0.3-0.3-0.3-0.5-0.3-0.5c-1-1.8-1.8-3.3-2.8-4.8c0-0.3,0-0.3,0-0.3c4.3-8.8,12.5-16,21-21
		c1,1.8,1.5,3.3,2.3,4.8c-5.5,3.3-11,7.5-15,12.8c-1.8,2.3-3.3,4.5-4.3,7.3c0,0,0,0.3-0.3,0.5C278.7,156.2,278.2,156.4,277.9,156.9z
		"/>
	<path fill="#A077C1" d="M285.9,176.7c-0.5-2-1.3-4-2-6c1.5-2.3,3-4.3,4.5-6.3c4.3-5.3,8.8-10,13-15.3c0.5,2.3,0.5,4.8,0.8,7.3
		c-5.3,6-10.5,11.8-14.8,18.5c-0.3,0.3-0.3,0.5-0.5,0.8C286.7,176.2,286.2,176.4,285.9,176.7z"/>
	<path fill="#A874C1" d="M284.4,222.9c-11.5,27.5-34.3,30-56.5,21c-1.8-0.8-3.8-1.8-5.8-2.5c-7-3.8-14-8.3-20.5-13.5
		c-2.3-1.8-4.5-3.5-6.5-5.3c-1.5-1-2.8-2.3-4-3.3c-8-6.8-16-13.3-24.5-19.8c-1.3-1-2.8-2-4-3c-1-0.8-2-1.5-3-2.3
		c-5.5-3.8-13-8.5-20-13.5c-1.5-1.3-3-2.5-4.5-3.8c-4.8-4.3-8.8-8.8-10.8-13.5c-11.3-31.3,19.5-53.5,46-61.3c22.8-6.8,49.5-4.3,70,8
		c2,1.3,4,2.5,6,4c5,3.8,9.5,8.3,13.3,13.5c0.5,0.8,1.3,1.8,2,2.8c1,1.5,2,2.8,3,4.3c3.8,5.3,7.3,11,10.3,16.8c1,1.5,1.8,3,2.8,4.8
		c2.3,4.3,4.3,9,6,13.5c1,2.5,1.8,5.3,2.5,8C290.4,192.4,290.9,207.9,284.4,222.9z"/>
	<path fill="#B88CCD" d="M227.2,198.4c2-1.5,4.3-3.3,6.3-4.8c12-8.8,23.5-18.3,34.5-28.3c-0.5,7.8-4,15.5-11.5,22.5
		C248.7,194.9,238.4,198.2,227.2,198.4z M218.4,198.2c-13-1-27-5-39-10c7.5-6.3,15.8-11.8,23.8-17.5c17.5-11.8,35.3-24.5,54.8-33
		c2,2.8,3.8,5.3,5.3,8c2.3,4.3,3.8,8.5,4.5,13c-12.3,11.3-25,21.8-38.5,31.8C225.7,192.9,222.2,195.7,218.4,198.2z M173.9,185.9
		c-6.5-3.3-12.5-6.5-17.3-10c-4-2.5-7.2-5.8-10-9.3c5.8-6.5,14-11.8,20.5-16c9.3-5.8,19.3-10.8,29-15.5c11-5.8,22.3-11,34-15.5
		c2-0.8,4-1.5,6-2.3c6.8,4.8,13.3,10,18.3,16c-20,9-38,22-56,34.3C189.9,173.4,181.7,179.2,173.9,185.9z M143.4,162.4
		c-3.3-6-5-13-4-21c3.8-28.8,32.2-38,57.5-38.3c0,0,0,0,0.3,0c9.8,0,21.8,4.3,33.3,10.8c-12.5,4.5-24.3,10.3-36.3,16.3
		c-10.8,5.5-21.8,11-32,17.5C156.2,151.7,149.2,156.4,143.4,162.4z"/>
	<path fill="#B88CCD" d="M139.7,180.9L139.7,180.9c-1.5-1.3-3-2.5-4.5-3.8c1.3-5.5,4.3-10.5,8.3-14.8c1,1.5,2,3,3.3,4.3
		c-3.5,4-6,8.5-6.8,13.3C139.9,180.4,139.9,180.7,139.7,180.9z M236.2,117.4c-2-1.3-3.8-2.3-5.8-3.5c0.5-0.3,1-0.5,1.8-0.5
		c2.3-1,5.3-2,8.3-3c2,1.3,4,2.5,6,4C242.9,115.4,239.4,116.4,236.2,117.4z"/>
	<path fill="#C4A1D6" d="M146.7,166.7c-1.3-1.3-2.3-2.8-3.3-4.3c5.8-6,12.7-10.8,18.7-14.8c10.3-6.5,21.3-12,32-17.5
		c12-6,23.8-11.8,36.3-16.3c2,1.3,3.8,2.3,5.8,3.5c-2,0.8-4,1.5-6,2.3c-11.8,4.5-23,9.8-34,15.5c-9.8,4.8-19.8,9.8-29,15.5
		C160.7,154.9,152.4,160.2,146.7,166.7z"/>
	<path fill="#B88CCD" d="M166.7,199.7L166.7,199.7c-1.3-1-2.8-2-4-3c2.3-2.5,4.8-5,7.3-7.3c1.3-1.3,2.8-2.5,4-3.5
		c1.8,0.8,3.5,1.5,5.5,2.3c-1.3,1-2.5,2-3.5,3C172.7,193.9,169.7,196.7,166.7,199.7z M257.9,137.7c-1-1.5-2.3-2.8-3.5-4.3
		c2.5-1,4.8-2,7.3-2.8c1,1.5,2,2.8,3,4.3C262.4,135.9,260.2,136.7,257.9,137.7z"/>
	<path fill="#C4A1D6" d="M179.4,188.2c-2-0.8-3.8-1.5-5.5-2.3c7.8-6.8,16-12.5,24.5-18.3c18-12.3,36-25.3,56-34.3
		c1.3,1.5,2.5,2.8,3.5,4.3c-19.5,8.5-37.3,21.3-54.8,33C195.2,176.4,186.9,181.9,179.4,188.2z"/>
	<path fill="#B88CCD" d="M195.2,222.7L195.2,222.7c-1.5-1-2.8-2.3-4-3.3c4.3-3.3,8.3-6.5,12.3-9.8c5-4,10-7.8,15-11.5
		c2.3,0.3,4.3,0.3,6.3,0.3c0.8,0,1.8,0,2.5,0c-7.5,5.5-14.8,11.3-22.3,16.5C201.7,217.4,198.4,220.2,195.2,222.7z M267.9,165.4
		c0.3-2.3,0-4.5-0.3-6.8c2.5-2.3,5-4.8,7.3-7c1,1.5,1.8,3,2.8,4.8C274.4,159.4,271.2,162.4,267.9,165.4z"/>
	<path fill="#C4A1D6" d="M224.7,198.4c-2,0-4,0-6.3-0.3c3.8-2.5,7.3-5.3,10.8-7.8c13.5-10,26.3-20.5,38.5-31.8
		c0.3,2.3,0.5,4.5,0.3,6.8c-11,10-22.5,19.5-34.5,28.3c-2,1.5-4.3,3.3-6.3,4.8C226.4,198.4,225.4,198.4,224.7,198.4z"/>
	<path fill="#B88CCD" d="M227.9,243.9L227.9,243.9c-1.8-0.8-3.8-1.8-5.8-2.5c10.8-6.5,20.5-14.3,29.3-23
		c13.8-13.8,25.8-30,32.3-48.5c1,2.5,1.8,5.3,2.5,8c-7,16.5-18.3,31.8-31,44.3C246.9,230.2,237.9,237.7,227.9,243.9z"/>
	<path fill="#F59315" d="M57.9,137.9c1.3,4.5,4.8,5.8,9.5,6.3c4.3,0.5,8.8-1.5,10.3-5.8c1.5-4-3.3-1.8-4.3-2c-2.3-0.5-4.8,0.8-7,0.8
		c-1.8,0-4.8-0.5-6.5-1.3C58.7,135.4,57.7,136.9,57.9,137.9z"/>
	<path fill="#FCCF3A" d="M96.4,104.7c-3.8,2-10.3,0-11.8-4.3c-1.3-3.8,3.3-11,4.8-14.3c5.3-11,12.5-21,19.3-31
		c2.5-3.8,7-13.5,11.3-14c7.5-1.3,6.8,6.3,5.3,10.5c-5.3,14.3-15.3,26.3-20.8,40.3C102.7,96.9,101.7,102.2,96.4,104.7z"/>
	<path fill="#FCCF3A" d="M66.4,100.2c-1,4.3-6.5,8.3-10.8,6.8c-3.8-1.5-6.8-9.5-8.3-12.5c-5.5-11-9-22.8-13-34.5
		c-1.3-4-6-13.8-4-17.5c3.8-6.5,9-1.3,11.3,2.5c8.3,13,11.8,28,19.5,41C63.9,90.4,67.4,94.4,66.4,100.2z"/>
	<path fill="#FCCF3A" d="M93.4,27.7c-1,3.3-0.8,6.5-0.8,10c0,1.8,0,3.3,0.3,5c1,4.8,2.8,9.5,6,13.5c6.5,8.3,17,9.3,26.8,7.3
		c2-0.5,4-1,5.8-1.8c10.3-3,21-9.5,22.3-21c1.5-12.5-5.3-25-16.5-30.8c-1.5-0.8-3-1.5-4.5-2c-12.8-4.3-29.3-1.8-35.5,11.3
		C95.7,21.7,94.4,24.4,93.4,27.7z"/>
	<path fill="#FCCF3A" d="M4.9,51.9c6.3,9.3,18,13.3,28.5,12.3c2.3,0,4.5-0.5,6.5-1c9.3-2,17.3-9,19.8-17.8c0.5-1.8,0.8-3.5,1-5.5
		c0.8-10.5-4.3-20.5-13-27c-9-6-20-6-29.3-1.8c-12.3,6-20,21.8-14.8,35C3.9,48.2,4.2,50.2,4.9,51.9z"/>
	<path fill="#FFFFFF" d="M100.7,34.9c-2,15.3,14.8,25.8,28.5,22.5c16-3.5,18.8-27.3,7.3-37c-8.8-7.5-21.3-7.3-29,1.3
		C103.2,26.2,101.2,30.7,100.7,34.9z"/>
	<path fill="#100F0D" d="M132.7,42.7c10.5-4.5,9-19.5-2.3-21.8c-10.3-2-18.5,10-11.3,18C122.7,42.9,127.4,45.2,132.7,42.7z"/>
	<path fill="#FFFFFF" d="M133.2,32.9c3.8,0.5,6.5-4.3,3.8-7c-2.3-2.3-6.3-2-7,1C129.4,29.7,130.2,32.4,133.2,32.9z"/>
	<path fill="#FFFFFF" d="M10.2,37.4c-1.8,15.5,14.8,26,28.8,22.8c16-3.5,18.8-27.5,7.3-37c-9-7.5-21.3-7.3-29.3,1.3
		C12.9,28.9,10.9,33.2,10.2,37.4z"/>
	<path fill="#100F0D" d="M42.4,45.4c10.5-4.5,8.8-19.5-2.5-21.8c-10-2-18.3,10-11.3,18C32.2,45.7,37.2,47.9,42.4,45.4z"/>
	<path fill="#FFFFFF" d="M42.9,35.7c3.8,0.5,6.3-4.3,3.5-7c-2.3-2.3-6-2-6.8,1C38.9,32.4,39.9,35.2,42.9,35.7z"/>
</g>
</svg>
