<?xml version="1.0" encoding="UTF-8" standalone="no"?>
<!-- Generator: Adobe Illustrator 15.0.0, SVG Export Plug-In . SVG Version: 6.00 Build 0)  -->

<svg
   xmlns:dc="http://purl.org/dc/elements/1.1/"
   xmlns:cc="http://creativecommons.org/ns#"
   xmlns:rdf="http://www.w3.org/1999/02/22-rdf-syntax-ns#"
   xmlns:svg="http://www.w3.org/2000/svg"
   xmlns="http://www.w3.org/2000/svg"
   xmlns:sodipodi="http://sodipodi.sourceforge.net/DTD/sodipodi-0.dtd"
   xmlns:inkscape="http://www.inkscape.org/namespaces/inkscape"
   version="1.1"
   id="Layer_1"
   x="0px"
   y="0px"
   width="76px"
   height="66px"
   viewBox="0 0 76 66"
   enable-background="new 0 0 76 66"
   xml:space="preserve"
   sodipodi:docname="Speaker_bee.svg"
   inkscape:version="0.92.1 r15371"><metadata
     id="metadata72"><rdf:RDF><cc:Work
         rdf:about=""><dc:format>image/svg+xml</dc:format><dc:type
           rdf:resource="http://purl.org/dc/dcmitype/StillImage" /><dc:title></dc:title></cc:Work></rdf:RDF></metadata><defs
     id="defs70" /><sodipodi:namedview
     pagecolor="#ffffff"
     bordercolor="#666666"
     borderopacity="1"
     objecttolerance="10"
     gridtolerance="10"
     guidetolerance="10"
     inkscape:pageopacity="0"
     inkscape:pageshadow="2"
     inkscape:window-width="1115"
     inkscape:window-height="1008"
     id="namedview68"
     showgrid="true"
     inkscape:snap-bbox="true"
     inkscape:snap-object-midpoints="false"
     inkscape:snap-center="false"
     inkscape:zoom="8"
     inkscape:cx="35.185911"
     inkscape:cy="29.657823"
     inkscape:window-x="0"
     inkscape:window-y="0"
     inkscape:window-maximized="0"
     inkscape:current-layer="Layer_1"
     inkscape:snap-others="false"
     showguides="false"><inkscape:grid
       type="xygrid"
       id="grid167" /></sodipodi:namedview><g
     id="g229"><rect
       id="rect47"
       height="14"
       width="8"
       y="23"
       x="16"
       fill="#64A01F" /><polygon
       id="polygon49"
       points="17,36 23,36 23,32.821 23,26.799 23,24 17,24 "
       fill="#FFFFFF" /><polygon
       id="polygon51"
       points="25,37 25,23 36,12 36,48 "
       fill="#64A01F" /><polygon
       id="polygon53"
       points="26,36.586 26,23.414 35,14.414 35,45.586 "
       fill="#FFFFFF" /><path
       id="path55"
       d="M36.182,35.343l1.172-1.042c1.422-1.266,2.238-3.07,2.238-4.952c0-1.751-0.682-3.406-1.92-4.658l-1.09-1.104  l3.393-3.395l1.104,1.114c2.138,2.16,3.313,5.016,3.313,8.042c0,3.246-1.399,6.355-3.844,8.531l-1.158,1.033L36.182,35.343z"
       fill="#64A01F" /><path
       id="path57"
       d="M40.368,22.011l-0.396-0.4l-1.979,1.98l0.392,0.396c1.424,1.44,2.208,3.345,2.208,5.361  c0,2.167-0.938,4.244-2.573,5.699l-0.42,0.374l1.871,2.082l0.416-0.371c2.229-1.985,3.508-4.823,3.508-7.784  C43.393,26.586,42.318,23.981,40.368,22.011z"
       fill="#FFFFFF" /><path
       id="path59"
       d="M40.26,39.882l1.164-1.044c2.709-2.417,4.262-5.876,4.262-9.489c0-3.377-1.313-6.56-3.703-8.963  l-1.096-1.104l3.396-3.394l1.104,1.11c3.288,3.31,5.102,7.695,5.102,12.351c0,4.976-2.135,9.737-5.857,13.064l-1.16,1.039  L40.26,39.882z"
       fill="#64A01F" /><path
       id="path61"
       d="M44.676,17.703l-0.396-0.399l-1.979,1.98l0.395,0.396c2.574,2.592,3.994,6.025,3.994,9.668  c0,3.896-1.674,7.628-4.596,10.234l-0.418,0.375l1.871,2.083l0.416-0.373c3.514-3.14,5.523-7.629,5.523-12.319  C49.486,24.96,47.777,20.824,44.676,17.703z"
       fill="#FFFFFF" /><path
       style="fill:#64a01f;fill-opacity:1"
       id="path63"
       d="M44.611,44.725l1.162-1.043c4.084-3.654,6.425-8.879,6.425-14.333c0-5.113-1.993-9.931-5.61-13.565  l-1.098-1.105l3.394-3.392l1.103,1.106C54.51,16.936,57,22.957,57,29.349c0,6.815-2.923,13.342-8.02,17.907l-1.16,1.038  L44.611,44.725z"
       fill="#64A01F" /><path
       id="path65"
       d="M49.277,13.099l-0.396-0.397l-1.98,1.979l0.396,0.397c3.806,3.823,5.902,8.892,5.902,14.271  c0,5.738-2.462,11.233-6.757,15.077l-0.418,0.375l1.873,2.083l0.416-0.373C53.198,42.136,56,35.88,56,29.349  C56,23.223,53.611,17.452,49.277,13.099z"
       fill="#FFFFFF" /></g><g
     style="fill:#64a01f;fill-opacity:1"
     id="g104"
     transform="matrix(0.03432343,0,0,0.03514143,54.614172,42.869492)" /><g
     style="fill:#64a01f;fill-opacity:1"
     id="g106"
     transform="matrix(0.03432343,0,0,0.03514143,54.614172,42.869492)" /><g
     style="fill:#64a01f;fill-opacity:1"
     id="g108"
     transform="matrix(0.03432343,0,0,0.03514143,54.614172,42.869492)" /><g
     style="fill:#64a01f;fill-opacity:1"
     id="g110"
     transform="matrix(0.03432343,0,0,0.03514143,54.614172,42.869492)" /><g
     style="fill:#64a01f;fill-opacity:1"
     id="g112"
     transform="matrix(0.03432343,0,0,0.03514143,54.614172,42.869492)" /><g
     style="fill:#64a01f;fill-opacity:1"
     id="g114"
     transform="matrix(0.03432343,0,0,0.03514143,54.614172,42.869492)" /><g
     style="fill:#64a01f;fill-opacity:1"
     id="g116"
     transform="matrix(0.03432343,0,0,0.03514143,54.614172,42.869492)" /><g
     style="fill:#64a01f;fill-opacity:1"
     id="g118"
     transform="matrix(0.03432343,0,0,0.03514143,54.614172,42.869492)" /><g
     style="fill:#64a01f;fill-opacity:1"
     id="g120"
     transform="matrix(0.03432343,0,0,0.03514143,54.614172,42.869492)" /><g
     style="fill:#64a01f;fill-opacity:1"
     id="g122"
     transform="matrix(0.03432343,0,0,0.03514143,54.614172,42.869492)" /><g
     style="fill:#64a01f;fill-opacity:1"
     id="g124"
     transform="matrix(0.03432343,0,0,0.03514143,54.614172,42.869492)" /><g
     style="fill:#64a01f;fill-opacity:1"
     id="g126"
     transform="matrix(0.03432343,0,0,0.03514143,54.614172,42.869492)" /><g
     style="fill:#64a01f;fill-opacity:1"
     id="g128"
     transform="matrix(0.03432343,0,0,0.03514143,54.614172,42.869492)" /><g
     style="fill:#64a01f;fill-opacity:1"
     id="g130"
     transform="matrix(0.03432343,0,0,0.03514143,54.614172,42.869492)" /><g
     style="fill:#64a01f;fill-opacity:1"
     id="g132"
     transform="matrix(0.03432343,0,0,0.03514143,54.614172,42.869492)" /><g
     id="g65"
     transform="matrix(0.0396087,0,0,0.03190745,56.239504,20.762376)" /><g
     id="g67"
     transform="matrix(0.0396087,0,0,0.03190745,56.239504,20.762376)" /><g
     id="g69"
     transform="matrix(0.0396087,0,0,0.03190745,56.239504,20.762376)" /><g
     id="g71"
     transform="matrix(0.0396087,0,0,0.03190745,56.239504,20.762376)" /><g
     id="g73"
     transform="matrix(0.0396087,0,0,0.03190745,56.239504,20.762376)" /><g
     id="g75"
     transform="matrix(0.0396087,0,0,0.03190745,56.239504,20.762376)" /><g
     id="g77"
     transform="matrix(0.0396087,0,0,0.03190745,56.239504,20.762376)" /><g
     id="g79"
     transform="matrix(0.0396087,0,0,0.03190745,56.239504,20.762376)" /><g
     id="g81"
     transform="matrix(0.0396087,0,0,0.03190745,56.239504,20.762376)" /><g
     id="g83"
     transform="matrix(0.0396087,0,0,0.03190745,56.239504,20.762376)" /><g
     id="g85"
     transform="matrix(0.0396087,0,0,0.03190745,56.239504,20.762376)" /><g
     id="g87"
     transform="matrix(0.0396087,0,0,0.03190745,56.239504,20.762376)" /><g
     id="g89"
     transform="matrix(0.0396087,0,0,0.03190745,56.239504,20.762376)" /><g
     id="g91"
     transform="matrix(0.0396087,0,0,0.03190745,56.239504,20.762376)" /><g
     id="g93"
     transform="matrix(0.0396087,0,0,0.03190745,56.239504,20.762376)" /><g
     id="g3229"
     transform="matrix(0.81131345,0,0,0.84096556,38.572478,-16.497949)"><path
       inkscape:connector-curvature="0"
       id="path3213"
       d="m 9.958217,62.442469 -0.330078,1.300782 c 0.477647,0.09235 0.857222,0.32532 1.152344,0.595703 0.295122,0.270382 0.505915,0.578731 0.642578,0.820312 -0.417922,0.322434 -0.75945,0.718861 -0.996094,1.166016 -0.236643,0.447155 -0.36914,0.944595 -0.36914,1.46875 0,0.701626 0.245398,1.385441 0.6875,1.960937 -0.291277,0.195059 -0.583499,0.404493 -0.873047,0.625 l -1.160156,0.958985 c -0.109788,0.09886 -0.217533,0.199609 -0.324219,0.300781 -0.545152,0.516538 -1.278543,1.283457 -1.886719,2.169922 -0.608176,0.886465 -1.091715,1.892501 -1.136719,2.890625 -0.02283,0.506678 0.06529,1.107834 0.425782,1.689453 0.360491,0.581619 0.994413,1.143285 2.064453,1.574219 0.419523,0.168944 0.812235,0.279042 1.179687,0.341797 0.01826,0.06209 0.03737,0.124391 0.05664,0.185547 l 0.498047,1.27539 c 0.506073,1.061456 1.16974,1.915864 1.9375,2.503906 0.76776,0.588042 1.640091,0.910157 2.558594,0.910157 0.918223,0 1.789045,-0.322481 2.55664,-0.910157 0.767595,-0.587675 1.431402,-1.441074 1.9375,-2.501953 l 0.498047,-1.273437 c 0.01963,-0.06253 0.03992,-0.125943 0.05859,-0.189453 0.367401,-0.06275 0.760214,-0.172941 1.179687,-0.341797 1.070015,-0.430933 1.703975,-0.992595 2.064454,-1.574219 0.360478,-0.581624 0.446685,-1.182797 0.423828,-1.689453 -0.04501,-0.998102 -0.52855,-2.004154 -1.136719,-2.890625 -0.60817,-0.886471 -1.339639,-1.653384 -1.884766,-2.169922 C 19.676864,71.539674 19.568733,71.4407 19.460166,71.34286 l -1.162105,-0.962891 c -0.289853,-0.22073 -0.581466,-0.429719 -0.873047,-0.625 0.442102,-0.57554 0.685547,-1.259354 0.685547,-1.960937 0,-0.520868 -0.129492,-1.015926 -0.363281,-1.460938 -0.233789,-0.445011 -0.571005,-0.839853 -0.984375,-1.162109 0.135367,-0.241359 0.344492,-0.550966 0.640625,-0.824219 0.296133,-0.273252 0.678492,-0.510383 1.160156,-0.603515 l -0.330078,-1.300782 c -0.752447,0.14554 -1.34159,0.476329 -1.796875,0.861329 -0.455285,0.384999 -0.776079,0.823366 -0.988281,1.18164 -0.426135,-0.134392 -0.884718,-0.207031 -1.363281,-0.207031 -0.471341,0 -0.925011,0.0706 -1.345704,0.201172 C 12.52668,64.121415 12.205969,63.68554 11.751186,63.301844 11.296403,62.918149 10.708733,62.587609 9.958217,62.442469 Z"
       style="opacity:1;fill:#ffffff;fill-opacity:1;stroke:none;stroke-width:0.244;stroke-linecap:round;stroke-linejoin:round;stroke-miterlimit:4;stroke-dasharray:none;stroke-opacity:1;paint-order:normal" /><path
       sodipodi:nodetypes="ccccccsccccsccccscccccccccsccccccsccccccccccccccccccccccsccscscccccscccccccccc"
       inkscape:connector-curvature="0"
       d="m 20.315929,79.964792 c 2.140029,-0.861866 2.534788,-2.250774 2.489073,-3.264087 -0.09001,-1.996203 -1.932556,-4.027447 -3.022809,-5.060523 C 19.676626,71.540121 19.569227,71.44117 19.46066,71.34333 l -1.161547,-0.962105 c -0.289853,-0.22073 -0.582554,-0.430223 -0.874135,-0.625504 0.442102,-0.57554 0.686798,-1.259135 0.686798,-1.960718 0,-1.041736 -0.521786,-1.978659 -1.348527,-2.623172 0.270733,-0.482718 0.838234,-1.241237 1.801562,-1.427502 l -0.330127,-1.30186 c -1.504895,0.291079 -2.361385,1.327264 -2.78579,2.043813 -0.426135,-0.134392 -0.885221,-0.208028 -1.363784,-0.208028 -0.471341,0 -0.923766,0.07173 -1.344459,0.202299 -0.425575,-0.716327 -1.281404,-1.747805 -2.782434,-2.038084 L 9.628191,63.74424 c 0.955294,0.184711 1.521473,0.932304 1.794799,1.415467 -0.835844,0.644867 -1.364495,1.586898 -1.364495,2.635208 0,0.701626 0.244697,1.385221 0.686799,1.960717 -0.291277,0.195059 -0.583621,0.404286 -0.873169,0.624793 L 8.71307,71.340176 c -0.109788,0.09886 -0.218305,0.19879 -0.324991,0.299962 -1.090304,1.033076 -2.932853,3.064275 -3.02286,5.060523 -0.04566,1.013357 0.349095,2.40222 2.489175,3.264087 0.419523,0.168944 0.812554,0.278776 1.180006,0.341531 0.01826,0.06209 0.03707,0.123644 0.05634,0.1848 l 0.498801,1.276855 c 1.012146,2.122912 2.658611,3.413624 4.495617,3.413624 1.836447,0 3.482506,-1.289824 4.494702,-3.411581 l 0.498445,-1.274768 c 0.01963,-0.06253 0.03895,-0.12542 0.05762,-0.18893 0.367401,-0.06275 0.760533,-0.172631 1.180006,-0.341487 z M 14.08511,65.611558 c 1.37853,0 2.500007,0.97947 2.500007,2.183401 0,0.437373 -0.145079,0.851607 -0.414795,1.205041 -0.483597,-0.257103 -0.945327,-0.460423 -1.363224,-0.595037 l -0.71614,-0.230678 -0.0058,0.01381 -0.0058,-0.01381 -0.71614,0.230678 C 12.945327,68.539577 12.483596,68.742897 12,69 c -0.269716,-0.353389 -0.414795,-0.767624 -0.414795,-1.205041 5.1e-5,-1.203886 1.121527,-2.183401 2.499955,-2.183401 z m 1.341968,13.417421 c -0.862032,0.07746 -1.803037,0.07421 -2.675443,-0.0091 0.604419,-0.664586 1.032028,-1.496741 1.333577,-2.324765 0.302871,0.831843 0.733023,1.667817 1.341866,2.333914 z M 8.493697,78.753978 C 7.359203,78.297108 6.849825,77.6613 6.89076,76.753112 c 0.05172,-1.146417 1.006603,-2.680642 2.619965,-4.20936 1.135968,-1.076423 2.497209,-2.037862 3.614922,-2.57534 0.229695,1.05395 0.261528,2.575473 0.0627,4.008038 -0.292802,2.109632 -1.014993,3.766969 -1.981423,4.547072 -0.746142,0.602187 -1.608226,0.675468 -2.713227,0.230456 z m 5.591413,5.094321 c -0.846421,0 -1.531846,-0.499906 -1.988187,-0.968146 0.588605,0.106501 1.241028,0.166325 1.932759,0.172498 0.03829,3.55e-4 0.07613,5.33e-4 0.114162,5.33e-4 0.68451,0 1.331391,-0.05556 1.916944,-0.159973 -0.45634,0.464375 -1.137037,0.955088 -1.975678,0.955088 z m 3.170634,-2.782746 c -0.583977,0.412457 -1.816868,0.667384 -3.21045,0.653883 -1.329916,-0.01186 -2.579334,-0.277533 -3.131885,-0.65637 -0.110348,-0.247955 -0.21144,-0.507012 -0.301396,-0.775973 0.190947,-0.04059 0.370554,-0.09407 0.539177,-0.157353 0.899306,0.191506 1.948828,0.287659 2.991077,0.287659 1.025011,0 2.041988,-0.09304 2.90097,-0.278599 0.161554,0.05938 0.333178,0.109743 0.514971,0.148337 -0.09026,0.269805 -0.191608,0.529751 -0.302464,0.778416 z m -0.292293,-2.542075 c -0.966431,-0.780148 -1.688673,-2.437485 -1.981424,-4.547117 -0.198829,-1.432476 -0.166996,-2.954044 0.0627,-4.007994 1.117713,0.537523 2.478953,1.498962 3.614922,2.57534 1.613311,1.528674 2.568248,3.062944 2.619913,4.20936 0.04099,0.908189 -0.468392,1.543952 -1.602936,2.000866 -1.104899,0.445057 -1.967084,0.371865 -2.713175,-0.230455 z"
       id="path3115-8-4"
       style="fill:#64a01f;fill-opacity:1;stroke-width:0.04752294" /></g></svg>