<?xml version="1.0" encoding="UTF-8" standalone="no"?>
<!-- Generator: Adobe Illustrator 15.0.0, SVG Export Plug-In . SVG Version: 6.00 Build 0)  -->

<svg
   xmlns:dc="http://purl.org/dc/elements/1.1/"
   xmlns:cc="http://creativecommons.org/ns#"
   xmlns:rdf="http://www.w3.org/1999/02/22-rdf-syntax-ns#"
   xmlns:svg="http://www.w3.org/2000/svg"
   xmlns="http://www.w3.org/2000/svg"
   xmlns:sodipodi="http://sodipodi.sourceforge.net/DTD/sodipodi-0.dtd"
   xmlns:inkscape="http://www.inkscape.org/namespaces/inkscape"
   version="1.1"
   id="Layer_1"
   x="0px"
   y="0px"
   width="76px"
   height="66px"
   viewBox="0 0 76 66"
   enable-background="new 0 0 76 66"
   xml:space="preserve"
   sodipodi:docname="Speaker_car.svg"
   inkscape:version="0.92.1 r15371"><metadata
     id="metadata72"><rdf:RDF><cc:Work
         rdf:about=""><dc:format>image/svg+xml</dc:format><dc:type
           rdf:resource="http://purl.org/dc/dcmitype/StillImage" /><dc:title></dc:title></cc:Work></rdf:RDF></metadata><defs
     id="defs70" /><sodipodi:namedview
     pagecolor="#ffffff"
     bordercolor="#666666"
     borderopacity="1"
     objecttolerance="10"
     gridtolerance="10"
     guidetolerance="10"
     inkscape:pageopacity="0"
     inkscape:pageshadow="2"
     inkscape:window-width="1115"
     inkscape:window-height="1008"
     id="namedview68"
     showgrid="true"
     inkscape:snap-bbox="true"
     inkscape:snap-object-midpoints="false"
     inkscape:snap-center="false"
     inkscape:zoom="11.313709"
     inkscape:cx="37.552528"
     inkscape:cy="35.465368"
     inkscape:window-x="0"
     inkscape:window-y="0"
     inkscape:window-maximized="0"
     inkscape:current-layer="Layer_1"
     inkscape:snap-others="false"
     showguides="false"><inkscape:grid
       type="xygrid"
       id="grid167" /></sodipodi:namedview><g
     id="g229"><rect
       id="rect47"
       height="14"
       width="8"
       y="23"
       x="16"
       fill="#64A01F" /><polygon
       id="polygon49"
       points="17,36 23,36 23,32.821 23,26.799 23,24 17,24 "
       fill="#FFFFFF" /><polygon
       id="polygon51"
       points="25,37 25,23 36,12 36,48 "
       fill="#64A01F" /><polygon
       id="polygon53"
       points="26,36.586 26,23.414 35,14.414 35,45.586 "
       fill="#FFFFFF" /><path
       id="path55"
       d="M36.182,35.343l1.172-1.042c1.422-1.266,2.238-3.07,2.238-4.952c0-1.751-0.682-3.406-1.92-4.658l-1.09-1.104  l3.393-3.395l1.104,1.114c2.138,2.16,3.313,5.016,3.313,8.042c0,3.246-1.399,6.355-3.844,8.531l-1.158,1.033L36.182,35.343z"
       fill="#64A01F" /><path
       id="path57"
       d="M40.368,22.011l-0.396-0.4l-1.979,1.98l0.392,0.396c1.424,1.44,2.208,3.345,2.208,5.361  c0,2.167-0.938,4.244-2.573,5.699l-0.42,0.374l1.871,2.082l0.416-0.371c2.229-1.985,3.508-4.823,3.508-7.784  C43.393,26.586,42.318,23.981,40.368,22.011z"
       fill="#FFFFFF" /><path
       id="path59"
       d="M40.26,39.882l1.164-1.044c2.709-2.417,4.262-5.876,4.262-9.489c0-3.377-1.313-6.56-3.703-8.963  l-1.096-1.104l3.396-3.394l1.104,1.11c3.288,3.31,5.102,7.695,5.102,12.351c0,4.976-2.135,9.737-5.857,13.064l-1.16,1.039  L40.26,39.882z"
       fill="#64A01F" /><path
       id="path61"
       d="M44.676,17.703l-0.396-0.399l-1.979,1.98l0.395,0.396c2.574,2.592,3.994,6.025,3.994,9.668  c0,3.896-1.674,7.628-4.596,10.234l-0.418,0.375l1.871,2.083l0.416-0.373c3.514-3.14,5.523-7.629,5.523-12.319  C49.486,24.96,47.777,20.824,44.676,17.703z"
       fill="#FFFFFF" /><path
       style="fill:#64a01f;fill-opacity:1"
       id="path63"
       d="M44.611,44.725l1.162-1.043c4.084-3.654,6.425-8.879,6.425-14.333c0-5.113-1.993-9.931-5.61-13.565  l-1.098-1.105l3.394-3.392l1.103,1.106C54.51,16.936,57,22.957,57,29.349c0,6.815-2.923,13.342-8.02,17.907l-1.16,1.038  L44.611,44.725z"
       fill="#64A01F" /><path
       id="path65"
       d="M49.277,13.099l-0.396-0.397l-1.98,1.979l0.396,0.397c3.806,3.823,5.902,8.892,5.902,14.271  c0,5.738-2.462,11.233-6.757,15.077l-0.418,0.375l1.873,2.083l0.416-0.373C53.198,42.136,56,35.88,56,29.349  C56,23.223,53.611,17.452,49.277,13.099z"
       fill="#FFFFFF" /></g><g
     style="fill:#64a01f;fill-opacity:1"
     id="g104"
     transform="matrix(0.03432343,0,0,0.03514143,54.614172,42.869492)" /><g
     style="fill:#64a01f;fill-opacity:1"
     id="g106"
     transform="matrix(0.03432343,0,0,0.03514143,54.614172,42.869492)" /><g
     style="fill:#64a01f;fill-opacity:1"
     id="g108"
     transform="matrix(0.03432343,0,0,0.03514143,54.614172,42.869492)" /><g
     style="fill:#64a01f;fill-opacity:1"
     id="g110"
     transform="matrix(0.03432343,0,0,0.03514143,54.614172,42.869492)" /><g
     style="fill:#64a01f;fill-opacity:1"
     id="g112"
     transform="matrix(0.03432343,0,0,0.03514143,54.614172,42.869492)" /><g
     style="fill:#64a01f;fill-opacity:1"
     id="g114"
     transform="matrix(0.03432343,0,0,0.03514143,54.614172,42.869492)" /><g
     style="fill:#64a01f;fill-opacity:1"
     id="g116"
     transform="matrix(0.03432343,0,0,0.03514143,54.614172,42.869492)" /><g
     style="fill:#64a01f;fill-opacity:1"
     id="g118"
     transform="matrix(0.03432343,0,0,0.03514143,54.614172,42.869492)" /><g
     style="fill:#64a01f;fill-opacity:1"
     id="g120"
     transform="matrix(0.03432343,0,0,0.03514143,54.614172,42.869492)" /><g
     style="fill:#64a01f;fill-opacity:1"
     id="g122"
     transform="matrix(0.03432343,0,0,0.03514143,54.614172,42.869492)" /><g
     style="fill:#64a01f;fill-opacity:1"
     id="g124"
     transform="matrix(0.03432343,0,0,0.03514143,54.614172,42.869492)" /><g
     style="fill:#64a01f;fill-opacity:1"
     id="g126"
     transform="matrix(0.03432343,0,0,0.03514143,54.614172,42.869492)" /><g
     style="fill:#64a01f;fill-opacity:1"
     id="g128"
     transform="matrix(0.03432343,0,0,0.03514143,54.614172,42.869492)" /><g
     style="fill:#64a01f;fill-opacity:1"
     id="g130"
     transform="matrix(0.03432343,0,0,0.03514143,54.614172,42.869492)" /><g
     style="fill:#64a01f;fill-opacity:1"
     id="g132"
     transform="matrix(0.03432343,0,0,0.03514143,54.614172,42.869492)" /><g
     id="g65"
     transform="matrix(0.0396087,0,0,0.03190745,56.239504,20.762376)" /><g
     id="g67"
     transform="matrix(0.0396087,0,0,0.03190745,56.239504,20.762376)" /><g
     id="g69"
     transform="matrix(0.0396087,0,0,0.03190745,56.239504,20.762376)" /><g
     id="g71"
     transform="matrix(0.0396087,0,0,0.03190745,56.239504,20.762376)" /><g
     id="g73"
     transform="matrix(0.0396087,0,0,0.03190745,56.239504,20.762376)" /><g
     id="g75"
     transform="matrix(0.0396087,0,0,0.03190745,56.239504,20.762376)" /><g
     id="g77"
     transform="matrix(0.0396087,0,0,0.03190745,56.239504,20.762376)" /><g
     id="g79"
     transform="matrix(0.0396087,0,0,0.03190745,56.239504,20.762376)" /><g
     id="g81"
     transform="matrix(0.0396087,0,0,0.03190745,56.239504,20.762376)" /><g
     id="g83"
     transform="matrix(0.0396087,0,0,0.03190745,56.239504,20.762376)" /><g
     id="g85"
     transform="matrix(0.0396087,0,0,0.03190745,56.239504,20.762376)" /><g
     id="g87"
     transform="matrix(0.0396087,0,0,0.03190745,56.239504,20.762376)" /><g
     id="g89"
     transform="matrix(0.0396087,0,0,0.03190745,56.239504,20.762376)" /><g
     id="g91"
     transform="matrix(0.0396087,0,0,0.03190745,56.239504,20.762376)" /><g
     id="g93"
     transform="matrix(0.0396087,0,0,0.03190745,56.239504,20.762376)" /><g
     id="g3399"
     transform="translate(-10.328282,-18.947126)"><path
       id="path3360"
       d="m 55.625,68.109375 c -0.760392,-0.265227 -1.636465,-0.277007 -2.449219,0.02539 -0.812752,0.302398 -1.408048,0.861861 -1.71289,1.523437 -0.152421,0.330788 -0.232119,0.68705 -0.230469,1.048828 0.0016,0.361779 0.08598,0.730419 0.259766,1.083985 0.0023,0.0041 0.0058,0.0056 0.0078,0.0098 0.05985,0.119802 0.128531,0.236294 0.207031,0.347657 0.0078,0.01101 0.01554,0.02228 0.02344,0.0332 0.07745,0.107926 0.164112,0.210893 0.257812,0.308593 0.0072,0.0074 0.01429,0.01408 0.02148,0.02148 0.08295,0.08361 0.171775,0.161938 0.265625,0.236328 0.0235,0.01875 0.04621,0.0385 0.07031,0.05664 0.101497,0.07708 0.208466,0.149463 0.320313,0.214843 0.0165,0.0096 0.03403,0.01609 0.05078,0.02539 0.100847,0.05586 0.205103,0.106664 0.3125,0.152344 0.02895,0.01239 0.05844,0.02549 0.08789,0.03711 0.125046,0.05011 0.253318,0.09328 0.384765,0.128906 0.01055,0.0028 0.02265,0.0051 0.0332,0.0078 0.123096,0.03093 0.248554,0.05438 0.375,0.07227 0.0344,0.005 0.06877,0.0097 0.103516,0.01367 0.263993,0.03391 0.532232,0.03743 0.796875,0.0078 0.03945,-0.004 0.07623,-0.01032 0.115234,-0.01563 0.08365,-0.01123 0.16825,-0.02613 0.25,-0.04297 0.0439,-0.0091 0.08766,-0.01864 0.13086,-0.0293 0.07805,-0.01918 0.154568,-0.04026 0.230468,-0.06445 0.03975,-0.01274 0.08014,-0.02501 0.119141,-0.03906 0.105847,-0.0378 0.208097,-0.08136 0.308594,-0.128907 0.0355,-0.01688 0.06887,-0.03672 0.103515,-0.05469 0.06855,-0.03558 0.135672,-0.07122 0.201172,-0.111328 0.0399,-0.0244 0.07869,-0.05024 0.117188,-0.07617 0.06115,-0.04128 0.121787,-0.08566 0.179687,-0.13086 0.03195,-0.02488 0.0649,-0.04825 0.0957,-0.07422 0.0866,-0.07243 0.167341,-0.148166 0.244141,-0.228516 0.0052,-0.0055 0.01053,-0.01208 0.01563,-0.01758 0.07205,-0.07813 0.138872,-0.159881 0.201172,-0.244141 0.289067,-0.38903 0.458148,-0.82734 0.501953,-1.27539 0.0438,-0.448051 -0.03865,-0.906069 -0.248047,-1.332032 C 57.029388,68.89248 56.385392,68.374602 55.625,68.109375 Z"
       style="opacity:1;fill:#ffffff;fill-opacity:1;stroke:none;stroke-width:0.244;stroke-linecap:round;stroke-linejoin:round;stroke-miterlimit:4;stroke-dasharray:none;stroke-opacity:1;paint-order:normal"
       inkscape:connector-curvature="0" /><path
       id="path3358"
       d="m 55.625,68.109375 c 0.760392,0.265227 1.404388,0.783105 1.751953,1.490234 0.209395,0.425963 0.291852,0.883981 0.248047,1.332032 -0.0438,0.44805 -0.212886,0.88636 -0.501953,1.27539 -0.0623,0.08426 -0.129124,0.166013 -0.201172,0.244141 -0.0051,0.0055 -0.01047,0.0121 -0.01563,0.01758 -0.0768,0.08035 -0.157543,0.156087 -0.244141,0.228516 -0.0308,0.02597 -0.06375,0.04934 -0.0957,0.07422 -0.0579,0.0452 -0.118539,0.08958 -0.179687,0.13086 -0.0385,0.02593 -0.07729,0.05177 -0.117188,0.07617 -0.0655,0.04011 -0.132624,0.07574 -0.201172,0.111328 -0.03465,0.01797 -0.06802,0.03781 -0.103515,0.05469 -0.100497,0.04755 -0.202747,0.09111 -0.308594,0.128907 -0.039,0.01405 -0.07939,0.02632 -0.119141,0.03906 -0.0759,0.02419 -0.15242,0.04527 -0.230468,0.06445 -0.0432,0.01066 -0.08696,0.02021 -0.13086,0.0293 -0.08175,0.01684 -0.166352,0.03174 -0.25,0.04297 -0.039,0.0053 -0.07579,0.01162 -0.115234,0.01563 -0.264643,0.02962 -0.532882,0.0261 -0.796875,-0.0078 -0.03475,-0.004 -0.06912,-0.0087 -0.103516,-0.01367 -0.126446,-0.01788 -0.251904,-0.04134 -0.375,-0.07227 -0.01055,-0.0027 -0.02265,-0.005 -0.0332,-0.0078 -0.131447,-0.03563 -0.259719,-0.0788 -0.384765,-0.128906 -0.02945,-0.01162 -0.05894,-0.02472 -0.08789,-0.03711 -0.107397,-0.04568 -0.211653,-0.09649 -0.3125,-0.152344 -0.01675,-0.0093 -0.03428,-0.01578 -0.05078,-0.02539 -0.111847,-0.06538 -0.218816,-0.137759 -0.320313,-0.214843 -0.0241,-0.01814 -0.04681,-0.03789 -0.07031,-0.05664 -0.09385,-0.07439 -0.182677,-0.152719 -0.265625,-0.236328 -0.0072,-0.0074 -0.01429,-0.01404 -0.02148,-0.02148 -0.0937,-0.0977 -0.180364,-0.200667 -0.257812,-0.308593 -0.0079,-0.01092 -0.01569,-0.02219 -0.02344,-0.0332 -0.0785,-0.111363 -0.147183,-0.227855 -0.207031,-0.347657 -0.002,-0.0042 -0.0055,-0.0057 -0.0078,-0.0098 -0.173783,-0.353566 -0.258116,-0.722206 -0.259766,-1.083985 -0.0016,-0.361778 0.07805,-0.71804 0.230469,-1.048828 0.304842,-0.661576 0.900138,-1.221039 1.71289,-1.523437 0.812754,-0.302398 1.688827,-0.290618 2.449219,-0.02539 z"
       style="opacity:1;fill:#ffffff;fill-opacity:1;stroke:none;stroke-width:0.244;stroke-linecap:round;stroke-linejoin:round;stroke-miterlimit:4;stroke-dasharray:none;stroke-opacity:1;paint-order:normal"
       inkscape:connector-curvature="0" /><path
       id="path3356"
       d="m 67.90625,67.972656 c -0.800697,-0.149508 -1.666173,-0.03269 -2.408203,0.384766 -0.74203,0.417458 -1.218786,1.057263 -1.390625,1.753906 -0.08592,0.348322 -0.09534,0.710206 -0.02344,1.066406 0.0719,0.356201 0.224938,0.706497 0.464844,1.029297 0.0623,0.08422 0.129122,0.166011 0.201172,0.244141 0.0052,0.0055 0.0085,0.01208 0.01367,0.01758 0.07685,0.08039 0.159444,0.156086 0.246094,0.228516 0.03065,0.02589 0.0639,0.04942 0.0957,0.07422 0.05795,0.04533 0.116384,0.08953 0.177734,0.13086 0.0385,0.02589 0.07734,0.05177 0.117188,0.07617 0.06545,0.04006 0.132571,0.07575 0.201171,0.111328 0.03465,0.01797 0.06807,0.03781 0.103516,0.05469 0.100497,0.04755 0.2047,0.09111 0.310547,0.128907 0.03895,0.01405 0.07944,0.02636 0.119141,0.03906 0.07595,0.02423 0.152318,0.04527 0.230468,0.06445 0.0432,0.01062 0.08696,0.0202 0.13086,0.0293 0.08185,0.01684 0.164347,0.03175 0.248047,0.04297 0.03895,0.0053 0.07774,0.01162 0.117187,0.01563 0.248193,0.02758 0.499853,0.02758 0.748047,0 0.03945,-0.004 0.07819,-0.01032 0.117187,-0.01563 0.08365,-0.01123 0.166297,-0.02613 0.248047,-0.04297 0.0439,-0.0091 0.08766,-0.01864 0.13086,-0.0293 0.07805,-0.01918 0.154568,-0.04026 0.230469,-0.06445 0.03975,-0.01274 0.08014,-0.02501 0.11914,-0.03906 0.105797,-0.0378 0.21005,-0.08136 0.310547,-0.128907 0.0355,-0.01688 0.06887,-0.03672 0.103516,-0.05469 0.06855,-0.03558 0.135671,-0.07122 0.201171,-0.111328 0.0399,-0.0244 0.07869,-0.05024 0.117188,-0.07617 0.06115,-0.04128 0.119834,-0.08566 0.177734,-0.13086 0.03195,-0.02488 0.0649,-0.04825 0.0957,-0.07422 0.0866,-0.07243 0.169293,-0.148166 0.246093,-0.228516 0.0052,-0.0055 0.0086,-0.01208 0.01367,-0.01758 0.07205,-0.07813 0.138872,-0.159921 0.201172,-0.244141 0.341891,-0.460002 0.513672,-0.985855 0.513672,-1.511719 0,-0.525863 -0.171781,-1.051672 -0.513672,-1.511718 -0.479812,-0.645601 -1.214928,-1.06143 -2.015625,-1.210938 z"
       style="opacity:1;fill:#ffffff;fill-opacity:1;stroke:none;stroke-width:0.244;stroke-linecap:round;stroke-linejoin:round;stroke-miterlimit:4;stroke-dasharray:none;stroke-opacity:1;paint-order:normal"
       inkscape:connector-curvature="0" /><path
       id="path3354"
       d="m 67.90625,67.972656 c 0.800697,0.149508 1.535813,0.565337 2.015625,1.210938 0.341891,0.460046 0.513672,0.985855 0.513672,1.511718 0,0.525864 -0.171781,1.051717 -0.513672,1.511719 -0.0623,0.08422 -0.129124,0.166013 -0.201172,0.244141 -0.0051,0.0055 -0.0085,0.0121 -0.01367,0.01758 -0.0768,0.08035 -0.159497,0.156087 -0.246093,0.228516 -0.0308,0.02597 -0.06375,0.04934 -0.0957,0.07422 -0.0579,0.0452 -0.116586,0.08958 -0.177734,0.13086 -0.0385,0.02593 -0.07729,0.05177 -0.117188,0.07617 -0.0655,0.04011 -0.132623,0.07574 -0.201171,0.111328 -0.03465,0.01797 -0.06802,0.03781 -0.103516,0.05469 -0.100497,0.04755 -0.20475,0.09111 -0.310547,0.128907 -0.039,0.01405 -0.07939,0.02632 -0.11914,0.03906 -0.0759,0.02419 -0.152421,0.04527 -0.230469,0.06445 -0.0432,0.01066 -0.08696,0.02021 -0.13086,0.0293 -0.08175,0.01684 -0.164398,0.03174 -0.248047,0.04297 -0.039,0.0053 -0.07774,0.01162 -0.117187,0.01563 -0.248194,0.02758 -0.499854,0.02758 -0.748047,0 -0.03945,-0.004 -0.07824,-0.01036 -0.117187,-0.01563 -0.0837,-0.01122 -0.1662,-0.02613 -0.248047,-0.04297 -0.0439,-0.0091 -0.08766,-0.01868 -0.13086,-0.0293 -0.07815,-0.01918 -0.15452,-0.04022 -0.230468,-0.06445 -0.0397,-0.0127 -0.0802,-0.02501 -0.119141,-0.03906 -0.105847,-0.0378 -0.21005,-0.08136 -0.310547,-0.128907 -0.03545,-0.01688 -0.06887,-0.03672 -0.103516,-0.05469 -0.0686,-0.03558 -0.135722,-0.07126 -0.201171,-0.111328 -0.03985,-0.0244 -0.07869,-0.05028 -0.117188,-0.07617 -0.06135,-0.04133 -0.119785,-0.08553 -0.177734,-0.13086 -0.0318,-0.0248 -0.06505,-0.04833 -0.0957,-0.07422 -0.08665,-0.07243 -0.169246,-0.148126 -0.246094,-0.228516 -0.0052,-0.0055 -0.0085,-0.01206 -0.01367,-0.01758 -0.07205,-0.07813 -0.138873,-0.159923 -0.201172,-0.244141 -0.239906,-0.3228 -0.392942,-0.673096 -0.464844,-1.029297 -0.0719,-0.3562 -0.06248,-0.718084 0.02344,-1.066406 0.171839,-0.696643 0.648595,-1.336448 1.390625,-1.753906 0.74203,-0.417459 1.607506,-0.534274 2.408203,-0.384766 z"
       style="opacity:1;fill:#ffffff;fill-opacity:1;stroke:none;stroke-width:0.244;stroke-linecap:round;stroke-linejoin:round;stroke-miterlimit:4;stroke-dasharray:none;stroke-opacity:1;paint-order:normal"
       inkscape:connector-curvature="0" /><path
       id="path3352"
       d="m 59.484375,60.123047 c -1.105922,0.02935 -2.186515,0.24592 -3.183594,0.628906 -0.997079,0.382987 -1.911572,0.931813 -2.68164,1.623047 -0.770069,0.691234 -1.397377,1.52638 -1.822266,2.480469 -0.03525,0.08178 -0.102003,0.148516 -0.189453,0.191406 -0.810453,0.39175 -1.413597,0.999255 -1.753906,1.703125 -0.34031,0.70387 -0.416769,1.505207 -0.171875,2.283203 0.04125,0.131591 -0.0037,0.271185 -0.117188,0.365235 -0.294642,0.241518 -0.461537,0.579455 -0.460937,0.93164 0.0053,0.344616 0.162063,0.65686 0.417968,0.888672 0.255906,0.231812 0.61032,0.381881 1.00586,0.400391 -0.234294,-0.742912 -0.183207,-1.531109 0.146484,-2.246094 0.208457,-0.452053 0.511763,-0.84664 0.882813,-1.171875 0.37105,-0.325235 0.810006,-0.580421 1.287109,-0.757813 0.477103,-0.177392 0.992917,-0.276631 1.519531,-0.285156 0.526615,-0.0085 1.064399,0.07254 1.583985,0.253906 0.519573,0.181367 0.971889,0.446701 1.345703,0.769532 0.373813,0.32283 0.669158,0.704039 0.873047,1.11914 0.203888,0.415101 0.316373,0.864087 0.326172,1.322266 0.0098,0.458179 -0.08256,0.924889 -0.291016,1.376953 h 5.269531 c -0.192419,-0.419568 -0.289062,-0.862951 -0.289062,-1.306641 0,-0.443689 0.09664,-0.887072 0.289062,-1.30664 0.207407,-0.452238 0.510645,-0.846149 0.880859,-1.171875 0.370215,-0.325726 0.806657,-0.583612 1.283204,-0.761719 0.476546,-0.178107 0.993127,-0.277729 1.519531,-0.287109 0.526404,-0.0094 1.064198,0.0715 1.583984,0.251953 0.519786,0.180453 0.971325,0.443521 1.345703,0.765625 0.374379,0.322103 0.67029,0.70257 0.875,1.117187 0.204711,0.414618 0.319297,0.864271 0.330078,1.322266 C 71.299844,71.081042 71.207407,71.547763 71,72 h 0.386719 c 0.506811,-0.32665 0.909935,-0.747445 1.185547,-1.224609 0.275611,-0.477164 0.424978,-1.009871 0.423828,-1.558594 -0.0029,-0.108187 -0.01129,-0.216728 -0.02539,-0.324219 -0.06492,-0.495489 -0.242837,-0.956592 -0.507812,-1.365234 -0.264976,-0.408642 -0.617446,-0.765037 -1.033203,-1.052735 -0.415758,-0.287697 -0.894841,-0.506017 -1.41211,-0.638671 -0.517269,-0.132655 -1.073069,-0.179534 -1.642578,-0.123047 -0.209344,0.02132 -0.405691,-0.09305 -0.462891,-0.269532 -0.372814,-1.104167 -1.030148,-2.10236 -1.902343,-2.927734 -0.872196,-0.825374 -1.959993,-1.478747 -3.19336,-1.894531 -1.096595,-0.369684 -2.226109,-0.527395 -3.332031,-0.498047 z"
       style="opacity:1;fill:#ffffff;fill-opacity:1;stroke:none;stroke-width:0.244;stroke-linecap:round;stroke-linejoin:round;stroke-miterlimit:4;stroke-dasharray:none;stroke-opacity:1;paint-order:normal"
       inkscape:connector-curvature="0" /><path
       id="path3350"
       d="m 60.464844,59.400391 c -1.214207,-0.08223 -2.467546,0.04152 -3.695313,0.398437 -1.29914,0.377655 -2.469651,0.993945 -3.445312,1.791016 -0.975661,0.797071 -1.756574,1.774564 -2.271485,2.878906 -0.899501,0.469029 -1.575495,1.162453 -1.970703,1.960938 -0.395208,0.798484 -0.509647,1.702891 -0.283203,2.59375 -0.356691,0.364278 -0.550478,0.828085 -0.548828,1.30664 0.0055,0.567603 0.274358,1.079856 0.705078,1.449219 0.43072,0.369362 1.023374,0.595212 1.675781,0.591797 0.07785,0 0.153721,-0.0032 0.230469,-0.0098 0.0816,0.130939 0.17349,0.257973 0.273438,0.378906 0.02085,0.02562 0.04285,0.04912 0.06445,0.07422 0.07955,0.09196 0.164708,0.180972 0.253906,0.265625 0.0278,0.02641 0.05343,0.05249 0.08203,0.07813 0.109447,0.09814 0.225961,0.190864 0.347656,0.277344 0.03135,0.02219 0.0636,0.04114 0.0957,0.0625 0.09735,0.06482 0.198887,0.12639 0.302734,0.183594 0.0433,0.02375 0.08651,0.04799 0.130859,0.07031 0.118696,0.05999 0.240138,0.114907 0.365235,0.164063 0.0216,0.0085 0.0426,0.01726 0.06445,0.02539 0.149646,0.05533 0.302689,0.103427 0.458984,0.142578 0.03965,0.01005 0.08105,0.01834 0.121094,0.02734 0.123097,0.02775 0.247753,0.05065 0.375,0.06836 0.04565,0.0064 0.09072,0.01257 0.136719,0.01758 0.317392,0.0378 0.63899,0.03944 0.957031,0.0059 0.05125,-0.005 0.101596,-0.01288 0.152344,-0.01953 0.09675,-0.0127 0.192662,-0.0263 0.287109,-0.04492 0.0612,-0.01201 0.121342,-0.02662 0.181641,-0.04102 0.081,-0.01944 0.161336,-0.04078 0.240234,-0.06445 0.06455,-0.01927 0.128208,-0.04044 0.191406,-0.0625 0.0713,-0.02493 0.139737,-0.05176 0.208985,-0.08008 0.06465,-0.02636 0.130411,-0.05076 0.193359,-0.08008 0.07,-0.03267 0.135626,-0.07136 0.203125,-0.107422 0.102147,-0.05455 0.202581,-0.111491 0.298828,-0.173828 0.06415,-0.04154 0.128255,-0.08228 0.189453,-0.126953 0.0518,-0.03793 0.100693,-0.07886 0.150391,-0.119141 0.06045,-0.04881 0.120785,-0.09849 0.177734,-0.150391 0.0433,-0.03959 0.08365,-0.07959 0.125,-0.121093 0.06225,-0.06225 0.12249,-0.127368 0.179688,-0.19336 0.02255,-0.02601 0.04851,-0.04951 0.07031,-0.07617 h 6.191407 c 0.0218,0.02662 0.04776,0.05016 0.07031,0.07617 0.05725,0.06604 0.115386,0.131023 0.177735,0.19336 0.04125,0.04133 0.08391,0.08176 0.126953,0.121093 0.05705,0.05198 0.117186,0.101539 0.177734,0.150391 0.0497,0.04024 0.09865,0.08125 0.150391,0.119141 0.0612,0.04468 0.125305,0.08545 0.189453,0.126953 0.09645,0.06247 0.194878,0.119408 0.296875,0.173828 0.0675,0.03611 0.13508,0.07475 0.205078,0.107422 0.0629,0.02928 0.126808,0.05371 0.191406,0.08008 0.0693,0.02832 0.13954,0.05511 0.210938,0.08008 0.06315,0.02201 0.126958,0.04323 0.191406,0.0625 0.079,0.02366 0.159186,0.04501 0.240234,0.06445 0.0603,0.0144 0.120443,0.02906 0.181641,0.04102 0.09445,0.01862 0.190312,0.03222 0.287109,0.04492 0.05075,0.0067 0.101095,0.01453 0.152344,0.01953 0.301942,0.03154 0.606262,0.03154 0.908203,0 0.05125,-0.005 0.101596,-0.01288 0.152344,-0.01953 0.09675,-0.0127 0.192661,-0.0263 0.287109,-0.04492 0.0612,-0.01201 0.121342,-0.02662 0.181641,-0.04102 0.081,-0.01944 0.161336,-0.04078 0.240234,-0.06445 0.06455,-0.01927 0.128209,-0.04044 0.191407,-0.0625 0.0713,-0.02493 0.141689,-0.05176 0.210937,-0.08008 0.06465,-0.02636 0.128458,-0.05271 0.191406,-0.08203 0.07,-0.03267 0.137579,-0.06941 0.205078,-0.105469 0.102147,-0.05455 0.200627,-0.111491 0.296875,-0.173828 0.06415,-0.04154 0.128255,-0.08424 0.189454,-0.128906 0.0518,-0.03793 0.100692,-0.07691 0.15039,-0.117188 0.06045,-0.04881 0.120785,-0.09849 0.177734,-0.150391 0.0433,-0.03959 0.08561,-0.08155 0.126954,-0.123046 0.06225,-0.06225 0.120536,-0.125459 0.177734,-0.191407 0.02255,-0.02601 0.04851,-0.04951 0.07031,-0.07617 h 0.847657 c 0.186895,2.17e-4 0.369685,-0.05126 0.519531,-0.148438 0.612583,-0.39747 1.09875,-0.90958 1.431641,-1.488281 0.332891,-0.578701 0.513218,-1.225776 0.511718,-1.890625 -0.0061,-0.593685 -0.151152,-1.157193 -0.40625,-1.669922 -0.255097,-0.512729 -0.621467,-0.973231 -1.072265,-1.359375 -0.450799,-0.386144 -0.986835,-0.69818 -1.580078,-0.912109 -0.593243,-0.21393 -1.24335,-0.330088 -1.925782,-0.326172 -0.07915,0 -0.157123,0.0012 -0.232422,0.0039 -0.410213,-1.068224 -1.050038,-2.013793 -1.855468,-2.808594 -0.80543,-0.7948 -1.776182,-1.438161 -2.84961,-1.904297 -1.073427,-0.466136 -2.248684,-0.75566 -3.46289,-0.83789 z m -0.980469,0.722656 c 1.105922,-0.02935 2.235436,0.128363 3.332031,0.498047 1.233367,0.415784 2.321164,1.069157 3.19336,1.894531 0.872195,0.825374 1.529529,1.823567 1.902343,2.927734 0.0572,0.176484 0.253547,0.290847 0.462891,0.269532 0.569509,-0.05649 1.125309,-0.0096 1.642578,0.123047 0.517269,0.132654 0.996352,0.350974 1.41211,0.638671 0.415757,0.287698 0.768227,0.644093 1.033203,1.052735 0.264975,0.408642 0.442889,0.869745 0.507812,1.365234 0.0141,0.107491 0.02244,0.216032 0.02539,0.324219 0.0011,0.548723 -0.148217,1.08143 -0.423828,1.558594 C 72.296654,71.252555 71.89353,71.67335 71.386719,72 H 71 c 0.207407,-0.452237 0.299844,-0.918958 0.289062,-1.376953 -0.01078,-0.457995 -0.125367,-0.907648 -0.330078,-1.322266 -0.20471,-0.414617 -0.500621,-0.795084 -0.875,-1.117187 -0.374378,-0.322104 -0.825917,-0.585172 -1.345703,-0.765625 -0.519786,-0.180454 -1.05758,-0.261334 -1.583984,-0.251953 -0.526404,0.0094 -1.042985,0.109002 -1.519531,0.287109 -0.476547,0.178107 -0.912989,0.435993 -1.283204,0.761719 -0.370214,0.325726 -0.673452,0.719637 -0.880859,1.171875 -0.192419,0.419568 -0.289062,0.862951 -0.289062,1.30664 0,0.44369 0.09664,0.887073 0.289062,1.306641 h -5.269531 c 0.208457,-0.452064 0.300814,-0.918774 0.291016,-1.376953 -0.0098,-0.458179 -0.122284,-0.907165 -0.326172,-1.322266 -0.203889,-0.415101 -0.499234,-0.79631 -0.873047,-1.11914 -0.373814,-0.322831 -0.82613,-0.588165 -1.345703,-0.769532 -0.519586,-0.181367 -1.05737,-0.262431 -1.583985,-0.253906 -0.526614,0.0085 -1.042428,0.107764 -1.519531,0.285156 -0.477103,0.177392 -0.916059,0.432578 -1.287109,0.757813 -0.37105,0.325235 -0.674356,0.719822 -0.882813,1.171875 -0.329691,0.714985 -0.380778,1.503182 -0.146484,2.246094 -0.39554,-0.01851 -0.749954,-0.168579 -1.00586,-0.400391 -0.255905,-0.231812 -0.412668,-0.544056 -0.417968,-0.888672 -6e-4,-0.352185 0.166295,-0.690122 0.460937,-0.93164 0.113497,-0.09405 0.158437,-0.233644 0.117188,-0.365235 -0.244894,-0.777996 -0.168435,-1.579333 0.171875,-2.283203 0.340309,-0.70387 0.943453,-1.311375 1.753906,-1.703125 0.08745,-0.04289 0.154204,-0.109624 0.189453,-0.191406 0.424889,-0.954089 1.052197,-1.789235 1.822266,-2.480469 0.770068,-0.691234 1.684561,-1.24006 2.68164,-1.623047 0.997079,-0.382986 2.077672,-0.599558 3.183594,-0.628906 z"
       style="opacity:1;fill:#ffffff;fill-opacity:1;stroke:none;stroke-width:0.244;stroke-linecap:round;stroke-linejoin:round;stroke-miterlimit:4;stroke-dasharray:none;stroke-opacity:1;paint-order:normal"
       inkscape:connector-curvature="0" /><g
       style="fill:#64a01f;fill-opacity:1"
       transform="matrix(0.04999865,0,0,0.04350112,48.248612,55.665814)"
       id="g3328"><g
         style="fill:#64a01f;fill-opacity:1"
         id="g3235"><g
           style="fill:#64a01f;fill-opacity:1"
           id="g3233"><path
             style="fill:#64a01f;fill-opacity:1"
             inkscape:connector-curvature="0"
             d="m 412.329,213.359 c -1.583,0 -3.128,0.031 -4.634,0.092 C 374.877,115.226 268.645,62.205 170.421,95.024 118.454,112.387 76.681,151.611 56.084,202.384 20.103,223.948 1.947,266.109 11.005,307.067 3.871,315.441 -0.033,326.091 0,337.092 c 0.22,26.096 21.52,47.09 47.617,46.933 1.557,0 3.103,-0.076 4.638,-0.228 1.632,3.01 3.453,5.913 5.452,8.693 0.417,0.589 0.859,1.149 1.291,1.726 1.591,2.114 3.279,4.144 5.063,6.09 0.556,0.607 1.086,1.235 1.658,1.824 2.189,2.256 4.506,4.384 6.94,6.372 0.627,0.51 1.295,0.958 1.937,1.449 1.947,1.49 3.958,2.893 6.035,4.208 0.866,0.546 1.732,1.08 2.619,1.593 2.374,1.379 4.818,2.637 7.32,3.767 0.432,0.195 0.842,0.43 1.279,0.617 2.993,1.272 6.061,2.36 9.187,3.26 0.793,0.231 1.599,0.411 2.4,0.618 2.462,0.638 4.965,1.16 7.51,1.567 0.913,0.146 1.818,0.304 2.738,0.419 6.348,0.869 12.782,0.919 19.143,0.147 1.025,-0.115 2.026,-0.313 3.041,-0.466 1.935,-0.292 3.857,-0.615 5.746,-1.043 1.224,-0.276 2.425,-0.605 3.631,-0.936 1.62,-0.447 3.219,-0.935 4.797,-1.479 1.291,-0.443 2.571,-0.9 3.835,-1.407 1.426,-0.573 2.813,-1.214 4.198,-1.865 1.293,-0.606 2.594,-1.185 3.853,-1.859 1.4,-0.751 2.734,-1.602 4.084,-2.431 2.043,-1.254 4.027,-2.598 5.952,-4.031 1.283,-0.955 2.576,-1.895 3.8,-2.922 1.036,-0.872 2.015,-1.81 3.009,-2.736 1.209,-1.122 2.394,-2.262 3.533,-3.455 0.866,-0.91 1.709,-1.836 2.536,-2.79 1.245,-1.431 2.422,-2.912 3.566,-4.429 0.451,-0.598 0.967,-1.13 1.403,-1.743 h 123.85 c 0.436,0.612 0.951,1.143 1.402,1.741 1.145,1.518 2.324,3.002 3.571,4.435 0.825,0.95 1.668,1.878 2.529,2.782 1.141,1.195 2.327,2.337 3.538,3.46 0.994,0.925 1.972,1.863 3.007,2.734 1.224,1.027 2.517,1.968 3.8,2.922 1.929,1.436 3.912,2.78 5.952,4.031 1.35,0.83 2.684,1.68 4.084,2.431 1.258,0.673 2.558,1.252 3.85,1.858 1.386,0.651 2.774,1.293 4.202,1.867 1.263,0.506 2.542,0.962 3.831,1.405 1.58,0.544 3.179,1.033 4.8,1.48 1.206,0.331 2.406,0.66 3.63,0.935 1.889,0.428 3.81,0.751 5.746,1.043 1.015,0.153 2.016,0.351 3.041,0.466 6.039,0.725 12.143,0.725 18.182,0 1.025,-0.115 2.026,-0.313 3.041,-0.466 1.935,-0.292 3.857,-0.615 5.746,-1.043 1.224,-0.276 2.425,-0.605 3.631,-0.936 1.62,-0.447 3.219,-0.935 4.797,-1.479 1.291,-0.443 2.571,-0.9 3.835,-1.407 1.426,-0.573 2.813,-1.214 4.198,-1.865 1.293,-0.606 2.594,-1.185 3.853,-1.859 1.4,-0.751 2.734,-1.602 4.084,-2.431 2.043,-1.254 4.027,-2.598 5.952,-4.031 1.283,-0.955 2.576,-1.895 3.8,-2.922 1.036,-0.872 2.015,-1.81 3.009,-2.736 1.209,-1.122 2.394,-2.262 3.533,-3.455 0.866,-0.91 1.709,-1.836 2.536,-2.79 1.245,-1.431 2.422,-2.913 3.566,-4.429 0.451,-0.598 0.967,-1.13 1.403,-1.743 h 16.963 c 3.738,0.005 7.378,-1.199 10.375,-3.433 24.504,-18.274 38.914,-47.066 38.854,-77.633 -0.491,-54.59 -45.077,-98.488 -99.673,-98.128 z M 177.477,380.253 v 0 c -1.246,1.937 -2.592,3.806 -4.033,5.602 -0.102,0.127 -0.19,0.266 -0.293,0.392 -1.536,1.847 -3.175,3.606 -4.907,5.271 -0.616,0.597 -1.265,1.158 -1.904,1.73 -1.158,1.039 -2.349,2.033 -3.572,2.982 -0.77,0.596 -1.542,1.19 -2.34,1.751 -1.31,0.922 -2.666,1.768 -4.037,2.586 -0.693,0.413 -1.357,0.869 -2.067,1.257 -2.01,1.093 -4.078,2.076 -6.195,2.945 -0.78,0.323 -1.591,0.582 -2.386,0.875 -1.518,0.556 -3.049,1.074 -4.61,1.515 -0.864,0.245 -1.739,0.465 -2.617,0.674 -1.635,0.387 -3.293,0.701 -4.966,0.959 -0.78,0.121 -1.551,0.266 -2.34,0.358 -5.293,0.681 -10.655,0.63 -15.935,-0.15 -0.695,-0.093 -1.383,-0.203 -2.071,-0.317 -2.529,-0.411 -5.03,-0.973 -7.492,-1.684 -0.211,-0.062 -0.432,-0.101 -0.643,-0.166 -2.629,-0.819 -5.203,-1.807 -7.704,-2.959 -0.589,-0.267 -1.164,-0.556 -1.743,-0.841 -2.148,-1.05 -4.234,-2.22 -6.251,-3.504 -0.335,-0.214 -0.689,-0.399 -1.019,-0.62 -2.237,-1.503 -4.377,-3.145 -6.407,-4.917 -0.482,-0.417 -0.945,-0.855 -1.415,-1.286 -1.877,-1.71 -3.65,-3.531 -5.309,-5.453 -0.145,-0.169 -0.307,-0.324 -0.451,-0.495 -1.874,-2.246 -3.592,-4.617 -5.141,-7.098 -0.158,-0.251 -0.308,-0.507 -0.463,-0.76 -1.57,-2.56 -2.958,-5.226 -4.155,-7.98 -0.041,-0.096 -0.123,-0.159 -0.168,-0.253 -13.903,-32.511 1.181,-70.137 33.692,-84.04 32.511,-13.903 70.137,1.181 84.04,33.692 8.376,19.584 6.465,42.048 -5.098,59.934 z m 255.999,0 v 0 c -1.246,1.936 -2.592,3.806 -4.033,5.602 -0.102,0.127 -0.19,0.266 -0.293,0.392 -1.536,1.847 -3.175,3.606 -4.907,5.271 -0.616,0.597 -1.265,1.158 -1.904,1.73 -1.158,1.039 -2.349,2.033 -3.572,2.982 -0.77,0.596 -1.542,1.19 -2.34,1.751 -1.31,0.922 -2.666,1.768 -4.037,2.586 -0.693,0.413 -1.357,0.869 -2.067,1.257 -2.01,1.093 -4.079,2.076 -6.195,2.945 -0.78,0.323 -1.591,0.582 -2.386,0.875 -1.518,0.556 -3.049,1.074 -4.61,1.515 -0.864,0.245 -1.739,0.465 -2.617,0.674 -1.635,0.387 -3.293,0.701 -4.966,0.959 -0.78,0.121 -1.551,0.266 -2.34,0.358 -4.964,0.634 -9.989,0.634 -14.953,0 -0.789,-0.092 -1.56,-0.237 -2.339,-0.358 -1.674,-0.258 -3.331,-0.572 -4.968,-0.959 -0.878,-0.209 -1.75,-0.429 -2.614,-0.673 -1.563,-0.441 -3.095,-0.959 -4.614,-1.516 -0.794,-0.292 -1.606,-0.552 -2.385,-0.875 -2.117,-0.869 -4.185,-1.852 -6.195,-2.945 -0.709,-0.388 -1.374,-0.844 -2.067,-1.257 -1.372,-0.818 -2.728,-1.665 -4.037,-2.586 -0.797,-0.561 -1.569,-1.155 -2.339,-1.75 -1.227,-0.95 -2.419,-1.945 -3.578,-2.987 -0.636,-0.57 -1.283,-1.129 -1.896,-1.724 -1.733,-1.665 -3.372,-3.426 -4.909,-5.274 -0.104,-0.126 -0.191,-0.265 -0.293,-0.392 -1.441,-1.796 -2.787,-3.666 -4.033,-5.602 -19.193,-29.682 -10.69,-69.302 18.992,-88.495 29.682,-19.193 69.302,-10.69 88.495,18.992 13.676,21.151 13.676,48.355 0,69.504 z m 29.295,-4.761 h -7.744 c 16.593,-41.584 -3.666,-88.745 -45.25,-105.338 -41.584,-16.593 -88.745,3.666 -105.338,45.25 -7.697,19.29 -7.697,40.798 0,60.088 H 199.028 c 16.677,-41.568 -3.501,-88.784 -45.068,-105.461 -41.568,-16.677 -88.784,3.501 -105.461,45.068 -6.594,16.436 -7.627,34.578 -2.941,51.656 -15.822,-0.851 -28.278,-13.819 -28.49,-29.663 -0.012,-8.096 3.324,-15.836 9.217,-21.388 2.27,-2.162 3.171,-5.396 2.346,-8.421 -9.796,-35.769 6.118,-73.601 38.537,-91.612 1.749,-0.986 3.095,-2.557 3.8,-4.437 33.992,-87.73 132.668,-131.294 220.398,-97.301 49.336,19.116 86.989,60.07 101.902,110.835 1.144,4.057 5.067,6.682 9.254,6.192 45.562,-5.194 86.707,27.531 91.901,73.092 0.282,2.471 0.452,4.954 0.511,7.441 0.046,25.228 -11.89,48.981 -32.163,63.999 z"
             id="path3231" /></g></g><g
         style="fill:#64a01f;fill-opacity:1"
         id="g3241"><g
           style="fill:#64a01f;fill-opacity:1"
           id="g3239"><path
             style="fill:#64a01f;fill-opacity:1"
             inkscape:connector-curvature="0"
             d="M 373.517,219.013 C 351.389,158.931 294.001,119.143 229.975,119.492 166.73,119.249 109.887,158.035 87.05,217.013 l -0.683,1.708 c -1.75,4.378 0.381,9.345 4.758,11.095 1.007,0.403 2.082,0.609 3.166,0.61 H 281.6 c 0.009,9.422 7.645,17.057 17.067,17.067 h 25.6 c 9.422,-0.009 17.057,-7.645 17.067,-17.067 h 24.15 c 4.712,0.001 8.533,-3.817 8.534,-8.529 0,-0.984 -0.169,-1.959 -0.501,-2.884 z m -202.85,-5.654 h -63.554 c 13.284,-27.767 35.728,-50.11 63.554,-63.268 z m 153.6,17.066 h -25.6 v -24.379 c 1.814,0.533 3.585,1.205 5.296,2.01 0.533,0.246 1.04,0.524 1.558,0.79 1.152,0.59 2.274,1.21 3.345,1.879 0.521,0.325 1.036,0.651 1.536,0.99 1.052,0.713 2.058,1.447 3.016,2.201 0.38,0.299 0.785,0.59 1.15,0.89 1.254,1.034 2.436,2.078 3.5,3.096 0.237,0.228 0.428,0.438 0.656,0.661 0.824,0.812 1.603,1.608 2.29,2.354 0.331,0.36 0.628,0.695 0.926,1.033 0.495,0.562 0.967,1.104 1.367,1.588 0.241,0.291 0.49,0.589 0.695,0.846 l 0.266,0.341 v 5.7 z m 12.787,-17.066 -0.26,-0.304 c -0.709,-0.87 -1.514,-1.82 -2.453,-2.869 l -0.233,-0.266 c -0.986,-1.091 -2.122,-2.261 -3.342,-3.464 -0.28,-0.277 -0.554,-0.542 -0.847,-0.822 -1.297,-1.243 -2.679,-2.505 -4.207,-3.774 -0.147,-0.122 -0.309,-0.24 -0.459,-0.362 -1.417,-1.16 -2.943,-2.298 -4.543,-3.412 -0.37,-0.258 -0.725,-0.512 -1.105,-0.766 -1.796,-1.201 -3.651,-2.31 -5.559,-3.323 -0.368,-0.195 -0.751,-0.368 -1.126,-0.557 -1.848,-0.932 -3.746,-1.761 -5.686,-2.484 -0.34,-0.127 -0.66,-0.272 -1.004,-0.393 -2.232,-0.769 -4.515,-1.382 -6.832,-1.833 -0.533,-0.106 -1.071,-0.189 -1.613,-0.278 -2.527,-0.44 -5.086,-0.672 -7.651,-0.694 -4.713,0 -8.533,3.82 -8.533,8.533 v 17.067 h -93.867 v -68.267 c -0.054,-0.572 -0.168,-1.138 -0.341,-1.686 13.745,-4.512 28.116,-6.823 42.582,-6.847 52.321,-0.263 100.113,29.635 122.763,76.8 h -15.684 z"
             id="path3237" /></g></g><g
         style="fill:#64a01f;fill-opacity:1"
         id="g3247"><g
           style="fill:#64a01f;fill-opacity:1"
           id="g3245"><path
             style="fill:#64a01f;fill-opacity:1"
             inkscape:connector-curvature="0"
             d="m 123.734,298.692 c -25.921,0 -46.933,21.013 -46.933,46.933 0,25.92 21.013,46.933 46.933,46.933 25.921,0 46.933,-21.013 46.933,-46.933 -0.029,-25.908 -21.025,-46.904 -46.933,-46.933 z m 0,76.8 c -16.495,0 -29.867,-13.372 -29.867,-29.867 0,-16.495 13.372,-29.867 29.867,-29.867 16.495,0 29.867,13.372 29.867,29.867 -0.021,16.487 -13.381,29.847 -29.867,29.867 z"
             id="path3243" /></g></g><g
         style="fill:#64a01f;fill-opacity:1"
         id="g3253"><g
           style="fill:#64a01f;fill-opacity:1"
           id="g3251"><path
             style="fill:#64a01f;fill-opacity:1"
             inkscape:connector-curvature="0"
             d="m 379.734,298.692 c -25.921,0 -46.933,21.013 -46.933,46.933 0,25.92 21.013,46.933 46.933,46.933 25.921,0 46.933,-21.013 46.933,-46.933 -0.029,-25.908 -21.025,-46.904 -46.933,-46.933 z m 0,76.8 c -16.495,0 -29.867,-13.372 -29.867,-29.867 0,-16.495 13.372,-29.867 29.867,-29.867 16.495,0 29.867,13.372 29.867,29.867 -0.021,16.487 -13.381,29.847 -29.867,29.867 z"
             id="path3249" /></g></g><g
         style="fill:#64a01f;fill-opacity:1"
         id="g3259"><g
           style="fill:#64a01f;fill-opacity:1"
           id="g3257"><path
             style="fill:#64a01f;fill-opacity:1"
             inkscape:connector-curvature="0"
             d="m 171.875,239.046 c -4.664,-0.667 -8.987,2.573 -9.654,7.238 -0.667,4.664 2.573,8.987 7.237,9.654 2.142,0.308 52.408,8.083 52.408,59.821 0,4.713 3.82,8.533 8.533,8.533 4.713,0 8.533,-3.82 8.533,-8.533 0.217,-38.832 -28.545,-71.735 -67.057,-76.713 z"
             id="path3255" /></g></g><g
         style="fill:#64a01f;fill-opacity:1"
         id="g3261" /><g
         style="fill:#64a01f;fill-opacity:1"
         id="g3263" /><g
         style="fill:#64a01f;fill-opacity:1"
         id="g3265" /><g
         style="fill:#64a01f;fill-opacity:1"
         id="g3267" /><g
         style="fill:#64a01f;fill-opacity:1"
         id="g3269" /><g
         style="fill:#64a01f;fill-opacity:1"
         id="g3271" /><g
         style="fill:#64a01f;fill-opacity:1"
         id="g3273" /><g
         style="fill:#64a01f;fill-opacity:1"
         id="g3275" /><g
         style="fill:#64a01f;fill-opacity:1"
         id="g3277" /><g
         style="fill:#64a01f;fill-opacity:1"
         id="g3279" /><g
         style="fill:#64a01f;fill-opacity:1"
         id="g3281" /><g
         style="fill:#64a01f;fill-opacity:1"
         id="g3283" /><g
         style="fill:#64a01f;fill-opacity:1"
         id="g3285" /><g
         style="fill:#64a01f;fill-opacity:1"
         id="g3287" /><g
         style="fill:#64a01f;fill-opacity:1"
         id="g3289" /></g></g></svg>