<?xml version="1.0" encoding="UTF-8" standalone="no"?>
<!-- Generator: Adobe Illustrator 15.0.0, SVG Export Plug-In . SVG Version: 6.00 Build 0)  -->

<svg
   xmlns:dc="http://purl.org/dc/elements/1.1/"
   xmlns:cc="http://creativecommons.org/ns#"
   xmlns:rdf="http://www.w3.org/1999/02/22-rdf-syntax-ns#"
   xmlns:svg="http://www.w3.org/2000/svg"
   xmlns="http://www.w3.org/2000/svg"
   xmlns:sodipodi="http://sodipodi.sourceforge.net/DTD/sodipodi-0.dtd"
   xmlns:inkscape="http://www.inkscape.org/namespaces/inkscape"
   version="1.1"
   id="Layer_1"
   x="0px"
   y="0px"
   width="76px"
   height="66px"
   viewBox="0 0 76 66"
   enable-background="new 0 0 76 66"
   xml:space="preserve"
   sodipodi:docname="Speaker_cat.svg"
   inkscape:version="0.92.1 r15371"><metadata
     id="metadata72"><rdf:RDF><cc:Work
         rdf:about=""><dc:format>image/svg+xml</dc:format><dc:type
           rdf:resource="http://purl.org/dc/dcmitype/StillImage" /><dc:title></dc:title></cc:Work></rdf:RDF></metadata><defs
     id="defs70" /><sodipodi:namedview
     pagecolor="#ffffff"
     bordercolor="#666666"
     borderopacity="1"
     objecttolerance="10"
     gridtolerance="10"
     guidetolerance="10"
     inkscape:pageopacity="0"
     inkscape:pageshadow="2"
     inkscape:window-width="1115"
     inkscape:window-height="1008"
     id="namedview68"
     showgrid="true"
     inkscape:snap-bbox="true"
     inkscape:snap-object-midpoints="false"
     inkscape:snap-center="false"
     inkscape:zoom="5.6568543"
     inkscape:cx="18.787005"
     inkscape:cy="35.448398"
     inkscape:window-x="0"
     inkscape:window-y="0"
     inkscape:window-maximized="0"
     inkscape:current-layer="Layer_1"><inkscape:grid
       type="xygrid"
       id="grid167" /></sodipodi:namedview><g
     id="g229"><rect
       id="rect47"
       height="14"
       width="8"
       fill="#64A01F"
       y="23"
       x="16" /><polygon
       id="polygon49"
       points="17,36 23,36 23,32.821 23,26.799 23,24 17,24 "
       fill="#FFFFFF" /><polygon
       id="polygon51"
       points="25,37 25,23 36,12 36,48 "
       fill="#64A01F" /><polygon
       id="polygon53"
       points="26,36.586 26,23.414 35,14.414 35,45.586 "
       fill="#FFFFFF" /><path
       id="path55"
       d="M36.182,35.343l1.172-1.042c1.422-1.266,2.238-3.07,2.238-4.952c0-1.751-0.682-3.406-1.92-4.658l-1.09-1.104  l3.393-3.395l1.104,1.114c2.138,2.16,3.313,5.016,3.313,8.042c0,3.246-1.399,6.355-3.844,8.531l-1.158,1.033L36.182,35.343z"
       fill="#64A01F" /><path
       id="path57"
       d="M40.368,22.011l-0.396-0.4l-1.979,1.98l0.392,0.396c1.424,1.44,2.208,3.345,2.208,5.361  c0,2.167-0.938,4.244-2.573,5.699l-0.42,0.374l1.871,2.082l0.416-0.371c2.229-1.985,3.508-4.823,3.508-7.784  C43.393,26.586,42.318,23.981,40.368,22.011z"
       fill="#FFFFFF" /><path
       id="path59"
       d="M40.26,39.882l1.164-1.044c2.709-2.417,4.262-5.876,4.262-9.489c0-3.377-1.313-6.56-3.703-8.963  l-1.096-1.104l3.396-3.394l1.104,1.11c3.288,3.31,5.102,7.695,5.102,12.351c0,4.976-2.135,9.737-5.857,13.064l-1.16,1.039  L40.26,39.882z"
       fill="#64A01F" /><path
       id="path61"
       d="M44.676,17.703l-0.396-0.399l-1.979,1.98l0.395,0.396c2.574,2.592,3.994,6.025,3.994,9.668  c0,3.896-1.674,7.628-4.596,10.234l-0.418,0.375l1.871,2.083l0.416-0.373c3.514-3.14,5.523-7.629,5.523-12.319  C49.486,24.96,47.777,20.824,44.676,17.703z"
       fill="#FFFFFF" /><path
       style="fill:#64a01f;fill-opacity:1"
       id="path63"
       d="M44.611,44.725l1.162-1.043c4.084-3.654,6.425-8.879,6.425-14.333c0-5.113-1.993-9.931-5.61-13.565  l-1.098-1.105l3.394-3.392l1.103,1.106C54.51,16.936,57,22.957,57,29.349c0,6.815-2.923,13.342-8.02,17.907l-1.16,1.038  L44.611,44.725z"
       fill="#64A01F" /><path
       fill="#FFFFFF"
       id="path65"
       d="M49.277,13.099l-0.396-0.397l-1.98,1.979l0.396,0.397c3.806,3.823,5.902,8.892,5.902,14.271  c0,5.738-2.462,11.233-6.757,15.077l-0.418,0.375l1.873,2.083l0.416-0.373C53.198,42.136,56,35.88,56,29.349  C56,23.223,53.611,17.452,49.277,13.099z" /></g><g
     style="fill:#64a01f;fill-opacity:1"
     id="g104"
     transform="matrix(0.03432343,0,0,0.03514143,54.614172,42.869492)" /><g
     style="fill:#64a01f;fill-opacity:1"
     id="g106"
     transform="matrix(0.03432343,0,0,0.03514143,54.614172,42.869492)" /><g
     style="fill:#64a01f;fill-opacity:1"
     id="g108"
     transform="matrix(0.03432343,0,0,0.03514143,54.614172,42.869492)" /><g
     style="fill:#64a01f;fill-opacity:1"
     id="g110"
     transform="matrix(0.03432343,0,0,0.03514143,54.614172,42.869492)" /><g
     style="fill:#64a01f;fill-opacity:1"
     id="g112"
     transform="matrix(0.03432343,0,0,0.03514143,54.614172,42.869492)" /><g
     style="fill:#64a01f;fill-opacity:1"
     id="g114"
     transform="matrix(0.03432343,0,0,0.03514143,54.614172,42.869492)" /><g
     style="fill:#64a01f;fill-opacity:1"
     id="g116"
     transform="matrix(0.03432343,0,0,0.03514143,54.614172,42.869492)" /><g
     style="fill:#64a01f;fill-opacity:1"
     id="g118"
     transform="matrix(0.03432343,0,0,0.03514143,54.614172,42.869492)" /><g
     style="fill:#64a01f;fill-opacity:1"
     id="g120"
     transform="matrix(0.03432343,0,0,0.03514143,54.614172,42.869492)" /><g
     style="fill:#64a01f;fill-opacity:1"
     id="g122"
     transform="matrix(0.03432343,0,0,0.03514143,54.614172,42.869492)" /><g
     style="fill:#64a01f;fill-opacity:1"
     id="g124"
     transform="matrix(0.03432343,0,0,0.03514143,54.614172,42.869492)" /><g
     style="fill:#64a01f;fill-opacity:1"
     id="g126"
     transform="matrix(0.03432343,0,0,0.03514143,54.614172,42.869492)" /><g
     style="fill:#64a01f;fill-opacity:1"
     id="g128"
     transform="matrix(0.03432343,0,0,0.03514143,54.614172,42.869492)" /><g
     style="fill:#64a01f;fill-opacity:1"
     id="g130"
     transform="matrix(0.03432343,0,0,0.03514143,54.614172,42.869492)" /><g
     style="fill:#64a01f;fill-opacity:1"
     id="g132"
     transform="matrix(0.03432343,0,0,0.03514143,54.614172,42.869492)" /><g
     id="g65"
     transform="matrix(0.0396087,0,0,0.03190745,56.239504,20.762376)" /><g
     id="g67"
     transform="matrix(0.0396087,0,0,0.03190745,56.239504,20.762376)" /><g
     id="g69"
     transform="matrix(0.0396087,0,0,0.03190745,56.239504,20.762376)" /><g
     id="g71"
     transform="matrix(0.0396087,0,0,0.03190745,56.239504,20.762376)" /><g
     id="g73"
     transform="matrix(0.0396087,0,0,0.03190745,56.239504,20.762376)" /><g
     id="g75"
     transform="matrix(0.0396087,0,0,0.03190745,56.239504,20.762376)" /><g
     id="g77"
     transform="matrix(0.0396087,0,0,0.03190745,56.239504,20.762376)" /><g
     id="g79"
     transform="matrix(0.0396087,0,0,0.03190745,56.239504,20.762376)" /><g
     id="g81"
     transform="matrix(0.0396087,0,0,0.03190745,56.239504,20.762376)" /><g
     id="g83"
     transform="matrix(0.0396087,0,0,0.03190745,56.239504,20.762376)" /><g
     id="g85"
     transform="matrix(0.0396087,0,0,0.03190745,56.239504,20.762376)" /><g
     id="g87"
     transform="matrix(0.0396087,0,0,0.03190745,56.239504,20.762376)" /><g
     id="g89"
     transform="matrix(0.0396087,0,0,0.03190745,56.239504,20.762376)" /><g
     id="g91"
     transform="matrix(0.0396087,0,0,0.03190745,56.239504,20.762376)" /><g
     id="g93"
     transform="matrix(0.0396087,0,0,0.03190745,56.239504,20.762376)" /><g
     id="g1612"
     transform="translate(13.191626,-42.596387)"><g
       id="g1582"><path
         style="opacity:1;fill:#ffffff;fill-opacity:1;stroke:#ffffff;stroke-width:0.89999998;stroke-linecap:round;stroke-linejoin:round;stroke-miterlimit:4;stroke-dasharray:none;stroke-opacity:1;paint-order:normal"
         d="m 37.742188,93.261719 c -0.337382,0 -0.813963,0.01099 -1.056641,0.111328 -0.08513,0.03523 -0.109375,0.04641 -0.109375,0.177734 0,0.147072 0.151521,0.443785 0.439453,0.726563 0.28313,0.278025 0.585861,0.427734 0.726563,0.427734 0.140703,0 0.441513,-0.149676 0.724609,-0.427734 0.287932,-0.282811 0.439453,-0.579491 0.439453,-0.726563 0,-0.131319 -0.02229,-0.142574 -0.107422,-0.177734 -0.242644,-0.100308 -0.719259,-0.111328 -1.05664,-0.111328 z"
         id="path1553"
         inkscape:connector-curvature="0" /><path
         style="opacity:1;fill:#ffffff;fill-opacity:1;stroke:#ffffff;stroke-width:0.89999998;stroke-linecap:round;stroke-linejoin:round;stroke-miterlimit:4;stroke-dasharray:none;stroke-opacity:1;paint-order:normal"
         d="m 37.742188,93.261719 c 0.337381,0 0.813996,0.01102 1.05664,0.111328 0.08513,0.03516 0.107422,0.04641 0.107422,0.177734 0,0.147072 -0.151521,0.443752 -0.439453,0.726563 -0.283096,0.278058 -0.583906,0.427734 -0.724609,0.427734 -0.140702,0 -0.443433,-0.149709 -0.726563,-0.427734 -0.287932,-0.282778 -0.439453,-0.579491 -0.439453,-0.726563 0,-0.131319 0.02425,-0.142503 0.109375,-0.177734 0.242678,-0.100341 0.719259,-0.111328 1.056641,-0.111328 z"
         id="path1551"
         inkscape:connector-curvature="0" /><path
         style="opacity:1;fill:#ffffff;fill-opacity:1;stroke:#ffffff;stroke-width:0.89999998;stroke-linecap:round;stroke-linejoin:round;stroke-miterlimit:4;stroke-dasharray:none;stroke-opacity:1;paint-order:normal"
         d="m 37.742188,85.140625 c -0.865522,0 -1.716265,0.19694 -2.511719,0.574219 -0.795455,0.377278 -1.536947,0.934232 -2.185547,1.652344 -0.528445,0.585115 -0.962002,1.244831 -1.28711,1.943359 -0.325107,0.698527 -0.540417,1.436764 -0.634765,2.179687 l 3.035156,0.691407 -0.251953,1.066406 -2.832031,-0.646485 c 0.03862,0.900184 0.272022,1.721209 0.6875,2.439454 L 33.90625,94.552734 34.158203,95.617188 32.482422,96 c 0.154772,0.161597 0.320842,0.315793 0.5,0.460938 0.540266,0.437744 1.18089,0.787294 1.890625,1.039062 0.709735,0.251768 1.490017,0.40518 2.3125,0.453125 v -2.263672 c -0.436921,-0.165685 -0.793464,-0.478006 -0.957031,-0.638672 -0.22996,-0.225843 -0.765625,-0.823899 -0.765625,-1.5 0,-0.553126 0.281983,-0.975126 0.791015,-1.185547 0.339309,-0.140296 0.770531,-0.197265 1.488282,-0.197265 0.717717,0 1.148938,0.05697 1.488281,0.197265 0.508997,0.210455 0.789062,0.632421 0.789062,1.185547 0,0.676101 -0.535698,1.274157 -0.765625,1.5 -0.163566,0.160666 -0.518157,0.472987 -0.955078,0.638672 v 2.263672 C 39.121294,97.905164 39.899665,97.751764 40.609375,97.5 41.319085,97.248236 41.95975,96.898682 42.5,96.460938 42.679158,96.315792 42.845228,96.161564 43,96 l -1.673828,-0.382812 0.25,-1.064454 2.146484,0.488282 c 0.415478,-0.718279 0.646987,-1.539337 0.685547,-2.439454 l -2.832031,0.646485 -0.25,-1.066406 3.035156,-0.691407 c -0.09433,-0.742907 -0.311611,-1.481147 -0.636719,-2.179687 -0.325107,-0.69854 -0.758647,-1.358244 -1.287109,-1.943359 -0.648601,-0.718113 -1.390093,-1.275066 -2.185547,-1.652344 -0.795454,-0.377279 -1.644244,-0.574219 -2.509765,-0.574219 z"
         id="path1549"
         inkscape:connector-curvature="0" /><path
         style="opacity:1;fill:#ffffff;fill-opacity:1;stroke:#ffffff;stroke-width:0.89999998;stroke-linecap:round;stroke-linejoin:round;stroke-miterlimit:4;stroke-dasharray:none;stroke-opacity:1;paint-order:normal"
         d="m 44.240234,84.660156 c -0.635156,0.214277 -1.517305,0.567228 -2.048828,0.97461 0.381824,0.297967 0.741691,0.635262 1.078125,1.007812 0.376683,0.417154 0.711459,0.86741 1,1.341797 0.20043,-1.058157 0.191768,-2.192908 -0.0293,-3.324219 z"
         id="path1547"
         inkscape:connector-curvature="0" /><path
         style="opacity:1;fill:#ffffff;fill-opacity:1;stroke:#ffffff;stroke-width:0.89999998;stroke-linecap:round;stroke-linejoin:round;stroke-miterlimit:4;stroke-dasharray:none;stroke-opacity:1;paint-order:normal"
         d="m 31.242188,84.660156 c -0.221133,1.131444 -0.229764,2.265928 -0.0293,3.324219 0.288541,-0.474421 0.623249,-0.924676 1,-1.341797 0.336468,-0.37255 0.696267,-0.709779 1.078125,-1.007812 -0.532166,-0.408347 -1.413977,-0.760731 -2.048828,-0.97461 z"
         id="path1545"
         inkscape:connector-curvature="0" /><g
         id="g1519"
         transform="matrix(0.03382267,0,0,0.03323671,29.083774,82.665947)"><g
           id="g1459"><g
             id="g1457"><g
               id="g1455"><path
                 style="fill:#64a01f;fill-opacity:1"
                 id="path1449"
                 d="m 201.242,198.348 c -11.904,0 -21.593,9.787 -21.593,21.871 0,12.083 9.688,21.879 21.593,21.879 11.92,0 21.606,-9.796 21.606,-21.879 0,-12.084 -9.685,-21.871 -21.606,-21.871 z"
                 inkscape:connector-curvature="0" /><path
                 style="fill:#64a01f;fill-opacity:1"
                 id="path1451"
                 d="m 310.595,198.178 c -12.019,0 -21.769,9.868 -21.769,22.043 0,12.175 9.75,22.043 21.769,22.043 12.005,0 21.755,-9.868 21.755,-22.043 -0.001,-12.176 -9.751,-22.043 -21.755,-22.043 z"
                 inkscape:connector-curvature="0" /><path
                 style="fill:#64a01f;fill-opacity:1"
                 id="path1453"
                 d="m 466.085,380.089 c 13.214,-26.426 20.051,-56.315 20.111,-88.822 l 25.803,-5.992 -7.442,-32.052 -20.674,4.801 c -2.472,-17.709 -6.888,-35.295 -13.122,-52.364 18.382,-51.981 20.379,-112.201 5.48,-170.762 l -4.136,-16.258 -16.174,4.451 c -6.98,1.922 -67.584,19.194 -96.444,47.1 -4.258,-2.47 -8.58,-4.813 -12.975,-6.994 -28.945,-14.361 -59.398,-21.642 -90.514,-21.642 -31.117,0 -61.57,7.281 -90.514,21.642 -4.396,2.181 -8.718,4.523 -12.976,6.995 -28.86,-27.906 -89.462,-45.18 -96.443,-47.1 L 39.891,18.641 35.755,34.899 c -14.899,58.56 -12.902,118.78 5.48,170.762 -6.233,17.069 -10.649,34.655 -13.122,52.364 l -20.668,-4.8 -7.445,32.05 25.799,5.991 c 0.06,32.508 6.897,62.397 20.112,88.823 L 0,390.751 7.443,422.805 64.409,409.577 c 8.609,11.17 18.612,21.49 29.977,30.86 41.39,34.128 98.786,52.922 161.612,52.922 62.826,0 120.22,-18.795 161.612,-52.922 11.366,-9.372 21.368,-19.691 29.978,-30.861 l 56.969,13.229 7.442,-32.054 z M 63.855,59.992 c 18.77,6.435 44.858,17.076 60.592,29.362 -11.29,8.967 -21.952,19.067 -31.9,30.276 C 81.408,132.18 71.531,145.744 63,160.018 57.073,128.177 57.317,94.034 63.855,59.992 Z M 234.532,349.34 c -8.513,-8.508 -12.967,-17.439 -12.967,-21.864 0,-3.951 0.677,-4.235 3.194,-5.295 7.175,-3.019 21.266,-3.367 31.241,-3.367 9.975,0 24.066,0.349 31.24,3.367 2.517,1.058 3.194,1.344 3.194,5.295 0,4.425 -4.454,13.355 -12.967,21.864 -8.37,8.366 -17.307,12.88 -21.467,12.88 -4.16,0 -13.097,-4.515 -21.468,-12.88 z m 198.282,23.024 -63.409,-14.724 -7.441,32.053 49.511,11.497 c -4.576,4.861 -9.503,9.491 -14.8,13.858 -31.946,26.341 -75.589,42.027 -124.223,44.913 v -68.12 c 12.918,-4.985 23.439,-14.393 28.275,-19.227 6.798,-6.795 22.612,-24.796 22.612,-45.138 0,-16.642 -8.289,-29.293 -23.338,-35.625 -10.033,-4.221 -22.782,-5.943 -44.002,-5.943 -21.221,0 -33.97,1.722 -44.002,5.943 -15.05,6.331 -23.339,18.983 -23.339,35.625 0,20.342 15.813,38.343 22.612,45.138 4.836,4.834 15.358,14.242 28.276,19.227 v 68.12 c -48.635,-2.885 -92.28,-18.572 -124.227,-44.913 -5.297,-4.367 -10.223,-8.996 -14.799,-13.858 L 150.036,389.692 142.592,357.64 79.18,372.364 C 66.896,350.754 60.021,326.033 58.879,298.949 l 83.713,19.439 7.443,-32.054 -89.74,-20.839 C 65.874,220.79 85.909,176.68 117.157,141.471 155.51,98.259 204.817,74.46 255.997,74.46 c 51.18,0 100.487,23.799 138.84,67.011 31.249,35.209 51.284,79.321 56.862,124.025 l -89.735,20.839 7.442,32.054 83.707,-19.439 c -1.14,27.082 -8.015,51.803 -20.299,73.414 z m 16.181,-212.348 c -8.531,-14.273 -18.409,-27.837 -29.546,-40.388 -9.947,-11.209 -20.609,-21.308 -31.898,-30.273 15.715,-12.257 41.813,-22.906 60.592,-29.353 6.536,34.038 6.778,68.177 0.852,100.014 z"
                 inkscape:connector-curvature="0" /></g></g></g><g
           id="g1461" /><g
           id="g1463" /><g
           id="g1465" /><g
           id="g1467" /><g
           id="g1469" /><g
           id="g1471" /><g
           id="g1473" /><g
           id="g1475" /><g
           id="g1477" /><g
           id="g1479" /><g
           id="g1481" /><g
           id="g1483" /><g
           id="g1485" /><g
           id="g1487" /><g
           id="g1489" /></g></g></g></svg>