<?xml version="1.0" encoding="UTF-8" standalone="no"?>
<!-- Generator: Adobe Illustrator 15.0.0, SVG Export Plug-In . SVG Version: 6.00 Build 0)  -->

<svg
   xmlns:dc="http://purl.org/dc/elements/1.1/"
   xmlns:cc="http://creativecommons.org/ns#"
   xmlns:rdf="http://www.w3.org/1999/02/22-rdf-syntax-ns#"
   xmlns:svg="http://www.w3.org/2000/svg"
   xmlns="http://www.w3.org/2000/svg"
   xmlns:sodipodi="http://sodipodi.sourceforge.net/DTD/sodipodi-0.dtd"
   xmlns:inkscape="http://www.inkscape.org/namespaces/inkscape"
   version="1.1"
   id="Layer_1"
   x="0px"
   y="0px"
   width="76px"
   height="66px"
   viewBox="0 0 76 66"
   enable-background="new 0 0 76 66"
   xml:space="preserve"
   sodipodi:docname="Speaker_pig.svg"
   inkscape:version="0.92.1 r15371"><metadata
     id="metadata72"><rdf:RDF><cc:Work
         rdf:about=""><dc:format>image/svg+xml</dc:format><dc:type
           rdf:resource="http://purl.org/dc/dcmitype/StillImage" /><dc:title></dc:title></cc:Work></rdf:RDF></metadata><defs
     id="defs70" /><sodipodi:namedview
     pagecolor="#ffffff"
     bordercolor="#666666"
     borderopacity="1"
     objecttolerance="10"
     gridtolerance="10"
     guidetolerance="10"
     inkscape:pageopacity="0"
     inkscape:pageshadow="2"
     inkscape:window-width="1115"
     inkscape:window-height="1008"
     id="namedview68"
     showgrid="true"
     inkscape:snap-bbox="true"
     inkscape:snap-object-midpoints="false"
     inkscape:snap-center="true"
     inkscape:zoom="8.4841096"
     inkscape:cx="41.745397"
     inkscape:cy="18.707656"
     inkscape:window-x="0"
     inkscape:window-y="0"
     inkscape:window-maximized="0"
     inkscape:current-layer="Layer_1"><inkscape:grid
       type="xygrid"
       id="grid167" /></sodipodi:namedview><g
     id="g229"><rect
       id="rect47"
       height="14"
       width="8"
       fill="#64A01F"
       y="23"
       x="16" /><polygon
       id="polygon49"
       points="17,36 23,36 23,32.821 23,26.799 23,24 17,24 "
       fill="#FFFFFF" /><polygon
       id="polygon51"
       points="25,37 25,23 36,12 36,48 "
       fill="#64A01F" /><polygon
       id="polygon53"
       points="26,36.586 26,23.414 35,14.414 35,45.586 "
       fill="#FFFFFF" /><path
       id="path55"
       d="M36.182,35.343l1.172-1.042c1.422-1.266,2.238-3.07,2.238-4.952c0-1.751-0.682-3.406-1.92-4.658l-1.09-1.104  l3.393-3.395l1.104,1.114c2.138,2.16,3.313,5.016,3.313,8.042c0,3.246-1.399,6.355-3.844,8.531l-1.158,1.033L36.182,35.343z"
       fill="#64A01F" /><path
       id="path57"
       d="M40.368,22.011l-0.396-0.4l-1.979,1.98l0.392,0.396c1.424,1.44,2.208,3.345,2.208,5.361  c0,2.167-0.938,4.244-2.573,5.699l-0.42,0.374l1.871,2.082l0.416-0.371c2.229-1.985,3.508-4.823,3.508-7.784  C43.393,26.586,42.318,23.981,40.368,22.011z"
       fill="#FFFFFF" /><path
       id="path59"
       d="M40.26,39.882l1.164-1.044c2.709-2.417,4.262-5.876,4.262-9.489c0-3.377-1.313-6.56-3.703-8.963  l-1.096-1.104l3.396-3.394l1.104,1.11c3.288,3.31,5.102,7.695,5.102,12.351c0,4.976-2.135,9.737-5.857,13.064l-1.16,1.039  L40.26,39.882z"
       fill="#64A01F" /><path
       id="path61"
       d="M44.676,17.703l-0.396-0.399l-1.979,1.98l0.395,0.396c2.574,2.592,3.994,6.025,3.994,9.668  c0,3.896-1.674,7.628-4.596,10.234l-0.418,0.375l1.871,2.083l0.416-0.373c3.514-3.14,5.523-7.629,5.523-12.319  C49.486,24.96,47.777,20.824,44.676,17.703z"
       fill="#FFFFFF" /><path
       style="fill:#64a01f;fill-opacity:1"
       id="path63"
       d="M44.611,44.725l1.162-1.043c4.084-3.654,6.425-8.879,6.425-14.333c0-5.113-1.993-9.931-5.61-13.565  l-1.098-1.105l3.394-3.392l1.103,1.106C54.51,16.936,57,22.957,57,29.349c0,6.815-2.923,13.342-8.02,17.907l-1.16,1.038  L44.611,44.725z"
       fill="#64A01F" /><path
       fill="#FFFFFF"
       id="path65"
       d="M49.277,13.099l-0.396-0.397l-1.98,1.979l0.396,0.397c3.806,3.823,5.902,8.892,5.902,14.271  c0,5.738-2.462,11.233-6.757,15.077l-0.418,0.375l1.873,2.083l0.416-0.373C53.198,42.136,56,35.88,56,29.349  C56,23.223,53.611,17.452,49.277,13.099z" /></g><g
     style="fill:#64a01f;fill-opacity:1"
     id="g104"
     transform="matrix(0.03432343,0,0,0.03514143,54.614172,42.869492)" /><g
     style="fill:#64a01f;fill-opacity:1"
     id="g106"
     transform="matrix(0.03432343,0,0,0.03514143,54.614172,42.869492)" /><g
     style="fill:#64a01f;fill-opacity:1"
     id="g108"
     transform="matrix(0.03432343,0,0,0.03514143,54.614172,42.869492)" /><g
     style="fill:#64a01f;fill-opacity:1"
     id="g110"
     transform="matrix(0.03432343,0,0,0.03514143,54.614172,42.869492)" /><g
     style="fill:#64a01f;fill-opacity:1"
     id="g112"
     transform="matrix(0.03432343,0,0,0.03514143,54.614172,42.869492)" /><g
     style="fill:#64a01f;fill-opacity:1"
     id="g114"
     transform="matrix(0.03432343,0,0,0.03514143,54.614172,42.869492)" /><g
     style="fill:#64a01f;fill-opacity:1"
     id="g116"
     transform="matrix(0.03432343,0,0,0.03514143,54.614172,42.869492)" /><g
     style="fill:#64a01f;fill-opacity:1"
     id="g118"
     transform="matrix(0.03432343,0,0,0.03514143,54.614172,42.869492)" /><g
     style="fill:#64a01f;fill-opacity:1"
     id="g120"
     transform="matrix(0.03432343,0,0,0.03514143,54.614172,42.869492)" /><g
     style="fill:#64a01f;fill-opacity:1"
     id="g122"
     transform="matrix(0.03432343,0,0,0.03514143,54.614172,42.869492)" /><g
     style="fill:#64a01f;fill-opacity:1"
     id="g124"
     transform="matrix(0.03432343,0,0,0.03514143,54.614172,42.869492)" /><g
     style="fill:#64a01f;fill-opacity:1"
     id="g126"
     transform="matrix(0.03432343,0,0,0.03514143,54.614172,42.869492)" /><g
     style="fill:#64a01f;fill-opacity:1"
     id="g128"
     transform="matrix(0.03432343,0,0,0.03514143,54.614172,42.869492)" /><g
     style="fill:#64a01f;fill-opacity:1"
     id="g130"
     transform="matrix(0.03432343,0,0,0.03514143,54.614172,42.869492)" /><g
     style="fill:#64a01f;fill-opacity:1"
     id="g132"
     transform="matrix(0.03432343,0,0,0.03514143,54.614172,42.869492)" /><g
     id="g1307"
     transform="translate(-33.253469,23.199125)"><path
       id="path1244"
       d="m 85.400391,21.599609 c -0.836582,0 -1.656924,0.200138 -2.425782,0.580079 -0.768857,0.37994 -1.486363,0.940887 -2.113281,1.664062 -0.607267,0.700544 -1.084191,1.504724 -1.410156,2.357422 -0.325965,0.852698 -0.5,1.752566 -0.5,2.640625 0,0.848806 0.159312,1.632629 0.470703,2.332031 0.311391,0.699402 0.775394,1.31504 1.380859,1.826172 0.580461,0.49003 1.277598,0.86952 2.056641,1.126953 0.779043,0.257433 1.638619,0.392578 2.541016,0.392578 0.902397,0 1.761972,-0.135145 2.541015,-0.392578 C 88.72045,33.86952 89.419539,33.49003 90,33 c 0.605465,-0.511115 1.06752,-1.126765 1.378906,-1.826172 0.311387,-0.699407 0.472639,-1.483225 0.472656,-2.332031 0,-0.888042 -0.174034,-1.787923 -0.5,-2.640625 -0.325965,-0.852702 -0.804842,-1.656878 -1.412109,-2.357422 -0.626917,-0.723193 -1.34247,-1.284126 -2.111328,-1.664062 -0.768858,-0.379937 -1.591152,-0.580079 -2.427734,-0.580079 z"
       style="opacity:1;fill:#ffffff;fill-opacity:1;stroke:none;stroke-width:0.75590551;stroke-linecap:round;stroke-linejoin:round;stroke-miterlimit:4;stroke-dasharray:none;stroke-opacity:1;paint-order:stroke fill markers"
       inkscape:connector-curvature="0" /><path
       id="path1242"
       d="m 93.095703,21.236328 c -0.374417,-0.02653 -0.966662,-0.04193 -1.630859,0.03516 -0.664197,0.07709 -1.40002,0.246799 -2.064453,0.59375 0.482038,0.354296 0.93132,0.770315 1.34375,1.246094 0.617204,0.711966 1.117491,1.52246 1.482421,2.38086 0.36098,-0.552599 0.715765,-1.415798 0.839844,-2.734376 0.05828,-0.619051 0.04835,-1.16515 0.0293,-1.521484 z"
       style="opacity:1;fill:#ffffff;fill-opacity:1;stroke:none;stroke-width:0.75590551;stroke-linecap:round;stroke-linejoin:round;stroke-miterlimit:4;stroke-dasharray:none;stroke-opacity:1;paint-order:stroke fill markers"
       inkscape:connector-curvature="0" /><path
       id="path1240"
       d="m 77.707031,21.236328 c -0.02279,0.436773 -0.03182,1.158345 0.07813,1.941406 0.109947,0.783061 0.339628,1.628159 0.791016,2.314454 0.364995,-0.858647 0.863094,-1.668648 1.480469,-2.38086 0.412465,-0.475744 0.863733,-0.891763 1.345703,-1.246094 -0.664056,-0.346793 -1.400488,-0.516596 -2.064453,-0.59375 -0.663966,-0.07715 -1.255996,-0.06171 -1.63086,-0.03516 z"
       style="opacity:1;fill:#ffffff;fill-opacity:1;stroke:none;stroke-width:0.75590551;stroke-linecap:round;stroke-linejoin:round;stroke-miterlimit:4;stroke-dasharray:none;stroke-opacity:1;paint-order:stroke fill markers"
       inkscape:connector-curvature="0" /><g
       transform="matrix(0.03432343,0,0,0.03514143,76.614364,18.869216)"
       style="fill:#64a01f;fill-opacity:1"
       id="g100"><g
         style="fill:#64a01f;fill-opacity:1"
         id="g98"><path
           style="fill:#64a01f;fill-opacity:1"
           inkscape:connector-curvature="0"
           d="M 467.156,223.057 C 524.053,163.729 510.859,55.64 510.27,51.067 L 508.762,39.374 497.11,37.582 C 493.232,36.985 405.251,24.09 342.037,66.892 314.52,53.271 285.574,46.362 256,46.362 c -29.575,0 -58.52,6.909 -86.037,20.53 C 106.75,24.092 18.766,36.986 14.89,37.584 L 3.237,39.374 1.73,51.068 c -0.589,4.573 -13.783,112.662 43.114,171.99 l 0.186,-0.179 c -5.436,20.033 -8.292,40.555 -8.292,60.917 0,57.977 22.592,107.249 65.332,142.491 39.423,32.506 94.09,50.408 153.93,50.408 59.84,0 114.507,-17.902 153.929,-50.408 42.741,-35.24 65.332,-84.514 65.332,-142.491 0,-20.362 -2.856,-40.884 -8.292,-60.918 z M 31.836,67.361 C 53.679,65.85 100.788,65.519 139.482,85.256 125.44,95.339 112.335,107.187 100.318,120.725 82.331,140.992 67.77,164.018 57.136,188.452 30.834,149.393 30.508,92.219 31.836,67.361 Z M 389.991,402.104 C 356.168,429.993 308.582,445.351 256,445.351 203.418,445.351 155.832,429.993 122.009,402.104 86.729,373.014 68.08,332.103 68.08,283.795 68.08,233.253 88.375,181.4 123.76,141.53 160.29,100.372 207.253,77.704 256,77.704 c 48.747,0 95.71,22.667 132.24,63.826 35.385,39.87 55.68,91.724 55.68,142.265 -0.001,48.308 -18.649,89.22 -53.929,118.309 z M 411.68,120.726 C 399.664,107.187 386.56,95.338 372.516,85.256 411.232,65.51 458.37,65.853 480.187,67.363 c 0.555,10.14 0.832,25.685 -0.866,43.301 -3.615,37.522 -13.952,62.043 -24.469,77.768 -10.632,-24.427 -25.19,-47.446 -43.172,-67.706 z"
           id="path86" /><path
           style="fill:#64a01f;fill-opacity:1"
           inkscape:connector-curvature="0"
           d="m 203.847,210.608 c 11.353,0 20.579,-9.33 20.579,-20.839 0,-11.511 -9.226,-20.832 -20.579,-20.832 -11.338,0 -20.565,9.321 -20.565,20.832 0,11.509 9.227,20.839 20.565,20.839 z"
           id="path88" /><path
           style="fill:#64a01f;fill-opacity:1"
           inkscape:connector-curvature="0"
           d="m 308.001,210.764 c 11.435,0 20.721,-9.399 20.721,-20.995 0,-11.596 -9.287,-20.995 -20.721,-20.995 -11.448,0 -20.735,9.399 -20.735,20.995 0,11.596 9.287,20.995 20.735,20.995 z"
           id="path90" /><path
           style="fill:#64a01f;fill-opacity:1"
           inkscape:connector-curvature="0"
           d="m 230.913,323.525 c -6.807,0 -12.347,5.596 -12.347,12.506 0,6.909 5.539,12.511 12.347,12.511 6.816,0 12.354,-5.601 12.354,-12.511 0,-6.909 -5.538,-12.506 -12.354,-12.506 z"
           id="path92" /><path
           style="fill:#64a01f;fill-opacity:1"
           inkscape:connector-curvature="0"
           d="m 280.997,323.428 c -6.873,0 -12.448,5.643 -12.448,12.604 0,6.961 5.576,12.604 12.448,12.604 6.865,0 12.44,-5.643 12.44,-12.604 -0.001,-6.961 -5.575,-12.604 -12.44,-12.604 z"
           id="path94" /><path
           style="fill:#64a01f;fill-opacity:1"
           inkscape:connector-curvature="0"
           d="m 323.271,279.278 c -18.142,-13.93 -42.031,-21.602 -67.27,-21.602 -25.238,0 -49.127,7.671 -67.269,21.602 -19.37,14.873 -30.037,35.029 -30.037,56.754 0,21.725 10.668,41.881 30.037,56.754 18.141,13.929 42.03,21.601 67.269,21.601 25.238,0 49.127,-7.671 67.27,-21.601 19.369,-14.873 30.037,-35.029 30.037,-56.754 -10e-4,-21.725 -10.668,-41.88 -30.037,-56.754 z m -19.088,88.649 c -12.695,9.749 -29.807,15.118 -48.181,15.118 -18.374,0 -35.484,-5.369 -48.181,-15.118 -11.468,-8.806 -17.783,-20.133 -17.783,-31.894 0,-11.762 6.315,-23.09 17.783,-31.895 12.696,-9.748 29.807,-15.118 48.181,-15.118 18.374,0 35.485,5.37 48.181,15.118 11.469,8.806 17.783,20.133 17.783,31.895 0,11.762 -6.316,23.088 -17.783,31.894 z"
           id="path96" /></g></g></g></svg>