<?xml version="1.0" encoding="UTF-8" standalone="no"?>
<!-- Generator: Adobe Illustrator 15.0.0, SVG Export Plug-In . SVG Version: 6.00 Build 0)  -->

<svg
   xmlns:dc="http://purl.org/dc/elements/1.1/"
   xmlns:cc="http://creativecommons.org/ns#"
   xmlns:rdf="http://www.w3.org/1999/02/22-rdf-syntax-ns#"
   xmlns:svg="http://www.w3.org/2000/svg"
   xmlns="http://www.w3.org/2000/svg"
   xmlns:sodipodi="http://sodipodi.sourceforge.net/DTD/sodipodi-0.dtd"
   xmlns:inkscape="http://www.inkscape.org/namespaces/inkscape"
   version="1.1"
   id="Layer_1"
   x="0px"
   y="0px"
   width="76px"
   height="66px"
   viewBox="0 0 76 66"
   enable-background="new 0 0 76 66"
   xml:space="preserve"
   sodipodi:docname="Down_green.svg"
   inkscape:version="0.92.1 r15371"><metadata
     id="metadata109"><rdf:RDF><cc:Work
         rdf:about=""><dc:format>image/svg+xml</dc:format><dc:type
           rdf:resource="http://purl.org/dc/dcmitype/StillImage" /><dc:title /></cc:Work></rdf:RDF></metadata><defs
     id="defs107" /><sodipodi:namedview
     pagecolor="#ffffff"
     bordercolor="#666666"
     borderopacity="1"
     objecttolerance="10"
     gridtolerance="10"
     guidetolerance="10"
     inkscape:pageopacity="0"
     inkscape:pageshadow="2"
     inkscape:window-width="907"
     inkscape:window-height="716"
     id="namedview105"
     showgrid="false"
     inkscape:snap-nodes="false"
     inkscape:snap-center="true"
     inkscape:zoom="12.801213"
     inkscape:cx="38"
     inkscape:cy="39.249408"
     inkscape:window-x="708"
     inkscape:window-y="119"
     inkscape:window-maximized="0"
     inkscape:current-layer="Layer_1"
     showguides="true"
     inkscape:guide-bbox="true" /><path
     style="fill:#008000"
     inkscape:connector-curvature="0"
     id="path83"
     d="m 43.802,10 c 0,2.209 -1.791,4 -4,4 h -8 c -2.209,0 -4,-1.791 -4,-4 V 9 c 0,-2.209 1.791,-4 4,-4 h 8 c 2.209,0 4,1.791 4,4 z" /><path
     style="fill:#ffffff"
     inkscape:connector-curvature="0"
     id="path85"
     d="M 42.802,9.9999997 C 42.802,11.657 41.459,13 39.802,13 h -8 c -1.657,0 -3,-1.343 -3,-3.0000003 V 9.0000001 c 0,-1.657 1.343,-3 3,-3 h 8 c 1.657,0 3,1.343 3,3 z" /><path
     style="fill:#008000"
     inkscape:connector-curvature="0"
     id="path89"
     d="m 43.802,20 c 0,2.209 -1.791,4 -4,4 h -8 c -2.209,0 -4,-1.791 -4,-4 v -1 c 0,-2.209 1.791,-4 4,-4 h 8 c 2.209,0 4,1.791 4,4 z" /><path
     style="fill:#ffffff"
     inkscape:connector-curvature="0"
     id="path91"
     d="m 42.802,20 c 0,1.657 -1.343,3 -3,3 h -8 c -1.657,0 -3,-1.343 -3,-3 v -1 c 0,-1.657 1.343,-3 3,-3 h 8 c 1.657,0 3,1.343 3,3 z" /><g
     id="g97"
     style="fill:#008000"><path
       style="fill:#008000"
       inkscape:connector-curvature="0"
       id="path95"
       d="m 40.136,25.277 c 0.877,0 1.689,0.26 2.284,0.926 0.7,0.779 1.034,1.783 0.917,2.942 l -0.479,2.612 c -0.059,0.539 0.061,1.017 0.322,1.309 0.166,0.182 0.376,0.275 0.626,0.275 0.042,0 0.085,-0.002 0.188,-0.014 l 3.979,-0.246 c 0.189,-0.022 0.378,-0.035 0.562,-0.035 v 0 c 1.074,0 1.97,0.398 2.597,1.154 0.646,0.776 0.971,1.896 0.971,3.33 0,4.018 -11.339,13.385 -13.778,15.354 C 37.653,53.604 36.76,54 35.803,54 34.844,54 33.949,53.604 33.275,52.879 29.972,50.123 19.5,41.104 19.5,37.531 c 0,-3.306 1.957,-4.479 3.632,-4.479 0.164,0 0.33,0.01 0.438,0.025 0,0 4.185,0.27 4.228,0.27 0.25,0 0.461,-0.086 0.626,-0.27 0.262,-0.291 0.381,-0.755 0.324,-1.295 l -0.479,-2.586 c -0.121,-1.159 0.213,-2.217 0.916,-2.996 0.6,-0.664 1.412,-0.924 2.288,-0.924 h 8.663 z" /></g><g
     id="g101"
     transform="translate(-0.0025,-3.75e-4)"><path
       style="fill:#ffffff"
       inkscape:connector-curvature="0"
       id="path99"
       d="m 51.108,37.53 c 0,-2.783 -1.354,-3.66 -3.009,-3.457 l -4.037,0.252 c -1.379,0.166 -2.366,-1.034 -2.196,-2.672 l 0.479,-2.612 c 0.17,-1.638 -0.655,-2.764 -2.042,-2.764 h -9 c -1.387,0 -2.211,1.126 -2.041,2.764 l 0.479,2.612 c 0.17,1.638 -0.817,2.838 -2.196,2.672 L 23.508,34.073 C 21.854,33.87 20.5,34.981 20.5,37.53 c 0,3.402 13.468,14.623 13.468,14.623 1.01,1.129 2.663,1.129 3.674,0 0,0 13.466,-10.845 13.466,-14.623 z" /></g></svg>