<?xml version="1.0" encoding="UTF-8" standalone="no"?>
<!-- Generator: Adobe Illustrator 16.0.0, SVG Export Plug-In . SVG Version: 6.00 Build 0)  -->

<svg
   xmlns:dc="http://purl.org/dc/elements/1.1/"
   xmlns:cc="http://creativecommons.org/ns#"
   xmlns:rdf="http://www.w3.org/1999/02/22-rdf-syntax-ns#"
   xmlns:svg="http://www.w3.org/2000/svg"
   xmlns="http://www.w3.org/2000/svg"
   xmlns:sodipodi="http://sodipodi.sourceforge.net/DTD/sodipodi-0.dtd"
   xmlns:inkscape="http://www.inkscape.org/namespaces/inkscape"
   version="1.1"
   id="Layer_1"
   x="0px"
   y="0px"
   width="76px"
   height="66px"
   viewBox="0 0 76 66"
   enable-background="new 0 0 76 66"
   xml:space="preserve"
   sodipodi:docname="Up_green.svg"
   inkscape:version="0.92.1 r15371"><metadata
     id="metadata187"><rdf:RDF><cc:Work
         rdf:about=""><dc:format>image/svg+xml</dc:format><dc:type
           rdf:resource="http://purl.org/dc/dcmitype/StillImage" /><dc:title /></cc:Work></rdf:RDF></metadata><defs
     id="defs185" /><sodipodi:namedview
     pagecolor="#ffffff"
     bordercolor="#666666"
     borderopacity="1"
     objecttolerance="10"
     gridtolerance="10"
     guidetolerance="10"
     inkscape:pageopacity="0"
     inkscape:pageshadow="2"
     inkscape:window-width="875"
     inkscape:window-height="699"
     id="namedview183"
     showgrid="false"
     inkscape:snap-center="true"
     inkscape:object-nodes="false"
     inkscape:zoom="12.045456"
     inkscape:cx="38"
     inkscape:cy="39.641509"
     inkscape:window-x="546"
     inkscape:window-y="67"
     inkscape:window-maximized="0"
     inkscape:current-layer="Layer_1"
     showguides="true"
     inkscape:guide-bbox="true" /><path
     d="m 32.169,34 c -0.876,0 -1.688,-0.26 -2.288,-0.924 -0.703,-0.779 -1.037,-1.837 -0.916,-2.996 l 0.48,-2.586 c 0.056,-0.54 -0.063,-1.004 -0.325,-1.295 -0.165,-0.183 -0.376,-0.27 -0.626,-0.27 -0.043,0 -4.227,0.27 -4.227,0.27 -0.109,0.016 -0.275,0.026 -0.439,0.026 -1.674,0 -3.631,-1.173 -3.631,-4.479 0,-3.572 10.471,-12.592 13.774,-15.348 0.675,-0.725 1.569,-1.121 2.528,-1.121 0.957,0 1.85,0.396 2.522,1.115 2.44,1.97 13.779,11.337 13.779,15.354 0,1.434 -0.326,2.554 -0.971,3.33 -0.627,0.756 -1.523,1.155 -2.596,1.155 v 0 c -0.185,0 -0.373,-0.013 -0.563,-0.036 l -3.979,-0.246 c -0.103,-0.011 -0.146,-0.014 -0.188,-0.014 -0.25,0 -0.46,0.094 -0.626,0.276 -0.262,0.292 -0.381,0.769 -0.323,1.308 l 0.479,2.613 c 0.118,1.159 -0.216,2.163 -0.917,2.942 C 42.521,33.74 41.709,34 40.832,34 Z"
     id="path161"
     inkscape:connector-curvature="0"
     style="fill:#008000" /><path
     d="m 38.3355,7.1238752 c -1.011,-1.129 -2.664,-1.129 -3.674,0 0,0 -13.467,11.2209998 -13.467,14.6229998 0,2.549 1.354,3.66 3.008,3.457 l 4.037,-0.252 c 1.379,-0.166 2.367,1.035 2.197,2.672 l -0.48,2.613 c -0.17,1.637 0.655,2.763 2.041,2.763 h 9 c 1.387,0 2.212,-1.126 2.042,-2.763 l -0.479,-2.613 c -0.17,-1.637 0.817,-2.838 2.196,-2.672 l 4.037,0.252 c 1.654,0.203 3.009,-0.674 3.009,-3.457 0,-3.777 -13.467,-14.6229998 -13.467,-14.6229998 z"
     id="path165"
     inkscape:connector-curvature="0"
     style="fill:#ffffff" /><path
     style="fill:#008000"
     inkscape:connector-curvature="0"
     id="path170"
     d="m 44.4985,49.864778 c 0,2.209 -1.791,4 -4,4 h -8 c -2.209,0 -4,-1.791 -4,-4 v -1 c 0,-2.209 1.791,-4 4,-4 h 8 c 2.209,0 4,1.791 4,4 z" /><path
     style="fill:#ffffff"
     inkscape:connector-curvature="0"
     id="path172"
     d="m 43.4985,49.864778 c 0,1.656 -1.343,3 -3,3 h -8 c -1.657,0 -3,-1.344 -3,-3 v -1 c 0,-1.656 1.343,-3 3,-3 h 8 c 1.657,0 3,1.344 3,3 z" /><path
     style="fill:#008000"
     inkscape:connector-curvature="0"
     id="path176"
     d="m 44.4985,40 c 0,2.209 -1.791,4 -4,4 h -8 c -2.209,0 -4,-1.791 -4,-4 v -1 c 0,-2.209 1.791,-4 4,-4 h 8 c 2.209,0 4,1.791 4,4 z" /><path
     style="fill:#ffffff"
     inkscape:connector-curvature="0"
     id="path178"
     d="m 43.4985,40 c 0,1.656 -1.343,3 -3,3 h -8 c -1.657,0 -3,-1.344 -3,-3 v -1 c 0,-1.656 1.343,-3 3,-3 h 8 c 1.657,0 3,1.344 3,3 z" /></svg>