<?xml version="1.0" encoding="UTF-8" standalone="no"?>
<!-- Created with Inkscape (http://www.inkscape.org/) -->

<svg
   xmlns:dc="http://purl.org/dc/elements/1.1/"
   xmlns:cc="http://creativecommons.org/ns#"
   xmlns:rdf="http://www.w3.org/1999/02/22-rdf-syntax-ns#"
   xmlns:svg="http://www.w3.org/2000/svg"
   xmlns="http://www.w3.org/2000/svg"
   xmlns:sodipodi="http://sodipodi.sourceforge.net/DTD/sodipodi-0.dtd"
   xmlns:inkscape="http://www.inkscape.org/namespaces/inkscape"
   width="60"
   height="60"
   viewBox="0 0 15.875005 15.875"
   version="1.1"
   id="svg8"
   inkscape:version="0.92.1 r15371"
   sodipodi:docname="gearOnGreen.svg">
  <defs
     id="defs2">
    <linearGradient
       gradientTransform="matrix(0.26458333,0,0,-0.26458333,129.15802,60.423638)"
       y2="-161.5757"
       x2="-178.1328"
       y1="-244.9507"
       x1="-178.1328"
       gradientUnits="userSpaceOnUse"
       id="SVGID_2_">
      <stop
         id="stop195"
         style="stop-color:#FFFFFF;stop-opacity:0"
         offset="0" />
      <stop
         id="stop197"
         style="stop-color:#FFFFFF;stop-opacity:0.5"
         offset="1" />
    </linearGradient>
    <radialGradient
       gradientUnits="userSpaceOnUse"
       gradientTransform="matrix(1,0,0,-1,256.9448,-151.6406)"
       r="78.087898"
       cy="-239.6631"
       cx="-169.1328"
       id="SVGID_1_">
      <stop
         id="stop180"
         style="stop-color:#000000"
         offset="0.5" />
      <stop
         id="stop182"
         style="stop-color:#000000;stop-opacity:0"
         offset="1" />
    </radialGradient>
    <linearGradient
       gradientTransform="matrix(-0.26458333,0,0,0.26458333,818.90279,278.53359)"
       y2="54.395"
       x2="3010.8994"
       y1="-28.980499"
       x1="3010.8994"
       gradientUnits="userSpaceOnUse"
       id="SVGID_1_-0">
      <stop
         id="stop1928"
         style="stop-color:#FFFFFF;stop-opacity:0"
         offset="0" />
      <stop
         id="stop1930"
         style="stop-color:#FFFFFF;stop-opacity:0.5"
         offset="1" />
    </linearGradient>
    <radialGradient
       id="SVGID_1_-6"
       cx="-169.1328"
       cy="-239.6631"
       r="78.087898"
       gradientTransform="matrix(1,0,0,-1,256.9448,-151.6406)"
       gradientUnits="userSpaceOnUse">
      <stop
         offset="0.5"
         style="stop-color:#000000"
         id="stop180-1" />
      <stop
         offset="1"
         style="stop-color:#000000;stop-opacity:0"
         id="stop182-7" />
    </radialGradient>
    <linearGradient
       gradientTransform="matrix(0.26458333,0,0,-0.26458333,159.40934,95.454515)"
       y2="-161.5757"
       x2="-178.1328"
       y1="-244.9507"
       x1="-178.1328"
       gradientUnits="userSpaceOnUse"
       id="SVGID_2_-9">
      <stop
         id="stop195-7"
         style="stop-color:#FFFFFF;stop-opacity:0"
         offset="0" />
      <stop
         id="stop197-8"
         style="stop-color:#FFFFFF;stop-opacity:0.5"
         offset="1" />
    </linearGradient>
  </defs>
  <sodipodi:namedview
     id="base"
     pagecolor="#ffffff"
     bordercolor="#666666"
     borderopacity="1.0"
     inkscape:pageopacity="0.0"
     inkscape:pageshadow="2"
     inkscape:zoom="4.746875"
     inkscape:cx="112.68015"
     inkscape:cy="52.938272"
     inkscape:document-units="mm"
     inkscape:current-layer="layer1"
     showgrid="false"
     inkscape:snap-global="false"
     units="px"
     inkscape:window-width="1920"
     inkscape:window-height="1017"
     inkscape:window-x="-8"
     inkscape:window-y="-8"
     inkscape:window-maximized="1" />
  <metadata
     id="metadata5">
    <rdf:RDF>
      <cc:Work
         rdf:about="">
        <dc:format>image/svg+xml</dc:format>
        <dc:type
           rdf:resource="http://purl.org/dc/dcmitype/StillImage" />
        <dc:title></dc:title>
      </cc:Work>
    </rdf:RDF>
  </metadata>
  <g
     inkscape:label="Layer 1"
     inkscape:groupmode="layer"
     id="layer1"
     transform="translate(0,-281.1248)">
    <g
       id="g110"
       transform="translate(-57.187623,192.46477)">
      <path
         id="path10"
         d="m 71.74555,93.762203 0.502709,1.190625 c 0.3175,0.767292 0.07937,1.640417 -0.582084,2.143125 0.555625,0.502708 0.767292,1.322917 0.47625,2.037292 l -0.502708,1.217085 c -0.291042,0.74083 -1.031875,1.16416 -1.799167,1.11125 0.105834,0.79375 -0.3175,1.61396 -1.11125,1.93146 l -1.190625,0.5027 c -0.767291,0.3175 -1.640416,0.0794 -2.143125,-0.58208 -0.502708,0.55563 -1.322916,0.76729 -2.037291,0.47625 l -1.217083,-0.50271 c -0.714375,-0.3175 -1.164167,-1.03187 -1.11125,-1.77271 -0.79375,0.10584 -1.5875,-0.3175 -1.931459,-1.11125 l -0.502708,-1.19062 c -0.3175,-0.767292 -0.07937,-1.640417 0.582083,-2.143125 -0.582083,-0.502709 -0.767291,-1.322917 -0.47625,-2.06375 l 0.502709,-1.190625 c 0.291041,-0.714375 1.031875,-1.164167 1.772708,-1.11125 -0.105833,-0.79375 0.3175,-1.5875 1.11125,-1.931459 l 1.190625,-0.502708 c 0.767292,-0.3175 1.640417,-0.07938 2.143125,0.582083 0.502708,-0.555625 1.322916,-0.767291 2.037291,-0.47625 l 1.217084,0.502709 c 0.740833,0.3175 1.164166,1.031875 1.11125,1.799166 0.846666,-0.132291 1.640416,0.3175 1.957916,1.084792 z"
         style="opacity:0.2;fill:#231f20;stroke-width:0.26458332"
         inkscape:connector-curvature="0" />
      <path
         id="path12"
         d="m 70.925342,92.941995 0.502708,1.190625 c 0.3175,0.767291 0.07937,1.640416 -0.582083,2.143125 0.555625,0.502708 0.767292,1.322916 0.47625,2.037291 l -0.502708,1.217083 c -0.291042,0.740831 -1.031875,1.164171 -1.799167,1.111251 0.105833,0.79375 -0.3175,1.61396 -1.11125,1.93146 l -1.190625,0.50271 c -0.767292,0.3175 -1.640417,0.0794 -2.143125,-0.58209 -0.502708,0.55563 -1.322916,0.76729 -2.037291,0.47625 l -1.217084,-0.50271 c -0.714375,-0.3175 -1.164166,-1.03187 -1.11125,-1.7727 -0.79375,0.10583 -1.5875,-0.3175 -1.931458,-1.111254 l -0.502708,-1.190625 c -0.3175,-0.767291 -0.07937,-1.640416 0.582083,-2.143125 -0.582083,-0.502708 -0.767292,-1.322916 -0.47625,-2.06375 l 0.502708,-1.190625 c 0.291042,-0.714375 1.031875,-1.164166 1.772709,-1.11125 -0.105834,-0.79375 0.3175,-1.5875 1.11125,-1.931458 l 1.190625,-0.502708 c 0.767291,-0.3175 1.640416,-0.07937 2.143125,0.582083 0.502708,-0.555625 1.322916,-0.767292 2.037291,-0.47625 l 1.217083,0.502708 c 0.740834,0.3175 1.164167,1.031875 1.11125,1.799167 0.820209,-0.132292 1.613959,0.291042 1.957917,1.084792 z"
         style="fill:#ffffff;stroke-width:0.26458332"
         inkscape:connector-curvature="0" />
      <path
         id="path14"
         d="m 69.179092,93.418245 v 0 l -1.322917,0.370416 -0.05292,-0.07937 c -0.185209,-0.238125 -0.423334,-0.47625 -0.635,-0.635 l -0.07938,-0.05292 0.3175,-1.217084 c 0.02646,-0.105833 -0.02646,-0.238125 -0.132292,-0.264583 L 66.057,91.010537 c -0.105834,-0.02646 -0.238125,0 -0.291042,0.105834 l -0.635,1.084791 h -0.07937 c -0.3175,-0.02646 -0.635,-0.02646 -0.926041,0 h -0.07937 L 63.35826,91.010537 c -0.05292,-0.105833 -0.185208,-0.15875 -0.291042,-0.105833 l -1.190625,0.502708 c -0.105833,0.05292 -0.15875,0.15875 -0.132291,0.264584 l 0.370416,1.322916 -0.07937,0.05292 c -0.238125,0.185208 -0.449791,0.396875 -0.635,0.635 l -0.05292,0.07937 -1.217084,-0.3175 c -0.105833,-0.02646 -0.238125,0.02646 -0.264583,0.132292 l -0.502708,1.190625 c -0.05292,0.105833 0,0.238125 0.105833,0.291041 l 1.084792,0.635 v 0.07937 c -0.02646,0.291042 -0.02646,0.582084 0,0.899584 v 0.07937 L 59.363053,97.4399 c -0.105834,0.05292 -0.15875,0.185209 -0.105834,0.291042 l 0.502709,1.190625 c 0.05292,0.105833 0.15875,0.15875 0.264583,0.132292 l 1.322917,-0.370417 0.05292,0.07937 c 0.185209,0.238125 0.396875,0.449792 0.635,0.635 l 0.07937,0.05292 -0.3175,1.217088 c -0.02646,0.10583 0.02646,0.23812 0.132292,0.26458 l 1.217083,0.50271 c 0.105834,0.0529 0.238125,0 0.291042,-0.10583 l 0.635,-1.0848 h 0.07938 c 0.3175,0.0265 0.608542,0.0265 0.899583,0 h 0.07937 l 0.687917,1.19063 c 0.05292,0.10583 0.185208,0.15875 0.291041,0.10583 l 1.190625,-0.50271 c 0.105834,-0.0529 0.15875,-0.15875 0.132292,-0.26458 l -0.370417,-1.322918 0.07937,-0.05292 c 0.238125,-0.185208 0.449792,-0.396875 0.635,-0.635 l 0.05292,-0.05292 1.217083,0.3175 c 0.105834,0.02646 0.238125,-0.02646 0.264584,-0.132291 l 0.502708,-1.190625 c 0.05292,-0.105834 0,-0.238125 -0.105833,-0.291042 l -1.084792,-0.635 v -0.07937 c 0.02646,-0.3175 0.02646,-0.608542 0,-0.899583 v -0.07937 l 1.190625,-0.687917 c 0.105833,-0.05292 0.15875,-0.185208 0.105833,-0.291042 l -0.502708,-1.190625 c -0.02646,-0.105833 -0.132292,-0.185208 -0.238125,-0.132291 z m -3.704167,4.947708 c -1.164166,0.47625 -2.487083,-0.07937 -2.989791,-1.243542 -0.502708,-1.164166 0.07937,-2.487083 1.243542,-2.963333 1.164166,-0.47625 2.487083,0.07938 2.989791,1.243542 0.502708,1.164166 -0.07937,2.460625 -1.243542,2.963333 z"
         style="fill:#00a038;fill-opacity:1;stroke-width:0.26458332"
         inkscape:connector-curvature="0" />
      <path
         id="path16"
         d="m 69.099717,93.153661 -1.164167,0.3175 c -0.185208,-0.211666 -0.370416,-0.396875 -0.555625,-0.555625 l 0.264584,-1.058333 c 0.07937,-0.238125 -0.05292,-0.502708 -0.291042,-0.582083 l -1.190625,-0.502709 c -0.238125,-0.105833 -0.502708,0 -0.608542,0.211667 l -0.555624,0.926042 c -0.291042,-0.02646 -0.555625,-0.02646 -0.79375,0 l -0.582084,-1.031875 c -0.132291,-0.211667 -0.396875,-0.3175 -0.608541,-0.211667 l -1.190625,0.502708 c -0.238125,0.105834 -0.343959,0.343959 -0.291042,0.582084 l 0.3175,1.164166 c -0.211667,0.15875 -0.396875,0.343959 -0.555625,0.555625 l -1.058333,-0.264583 c -0.264584,-0.07937 -0.529167,0.05292 -0.608542,0.264583 l -0.502708,1.190625 c -0.105834,0.238125 0,0.502709 0.211666,0.608542 l 0.926042,0.555625 c -0.02646,0.264583 -0.02646,0.529167 0,0.79375 l -1.031875,0.582083 c -0.211667,0.132292 -0.3175,0.396875 -0.211667,0.608542 l 0.502709,1.190625 c 0.105833,0.238125 0.343958,0.343958 0.582083,0.291042 l 1.164167,-0.3175 c 0.15875,0.211666 0.343958,0.396874 0.555625,0.555624 l -0.264584,1.058331 c -0.07937,0.29104 0.05292,0.55563 0.264584,0.635 l 1.217083,0.50271 c 0.238125,0.0794 0.502708,0 0.608542,-0.21167 l 0.555625,-0.9525 c 0.264583,0.0265 0.529166,0.0265 0.79375,0 l 0.582083,1.03188 c 0.132291,0.21167 0.396875,0.3175 0.608541,0.21167 l 1.190625,-0.50271 c 0.238125,-0.10584 0.343959,-0.34396 0.291042,-0.58209 l -0.291042,-1.137704 c 0.211667,-0.15875 0.396875,-0.343958 0.555625,-0.555625 l 1.058334,0.264584 c 0.238125,0.07937 0.502708,-0.05292 0.582083,-0.291042 l 0.502708,-1.190625 c 0.07937,-0.238125 0,-0.502708 -0.211666,-0.608542 l -0.926042,-0.555625 c 0.02646,-0.264583 0.02646,-0.529166 0,-0.79375 l 1.031875,-0.582083 c 0.211667,-0.132292 0.3175,-0.396875 0.211667,-0.608542 L 69.6818,93.471161 c -0.07937,-0.264583 -0.343958,-0.396875 -0.582083,-0.3175 z m 0.846667,1.5875 c 0.05292,0.105834 0,0.238125 -0.105834,0.291042 l -1.190625,0.687917 v 0.07937 c 0.02646,0.291041 0.02646,0.608541 0,0.899583 v 0.07937 l 1.084792,0.635 c 0.105833,0.05292 0.132292,0.185208 0.105833,0.291042 l -0.502708,1.190625 c -0.05292,0.105833 -0.15875,0.15875 -0.264583,0.132291 l -1.217084,-0.3175 -0.05292,0.05292 c -0.185209,0.238125 -0.423334,0.47625 -0.635,0.635 l -0.07938,0.05292 0.370416,1.322919 c 0.02646,0.10583 -0.02646,0.23813 -0.132291,0.26458 l -1.190625,0.50271 c -0.105834,0.0529 -0.238125,0 -0.291042,-0.10583 l -0.687917,-1.19063 h -0.07937 c -0.291041,0.0265 -0.582083,0.0265 -0.899583,0 h -0.07937 l -0.687916,1.13771 c -0.05292,0.10584 -0.185209,0.13229 -0.291042,0.10584 l -1.217083,-0.50271 c -0.105834,-0.0529 -0.15875,-0.15875 -0.132292,-0.26459 l 0.3175,-1.217082 -0.07937,-0.05292 c -0.238125,-0.185208 -0.449792,-0.396874 -0.635,-0.634999 l -0.05292,-0.07938 -1.322916,0.370416 c -0.105834,0.02646 -0.238125,-0.02646 -0.264584,-0.132291 L 59.230759,97.78387 c -0.05292,-0.105834 0,-0.238125 0.105833,-0.291042 l 1.190625,-0.687917 v -0.07937 c -0.02646,-0.3175 -0.02646,-0.635 0,-0.899583 v -0.07937 l -1.058333,-0.687917 c -0.105833,-0.05292 -0.132292,-0.185208 -0.105833,-0.291041 l 0.502708,-1.190625 c 0.05292,-0.105834 0.15875,-0.15875 0.264583,-0.132292 l 1.217084,0.3175 0.05292,-0.07937 c 0.185209,-0.238125 0.396875,-0.449792 0.635,-0.635 l 0.07937,-0.05292 -0.370416,-1.322916 c -0.02646,-0.105834 0.02646,-0.238125 0.132291,-0.264584 l 1.190625,-0.502708 c 0.105834,-0.05292 0.238125,0 0.291042,0.105833 l 0.687917,1.190625 h 0.07937 c 0.291041,-0.02646 0.582083,-0.02646 0.926041,0 h 0.07937 l 0.635,-1.084791 c 0.05292,-0.105834 0.185208,-0.132292 0.291042,-0.105834 l 1.190625,0.502709 c 0.105833,0.05292 0.15875,0.15875 0.132291,0.264583 l -0.3175,1.217083 0.07937,0.05292 c 0.238125,0.185208 0.449792,0.396875 0.635,0.635 l 0.05292,0.07937 1.322917,-0.343958 v 0 c 0.105833,-0.02646 0.238125,0.02646 0.264583,0.132291 z"
         style="fill:#0f7f36;fill-opacity:1;stroke-width:0.26458332"
         inkscape:connector-curvature="0" />
      <path
         id="path18"
         d="m 63.708969,94.172033 c -1.164167,0.47625 -1.719792,1.825625 -1.243542,2.963333 0.47625,1.137708 1.825625,1.719792 2.989791,1.243542 1.164167,-0.47625 1.719792,-1.825625 1.243542,-2.989792 -0.47625,-1.164167 -1.825625,-1.693333 -2.989791,-1.217083 z m 1.640416,3.96875 c -1.031875,0.423333 -2.196041,-0.05292 -2.619375,-1.084792 -0.423333,-1.031875 0.05292,-2.196042 1.084792,-2.619375 1.031875,-0.423333 2.196041,0.05292 2.645833,1.084792 0.396875,1.031875 -0.07937,2.196041 -1.11125,2.619375 z"
         style="fill:#0f7f36;fill-opacity:1;stroke-width:0.26458332"
         inkscape:connector-curvature="0" />
    </g>
  </g>
</svg>
