<?xml version="1.0" encoding="UTF-8" standalone="no"?>
<!-- Generator: Adobe Illustrator 15.0.0, SVG Export Plug-In . SVG Version: 6.00 Build 0)  -->

<svg
   xmlns:dc="http://purl.org/dc/elements/1.1/"
   xmlns:cc="http://creativecommons.org/ns#"
   xmlns:rdf="http://www.w3.org/1999/02/22-rdf-syntax-ns#"
   xmlns:svg="http://www.w3.org/2000/svg"
   xmlns="http://www.w3.org/2000/svg"
   xmlns:sodipodi="http://sodipodi.sourceforge.net/DTD/sodipodi-0.dtd"
   xmlns:inkscape="http://www.inkscape.org/namespaces/inkscape"
   version="1.1"
   id="Layer_1"
   x="0px"
   y="0px"
   width="51px"
   height="57px"
   viewBox="0 0 51 57"
   enable-background="new 0 0 51 57"
   xml:space="preserve"
   sodipodi:docname="RobotOff.svg"
   inkscape:version="0.92.1 r15371"><metadata
     id="metadata981"><rdf:RDF><cc:Work
         rdf:about=""><dc:format>image/svg+xml</dc:format><dc:type
           rdf:resource="http://purl.org/dc/dcmitype/StillImage" /><dc:title></dc:title></cc:Work></rdf:RDF></metadata><defs
     id="defs979"><linearGradient
       id="SVGID_3_"
       gradientUnits="userSpaceOnUse"
       x1="25.5562"
       y1="-1051.5752"
       x2="25.5562"
       y2="-1083.8734"
       gradientTransform="matrix(1,0,0,-1,-0.155465,-1050.1035)"><stop
         offset="0"
         style="stop-color:#FFFFFF;stop-opacity:0.5"
         id="stop933" /><stop
         offset="0.5"
         style="stop-color:#FFFFFF;stop-opacity:0"
         id="stop935" /><stop
         offset="1"
         style="stop-color:#FFFFFF;stop-opacity:0"
         id="stop937" /></linearGradient></defs><sodipodi:namedview
     pagecolor="#ffffff"
     bordercolor="#666666"
     borderopacity="1"
     objecttolerance="10"
     gridtolerance="10"
     guidetolerance="10"
     inkscape:pageopacity="0"
     inkscape:pageshadow="2"
     inkscape:window-width="1311"
     inkscape:window-height="1008"
     id="namedview977"
     showgrid="true"
     inkscape:zoom="7.49"
     inkscape:cx="35.709168"
     inkscape:cy="38.895465"
     inkscape:window-x="264"
     inkscape:window-y="0"
     inkscape:window-maximized="0"
     inkscape:current-layer="Layer_1"
     inkscape:snap-center="true"
     inkscape:object-nodes="false"
     showguides="true"
     inkscape:guide-bbox="true"
     inkscape:snap-bbox="false"
     inkscape:snap-bbox-edge-midpoints="true"
     inkscape:bbox-nodes="true"
     inkscape:snap-nodes="false"><inkscape:grid
       type="xygrid"
       id="grid983" /></sodipodi:namedview><g
     id="g917"><linearGradient
       gradientTransform="matrix(1,0,0,-1,0,-496)"
       y2="-506"
       x2="25.401899"
       y1="-550.99951"
       x1="25.401899"
       gradientUnits="userSpaceOnUse"
       id="SVGID_1_"><stop
         id="stop897"
         style="stop-color:#000000;stop-opacity:0.5"
         offset="0" /><stop
         id="stop899"
         style="stop-color:#000000;stop-opacity:0.4552"
         offset="0.0896" /><stop
         id="stop901"
         style="stop-color:#000000;stop-opacity:0"
         offset="1" /></linearGradient><path
       inkscape:connector-curvature="0"
       style="opacity:0.5;fill:url(#SVGID_1_)"
       id="path904"
       d="m 47.902,47.5 c 0,4.125 -3.375,7.5 -7.5,7.5 h -30 c -4.125,0 -7.5,-3.375 -7.5,-7.5 v -30 c 0,-4.125 3.375,-7.5 7.5,-7.5 h 30 c 4.125,0 7.5,3.375 7.5,7.5 z"
       enable-background="new    " /><path
       style="fill:#c9bf8b"
       inkscape:connector-curvature="0"
       id="path906"
       d="m 47.902,46.5 c 0,4.125 -3.375,7.5 -7.5,7.5 h -30 c -4.125,0 -7.5,-3.375 -7.5,-7.5 v -30 c 0,-4.125 3.375,-7.5 7.5,-7.5 h 30 c 4.125,0 7.5,3.375 7.5,7.5 z" /><linearGradient
       gradientTransform="matrix(1,0,0,-1,0,-496)"
       y2="-508.02689"
       x2="25.401899"
       y1="-552.59723"
       x1="25.401899"
       gradientUnits="userSpaceOnUse"
       id="SVGID_2_"><stop
         id="stop908"
         style="stop-color:#000000;stop-opacity:0.5"
         offset="0" /><stop
         id="stop910"
         style="stop-color:#000000;stop-opacity:0.4552"
         offset="0.0896" /><stop
         id="stop912"
         style="stop-color:#000000;stop-opacity:0"
         offset="1" /></linearGradient><path
       inkscape:connector-curvature="0"
       style="opacity:0.5;fill:url(#SVGID_2_)"
       id="path915"
       d="m 47.902,48.5 c 0,4.125 -3.375,7.5 -7.5,7.5 h -30 c -4.125,0 -7.5,-3.375 -7.5,-7.5 v -30 c 0,-4.125 3.375,-7.5 7.5,-7.5 h 30 c 4.125,0 7.5,3.375 7.5,7.5 z"
       enable-background="new    " /></g><path
     style="fill:#005500"
     inkscape:connector-curvature="0"
     id="path919"
     d="m 47.902,46.5 c 0,4.125 -3.375,7.5 -7.5,7.5 h -30 c -4.125,0 -7.5,-3.375 -7.5,-7.5 v -30 c 0,-4.125 3.375,-7.5 7.5,-7.5 h 30 c 4.125,0 7.5,3.375 7.5,7.5 z" /><path
     style="fill:#005500"
     inkscape:connector-curvature="0"
     id="path921"
     d="M 9.9999999,53 C 6.1400001,53 3.0000001,49.859 3.0000001,46 V 16 c 0,-3.86 3.14,-7 6.9999998,-7 H 40 c 3.857,0 7,3.14 7,7 v 30 c 0,3.859 -3.143,7 -7,7 z" /><path
     style="fill:#005500"
     inkscape:connector-curvature="0"
     id="path923"
     d="m 47.886271,36.461382 c 0,4.125 -3.375,7.5 -7.5,7.5 h -30 c -4.1249997,0 -7.4999997,-3.375 -7.4999997,-7.5 v -28 c 0,-4.1249998 3.375,-7.4999998 7.4999997,-7.4999998 h 30 c 4.125,0 7.5,3.375 7.5,7.4999998 z" /><path
     d="m 40.400533,1.3965288 h -30 c -3.86,0 -7,3.14 -7,7 V 38.396529 c 0,3.859 3.14,7 7,7 h 30 c 3.859,0 7.000004,-3.141 7.000004,-7 V 8.3965288 c 0,-3.86 -3.141004,-7 -7.000004,-7 z m 6.499999,37.0000002 c 0,3.584 -2.915999,6.5 -6.499999,6.5 h -30 c -3.584,0 -6.5,-2.916 -6.5,-6.5 V 8.3965288 c 0,-3.584 2.916,-6.5 6.5,-6.5 h 30 c 3.584,0 6.499999,2.916 6.499999,6.5 z"
     id="path925"
     inkscape:connector-curvature="0"
     style="fill:#aade87" /><path
     enable-background="new    "
     d="m 40.400533,1.3965288 h -30 c -3.86,0 -7,3.14 -7,7 V 38.396529 c 0,3.859 3.14,7 7,7 h 30 c 3.859,0 7.000004,-3.141 7.000004,-7 V 8.3965288 c 0,-3.86 -3.141004,-7 -7.000004,-7 z m 6.499999,37.0000002 c 0,3.584 -2.915999,6.5 -6.499999,6.5 h -30 c -3.584,0 -6.5,-2.916 -6.5,-6.5 V 8.3965288 c 0,-3.584 2.916,-6.5 6.5,-6.5 h 30 c 3.584,0 6.499999,2.916 6.499999,6.5 z"
     id="path927"
     inkscape:connector-curvature="0"
     style="opacity:0.3;fill:#008000" /><path
     d="m 40.400538,1.8965287 h -30 c -3.584,0 -6.5,2.916 -6.5,6.5 V 38.396529 c 0,3.584 2.916,6.5 6.5,6.5 h 30 c 3.584004,0 6.499994,-2.916 6.499994,-6.5 V 8.3965287 c 0,-3.584 -2.91599,-6.5 -6.499994,-6.5 z"
     id="path929"
     inkscape:connector-curvature="0"
     style="fill:#f7ec9f" /><path
     d="m 40.400535,1.8965286 h -30 c -3.584,0 -6.5,2.916 -6.5,6.5 V 38.396529 c 0,3.584 2.916,6.5 6.5,6.5 h 30 c 3.584001,0 6.5,-2.916 6.5,-6.5 V 8.3965286 c 0,-3.584 -2.915999,-6.5 -6.5,-6.5 z"
     id="path931"
     inkscape:connector-curvature="0"
     style="fill:#00aa00" /><path
     d="m 3.900535,38.396529 c 0,3.584 2.916,6.5 6.5,6.5 h 30 c 3.584001,0 6.5,-2.916 6.5,-6.5 V 8.3965287 c 0,-3.584 -2.915999,-6.5 -6.5,-6.5 h -30 c -3.584,0 -6.5,2.916 -6.5,6.5 z"
     id="path940"
     style="fill:url(#SVGID_3_)"
     inkscape:connector-curvature="0" /><g
     transform="translate(-0.15646551,-8.1034714)"
     id="g1419"><rect
       ry="0.91561919"
       y="11.989854"
       x="19.809738"
       height="9.7055626"
       width="11.477763"
       id="rect459-3-7-7-2-5"
       style="opacity:1;fill:#005500;fill-opacity:1;stroke:none;stroke-width:0;stroke-linecap:butt;stroke-miterlimit:4;stroke-dasharray:none;stroke-opacity:1" /><rect
       rx="0"
       ry="0.023232233"
       y="13.210491"
       x="21.344965"
       height="7.264286"
       width="8.4072781"
       id="rect1266-8-5-6-1"
       style="opacity:1;fill:#ffffff;fill-opacity:1;stroke:none;stroke-width:0;stroke-linecap:butt;stroke-miterlimit:4;stroke-dasharray:none;stroke-opacity:1" /><rect
       ry="0.62520498"
       y="17.8251"
       x="22.880217"
       height="1.25041"
       width="5.3367939"
       id="rect1268-8-2-1-6"
       style="opacity:1;fill:#005500;fill-opacity:1;stroke:none;stroke-width:0;stroke-linecap:butt;stroke-miterlimit:4;stroke-dasharray:none;stroke-opacity:1" /><path
       d="m 22.662338,15.28331 a 0.87728125,0.71451992 0 0 1 0.916658,-0.672777 0.87728125,0.71451992 0 0 1 0.835901,0.739268 0.87728125,0.71451992 0 0 1 -0.898569,0.688776 0.87728125,0.71451992 0 0 1 -0.855347,-0.724362"
       sodipodi:open="true"
       sodipodi:end="3.1556775"
       sodipodi:start="3.1989616"
       sodipodi:ry="0.71451992"
       sodipodi:rx="0.87728125"
       sodipodi:cy="15.324279"
       sodipodi:cx="23.538176"
       sodipodi:type="arc"
       id="path1275-6-0-9-2-3"
       style="opacity:1;fill:#005500;fill-opacity:1;stroke:none;stroke-width:0;stroke-linecap:butt;stroke-miterlimit:4;stroke-dasharray:none;stroke-opacity:1" /><path
       d="m 26.537,15.223766 a 0.87728125,0.71451992 0 0 1 0.916659,-0.672777 0.87728125,0.71451992 0 0 1 0.8359,0.739268 0.87728125,0.71451992 0 0 1 -0.898568,0.688777 0.87728125,0.71451992 0 0 1 -0.855347,-0.724362"
       sodipodi:open="true"
       sodipodi:end="3.1556775"
       sodipodi:start="3.1989616"
       sodipodi:ry="0.71451992"
       sodipodi:rx="0.87728125"
       sodipodi:cy="15.264735"
       sodipodi:cx="27.412838"
       sodipodi:type="arc"
       id="path1275-1-2-8-1-5-9"
       style="opacity:1;fill:#005500;fill-opacity:1;stroke:none;stroke-width:0;stroke-linecap:butt;stroke-miterlimit:4;stroke-dasharray:none;stroke-opacity:1" /><rect
       transform="rotate(-90)"
       ry="0.74815845"
       y="31.808859"
       x="-19.184883"
       height="1.4963169"
       width="4.3494911"
       id="rect1268-1-8-0-2-3"
       style="opacity:1;fill:#005500;fill-opacity:1;stroke:none;stroke-width:0;stroke-linecap:butt;stroke-miterlimit:4;stroke-dasharray:none;stroke-opacity:1" /><rect
       transform="rotate(-90)"
       ry="0.74815381"
       y="17.808863"
       x="-19.184883"
       height="1.4963076"
       width="4.3494911"
       id="rect1268-1-0-9-6-7-8"
       style="opacity:1;fill:#005500;fill-opacity:1;stroke:none;stroke-width:0;stroke-linecap:butt;stroke-miterlimit:4;stroke-dasharray:none;stroke-opacity:1" /><rect
       ry="0.69303602"
       y="22.579779"
       x="17.775885"
       height="13.464671"
       width="15.545412"
       id="rect1324-6-2-2-7"
       style="opacity:1;fill:#005500;fill-opacity:1;stroke:none;stroke-width:0;stroke-linecap:butt;stroke-miterlimit:4;stroke-dasharray:none;stroke-opacity:1" /><rect
       ry="0"
       y="23.766773"
       x="19.233286"
       height="11.074433"
       width="12.647471"
       id="rect1326-4-1-8-0-3"
       style="opacity:1;fill:#ffffff;fill-opacity:1;stroke:none;stroke-width:0;stroke-linecap:butt;stroke-miterlimit:4;stroke-dasharray:none;stroke-opacity:1" /><rect
       ry="0.97220677"
       y="22.579779"
       x="13.88954"
       height="12.430359"
       width="5.3437448"
       id="rect1328-6-6-9-7"
       style="opacity:1;fill:#005500;fill-opacity:1;stroke:none;stroke-width:0;stroke-linecap:butt;stroke-miterlimit:4;stroke-dasharray:none;stroke-opacity:1" /><rect
       ry="0"
       y="23.964609"
       x="15.346921"
       height="10.045528"
       width="2.4289708"
       id="rect1348-2-9-2-5"
       style="opacity:1;fill:#ffffff;fill-opacity:1;stroke:none;stroke-width:0;stroke-linecap:butt;stroke-miterlimit:4;stroke-dasharray:none;stroke-opacity:1" /><rect
       ry="0.0070273401"
       y="23.766773"
       x="15.346921"
       height="1.7804931"
       width="7.2869172"
       id="rect1352-3-0-6-8"
       style="opacity:1;fill:#ffffff;fill-opacity:1;stroke:none;stroke-width:0;stroke-linecap:butt;stroke-miterlimit:4;stroke-dasharray:none;stroke-opacity:1" /><rect
       transform="rotate(-90)"
       ry="0.72869122"
       y="17.775885"
       x="-29.303261"
       height="1.4573824"
       width="4.346663"
       id="rect1268-1-4-5-5-8-8"
       style="opacity:1;fill:#005500;fill-opacity:1;stroke:none;stroke-width:0;stroke-linecap:butt;stroke-miterlimit:4;stroke-dasharray:none;stroke-opacity:1" /><rect
       transform="scale(-1,1)"
       ry="0.97220677"
       y="22.579779"
       x="-37.207664"
       height="12.430359"
       width="5.3437448"
       id="rect1328-1-3-3-1-5"
       style="opacity:1;fill:#005500;fill-opacity:1;stroke:none;stroke-width:0;stroke-linecap:butt;stroke-miterlimit:4;stroke-dasharray:none;stroke-opacity:1" /><rect
       transform="scale(-1,1)"
       ry="0"
       y="23.964609"
       x="-35.750275"
       height="10.045528"
       width="2.4289708"
       id="rect1348-9-1-5-0-7-29"
       style="opacity:1;fill:#ffffff;fill-opacity:1;stroke:none;stroke-width:0;stroke-linecap:butt;stroke-miterlimit:4;stroke-dasharray:none;stroke-opacity:1" /><rect
       transform="scale(-1,1)"
       ry="0.0070273401"
       y="23.766773"
       x="-35.750275"
       height="1.7804931"
       width="7.2869172"
       id="rect1352-0-8-5-6-9-7"
       style="opacity:1;fill:#ffffff;fill-opacity:1;stroke:none;stroke-width:0;stroke-linecap:butt;stroke-miterlimit:4;stroke-dasharray:none;stroke-opacity:1" /><rect
       transform="matrix(0,-1,-1,0,0,0)"
       ry="0.72869122"
       y="-33.321312"
       x="-29.303261"
       height="1.4573824"
       width="4.346663"
       id="rect1268-1-4-3-9-3-7-5"
       style="opacity:1;fill:#005500;fill-opacity:1;stroke:none;stroke-width:0;stroke-linecap:butt;stroke-miterlimit:4;stroke-dasharray:none;stroke-opacity:1" /><g
       transform="matrix(0.04857941,0,0,0.04262811,-209.03859,-21.756037)"
       id="g2251-3-7-1"><rect
         style="opacity:1;fill:#005500;fill-opacity:1;stroke:none;stroke-width:0;stroke-linecap:butt;stroke-miterlimit:4;stroke-dasharray:none;stroke-opacity:1"
         id="rect1573-5-5-7-0-5"
         width="120"
         height="320"
         x="4839.8267"
         y="1387"
         ry="21.068501" /><rect
         style="opacity:1;fill:#ffffff;fill-opacity:1;stroke:none;stroke-width:0;stroke-linecap:butt;stroke-miterlimit:4;stroke-dasharray:none;stroke-opacity:1"
         id="rect1575-1-1-8-1-3"
         width="60"
         height="180"
         x="4869.8267"
         y="1417"
         ry="0" /><rect
         style="opacity:1;fill:#ffffff;fill-opacity:1;stroke:none;stroke-width:0;stroke-linecap:butt;stroke-miterlimit:4;stroke-dasharray:none;stroke-opacity:1"
         id="rect1579-3-4-8-2-9"
         width="60"
         height="50"
         x="4869.8267"
         y="1627" /></g><g
       style="fill:#005500"
       transform="matrix(0.04857941,0,0,0.03956652,-201.40884,-18.869979)"
       id="g2217-9-7-6"><rect
         style="opacity:1;fill:#005500;fill-opacity:1;stroke:none;stroke-width:0;stroke-linecap:butt;stroke-miterlimit:4;stroke-dasharray:none;stroke-opacity:1"
         id="rect1411-9-2-8-0"
         width="44.544106"
         height="102.80914"
         x="4497.0977"
         y="-352.50241"
         ry="22.355627"
         transform="matrix(0.93549965,0.35332761,-0.73953397,0.67311924,0,0)" /><rect
         style="opacity:1;fill:#005500;fill-opacity:1;stroke:none;stroke-width:0;stroke-linecap:butt;stroke-miterlimit:4;stroke-dasharray:none;stroke-opacity:1"
         id="rect1411-1-9-1-3-9"
         width="37.598888"
         height="94.063049"
         x="-4008.9226"
         y="2767.4951"
         ry="20.453804"
         transform="matrix(-0.94613758,0.32376484,0.23191837,0.97273525,0,0)" /><rect
         style="opacity:1;fill:#005500;fill-opacity:1;stroke:none;stroke-width:0;stroke-linecap:butt;stroke-miterlimit:4;stroke-dasharray:none;stroke-opacity:1"
         id="rect1411-9-0-4-0-0"
         width="44.544106"
         height="102.80914"
         x="-2268.3271"
         y="3198.5894"
         ry="22.355627"
         transform="matrix(-0.93549965,0.35332761,0.73953397,0.67311924,0,0)" /><rect
         style="opacity:1;fill:#005500;fill-opacity:1;stroke:none;stroke-width:0;stroke-linecap:butt;stroke-miterlimit:4;stroke-dasharray:none;stroke-opacity:1"
         id="rect1411-1-9-6-8-1-6"
         width="37.598888"
         height="94.063049"
         x="4742.1035"
         y="-145.29929"
         ry="20.453804"
         transform="matrix(0.94613758,0.32376484,-0.23191837,0.97273525,0,0)" /></g><g
       style="fill:#005500"
       transform="matrix(0.04857941,0,0,0.03956652,-182.51576,-18.869979)"
       id="g2217-4-0-1-2-5"><rect
         style="opacity:1;fill:#005500;fill-opacity:1;stroke:none;stroke-width:0;stroke-linecap:butt;stroke-miterlimit:4;stroke-dasharray:none;stroke-opacity:1"
         id="rect1411-9-5-7-8-9"
         width="44.544106"
         height="102.80914"
         x="4497.0977"
         y="-352.50241"
         ry="22.355627"
         transform="matrix(0.93549965,0.35332761,-0.73953397,0.67311924,0,0)" /><rect
         style="opacity:1;fill:#005500;fill-opacity:1;stroke:none;stroke-width:0;stroke-linecap:butt;stroke-miterlimit:4;stroke-dasharray:none;stroke-opacity:1"
         id="rect1411-1-9-8-3-6-8"
         width="37.598888"
         height="94.063049"
         x="-4008.9226"
         y="2767.4951"
         ry="20.453804"
         transform="matrix(-0.94613758,0.32376484,0.23191837,0.97273525,0,0)" /><rect
         style="opacity:1;fill:#005500;fill-opacity:1;stroke:none;stroke-width:0;stroke-linecap:butt;stroke-miterlimit:4;stroke-dasharray:none;stroke-opacity:1"
         id="rect1411-9-0-8-4-1-1"
         width="44.544106"
         height="102.80914"
         x="-2268.3271"
         y="3198.5894"
         ry="22.355627"
         transform="matrix(-0.93549965,0.35332761,0.73953397,0.67311924,0,0)" /><rect
         style="opacity:1;fill:#005500;fill-opacity:1;stroke:none;stroke-width:0;stroke-linecap:butt;stroke-miterlimit:4;stroke-dasharray:none;stroke-opacity:1"
         id="rect1411-1-9-6-9-3-0-2"
         width="37.598888"
         height="94.063049"
         x="4742.1035"
         y="-145.29929"
         ry="20.453804"
         transform="matrix(0.94613758,0.32376484,-0.23191837,0.97273525,0,0)" /></g><g
       transform="matrix(0.04857941,0,0,0.04262811,-215.9088,-21.756037)"
       id="g2251-1-6-6-4"><rect
         style="opacity:1;fill:#005500;fill-opacity:1;stroke:none;stroke-width:0;stroke-linecap:butt;stroke-miterlimit:4;stroke-dasharray:none;stroke-opacity:1"
         id="rect1573-5-5-1-1-9-1"
         width="120"
         height="320"
         x="4839.8267"
         y="1387"
         ry="21.068501" /><rect
         style="opacity:1;fill:#ffffff;fill-opacity:1;stroke:none;stroke-width:0;stroke-linecap:butt;stroke-miterlimit:4;stroke-dasharray:none;stroke-opacity:1"
         id="rect1575-1-1-3-5-5-2"
         width="60"
         height="180"
         x="4869.8267"
         y="1417"
         ry="0" /><rect
         style="opacity:1;fill:#ffffff;fill-opacity:1;stroke:none;stroke-width:0;stroke-linecap:butt;stroke-miterlimit:4;stroke-dasharray:none;stroke-opacity:1"
         id="rect1579-3-4-3-3-0-9"
         width="60"
         height="50"
         x="4869.8267"
         y="1627" /></g><rect
       y="35.262527"
       x="21.26313"
       height="2.5279315"
       width="1.717553"
       id="rect515-9"
       style="opacity:1;fill:#005500;fill-opacity:1;stroke:none;stroke-width:0;stroke-linecap:butt;stroke-miterlimit:4;stroke-dasharray:none;stroke-opacity:1" /><rect
       y="35.262527"
       x="28.133343"
       height="2.5279315"
       width="1.717553"
       id="rect515-6-6"
       style="opacity:1;fill:#005500;fill-opacity:1;stroke:none;stroke-width:0;stroke-linecap:butt;stroke-miterlimit:4;stroke-dasharray:none;stroke-opacity:1" /></g></svg>