<svg id="Layer_1" data-name="Layer 1" xmlns="http://www.w3.org/2000/svg" viewBox="0 0 120 99.85"><defs><style>.cls-1{fill:#00a038;}.cls-2{fill:#33b35f;}</style></defs><title>Robbo Junior Arrow Left-01</title><path class="cls-1" d="M120,41.39a6.35,6.35,0,0,0-6.38-6.33H48.56L59.81,21.38a6.31,6.31,0,0,0-.73-8.77l-12.61-11a6.43,6.43,0,0,0-9,.57l-.15.18L1.44,45.91a6.3,6.3,0,0,0,0,8L37.3,97.52a6.41,6.41,0,0,0,9,.9,1.37,1.37,0,0,0,.18-.16L59.09,87.2a6.31,6.31,0,0,0,.72-8.76L48.57,64.79h65.05A6.36,6.36,0,0,0,120,58.45Z"/><path class="cls-2" d="M113.62,35.06H48.56L59.81,21.38a6.31,6.31,0,0,0-.73-8.77l-12.61-11a6.43,6.43,0,0,0-9,.57l-.15.18L1.44,45.91a6.34,6.34,0,0,0-1.44,4H120V41.39A6.35,6.35,0,0,0,113.62,35.06Z"/></svg>