<?xml version="1.0" encoding="UTF-8" standalone="no"?>
<!-- Generator: Adobe Illustrator 15.0.0, SVG Export Plug-In . SVG Version: 6.00 Build 0)  -->

<svg
   xmlns:dc="http://purl.org/dc/elements/1.1/"
   xmlns:cc="http://creativecommons.org/ns#"
   xmlns:rdf="http://www.w3.org/1999/02/22-rdf-syntax-ns#"
   xmlns:svg="http://www.w3.org/2000/svg"
   xmlns="http://www.w3.org/2000/svg"
   xmlns:sodipodi="http://sodipodi.sourceforge.net/DTD/sodipodi-0.dtd"
   xmlns:inkscape="http://www.inkscape.org/namespaces/inkscape"
   version="1.1"
   id="Layer_1"
   x="0px"
   y="0px"
   width="50px"
   height="50px"
   viewBox="0 0 50 50"
   enable-background="new 0 0 50 50"
   xml:space="preserve"
   inkscape:version="0.91 r13725"
   sodipodi:docname="prevpagePressed.svg"><metadata
     id="metadata33"><rdf:RDF><cc:Work
         rdf:about=""><dc:format>image/svg+xml</dc:format><dc:type
           rdf:resource="http://purl.org/dc/dcmitype/StillImage" /></cc:Work></rdf:RDF></metadata><defs
     id="defs31" /><sodipodi:namedview
     pagecolor="#ffffff"
     bordercolor="#666666"
     borderopacity="1"
     objecttolerance="10"
     gridtolerance="10"
     guidetolerance="10"
     inkscape:pageopacity="0"
     inkscape:pageshadow="2"
     inkscape:window-width="1920"
     inkscape:window-height="1027"
     id="namedview29"
     showgrid="false"
     inkscape:zoom="4.72"
     inkscape:cx="25.423729"
     inkscape:cy="25"
     inkscape:window-x="0"
     inkscape:window-y="0"
     inkscape:window-maximized="1"
     inkscape:current-layer="Layer_1" /><g
     id="g4202"><g
       id="g4185"><polygon
         points="26.723,14.271 25.723,15.063 25.723,23.062 26.723,23.062 "
         id="polygon6"
         style="fill:#355e7c" /><g
         id="g8"><path
           d="m 27.938,48.777 0.17,-0.019 c 1.334,-0.139 2.291,-0.356 2.976,-0.534 0.7,-0.186 1.174,-0.341 1.562,-0.472 0.513,-0.178 0.842,-0.278 1.355,-0.437 l 0.707,-0.221 -0.124,-0.394 0.325,0.364 c 1.082,-0.567 2.122,-1.233 3.097,-1.979 0.285,-0.161 0.479,-0.248 0.68,-0.339 0.197,-0.092 0.385,-0.177 0.609,-0.299 0.713,-0.411 1.51,-0.97 2.773,-2.39 1.02,-1.06 1.479,-1.711 1.852,-2.233 0.393,-0.572 0.717,-1.075 1.258,-2.009 l 0.037,-0.062 0.031,-0.065 c 0.104,-0.232 0.201,-0.453 0.291,-0.664 l 2.084,-6.305 c 0.033,-0.146 0.066,-0.296 0.1,-0.449 0.264,-1.328 0.34,-2.709 0.231,-4.229 -0.173,-1.701 -0.358,-2.793 -0.534,-3.728 -0.201,-0.976 -0.441,-2.019 -1.043,-3.385 -0.213,-0.64 -0.459,-1.277 -0.732,-1.896 l -0.041,0.016 C 44.873,15.618 44.166,14.486 43.26,13.297 42.545,12.38 41.614,11.29 40.034,10.053 39.75,9.782 39.418,9.473 39.062,9.175 L 38.986,9.114 C 36.836,7.53 34.199,6.303 31.558,5.657 31.306,5.579 31.09,5.514 30.873,5.455 L 30.758,5.86 C 30.728,5.817 30.691,5.569 30.654,5.532 L 30.652,5.06 c 0.002,0 0.006,0 0.01,0 0.021,0 0.055,0.207 0.094,0.213 C 30.713,5.267 30.647,5.361 30.568,5.347 30.411,5.318 30.236,5.339 30.054,5.311 29.615,5.142 29.064,5.108 28.45,5.041 27.876,4.978 27.224,5.034 26.596,5.017 26.348,5.009 26.104,5.06 25.864,5.06 l -1.354,0 -0.002,-0.04 c -0.478,0.004 -0.959,-0.017 -1.406,0.032 -0.6,0.066 -1.18,0.114 -1.646,0.313 -0.121,0.021 -0.509,0.089 -0.509,0.089 -0.05,0.008 -0.124,-0.188 -0.171,-0.182 0.046,-0.005 0.082,-0.213 0.107,-0.213 0.004,0 -0.16,0 -0.16,0 l 0,0.661 c 0,0.076 -0.057,0.161 -0.115,0.258 L 20.503,5.488 C 20.32,5.54 20.161,5.595 19.981,5.651 l 0.002,0.003 C 17.343,6.3 14.712,7.528 12.56,9.113 L 12.523,9.141 12.487,9.173 C 12.139,9.465 11.816,9.767 11.516,10.051 9.939,11.289 9.007,12.378 8.302,13.282 7.388,14.484 6.68,15.616 5.951,17.047 L 5.909,17.03 c -0.272,0.619 -0.519,1.257 -0.733,1.897 -0.601,1.366 -0.842,2.408 -1.038,3.359 -0.181,0.959 -0.366,2.051 -0.535,3.703 -0.11,1.567 -0.034,2.948 0.226,4.269 0.162,0.793 0.364,1.454 0.647,2.112 l 3.482,7.903 c 0.35,0.475 0.793,1.021 1.522,1.781 1.266,1.42 2.063,1.978 2.737,2.367 0.265,0.145 0.452,0.229 0.649,0.318 0.201,0.092 0.393,0.179 0.68,0.34 0.972,0.744 2.013,1.41 3.095,1.98 l 0.326,-0.365 -0.123,0.396 0.708,0.22 c 0.514,0.156 0.844,0.258 1.342,0.431 0.402,0.138 0.875,0.291 1.564,0.476 0.695,0.182 1.652,0.397 2.985,0.537 l 0.169,0.02 c 0,0 3.589,0.227 2.164,0.227 -1.427,-10e-4 2.162,-0.224 2.162,-0.224 z"
           id="path10"
           inkscape:connector-curvature="0"
           style="fill:#ffffff" /></g><path
         d="m 25.85,7.437 c 10.642,0 19.299,8.657 19.299,19.297 0,10.643 -8.657,19.299 -19.299,19.299 C 15.209,46.033 6.552,37.377 6.552,26.734 6.55,16.094 15.208,7.437 25.85,7.437 Z"
         id="path12"
         inkscape:connector-curvature="0"
         style="fill:#00af41;fill-opacity:1" /><g
         id="g14"><path
           d="m 20.962,6.932 c 0.028,-0.009 0.064,-0.02 0.11,-0.033 -0.038,0.01 -0.073,0.023 -0.11,0.033 z"
           id="path16"
           inkscape:connector-curvature="0"
           style="fill:#355e7c" /><path
           d="m 5.299,29.973 c 0.188,0.918 0.422,1.533 0.651,2.031 0.457,1.537 1.054,3.475 1.739,4.758 -0.171,-0.266 -0.334,-0.535 -0.492,-0.811 0.145,0.377 0.305,0.748 0.473,1.117 0.526,0.906 0.827,1.371 1.184,1.894 0.365,0.515 0.78,1.099 1.727,2.082 1.242,1.397 1.936,1.825 2.388,2.088 0.465,0.251 0.733,0.313 1.41,0.704 0.925,0.716 1.916,1.355 2.961,1.906 l -0.052,-0.074 c 1.004,0.311 1.385,0.417 2.097,0.664 0.357,0.121 0.801,0.268 1.457,0.441 0.658,0.168 1.533,0.365 2.758,0.492 l -0.208,-0.164 c 0.809,0.17 1.403,0.184 2.051,0.157 0.108,-0.005 0.22,-0.011 0.333,-0.02 0.113,0.009 0.226,0.015 0.332,0.02 0.646,0.021 1.244,0.013 2.053,-0.157 l -0.207,0.164 c 1.227,-0.127 2.099,-0.324 2.757,-0.492 0.656,-0.176 1.101,-0.32 1.457,-0.441 0.713,-0.247 1.095,-0.354 2.097,-0.664 l -0.052,0.074 c 1.045,-0.551 2.037,-1.19 2.961,-1.906 0.679,-0.391 0.945,-0.453 1.41,-0.704 0.453,-0.263 1.146,-0.69 2.39,-2.088 0.944,-0.983 1.36,-1.567 1.727,-2.082 0.355,-0.521 0.658,-0.985 1.186,-1.894 0.168,-0.369 0.328,-0.74 0.473,-1.117 -0.157,0.271 -0.32,0.545 -0.491,0.811 0.686,-1.283 1.282,-3.221 1.739,-4.758 0.229,-0.498 0.463,-1.113 0.65,-2.031 0.182,-0.918 0.322,-2.145 0.207,-3.824 -0.16,-1.556 -0.33,-2.582 -0.515,-3.555 -0.198,-0.968 -0.421,-1.889 -0.97,-3.12 -0.205,-0.62 -0.439,-1.233 -0.705,-1.835 l 0.086,0.273 C 43.553,16.31 42.84,15.223 42.07,14.207 41.286,13.201 40.424,12.257 39.058,11.191 38.746,10.894 38.431,10.599 38.101,10.321 36.148,8.882 33.687,7.711 31.164,7.099 30.936,7.029 30.711,6.953 30.481,6.889 30.835,6.992 30.651,6.957 30.326,6.904 30.082,6.857 29.836,6.789 29.592,6.754 29.562,6.665 29.029,6.524 28.289,6.443 27.561,6.363 26.642,6.246 25.806,6.213 25.797,6.211 25.791,6.063 25.785,6.063 c -0.002,0 -0.006,0 -0.008,0 -0.004,0 -0.006,0 -0.01,0 -0.008,0 -0.014,0.148 -0.02,0.15 -0.836,0.033 -1.758,0.225 -2.484,0.305 -0.737,0.08 -1.271,0.185 -1.303,0.272 -0.244,0.036 -0.49,0.086 -0.734,0.133 -0.284,0.046 -0.459,0.071 -0.266,0.009 -0.19,0.056 -0.382,0.114 -0.572,0.172 -2.521,0.611 -4.98,1.781 -6.937,3.221 -0.33,0.277 -0.646,0.572 -0.957,0.868 -1.368,1.065 -2.228,2.01 -3.011,3.016 -0.773,1.016 -1.485,2.103 -2.291,3.705 L 7.279,17.64 c -0.265,0.602 -0.501,1.215 -0.706,1.835 -0.548,1.231 -0.77,2.152 -0.969,3.12 -0.184,0.974 -0.354,1.999 -0.513,3.554 -0.114,1.679 0.027,2.906 0.208,3.824 z M 6.55,26.734 c 0,-10.642 8.657,-19.297 19.298,-19.297 10.641,0 19.299,8.657 19.299,19.297 0,10.643 -8.658,19.299 -19.299,19.299 -10.64,0 -19.298,-8.657 -19.298,-19.299 z"
           id="path18"
           inkscape:connector-curvature="0"
           style="fill:#009d41;fill-opacity:1" /></g></g><g
       transform="translate(-98.305085,53.389831)"
       id="g4198"><polygon
         style="fill:#383838;fill-opacity:1"
         id="polygon22"
         points="36.723,33.062 26.723,33.062 26.723,39.273 13.42,27.062 26.723,14.852 26.723,23.062 36.723,23.062 "
         transform="translate(97.669491,-55.084745)" /><path
         d="m 135.24522,-24.795745 0.009,0.326 c 0.006,-1.061 -0.022,-2.172 -0.058,-3.271 0.101,0.846 0.195,1.742 0.25,2.633 0.027,0.444 0.045,0.891 0.049,1.32 0.004,0.785 -0.008,1.592 -0.039,2.297 -0.639,-0.023 -1.25,-0.062 -1.795,-0.117 -0.635,-0.054 -0.766,-0.121 -1.075,-0.211 -0.199,0.318 -2.517,0.469 -2.563,0.391 -0.479,-0.061 -0.968,-0.105 -1.459,-0.146 l 1.012,0.079 -1.012,-0.079 c -0.669,-0.053 -1.349,-0.089 -2.037,-0.111 l -1.304,-0.037 0.134,6.548 0.022,1.539 -4.902,-4.378 c -1.185,-1.043 -2.317,-2.031 -2.987,-2.594 l -0.659,-0.562 0.749,0.609 -2.338,-2.447 c 0.169,0.094 0.224,0.082 0.594,0.338 l -0.421,-0.346 c -0.275,-0.435 -1.12,-1.199 -1.478,-1.604 0.038,0.129 -0.282,-0.146 -0.563,-0.394 l 0.14,0.065 c -0.467,-0.409 -0.954,-0.862 -1.434,-1.312 l -1.914,-1.783 0.552,-0.465 c 0.203,-0.173 0.327,-0.312 0.398,-0.401 l 1.192,-0.935 c -0.131,-0.012 0.717,-0.711 0.237,-0.383 0.765,-0.5 1.425,-1.146 2.15999,-1.617 2.38201,-1.988 4.91801,-5.034 7.49801,-7.005 l -0.056,0.092 c 0.921,-0.712 1.619,-1.135 2.42,-1.786 -0.004,0.283 -0.002,0.562 0.01,0.849 -0.123,1.307 -0.188,2.57 -0.381,2.977 -0.026,1.121 -0.125,2.568 -0.174,3.668 -0.097,-0.283 -0.115,1.068 -0.189,0.527 -0.135,-0.729 -0.02,-0.771 -0.129,-1.39 l 0.033,0.019 -0.117,-3.657 -0.084,-0.773 -0.372,0.364 -0.157,0.154 -0.543,0.475 c -1.546,1.197 -3.123,3.614 -4.693,4.903 -1.694,1.385 -3.544,2.859 -5.03,4.01 -0.228,0.156 -0.218,0.253 -0.263,0.35 l -0.097,0.07 0.312,0.309 0.971,0.897 2.056,1.935 -0.073,-0.062 c 0.752,0.711 1.389,1.16 2.121,1.855 -0.021,0.019 0.092,0.125 0.14,0.188 0.215,0.023 4.2,4.215 4.512,4.4 l 0.229,0.229 c 0.482,0.407 0.793,0.604 1.031,0.736 l -0.095,-0.763 0.104,-0.271 0.127,-0.117 0,-0.368 c 0,-0.396 -0.02,-0.845 0.049,-1.18 -0.055,-0.323 -0.016,-0.387 -0.028,-0.773 -0.031,-0.141 -0.091,-0.209 -0.113,-0.386 l -0.065,-0.497 c -0.023,-0.31 -0.041,-0.562 -0.037,-0.729 0.006,-0.338 0.051,-0.314 0.096,0.115 l 0.014,-0.748 2.566,0.006 1.008,0.061 c 0.286,0.021 0.447,-0.018 0.592,-0.076 0.735,0.035 0.521,-0.027 1.289,-0.054 0.188,-0.089 1.936,0.142 2.152,0.114 l -0.126,-0.014 c 0.446,-0.01 0.815,-0.057 1.185,-0.103 l 0.562,-0.062 0.343,-0.031 0.254,-0.02 -0.011,-0.25 -0.003,-0.521 0.004,-1.65 -0.004,-3.152 c 0.094,-0.021 -0.021,0.494 0.104,0.521 -0.009,-0.661 -0.041,-1.326 -0.074,-1.992 l -0.03,-0.495 c -0.009,-0.157 -0.017,-0.382 -0.021,-0.375 -0.015,-0.091 -0.022,-0.171 -0.027,-0.252 l -0.008,-0.012 c -0.084,0.026 -0.162,0.067 -0.192,0.094 -0.086,0.034 -0.026,-0.045 -0.095,-0.032 l -0.017,0.301 c 0.013,-0.01 -0.034,0.199 -0.094,0.199 l -0.144,0 c -0.092,0 -0.174,-0.197 -0.256,-0.185 -0.164,0.026 -0.324,-0.05 -0.539,-0.065 -0.022,-0.033 -0.18,-0.093 -0.332,-0.09 -0.01,0.09 -0.471,-0.031 -0.449,0.049 l -0.004,-0.021 c -0.092,0.002 -0.157,-0.011 -0.27,0.005 l -1.992,-0.318 -0.084,0.014 c -0.244,-0.002 -0.351,-0.069 -0.207,-0.086 l -0.299,0.004 0.033,0.007 -0.301,0.006 c -0.057,0.008 -0.118,0.049 -0.033,0.088 -0.17,-0.03 -0.361,-0.048 -0.531,-0.032 0.475,-0.055 1.062,-0.133 1.559,-0.223 -0.203,-0.031 -0.571,0.018 -0.791,0.007 -0.266,0.06 -0.807,0.109 -1.229,0.15 -0.094,-0.007 -0.156,-0.105 -0.367,-0.062 -0.104,0.069 -0.236,-0.002 -0.412,0.048 0.201,0.036 0.396,0.021 0.602,0.018 -0.034,0.081 -0.495,0.055 -0.655,0.078 -0.076,-0.026 -0.469,0 -0.715,-0.022 0.106,0.078 -0.199,0.05 -0.347,0.093 -0.168,0.01 -0.272,-0.021 -0.205,-0.05 -0.055,-0.085 0.662,-0.051 0.431,-0.14 -0.062,0.041 -0.388,0.025 -0.562,0.021 -0.002,-0.046 0.117,-0.035 0.006,-0.078 -0.194,0.01 -0.401,-0.047 -0.516,0.002 0.037,0.013 0.117,0.004 0.176,0.004 -0.254,0.004 1.377,0.302 1.049,0.274 0.084,-0.041 -1.448,-0.274 -1.276,-0.276 0.153,-0.023 -0.112,-0.084 0.049,-0.101 l 0.179,0.056 c 0.219,-0.018 0.309,-0.099 0.231,-0.129 -0.367,0.006 1.043,0.314 0.729,0.269 l 0.127,-0.021 c -0.133,-0.031 -0.489,-0.058 -0.625,-0.009 -0.002,-0.046 -0.183,-0.062 -0.33,-0.078 l -0.053,0.009 c -0.154,-0.023 -0.369,-0.014 -0.271,-0.074 0.90099,0.009 -0.593,-0.465 0.28,-0.49 -0.366,0.102 0.12299,0.104 0.50699,0.115 0.036,-0.034 0.208,-0.086 0.483,-0.111 0.238,0.009 0.142,0.037 0.188,0.062 0.133,-0.022 0.387,-0.041 0.354,-0.096 0.187,0.063 0.299,-0.04 0.521,-0.019 0.195,0.028 -0.016,0.026 0.125,0.059 l 0.945,-0.028 c 0.091,-0.049 0.367,-0.139 0.166,-0.215 -0.447,0.01 0.172,0.125 -0.295,0.108 0.201,-0.113 -0.414,-0.031 -0.498,-0.117 0.147,-0.052 0.449,-0.052 0.701,-0.038 l -0.05,0.016 c 0.222,0.016 0.666,0.039 0.904,-0.021 -0.056,-0.04 0.049,-0.07 -0.113,-0.08 l 0.306,-0.007 c 0.039,0.013 0.08,0.024 -0.008,0.034 0.145,0.031 0.288,0.014 0.397,-0.01 0.032,-0.043 1.625,0.178 1.575,0.15 0.222,0.001 0.273,-0.062 0.488,-0.02 0.021,0.035 -2.104,-0.146 -1.813,-0.131 0.188,-0.047 2.495,0.211 2.635,0.132 0.162,0.003 0.358,0.012 0.32,0.055 0.276,-0.021 -0.083,-0.082 0.114,-0.122 0.004,0.008 -0.018,0.021 0.047,0.02 l 0.188,-0.053 c 0.402,0.064 1.18,-0.02 1.592,0.063 l -0.004,0.021 0.008,-0.021 c -0.09,-0.049 -0.188,-0.124 -0.506,-0.165 l -0.072,0.022 c -0.043,-0.014 -0.323,-0.029 -0.305,-0.07 0.354,-0.029 0.662,-0.021 0.979,0.021 l 0.109,-0.017 0.021,0.084 c -0.005,0.004 -0.011,0.002 -0.017,0.01 0.025,0.094 0.029,0.079 0.047,0.02 l 0.011,-0.035 c 0.125,0.098 -0.08,1.562 -0.015,1.919 -0.02,0.146 -0.021,0.014 -0.047,0.196 0.051,0.513 0.09,0.864 0.117,1.399 -0.055,0.171 -0.076,0.186 -0.131,-0.021 l 0.018,0.403 c 0.146,-0.367 0.137,0.754 0.281,0.351 0.033,0.118 0.039,0.358 0.018,0.586 -0.037,0.022 -0.096,0.06 -0.096,0.344 l 0.078,0.63 c 0.047,0.078 0.064,-0.043 0.104,-0.027 -0.061,0.506 0.104,0.44 0.095,0.918 -0.015,0.299 -0.021,0.892 -0.103,0.904 0.004,0.395 0.064,0.395 0.131,0.356 z"
         id="path26"
         inkscape:connector-curvature="0"
         style="fill:#383838;fill-opacity:1" /></g></g><g
     id="Bullet_-_Right" /></svg>