<svg id="Layer_1" data-name="Layer 1" xmlns="http://www.w3.org/2000/svg" viewBox="0 0 120 99.85"><defs><style>.cls-1{fill:#00a038;}.cls-2{fill:#33b35f;}</style></defs><title>Robbo Junior Arrows</title><path class="cls-1" d="M0,41.39a6.35,6.35,0,0,1,6.38-6.33H71.44L60.19,21.38a6.31,6.31,0,0,1,.73-8.77l12.61-11a6.43,6.43,0,0,1,9,.57c0,.06.1.11.15.18l35.86,43.58a6.3,6.3,0,0,1,0,8L82.7,97.52a6.41,6.41,0,0,1-9,.9,1.37,1.37,0,0,1-.18-.16L60.91,87.2a6.31,6.31,0,0,1-.72-8.76L71.43,64.79H6.38A6.36,6.36,0,0,1,0,58.45Z"/><path class="cls-2" d="M6.38,35.06H71.44L60.19,21.38a6.31,6.31,0,0,1,.73-8.77l12.61-11a6.43,6.43,0,0,1,9,.57c0,.06.1.11.15.18l35.86,43.58a6.34,6.34,0,0,1,1.44,4H0V41.39A6.35,6.35,0,0,1,6.38,35.06Z"/></svg>