<?xml version="1.0" encoding="UTF-8" standalone="no"?>
<svg
   xmlns:dc="http://purl.org/dc/elements/1.1/"
   xmlns:cc="http://creativecommons.org/ns#"
   xmlns:rdf="http://www.w3.org/1999/02/22-rdf-syntax-ns#"
   xmlns:svg="http://www.w3.org/2000/svg"
   xmlns="http://www.w3.org/2000/svg"
   xmlns:sodipodi="http://sodipodi.sourceforge.net/DTD/sodipodi-0.dtd"
   xmlns:inkscape="http://www.inkscape.org/namespaces/inkscape"
   width="40"
   height="40"
   viewBox="0 0 40 40"
   version="1.1"
   id="svg16"
   sodipodi:docname="languageConfirm.svg"
   inkscape:version="0.92.1 r15371">
  <metadata
     id="metadata22">
    <rdf:RDF>
      <cc:Work
         rdf:about="">
        <dc:format>image/svg+xml</dc:format>
        <dc:type
           rdf:resource="http://purl.org/dc/dcmitype/StillImage" />
      </cc:Work>
    </rdf:RDF>
  </metadata>
  <defs
     id="defs20">
    <linearGradient
       id="SVGID_2_"
       gradientUnits="userSpaceOnUse"
       x1="-178.1328"
       y1="-244.9507"
       x2="-178.1328"
       y2="-161.5757"
       gradientTransform="matrix(0.26458333,0,0,-0.26458333,129.15802,60.423638)">
      <stop
         offset="0"
         style="stop-color:#FFFFFF;stop-opacity:0"
         id="stop195" />
      <stop
         offset="1"
         style="stop-color:#FFFFFF;stop-opacity:0.5"
         id="stop197" />
    </linearGradient>
    <radialGradient
       id="SVGID_1_"
       cx="-169.1328"
       cy="-239.6631"
       r="78.087898"
       gradientTransform="matrix(1,0,0,-1,256.9448,-151.6406)"
       gradientUnits="userSpaceOnUse">
      <stop
         offset="0.5"
         style="stop-color:#000000"
         id="stop180" />
      <stop
         offset="1"
         style="stop-color:#000000;stop-opacity:0"
         id="stop182" />
    </radialGradient>
    <linearGradient
       id="SVGID_1_-0"
       gradientUnits="userSpaceOnUse"
       x1="3010.8994"
       y1="-28.980499"
       x2="3010.8994"
       y2="54.395"
       gradientTransform="matrix(-0.26458333,0,0,0.26458333,818.90279,278.53359)">
      <stop
         offset="0"
         style="stop-color:#FFFFFF;stop-opacity:0"
         id="stop1928" />
      <stop
         offset="1"
         style="stop-color:#FFFFFF;stop-opacity:0.5"
         id="stop1930" />
    </linearGradient>
    <radialGradient
       gradientUnits="userSpaceOnUse"
       gradientTransform="matrix(1,0,0,-1,256.9448,-151.6406)"
       r="78.087898"
       cy="-239.6631"
       cx="-169.1328"
       id="SVGID_1_-6">
      <stop
         id="stop180-1"
         style="stop-color:#000000"
         offset="0.5" />
      <stop
         id="stop182-7"
         style="stop-color:#000000;stop-opacity:0"
         offset="1" />
    </radialGradient>
    <linearGradient
       id="SVGID_2_-9"
       gradientUnits="userSpaceOnUse"
       x1="-178.1328"
       y1="-244.9507"
       x2="-178.1328"
       y2="-161.5757"
       gradientTransform="matrix(0.26458333,0,0,-0.26458333,159.40934,95.454515)">
      <stop
         offset="0"
         style="stop-color:#FFFFFF;stop-opacity:0"
         id="stop195-7" />
      <stop
         offset="1"
         style="stop-color:#FFFFFF;stop-opacity:0.5"
         id="stop197-8" />
    </linearGradient>
  </defs>
  <sodipodi:namedview
     pagecolor="#ffffff"
     bordercolor="#666666"
     borderopacity="1"
     objecttolerance="10"
     gridtolerance="10"
     guidetolerance="10"
     inkscape:pageopacity="0"
     inkscape:pageshadow="2"
     inkscape:window-width="1920"
     inkscape:window-height="1017"
     id="namedview18"
     showgrid="false"
     inkscape:zoom="7.0727251"
     inkscape:cx="-8.9032767"
     inkscape:cy="23.397811"
     inkscape:window-x="-8"
     inkscape:window-y="-8"
     inkscape:window-maximized="1"
     inkscape:current-layer="svg16" />
  <path
     d="M34.8 19.9c0 8.1-6.6 14.8-14.8 14.8-8.2 0-14.8-6.6-14.8-14.8 0-8.2 6.6-14.8 14.8-14.8 8.2.1 14.8 6.7 14.8 14.8z"
     fill="#f9a737"
     id="path10"
     style="fill:#00a038;fill-opacity:1" />
  <path
     d="M14.5 16.7s.9-.2 1.6.5c.6.7 2.7 2.9 3.3 5.2 2.6-5 7.2-10.2 7.2-10.2l.5 1s-4.7 8.2-5.8 12.9c-1.7 1.1-4.7 1.4-4.7 1.4s-2.6-8.2-5-9c.5-.8 2.9-1.8 2.9-1.8z"
     fill="#fff"
     id="path12" />
  <path
     d="M20 1.7C10 1.7 1.8 9.9 1.8 19.9 1.8 30 10 38.1 20 38.1s18.2-8.2 18.2-18.2S30 1.7 20 1.7zm0 33c-8.2 0-14.8-6.6-14.8-14.8 0-8.2 6.6-14.8 14.8-14.8 8.2 0 14.8 6.6 14.8 14.8 0 8.2-6.6 14.8-14.8 14.8z"
     fill="#fff"
     id="path14" />
</svg>
