<?xml version="1.0" encoding="UTF-8" standalone="no"?>
<!-- Generator: Adobe Illustrator 18.1.1, SVG Export Plug-In . SVG Version: 6.00 Build 0)  -->

<svg
   xmlns:dc="http://purl.org/dc/elements/1.1/"
   xmlns:cc="http://creativecommons.org/ns#"
   xmlns:rdf="http://www.w3.org/1999/02/22-rdf-syntax-ns#"
   xmlns:svg="http://www.w3.org/2000/svg"
   xmlns="http://www.w3.org/2000/svg"
   xmlns:sodipodi="http://sodipodi.sourceforge.net/DTD/sodipodi-0.dtd"
   xmlns:inkscape="http://www.inkscape.org/namespaces/inkscape"
   version="1.1"
   id="Layer_1"
   x="0px"
   y="0px"
   width="56.1px"
   height="50.3px"
   viewBox="0 0 56.1 50.3"
   enable-background="new 0 0 56.1 50.3"
   xml:space="preserve"
   sodipodi:docname="share-bow.svg"
   inkscape:version="0.92.1 r15371"><metadata
     id="metadata113"><rdf:RDF><cc:Work
         rdf:about=""><dc:format>image/svg+xml</dc:format><dc:type
           rdf:resource="http://purl.org/dc/dcmitype/StillImage" /></cc:Work></rdf:RDF></metadata><defs
     id="defs111"><linearGradient
       gradientTransform="matrix(0.26458333,0,0,-0.26458333,129.15802,60.423638)"
       y2="-161.5757"
       x2="-178.1328"
       y1="-244.9507"
       x1="-178.1328"
       gradientUnits="userSpaceOnUse"
       id="SVGID_2_"><stop
         id="stop195"
         style="stop-color:#FFFFFF;stop-opacity:0"
         offset="0" /><stop
         id="stop197"
         style="stop-color:#FFFFFF;stop-opacity:0.5"
         offset="1" /></linearGradient><radialGradient
       gradientUnits="userSpaceOnUse"
       gradientTransform="matrix(1,0,0,-1,256.9448,-151.6406)"
       r="78.087898"
       cy="-239.6631"
       cx="-169.1328"
       id="SVGID_1_"><stop
         id="stop180"
         style="stop-color:#000000"
         offset="0.5" /><stop
         id="stop182"
         style="stop-color:#000000;stop-opacity:0"
         offset="1" /></radialGradient><linearGradient
       gradientTransform="matrix(-0.26458333,0,0,0.26458333,818.90279,278.53359)"
       y2="54.395"
       x2="3010.8994"
       y1="-28.980499"
       x1="3010.8994"
       gradientUnits="userSpaceOnUse"
       id="SVGID_1_-0"><stop
         id="stop1928"
         style="stop-color:#FFFFFF;stop-opacity:0"
         offset="0" /><stop
         id="stop1930"
         style="stop-color:#FFFFFF;stop-opacity:0.5"
         offset="1" /></linearGradient><radialGradient
       id="SVGID_1_-6"
       cx="-169.1328"
       cy="-239.6631"
       r="78.087898"
       gradientTransform="matrix(1,0,0,-1,256.9448,-151.6406)"
       gradientUnits="userSpaceOnUse"><stop
         offset="0.5"
         style="stop-color:#000000"
         id="stop180-1" /><stop
         offset="1"
         style="stop-color:#000000;stop-opacity:0"
         id="stop182-7" /></radialGradient><linearGradient
       gradientTransform="matrix(0.26458333,0,0,-0.26458333,159.40934,95.454515)"
       y2="-161.5757"
       x2="-178.1328"
       y1="-244.9507"
       x1="-178.1328"
       gradientUnits="userSpaceOnUse"
       id="SVGID_2_-9"><stop
         id="stop195-7"
         style="stop-color:#FFFFFF;stop-opacity:0"
         offset="0" /><stop
         id="stop197-8"
         style="stop-color:#FFFFFF;stop-opacity:0.5"
         offset="1" /></linearGradient><radialGradient
       id="SVGID_1_-1"
       cx="-169.1328"
       cy="-239.6631"
       r="78.087898"
       gradientTransform="matrix(1,0,0,-1,256.9448,-151.6406)"
       gradientUnits="userSpaceOnUse"><stop
         offset="0.5"
         style="stop-color:#000000"
         id="stop180-2" /><stop
         offset="1"
         style="stop-color:#000000;stop-opacity:0"
         id="stop182-8" /></radialGradient><radialGradient
       gradientUnits="userSpaceOnUse"
       gradientTransform="matrix(1,0,0,-1,256.9448,-151.6406)"
       r="78.087898"
       cy="-239.6631"
       cx="-169.1328"
       id="SVGID_1_-6-2"><stop
         id="stop180-1-2"
         style="stop-color:#000000"
         offset="0.5" /><stop
         id="stop182-7-7"
         style="stop-color:#000000;stop-opacity:0"
         offset="1" /></radialGradient></defs><sodipodi:namedview
     pagecolor="#ffffff"
     bordercolor="#666666"
     borderopacity="1"
     objecttolerance="10"
     gridtolerance="10"
     guidetolerance="10"
     inkscape:pageopacity="0"
     inkscape:pageshadow="2"
     inkscape:window-width="1466"
     inkscape:window-height="948"
     id="namedview109"
     showgrid="false"
     inkscape:zoom="7.3218503"
     inkscape:cx="29.618062"
     inkscape:cy="29.724179"
     inkscape:window-x="121"
     inkscape:window-y="17"
     inkscape:window-maximized="0"
     inkscape:current-layer="Layer_1" /><path
     style="opacity:0.5;fill:#757575"
     inkscape:connector-curvature="0"
     id="path72"
     d="m 26.5,50.3 c -1.8,-0.1 -3.4,-1.1 -4.3,-2.7 l -0.4,-0.7 -0.6,0.2 c -2,0.7 -4.3,0.1 -5.7,-1.6 -0.9,-1 -1.3,-2.3 -1.2,-3.6 C 14.1,41.9 14,42 13.8,42 13.2,42.1 12.6,42.1 12,42.1 9.1,41.9 6.5,40.2 5.2,37.6 2.1,31.1 1,23.9 2,16.8 2.5,13.3 5.2,10.5 8.7,10 9.3,9.9 9.9,9.9 10.5,9.9 c 4,0.3 7.9,1.2 11.6,2.7 1.5,-1 3.1,-1.6 4.9,-1.9 1.8,-0.3 3.5,-0.2 5.2,0.3 3,-2.6 6.4,-4.7 10.1,-6.2 0.6,-0.2 1.1,-0.4 1.7,-0.5 0.6,-0.1 1.2,-0.1 1.7,-0.1 2.9,0.2 5.5,1.9 6.8,4.5 3.2,6.5 4.3,13.7 3.3,20.8 -0.5,3.5 -3.2,6.3 -6.7,6.8 -0.2,0 -0.3,0 -0.5,0.1 0.5,1.2 0.5,2.6 -0.1,3.8 -0.8,2 -2.8,3.3 -4.9,3.2 H 43 l -0.1,0.8 c -0.4,2.2 -2.1,3.9 -4.3,4.2 -1.9,0.3 -3.8,-0.5 -5,-2 -0.3,-0.4 -0.7,-1 -1.1,-1.6 -0.2,0.7 -0.4,1.3 -0.6,1.8 -0.6,1.8 -2.2,3.1 -4.1,3.4 -0.5,0.3 -0.9,0.4 -1.3,0.3 m -1.9,-23.2 -1,8.3 c -0.1,0.9 -0.3,1.8 -0.4,2.8 l 2.3,-0.8 0.5,0.9 c 0.3,-1.6 0.5,-3.4 0.6,-5.2 l 0.3,-14.2 c -0.5,0.3 -1,0.6 -1.5,1.1 l -2,2.1 -2.6,-1.3 c -3.4,-1.7 -7,-2.7 -10.8,-3 0,0 0,0 -0.1,0 -0.1,0 -0.2,0.1 -0.3,0.3 -0.8,5.6 0.1,11.2 2.6,16.3 0.1,0.1 0.2,0.2 0.2,0.2 h 0.1 c 1.8,-0.7 3.4,-1.6 5,-2.6 z m 4.9,-8.7 4.7,13.5 c 0.6,1.7 1.4,3.3 2.1,4.8 l 0.2,-1 2.5,0.1 c -0.5,-0.9 -0.9,-1.7 -1.3,-2.5 l -3.4,-7.6 8,2.2 c 1.8,0.5 3.7,0.8 5.6,0.9 0.2,0 0.3,-0.1 0.3,-0.3 C 49,22.9 48.1,17.3 45.6,12.2 45.5,12.1 45.4,12 45.4,12 c -0.1,0 -0.1,0 -0.2,0 -3.5,1.4 -6.7,3.5 -9.4,6.2 l -2,2.1 -2.6,-1.4 c -0.5,-0.3 -1.1,-0.5 -1.7,-0.5"
     enable-background="new    " /><path
     style="fill:#ffffff"
     inkscape:connector-curvature="0"
     id="path74"
     d="m 50.5,24.8 c -0.3,1.8 -1.7,3.3 -3.5,3.5 -0.3,0 -0.6,0.1 -0.9,0 -2.2,-0.1 -4.3,-0.5 -6.3,-1.1 1,2.1 2.3,4.3 3.6,6 0.3,0.4 0.3,0.9 0.2,1.3 -0.2,0.5 -0.7,0.8 -1.3,0.8 l -3.9,-0.1 -0.7,4.1 c -0.1,0.6 -0.5,1 -1.1,1.1 -0.5,0.1 -1,-0.1 -1.3,-0.5 -1.6,-2.1 -4.4,-6.3 -6.1,-11.1 -0.1,5.1 -1.5,9.9 -2.4,12.5 -0.2,0.5 -0.6,0.8 -1.1,0.9 -0.6,0.1 -1.1,-0.2 -1.4,-0.7 l -2,-3.7 -3.7,1.3 c -0.5,0.2 -1.1,0 -1.5,-0.4 -0.3,-0.4 -0.4,-0.8 -0.2,-1.3 0.7,-2 1.3,-4.5 1.5,-6.8 -1.8,1.2 -3.7,2.2 -5.7,3 -0.3,0.1 -0.6,0.2 -0.9,0.3 C 10,34.2 8.2,33.3 7.4,31.6 4.5,25.8 3.5,19.4 4.4,13 4.6,11.2 6,9.8 7.9,9.5 c 0.3,0 0.6,-0.1 0.9,0 4.3,0.3 8.5,1.5 12.3,3.4 1.3,-1.3 3,-2.3 4.9,-2.6 2,-0.3 3.9,0.1 5.5,0.9 3,-3 6.6,-5.4 10.7,-7.1 0.3,-0.1 0.6,-0.2 0.9,-0.2 1.8,-0.3 3.6,0.6 4.4,2.3 2.9,5.8 3.9,12.2 3,18.6" /><path
     style="fill:#ffffff"
     inkscape:connector-curvature="0"
     id="path76"
     d="M 25,46.1 C 23.2,46 21.6,45 20.7,43.4 l -0.4,-0.7 -0.6,0.2 c -2,0.7 -4.3,0.1 -5.7,-1.6 -0.9,-1 -1.3,-2.3 -1.2,-3.6 -0.2,0 -0.3,0.1 -0.5,0.1 -0.6,0.1 -1.2,0.1 -1.8,0.1 C 7.6,37.7 5,36 3.7,33.4 0.5,26.9 -0.6,19.7 0.4,12.6 1,9 3.7,6.2 7.3,5.7 7.8,5.6 8.4,5.5 9,5.6 c 4,0.3 7.9,1.2 11.6,2.7 1.5,-1 3.1,-1.6 4.9,-1.9 1.8,-0.3 3.5,-0.2 5.2,0.3 3,-2.6 6.4,-4.7 10.1,-6.2 0.6,-0.2 1.1,-0.4 1.7,-0.5 0.6,0 1.2,0 1.8,0 2.9,0.2 5.5,1.9 6.8,4.5 3.2,6.5 4.3,13.7 3.3,20.8 -0.5,3.5 -3.2,6.3 -6.7,6.8 -0.2,0 -0.3,0 -0.5,0.1 0.5,1.2 0.5,2.6 -0.1,3.8 -0.8,2 -2.8,3.3 -4.9,3.2 H 41.6 L 41.5,40 c -0.4,2.2 -2.1,3.9 -4.3,4.2 -1.9,0.3 -3.8,-0.5 -5,-2 -0.3,-0.4 -0.7,-1 -1.1,-1.6 -0.2,0.7 -0.4,1.3 -0.6,1.8 -0.6,1.8 -2.2,3.1 -4.1,3.4 -0.6,0.3 -1,0.3 -1.4,0.3 m -1.9,-23.3 -1,8.3 C 22,32 21.8,32.9 21.7,33.9 L 24,33.1 24.5,34 c 0.3,-1.6 0.5,-3.4 0.6,-5.2 l 0.3,-14.2 c -0.5,0.3 -1,0.6 -1.5,1.1 l -2,2.1 -2.6,-1.3 c -3.4,-1.7 -7,-2.7 -10.8,-3 0,0 0,0 -0.1,0 -0.1,0 -0.2,0.1 -0.3,0.3 C 7.3,19.4 8.2,25 10.7,30.1 10.8,30 11,30 11,30 h 0.1 c 1.8,-0.7 3.4,-1.6 5,-2.6 z m 4.9,-8.7 4.7,13.5 c 0.6,1.7 1.4,3.3 2.1,4.8 l 0.2,-1 2.5,0.1 C 37,30.6 36.6,29.8 36.2,29 l -3.4,-7.6 8,2.2 c 1.8,0.5 3.7,0.8 5.6,0.9 0.2,0 0.3,-0.1 0.3,-0.3 C 47.5,18.6 46.6,13 44.1,7.9 44,7.8 43.9,7.7 43.9,7.7 c -0.1,0 -0.1,0 -0.2,0 -3.5,1.4 -6.7,3.5 -9.4,6.2 l -2,2.1 -2.6,-1.4 C 29.2,14.4 28.6,14.2 28,14.1" /><path
     style="fill:#00a038;fill-opacity:1"
     inkscape:connector-curvature="0"
     id="path78"
     d="m 24.5,41.3 -2.1,-4 -4.1,1.4 c -0.7,0.2 -1.4,-0.4 -1.2,-1.1 1.4,-4.3 2.6,-10.6 0.8,-14 l 8.6,-4.5 c 4,7.5 1.1,17.8 -0.4,22.1 -0.2,0.7 -1.2,0.8 -1.6,0.1" /><path
     style="fill:#0f7f36;fill-opacity:1"
     inkscape:connector-curvature="0"
     id="path80"
     d="M 25.5,42.2 C 24.9,42.3 24.4,42 24.1,41.5 l -2,-3.7 -3.7,1.3 c -0.5,0.2 -1.1,0 -1.5,-0.4 -0.3,-0.4 -0.4,-0.8 -0.2,-1.3 1.4,-4.3 2.5,-10.5 0.8,-13.7 l -0.2,-0.4 9.3,-4.9 0.2,0.4 c 4.1,7.7 1.1,18.3 -0.4,22.5 0,0.5 -0.4,0.8 -0.9,0.9 m -2.9,-5.4 2.3,4.3 c 0.1,0.2 0.3,0.3 0.5,0.2 0.1,0 0.3,-0.1 0.4,-0.3 1.4,-4 4.2,-14.1 0.6,-21.4 l -7.8,4.1 c 1,2.4 1.3,7.2 -1,14 -0.1,0.2 0,0.4 0.1,0.5 0.1,0.2 0.3,0.2 0.5,0.1 z" /><path
     style="fill:#00a038;fill-opacity:1"
     inkscape:connector-curvature="0"
     id="path82"
     d="m 37.1,39.3 0.8,-4.4 4.3,0.1 C 43,35 43.4,34.2 43,33.6 40.3,30 37.2,24.3 37.9,20.5 l -9.6,-1.7 c -1.5,8.3 4.4,17.3 7.2,20.9 0.4,0.6 1.4,0.4 1.6,-0.4" /><path
     style="fill:#0f7f36;fill-opacity:1"
     inkscape:connector-curvature="0"
     id="path84"
     d="m 36.4,40.5 v 0 C 35.9,40.6 35.4,40.4 35.1,40 32.4,36.5 26.4,27.3 27.9,18.7 l 0.1,-0.4 10.4,1.8 -0.1,0.4 c -0.6,3.6 2.3,9.1 5,12.8 0.3,0.4 0.3,0.9 0.2,1.3 -0.2,0.5 -0.7,0.8 -1.3,0.8 l -3.9,-0.1 -0.7,4.1 c -0.2,0.6 -0.6,1 -1.2,1.1 M 28.6,19.3 c -1.2,8.1 4.6,16.8 7.2,20.2 0.2,0.2 0.4,0.2 0.4,0.2 0.2,0 0.4,-0.1 0.4,-0.4 l 0.9,-4.8 4.7,0.1 c 0.2,0 0.4,-0.1 0.5,-0.3 0,-0.1 0.1,-0.3 -0.1,-0.5 -4.2,-5.7 -5.5,-10.4 -5.2,-13 z" /><path
     style="fill:#00a038;fill-opacity:1"
     inkscape:connector-curvature="0"
     id="path86"
     d="m 7.7,31.4 v 0 C 4.9,25.7 3.9,19.4 4.8,13.1 c 0.3,-1.9 2,-3.3 4,-3.2 6.3,0.4 12.3,2.7 17.3,6.6 1.5,1.2 1.9,3.4 0.8,5.1 -3.5,5.2 -8.5,9.3 -14.4,11.6 -1.9,0.7 -4,-0.1 -4.8,-1.8" /><path
     style="fill:#0f7f36;fill-opacity:1"
     inkscape:connector-curvature="0"
     id="path88"
     d="M 11.7,33.9 C 9.9,34.2 8.1,33.3 7.3,31.6 4.5,25.8 3.5,19.4 4.4,13 4.6,11.2 6,9.8 7.9,9.5 c 0.3,0 0.6,-0.1 0.9,0 6.4,0.4 12.5,2.8 17.5,6.7 1.7,1.3 2.1,3.8 0.9,5.6 -3.6,5.3 -8.6,9.4 -14.6,11.8 -0.3,0.1 -0.6,0.2 -0.9,0.3 M 8,10.4 c -1.4,0.2 -2.6,1.4 -2.8,2.8 -0.9,6.2 0.1,12.4 2.8,18 0.6,1.3 2.1,2.1 3.5,1.8 0.2,0 0.5,-0.1 0.7,-0.2 5.8,-2.3 10.7,-6.3 14.2,-11.5 1,-1.4 0.7,-3.4 -0.7,-4.5 -4.9,-3.9 -10.8,-6.1 -17,-6.5 -0.2,0 -0.5,0 -0.7,0.1" /><path
     style="fill:#00a038;fill-opacity:1"
     inkscape:connector-curvature="0"
     id="path90"
     d="m 47.2,6.4 v 0 c 2.8,5.7 3.8,12 2.9,18.3 -0.3,1.9 -2,3.3 -4,3.2 C 39.8,27.5 33.8,25.2 28.8,21.3 27.3,20.1 26.9,17.9 28,16.2 31.5,11 36.5,6.9 42.4,4.6 c 1.8,-0.7 3.9,0.1 4.8,1.8" /><path
     style="fill:#0f7f36;fill-opacity:1"
     inkscape:connector-curvature="0"
     id="path92"
     d="m 47,28.3 c -0.3,0 -0.6,0.1 -0.9,0 C 39.7,27.9 33.6,25.5 28.6,21.6 26.9,20.3 26.5,17.8 27.7,16 31.3,10.7 36.3,6.6 42.3,4.2 42.6,4.1 42.9,4 43.2,4 c 1.8,-0.3 3.6,0.6 4.4,2.3 2.8,5.8 3.8,12.2 2.9,18.5 -0.3,1.8 -1.7,3.2 -3.5,3.5 M 43.3,4.8 c -0.2,0 -0.5,0.1 -0.7,0.2 -5.8,2.3 -10.7,6.3 -14.2,11.5 -1,1.4 -0.7,3.4 0.7,4.5 4.9,3.9 10.8,6.1 17,6.5 0.2,0 0.5,0 0.7,0 1.4,-0.2 2.6,-1.4 2.8,-2.8 C 50.5,18.5 49.5,12.3 46.8,6.7 46.1,5.3 44.7,4.6 43.3,4.8" /><path
     style="fill:#0f7f36;fill-opacity:1"
     inkscape:connector-curvature="0"
     id="path94"
     d="m 19.7,18.6 -3.9,-0.3 c -0.3,0 -0.5,-0.3 -0.5,-0.5 0,-0.2 0.2,-0.4 0.5,-0.5 L 19.7,17 c 0.5,0 0.9,0.3 0.9,0.8 0,0.5 -0.3,0.8 -0.8,0.9 0,-0.1 -0.1,-0.1 -0.1,-0.1" /><path
     style="fill:#0f7f36;fill-opacity:1"
     inkscape:connector-curvature="0"
     id="path96"
     d="m 21,23 -3.6,1.4 c -0.3,0.1 -0.5,0 -0.7,-0.3 -0.1,-0.2 0,-0.5 0.2,-0.6 l 3.3,-2 c 0.4,-0.2 0.9,-0.1 1.1,0.3 0.2,0.4 0.1,0.9 -0.3,1.1 0.1,0.1 0,0.1 0,0.1" /><path
     style="fill:#0f7f36;fill-opacity:1"
     inkscape:connector-curvature="0"
     id="path98"
     d="m 35.5,19.6 3.8,0.7 c 0.3,0.1 0.5,0.3 0.4,0.6 0,0.2 -0.3,0.4 -0.5,0.4 l -3.9,-0.1 c -0.5,0 -0.8,-0.4 -0.8,-0.8 0,-0.5 0.4,-0.8 0.8,-0.8 0.1,0 0.1,0 0.2,0" /><path
     style="fill:#0f7f36;fill-opacity:1"
     inkscape:connector-curvature="0"
     id="path100"
     d="M 34.6,15.1 38.4,14 c 0.3,-0.1 0.5,0.1 0.6,0.3 0.1,0.2 -0.1,0.5 -0.3,0.6 l -3.5,1.7 c -0.4,0.2 -0.9,0 -1.1,-0.4 -0.2,-0.4 0,-0.9 0.5,-1.1 -0.1,0 -0.1,0 0,0" /><path
     style="fill:#00a038;fill-opacity:1"
     inkscape:connector-curvature="0"
     id="path102"
     d="m 35.6,17.6 c 0.7,4.5 -2.4,8.8 -6.9,9.5 -4.5,0.7 -8.8,-2.4 -9.5,-6.9 -0.7,-4.5 2.4,-8.8 6.9,-9.5 4.5,-0.7 8.8,2.4 9.5,6.9" /><path
     style="fill:#0f7f36;fill-opacity:1"
     inkscape:connector-curvature="0"
     id="path104"
     d="m 28.8,27.5 c -4.7,0.7 -9.2,-2.5 -10,-7.2 -0.7,-4.7 2.5,-9.2 7.2,-10 4.7,-0.7 9.2,2.5 10,7.2 0.8,4.8 -2.5,9.3 -7.2,10 M 26.2,11.1 c -4.3,0.7 -7.2,4.7 -6.5,9 0.7,4.3 4.7,7.2 9,6.5 4.3,-0.7 7.2,-4.7 6.5,-9 -0.7,-4.2 -4.7,-7.1 -9,-6.5" /></svg>