<?xml version="1.0" encoding="UTF-8" standalone="no"?>
<!-- Generator: Adobe Illustrator 15.0.0, SVG Export Plug-In . SVG Version: 6.00 Build 0)  -->

<svg
   xmlns:dc="http://purl.org/dc/elements/1.1/"
   xmlns:cc="http://creativecommons.org/ns#"
   xmlns:rdf="http://www.w3.org/1999/02/22-rdf-syntax-ns#"
   xmlns:svg="http://www.w3.org/2000/svg"
   xmlns="http://www.w3.org/2000/svg"
   xmlns:sodipodi="http://sodipodi.sourceforge.net/DTD/sodipodi-0.dtd"
   xmlns:inkscape="http://www.inkscape.org/namespaces/inkscape"
   version="1.1"
   id="Layer_1"
   x="0px"
   y="0px"
   width="76px"
   height="66px"
   viewBox="0 0 76 66"
   enable-background="new 0 0 76 66"
   xml:space="preserve"
   sodipodi:docname="Speaker_horse.svg"
   inkscape:version="0.92.1 r15371"><metadata
     id="metadata72"><rdf:RDF><cc:Work
         rdf:about=""><dc:format>image/svg+xml</dc:format><dc:type
           rdf:resource="http://purl.org/dc/dcmitype/StillImage" /></cc:Work></rdf:RDF></metadata><defs
     id="defs70" /><sodipodi:namedview
     pagecolor="#ffffff"
     bordercolor="#666666"
     borderopacity="1"
     objecttolerance="10"
     gridtolerance="10"
     guidetolerance="10"
     inkscape:pageopacity="0"
     inkscape:pageshadow="2"
     inkscape:window-width="1115"
     inkscape:window-height="1008"
     id="namedview68"
     showgrid="true"
     inkscape:snap-bbox="true"
     inkscape:snap-object-midpoints="false"
     inkscape:snap-center="true"
     inkscape:zoom="5.6568543"
     inkscape:cx="24.588453"
     inkscape:cy="13.506077"
     inkscape:window-x="0"
     inkscape:window-y="0"
     inkscape:window-maximized="0"
     inkscape:current-layer="Layer_1"><inkscape:grid
       type="xygrid"
       id="grid167" /></sodipodi:namedview><g
     id="g229"><rect
       id="rect47"
       height="14"
       width="8"
       fill="#64A01F"
       y="23"
       x="16" /><polygon
       id="polygon49"
       points="17,36 23,36 23,32.821 23,26.799 23,24 17,24 "
       fill="#FFFFFF" /><polygon
       id="polygon51"
       points="25,37 25,23 36,12 36,48 "
       fill="#64A01F" /><polygon
       id="polygon53"
       points="26,36.586 26,23.414 35,14.414 35,45.586 "
       fill="#FFFFFF" /><path
       id="path55"
       d="M36.182,35.343l1.172-1.042c1.422-1.266,2.238-3.07,2.238-4.952c0-1.751-0.682-3.406-1.92-4.658l-1.09-1.104  l3.393-3.395l1.104,1.114c2.138,2.16,3.313,5.016,3.313,8.042c0,3.246-1.399,6.355-3.844,8.531l-1.158,1.033L36.182,35.343z"
       fill="#64A01F" /><path
       id="path57"
       d="M40.368,22.011l-0.396-0.4l-1.979,1.98l0.392,0.396c1.424,1.44,2.208,3.345,2.208,5.361  c0,2.167-0.938,4.244-2.573,5.699l-0.42,0.374l1.871,2.082l0.416-0.371c2.229-1.985,3.508-4.823,3.508-7.784  C43.393,26.586,42.318,23.981,40.368,22.011z"
       fill="#FFFFFF" /><path
       id="path59"
       d="M40.26,39.882l1.164-1.044c2.709-2.417,4.262-5.876,4.262-9.489c0-3.377-1.313-6.56-3.703-8.963  l-1.096-1.104l3.396-3.394l1.104,1.11c3.288,3.31,5.102,7.695,5.102,12.351c0,4.976-2.135,9.737-5.857,13.064l-1.16,1.039  L40.26,39.882z"
       fill="#64A01F" /><path
       id="path61"
       d="M44.676,17.703l-0.396-0.399l-1.979,1.98l0.395,0.396c2.574,2.592,3.994,6.025,3.994,9.668  c0,3.896-1.674,7.628-4.596,10.234l-0.418,0.375l1.871,2.083l0.416-0.373c3.514-3.14,5.523-7.629,5.523-12.319  C49.486,24.96,47.777,20.824,44.676,17.703z"
       fill="#FFFFFF" /><path
       style="fill:#64a01f;fill-opacity:1"
       id="path63"
       d="M44.611,44.725l1.162-1.043c4.084-3.654,6.425-8.879,6.425-14.333c0-5.113-1.993-9.931-5.61-13.565  l-1.098-1.105l3.394-3.392l1.103,1.106C54.51,16.936,57,22.957,57,29.349c0,6.815-2.923,13.342-8.02,17.907l-1.16,1.038  L44.611,44.725z"
       fill="#64A01F" /><path
       fill="#FFFFFF"
       id="path65"
       d="M49.277,13.099l-0.396-0.397l-1.98,1.979l0.396,0.397c3.806,3.823,5.902,8.892,5.902,14.271  c0,5.738-2.462,11.233-6.757,15.077l-0.418,0.375l1.873,2.083l0.416-0.373C53.198,42.136,56,35.88,56,29.349  C56,23.223,53.611,17.452,49.277,13.099z" /></g><g
     style="fill:#64a01f;fill-opacity:1"
     id="g104"
     transform="matrix(0.03432343,0,0,0.03514143,54.614172,42.869492)" /><g
     style="fill:#64a01f;fill-opacity:1"
     id="g106"
     transform="matrix(0.03432343,0,0,0.03514143,54.614172,42.869492)" /><g
     style="fill:#64a01f;fill-opacity:1"
     id="g108"
     transform="matrix(0.03432343,0,0,0.03514143,54.614172,42.869492)" /><g
     style="fill:#64a01f;fill-opacity:1"
     id="g110"
     transform="matrix(0.03432343,0,0,0.03514143,54.614172,42.869492)" /><g
     style="fill:#64a01f;fill-opacity:1"
     id="g112"
     transform="matrix(0.03432343,0,0,0.03514143,54.614172,42.869492)" /><g
     style="fill:#64a01f;fill-opacity:1"
     id="g114"
     transform="matrix(0.03432343,0,0,0.03514143,54.614172,42.869492)" /><g
     style="fill:#64a01f;fill-opacity:1"
     id="g116"
     transform="matrix(0.03432343,0,0,0.03514143,54.614172,42.869492)" /><g
     style="fill:#64a01f;fill-opacity:1"
     id="g118"
     transform="matrix(0.03432343,0,0,0.03514143,54.614172,42.869492)" /><g
     style="fill:#64a01f;fill-opacity:1"
     id="g120"
     transform="matrix(0.03432343,0,0,0.03514143,54.614172,42.869492)" /><g
     style="fill:#64a01f;fill-opacity:1"
     id="g122"
     transform="matrix(0.03432343,0,0,0.03514143,54.614172,42.869492)" /><g
     style="fill:#64a01f;fill-opacity:1"
     id="g124"
     transform="matrix(0.03432343,0,0,0.03514143,54.614172,42.869492)" /><g
     style="fill:#64a01f;fill-opacity:1"
     id="g126"
     transform="matrix(0.03432343,0,0,0.03514143,54.614172,42.869492)" /><g
     style="fill:#64a01f;fill-opacity:1"
     id="g128"
     transform="matrix(0.03432343,0,0,0.03514143,54.614172,42.869492)" /><g
     style="fill:#64a01f;fill-opacity:1"
     id="g130"
     transform="matrix(0.03432343,0,0,0.03514143,54.614172,42.869492)" /><g
     style="fill:#64a01f;fill-opacity:1"
     id="g132"
     transform="matrix(0.03432343,0,0,0.03514143,54.614172,42.869492)" /><g
     style="fill:#64a01f;fill-opacity:1"
     id="g1529"
     transform="matrix(0.29321476,0,0,0.27670972,78.555081,22.985033)" /><g
     style="fill:#64a01f;fill-opacity:1"
     id="g1531"
     transform="matrix(0.29321476,0,0,0.27670972,78.555081,22.985033)" /><g
     style="fill:#64a01f;fill-opacity:1"
     id="g1533"
     transform="matrix(0.29321476,0,0,0.27670972,78.555081,22.985033)" /><g
     style="fill:#64a01f;fill-opacity:1"
     id="g1535"
     transform="matrix(0.29321476,0,0,0.27670972,78.555081,22.985033)" /><g
     style="fill:#64a01f;fill-opacity:1"
     id="g1537"
     transform="matrix(0.29321476,0,0,0.27670972,78.555081,22.985033)" /><g
     style="fill:#64a01f;fill-opacity:1"
     id="g1539"
     transform="matrix(0.29321476,0,0,0.27670972,78.555081,22.985033)" /><g
     style="fill:#64a01f;fill-opacity:1"
     id="g1541"
     transform="matrix(0.29321476,0,0,0.27670972,78.555081,22.985033)" /><g
     style="fill:#64a01f;fill-opacity:1"
     id="g1543"
     transform="matrix(0.29321476,0,0,0.27670972,78.555081,22.985033)" /><g
     style="fill:#64a01f;fill-opacity:1"
     id="g1545"
     transform="matrix(0.29321476,0,0,0.27670972,78.555081,22.985033)" /><g
     style="fill:#64a01f;fill-opacity:1"
     id="g1547"
     transform="matrix(0.29321476,0,0,0.27670972,78.555081,22.985033)" /><g
     style="fill:#64a01f;fill-opacity:1"
     id="g1549"
     transform="matrix(0.29321476,0,0,0.27670972,78.555081,22.985033)" /><g
     style="fill:#64a01f;fill-opacity:1"
     id="g1551"
     transform="matrix(0.29321476,0,0,0.27670972,78.555081,22.985033)" /><g
     style="fill:#64a01f;fill-opacity:1"
     id="g1553"
     transform="matrix(0.29321476,0,0,0.27670972,78.555081,22.985033)" /><g
     style="fill:#64a01f;fill-opacity:1"
     id="g1555"
     transform="matrix(0.29321476,0,0,0.27670972,78.555081,22.985033)" /><g
     style="fill:#64a01f;fill-opacity:1"
     id="g1557"
     transform="matrix(0.29321476,0,0,0.27670972,78.555081,22.985033)" /><g
     id="g2539"
     transform="translate(44.148528,-15.488633)"><g
       transform="matrix(0.6851664,0,0,0.59298104,-59.042571,-7.6191874)"
       style="fill:#ffffff"
       id="g2331"><g
         style="fill:#ffffff"
         id="g2324"><path
           id="path1523-2-8"
           d="m 96.84823,137.21047 h -1.99738 c -0.24307,0 -0.43982,-0.18567 -0.43982,-0.41506 C 93,130 89.89027,111.0506 94.40458,102.60654 c -0.009,-0.22912 0.18062,-0.42171 0.42311,-0.43029 0.11025,-0.004 2.68057,-0.0744 5.15823,1.47265 0.0255,-0.0479 0.0557,-0.11262 0.0888,-0.19923 0.29292,-0.76842 2.24485,-5.27464 2.32754,-5.466123 0.006,-0.01301 0.0123,-0.02601 0.0191,-0.03846 0.0833,-0.146933 0.26683,-0.313789 0.53248,-0.34063 0.28002,-0.0285 0.54802,0.100723 0.80165,0.382413 l 0.0718,0.07693 c 2.52751,2.68381 2.82248,6.00156 0.83126,9.34255 l -0.34511,0.64169 c -0.0114,0.0213 -0.0249,0.0418 -0.0402,0.0609 v 0 c 5.8e-4,0 -0.061,0.0908 -0.0235,0.17073 0.0331,0.0703 3.25234,7.18421 -3.05764,18.14524 -0.006,0.0108 -0.74477,1.34204 -0.64361,2.95969 0.012,0.19286 0.0267,0.39265 0.0419,0.59852 0.1255,1.71228 0.28178,3.84294 -0.79754,5.58483 -0.0367,0.0617 -1.00632,1.64255 -2.94476,1.64255 z"
           inkscape:connector-curvature="0"
           style="fill:#ffffff;fill-opacity:1;stroke-width:0.28484273"
           sodipodi:nodetypes="csccccccccccccccccccccc" /><path
           id="path1523-2-8-8"
           d="m 93.010918,137.21023 h 1.99738 c 0.24307,0 0.43982,-0.18567 0.43982,-0.41506 2.606871,-10.56111 0.859611,-23.41406 0.0065,-34.18888 0.009,-0.22912 -0.18062,-0.42171 -0.42311,-0.43029 -0.11025,-0.004 -2.68057,-0.0744 -5.15823,1.47265 -0.0255,-0.0479 -0.0557,-0.11262 -0.0888,-0.19923 -0.29292,-0.76842 -2.24485,-5.274643 -2.32754,-5.466126 -0.006,-0.01301 -0.0123,-0.02601 -0.0191,-0.03846 -0.0833,-0.146933 -0.26683,-0.313789 -0.53248,-0.34063 -0.28002,-0.0285 -0.54802,0.100723 -0.80165,0.382413 l -0.0718,0.07693 c -2.527511,2.683813 -2.822481,6.001563 -0.831261,9.342553 l 0.345111,0.64169 c 0.0114,0.0213 0.0249,0.0418 0.0402,0.0609 v 0 c -5.8e-4,0 0.061,0.0908 0.0235,0.17073 -0.0331,0.0703 -3.252341,7.18421 3.05764,18.14524 0.006,0.0108 0.74477,1.34204 0.64361,2.95969 -0.012,0.19286 -0.0267,0.39265 -0.0419,0.59852 -0.1255,1.71228 -0.28178,3.84294 0.79754,5.58483 0.0367,0.0617 1.00632,1.64255 2.94476,1.64255 z"
           inkscape:connector-curvature="0"
           style="fill:#ffffff;fill-opacity:1;stroke-width:0.28484273"
           sodipodi:nodetypes="csccccccccccccccccccccc" /></g></g><g
       style="fill:#64a01f;fill-opacity:1;stroke:#64a01f;stroke-width:0.37181756;stroke-miterlimit:4;stroke-dasharray:none;stroke-opacity:1"
       transform="matrix(0.6851664,0,0,0.59298104,-62.202463,38.50155)"
       id="g2050"><g
         style="fill:#64a01f;fill-opacity:1;stroke:#64a01f;stroke-width:0.37181756;stroke-miterlimit:4;stroke-dasharray:none;stroke-opacity:1"
         id="g1983"><path
           id="path1495-4"
           d="m 91.362408,29.195839 c -0.132826,0 -0.259202,-0.05673 -0.343061,-0.155511 -1.480442,-1.741888 -1.318294,-3.656996 -1.31067,-3.737795 0.12227,-2.060104 1.598607,-2.167191 1.661648,-2.170788 0.198506,-0.0086 0.380299,0.104873 0.443341,0.283074 0.117872,0.333989 1.114216,2.216168 1.75489,3.399932 0.109076,0.201722 0.02698,0.448547 -0.184725,0.55508 -0.752976,0.378816 -1.441151,1.298875 -1.642589,1.621519 -0.0733,0.117602 -0.203198,0.19342 -0.34746,0.203105 -0.01056,8.3e-4 -0.02111,0.0014 -0.03137,0.0014 z m -0.211115,-5.129645 c -0.226655,0.145272 -0.51723,0.488669 -0.565318,1.296385 -0.0021,0.02601 -0.106143,1.355324 0.769103,2.689895 0.28735,-0.363597 0.723947,-0.846178 1.247629,-1.198983 -0.35655,-0.662167 -1.101315,-2.05706 -1.451414,-2.787297 z"
           inkscape:connector-curvature="0"
           style="fill:#64a01f;fill-opacity:1;stroke:#64a01f;stroke-width:0.37181756;stroke-miterlimit:4;stroke-dasharray:none;stroke-opacity:1" /><path
           id="path1497-1"
           d="m 107.64844,29.195562 c -0.0103,0 -0.0208,-2.77e-4 -0.0311,-0.0011 -0.14397,-0.0097 -0.27387,-0.0855 -0.34746,-0.202552 -0.007,-0.01162 -0.73979,-1.167438 -1.64259,-1.621795 -0.2117,-0.106534 -0.2938,-0.353635 -0.18473,-0.55508 0.64097,-1.183764 1.63702,-3.065944 1.75489,-3.399932 0.0628,-0.178202 0.24161,-0.291653 0.44334,-0.283075 0.0627,0.0036 1.53879,0.110408 1.66253,2.184347 0.006,0.06724 0.16889,1.982348 -1.31184,3.724236 -0.0839,0.09823 -0.21024,0.154958 -0.34306,0.154958 z m -1.24001,-2.341795 c 0.52368,0.353082 0.96028,0.835664 1.24763,1.19926 0.88316,-1.342042 0.77115,-2.662224 0.76969,-2.676889 -0.0487,-0.81408 -0.33837,-1.161074 -0.56708,-1.308561 -0.3501,0.730791 -1.09398,2.124301 -1.45024,2.78619 z"
           inkscape:connector-curvature="0"
           style="fill:#64a01f;fill-opacity:1;stroke:#64a01f;stroke-width:0.37181756;stroke-miterlimit:4;stroke-dasharray:none;stroke-opacity:1" /><path
           id="path1503-0"
           d="m 94.472537,53.22199 c -0.136931,0 -0.271517,-0.06005 -0.357429,-0.172667 -0.141916,-0.186225 -0.09705,-0.445502 0.10028,-0.57943 1.226224,-0.832066 3.242075,-2.214231 3.430906,-2.380534 0.01407,-0.01217 0.03665,-0.03099 0.05219,-0.04151 0.0079,-0.0058 0.339836,-0.254573 0.366226,-0.821828 0.0358,-0.776448 0,-8.172068 -2.9e-4,-8.24678 0,-0.02435 0.002,-0.04898 0.006,-0.07305 v 0 c -5.9e-4,0 0.0194,-0.227732 -0.23223,-0.508039 -0.41226,-0.460169 -1.936684,-2.778719 -2.109094,-3.04187 -0.0094,-0.01439 -0.01789,-0.02905 -0.02522,-0.04455 -0.01964,-0.04012 -0.186778,-0.403997 -0.005,-0.804396 0.110542,-0.243504 3.117164,-6.131334 3.459634,-6.801801 0.10527,-0.206426 0.36857,-0.293589 0.58702,-0.193697 0.21874,0.09934 0.31081,0.347547 0.20525,0.553973 -1.33735,2.618504 -3.357892,6.581817 -3.443511,6.768596 -0.02082,0.04566 -0.01232,0.09796 -0.0073,0.119539 0.476474,0.725809 1.701521,2.563715 2.009691,2.907666 0.45184,0.503611 0.44979,0.980936 0.43396,1.138107 0.003,0.548715 0.0355,7.480847 -5.9e-4,8.261999 -0.0413,0.898476 -0.57529,1.345639 -0.70958,1.444424 -0.367687,0.304381 -2.759146,1.931434 -3.504791,2.437536 -0.078,0.05285 -0.167719,0.07831 -0.256563,0.07831 z"
           inkscape:connector-curvature="0"
           style="fill:#64a01f;fill-opacity:1;stroke:#64a01f;stroke-width:0.37181756;stroke-miterlimit:4;stroke-dasharray:none;stroke-opacity:1" /><path
           id="path1509-1"
           d="m 99.62168,59.432463 h -1.997378 c -1.938442,0 -2.908103,-1.580843 -2.948567,-1.648083 -1.076392,-1.73663 -0.920108,-3.867295 -0.794319,-5.579575 0.01525,-0.205595 0.02991,-0.405656 0.04193,-0.598523 0.101452,-1.62816 -0.637449,-2.948342 -0.644779,-2.961624 -6.309102,-10.958812 -3.090191,-18.072742 -3.056764,-18.143303 0.03841,-0.08163 -0.02639,-0.174327 -0.02932,-0.178201 -0.01,-0.01384 -0.0261,-0.03819 -0.03431,-0.05313 L 89.803972,29.61284 c -1.982425,-3.325497 -1.687158,-6.643247 0.84006,-9.327331 l 0.07154,-0.07665 c 0.253924,-0.281967 0.521922,-0.411467 0.801649,-0.382689 0.265946,0.02684 0.449498,0.193696 0.532478,0.340629 0.007,0.01245 0.01349,0.02518 0.01906,0.03846 0.08298,0.191483 2.034617,4.697978 2.327539,5.466124 0.03313,0.08661 0.06333,0.151637 0.08884,0.199507 2.476785,-1.547084 5.047102,-1.476523 5.157942,-1.472925 2.54393,0.195633 3.08696,1.069206 3.17023,1.242426 0.0795,0.165196 0.0361,0.36 -0.10731,0.480922 -1.91059,1.612664 -5.717101,9.707807 -5.755219,9.78916 -0.07301,0.155234 -0.241022,0.252635 -0.418124,0.247101 -0.179741,-0.0061 -0.33749,-0.114834 -0.398186,-0.274496 -0.458881,-1.206177 -0.804874,-3.34625 -0.991652,-4.706832 -0.253338,0.538754 -0.537463,1.22112 -0.769396,1.844824 -0.06656,0.178754 -0.25539,0.291375 -0.452723,0.276156 -0.200266,-0.01633 -0.363,-0.158555 -0.396133,-0.345334 -0.512833,-2.904898 0.136931,-5.375363 0.455069,-6.339419 -0.204957,-0.174051 -0.328987,-0.44412 -0.411087,-0.659953 -0.247767,-0.649715 -1.78128,-4.200454 -2.205561,-5.181943 l -0.06187,0.06669 c -2.291474,2.433109 -2.541293,5.332473 -0.722482,8.384028 l 0.350392,0.649161 c 0.08621,0.125349 0.308462,0.516063 0.09559,0.96793 -0.03137,0.06696 -3.078462,6.806506 3.026562,17.411959 0.03665,0.06392 0.864984,1.544594 0.749164,3.404637 -0.01232,0.19591 -0.02698,0.398462 -0.04252,0.607101 -0.117286,1.598275 -0.263307,3.587542 0.679379,5.108338 0.03284,0.05396 0.768222,1.231912 2.185916,1.231912 H 99.6205 c 0.24307,0 0.43982,0.185672 0.43982,0.415064 0,0.229393 -0.19587,0.415065 -0.43865,0.415065 z M 95.424899,29.470888 c 0.05747,0 0.115233,0.01079 0.170064,0.03237 0.148367,0.05866 0.250992,0.189546 0.267412,0.340353 0.0035,0.03321 0.304357,2.772631 0.781417,4.696317 1.048243,-2.148651 3.509198,-7.001862 5.159698,-8.735172 -0.28588,-0.190653 -0.91805,-0.478431 -2.21172,-0.578047 -5.8e-4,2.77e-4 -0.012,-2.76e-4 -0.0399,-2.76e-4 -0.32371,0 -2.554483,0.04759 -4.640119,1.374693 -0.166544,0.457955 -0.747696,2.227514 -0.690226,4.485742 0.308169,-0.677939 0.651523,-1.315202 0.928611,-1.524948 0.07946,-0.05977 0.176516,-0.09104 0.274743,-0.09104 z"
           inkscape:connector-curvature="0"
           style="fill:#64a01f;fill-opacity:1;stroke:#64a01f;stroke-width:0.37181756;stroke-miterlimit:4;stroke-dasharray:none;stroke-opacity:1" /><g
           style="fill:#64a01f;fill-opacity:1;stroke:#64a01f;stroke-width:0.37181756;stroke-miterlimit:4;stroke-dasharray:none;stroke-opacity:1"
           id="g1903"><path
             style="fill:#64a01f;fill-opacity:1;stroke:#64a01f;stroke-width:0.37181756;stroke-miterlimit:4;stroke-dasharray:none;stroke-opacity:1"
             inkscape:connector-curvature="0"
             d="m 97.192104,57.588746 c -0.831264,0 -1.507417,-0.638093 -1.507417,-1.422565 0,-0.784472 0.676153,-1.422564 1.507417,-1.422564 0.831266,0 1.507706,0.638092 1.507706,1.422564 0,0.784472 -0.67644,1.422565 -1.507706,1.422565 z m 0,-2.014723 c -0.346287,0 -0.627773,0.265641 -0.627773,0.592435 0,0.326794 0.281486,0.592436 0.627773,0.592436 0.346287,0 0.628066,-0.265642 0.628066,-0.592436 0,-0.326794 -0.281779,-0.592435 -0.628066,-0.592435 z"
             id="path1499-4" /><path
             style="fill:#64a01f;fill-opacity:1;stroke:#64a01f;stroke-width:0.37181756;stroke-miterlimit:4;stroke-dasharray:none;stroke-opacity:1"
             inkscape:connector-curvature="0"
             d="m 98.25941,56.581246 c -0.22725,0 -0.419595,-0.165196 -0.438067,-0.381859 -0.01378,-0.141676 -0.188537,-1.360582 -2.097365,-1.360582 -0.243075,0 -0.439823,-0.185672 -0.439823,-0.415065 0,-0.229392 0.196748,-0.415064 0.439823,-0.415064 2.22374,0 2.918072,1.391573 2.974662,2.127344 0.0176,0.228839 -0.16479,0.427517 -0.40698,0.443842 -0.0108,0.0011 -0.0217,0.0014 -0.0322,0.0014 z"
             id="path1501-0" /><path
             style="fill:#64a01f;fill-opacity:1;stroke:#64a01f;stroke-width:0.37181756;stroke-miterlimit:4;stroke-dasharray:none;stroke-opacity:1"
             inkscape:connector-curvature="0"
             d="m 101.89234,57.588746 c -0.83127,0 -1.50771,-0.638369 -1.50771,-1.423118 0,-0.784195 0.67644,-1.422565 1.50771,-1.422565 0.83126,0 1.50741,0.638093 1.50741,1.422565 0,0.784749 -0.67615,1.423118 -1.50741,1.423118 z m 0,-2.015277 c -0.34629,0 -0.62807,0.265642 -0.62807,0.592436 0,0.327071 0.28178,0.592989 0.62807,0.592989 0.34628,0 0.62777,-0.265918 0.62777,-0.592989 0,-0.326794 -0.28149,-0.592436 -0.62777,-0.592436 z"
             id="path1511-1" /><path
             style="fill:#64a01f;fill-opacity:1;stroke:#64a01f;stroke-width:0.37181756;stroke-miterlimit:4;stroke-dasharray:none;stroke-opacity:1"
             inkscape:connector-curvature="0"
             d="m 100.82503,56.580693 c -0.0106,0 -0.0214,-2.77e-4 -0.0323,-0.0011 -0.24219,-0.0166 -0.42428,-0.21528 -0.40698,-0.443843 0.0563,-0.735771 0.75063,-2.127067 2.97467,-2.127067 0.24307,0 0.43982,0.185672 0.43982,0.415064 0,0.229393 -0.19675,0.415065 -0.43982,0.415065 -1.97041,0 -2.09297,1.301366 -2.09708,1.356708 -0.0167,0.2186 -0.20994,0.38518 -0.43835,0.38518 z"
             id="path1513-3" /></g><path
           id="path1517-5"
           d="m 104.6122,53.22199 c -0.0888,0 -0.17857,-0.02546 -0.25657,-0.07803 -0.74535,-0.506102 -3.13681,-2.133155 -3.50479,-2.437536 -0.1343,-0.09851 -0.66824,-0.545948 -0.70958,-1.444425 -0.0361,-0.781151 -0.003,-7.713283 -5.9e-4,-8.261999 -0.0158,-0.157171 -0.0176,-0.634218 0.43396,-1.138107 0.30817,-0.34395 1.53205,-2.180196 2.0094,-2.906559 0.005,-0.02103 0.0147,-0.07305 -0.007,-0.120368 -0.0856,-0.186779 -2.10646,-4.150093 -3.44351,-6.768597 -0.10556,-0.206702 -0.0135,-0.454634 0.20525,-0.553973 0.21873,-0.09989 0.48175,-0.01273 0.58701,0.193697 0.34248,0.670468 3.3491,6.558297 3.45964,6.802079 0.1818,0.400122 0.0147,0.763995 -0.005,0.804118 -0.007,0.0155 -0.0158,0.03016 -0.0252,0.04455 -0.17241,0.262874 -1.69683,2.581702 -2.10909,3.041593 -0.25334,0.282521 -0.23135,0.511637 -0.23017,0.521045 0.004,0.02407 0.005,0.0357 0.004,0.06005 -3e-4,0.07471 -0.0364,7.470332 -3e-4,8.24678 0.0261,0.567255 0.35831,0.816017 0.37239,0.826255 0.0147,0.01079 0.0358,0.02739 0.049,0.03985 0.18589,0.163536 2.20145,1.545424 3.42768,2.377767 0.19704,0.133651 0.24219,0.393204 0.10028,0.57943 -0.0859,0.112344 -0.2208,0.17239 -0.35743,0.17239 z"
           inkscape:connector-curvature="0"
           style="fill:#64a01f;fill-opacity:1;stroke:#64a01f;stroke-width:0.37181756;stroke-miterlimit:4;stroke-dasharray:none;stroke-opacity:1" /><g
           style="fill:#64a01f;fill-opacity:1;stroke:#64a01f;stroke-width:0.37181756;stroke-miterlimit:4;stroke-dasharray:none;stroke-opacity:1"
           id="g1909"><path
             style="fill:#64a01f;fill-opacity:1;stroke:#64a01f;stroke-width:0.37181756;stroke-miterlimit:4;stroke-dasharray:none;stroke-opacity:1"
             inkscape:connector-curvature="0"
             d="m 93.445406,41.208084 c -0.233106,0 -0.427507,-0.172943 -0.438943,-0.394865 -0.150419,-2.919841 -2.685847,-3.126819 -2.793457,-3.134291 -0.242488,-0.0166 -0.424575,-0.21528 -0.406982,-0.443842 0.01759,-0.228839 0.232226,-0.397355 0.470317,-0.384073 0.03431,0.0022 3.420936,0.276433 3.608594,3.921807 0.01202,0.229115 -0.175343,0.423642 -0.417831,0.434711 -0.0073,2.76e-4 -0.01437,5.53e-4 -0.0217,5.53e-4 z"
             id="path1505-2" /><path
             style="fill:#64a01f;fill-opacity:1;stroke:#64a01f;stroke-width:0.37181756;stroke-miterlimit:4;stroke-dasharray:none;stroke-opacity:1"
             inkscape:connector-curvature="0"
             d="m 91.082095,39.837541 c -0.07829,0 -0.15775,-0.0058 -0.237504,-0.01826 -0.770862,-0.118432 -1.300408,-0.783919 -1.179896,-1.483164 0.05923,-0.343674 0.263306,-0.64252 0.574701,-0.841474 0.303477,-0.194251 0.673514,-0.269792 1.042964,-0.213067 0.368865,0.05645 0.694626,0.238801 0.917469,0.513573 0.228708,0.281968 0.32195,0.626471 0.262721,0.970145 v 0 c -0.108196,0.627301 -0.702836,1.07225 -1.380455,1.07225 z m -0.03841,-1.744102 c -0.112302,0 -0.220205,0.03016 -0.311101,0.08827 -0.109076,0.06973 -0.179741,0.171837 -0.199973,0.287501 -0.04252,0.247655 0.160682,0.485626 0.45331,0.53073 0.292629,0.04593 0.565612,-0.120092 0.608128,-0.368024 0.01994,-0.115388 -0.01319,-0.233543 -0.09295,-0.332052 -0.08562,-0.105703 -0.213754,-0.176541 -0.360361,-0.198954 -0.03255,-0.005 -0.0648,-0.0075 -0.09705,-0.0075 z"
             id="path1507-5" /><path
             style="fill:#64a01f;fill-opacity:1;stroke:#64a01f;stroke-width:0.37181756;stroke-miterlimit:4;stroke-dasharray:none;stroke-opacity:1"
             inkscape:connector-curvature="0"
             d="m 105.63903,41.208084 c -0.007,0 -0.0144,0 -0.0217,-5.53e-4 -0.24248,-0.01107 -0.42985,-0.205596 -0.41783,-0.434711 0.18737,-3.645651 3.574,-3.919593 3.6083,-3.921807 0.24484,-0.01356 0.45302,0.155511 0.47032,0.384073 0.0176,0.228285 -0.16391,0.426686 -0.40552,0.443842 -0.11406,0.0089 -2.64567,0.239354 -2.79463,3.134291 -0.0111,0.221922 -0.20554,0.394865 -0.43894,0.394865 z"
             id="path1519-0" /><path
             style="fill:#64a01f;fill-opacity:1;stroke:#64a01f;stroke-width:0.37181756;stroke-miterlimit:4;stroke-dasharray:none;stroke-opacity:1"
             inkscape:connector-curvature="0"
             d="m 108,39.837541 c -0.28676,0 -0.56532,-0.07942 -0.80312,-0.231053 -0.31139,-0.198954 -0.51547,-0.497801 -0.5747,-0.841197 v 0 c -0.0592,-0.343674 0.034,-0.688177 0.26272,-0.970145 0.22285,-0.274772 0.54861,-0.457124 0.91747,-0.513573 0.76881,-0.118432 1.49657,0.354465 1.61738,1.054264 0.0592,0.343397 -0.034,0.687901 -0.26243,0.969868 -0.22285,0.274496 -0.54861,0.457124 -0.91776,0.513573 -0.08,0.01217 -0.1601,0.01826 -0.23956,0.01826 z m -0.50961,-1.205624 c 0.0199,0.115664 0.0909,0.21777 0.19997,0.287224 0.1167,0.07471 0.26155,0.102936 0.40816,0.0808 0.14661,-0.02269 0.27474,-0.09325 0.36036,-0.198955 0.0798,-0.09851 0.11289,-0.216387 0.093,-0.331775 -0.0428,-0.247932 -0.31462,-0.413681 -0.60813,-0.3683 -0.1466,0.02241 -0.27445,0.09297 -0.36006,0.198954 -0.08,0.09823 -0.11319,0.216387 -0.0932,0.332052 z"
             id="path1521-9" /></g><path
           id="path1523-2"
           d="m 101.46043,59.432463 h -1.99738 c -0.24307,0 -0.43982,-0.185672 -0.43982,-0.415065 0,-0.229392 0.19675,-0.415064 0.43982,-0.415064 h 1.99738 c 1.43118,0 2.17536,-1.214202 2.18269,-1.226654 0.94591,-1.526054 0.79989,-3.515321 0.68261,-5.113596 -0.0152,-0.208362 -0.0302,-0.411191 -0.0425,-0.607101 -0.11582,-1.860043 0.71251,-3.340717 0.74799,-3.4027 6.10619,-10.607113 3.0594,-17.346655 3.02773,-17.413619 -0.21258,-0.45159 0.009,-0.842304 0.0956,-0.967931 l 0.3416,-0.633941 c 1.82761,-3.067051 1.57779,-5.966139 -0.71369,-8.399247 l -0.0619,-0.06669 c -0.42457,0.981212 -1.95808,4.532228 -2.20585,5.181943 -0.11787,0.309361 -0.32166,0.731067 -0.72746,0.819614 -0.21405,0.04621 -0.39936,-0.0202 -0.51577,-0.10764 -2.29206,-1.506131 -4.77442,-1.438337 -4.79875,-1.436954 -0.24982,0.0066 -0.44686,-0.170453 -0.45595,-0.399292 -0.009,-0.229116 0.18062,-0.421706 0.42311,-0.430284 0.11025,-0.0044 2.68057,-0.07443 5.15823,1.47265 0.0255,-0.04787 0.0557,-0.112621 0.0888,-0.199231 0.29292,-0.768423 2.24485,-5.274641 2.32754,-5.466124 0.006,-0.01301 0.0123,-0.02601 0.0191,-0.03846 0.0833,-0.146933 0.26683,-0.313789 0.53248,-0.34063 0.28002,-0.0285 0.54802,0.100723 0.80165,0.382413 l 0.0718,0.07693 c 2.52751,2.683807 2.82248,6.001557 0.83126,9.34255 l -0.34511,0.64169 c -0.0114,0.02131 -0.0249,0.04178 -0.0402,0.06088 v 0 c 5.8e-4,0 -0.061,0.09076 -0.0235,0.17073 0.0331,0.07028 3.25234,7.184214 -3.05764,18.14524 -0.006,0.01079 -0.74477,1.342042 -0.64361,2.959687 0.012,0.192866 0.0267,0.392651 0.0419,0.598523 0.1255,1.71228 0.28178,3.842944 -0.79754,5.584832 -0.0367,0.06171 -1.00632,1.642549 -2.94476,1.642549 z"
           inkscape:connector-curvature="0"
           style="fill:#64a01f;fill-opacity:1;stroke:#64a01f;stroke-width:0.37181756;stroke-miterlimit:4;stroke-dasharray:none;stroke-opacity:1" /></g></g></g></svg>