<?xml version="1.0" encoding="utf-8"?>
<!-- Generator: Adobe Illustrator 16.0.0, SVG Export Plug-In . SVG Version: 6.00 Build 0)  -->
<!DOCTYPE svg PUBLIC "-//W3C//DTD SVG 1.1//EN" "http://www.w3.org/Graphics/SVG/1.1/DTD/svg11.dtd">
<svg version="1.1" id="Layer_1" xmlns="http://www.w3.org/2000/svg" xmlns:xlink="http://www.w3.org/1999/xlink" x="0px" y="0px"
	 width="71px" height="71px" viewBox="0 0 71 71" enable-background="new 0 0 71 71" xml:space="preserve">
<g>
	<path fill="#F47033" d="M68.3,35.8c0,17.8-14.4,32.5-32.5,32.5C17.9,68.2,3.3,53.6,3.3,35.8c0-18.1,14.7-32.5,32.5-32.5
		C53.9,3.3,68.3,17.7,68.3,35.8"/>
	<path fill="#211C1D" d="M18.4,39.8c10.9,2.3,22.3,3.5,31.6,4c-0.8,3.5-2.3,6.7-4.5,8.9c-4,3.5-13.7,8.7-22.6,7.9
		c-5-0.5-10.7-4.3-13.4-5.9c1,1.5,2.3,3,3.5,4.3c3,1.5,6.5,3,9.9,3.5c0.8,0,1.3,0,2,0c8.9,0,17.9-4.8,21.8-8.4
		c2.5-2.8,4.3-6.2,5-10.2c1.8,0.3,3.5,0.3,5,0.3c0.3,0,0.3,0,0.5,0c-1.5,8.9-5.3,15.7-10.7,19.8c-3.8,2.5-7.4,4-10.7,4.5l0,0
		c3,0,6-0.5,8.7-1.3c1-0.5,2-1,3-1.8c6-4.8,9.9-11.7,11.4-21.3c1.5,0,2.8-0.3,3.8-0.3c-0.3,3.3-0.5,6.4-0.3,8.2c0,0.8,0,1.8,0.3,2.5
		c0.5-0.8,1-1.5,1.5-2.5l0,0c-0.3-2,0-5,0.3-8.4c1.3-0.3,2.5-0.5,3.3-0.8c0.3-0.8,0.3-1.5,0.5-2c-0.8,0.3-2,0.8-3.5,1
		c0.3-3.8,1-7.2,2.3-9.7c0.3-1,0.8-2,1-2.8c-0.3-1.3-0.5-2.5-1-3.5c-0.3,1.5-0.8,3.5-1.8,5.4c-1.4,2.9-2.1,6.8-2.6,10.8
		c-1,0-2,0.3-3.5,0.3c1-6.7,0.5-12.9-1-18.6c-1.3-4.8-3.5-8.9-6.5-12.7c-2.3-3-4.8-5-6.7-6.4c-1.5-0.5-3-0.8-4.8-1
		c1.5,0.8,6,3.3,9.9,8.4c4.5,5.4,9.2,15.4,7.2,30.2c-1.8,0-3.5,0-5.8-0.3c0.3-2.3,0-4.8-0.8-7.2c-1-4.5-5.5-9.2-9.2-12.2
		c-4.3-4-9.7-7.7-14.7-10.2c-4.8-2.5-8.2-3-10.7-2.8c-0.7,1.1-2,1.8-3,2.8c0.3,0,0.3,0,0.3,0s4-3,12.9,1.8
		c9.9,5.3,21.3,14.7,22.8,21.3c0.8,2.3,1,4.5,0.8,6.7c-9.2-0.5-20.6-1.8-31.3-4c-10.6-2.2-13.9-5-15.2-6.4c0,0.8,0,1.5-0.3,2.3
		C5.5,35.8,9.7,38,18.4,39.8"/>
	<path fill="#F89F90" d="M35.8,68.2L35.8,68.2L35.8,68.2L35.8,68.2L35.8,68.2L35.8,68.2 M35.8,68.2L35.8,68.2L35.8,68.2 M35.8,68.2
		L35.8,68.2L35.8,68.2 M35.8,68.2h-0.3C35.5,68.2,35.5,68.2,35.8,68.2 M35.5,68.2L35.5,68.2L35.5,68.2 M35.5,68.2L35.5,68.2
		L35.5,68.2 M35.5,68.2L35.5,68.2L35.5,68.2 M35.5,68.2L35.5,68.2L35.5,68.2 M35.3,68.2L35.3,68.2L35.3,68.2 M35.3,68.2L35.3,68.2
		L35.3,68.2 M35.3,68.2L35.3,68.2L35.3,68.2 M35.3,68.2L35.3,68.2L35.3,68.2 M35.3,68.2L35.3,68.2L35.3,68.2 M35,68.2L35,68.2
		L35,68.2 M35,68.2L35,68.2L35,68.2 M35,68.2L35,68.2L35,68.2 M35,68.2L35,68.2L35,68.2 M34.8,68.2L34.8,68.2L34.8,68.2 M34.8,68.2
		L34.8,68.2L34.8,68.2 M34.8,68.2L34.8,68.2L34.8,68.2 M34.8,68.2L34.8,68.2L34.8,68.2 M34.8,68.2c-0.3,0-0.3,0-0.3,0
		S34.5,68.2,34.8,68.2 M34.5,68.2L34.5,68.2L34.5,68.2 M34.5,68.2L34.5,68.2L34.5,68.2 M34.5,68.2L34.5,68.2L34.5,68.2 M34.5,68.2
		L34.5,68.2L34.5,68.2 M34.3,68.2L34.3,68.2L34.3,68.2 M34.3,68.2L34.3,68.2L34.3,68.2 M34.3,68.2L34.3,68.2L34.3,68.2 M34.3,68.2
		L34.3,68.2L34.3,68.2 M34.3,68.2L34.3,68.2L34.3,68.2 M68.3,35.8L68.3,35.8L68.3,35.8 M68.3,35.5L68.3,35.5L68.3,35.5 M68.3,35.5
		L68.3,35.5L68.3,35.5 M68.3,35.5L68.3,35.5L68.3,35.5 M68.3,35.5L68.3,35.5L68.3,35.5 M68.3,35.5c0,0,0,0,0-0.3
		C68.3,35.5,68.3,35.5,68.3,35.5 M68.3,35.3L68.3,35.3L68.3,35.3 M68.3,35.3L68.3,35.3L68.3,35.3 M68.3,35.3L68.3,35.3L68.3,35.3
		 M68.3,35.3L68.3,35.3L68.3,35.3 M68.3,35.3c0,0,0,0,0-0.3C68.3,35.3,68.3,35.3,68.3,35.3 M68.3,35L68.3,35L68.3,35 M68.3,35
		L68.3,35L68.3,35 M68.3,35L68.3,35L68.3,35 M68.3,35L68.3,35L68.3,35 M68.3,35c0,0,0,0,0-0.3C68.3,35,68.3,35,68.3,35 M68.3,34.8
		L68.3,34.8L68.3,34.8 M68.3,34.5L68.3,34.5L68.3,34.5 M68.3,34.5L68.3,34.5L68.3,34.5 M68.3,34.5L68.3,34.5L68.3,34.5 M68.3,34.5
		L68.3,34.5L68.3,34.5 M68.3,34.5L68.3,34.5L68.3,34.5 M68.3,34.3L68.3,34.3L68.3,34.3 M68.3,34.3L68.3,34.3L68.3,34.3 M68.3,34.3
		L68.3,34.3L68.3,34.3 M68.3,34.3L68.3,34.3L68.3,34.3 M68.3,34.3L68.3,34.3L68.3,34.3"/>
	<path fill="#F14724" d="M35.8,68.2L35.8,68.2L35.8,68.2L35.8,68.2L35.8,68.2L35.8,68.2L35.8,68.2c-0.3,0-0.3,0-0.3,0l0,0l0,0l0,0
		l0,0l0,0l0,0l0,0l0,0c0,0,0,0-0.3,0l0,0l0,0l0,0l0,0l0,0l0,0l0,0l0,0l0,0c0,0,0,0-0.3,0l0,0l0,0l0,0l0,0l0,0l0,0l0,0h-0.3l0,0l0,0
		l0,0l0,0l0,0l0,0l0,0l0,0c-0.3,0-0.3,0-0.3,0l0,0l0,0l0,0l0,0l0,0l0,0l0,0l0,0c0,0,0,0-0.3,0l0,0l0,0l0,0l0,0l0,0l0,0l0,0l0,0l0,0
		c-7.9-0.5-15.2-3.8-20.6-8.7c0.8,0.3,1.3,0.3,1.8,0.5c2.3,1,5,2,7.4,2.3c0.8,0,1.3,0,2,0c8.9,0,17.9-4.8,21.8-8.4
		c0.8-0.8,1.3-1.5,2-2.5c2.5-2,4.8-4.8,6.5-7.4c0.5,0,1,0,1.5,0c0.3,0,0.3,0,0.5,0c-1.5,8.9-5.3,15.7-10.7,19.8
		C42.7,66.2,39,67.7,35.8,68.2L35.8,68.2 M35.8,68.2L35.8,68.2L35.8,68.2 M36,68.2L36,68.2L36,68.2 M36,68.2L36,68.2L36,68.2
		 M36,68.2L36,68.2L36,68.2 M36,68.2c3,0,5.8-0.5,8.4-1.3c1-0.5,2-1,3-1.8c6-4.8,9.9-11.7,11.4-21.3c1.5,0,2.8-0.3,3.8-0.3
		c-0.3,3.3-0.5,6.4-0.3,8.2c0,0.8,0,1.8,0.3,2.5c0.5-0.8,1-1.5,1.5-2.5l0,0c-0.3-2,0-5,0.3-8.4c1.3-0.3,2.5-0.5,3.3-0.8
		c0.3-0.8,0.3-1.5,0.5-2c-0.8,0.3-2,0.8-3.5,1c0.3-3.8,1-7.2,2.3-9.7c0.3-1,0.8-2,1-2.8c-0.3-1.3-0.5-2.5-1-3.5
		c-0.3,1.5-0.8,3.5-1.8,5.4c-1.4,3-2.1,6.9-2.6,10.9c-1,0-2,0.3-3.5,0.3c0.5-2.8,0.5-5.4,0.5-8.2c1-3.3,1.5-6.7,1.5-10.4
		c0-3.5-0.5-6.7-1.3-9.9c5,5.4,8.2,12.7,8.4,20.6l0,0l0,0l0,0l0,0l0,0l0,0l0,0l0,0l0,0c0,0,0,0,0,0.3l0,0l0,0l0,0l0,0l0,0l0,0l0,0
		l0,0l0,0v0.3l0,0c0,0,0,0,0,0.3l0,0l0,0l0,0l0,0l0,0l0,0l0,0l0,0l0,0c0,0,0,0,0,0.3l0,0l0,0l0,0l0,0l0,0l0,0l0,0l0,0l0,0v0.3l0,0
		l0,0l0,0l0,0l0,0l0,0l0,0l0,0c0,0,0,0,0,0.3l0,0l0,0l0,0C68.3,53.6,53.9,68,36,68.2 M56.6,42.2c0,0-0.3,0-0.5,0c0.5-1,1.3-2,1.8-3
		c-0.3,1-0.3,2-0.5,3C57.1,42.2,56.8,42.2,56.6,42.2"/>
	<path fill="#211615" d="M35.8,68.2L35.8,68.2L35.8,68.2c3.3-0.5,6.9-2,10.7-4.5c5.5-4.3,9.2-10.9,10.7-19.8c-0.3,0-0.3,0-0.5,0
		c-0.5,0-1,0-1.5,0c0.3-0.5,0.8-1.3,1-1.8c0.3,0,0.5,0,0.5,0c0.3,0,0.5,0,0.8,0c0.3-1,0.3-2.3,0.5-3.3c0.8-1.5,1.3-3.3,1.8-5
		c0,2.8,0,5.4-0.5,8.2c1.5,0,2.5-0.3,3.5-0.3c0.5-4,1.3-7.9,2.5-10.7c1-2,1.5-4,1.8-5.4c0.5,1,0.8,2.3,1,3.5c-0.5,0.9-1,1.9-1.3,2.9
		c-1.3,2.5-2,5.9-2.3,9.7c1.5-0.3,2.8-0.8,3.5-1c-0.3,0.5-0.3,1.3-0.5,2c-0.8,0.3-2,0.5-3.3,0.8c-0.1,3.4-0.4,6.3-0.1,8.3l0,0
		c-0.5,1-1,1.8-1.5,2.5c-0.3-0.8-0.3-1.8-0.3-2.5c-0.3-1.8,0-5,0.3-8.2c-1,0-2.3,0.3-3.8,0.3c-1.5,9.7-5.5,16.6-11.4,21.3
		c-1,0.8-2,1.3-3,1.8c-2.7,0.7-5.5,1.2-8.4,1.2l0,0l0,0l0,0l0,0l0,0l0,0l0,0l0,0l0,0l0,0l0,0l0,0l0,0C36,68.2,36,68.2,35.8,68.2
		L35.8,68.2L35.8,68.2L35.8,68.2L35.8,68.2L35.8,68.2 M24.9,62.3c-0.8,0-1.3,0-2,0C20.4,62,17.6,61,15.5,60c2.8,0.5,5.5,1,8.2,1
		c9.7,0,18.4-3.8,25.1-9.7c-0.8,1-1.3,1.8-2,2.5C42.7,57.6,33.8,62.3,24.9,62.3"/>
</g>
</svg>
