<?xml version="1.0" encoding="utf-8"?>
<!-- Generator: Adobe Illustrator 16.0.0, SVG Export Plug-In . SVG Version: 6.00 Build 0)  -->
<!DOCTYPE svg PUBLIC "-//W3C//DTD SVG 1.1//EN" "http://www.w3.org/Graphics/SVG/1.1/DTD/svg11.dtd">
<svg version="1.1" id="Layer_1" xmlns="http://www.w3.org/2000/svg" xmlns:xlink="http://www.w3.org/1999/xlink" x="0px" y="0px"
	 width="479.25px" height="360px" viewBox="0 0 479.25 360" enable-background="new 0 0 479.25 360" xml:space="preserve">
<g>
	<polygon fill="#B46A2C" points="0,360 479.25,360 479.25,265.25 0,265.25 0,360 	"/>
	<path fill="#FAF4EE" d="M479.25,277.75c0-12.5,0-12.5,0-12.5c0.75,0,0.75,0,0.75,0c0,10.75,0,10.75,0,10.75
		C479.75,276.5,479.5,277.25,479.25,277.75"/>
	<polygon fill="#F3EFAF" points="0,260.5 479.25,260.5 479.25,0 0,0 0,260.5 	"/>
	<polygon fill="#D18243" points="0,265.25 479.25,265.25 479.25,261.25 0,261.25 0,265.25 	"/>
	<polygon fill="#E99F66" points="0,262 479.25,262 479.25,260.5 0,260.5 0,262 	"/>
	<polygon fill="#65686D" points="236.5,265.25 242.75,265.25 242.75,141.75 236.5,141.75 236.5,265.25 	"/>
	<g>
		<defs>
			<rect id="SVGID_1_" width="479.25" height="360"/>
		</defs>
		<clipPath id="SVGID_2_">
			<use xlink:href="#SVGID_1_"  overflow="visible"/>
		</clipPath>
		<path clip-path="url(#SVGID_2_)" fill="#AF6429" d="M478.25,265.25C0,265.25,0,265.25,0,265.25l0,0c0,89,107,161,239,161
			S478.25,354.25,478.25,265.25L478.25,265.25L478.25,265.25z"/>
	</g>
	<polygon fill="#3B393D" points="230.75,265.25 248.75,265.25 248.75,180.5 230.75,180.5 230.75,265.25 	"/>
	<path fill="#FFFFFF" d="M388.25,306.75c0.75-0.5,0.75-0.5,0.75-0.5c-53.25-41.5-53.25-41.5-53.25-41.5c-192.25,0-192.25,0-192.25,0
		c-53,41.5-53,41.5-53,41.5c0.75,0.5,0.75,0.5,0.75,0.5c-0.5-0.5-0.5-0.5-0.5-0.5c-0.25,0-1.25,0.5-2,1.5c-0.5,0.5-1,1-1.5,1.75
		c-0.25,0.75-0.5,1.5-0.5,2.25c0,1,0.25,2,1.25,3.25c1.5,2,4.5,4,10,5.75c8.25,3,21.75,6,44.5,8.5c22.5,2.25,53.75,4.25,97.25,5.25
		l0,0l0,0c66.25-1.5,104.25-5.25,126-9.5c10.75-2.25,17.5-4.5,21.5-6.75c2-1,3.5-2.25,4.25-3.25c1-1.25,1.25-2.25,1.25-3.25
		c0-0.75-0.25-1.5-0.5-2.25c-0.75-1-1.5-2-2.25-2.5s-1.25-0.75-1.25-0.75C388.25,306.75,388.25,306.75,388.25,306.75
		c0.75-0.5,0.75-0.5,0.75-0.5C388.25,306.75,388.25,306.75,388.25,306.75c-0.5,0.5-0.5,0.5-0.5,0.5C388,307,388,307,388,307
		c-0.25,0.25-0.25,0.25-0.25,0.25l0,0C388,307,388,307,388,307c-0.25,0.25-0.25,0.25-0.25,0.25s0.75,0.5,1.75,1.25
		c0.25,0.5,0.75,1,1,1.5s0.5,1.25,0.5,1.75c0,0.75-0.25,1.5-1,2.5c-1.25,1.75-4,3.5-9.25,5.5c-8,2.75-21.5,5.75-44,8
		c-22.5,2.5-53.75,4.5-97,5.25c0,0.75,0,0.75,0,0.75c0-0.75,0-0.75,0-0.75c-66.25-1.25-104.25-5-125.5-9.25
		c-10.75-2.25-17.25-4.5-21-6.5c-2-1-3-2-3.75-3s-1-1.75-1-2.5s0.25-1.25,0.5-1.75c0.5-0.75,1-1.5,1.75-2
		c0.25-0.25,0.5-0.5,0.75-0.5c0-0.25,0-0.25,0.25-0.25l0,0l0,0l0,0l0,0l0,0l0,0l0,0l0,0c52.5-41.25,52.5-41.25,52.5-41.25
		c95.5,0,95.5,0,95.5,0c95.25,0,95.25,0,95.25,0c52.75,41.25,52.75,41.25,52.75,41.25l0,0
		C388.25,306.75,388.25,306.75,388.25,306.75"/>
	<path fill="#FFFFFF" d="M90.75,306.25c-0.25,0-1.25,0.5-2,1.5c-0.5,0.5-1,1-1.5,1.75c-0.25,0.75-0.5,1.5-0.5,2.25
		c0,1,0.25,2,1.25,3.25c1.5,2,4.5,4,10,5.75c8.25,3,21.75,6,44.5,8.5c22.5,2.25,53.75,4.25,97.25,5.25l0,0l0,0
		c66.25-1.5,104.25-5.25,126-9.5c10.75-2.25,17.5-4.5,21.5-6.75c2-1,3.5-2.25,4.25-3.25c1-1.25,1.25-2.25,1.25-3.25
		c0-0.75-0.25-1.5-0.5-2.25c-0.75-1-1.5-2-2.25-2.5s-1.25-0.75-1.25-0.75c-1,1-1,1-1,1C388,307,388,307,388,307
		c-0.25,0.25-0.25,0.25-0.25,0.25l0,0C388,307,388,307,388,307c-0.25,0.25-0.25,0.25-0.25,0.25s0.75,0.5,1.75,1.25
		c0.25,0.5,0.75,1,1,1.5s0.5,1.25,0.5,1.75c0,0.75-0.25,1.5-1,2.5c-1.25,1.75-4,3.5-9.25,5.5c-8,2.75-21.5,5.75-44,8
		c-22.5,2.5-53.75,4.5-97,5.25c0,0.75,0,0.75,0,0.75c0-0.75,0-0.75,0-0.75c-66.25-1.25-104.25-5-125.5-9.25
		c-10.75-2.25-17.25-4.5-21-6.5c-2-1-3-2-3.75-3s-1-1.75-1-2.5s0.25-1.25,0.5-1.75c0.5-0.75,1-1.5,1.75-2
		c0.25-0.25,0.5-0.5,0.75-0.5c0-0.25,0-0.25,0.25-0.25l0,0l0,0l0,0l0,0l0,0l0,0l0,0C90.75,306.25,90.75,306.25,90.75,306.25"/>
	<path fill="#FFFFFF" d="M479.25,324c-15.25,2-38,3.5-63.25,4.75c-38,1.75-82.25,3-116.75,3.5c-17.25,0.5-32,0.5-42.75,0.75
		c-5.25,0-9.5,0-12.25,0c-1.5,0-2.75,0-3.5,0s-1,0-1,0c0,0.75,0,0.75,0,0.75c0-0.75,0-0.75,0-0.75s-0.75,0-2,0
		c-10,0-55-0.5-104.75-1.75c-24.75-0.5-50.75-1.5-74.25-2.75s-44.25-2.75-58.5-4.5C0,325.25,0,325.25,0,325.25l0,0
		c15.25,2,38,3.75,63.25,4.75c76.25,3.75,176.5,4.5,176.5,4.5l0,0l0,0c0,0,44.5-0.25,96.75-1.5c26.25-0.75,54.25-1.75,79.5-3
		c25.5-1,48-2.75,63.5-4.75C479.25,324,479.25,324,479.25,324"/>
	<polygon fill="#B45131" points="335.5,265.25 144,265.25 89.25,308.5 390.25,308.5 335.5,265.25 	"/>
	<polygon fill="#FFFFFF" points="335.5,265.25 335.5,264.75 143.5,264.75 87.25,309.25 239.75,309.25 392.25,309.25 335.75,264.75 
		335.5,264.75 335.5,265.25 334.75,265.75 388.25,307.75 239.75,307.75 91.25,307.75 144.25,266 239.75,266 335.5,266 335.5,265.25 
		334.75,265.75 335.5,265.25 	"/>
	<polygon fill="#FFFFFF" points="123.75,281.75 105,281.75 108.5,279 127.25,279 123.75,281.75 	"/>
	<polygon fill="#FFFFFF" points="355.75,281.75 374.25,281.75 371,279 352.25,279 355.75,281.75 	"/>
	<path fill="#FFFFFF" d="M92,308c-0.5-0.25-0.5-0.25-0.5-0.25C92,308,92,308,92,308L92,308c-0.5-0.25-0.5-0.25-0.5-0.25
		C92,308,92,308,92,308s0,0,0-0.25c0.25-0.25,0.75-1,1.75-2C94,305.5,94,305,93.75,305c-0.5-0.25-1-0.25-1.25,0
		c-1.75,1.5-2.25,2.5-2.25,2.5c0,0.25,0.25,0.75,0.5,0.75C91.25,308.5,91.75,308.25,92,308"/>
	<path fill="#FFFFFF" d="M98.75,302.25c1.5-1,3.25-2,5.75-3.25c0.25,0,0.5-0.5,0.25-0.75c-0.25-0.5-1-0.5-1.25-0.25
		c-2.5,1-4.25,2-6,3c-0.25,0.25-0.5,0.75,0,1C97.75,302.25,98.25,302.5,98.75,302.25L98.75,302.25z M110.5,296.5
		c2-0.75,4-1.5,6.5-2.25c0.5-0.25,0.5-0.5,0.5-1c-0.25-0.25-0.75-0.5-1.25-0.25c-2.5,0.75-4.5,1.5-6.5,2.25
		c-0.5,0.25-0.75,0.5-0.5,1C109.5,296.5,110,296.75,110.5,296.5L110.5,296.5z M123.5,292.25c2.25-0.5,4.5-1,6.75-1.75
		c0.5,0,0.75-0.5,0.5-0.75c0-0.25-0.5-0.5-1-0.5c-2.5,0.5-4.75,1.25-6.75,1.75c-0.5,0.25-0.75,0.5-0.5,1
		C122.5,292.25,123,292.5,123.5,292.25L123.5,292.25z M137,289c2.25-0.25,4.5-0.75,7-1.25c0.5,0,0.75-0.25,0.75-0.75
		c-0.25-0.25-0.75-0.5-1.25-0.5c-2.25,0.5-4.75,0.75-6.75,1.25c-0.5,0.25-1,0.5-0.75,1C136.25,289,136.5,289.25,137,289L137,289z
		 M151,286.75c2.25-0.5,4.5-0.75,7-1c0.5,0,0.75-0.5,0.75-0.75c-0.25-0.5-0.5-0.75-1-0.5c-2.5,0.25-5,0.5-7.25,1
		c-0.5,0-0.75,0.25-0.5,0.75C150,286.5,150.5,286.75,151,286.75L151,286.75z M165,284.75c2.25-0.25,4.5-0.5,7-0.5
		c0.5-0.25,0.75-0.5,0.75-1c0-0.25-0.5-0.5-1-0.5c-2.5,0.25-4.75,0.5-7,0.75c-0.5,0-0.75,0.5-0.75,0.75
		C164,284.75,164.5,285,165,284.75L165,284.75z M179,283.5c2.5-0.25,4.75-0.5,7.25-0.5c0.5,0,0.75-0.5,0.75-0.75
		c0-0.5-0.5-0.75-1-0.75c-2.5,0.25-4.75,0.5-7,0.75c-0.5,0-1,0.25-1,0.75C178.25,283.25,178.5,283.5,179,283.5L179,283.5z
		 M193.25,282.5c2.25-0.25,4.75-0.25,7.25-0.5c0.5,0,0.75-0.25,0.75-0.5c0-0.5-0.5-0.75-1-0.75c-2.5,0.25-4.75,0.25-7,0.5
		c-0.5,0-1,0.25-1,0.75C192.25,282.25,192.75,282.5,193.25,282.5L193.25,282.5z M207.5,281.75c2.25,0,4.75,0,7.25-0.25
		c0.5,0,0.75-0.25,0.75-0.5c0-0.5-0.5-0.75-1-0.75c-2.25,0-4.75,0.25-7,0.25c-0.5,0-1,0.25-1,0.75
		C206.5,281.5,207,281.75,207.5,281.75L207.5,281.75z M221.75,281.5c2.25,0,4.75-0.25,7.25-0.25c0.5,0,0.75-0.25,0.75-0.5
		c0-0.5-0.25-0.75-0.75-0.75c-2.5,0-5,0-7.25,0c-0.5,0-1,0.5-1,0.75C221,281.25,221.25,281.5,221.75,281.5L221.75,281.5z
		 M236,281.25c1.25,0,2.5,0,3.75,0s2.25,0,3.5,0c0.5,0,0.75-0.25,0.75-0.75c0-0.25-0.25-0.5-0.75-0.5c-1.25,0-2.25,0-3.5,0
		s-2.5,0-3.75,0c-0.5,0-0.75,0.25-0.75,0.5C235.25,281,235.5,281.25,236,281.25L236,281.25z M250.25,281.25c2.5,0,4.75,0,7.25,0.25
		c0.5,0,0.75-0.25,1-0.75c0-0.25-0.5-0.75-1-0.75c-2.25,0-4.75,0-7.25,0c-0.5,0-0.75,0.25-0.75,0.75
		C249.5,281,249.75,281.25,250.25,281.25L250.25,281.25z M264.5,281.5c2.5,0.25,5,0.25,7.25,0.25c0.5,0,1-0.25,1-0.5
		c0-0.5-0.5-0.75-1-0.75c-2.25,0-4.75-0.25-7-0.25c-0.5,0-1,0.25-1,0.75C263.75,281.25,264,281.5,264.5,281.5L264.5,281.5z
		 M278.75,282c2.5,0.25,5,0.25,7.25,0.5c0.5,0,0.75-0.25,1-0.75c0-0.25-0.5-0.5-1-0.5c-2.25-0.25-4.5-0.25-7-0.5
		c-0.5,0-1,0.25-1,0.75C278,281.75,278.25,282,278.75,282L278.75,282z M293,283c2.5,0,4.75,0.25,7.25,0.5c0.5,0,0.75-0.25,1-0.5
		c0-0.5-0.5-0.75-1-0.75c-2.25-0.25-4.5-0.5-7-0.75c-0.5,0-1,0.25-1,0.75C292.25,282.5,292.5,283,293,283L293,283z M307.25,284
		c2.5,0.25,4.75,0.5,7,0.75c0.5,0.25,1,0,1-0.5c0-0.25-0.25-0.75-0.75-0.75c-2.25-0.25-4.5-0.5-7-0.75c-0.5,0-1,0.25-1,0.5
		C306.25,283.75,306.75,284,307.25,284L307.25,284z M321.25,285.75c2.5,0.25,4.75,0.5,7,1c0.5,0,1-0.25,1-0.5c0.25-0.5,0-0.75-0.5-1
		c-2.25-0.25-4.75-0.5-7.25-1c-0.5,0-0.75,0.25-1,0.75C320.5,285.25,320.75,285.75,321.25,285.75L321.25,285.75z M335.25,287.75
		c2.5,0.5,4.75,1,7,1.25c0.5,0.25,0.75,0,1-0.5c0.25-0.25-0.25-0.5-0.75-0.75c-2-0.5-4.5-0.75-6.75-1.25c-0.5,0-1,0.25-1.25,0.5
		C334.5,287.25,334.75,287.75,335.25,287.75L335.25,287.75z M349,290.5c2.25,0.5,4.5,1.25,6.75,1.75c0.5,0,1,0,1-0.5
		c0.25-0.25,0-0.75-0.5-0.75c-2-0.5-4.25-1.25-6.75-1.75c-0.5,0-1,0-1,0.5C348.25,290,348.5,290.5,349,290.5L349,290.5z
		 M362.25,294.25c2.5,0.75,4.5,1.5,6.5,2.25c0.5,0,1,0,1.25-0.5c0.25-0.25,0-0.75-0.5-0.75c-2-0.75-4-1.5-6.5-2.25
		c-0.5-0.25-1,0-1.25,0.25C361.75,293.75,361.75,294,362.25,294.25L362.25,294.25z M374.75,299c2.5,1,4.25,2,5.75,3
		c0.5,0.25,1,0.25,1.25,0c0.5-0.25,0.25-0.75,0-1c-1.75-1-3.5-2-6-3.25c-0.25,0-1,0-1.25,0.25C374.25,298.5,374.5,298.75,374.75,299
		"/>
	<path fill="#FFFFFF" d="M385.5,305.75c0.75,0.75,1.25,1.25,1.5,1.75c0.25,0,0.25,0.25,0.25,0.25l0.25,0.25l0,0l0,0
		c0.25-0.25,0.25-0.25,0.25-0.25C387.5,308,387.5,308,387.5,308l0,0c0.25-0.25,0.25-0.25,0.25-0.25C387.5,308,387.5,308,387.5,308
		c0,0.25,0.5,0.5,1,0.25c0.5,0,0.75-0.5,0.5-0.75c0,0-0.5-1-2-2.5c-0.25-0.25-0.75-0.25-1.25,0C385.5,305,385.25,305.5,385.5,305.75
		"/>
	<polygon fill="#FFFFFF" points="263.5,135.5 263.5,134.25 217.5,134.25 217.5,113.25 262,113.25 262,135.5 263.5,135.5 
		263.5,134.25 263.5,135.5 265,135.5 265,111 214.5,111 214.5,136.5 265,136.5 265,135.5 263.5,135.5 	"/>
	<path fill="#26285E" d="M235,125c0.75,11,0.75,11,0.75,11c0,1.75,1.75,3.25,4,3.25s4-1.5,4-3.25c0.75-11,0.75-11,0.75-11
		C235,125,235,125,235,125"/>
	<polygon fill="#FFFFFF" points="293.25,141.75 293.25,140.75 187.5,140.75 187.5,89.5 291.75,89.5 291.75,141.75 293.25,141.75 
		293.25,140.75 293.25,141.75 294.75,141.75 294.75,87.25 184.5,87.25 184.5,143 294.75,143 294.75,141.75 293.25,141.75 	"/>
	<polygon fill="#3B393D" points="291.75,125.25 291.75,140.75 187.5,140.75 187.5,125.25 184.5,125.25 184.5,143 294.75,143 
		294.75,125.25 291.75,125.25 291.75,125.25 	"/>
	<path fill="#FFFFFF" d="M218,124.75c0,0,0,0.25,0.25,1c1.5,4.25,7.25,22.25,7.75,39l0.25,0.25c0.25,0,0.5-0.25,0.5-0.25
		c-0.75-19-8.25-40.25-8.25-40.25h-0.25C218,124.5,218,124.5,218,124.75"/>
	<path fill="#FFFFFF" d="M261,124.5c0,0-7.75,21.25-8.25,40.25L253,165c0.25,0,0.25-0.25,0.25-0.25c0.5-9.5,2.5-19.5,4.5-27.25
		c0.75-3.75,1.75-7,2.5-9.25c0.5-1,0.75-2,1-2.5c0-0.75,0.25-1,0.25-1c0-0.25,0-0.25-0.25-0.25S261,124.5,261,124.5L261,124.5"/>
	<path fill="#FFFFFF" d="M253.5,164.5c-3.75-3-3.75-3-3.75-3c-3.25,2.75-3.25,2.75-3.25,2.75c-3.25-2.75-3.25-2.75-3.25-2.75
		c-3.5,2.75-3.5,2.75-3.5,2.75c-3.25-2.75-3.25-2.75-3.25-2.75c-3.5,2.75-3.5,2.75-3.5,2.75c-3.25-2.75-3.25-2.75-3.25-2.75
		c-3.5,3-3.5,3-3.5,3c-0.25,0-0.25,0.25,0,0.25c0,0.25,0.25,0.25,0.25,0c3.25-2.5,3.25-2.5,3.25-2.5C233,165,233,165,233,165
		c3.5-2.75,3.5-2.75,3.5-2.75c3.25,2.75,3.25,2.75,3.25,2.75c3.5-2.75,3.5-2.75,3.5-2.75c3.25,2.75,3.25,2.75,3.25,2.75
		c3.25-2.75,3.25-2.75,3.25-2.75c3.25,2.5,3.25,2.5,3.25,2.5c0,0.25,0.25,0.25,0.5,0V164.5"/>
	<path fill="#FFFFFF" d="M233.25,164.5c-7-6.25-7-6.25-7-6.25s-0.25,0-0.5,0c0,0.25,0,0.25,0,0.5c7,6,7,6,7,6
		c0.25,0.25,0.5,0.25,0.5,0C233.5,164.75,233.5,164.5,233.25,164.5"/>
	<path fill="#FFFFFF" d="M240,164.5C225.25,152,225.25,152,225.25,152c0-0.25-0.25-0.25-0.25,0c-0.25,0-0.25,0.25,0,0.25
		c14.5,12.5,14.5,12.5,14.5,12.5c0,0.25,0.25,0.25,0.5,0V164.5"/>
	<path fill="#FFFFFF" d="M246.75,164.5c-22.5-19-22.5-19-22.5-19c-0.25,0-0.25,0-0.5,0v0.25c22.5,19,22.5,19,22.5,19
		c0,0.25,0.25,0.25,0.25,0C246.75,164.75,246.75,164.5,246.75,164.5"/>
	<path fill="#FFFFFF" d="M253.25,164.5c-30.75-26.75-30.75-26.75-30.75-26.75c-0.25,0-0.5,0-0.5,0c-0.25,0.25-0.25,0.25,0,0.5
		c30.75,26.5,30.75,26.5,30.75,26.5c0.25,0.25,0.5,0.25,0.5,0C253.5,164.75,253.5,164.5,253.25,164.5"/>
	<path fill="#FFFFFF" d="M246.5,164.75c7-6,7-6,7-6c0.25-0.25,0.25-0.25,0-0.5h-0.25C246,164.5,246,164.5,246,164.5
		s0,0.25,0.25,0.25C246.25,165,246.5,165,246.5,164.75"/>
	<path fill="#FFFFFF" d="M240,164.75c14.5-12.5,14.5-12.5,14.5-12.5c0.25,0,0.25-0.25,0-0.25c0-0.25-0.25-0.25-0.5,0
		c-14.5,12.5-14.5,12.5-14.5,12.5c-0.25,0,0,0.25,0,0.25C239.75,165,239.75,165,240,164.75"/>
	<path fill="#FFFFFF" d="M233.25,164.75c22.75-20,22.75-20,22.75-20s0-0.25-0.25-0.25h-0.25c-22.75,20-22.75,20-22.75,20v0.25
		C233,165,233,165,233.25,164.75"/>
	<path fill="#FFFFFF" d="M226.5,164.75c31-26.5,31-26.5,31-26.5c0-0.25,0-0.25,0-0.5c-0.25,0-0.5,0-0.5,0
		c-30.75,26.75-30.75,26.75-30.75,26.75c-0.25,0-0.25,0.25,0,0.25C226.25,165,226.5,165,226.5,164.75"/>
	<path fill="#FFFFFF" d="M226.5,158.75c33.25-28.5,33.25-28.5,33.25-28.5c0-0.25,0-0.25,0-0.5c-0.25,0-0.5,0-0.5,0
		c-33,28.5-33,28.5-33,28.5c-0.25,0.25-0.25,0.25,0,0.5H226.5"/>
	<path fill="#FFFFFF" d="M225.5,152.5c33-28.5,33-28.5,33-28.5c0.25-0.25,0.25-0.25,0-0.5c0,0-0.25,0-0.5,0.25
		c-33,28.5-33,28.5-33,28.5s0,0,0,0.25C225.25,152.5,225.25,152.5,225.5,152.5"/>
	<path fill="#FFFFFF" d="M224.5,147c25.5-22.5,25.5-22.5,25.5-22.5c0.25-0.25,0.25-0.25,0-0.5c0,0-0.25,0-0.25,0.25
		C224,146.75,224,146.75,224,146.75c0,0.25,0,0.25,0,0.5C224.25,147.25,224.25,147.25,224.5,147"/>
	<path fill="#FFFFFF" d="M253.5,158.25c-33.25-28.5-33.25-28.5-33.25-28.5H220c-0.25,0.25-0.25,0.25,0,0.5c33,28.5,33,28.5,33,28.5
		s0.25,0,0.5,0C253.5,158.5,253.5,158.5,253.5,158.25"/>
	<path fill="#FFFFFF" d="M254.5,152.25c-33-28.5-33-28.5-33-28.5c-0.25-0.25-0.25-0.25-0.5-0.25c0,0.25,0,0.25,0,0.5
		c33,28.5,33,28.5,33,28.5c0.25,0,0.5,0,0.5,0C254.75,152.25,254.75,152.25,254.5,152.25"/>
	<path fill="#FFFFFF" d="M255.5,146.75c-25.5-22.5-25.5-22.5-25.5-22.5c-0.25-0.25-0.25-0.25-0.5-0.25c0,0.25,0,0.25,0,0.5
		C255,147,255,147,255,147c0.25,0.25,0.5,0.25,0.5,0.25C255.75,147,255.75,147,255.5,146.75"/>
	<path fill="#EEE897" d="M240.25,52.5c-132,0-239,62.75-239,140c478,0,478,0,478,0C479.25,115.25,372.25,52.5,240.25,52.5
		L240.25,52.5z"/>
	<polygon fill="#CCCDB7" points="187.75,140.5 187.5,89.5 291.75,89.5 291.75,140.75 187.75,140.5 	"/>
	<polygon fill="#3A3735" points="254.25,89.5 257.25,89.5 257.25,140.75 254.25,140.75 254.25,89.5 	"/>
	<path fill="#26285E" d="M262,125c0,0.75-1,1.5-2.25,1.5c-40.25,0-40.25,0-40.25,0c-1.25,0-2-0.75-2-1.5c0-1,0.75-1.75,2-1.75
		c40.25,0,40.25,0,40.25,0C261,123.25,262,124,262,125"/>
	<path fill="#C8CAC6" d="M222.5,140.75c-0.25,0-0.25,0-0.25,0c0-1.75,0-1.75,0-1.75C222.25,139.5,222.5,140.25,222.5,140.75
		 M225.25,123.25c-3,0-3,0-3,0c0-10,0-10,0-10c3,0,3,0,3,0C225.25,123.25,225.25,123.25,225.25,123.25 M225.25,111c-3,0-3,0-3,0
		c0-21.5,0-21.5,0-21.5c3,0,3,0,3,0C225.25,111,225.25,111,225.25,111 M225.25,87.25c-3,0-3,0-3,0l0,0
		C223.25,87.25,224.25,87.25,225.25,87.25L225.25,87.25"/>
	<path fill="#63655F" d="M242.75,180.5c-6.25,0-6.25,0-6.25,0c0-18.25,0-18.25,0-18.25c3,2.5,3,2.5,3,2.5l0,0l0,0l0,0l0,0l0,0l0,0
		l0.25,0.25l0,0c3-2.5,3-2.5,3-2.5C242.75,180.5,242.75,180.5,242.75,180.5"/>
	<polygon fill="#96C4B5" points="0,260.5 479.25,260.5 479.25,192.5 0,192.5 0,260.5 	"/>
	<polygon fill="#3A3735" points="248.75,193.25 230.75,193.25 230.75,180.5 248.75,180.5 248.75,193.25 	"/>
	<polygon fill="#3A3735" points="222.25,89.5 225.25,89.5 225.25,140.75 222.25,140.75 222.25,89.5 	"/>
	<path fill="#FBF9E3" d="M265,136.5c-7,0-7,0-7,0c0-0.75,0.25-1.5,0.5-2.25c3.5,0,3.5,0,3.5,0c0-9,0-9,0-9V125c0-0.25,0-0.25,0-0.5
		c0-11.25,0-11.25,0-11.25c-4.75,0-4.75,0-4.75,0c-3,0-3,0-3,0c-29,0-29,0-29,0c-3,0-3,0-3,0c-4.75,0-4.75,0-4.75,0
		c0,11.25,0,11.25,0,11.25c0,0.25,0,0.25,0,0.5v0.25c0,9,0,9,0,9c3.5,0,3.5,0,3.5,0c0,0.75,0.25,1.5,0.5,2.25c-7,0-7,0-7,0
		c0-25.5,0-25.5,0-25.5c7.75,0,7.75,0,7.75,0c3,0,3,0,3,0c29,0,29,0,29,0c3,0,3,0,3,0c7.75,0,7.75,0,7.75,0c0,24.5,0,24.5,0,24.5
		C265,136.5,265,136.5,265,136.5 M263.5,135.5L263.5,135.5c0-1.25,0-1.25,0-1.25C263.5,135.5,263.5,135.5,263.5,135.5"/>
	<polygon fill="#FBF9E3" points="184.5,143 184.5,143 184.5,87.25 294.75,87.25 294.75,125.25 291.75,125.25 291.75,125.25 
		291.75,140.75 257,140.75 257,140.75 257.25,140.75 291.75,140.75 291.75,89.5 257.25,89.5 254.25,89.5 225.25,89.5 222.25,89.5 
		187.5,89.5 187.5,125.25 184.5,125.25 184.5,143 	"/>
	<path fill="#EEE897" d="M226.75,164c-0.25-1.5-0.25-3.25-0.5-5c3,2.75,3,2.75,3,2.75C226.75,164,226.75,164,226.75,164 M252.75,164
		c-2.75-2.25-2.75-2.25-2.75-2.25c3-2.75,3-2.75,3-2.75C253,160.75,252.75,162.25,252.75,164 M226.25,158.25
		c-0.25-1.75-0.5-3.75-0.75-5.5c3.5,3,3.5,3,3.5,3C226.25,158.25,226.25,158.25,226.25,158.25 M253.25,158.25
		c-2.75-2.5-2.75-2.5-2.75-2.5c3.5-3,3.5-3,3.5-3C253.75,154.5,253.5,156.25,253.25,158.25 M225.25,151.75
		c-0.25-1.5-0.5-3.25-0.75-4.75c0.25-0.25,0.25-0.25,0.25-0.25c3.25,2.75,3.25,2.75,3.25,2.75
		C225.25,151.75,225.25,151.75,225.25,151.75 M254,151.75c-3-2.75-3-2.75-3-2.75c3.25-2.75,3.25-2.75,3.25-2.75
		C255,147,255,147,255,147C254.5,148.5,254.25,150,254,151.75 M224.5,146.5c0,0,0,0,0-0.25C224.5,146.5,224.5,146.5,224.5,146.5
		L224.5,146.5 M255,146.25c-0.5-0.25-0.5-0.25-0.5-0.25c0.75-0.5,0.75-0.5,0.75-0.5C255.25,145.75,255,146,255,146.25 M224.75,146
		c-0.5-0.5-0.5-0.5-0.5-0.5c-0.25-0.75-0.5-1.75-0.5-2.5c3.75,0,3.75,0,3.75,0c0.5,0.25,0.5,0.25,0.5,0.25
		C224.75,146,224.75,146,224.75,146 M254.25,145.5c-2.75-2.25-2.75-2.25-2.75-2.25C252,143,252,143,252,143c3.75,0,3.75,0,3.75,0
		c0,0.5-0.25,1-0.25,1.5C254.25,145.5,254.25,145.5,254.25,145.5 M228.25,143L228.25,143c0.25,0,0.25,0,0.25,0
		C228.25,143,228.25,143,228.25,143"/>
	<path fill="#FBF9E3" d="M257.25,136.5c-5,0-5,0-5,0c2.75-2.25,2.75-2.25,2.75-2.25c3,0,3,0,3,0
		C257.75,135,257.5,135.75,257.25,136.5"/>
	<path fill="#FBF9E3" d="M227.25,136.5c-5.25,0-5.25,0-5.25,0c0-0.75-0.25-1.5-0.5-2.25c0.75,0,0.75,0,0.75,0c2.5,0,2.5,0,2.5,0
		C227.25,136.5,227.25,136.5,227.25,136.5"/>
	<polygon fill="#FBF9E3" points="251.5,136.5 244,136.5 246.5,134.25 254,134.25 251.5,136.5 	"/>
	<polygon fill="#FBF9E3" points="235.75,136.5 228,136.5 225.5,134.25 233,134.25 235.75,136.5 	"/>
	<path fill="#3A3735" d="M294.75,143c-38.5,0-38.5,0-38.5,0c0.25-0.75,0.5-1.5,0.75-2.25c34.75,0,34.75,0,34.75,0
		c0-15.5,0-15.5,0-15.5l0,0c3,0,3,0,3,0C294.75,143,294.75,143,294.75,143 M255.75,143c-3.75,0-3.75,0-3.75,0
		c2.5-2.25,2.5-2.25,2.5-2.25c1.75,0,1.75,0,1.75,0C256,141.5,256,142.25,255.75,143 M228.5,143c-0.25,0-0.25,0-0.25,0
		c-2.5-2.25-2.5-2.25-2.5-2.25c5.25,0,5.25,0,5.25,0C228.5,143,228.5,143,228.5,143 M227.5,143c-3.75,0-3.75,0-3.75,0
		c-0.25-0.75-0.5-1.5-0.5-2.25c1.75,0,1.75,0,1.75,0C227.5,143,227.5,143,227.5,143 M223,143c-38.5,0-38.5,0-38.5,0
		c0-17.75,0-17.75,0-17.75c3,0,3,0,3,0c0,15.5,0,15.5,0,15.5c35,0,35,0,35,0C222.75,141.5,223,142.25,223,143 M251.25,143
		c-2.5-2.25-2.5-2.25-2.5-2.25c5,0,5,0,5,0C251.25,143,251.25,143,251.25,143"/>
	<path fill="#FBF9E3" d="M226.25,165L226.25,165L226.25,165c0.25,0,0.25,0,0.25-0.25C226.5,165,226.5,165,226.25,165L226.25,165
		 M226.25,165L226.25,165L226.25,165 M226.25,165L226.25,165L226.25,165 M226.25,165L226.25,165L226.25,165 M226.5,164.75
		L226.5,164.75L226.5,164.75 M226.5,164.75L226.5,164.75L226.5,164.75 M226.5,164.75L226.5,164.75L226.5,164.75 M226.5,164.75
		L226.5,164.75L226.5,164.75L226.5,164.75 M226,164.75L226,164.75L226,164.75 M226,164.75L226,164.75L226,164.75 M226,164.75
		L226,164.75L226,164.75 M226,164.75L226,164.75L226,164.75 M226,164.75L226,164.75L226,164.75 M226,164.75
		c0-4.25-0.5-8.5-1.25-12.75c0,0.25,0,0.25,0.25,0.25l0,0v0.25h0.25c0.25,0.25,0.25,0.25,0.25,0.25c0.25,1.75,0.5,3.75,0.75,5.5l0,0
		H226c0,0,0,0-0.25,0c0,0.25,0,0.25,0,0.5c0.5,0.25,0.5,0.25,0.5,0.25c0.25,1.75,0.25,3.5,0.5,5c-0.5,0.5-0.5,0.5-0.5,0.5
		C226,164.5,226,164.5,226,164.75 M224.75,152c-0.5-3-1-6.25-1.75-9c0-0.75-0.25-1.5-0.5-2.25l0,0c0-0.5-0.25-1.25-0.25-1.75
		c-0.25-0.25-0.25-0.5-0.25-1c0,0,0,0,0,0.25c0.75,0.5,0.75,0.5,0.75,0.5c0,0.75,0.25,1.25,0.5,2l0,0c0,0.75,0.25,1.5,0.5,2.25
		c0,0.75,0.25,1.75,0.5,2.5l0,0H224h-0.25v0.25c0.75,0.5,0.75,0.5,0.75,0.5c0,0.25,0,0.25,0,0.25c-0.5,0.25-0.5,0.25-0.5,0.25
		c0,0.25,0,0.25,0,0.5h0.25c0,0,0.25,0,0.25-0.25l0,0c0.25,1.5,0.5,3.25,0.75,4.75c0,0.25,0,0.25,0,0.25c0-0.25,0-0.25-0.25-0.25
		c0,0,0,0,0,0.25C224.75,152,224.75,152,224.75,152 M222,138c-0.25-0.5-0.25-1-0.5-1.5c-0.25-0.75-0.5-1.5-0.5-2.25
		c-1-3.5-2-6.25-2.5-8c0.25,0.25,0.5,0.25,0.75,0.25c0.25,1,0.5,2,1,3.25l0,0c-0.25,0-0.25,0-0.25,0c-0.25,0.25-0.25,0.25,0,0.5
		c0.5,0.5,0.5,0.5,0.5,0.5c0.25,1,0.75,2.25,1,3.5c0.25,0.75,0.5,1.5,0.5,2.25c0.25,0,0.25,0.25,0.25,0.25c0,0.25,0,0.75,0.25,1.25
		c0-0.25,0-0.25,0-0.25c-0.25,0-0.25,0-0.25,0c-0.25,0-0.25,0-0.25,0C222,138,222,138,222,138"/>
	<path fill="#FBF9E3" d="M253,165L253,165c0,0,0,0,0-0.25C253,165,253,165,253,165s0,0,0.25,0l0,0C253,165,253,165,253,165
		 M253,164.75L253,164.75L253,164.75 M253,164.75L253,164.75L253,164.75 M252.75,164.75L252.75,164.75L252.75,164.75 M252.75,164.75
		L252.75,164.75L252.75,164.75 M252.75,164.75L252.75,164.75L252.75,164.75 M252.75,164.75L252.75,164.75L252.75,164.75
		L252.75,164.75 M253.25,164.5c-0.5-0.5-0.5-0.5-0.5-0.5c0-1.75,0.25-3.25,0.25-5c0.5-0.25,0.5-0.25,0.5-0.25
		c0.25-0.25,0.25-0.25,0-0.5c0,0,0,0-0.25,0l0,0l0,0c0.25-2,0.5-3.75,0.75-5.5c0.25-0.25,0.25-0.25,0.25-0.25l0,0
		c0.25,0,0.25,0,0.25,0l0,0C254,156.5,253.5,160.5,253.25,164.5 M254.5,152.25L254.5,152.25c0,0,0,0,0-0.25
		C254.5,152.25,254.5,152.25,254.5,152.25 M254.5,152L254.5,152c0-0.25,0-0.25-0.25-0.25l0,0c-0.25,0-0.25,0-0.25,0
		c0.25-1.75,0.5-3.25,1-4.75l0,0c0.25,0.25,0.25,0.25,0.25,0.25c0.25,0,0.25,0,0.25,0C255.25,148.75,254.75,150.5,254.5,152
		 M255.5,146.75c-0.5-0.5-0.5-0.5-0.5-0.5c0-0.25,0.25-0.5,0.25-0.75c0.75-0.75,0.75-0.75,0.75-0.75l0,0
		C255.75,145.5,255.75,146,255.5,146.75 M256,144.75c0-0.25,0-0.25,0-0.25c-0.25,0-0.25,0-0.25,0c-0.25,0-0.25,0-0.25,0l0,0
		c0-0.5,0.25-1,0.25-1.5c0.25-0.75,0.25-1.5,0.5-2.25l0,0c0.25-0.75,0.25-1.25,0.5-2c0.75-0.5,0.75-0.5,0.75-0.5V138
		c0,0.5-0.25,0.75-0.25,1c0,0.5-0.25,1.25-0.25,1.75l0,0c-0.25,0.75-0.5,1.5-0.75,2.25C256.25,143.5,256,144,256,144.75 M257.5,138
		c0,0,0,0,0-0.25c-0.25,0-0.25,0-0.25,0H257c0,0.25,0,0.25,0,0.25c0-0.5,0.25-1,0.25-1.25v-0.25c0.25-0.75,0.5-1.5,0.75-2.25
		c0.25-1.25,0.5-2.25,1-3.5c0.75-0.5,0.75-0.5,0.75-0.5V130c-0.5,1.25-0.75,2.75-1.25,4.25c-0.25,0.75-0.25,1.5-0.5,2.25
		c-0.25,0.25-0.25,0.75-0.25,1C257.5,137.75,257.5,138,257.5,138 M259.75,130c0,0,0,0,0-0.25c-0.25,0-0.25,0-0.25,0
		c-0.25,0-0.25,0-0.25,0c0,0.25,0,0.25,0,0.25c0.25-1.5,0.75-2.5,1-3.5c0.25,0,0.5,0,0.75-0.25c-0.25,0.75-0.5,1.25-0.75,2
		C260,128.75,260,129.5,259.75,130"/>
	<path fill="#FBF9E3" d="M246.5,165c-0.25,0-0.25,0-0.25,0C246.5,165,246.5,165,246.5,165L246.5,165v-0.25c0.25,0,0.25,0,0.25,0
		c3-2.75,3-2.75,3-2.75c0,0.25,0,0.25,0,0.25C246.5,165,246.5,165,246.5,165 M239.75,165L239.75,165L239.75,165L239.75,165
		L239.75,165c0,0,0,0,0-0.25l0,0l0,0l0,0l0,0H240l0,0l0,0l0,0c3-2.5,3-2.5,3-2.5l0,0c-0.25,0.25-0.25,0.25-0.25,0.25
		C239.75,165,239.75,165,239.75,165 M233,165L233,165L233,165L233,165L233,165c0.25,0,0.25-0.25,0.25-0.25l0,0
		C233,165,233,165,233,165 M253.25,165L253.25,165L253.25,165c0-0.25,0-0.25,0-0.25c0.25,0,0.25-0.25,0-0.25
		c-3.25-2.75-3.25-2.75-3.25-2.75l0,0c2.75,2.25,2.75,2.25,2.75,2.25c0.5,0.5,0.5,0.5,0.5,0.5c0.25,0,0.25,0,0.25,0v0.25
		C253.25,164.75,253.25,165,253.25,165 M226.25,165L226.25,165L226.25,165L226.25,165L226.25,165L226.25,165L226.25,165L226.25,165
		c0-0.25,0-0.25,0-0.25H226h0.25V165c0.25,0,0.25-0.25,0.25-0.25c3.25-2.75,3.25-2.75,3.25-2.75c3,2.75,3,2.75,3,2.75l0,0
		c-3-2.5-3-2.5-3-2.5c-3.25,2.5-3.25,2.5-3.25,2.5l0,0l0,0l0,0l0,0l0,0l0,0l0,0l0,0l0,0C226.5,165,226.5,165,226.25,165
		 M233.25,164.75L233.25,164.75c3-2.75,3-2.75,3-2.75c0.25,0.25,0.25,0.25,0.25,0.25C233.25,164.75,233.25,164.75,233.25,164.75
		 M226,164.75L226,164.75L226,164.75 M226,164.75L226,164.75L226,164.75 M226,164.75L226,164.75L226,164.75"/>
	<polygon fill="#63655F" points="239.75,164.25 236.75,161.75 239.5,159.25 242.75,161.75 239.75,164.25 	"/>
	<polygon fill="#FBF9E3" points="239.75,164.25 236.75,161.75 236.75,161.75 239.75,164.25 239.75,164.25 	"/>
	<polygon fill="#EEE897" points="246.5,164.25 243.5,161.75 246.5,159.25 249.25,161.75 246.5,164.25 	"/>
	<polygon fill="#FBF9E3" points="246.5,164.25 243.5,161.75 243.5,161.75 246.5,164.25 246.5,164.25 	"/>
	<path fill="#EEE897" d="M233,164.25l-2.75-2.5l2.75-2.5l3,2.5L233,164.25L233,164.25z M243,161.5l-0.25-0.25v-5H243l3,2.75
		L243,161.5L243,161.5z"/>
	<polygon fill="#63655F" points="242.75,161.25 240,158.75 242.75,156.25 242.75,161.25 	"/>
	<path fill="#EEE897" d="M229.75,161.5l-3.25-2.75l3-2.5l3.25,2.75L229.75,161.5L229.75,161.5z M249.75,161.5l-3-2.5l3.25-3l3,2.5
		L249.75,161.5L249.75,161.5z M236.25,161.5l-2.75-2.5l2.75-2.5l0.25,0.25v4.5L236.25,161.5L236.25,161.5z"/>
	<polygon fill="#63655F" points="236.5,161.25 236.5,156.75 239.25,158.75 236.5,161.25 	"/>
	<path fill="#EEE897" d="M233,158.5l-3.25-2.75l3-2.25L236,156L233,158.5L233,158.5z M246.5,158.5l-3.25-2.5l3.25-3l3.25,2.75
		L246.5,158.5L246.5,158.5z"/>
	<polygon fill="#63655F" points="239.5,158.5 236.75,156 239.75,153.5 242.5,156 239.5,158.5 	"/>
	<polygon fill="#EEE897" points="236.25,155.75 233,153 236.25,150.5 236.5,150.75 236.5,155.5 236.25,155.75 	"/>
	<polygon fill="#63655F" points="236.5,155.5 236.5,150.75 239.25,153.25 236.5,155.5 	"/>
	<polygon fill="#EEE897" points="243,155.5 242.75,155.5 242.75,150.75 243.25,150.25 246,152.75 243,155.5 	"/>
	<polygon fill="#63655F" points="242.75,155.5 240,153.25 242.75,150.75 242.75,155.5 	"/>
	<path fill="#EEE897" d="M229.5,155.5l-3.75-3.25l2.75-2.5l3.75,3.25L229.5,155.5L229.5,155.5z M242.75,150L242.75,150H243H242.75
		L242.75,150z M236.5,150L236.5,150L236.5,150L236.5,150L236.5,150z"/>
	<polygon fill="#63655F" points="239.75,152.75 236.5,150 236.5,150 239.75,147.25 242.75,150 242.75,150 239.75,152.75 	"/>
	<path fill="#EEE897" d="M232.75,152.75L229,149.5l3-2.75l3.75,3.25L232.75,152.75L232.75,152.75z M236.25,149.75l-3.75-3.25l3-2.75
		l1,0.75v4.75L236.25,149.75L236.25,149.75z"/>
	<polygon fill="#63655F" points="236.5,149.25 236.5,144.5 239.5,147 236.5,149.25 	"/>
	<path fill="#EEE897" d="M228.5,149.25l-3.25-2.75l3-2.75l3.25,2.75L228.5,149.25L228.5,149.25z M232,146l-3.25-2.75l0.5-0.25h5.5
		l0.5,0.25L232,146L232,146z M232,140.75h-0.25l0.25-0.25V140.75L232,140.75z"/>
	<polygon fill="#3A3735" points="234.75,143 229.25,143 231.75,140.75 232,140.75 234.75,143 	"/>
	<path fill="#FBF9E3" d="M233,165L233,165l0.25-0.25l0,0l0,0l0,0l0,0C233.25,164.75,233.25,165,233,165 M232.75,164.75
		c-3-2.75-3-2.75-3-2.75c0.5-0.25,0.5-0.25,0.5-0.25c2.75,2.5,2.75,2.5,2.75,2.5c-0.25,0.25-0.25,0.25-0.25,0.25
		S232.75,164.5,232.75,164.75 M229.25,161.75c-3-2.75-3-2.75-3-2.75c-0.5-0.25-0.5-0.25-0.5-0.25c0-0.25,0-0.25,0-0.5
		c0.25,0,0.25,0,0.25,0h0.25l0,0c-0.25,0.25-0.25,0.25,0,0.5l0,0c0.25,0,0.25,0,0.25,0l0,0c3.25,2.75,3.25,2.75,3.25,2.75
		C229.25,161.75,229.25,161.75,229.25,161.75"/>
	<path fill="#FBF9E3" d="M239.75,165L239.75,165c0,0,0,0,0-0.25C239.75,165,239.75,165,239.75,165 M239.75,164.75L239.75,164.75
		L239.75,164.75 M239.5,164.75L239.5,164.75L239.5,164.75 M239.75,164.75L239.75,164.75L239.75,164.75 M239.5,164.75L239.5,164.75
		L239.5,164.75L239.5,164.75 M240,164.75L240,164.75L240,164.75 M239.5,164.75L239.5,164.75L239.5,164.75 M240,164.75L240,164.75
		L240,164.75L240,164.75 M239.5,164.75c-3-2.5-3-2.5-3-2.5l0,0c-0.25-0.25-0.25-0.25-0.25-0.25c0.5-0.25,0.5-0.25,0.5-0.25
		c3,2.5,3,2.5,3,2.5c-0.25,0.25-0.25,0.25-0.25,0.25V164.75 M236,161.75c-3-2.5-3-2.5-3-2.5c0.5-0.25,0.5-0.25,0.5-0.25
		c2.75,2.5,2.75,2.5,2.75,2.5C236,161.75,236,161.75,236,161.75 M232.75,159c-3.25-2.75-3.25-2.75-3.25-2.75
		c0.25-0.5,0.25-0.5,0.25-0.5c3.25,2.75,3.25,2.75,3.25,2.75C232.75,159,232.75,159,232.75,159 M229,155.75c-3.5-3-3.5-3-3.5-3
		c-0.25-0.25-0.25-0.25-0.25-0.25l0,0h0.25c0.25-0.25,0.25-0.25,0.25-0.25c3.75,3.25,3.75,3.25,3.75,3.25
		C229,155.75,229,155.75,229,155.75 M225,152.25L225,152.25c-0.25,0-0.25,0-0.25-0.25l0,0c0,0,0,0,0.25,0c0-0.25,0-0.25,0-0.25
		c0.25,0,0.25,0,0.25,0.25C225,152.25,225,152.25,225,152.25L225,152.25"/>
	<path fill="#FBF9E3" d="M246.5,165L246.5,165v-0.25c0.25,0,0.25,0,0.25,0s0,0-0.25,0V165 M246,164.75c-3-2.5-3-2.5-3-2.5l0,0
		c0.5-0.5,0.5-0.5,0.5-0.5c3,2.5,3,2.5,3,2.5c-0.5,0.25-0.5,0.25-0.5,0.25S246,164.5,246,164.75 M242.75,161.75
		c-3.25-2.5-3.25-2.5-3.25-2.5c0.5-0.5,0.5-0.5,0.5-0.5c2.75,2.5,2.75,2.5,2.75,2.5c0.25,0.25,0.25,0.25,0.25,0.25
		C242.75,161.75,242.75,161.75,242.75,161.75 M239.25,158.75c-2.75-2-2.75-2-2.75-2c-0.25-0.25-0.25-0.25-0.25-0.25
		c0.5-0.5,0.5-0.5,0.5-0.5c2.75,2.5,2.75,2.5,2.75,2.5C239.25,158.75,239.25,158.75,239.25,158.75 M236,156
		c-3.25-2.5-3.25-2.5-3.25-2.5C233,153,233,153,233,153c3.25,2.75,3.25,2.75,3.25,2.75C236,156,236,156,236,156 M232.25,153
		c-3.75-3.25-3.75-3.25-3.75-3.25c0.5-0.25,0.5-0.25,0.5-0.25c3.75,3.25,3.75,3.25,3.75,3.25C232.25,153,232.25,153,232.25,153
		 M228,149.5c-3.25-2.75-3.25-2.75-3.25-2.75c0.5-0.25,0.5-0.25,0.5-0.25c3.25,2.75,3.25,2.75,3.25,2.75
		C228,149.5,228,149.5,228,149.5 M224.5,146.5c0-0.25,0-0.25,0-0.25c-0.75-0.5-0.75-0.5-0.75-0.5v-0.25H224h0.25l0,0
		c0.5,0.5,0.5,0.5,0.5,0.5C224.5,146.5,224.5,146.5,224.5,146.5"/>
	<path fill="#FBF9E3" d="M253,165c0,0,0,0,0-0.25l0,0l0,0l0,0l0,0h-0.25l0,0l0,0l0,0l0,0l0,0l0,0l0,0l0,0c-3-2.5-3-2.5-3-2.5
		c0-0.25,0-0.25,0-0.25c0.25-0.25,0.25-0.25,0.25-0.25c3.25,2.75,3.25,2.75,3.25,2.75c0.25,0,0.25,0.25,0,0.25c0,0,0,0,0,0.25
		C253,165,253,165,253,165 M249.25,161.75c-2.75-2.5-2.75-2.5-2.75-2.5c0.25-0.25,0.25-0.25,0.25-0.25c3,2.5,3,2.5,3,2.5
		C249.25,161.75,249.25,161.75,249.25,161.75 M246,159c-3-2.75-3-2.75-3-2.75c0.25-0.25,0.25-0.25,0.25-0.25
		c3.25,2.5,3.25,2.5,3.25,2.5C246,159,246,159,246,159 M242.5,156c-2.75-2.5-2.75-2.5-2.75-2.5c0.25-0.25,0.25-0.25,0.25-0.25
		c2.75,2.25,2.75,2.25,2.75,2.25c0.25,0,0.25,0,0.25,0C242.5,156,242.5,156,242.5,156 M239.25,153.25c-2.75-2.5-2.75-2.5-2.75-2.5
		c-0.25-0.25-0.25-0.25-0.25-0.25c0.25-0.5,0.25-0.5,0.25-0.5l0,0c3.25,2.75,3.25,2.75,3.25,2.75
		C239.25,153.25,239.25,153.25,239.25,153.25 M235.75,150c-3.75-3.25-3.75-3.25-3.75-3.25c0.5-0.25,0.5-0.25,0.5-0.25
		c3.75,3.25,3.75,3.25,3.75,3.25C235.75,150,235.75,150,235.75,150 M231.5,146.5c-3.25-2.75-3.25-2.75-3.25-2.75
		c0.5-0.5,0.5-0.5,0.5-0.5C232,146,232,146,232,146C231.5,146.5,231.5,146.5,231.5,146.5 M228,143.25c-0.5-0.25-0.5-0.25-0.5-0.25
		c-2.5-2.25-2.5-2.25-2.5-2.25c-2.25-2-2.25-2-2.25-2c-0.75-0.5-0.75-0.5-0.75-0.5c0-0.25,0-0.25,0-0.25l0,0c0,0,0,0,0-0.25
		c0,0,0,0,0.25,0c0,0,0,0,0.25,0c0,0.25,0,0.25,0,0.25c2.75,2.25,2.75,2.25,2.75,2.25c0.5,0.5,0.5,0.5,0.5,0.5
		c2.5,2.25,2.5,2.25,2.5,2.25l0,0C228,143.25,228,143.25,228,143.25"/>
	<path fill="#FBF9E3" d="M246.25,165v-0.25c-0.25,0-0.25,0-0.25,0c0-0.25,0-0.25,0-0.25c0.5-0.25,0.5-0.25,0.5-0.25l0,0
		c2.75-2.5,2.75-2.5,2.75-2.5c0.5-0.25,0.5-0.25,0.5-0.25c3.25-3,3.25-3,3.25-3c0,0.25,0,0.25,0,0.25h0.25c0,0,0,0,0.25,0
		c0-0.25,0-0.25,0-0.5c-0.25,0-0.25,0-0.25,0l0,0c0.25,0,0.25,0,0.25,0c0.25,0.25,0.25,0.25,0,0.5C253,159,253,159,253,159
		c-3,2.75-3,2.75-3,2.75l0,0c-0.25,0.25-0.25,0.25-0.25,0.25c-3,2.75-3,2.75-3,2.75c-0.25,0-0.25,0-0.25,0V165
		C246.5,165,246.5,165,246.25,165L246.25,165"/>
	<path fill="#EEE897" d="M250,155.5l-3-2.75l3.75-3.25l3,2.75L250,155.5L250,155.5z M246.5,152.5l-2.75-2.5l3.75-3.25l2.75,2.25
		L246.5,152.5L246.5,152.5z M243.25,149.75l-0.5-0.5v-4.5l1.25-1l3,2.75L243.25,149.75L243.25,149.75z"/>
	<polygon fill="#63655F" points="242.75,149.25 240.25,147 242.75,144.75 242.75,149.25 	"/>
	<path fill="#EEE897" d="M250.75,148.75L248,146.5l3.25-3l2.5,2.5L250.75,148.75L250.75,148.75z M242.75,144v-1H243l0.5,0.25
		L242.75,144L242.75,144z M236.5,143.75l-0.5-0.5l0.5-0.25l0,0V143.75L236.5,143.75z"/>
	<polygon fill="#63655F" points="239.75,146.5 236.5,143.75 236.5,143 242.75,143 242.75,144 239.75,146.5 	"/>
	<polygon fill="#3A3735" points="243,143 236.5,143 239,140.75 240.5,140.75 243,143 	"/>
	<path fill="#EEE897" d="M247.5,146l-3.25-2.75l0.5-0.25h5.75l0.25,0.25L247.5,146L247.5,146z M247.75,140.75h-0.25l0.25-0.25
		V140.75L247.75,140.75z"/>
	<polygon fill="#3A3735" points="250.5,143 244.75,143 247.5,140.75 247.75,140.75 250.5,143 	"/>
	<path fill="#232553" d="M238.5,139c-1.25-0.25-2.25-1-2.75-2c0.25-0.25,0.25-0.25,0.25-0.25C238.5,139,238.5,139,238.5,139"/>
	<polygon fill="#3A3735" points="235.75,143 235.5,143 233,140.75 238.25,140.75 235.75,143 	"/>
	<path fill="#232553" d="M241.25,139c2.25-2.25,2.25-2.25,2.25-2.25c0,0.25,0,0.25,0,0.25C243.25,137.75,242.25,138.5,241.25,139"/>
	<polygon fill="#3A3735" points="244,143 244,143 241.25,140.75 246.75,140.75 244,143 	"/>
	<path fill="#232553" d="M239.75,139.25L239.5,139c-3-2.5-3-2.5-3-2.5c3.25-3,3.25-3,3.25-3c3.5,3,3.5,3,3.5,3c-3,2.5-3,2.5-3,2.5
		C240,139,239.75,139.25,239.75,139.25"/>
	<polygon fill="#FBF9E3" points="235.75,135.75 233.75,134.25 235.5,134.25 235.75,135.75 	"/>
	<polygon fill="#232553" points="236,136.25 235.75,135.75 235.5,134.25 235.25,129.5 239.5,133.25 236,136.25 	"/>
	<polygon fill="#FBF9E3" points="243.75,136 243.75,134.25 245.75,134.25 243.75,136 	"/>
	<polygon fill="#232553" points="243.5,136.25 240.25,133.25 244.25,129.75 243.75,134.25 243.75,136 243.5,136.25 	"/>
	<polygon fill="#232553" points="239.75,132.75 235.25,128.75 235,126.5 244.25,126.5 244.25,129 239.75,132.75 	"/>
	<path fill="#FBF9E3" d="M239.75,165L239.75,165l-0.25-0.25l0,0l0,0l0,0l0,0l0,0l0,0l0,0v-0.25c0.25-0.25,0.25-0.25,0.25-0.25l0,0
		c3-2.5,3-2.5,3-2.5c0.25-0.25,0.25-0.25,0.25-0.25c3-2.5,3-2.5,3-2.5c0.5-0.5,0.5-0.5,0.5-0.5c3.25-2.75,3.25-2.75,3.25-2.75
		C250,156,250,156,250,156c-3.25,3-3.25,3-3.25,3c-0.25,0.25-0.25,0.25-0.25,0.25c-3,2.5-3,2.5-3,2.5l0,0c-0.5,0.5-0.5,0.5-0.5,0.5
		c-3,2.5-3,2.5-3,2.5l0,0l0,0l0,0l0,0h-0.25l0,0l0,0l0,0l0,0C239.75,165,239.75,165,239.75,165L239.75,165 M250.5,155.75
		c-0.5-0.25-0.5-0.25-0.5-0.25c3.75-3.25,3.75-3.25,3.75-3.25c0.25,0.25,0.25,0.25,0.25,0.25c0.25,0,0.25,0,0.25,0
		c-0.25,0.25-0.25,0.25-0.25,0.25C250.5,155.75,250.5,155.75,250.5,155.75 M254.5,152.25L254.5,152.25c-0.25-0.5-0.25-0.5-0.25-0.5
		l0,0c0.25,0,0.25,0,0.25,0.25l0,0l0,0C254.5,152.25,254.5,152.25,254.5,152.25"/>
	<path fill="#FBF9E3" d="M233,165L233,165c0-0.25-0.25-0.25-0.25-0.25l0,0l0,0c0-0.25,0-0.25,0-0.25c0.25-0.25,0.25-0.25,0.25-0.25
		c3-2.5,3-2.5,3-2.5c0.25-0.25,0.25-0.25,0.25-0.25c0.25-0.25,0.25-0.25,0.25-0.25c2.75-2.5,2.75-2.5,2.75-2.5
		c0.25-0.25,0.25-0.25,0.25-0.25c3-2.5,3-2.5,3-2.5c0.5-0.5,0.5-0.5,0.5-0.5c3-2.75,3-2.75,3-2.75c0.5,0.25,0.5,0.25,0.5,0.25
		c-3.25,3-3.25,3-3.25,3c-0.25,0.25-0.25,0.25-0.25,0.25c-0.25,0-0.25,0-0.25,0c-2.75,2.5-2.75,2.5-2.75,2.5
		c-0.5,0.5-0.5,0.5-0.5,0.5c-2.75,2.5-2.75,2.5-2.75,2.5l0,0c-0.5,0.25-0.5,0.25-0.5,0.25c-3,2.75-3,2.75-3,2.75l0,0L233,165
		L233,165 M247,152.75c-0.5-0.25-0.5-0.25-0.5-0.25c3.75-3.5,3.75-3.5,3.75-3.5c0.5,0.5,0.5,0.5,0.5,0.5
		C247,152.75,247,152.75,247,152.75 M251,149c-0.25-0.25-0.25-0.25-0.25-0.25c3-2.75,3-2.75,3-2.75c0.5,0.25,0.5,0.25,0.5,0.25
		C251,149,251,149,251,149 M254.5,146c-0.25-0.5-0.25-0.5-0.25-0.5c1.25-1,1.25-1,1.25-1l0,0c0,0,0,0,0.25,0l0,0
		c0.25,0,0.25,0,0.25,0.25l0,0l0,0c-0.75,0.75-0.75,0.75-0.75,0.75C254.5,146,254.5,146,254.5,146"/>
	<path fill="#FBF9E3" d="M226.25,165v-0.25H226l0,0l0,0l0,0l0,0l0,0l0,0l0,0l0,0l0,0l0,0l0,0l0,0l0,0l0,0l0,0l0,0l0,0
		c0-0.25,0-0.25,0.25-0.25c0.5-0.5,0.5-0.5,0.5-0.5c2.5-2.25,2.5-2.25,2.5-2.25c0.5-0.25,0.5-0.25,0.5-0.25c3-2.5,3-2.5,3-2.5
		c0.25-0.5,0.25-0.5,0.25-0.5c3-2.5,3-2.5,3-2.5c0.25-0.25,0.25-0.25,0.25-0.25c0.25-0.25,0.25-0.25,0.25-0.25
		c2.75-2.25,2.75-2.25,2.75-2.25c0.5-0.5,0.5-0.5,0.5-0.5c3-2.75,3-2.75,3-2.75c0.25,0,0.25,0,0.25,0c0.25,0.25,0.25,0.25,0.25,0.25
		c-0.5,0.5-0.5,0.5-0.5,0.5c-2.75,2.5-2.75,2.5-2.75,2.5c-0.25,0.25-0.25,0.25-0.25,0.25c-3,2.5-3,2.5-3,2.5
		c-0.5,0.5-0.5,0.5-0.5,0.5c-2.75,2.5-2.75,2.5-2.75,2.5c-0.5,0.25-0.5,0.25-0.5,0.25c-2.75,2.5-2.75,2.5-2.75,2.5
		c-0.5,0.25-0.5,0.25-0.5,0.25c-3.25,2.75-3.25,2.75-3.25,2.75S226.5,165,226.25,165 M243.75,150c-0.5-0.25-0.5-0.25-0.5-0.25
		c3.75-3.25,3.75-3.25,3.75-3.25c0.5,0.25,0.5,0.25,0.5,0.25C243.75,150,243.75,150,243.75,150 M248,146.5c-0.5-0.5-0.5-0.5-0.5-0.5
		c3.25-2.75,3.25-2.75,3.25-2.75c0.5,0.25,0.5,0.25,0.5,0.25C248,146.5,248,146.5,248,146.5 M251.5,143.25
		c-0.25-0.25-0.25-0.25-0.25-0.25c2.5-2.25,2.5-2.25,2.5-2.25c0.5-0.5,0.5-0.5,0.5-0.5C257,138,257,138,257,138
		c0-0.25,0-0.25,0-0.25h0.25c0,0,0,0,0.25,0c0,0.25,0,0.25,0,0.25l0,0v0.25c-0.75,0.5-0.75,0.5-0.75,0.5c-2.25,2-2.25,2-2.25,2
		C252,143,252,143,252,143C251.5,143.25,251.5,143.25,251.5,143.25"/>
	<path fill="#FBF9E3" d="M226.25,158.75L226.25,158.75c-0.25-0.25-0.25-0.25,0-0.5l0,0l0,0c2.75-2.5,2.75-2.5,2.75-2.5
		c0.5-0.25,0.5-0.25,0.5-0.25c2.75-2.5,2.75-2.5,2.75-2.5c0.5-0.25,0.5-0.25,0.5-0.25c3-2.75,3-2.75,3-2.75
		c0.5-0.25,0.5-0.25,0.5-0.25c0.25-0.5,0.25-0.5,0.25-0.5c3-2.25,3-2.25,3-2.25c0.25,0.25,0.25,0.25,0.25,0.25
		C236.5,150,236.5,150,236.5,150l0,0c-0.25,0.5-0.25,0.5-0.25,0.5C233,153,233,153,233,153c-0.25,0.5-0.25,0.5-0.25,0.5
		c-3,2.25-3,2.25-3,2.25c-0.25,0.5-0.25,0.5-0.25,0.5c-3,2.5-3,2.5-3,2.5l0,0C226.5,158.75,226.5,158.75,226.25,158.75 M240.25,147
		c-0.5-0.5-0.5-0.5-0.5-0.5c3-2.5,3-2.5,3-2.5c0.75-0.75,0.75-0.75,0.75-0.75c0.5,0.5,0.5,0.5,0.5,0.5c-1.25,1-1.25,1-1.25,1
		C240.25,147,240.25,147,240.25,147 M244.25,143.25C244,143,244,143,244,143l0,0c2.75-2.25,2.75-2.25,2.75-2.25
		c0.5-0.5,0.5-0.5,0.5-0.5c0.5,0.25,0.5,0.25,0.5,0.25c-0.25,0.25-0.25,0.25-0.25,0.25c-2.75,2.25-2.75,2.25-2.75,2.25
		C244.25,143.25,244.25,143.25,244.25,143.25 M248,140.25c-0.25-0.5-0.25-0.5-0.25-0.5c3.75-3.25,3.75-3.25,3.75-3.25
		c2.5-2.25,2.5-2.25,2.5-2.25c0.25,0,0.25,0,0.25,0c3-2.75,3-2.75,3-2.75c2-1.5,2-1.5,2-1.5c0-0.25,0-0.25,0-0.25s0,0,0.25,0
		c0,0,0,0,0.25,0c0,0.25,0,0.25,0,0.25l0,0v0.25c-0.75,0.5-0.75,0.5-0.75,0.5c-1.75,1.5-1.75,1.5-1.75,1.5c-2.25,2-2.25,2-2.25,2
		c-2.75,2.25-2.75,2.25-2.75,2.25C248,140.25,248,140.25,248,140.25"/>
	<path fill="#FBF9E3" d="M225.25,152.5L225.25,152.5H225v-0.25l0,0c0.25-0.25,0.25-0.25,0.25-0.25c0-0.25,0-0.25,0-0.25
		c2.75-2.25,2.75-2.25,2.75-2.25c0.5-0.25,0.5-0.25,0.5-0.25c3-2.75,3-2.75,3-2.75c0.5-0.5,0.5-0.5,0.5-0.5
		c3.25-2.75,3.25-2.75,3.25-2.75c0.25,0.5,0.25,0.5,0.25,0.5c-3,2.75-3,2.75-3,2.75c-0.5,0.25-0.5,0.25-0.5,0.25
		c-3,2.75-3,2.75-3,2.75c-0.5,0.25-0.5,0.25-0.5,0.25c-2.75,2.5-2.75,2.5-2.75,2.5c-0.25,0.25-0.25,0.25-0.25,0.25H225.25
		 M236,143.25c-0.5-0.25-0.5-0.25-0.5-0.25c0.25,0,0.25,0,0.25,0c2.5-2.25,2.5-2.25,2.5-2.25c1.25-1,1.25-1,1.25-1
		c0.25,0.25,0.25,0.25,0.25,0.25c-0.75,0.75-0.75,0.75-0.75,0.75c-2.5,2.25-2.5,2.25-2.5,2.25C236,143.25,236,143.25,236,143.25
		 M240.25,139.75c-0.5-0.25-0.5-0.25-0.5-0.25c0.5-0.5,0.5-0.5,0.5-0.5c3-2.5,3-2.5,3-2.5c0.25,0.25,0.25,0.25,0.25,0.25
		c-2.25,2.25-2.25,2.25-2.25,2.25C240.25,139.75,240.25,139.75,240.25,139.75 M244,136.5c-0.5-0.25-0.5-0.25-0.5-0.25
		c0.25-0.25,0.25-0.25,0.25-0.25c2-1.75,2-1.75,2-1.75c8.5-7.25,8.5-7.25,8.5-7.25c0.5-0.5,0.5-0.5,0.5-0.5c0.75,0,0.75,0,0.75,0
		c-1.25,1.25-1.25,1.25-1.25,1.25c-7.75,6.5-7.75,6.5-7.75,6.5C244,136.5,244,136.5,244,136.5L244,136.5"/>
	<path fill="#FBF9E3" d="M224.25,147.25H224c0-0.25,0-0.25,0-0.5c0.5-0.25,0.5-0.25,0.5-0.25l0,0c0.25-0.5,0.25-0.5,0.25-0.5
		c3.25-2.75,3.25-2.75,3.25-2.75c0.25-0.25,0.25-0.25,0.25-0.25c0.25,0,0.25,0,0.25,0c2.5-2.25,2.5-2.25,2.5-2.25
		c0.5-0.5,0.5-0.5,0.5-0.5c0.5,0.25,0.5,0.25,0.5,0.25c-0.25,0.25-0.25,0.25-0.25,0.25c-2.5,2.25-2.5,2.25-2.5,2.25
		c-0.5,0.25-0.5,0.25-0.5,0.25c-0.5,0.5-0.5,0.5-0.5,0.5c-3,2.75-3,2.75-3,2.75c-0.5,0.25-0.5,0.25-0.5,0.25
		C224.5,147,224.5,147,224.5,147l0,0C224.5,147.25,224.25,147.25,224.25,147.25 M232.25,140.25c-0.25-0.5-0.25-0.5-0.25-0.5
		c3.75-3.25,3.75-3.25,3.75-3.25c0.25,0.25,0.25,0.25,0.25,0.25c-0.25,0.25-0.25,0.25-0.25,0.25
		C232.25,140.25,232.25,140.25,232.25,140.25 M236.5,136.5c-0.5-0.25-0.5-0.25-0.5-0.25c3.5-3,3.5-3,3.5-3
		c0.25,0.25,0.25,0.25,0.25,0.25C236.5,136.5,236.5,136.5,236.5,136.5 M240.25,133.25c-0.5-0.5-0.5-0.5-0.5-0.5
		c4.5-3.75,4.5-3.75,4.5-3.75c2.75-2.5,2.75-2.5,2.75-2.5c0.75,0,0.75,0,0.75,0c-3.5,3.25-3.5,3.25-3.5,3.25
		C240.25,133.25,240.25,133.25,240.25,133.25"/>
	<path fill="#FBF9E3" d="M253.25,158.75H253c0-0.25,0-0.25,0-0.25c-3-2.5-3-2.5-3-2.5c-0.25-0.25-0.25-0.25-0.25-0.25
		C246.5,153,246.5,153,246.5,153c-0.5-0.25-0.5-0.25-0.5-0.25c-2.75-2.5-2.75-2.5-2.75-2.5C243,150,243,150,243,150
		c-0.25,0-0.25,0-0.25,0c-3-2.75-3-2.75-3-2.75C239.5,147,239.5,147,239.5,147c-3-2.5-3-2.5-3-2.5c-1-0.75-1-0.75-1-0.75
		c-0.25-0.5-0.25-0.5-0.25-0.5c-0.5-0.25-0.5-0.25-0.5-0.25c-2.75-2.25-2.75-2.25-2.75-2.25c0-0.25,0-0.25,0-0.25
		c-0.5-0.25-0.5-0.25-0.5-0.25c-4.25-3.75-4.25-3.75-4.25-3.75c-2.5-2.25-2.5-2.25-2.5-2.25c-2.5-2.25-2.5-2.25-2.5-2.25
		c-1.75-1.25-1.75-1.25-1.75-1.25c-0.5-0.5-0.5-0.5-0.5-0.5c-0.25-0.25-0.25-0.25,0-0.5c0,0,0,0,0.25,0l0,0l0,0
		c2,1.75,2,1.75,2,1.75c3,2.5,3,2.5,3,2.5c0.25,0.25,0.25,0.25,0.25,0.25c2.5,2.25,2.5,2.25,2.5,2.25c4,3.25,4,3.25,4,3.25
		c0.25,0.5,0.25,0.5,0.25,0.5c0.75,0.5,0.75,0.5,0.75,0.5c2.5,2.25,2.5,2.25,2.5,2.25l0,0c0.5,0.25,0.5,0.25,0.5,0.25
		c0.5,0.5,0.5,0.5,0.5,0.5c3.25,2.75,3.25,2.75,3.25,2.75c0.5,0.5,0.5,0.5,0.5,0.5c2.5,2.25,2.5,2.25,2.5,2.25
		c0.5,0.5,0.5,0.5,0.5,0.5c0.5,0.25,0.5,0.25,0.5,0.25c2.75,2.5,2.75,2.5,2.75,2.5c0.5,0.25,0.5,0.25,0.5,0.25c3,2.75,3,2.75,3,2.75
		c0.5,0.25,0.5,0.25,0.5,0.25c2.75,2.5,2.75,2.5,2.75,2.5l0,0c0.25,0,0.25,0,0.25,0c0,0.25,0,0.25,0,0.5
		C253.25,158.75,253.25,158.75,253.25,158.75"/>
	<path fill="#FBF9E3" d="M254.25,152.5L254.25,152.5c0,0,0,0-0.25,0c-0.25-0.25-0.25-0.25-0.25-0.25c-3-2.75-3-2.75-3-2.75
		c-0.5-0.5-0.5-0.5-0.5-0.5c-2.75-2.25-2.75-2.25-2.75-2.25c-0.5-0.25-0.5-0.25-0.5-0.25c-3-2.75-3-2.75-3-2.75
		c-0.5-0.5-0.5-0.5-0.5-0.5C243,143,243,143,243,143c-2.5-2.25-2.5-2.25-2.5-2.25c-0.75-0.75-0.75-0.75-0.75-0.75
		c-0.25-0.25-0.25-0.25-0.25-0.25c-1-0.75-1-0.75-1-0.75c-2.5-2.25-2.5-2.25-2.5-2.25c-0.25-0.25-0.25-0.25-0.25-0.25l0,0
		c-2.75-2.25-2.75-2.25-2.75-2.25c-7.75-6.75-7.75-6.75-7.75-6.75c-1.25-1-1.25-1-1.25-1c0.75,0,0.75,0,0.75,0
		c0.5,0.25,0.5,0.25,0.5,0.25c8.5,7.5,8.5,7.5,8.5,7.5c2,1.5,2,1.5,2,1.5c0.25,0.5,0.25,0.5,0.25,0.5c0.5,0.25,0.5,0.25,0.5,0.25
		c3,2.5,3,2.5,3,2.5c0.25,0.5,0.25,0.5,0.25,0.5c0.5,0.25,0.5,0.25,0.5,0.25c1,1,1,1,1,1c2.5,2.25,2.5,2.25,2.5,2.25
		c0.25,0,0.25,0,0.25,0c0.25,0.25,0.25,0.25,0.25,0.25c3.25,2.75,3.25,2.75,3.25,2.75c0.5,0.5,0.5,0.5,0.5,0.5
		c2.75,2.25,2.75,2.25,2.75,2.25C251,149,251,149,251,149c3,2.75,3,2.75,3,2.75c0.25,0,0.25,0,0.25,0c0.25,0.5,0.25,0.5,0.25,0.5
		l0,0l0,0c0.25,0,0.25,0,0,0.25l0,0C254.5,152.5,254.5,152.5,254.25,152.5"/>
	<path fill="#FBF9E3" d="M255.25,147.25c0,0,0,0-0.25-0.25l0,0c-0.75-0.75-0.75-0.75-0.75-0.75c-0.5-0.25-0.5-0.25-0.5-0.25
		c-2.5-2.5-2.5-2.5-2.5-2.5c-0.5-0.25-0.5-0.25-0.5-0.25C250.5,143,250.5,143,250.5,143c-2.75-2.25-2.75-2.25-2.75-2.25
		c0-0.25,0-0.25,0-0.25c-0.5-0.25-0.5-0.25-0.5-0.25C243.5,137,243.5,137,243.5,137c0-0.25,0-0.25,0-0.25
		c-0.25-0.25-0.25-0.25-0.25-0.25c-3.5-3-3.5-3-3.5-3c-0.25-0.25-0.25-0.25-0.25-0.25c-4.25-3.75-4.25-3.75-4.25-3.75
		c-3.25-3-3.25-3-3.25-3c0.75,0,0.75,0,0.75,0c2.5,2.25,2.5,2.25,2.5,2.25c4.5,4,4.5,4,4.5,4c0.5,0.5,0.5,0.5,0.5,0.5
		c3.25,3,3.25,3,3.25,3c0.5,0.25,0.5,0.25,0.5,0.25c3.75,3.25,3.75,3.25,3.75,3.25c0.25,0.5,0.25,0.5,0.25,0.5
		c0.75,0.5,0.75,0.5,0.75,0.5c2.5,2.25,2.5,2.25,2.5,2.25c0.25,0.25,0.25,0.25,0.25,0.25c2.75,2.25,2.75,2.25,2.75,2.25
		c0.25,0.5,0.25,0.5,0.25,0.5c0.5,0.25,0.5,0.25,0.5,0.25c0.5,0.5,0.5,0.5,0.5,0.5l0,0c0.25,0.25,0.25,0.25,0,0.5l0,0
		C255.5,147.25,255.5,147.25,255.25,147.25"/>
	<path fill="#232553" d="M259.75,126.5c-40.25,0-40.25,0-40.25,0h-0.25c-0.25,0-0.5,0-0.75-0.25c-0.5-0.25-1-0.5-1-1V125
		c0-0.25,0-0.25,0-0.5c0.25-0.75,1-1.25,2-1.25c2.75,0,2.75,0,2.75,0c3,0,3,0,3,0c29,0,29,0,29,0c3,0,3,0,3,0c2.5,0,2.5,0,2.5,0
		c1,0,2,0.5,2.25,1.25c0,0.25,0,0.25,0,0.5v0.25c-0.25,0.5-0.5,0.75-1,1c-0.25,0.25-0.5,0.25-0.75,0.25S260,126.5,259.75,126.5"/>
	<path fill="#D79A61" d="M479.25,261.25c-230.5,0-230.5,0-230.5,0c0-0.75,0-0.75,0-0.75c230.5,0,230.5,0,230.5,0c0,0.5,0,0.5,0,0.5
		V261.25 M230.75,261.25C0,261.25,0,261.25,0,261.25c0-0.75,0-0.75,0-0.75c230.75,0,230.75,0,230.75,0
		C230.75,261.25,230.75,261.25,230.75,261.25"/>
	<polygon fill="#363739" points="248.75,261.25 230.75,261.25 230.75,193.25 248.75,193.25 248.75,260.5 248.75,261.25 	"/>
	<polygon fill="#FFFFFF" points="233.75,348.25 233.75,348.25 233.75,348.25 	"/>
	<polyline fill="#FFFFFF" points="233.75,348.75 233.75,348.75 233.75,348.5 233.75,348.75 	"/>
	<polygon fill="#FFFFFF" points="234.25,349.75 234.25,349.75 234.25,349.75 	"/>
	<polygon fill="#FFFFFF" points="234.25,349.75 234.25,349.75 234.25,349.75 	"/>
	<path fill="#FFFFFF" d="M233.75,349.25c0.25,0,0.25,0.25,0.5,0.5C234,349.5,234,349.25,233.75,349.25L233.75,349.25"/>
</g>
</svg>
