<?xml version="1.0" encoding="utf-8"?>
<!-- Generator: Adobe Illustrator 16.0.0, SVG Export Plug-In . SVG Version: 6.00 Build 0)  -->
<!DOCTYPE svg PUBLIC "-//W3C//DTD SVG 1.1//EN" "http://www.w3.org/Graphics/SVG/1.1/DTD/svg11.dtd">
<svg version="1.1" id="Layer_1" xmlns="http://www.w3.org/2000/svg" xmlns:xlink="http://www.w3.org/1999/xlink" x="0px" y="0px"
	 width="229px" height="249px" viewBox="0 0 229 249" enable-background="new 0 0 229 249" xml:space="preserve">
<g>
	<path fill="#231F20" d="M143.5,227.9c-3.8,1.5-7.8,2.8-11.3,3.8c-6.8,1.8-13.5,3-20.3,3.5c-12,1.3-24,0.8-35.8-1.5
		c-11.7-2.3-23.2-6-33.2-12c-4-2-7.8-4.5-11.3-7.3c-22-17.5-18.8-49,1.8-66.8c1.5-1.5,3-2.8,4.8-3.8c3-2,6.3-4,9.8-5.5
		c10.8-5,23.3-8,36-9.3c8.5-1,17.3-1,25.3-0.3c4.5,0.5,9,1.3,13.3,2c8.3,1.8,17,4.8,25,8.8c12.3,6,23.3,14.8,29.8,26.5
		C194.5,198.2,169.8,218.2,143.5,227.9z"/>
	<path fill="#FAB50A" d="M73.8,163.9c-2.8,16.3-3.3,32-2,48.3c0.8,6.8,2.7,14.3,4.5,21.5c-11.7-2.3-23.2-6-33.2-12
		c-1.5-5.8-1.8-12-2.5-19.3c-2.3-23.3,3.8-43,7.5-64c10.8-5,23.3-8,36-9.3c-1.5,4.3-4.8,9.3-5.8,12.3C76,148.7,75,156.4,73.8,163.9z
		"/>
	<path fill="#FAB50A" d="M141,185.2c-0.3,0-0.8,0-1,0c0-0.3,0-1,0-1.3c-0.3,0-0.8,0-1,0c-0.8-0.5-1.5-1-1.3-2c-0.3,0-0.8,0-1,0
		c-1.8-0.3-0.3-3-2.3-2.3c0.8-1.3-1.5-2-1-3.3c-0.3,0-0.8,0-1,0c0-0.3,0-0.8,0-1c-0.3,0-0.8,0-1.3,0c0-0.3,0-1,0-1.3
		c-0.3,0-0.8,0-1,0c-0.3-0.5,0.3-1.5,0-2c-0.3,0-0.8,0-1,0c-0.3-0.5,0.3-1.8,0-2.3c-0.3,0-0.8,0-1.3,0c0-2-1.8-2.5-1-4.3
		c-0.3,0-0.8,0-1,0c-0.3-0.5,0.3-1.8,0-2.3c-0.3,0-0.8,0-1,0c-0.5-0.5,0.3-1.5,0-2.3c-0.5,0-1,0-1.3,0c-0.3-1,0.3-2,0-3.3
		c-0.3,0-0.8,0-1,0c-0.3-0.5,0.3-1.5,0-2c-0.3,0-0.8,0-1,0c-0.5-1.3,0.3-2.3,0-3.3c-0.5-0.5-1-0.5-1.3-1.3c-0.3-1-0.5-2.3-0.5-3.3
		c-1.3-5.8-1-11.8-0.5-17.8c-3.3-0.8-6.8-1-10.3-1.5c-8.8,22.8-8.8,53.3-5.8,75.5c1,8,3.5,23.3,8.5,30.8c6.8-0.5,13.5-1.8,20.3-3.5
		c3.5-1,7.5-2.3,11.3-3.8c-1.3-6.3-2.5-12.8-2.5-19.5c0.3-7.5,0.3-14.8,0.5-22.3c-0.3,0-0.3,0-0.5,0C141,185.9,141,185.4,141,185.2z
		"/>
	<path fill="#DF8A16" d="M147.5,139.7c-8-4-16.8-7-25-8.8c-1-0.3-2-0.5-3-0.5c-0.5,6-0.8,12,0.5,17.8c0,1,0.3,2.3,0.5,3.3
		c0.3,0.8,0.8,0.8,1.3,1.3c0.3,1-0.5,2,0,3.3c0.3,0,0.8,0,1,0c0.3,0.5-0.3,1.5,0,2c0.3,0,0.8,0,1,0c0.3,1.3-0.3,2.3,0,3.3
		c0.3,0,0.8,0,1.3,0c0.3,0.8-0.5,1.8,0,2.3c0.3,0,0.8,0,1,0c0.3,0.5-0.3,1.8,0,2.3c0.3,0,0.8,0,1,0c-0.8,1.8,1,2.3,1,4.3
		c0.5,0,1,0,1.3,0c0.3,0.5-0.3,1.8,0,2.3c0.3,0,0.8,0,1,0c0.3,0.5-0.3,1.5,0,2c0.3,0,0.8,0,1,0c0,0.3,0,1,0,1.3c0.5,0,1,0,1.3,0
		c0,0.3,0,0.8,0,1c0.3,0,0.8,0,1,0c-0.5,1.3,1.8,2,1,3.3c2-0.8,0.5,2,2.3,2.3c0.3,0,0.8,0,1,0c-0.3,1,0.5,1.5,1.3,2c0.3,0,0.8,0,1,0
		c0,0.3,0,1,0,1.3c0.3,0,0.8,0,1,0c0,0.3,0,0.8,0,1c0.3,0,0.3,0,0.5,0c0.3-8,0.8-16.3,1.5-24.3C143.8,155.7,146.5,147.4,147.5,139.7
		z"/>
	<path fill="#72C2C9" d="M106.3,120.2c-5.5,33-37.7,28-60.7,16.3c-16.3-8.3-31.8-21-38-38.8C-4,65.2,25.8,31.2,60.3,43.4
		c22,7.8,31.2,27.8,40.2,47.5C104.5,99.7,108,110.4,106.3,120.2z"/>
	<path fill="#72C2C9" d="M152.3,129.9c-28.8-1-28.3-29-20.8-50c5.3-14.8,14.3-29.5,28.5-36.8c26.5-13.5,58.8,7.8,52.3,38.8
		c-4,19.8-20,29.8-35.8,39.8C169.5,125.9,161,130.2,152.3,129.9z"/>
	<path fill="#ADE4E9" d="M158.5,127.2c-28.3,31.8-63.3,7.3-82.5-18.5c-13.5-18.5-23.5-41-19.2-63.3c8-41,65.3-59.5,97.8-26.3
		c21,21.5,18.8,47.8,16.3,73.8C169.8,104.7,166.8,117.9,158.5,127.2z"/>
	<path fill="#FAB50A" d="M208.3,106.7c22,13.5,19.8,44,10.8,67c-9.3,23.3-41.3,20.3-61.8,10.5c-10.8-5-22-13-27.5-24.5
		c-6.8-13.8-2.3-30.3,7-42.3C154.3,94.9,186.5,93.4,208.3,106.7z"/>
	<path fill="#FFFFFF" d="M134.3,129.2c-2,14,13.5,24,26.5,21c14.8-3.3,17.5-25.5,6.8-34.5c-8.3-6.8-19.8-6.5-27,1.3
		C136.5,120.9,134.8,125.2,134.3,129.2z"/>
	<path fill="#100F0D" d="M164,136.4c9.8-4.3,8.3-18-2.3-20.3c-9.3-2-17,9.3-10.5,16.8C154.5,136.7,159,138.7,164,136.4z"/>
	<path fill="#FFFFFF" d="M164.5,127.2c3.5,0.8,6-3.8,3.3-6.5c-2-2-5.5-1.8-6.3,1.3C160.8,124.2,161.8,126.9,164.5,127.2z"/>
	<path fill="#FFFFFF" d="M181.3,135.2c-2,15.3,14.5,26,28.5,22.8c16-3.5,18.8-27.5,7.3-37.3c-8.8-7.3-21.3-7-29.3,1.5
		C183.8,126.4,181.8,130.9,181.3,135.2z"/>
	<path fill="#100F0D" d="M213.3,143.2c10.5-4.5,9-19.5-2.5-21.8c-10-2.3-18.3,9.8-11.3,18C203,143.4,208,145.7,213.3,143.2z"/>
	<path fill="#FFFFFF" d="M213.8,133.4c3.8,0.5,6.5-4.3,3.5-7.3c-2-2-6-1.8-6.8,1.3C209.8,129.9,210.8,132.9,213.8,133.4z"/>
	<path fill="#231F20" d="M158.8,102.2c-0.8-1.8-1.8-3.5-3.3-4.8c-1.5-1.5-3.8-1.3-4.5,1c-0.5,1.3,0.3,2.5,1.5,2.8s2.3-0.5,2.8-1.5
		c-0.3,0.3-0.5,0.8-0.8,1c-0.5,0-0.8,0.3-1.3,0.3c-0.3,0-0.5,0-0.8-0.3c-0.3,0-0.3-0.3,0,0s0.5,0.8,0.8,1c0.5,0.8,1.3,1.8,1.8,2.5
		C156.3,106.7,160.3,104.7,158.8,102.2z"/>
	<path fill="#231F20" d="M209.3,107.4c-0.3-0.5-0.3,0,0.5,1c0,0.3,0,0.5-0.3,0.8c0.3-0.3,0.3-0.3,0,0c0.3-0.3,0.3-0.3,0.3-0.5
		c0.5-0.3,1-0.8,1.5-1c0.5-0.5,1.3-0.8,1.8-1c0.3,0,1-0.5,0.8-0.3c0-0.3,1-0.3,0.3-0.3c1.3,0,2.3-1,2.3-2.3c0-1-1-2.3-2-2.3
		c-2.5,0.3-4.5,1.5-6.3,3c-1.8,1.3-4.3,4-1.8,5.8c0.8,0.8,2,1,3,0C210,109.7,210.3,108.2,209.3,107.4z"/>
	<path fill="#F04156" d="M160.5,159.4c8,3,15,4,23.5,0c-2.5,13.3-17.5,12-23,2L160.5,159.4z"/>
	<path fill="#231F20" d="M8,188.4c5-2,10-2.3,15.3-1.3c2.5,0.5,3.8-3.3,1-3.8c-5.8-1.3-11.8-1.3-17.3,1c-1,0.5-1.8,1.3-1.5,2.5
		C6,187.9,7,188.7,8,188.4z"/>
	<path fill="#231F20" d="M132.3,227.4c1.3,4,3.3,8,6,11.3c-0.3-0.8-0.3-1.8-0.5-2.5c-0.5,1.3-1.3,3-2.5,3.8
		c-2.3,1.3-0.3,4.8,2.3,3.5c1.8-1.3,3-3.3,3.8-5.3c0.5-0.8,0.5-1.8-0.3-2.5c-2.3-2.8-3.8-6-4.8-9.3
		C135.3,223.9,131.5,224.9,132.3,227.4z"/>
	<path fill="#231F20" d="M118.8,232.4c0.8,3.8,3,7.8,6.3,9.8c0-1-0.3-2-0.3-3.3c-1.3,1.3-2.5,2.8-4,3.5c-2.5,0.8-1.5,4.8,1,3.8
		c2.3-0.8,4-2.5,5.8-4.3c1-1,0.8-2.5-0.5-3.3c-2.5-1.5-3.8-4.5-4.5-7.5C122.3,228.7,118.3,229.9,118.8,232.4z"/>
	<path fill="#231F20" d="M159,219.7c2.3,0.8,3.3,4,3,6.3c-0.3,1.5,0.8,3,2.5,2.5c1.5-0.5,3,0,4.3,0c2.8,0,2.8-4,0-4
		c-1.8,0-3.5-0.5-5.3,0c0.8,0.8,1.5,1.8,2.5,2.5c0.5-4.5-1.3-9.5-5.8-11.3C157.8,214.9,156.8,218.9,159,219.7z"/>
	<path fill="#231F20" d="M167.3,212.9c2,1.3,2.8,3.3,2.8,5.3c0,1.5,1.3,2.3,2.5,2c2.5-0.5,4.8,0.3,7.3-0.5s1.3-4.5-1.3-4
		c-2.3,0.8-4.8,0.3-7,0.8c1,0.5,1.8,1.3,2.5,1.8c0-3.5-1.5-7-4.8-8.8C167,208.2,165,211.7,167.3,212.9z"/>
</g>
</svg>
