<?xml version="1.0" encoding="utf-8"?>
<!-- Generator: Adobe Illustrator 16.0.0, SVG Export Plug-In . SVG Version: 6.00 Build 0)  -->
<!DOCTYPE svg PUBLIC "-//W3C//DTD SVG 1.1//EN" "http://www.w3.org/Graphics/SVG/1.1/DTD/svg11.dtd">
<svg version="1.1" id="Layer_1" xmlns="http://www.w3.org/2000/svg" xmlns:xlink="http://www.w3.org/1999/xlink" x="0px" y="0px"
	 width="382px" height="147px" viewBox="0 0 382 147" enable-background="new 0 0 382 147" xml:space="preserve">
<g>
	<polygon fill="#363636" points="8.9,101.5 16.3,118.8 32.9,118.8 26.1,101.5 	"/>
	<path fill="#E51837" d="M225.7,7.2c-5.7,0-13.4,0-19.8,0s-28.7,2.3-39.7,7.8s-53.2,29-55.8,30.5s-6.4,3.2-10.4,3.2
		s-34.5,2.8-57.1,10.8S19.1,71.2,14.2,78.2s-3.3,7-5.5,9.3S6.6,90.4,6.6,93s0,7.2,0,8.1s-0.3,2.7,3.4,2.7s7.7,0.1,9.7,1.7
		s5.2,7.1,4.9,8.7s-1.9,2.3-3.2,2.3s-11.1,0-11.8,0s-0.4,2.3,0.3,3.2s5.2,4.4,7,4.4s317.7,0,325,0s7.9-6.1,10.9-6.1s13.3,0,16.5,0
		s7.5-5.3,9-8.9s1.7-14,1.7-18s-5.7-11.7-5.7-15.5s0-18.7,0-22.3s-4.7-10.2-8.5-15.5s-22.6-21-22.6-21.5s1.8-3.3,0.3-4.1
		C342.2,11.3,285.1,7.2,225.7,7.2z"/>
	<path fill="#CC1331" d="M8.7,87.5c-2.2,2.2-2.2,2.9-2.2,5.6s0,7.2,0,8.1s-0.3,2.7,3.4,2.7s7.7,0.1,9.7,1.7s5.2,7.1,4.9,8.7
		s-1.9,2.3-3.2,2.3s-11.1,0-11.8,0s-0.4,2.3,0.3,3.2s5.2,4.4,7,4.4s317.7,0,325,0s7.9-6.1,10.9-6.1s13.3,0,16.5,0s7.5-5.3,9-8.9
		s1.7-14,1.7-18c0-2.4-2.1-6.2-3.7-9.7H12.2C9.8,85.3,10.5,85.6,8.7,87.5z"/>
	<path fill="#BDBDBC" d="M234.6,117.4H134.4c-2.9,0-3.3-1.9-3.3-3.8V51.2c0-4.3,9.7-7.4,10.1-7.6l0.2,0.7c-2.7,0.9-9.6,3.8-9.6,6.9
		v62.4c0,1.9,0.4,3,2.5,3h100.3c3.1,0,12.8-4.3,12.8-11.9V62.1c0-2.8-0.2-5.5-0.4-7.9c-0.2-1.8-0.3-3.4-0.3-4.6h0.8
		c0,1.2,0.1,2.7,0.3,4.5c0.2,2.4,0.5,5.2,0.5,8v42.6C248.1,112.9,238,117.4,234.6,117.4z M350.7,61.4c0-4.6-3.8-8.4-8.4-8.4
		s-8.4,3.8-8.4,8.4s3.8,8.4,8.4,8.4S350.7,66,350.7,61.4z M349.9,61.4c0,4.2-3.4,7.6-7.6,7.6s-7.6-3.4-7.6-7.6s3.4-7.6,7.6-7.6
		S349.9,57.2,349.9,61.4z"/>
	<g>
		<path fill="#242424" d="M117.2,124v-8.8c0-17.9-14.6-32.4-32.4-32.4c-17.9,0-32.4,14.6-32.4,32.4v8.8C69.7,124,92.3,124,117.2,124
			z"/>
		<path fill="#242424" d="M357.7,115.3c0-17.9-14.6-32.4-32.4-32.4c-17.9,0-32.4,14.6-32.4,32.4v8.8c28.3,0,47.4,0,49.2,0
			c7.4,0,7.9-6.1,10.9-6.1c1,0,2.8,0,4.8,0V115.3z"/>
	</g>
	<g>
		<circle fill="#363636" cx="84.7" cy="115.3" r="27.8"/>
		<circle fill="#2E2F2F" cx="84.7" cy="115.3" r="21.6"/>
		<circle fill="#C3C2C2" cx="84.7" cy="115.3" r="19.5"/>
		<circle fill="#8C8C8C" cx="84.7" cy="115.3" r="17"/>
		<circle fill="#2A292A" cx="84.7" cy="115.3" r="15.3"/>
		<circle fill="#C3C2C2" cx="84.7" cy="115.3" r="3.5"/>
		<polygon fill="#C3C2C2" points="87.9,114.2 81.6,114.2 83,96.8 86.5,96.8 		"/>
		<polygon fill="#C3C2C2" points="84.7,111.9 82.8,118 66.7,111.2 67.7,107.9 		"/>
		<polygon fill="#C3C2C2" points="81.5,114.2 86.7,118 75.3,131.2 72.5,129.2 		"/>
		<polygon fill="#C3C2C2" points="82.8,118 87.9,114.2 97,129.2 94.2,131.2 		"/>
		<polygon fill="#C3C2C2" points="86.7,118 84.8,111.9 101.7,107.9 102.8,111.2 		"/>
	</g>
	<g>
		<circle fill="#363636" cx="325.3" cy="115.3" r="27.8"/>
		<circle fill="#2E2F2F" cx="325.3" cy="115.3" r="21.6"/>
		<circle fill="#C3C2C2" cx="325.3" cy="115.3" r="19.5"/>
		<circle fill="#8C8C8C" cx="325.3" cy="115.3" r="17"/>
		<circle fill="#2A292A" cx="325.3" cy="115.3" r="15.3"/>
		<circle fill="#C3C2C2" cx="325.3" cy="115.3" r="3.5"/>
		<polygon fill="#C3C2C2" points="328.5,114.2 322.1,114.2 323.5,96.8 327,96.8 		"/>
		<polygon fill="#C3C2C2" points="325.3,111.9 323.3,118 307.2,111.2 308.3,107.9 		"/>
		<polygon fill="#C3C2C2" points="322.1,114.2 327.2,118 315.8,131.2 313,129.2 		"/>
		<polygon fill="#C3C2C2" points="323.3,118 328.5,114.2 337.5,129.2 334.7,131.2 		"/>
		<polygon fill="#C3C2C2" points="327.2,118 325.3,111.9 342.3,107.9 343.3,111.2 		"/>
	</g>
	<g>
		<path fill="#484848" d="M365.9,37.7c-3.3-4.6-17.6-16.8-21.6-20.5c-1.6,0.5-2.9,1.3-2.1,2.1c1.7,1.7,19.5,27,21,27.6
			s1.6,1.4,5.9,1.4c1.1,0,2.4,0,3.7,0C371.2,45,368.4,41.1,365.9,37.7z"/>
		<path fill="#484848" d="M110.4,45.5c-0.9,0.5-1.8,1-2.9,1.4c2,1,3.8,2,5.1,1.9c2.6-0.2,10.5-5.6,16.7-9.2s40-21.3,42.6-23.5
			c1.9-1.6,0.4-2.5-1.8-2.8c-1.4,0.5-2.7,1.1-3.9,1.7C155.2,20.5,113.1,44,110.4,45.5z"/>
		<path fill="#484848" d="M136.1,45.9c-2,1.7-1.8,5.3,4.2,5.3s168.6,0,172.8,0s6.1-1.8,9-8.2c3-6.3,7.3-23.5,6.4-24.5
			S300.4,12,233.2,12c-7,0-37,0.7-54.3,7.7S138.1,44.2,136.1,45.9z"/>
		<g>
			<path fill="#8A8A8A" d="M243.3,12.1c-3.2,0-6.6,0-10.1,0c-2.7,0-8.7,0.1-16.1,0.6l-18.8,38.6c8.3,0,17.1,0,25.9,0L243.3,12.1z"/>
			<path fill="#8A8A8A" d="M169.6,51.2c4.8,0,10,0,15.4,0L203.1,14c-5.8,0.8-11.7,1.8-17,3.3L169.6,51.2z"/>
			<path fill="#8A8A8A" d="M316,16.1c-3.9-0.5-8.8-1.1-14.7-1.6l-17.9,36.7c5.8,0,11.1,0,15.4,0L316,16.1z"/>
		</g>
	</g>
	<path fill="#2A292A" d="M239.3,51.2c5.2,0,10.4,0,15.4,0v-39c-2.9-0.1-6-0.1-9.1-0.1L239.3,51.2z"/>
	<path fill="#FFFFFF" d="M53.4,61.7c-4.4,0.9-17.7,1.5-23.3,5.8S15.7,82.2,17.7,84s18.8-0.9,25-3.5S63.7,59.7,53.4,61.7z"/>
	<path fill="#EF7951" d="M42.7,80.5c6.2-2.6,21-20.8,10.7-18.8c-1.6,0.3-4.4,0.6-7.5,1c-5.3,5-13.3,13.7-14.3,20.7
		C35.9,82.7,40.2,81.6,42.7,80.5z"/>
	<path fill="#EF7951" d="M374.4,75.5c0-3,0-12.8,0-18.7h-10.9c-1.1,0-1.9,0.9-1.9,1.9v17.5c0,1.1,0.9,1.9,1.9,1.9H375
		C374.6,77.2,374.4,76.3,374.4,75.5z"/>
</g>
</svg>
