<?xml version="1.0" encoding="utf-8"?>
<!-- Generator: Adobe Illustrator 16.0.0, SVG Export Plug-In . SVG Version: 6.00 Build 0)  -->
<!DOCTYPE svg PUBLIC "-//W3C//DTD SVG 1.1//EN" "http://www.w3.org/Graphics/SVG/1.1/DTD/svg11.dtd">
<svg version="1.1" id="Layer_1" xmlns="http://www.w3.org/2000/svg" xmlns:xlink="http://www.w3.org/1999/xlink" x="0px" y="0px"
	 width="287px" height="180px" viewBox="0 0 287 180" enable-background="new 0 0 287 180" xml:space="preserve">
<g>
	<path fill="#38943B" d="M266.8,66.2c-3,1.3-5.5,3.5-6.5,6.5c-1.3,3.3-6.3,2-5.3-1.3c1.8-5,5.5-8.5,10.5-10.5c1.3-0.5,2.8,0.8,3.3,2
		C269,64.5,268.3,65.7,266.8,66.2z"/>
	<path fill="#38943B" d="M251.3,60.7c-2.5,0-3,4.5-3,6.5c0,3.3-5.3,3.3-5.3,0c0-5.3,2.3-11.8,8.3-12
		C254.8,55.2,254.8,60.5,251.3,60.7z"/>
	<path fill="#4AB039" d="M198,102.5c0.8-18.8,15-41,36-41.8c40.8-2,66,61.3,33.3,87.3c-17.5,13.5-47.5,11.5-59-8.8
		C202.3,128.2,197.3,115.2,198,102.5z"/>
	<path fill="#88CE25" d="M146,128c-14.5-23.5-1.3-63.3,26.3-70c16.8-4.3,33.3-4,48,6.3c24.8,17.3,26.8,57.5,3.5,77
		c-13.5,11.3-32,15-48.8,9.3C164,146.5,152,137.7,146,128z"/>
	<path fill="#4AB039" d="M193.8,88.5c1.5,2.3,2.8,4.8,3.8,7.3c19.8,46.5-35.5,90.3-76,60.8c-8.3-5.8-13-14-15.8-23.5
		c-2.8-9.3,0-16.5,2.8-25.8c5-17,12.8-32.8,31.3-37.8C160.3,63.7,182.5,71,193.8,88.5z"/>
	<path fill="#88CE25" d="M136.3,70.5c5.3,4.8,10.2,11.3,12.2,19c5.8,21.3,0,47-12,61c-14.5,16.5-38,15-55,8
		C63.8,151,43.3,133,44.5,103c0.3-9.3,1.8-19.8,5.8-27c3.5-6,6.5-11.8,11.5-15c9.8-6,19.3-7.3,29.5-7.3c13.3,0,26.8,4,38.8,12
		C132,67,134.3,68.7,136.3,70.5z"/>
	<path fill="#38943B" d="M130.5,156.2c2.5,4.3,3.3,9.3,3.3,14c-0.8-0.8-1.8-1.8-2.8-2.5c-1,0,0.5-0.3,0.8-0.3
		c0.8-0.3,1.5-0.5,2.3-0.8c1.5-0.5,2.8-1,4.3-0.3c0.8,0.5,1.3,1.5,1.3,2.3c0,1-0.3,1.5-0.8,2c-1,1.3-3,1-3.8,0c-1.3-1-1-2.5,0-3.8
		l0,0c-0.3,0.5-0.5,1.3-0.8,1.8l0,0c0.3,0.8,0.8,1.5,1.3,2.3l0,0c0.5,0.3,0.8,0.3,1.3,0.5c-0.3,0,0,0,0.3,0c-0.3,0-0.5,0-0.5,0
		c-0.8,0.3-1.3,0.5-2,0.8c-1,0.3-2.3,0.8-3.5,0.8c-1.3,0.3-2.5-1.3-2.5-2.8c0-3.8-0.5-7.8-2.5-11.3C124.3,156,129,153.2,130.5,156.2
		z"/>
	<path fill="#38943B" d="M56.5,141.2c-2.8,3-4.3,6.5-5,10.3c-0.3,1.5-2,2.3-3.3,1.8c-2-0.5-4.3,0-6.3-0.8c-3.3-0.8-2-6,1.3-5
		c2.3,0.5,4.3,0.3,6.5,0.8c-1,0.5-2.3,1.3-3.3,1.8c0.8-4.5,3-9,6.3-12.5C55.3,135.2,59,139,56.5,141.2z"/>
	<path fill="#38943B" d="M164,151.5c4.5,4.8,5.8,11.3,4.3,17.5c-0.8-1.3-1.8-2.3-2.5-3.5c1.5,0.3,2.8,0.5,4,1
		c0.5,0.3,1.3,0.5,1.8,0.8c0.3,0.3,1.5,0.5,0.5,0.5c1.5,0.3,2.8,1,2.8,2.5s-1.3,3-2.8,2.8c-2-0.3-4-2-6.3-2c-1.8-0.3-3-1.8-2.5-3.5
		c1-4.3,0.3-9-3-12.3C158,152.7,161.8,149,164,151.5z"/>
	<path fill="#38943B" d="M205.3,145.5c5.3,2.8,6.3,9.5,5.5,15c-0.8-1-1.8-1.8-2.5-2.8c1.5,0,4-0.8,5.3,0.3c1.3,0.8,1.8,2.3,1,3.5
		c-0.5,1-1.3,1.3-2,1.5c-3.3,1.3-4.8-4-1.5-5c-0.5,0-0.8,0.5-1,0.8c0.3,1.3,0.5,2.5,0.8,3.8c1,0.5,1.5,0.3,0.5,0.3
		c-0.5,0-0.8,0.3-1.3,0.3s-1.3,0-1.8,0c-1.5,0.3-3-1.3-2.8-2.5c0.5-3.5,0.8-8.5-3-10.5C199.5,148.5,202.3,143.7,205.3,145.5z"/>
	<path fill="#38943B" d="M263.8,145.2c3.3,3.3,4.3,7.8,4.3,12.5c-0.8-1-1.8-2-2.5-2.8c1.3,0,2.3,0.5,3.3,1.5c-1.3,0-2.5,0-3.8,0
		c1-1,2.3-1.5,3.8-2c0.8-0.3,2.3-0.3,3-0.5c1.5-0.8,3-0.5,3.8,1c0.5,1,0.3,3-1,3.5c-1,0.5-2,0.8-3.3,1c-0.8,0-2,0.3-2.5,0.8
		c-1.3,1-2.8,1-3.8,0c-0.8-0.5-0.5-0.5,0.5,0c-1.5,0-2.8-1.3-2.8-2.5c0-3.3-0.5-6.5-2.8-8.8C257.8,146.5,261.3,142.7,263.8,145.2z"
		/>
	<path fill="#4AB039" d="M39.5,10.7c-29.5,8.3-36.8,44-34,73c3,29.5,40.8,36.8,67,32c14-2.3,29.5-7.5,39.5-19
		c12-13.8,12.3-34,5.5-50.5C104.8,14.7,68.5,2.5,39.5,10.7z"/>
	<path fill="#FFFFFF" d="M116.8,60.2c-2.5,16.8-23.3,23-37,15.5C63.8,67.2,68,41,83.3,34.2c11.5-5.3,24.5-1.3,30.5,10.3
		C116.8,50.2,117.5,55.5,116.8,60.2z"/>
	<path fill="#100F0D" d="M80.5,59.2c-9.8-8.3-3.8-23.5,9-22.8c11.3,1,16.5,16.3,6.5,22.8C91,62.5,85.3,63.2,80.5,59.2z"/>
	<path fill="#FFFFFF" d="M82.8,48.5C78.8,48,77.3,42,81,40c3-1.8,7.3-0.5,7,3.3C88,46,86,48.7,82.8,48.5z"/>
	<path fill="#FFFFFF" d="M61.3,52.2c-2.8,18-25.3,24.8-40,16.5C4,59.5,8.5,31.5,25,24c12.3-5.5,26.5-1.3,32.8,11
		C61,41.2,62,47,61.3,52.2z"/>
	<path fill="#100F0D" d="M22,51c-10.5-8.8-4-25.5,9.8-24.3C44,27.5,49.5,44,38.8,51C33.5,54.5,27.3,55.2,22,51z"/>
	<path fill="#FFFFFF" d="M24.5,39.5c-4.5-0.5-6-7-1.8-9.3c3.3-1.8,7.5-0.3,7.5,3.5C30,37,28,39.7,24.5,39.5z"/>
	<path fill="#38943B" d="M97.5,21.5c1.5-1.5,3.3-3.3,5-4.3c2.5-1.3,5-0.3,5,2.5c0.3,1.5-1.3,2.8-2.5,2.8c-1.5,0-2.5-1.3-2.8-2.8
		c0.3,0.5,0.5,1,0.8,1.5c0.3,0.3,0.8,0.5,1,0.8c0.5,0,0.8,0,1,0c0.3-0.3,0.5-0.3,0,0c-0.3,0.3-0.8,0.5-1,0.8c-1,0.8-2,1.5-2.8,2.5
		C98.8,27.7,95,24,97.5,21.5z"/>
	<path fill="#38943B" d="M38,11.2c0.5-0.3,0.3,0-0.8,1C37,12.5,37,12.7,37,13c0-0.3,0-0.3,0.3,0C37,13,37,12.7,37,12.5
		c-0.5-0.5-0.8-1-1.3-1.5c-0.5-0.8-1.3-1.3-1.8-2c-0.3,0-1-0.8-0.8-0.5c0,0-1-0.5-0.3-0.3c-1.5-0.5-2.3-1.8-2-3.3
		c0.5-1.3,2-2.5,3.3-1.8c2.5,0.8,4.8,3,6.3,5.3c1.5,2,3.3,5.8,0,7.3c-1.3,0.5-2.8,0.5-3.5-1C36.3,13.7,36.5,11.7,38,11.2z"/>
	<path fill="#F04156" d="M64,92.5c-10.3,1-18.5-0.3-27-7.5c-1.5,16,16.3,19.5,25.5,9.8L64,92.5z"/>
</g>
</svg>
