<?xml version="1.0" encoding="utf-8"?>
<!-- Generator: Adobe Illustrator 16.0.0, SVG Export Plug-In . SVG Version: 6.00 Build 0)  -->
<!DOCTYPE svg PUBLIC "-//W3C//DTD SVG 1.1//EN" "http://www.w3.org/Graphics/SVG/1.1/DTD/svg11.dtd">
<svg version="1.1" id="Layer_1" xmlns="http://www.w3.org/2000/svg" xmlns:xlink="http://www.w3.org/1999/xlink" x="0px" y="0px"
	 width="201px" height="326px" viewBox="0 0 201 326" enable-background="new 0 0 201 326" xml:space="preserve">
<g>
	<path fill="#FCE0C5" d="M45.8,220.8c-1.8,0-3.3-0.3-4.8-0.5c-17-4-22.8-28.8-23.3-31.5c-0.8-3,1.3-6,4.3-6.8
		c3.3-0.8,6.3,1.3,6.8,4.5l0,0c1.3,5.3,6.3,20.8,15,22.8c6.3,1.3,15-4.5,24.8-16.8c2-2.5,5.5-2.8,8-0.8s2.8,5.5,0.8,8
		C66,213.8,55.5,220.8,45.8,220.8z"/>
	<path fill="#FCE0C5" d="M26.5,180.5c-4.3-1.8-5-0.5-7.8,2.3c-3,2.8-5.3,5.3-2.3,8c2.8,2.8,8.5,4,11.3,1.3
		C30.8,189.3,29.5,183.3,26.5,180.5z"/>
	<path fill="#FCE0C5" d="M12.3,183c-0.5-0.5-1-0.5-1.5,0l0,0c-0.5,0.3-0.5,1,0,1.5c6,6,6,6,6,6c0.5,0.3,1,0.3,1.5,0l0,0
		c0.5-0.5,0.5-1.3,0-1.8C12.3,183,12.3,183,12.3,183z"/>
	<path fill="#FCE0C5" d="M12.5,178.3c-0.3-0.3-1-0.3-1.5,0l0,0c-0.3,0.5-0.3,1.3,0,1.8c6,6,6,6,6,6c0.5,0.3,1.3,0.3,1.5,0l0,0
		c0.5-0.5,0.5-1.3,0-1.8C12.5,178.3,12.5,178.3,12.5,178.3z"/>
	<path fill="#FCE0C5" d="M14.3,175.3c-0.5-0.5-1-0.5-1.5,0l0,0c-0.5,0.5-0.5,1,0,1.5c6,6,6,6,6,6c0.5,0.5,1,0.5,1.5,0l0,0
		c0.5-0.5,0.5-1,0-1.5C14.3,175.3,14.3,175.3,14.3,175.3z"/>
	<path fill="#FCE0C5" d="M29,178c0-0.5-0.3-1-1-1.3l0,0c-0.8-0.3-1.5-0.3-1.5,0.3c-2.3,5.5-2.3,5.5-2.3,5.5c0,0.5,0.5,1,1,1.3l0,0
		c0.8,0.3,1.5,0,1.5-0.3C29,178,29,178,29,178z"/>
	<path fill="#F05637" d="M80.5,188.5c-2-1.5-11.3,1.3-13.3,3c-6,5.8-11,10.8-15.3,13.8c2,15.5,2,15.5,2,15.5c7.8-2.8,16-9.5,24.5-20
		C78.5,200.8,82,189.8,80.5,188.5z"/>
	<path fill="#F05637" d="M32,192.8c-13.8,4.5-13.8,4.5-13.8,4.5c2,6,7.8,19.5,20,23.8c2-15.3,2-15.3,2-15.3
		C36.5,202.8,33.8,197.5,32,192.8z"/>
	<path fill="#EF4147" d="M44,207.8c-1.3-0.3-2.5-1-3.8-2c-2,15.3-2,15.3-2,15.3c1,0.5,2,0.8,3.3,1s2.8,0.3,4,0.3
		c2.8,0,5.5-0.5,8.5-1.5c-2-15.5-2-15.5-2-15.5C49,207,46.5,208,44,207.8z"/>
	<path fill="#EF4147" d="M18.3,197.3c13.8-4.5,13.8-4.5,13.8-4.5c0.3,0.5,0.5,1.3,0.8,2c-4.5,1.8-9,3.3-13.8,4.5
		C18.8,198.5,18.5,198,18.3,197.3z"/>
	<path fill="#FCE0C5" d="M18,174c-0.5-0.5-1.3-0.5-1.5,0l0,0c-0.5,0.5-0.5,1.3,0,1.5c6,6,6,6,6,6c0.3,0.5,1,0.5,1.5,0l0,0
		c0.3-0.3,0.3-1,0-1.5C18,174,18,174,18,174z"/>
	<path fill="#3C3A3D" d="M83,307.3c-1.8,0.8-4,1.3-6.5,1.3c-2.8,0-5.3-0.5-7-1.5c-9,1-12.5,10-10.8,12c2.5,2.8,11.8,3.5,18.3,0.5
		c2.5-1.3,7-0.3,7-3c0-7.8,0-7.8,0-7.8C84,308,83.8,307.5,83,307.3z"/>
	<path fill="#E9EAE8" d="M62.8,309.8c1.8,0.8,3,1.8,4.3,3c0.5-0.8,1.3-1.3,2-1.8c-1.5-1-3.3-1.8-5-2
		C63.8,309.3,63.3,309.5,62.8,309.8z"/>
	<path fill="#FFFFFF" d="M64,309c1.8,0.3,3.5,1,5,2c0.5-0.5,1-1,1.8-1.3c-1.3-1-2.8-1.8-4.3-2C65.8,308,64.8,308.5,64,309z"/>
	<path fill="#47474A" d="M58.3,316.5c0,1.3,0,2,0.5,2.5c2.5,2.8,11.8,3.5,18.3,0.5c2.5-1.3,7-0.3,7-3c0-1.5,0-1.5,0-1.5
		c-2,0.3-5.5,0.8-9.5,2.5C69.5,319.8,63.3,318.5,58.3,316.5z"/>
	<path fill="#5C5F61" d="M58.3,316.5c3,1.3,6.3,2.3,9.5,2.3c-0.8-3.8-3.3-6.8-6.5-7.5C59.8,313,58.8,315,58.3,316.5z"/>
	<path fill="#FFFFFF" d="M65.8,314c0.3-0.5,0.8-0.8,1.3-1.3c-1.3-1.3-2.5-2.3-4.3-3c-0.5,0.5-1,1-1.5,1.5
		C63,311.5,64.5,312.5,65.8,314z"/>
	<path fill="#FFFFFF" d="M81.3,311.8c0,1-1,2-2,2s-2-1-2-2s1-2,2-2S81.3,310.8,81.3,311.8z"/>
	<path fill="#FFFFFF" d="M58.3,316.5c0.3-0.3,0.3-0.3,0.3-0.5C58.5,316.3,58.5,316.3,58.3,316.5z"/>
	<path fill="#E9EAE8" d="M69.5,307c-1,0.3-2,0.5-3,0.8c1.5,0.3,3,1,4.3,2c0.8-0.5,1.8-1,2.8-1.5C72,308,70.8,307.5,69.5,307z"/>
	<path fill="#6E4A2F" d="M75.5,309c-4.3,0-10,0-10-2.8C68,248,68,248,68,248c0-3,3.3-5.3,7.5-5.3l0,0c4.3,0,7.8,2.3,7.8,5.3
		c2.3,58.3,2.3,58.3,2.3,58.3C85.5,309,79.8,309,75.5,309z"/>
	<path fill="#845E41" d="M75.5,305.3c-3.5,0-7.8,0-9.8-1.3c-0.3,2.3-0.3,2.3-0.3,2.3c0,2.8,5.8,2.8,10,2.8s10,0,10-2.8
		c0-2.3,0-2.3,0-2.3C83.5,305.3,79,305.3,75.5,305.3z"/>
	<path fill="#3C3A3D" d="M99.3,307.3c1.8,0.8,4,1.3,6.5,1.3c2.8,0,5.3-0.5,7-1.5c9,1,12.8,10,11,12c-2.5,2.8-11.8,3.5-18.5,0.5
		c-2.5-1.3-7-0.3-7-3c0-7.8,0-7.8,0-7.8C98.3,308,98.8,307.5,99.3,307.3z"/>
	<path fill="#E9EAE8" d="M119.5,309.8c-1.8,0.8-3,1.8-4.3,3c-0.5-0.8-1.3-1.3-1.8-1.8c1.5-1,3-1.8,4.8-2
		C118.8,309.3,119,309.5,119.5,309.8z"/>
	<path fill="#FFFFFF" d="M118.3,309c-1.8,0.3-3.3,1-4.8,2c-0.8-0.5-1.3-1-2-1.3c1.3-1,2.8-1.8,4.3-2
		C116.8,308,117.5,308.5,118.3,309z"/>
	<path fill="#47474A" d="M124,316.5c0.3,1.3,0,2-0.3,2.5c-2.5,2.8-11.8,3.5-18.5,0.5c-2.5-1.3-7-0.3-7-3c0-1.5,0-1.5,0-1.5
		c2,0.3,5.5,0.8,9.8,2.5C113,319.8,119,318.5,124,316.5z"/>
	<path fill="#5C5F61" d="M124,316.5c-3,1.3-6.3,2.3-9.5,2.3c0.8-3.8,3.3-6.8,6.5-7.5C122.8,313,123.8,315,124,316.5z"/>
	<path fill="#FFFFFF" d="M116.8,314c-0.5-0.5-1-0.8-1.5-1.3c1.3-1.3,2.5-2.3,4.3-3c0.5,0.5,1,1,1.5,1.5
		C119.3,311.5,117.8,312.5,116.8,314z"/>
	<path fill="#FFFFFF" d="M101.3,311.8c0,1,0.8,2,1.8,2c1.3,0,2-1,2-2s-0.8-2-2-2C102,309.8,101.3,310.8,101.3,311.8z"/>
	<path fill="#FFFFFF" d="M124,316.5c0-0.3,0-0.3-0.3-0.5C124,316.3,124,316.3,124,316.5z"/>
	<path fill="#E9EAE8" d="M112.8,307c1,0.3,2,0.5,3,0.8c-1.5,0.3-3,1-4.3,2c-0.8-0.5-1.8-1-2.5-1.5C110.3,308,111.8,307.5,112.8,307z
		"/>
	<path fill="#6E4A2F" d="M106.8,309c4.3,0,10,0,10-2.8c-2.3-58.3-2.3-58.3-2.3-58.3c0-3-3.5-5.3-7.8-5.3l0,0c-4.3,0-7.8,2.3-7.8,5.3
		c-2.3,58.3-2.3,58.3-2.3,58.3C96.8,309,102.5,309,106.8,309z"/>
	<path fill="#845E41" d="M106.8,305.3c3.5,0,7.8,0,10-1.3c0,2.3,0,2.3,0,2.3c0,2.8-5.8,2.8-10,2.8s-10,0-10-2.8c0-2.3,0-2.3,0-2.3
		C98.8,305.3,103.3,305.3,106.8,305.3z"/>
	<path fill="#FCE0C5" d="M136.8,220.8c-10,0-20.5-7-31.8-21c-2-2.5-1.5-6,0.8-8c2.5-2,6.3-1.8,8.3,0.8c9.8,12.3,18.5,18,24.8,16.8
		c8.5-2,13.5-17.5,14.8-22.8c0.8-3.3,3.8-5.3,6.8-4.5s5,3.8,4.5,6.8c-0.8,2.8-6.5,27.5-23.5,31.5
		C139.8,220.5,138.3,220.8,136.8,220.8z"/>
	<path fill="#FCE0C5" d="M155.8,180.5c4.3-1.8,5-0.5,7.8,2.3c3,2.8,5.3,5.3,2.5,8c-3,2.8-8.8,4-11.5,1.3S153,183.3,155.8,180.5z"/>
	<path fill="#FCE0C5" d="M170,183c0.5-0.5,1.3-0.5,1.5,0l0,0c0.5,0.3,0.5,1,0,1.5c-6,6-6,6-6,6c-0.3,0.3-1,0.3-1.5,0l0,0
		c-0.5-0.5-0.5-1.3,0-1.8C170,183,170,183,170,183z"/>
	<path fill="#FCE0C5" d="M169.8,178.3c0.5-0.3,1-0.3,1.5,0l0,0c0.5,0.5,0.5,1.3,0,1.8c-6,6-6,6-6,6c-0.5,0.3-1,0.3-1.5,0l0,0
		c-0.5-0.5-0.5-1.3,0-1.8C169.8,178.3,169.8,178.3,169.8,178.3z"/>
	<path fill="#FCE0C5" d="M168,175.3c0.5-0.5,1.3-0.5,1.5,0l0,0c0.5,0.5,0.5,1,0,1.5c-6,6-6,6-6,6c-0.3,0.5-1,0.5-1.5,0l0,0
		c-0.5-0.5-0.5-1,0-1.5C168,175.3,168,175.3,168,175.3z"/>
	<path fill="#FCE0C5" d="M164.3,174c0.5-0.5,1.3-0.5,1.8,0l0,0c0.3,0.5,0.3,1.3,0,1.5c-6,6-6,6-6,6c-0.5,0.5-1.3,0.5-1.5,0l0,0
		c-0.5-0.3-0.5-1,0-1.5C164.3,174,164.3,174,164.3,174z"/>
	<path fill="#FCE0C5" d="M153.3,178c0-0.5,0.5-1,1-1.3l0,0c0.8-0.3,1.5-0.3,1.5,0.3c2.3,5.5,2.3,5.5,2.3,5.5c0,0.5-0.3,1-1,1.3l0,0
		c-0.8,0.3-1.5,0-1.5-0.3C153.3,178,153.3,178,153.3,178z"/>
	<path fill="#F05637" d="M115,191.5c-2-1.8-11-4.5-13.3-3c-1.5,1.3,2,12.3,2,12.3c8.5,10.5,16.8,17.3,24.5,20
		c2.3-15.5,2.3-15.5,2.3-15.5C126,202.3,121,197.3,115,191.5z"/>
	<path fill="#F05637" d="M164,197.3c-13.8-4.5-13.8-4.5-13.8-4.5c-1.5,4.8-4.5,10-8,13c2,15.3,2,15.3,2,15.3
		C156.3,216.8,162,203.3,164,197.3z"/>
	<path fill="#EF4147" d="M138.3,207.8c-2.3,0.3-5-0.8-7.8-2.5c-2.3,15.5-2.3,15.5-2.3,15.5c3,1,5.8,1.5,8.5,1.5c1.5,0,2.8,0,4-0.3
		s2.3-0.5,3.5-1c-2-15.3-2-15.3-2-15.3C141,206.8,139.5,207.5,138.3,207.8z"/>
	<path fill="#EF4147" d="M164,197.3c-13.8-4.5-13.8-4.5-13.8-4.5c-0.3,0.5-0.5,1.3-0.8,2c4.5,1.8,9.3,3.3,13.8,4.5
		C163.5,198.5,163.8,198,164,197.3z"/>
	<path fill="#F05637" d="M116.5,226c-0.8-9.5-2.3-24-4.5-29.8c-4.5-11.3-12-9-20.8-9c-9,0-16.5-2.3-21,9C68,202,66.5,216.5,66,226
		c-2.3,33.3,7.5,31,25.3,31C108.8,257,118.8,259.3,116.5,226z"/>
	<path fill="#EF4147" d="M103.3,209.3l4,4.8l4-4.8l-4-5L103.3,209.3L103.3,209.3z M107.3,215.5l-5.3-6.3l5.3-6.3l5.3,6.3
		L107.3,215.5L107.3,215.5z"/>
	<path fill="#EF4147" d="M97.8,209.3l4,4.8l4-4.8l-4-5L97.8,209.3L97.8,209.3z M101.8,215.5l-5.3-6.3l5.3-6.3l5.3,6.3L101.8,215.5
		L101.8,215.5z"/>
	<path fill="#EF4147" d="M92.3,209.3l4,4.8l4-4.8l-4-5L92.3,209.3L92.3,209.3z M96.3,215.5l-5.3-6.3l5.3-6.3l5.3,6.3L96.3,215.5
		L96.3,215.5z"/>
	<path fill="#EF4147" d="M86.8,209.3l4,4.8l4-4.8l-4-5L86.8,209.3L86.8,209.3z M90.8,215.5l-5.3-6.3l5.3-6.3l5.3,6.3L90.8,215.5
		L90.8,215.5z"/>
	<path fill="#EF4147" d="M81.3,209.3l4,4.8l4-4.8l-4-5L81.3,209.3L81.3,209.3z M85.3,215.5l-5-6.3l5-6.3l5.3,6.3L85.3,215.5
		L85.3,215.5z"/>
	<path fill="#EF4147" d="M75.8,209.3l4,4.8l4-4.8l-4-5L75.8,209.3L75.8,209.3z M79.8,215.5l-5-6.3l5-6.3l5.3,6.3L79.8,215.5
		L79.8,215.5z"/>
	<path fill="#EF4147" d="M70.3,209.3l4,4.8l4-4.8l-4-5L70.3,209.3L70.3,209.3z M74.3,215.5l-5-6.3l5-6.3l5.3,6.3L74.3,215.5
		L74.3,215.5z"/>
	<path fill="#EF4147" d="M102.8,190c0-1-0.3-1.8-0.8-2.8c-3.3-0.5-7,0-10.8,0c-4,0-7.8-0.5-11,0c-0.3,1-0.5,1.8-0.5,2.8
		c0,4.5,5,8.3,11.5,8.3C97.5,198.3,102.8,194.5,102.8,190z"/>
	<path fill="#FCE0C5" d="M99.5,189.3c0,3.3-3.8,5.8-8.3,5.8l0,0c-4.8,0-8.5-2.5-8.5-5.8c0-9,0-9,0-9c0-3.3,3.8-6,8.5-6l0,0
		c4.5,0,8.3,2.8,8.3,6C99.5,189.3,99.5,189.3,99.5,189.3z"/>
	<path fill="#F7AF9C" d="M99.5,180.3c0-3.3-3.8-6-8.3-6c-4.8,0-8.5,2.8-8.5,6c0,4.8,0,4.8,0,4.8c5.8,0,11.3-0.3,16.8-0.3
		C99.5,180.3,99.5,180.3,99.5,180.3z"/>
	<path fill="#FCE0C5" d="M82.8,185c0,4.3,0,4.3,0,4.3c0,3.3,3.8,5.8,8.5,5.8c4.5,0,8.3-2.5,8.3-5.8c0-4.5,0-4.5,0-4.5
		C94,184.8,88.5,185,82.8,185z"/>
	<path fill="#6E4A2F" d="M89.5,239c-8.8,0-16.8-1-24-3.3c0.5,23,10,21.3,25.8,21.3s25.3,1.8,25.5-22.3
		C108.8,237.5,99.5,239,89.5,239z"/>
	<path fill="#845E41" d="M113.8,247.8c0.5,0,1,0,1.5,0c1-3.3,1.5-7.5,1.5-13c-4.3,1.5-8.8,2.5-13.5,3.3
		C103.8,243.5,108.3,247.8,113.8,247.8z"/>
	<path fill="#845E41" d="M79,238.5c-4.8-0.5-9.3-1.5-13.5-2.8c0.3,5.3,0.8,9,1.8,12c0.3,0,0.8,0,1.3,0C74,247.8,78.5,243.8,79,238.5
		z"/>
	<path fill="#76533A" d="M89.3,241.8c10,0,19.3-1.3,27.5-3.8c0-1,0-2,0-3.3c-8,2.8-17.3,4.3-27.3,4.3c-8.8,0-16.8-1-24-3.3
		c0,1.3,0.3,2.3,0.3,3.3C72.8,240.8,80.8,241.8,89.3,241.8z"/>
	<path fill="#EF4147" d="M66,226c-0.3,1.3-0.3,2.3-0.3,3.5c50.8,0,50.8,0,50.8,0c0-1.3,0-2.3,0-3.5c-0.3-2.3-0.5-4.8-0.8-7.5
		c-49.3,0-49.3,0-49.3,0C66.3,221.3,66,223.8,66,226z"/>
	<path fill="#FCE0C5" d="M159.5,122.5c0,31.8-25.5,57.5-57.3,57.5C80,180,80,180,80,180c-31.5,0-57.3-25.8-57.3-57.5
		c0-43.3,0-43.3,0-43.3c0-31.8,25.8-57.5,57.3-57.5c22.3,0,22.3,0,22.3,0c31.8,0,57.3,25.8,57.3,57.5
		C159.5,122.5,159.5,122.5,159.5,122.5z"/>
	<path fill="#FBD5B8" d="M102.3,170.3c-22.3,0-22.3,0-22.3,0c-31.5,0-57.3-25.8-57.3-57.3c0,9.5,0,9.5,0,9.5
		c0,31.8,25.8,57.5,57.3,57.5c22.3,0,22.3,0,22.3,0c31.8,0,57.3-25.8,57.3-57.5c0-9.5,0-9.5,0-9.5
		C159.5,144.5,134,170.3,102.3,170.3z"/>
	<path fill="#FBD5B8" d="M25.8,127c0,5.5-4.5,9.8-9.8,9.8l0,0c-5.5,0-10-4.3-10-9.8c0-11.8,0-11.8,0-11.8c0-5.5,4.5-10,10-10l0,0
		c5.3,0,9.8,4.5,9.8,10C25.8,127,25.8,127,25.8,127z"/>
	<path fill="#FBD5B8" d="M176.3,127c0,5.5-4.5,9.8-9.8,9.8l0,0c-5.5,0-9.8-4.3-9.8-9.8c0-11.8,0-11.8,0-11.8c0-5.5,4.3-10,9.8-10
		l0,0c5.3,0,9.8,4.5,9.8,10C176.3,127,176.3,127,176.3,127z"/>
	<path fill="#FCE0C5" d="M9.8,131c0-12,0-12,0-12c0-5.3,4.3-9.8,9.5-9.8c2,0,4,1,5.8,2.3c-1.5-3.5-5-6.3-9-6.3c-5.5,0-10,4.5-10,10
		C6,127,6,127,6,127c0,3.5,2,6.8,4.8,8.5C10.3,134,9.8,132.5,9.8,131z"/>
	<path fill="#FCE0C5" d="M166.5,105.3c-4.3,0-7.8,2.8-9.3,6.3c1.8-1.3,3.8-2.3,6-2.3c5,0,9.3,4.5,9.3,9.8c0,12,0,12,0,12
		c0,1.5-0.3,3-1,4.5c2.8-1.8,4.8-5,4.8-8.5c0-11.8,0-11.8,0-11.8C176.3,109.8,171.8,105.3,166.5,105.3z"/>
	<path fill="#F7AF9C" d="M98.8,137.5c0.8,1.5-0.3,3.3-2,3.5c-3,0.5-3,0.5-3,0.5c-2,0.5-3.3-1-3.3-2.8c1-12.8,1-12.8,1-12.8
		c0.3-2,1-2,1.8-0.3C98.8,137.5,98.8,137.5,98.8,137.5z"/>
	<path fill="#FFFFFF" d="M64,130.3c0,6-3,10.8-6.8,10.8c-4,0-7-4.8-7-10.8s3-10.8,7-10.8C61,119.5,64,124.3,64,130.3z"/>
	<path fill="#845E41" d="M64,130.3c0,5-2.5,9-5.8,9c-3,0-5.8-4-5.8-9s2.8-8.8,5.8-8.8C61.5,121.5,64,125.3,64,130.3z"/>
	<path fill="#211C1D" d="M62.3,130.3c0,3.5-1.8,6.3-4,6.3c-2,0-4-2.8-4-6.3s2-6.3,4-6.3C60.5,124,62.3,126.8,62.3,130.3z"/>
	<path fill="#FFFFFF" d="M62,127c0,1-0.5,1.8-1.3,1.8c-0.5,0-1-0.8-1-1.8s0.5-1.8,1-1.8C61.5,125.3,62,126,62,127z"/>
	<path fill="#2A2C5F" d="M62.8,105.8c0,0-0.3,0-0.5-0.3c-0.3,0-0.5,0-0.5-0.3c-0.3,0-0.5-0.3-0.8-0.3s-0.5-0.3-0.8-0.3
		c0-0.3-0.3-0.3-0.5-0.3s-0.5-0.3-0.8-0.3h-0.3c-0.3,0-0.3,0-0.3,0l0,0l0,0c-0.3,0-0.3,0-0.3,0l0,0l0,0l0,0c0.3,0,0,0,0.3,0
		c-0.5,0-0.5,0-0.5,0c-0.3,0-0.3,0-0.3,0l0,0l0,0c-0.3,0-0.3,0-0.5,0.3c0,0,0,0-0.3,0s-0.5,0-0.8,0.3c-0.3,0-0.3,0.3-0.5,0.3
		s-0.5,0.3-0.8,0.3c-0.3,0.3-0.3,0.3-0.5,0.3c-0.3,0.3-0.5,0.3-0.5,0.3s0,0,0-0.5c0-0.3,0-0.3,0.3-0.5c0-0.3,0-0.5,0.3-0.8
		c0.3-0.8,0.8-1.3,1.3-1.8c0.3-0.3,0.5-0.3,0.5-0.3c0.5-0.3,0.5-0.3,0.5-0.3c0.3,0,0.3,0,0.3,0c0.5-0.3,0.5-0.3,0.5-0.3h0.3
		c0.5,0,0.5,0,0.5,0l0,0l0,0l0,0c0.3,0,0.3,0,0.3,0l0,0l0,0c0.3,0,0.3,0,0.3,0c0.3,0,0.3,0,0.3,0c0.3,0,0.5,0,0.8,0.3
		c0.3,0,0.5,0,0.5,0.3c0.3,0,0.5,0,0.8,0.3c0.5,0.5,1,1,1.3,1.8c0.3,0.3,0.3,0.5,0.3,0.8s0,0.3,0,0.5
		C62.8,105.5,62.8,105.8,62.8,105.8z"/>
	<path fill="#FFFFFF" d="M132.3,130.3c0,6-3.3,10.8-7,10.8c-4,0-7-4.8-7-10.8s3-10.8,7-10.8C129,119.5,132.3,124.3,132.3,130.3z"/>
	<path fill="#845E41" d="M129.8,130.3c0,5-2.5,9-5.8,9s-5.8-4-5.8-9s2.5-8.8,5.8-8.8S129.8,125.3,129.8,130.3z"/>
	<path fill="#211C1D" d="M128,130.3c0,3.5-1.8,6.3-4,6.3s-4-2.8-4-6.3s1.8-6.3,4-6.3S128,126.8,128,130.3z"/>
	<path fill="#FFFFFF" d="M127.5,127c0,1-0.5,1.8-1,1.8c-0.8,0-1.3-0.8-1.3-1.8s0.5-1.8,1.3-1.8C127,125.3,127.5,126,127.5,127z"/>
	<path fill="#2A2C5F" d="M128.3,105.8c0,0-0.3,0-0.5-0.3c0,0-0.3,0-0.5-0.3c-0.3,0-0.3-0.3-0.5-0.3s-0.5-0.3-0.8-0.3
		c-0.3-0.3-0.5-0.3-0.8-0.3s-0.5-0.3-0.8-0.3c0,0,0,0-0.3,0l0,0c-0.3,0-0.3,0-0.3,0l0,0l0,0l0,0l0,0l0,0c0,0-0.3,0,0,0
		c-0.5,0-0.5,0-0.5,0l0,0l0,0c-0.3,0-0.3,0-0.3,0s-0.3,0-0.3,0.3h-0.3c-0.3,0-0.5,0-0.8,0.3c-0.3,0-0.5,0.3-0.8,0.3
		s-0.5,0.3-0.5,0.3c-0.3,0.3-0.5,0.3-0.5,0.3c-0.3,0.3-0.5,0.3-0.5,0.3s0,0,0-0.5c0-0.3,0-0.3,0-0.5c0.3-0.3,0.3-0.5,0.3-0.8
		c0.3-0.8,0.8-1.3,1.5-1.8c0-0.3,0.3-0.3,0.5-0.3c0.3-0.3,0.3-0.3,0.3-0.3c0.5,0,0.5,0,0.5,0c0.3-0.3,0.3-0.3,0.3-0.3
		c0.3,0,0.3,0,0.3,0c0.5,0,0.5,0,0.5,0c0.3,0,0.3,0,0.3,0l0,0l0,0l0,0l0,0c0.3,0,0.3,0,0.3,0l0,0c0.5,0,0.5,0,0.5,0
		c0.3,0,0.3,0,0.5,0.3c0.3,0,0.5,0,0.8,0.3c0.3,0,0.3,0,0.5,0.3c0.8,0.5,1,1,1.3,1.8c0.3,0.3,0.3,0.5,0.5,0.8c0,0.3,0,0.3,0,0.5
		S128.3,105.8,128.3,105.8z"/>
	<path fill="#721327" d="M101.3,150.5c3.5,0.8,1,9.3-10,13.5C80,167,77.5,152,81,147.5c2.8-5.3,4.5,2.5,10.3,3.3
		C96.8,151.3,98.5,148,101.3,150.5z"/>
	<path fill="#FFFFFF" d="M100.5,150.3c-2.3-1.8-4.3,1-9.3,0.5c-5.3-0.8-7.3-7.3-9.5-4.5c1.8,4.3,5.3,7.3,9.5,7.5
		C95.3,154,98.8,151.8,100.5,150.3z"/>
	<path fill="#F46C98" d="M91.3,164c3.8-1,6.8-3.5,8.5-5.5c-2-0.5-5-0.5-8.5-0.3s-6.8,1.3-8.8,3.5C84.5,163.8,87.5,165,91.3,164z"/>
	<path fill="none" stroke="#F7AF9C" stroke-width="0.5" stroke-miterlimit="10" d="M101.3,150.5c3.3,1.8,1,9.3-10,13.5
		C80,167,77.5,152,81,147.5c2.8-5.3,4.5,2.5,10.3,3.3C96.8,151.3,98,149,101.3,150.5L101.3,150.5z"/>
	<path fill="#2A2C5F" d="M23.8,127c0,0,23.5-25,24.5-49C62.8,92.5,161,116.8,196,79.8c-11.5,1-23.3-3.8-24.5-27.3
		c-2.5-40.8-110-71.8-135.3-13C10.5,16.8,4.5,114.5,23.8,127z"/>
	<path fill="#384294" d="M123.3,20.3c0,4.5-13,8.3-29,8.3s-29-3.8-29-8.3s13-8.3,29-8.3S123.3,15.8,123.3,20.3z"/>
	<path fill="#2A2C5F" d="M159.5,127c0,0-20.5-36.3-21.5-60.3c-0.5-11,4-24.3,9-27.3C172.8,16.8,178.8,114.5,159.5,127z"/>
	<path fill="#384294" d="M48.3,67c0,0,2,1,5.5,2.5c3.3,1.3,8.3,3.3,14.5,5.3c3,1,6.3,2,9.8,3s7.3,2,11,2.8c2,0.5,4,0.8,6,1.3
		s4,0.8,6,1.3c4,0.5,8.3,1.3,12.5,1.8c3,0.3,3,0.3,3,0.3c1.3,0.3,2.3,0.3,3.3,0.3c2,0.3,4.3,0.5,6.3,0.5c4,0.3,8.3,0.5,12.3,0.5
		c2,0,3.8,0,5.8,0c1,0,2,0,2.8,0c1-0.3,2-0.3,2.8-0.3c3.8,0,7.3-0.3,10.3-0.5c1.8-0.3,3.3-0.3,4.8-0.5c1.3,0,2.8-0.3,4-0.5
		c1.3,0,2.5-0.3,3.8-0.3c1-0.3,2-0.3,3-0.5c1.8-0.3,3.3-0.3,4.3-0.5S181,83,181,83s-0.5,0.3-1.5,0.5c-0.8,0.5-2.3,1-4,1.5
		s-4,1.3-6.5,1.8c-2.5,0.8-5.5,1.5-8.8,2c-3.3,0.8-6.5,1.3-10.3,1.8c-1,0-2,0.3-2.8,0.3c-1,0.3-2,0.3-3,0.3c-2,0.3-4,0.5-6,0.5
		s-4,0.3-6.3,0.3c-2,0-4.3,0-6.3-0.3c-2.3,0-4.3,0-6.5-0.3c-1-0.3-2.3-0.3-3.3-0.3c-3.3-0.5-3.3-0.5-3.3-0.5c-8.8-1-17.3-2.8-25-5
		c-4-1-7.8-2.3-11.3-3.5c-3.5-1.5-6.8-2.8-9.5-4c-3-1.5-5.8-2.8-8-4s-4.3-2.5-6-3.5c-1.5-1-2.8-2-3.5-2.5S48.3,67,48.3,67z"/>
	<path fill="#384294" d="M47.3,59c0,0,1.8,0.5,4.8,1.5c1.5,0.5,3.5,1,5.5,1.8c2.3,0.5,4.5,1.3,7.3,2c2.5,0.8,5.5,1.3,8.5,2
		c1.5,0.3,3,0.8,4.5,1c1,0.3,1.8,0.3,2.5,0.5s1.8,0.3,2.5,0.5c1.8,0.3,3.3,0.5,5,0.8s3.5,0.5,5.3,0.8c3.5,0.8,7,1,10.5,1.5
		c1,0,2,0.3,2.8,0.3c2.8,0.3,2.8,0.3,2.8,0.3c1.8,0,3.5,0.3,5.3,0.3c3.5,0.3,7,0.3,10.5,0.5c1.8,0.3,3.3,0,5,0c1.5,0,3.3,0,4.8,0.3
		c3,0,6-0.3,8.8-0.3c1.3,0,2.5,0,3.8,0c0.8-0.3,1.3-0.3,2-0.3c0.5,0,1,0,1.5,0c2.3-0.3,4.3-0.3,5.8-0.3c1.8-0.3,3-0.3,3.8-0.3
		c1,0,1.5,0,1.5,0s-0.5,0-1.3,0.3c-1,0.3-2.3,0.8-3.8,1c-1.5,0.5-3.5,1-5.5,1.5c-0.8,0.3-1.3,0.3-1.8,0.5c-0.5,0-1.3,0-1.8,0.3
		c-1.3,0.3-2.5,0.5-4,0.8c-2.8,0.3-5.8,1-8.8,1c-1.8,0.3-3.3,0.3-5,0.5c-1.5,0.3-3.3,0.3-5,0.3s-3.5,0-5.3,0.3c-1.8,0-3.8,0-5.5-0.3
		c-1.8,0-3.8,0-5.5-0.3c-2.8-0.3-2.8-0.3-2.8-0.3c-1,0-1.8,0-2.8-0.3c-1.8-0.3-3.8-0.3-5.5-0.5s-3.8-0.8-5.5-1s-3.5-0.5-5.3-1
		s-3.5-0.8-5.3-1.3C80.8,73,80,73,79,72.8c-0.8-0.3-1.5-0.5-2.3-0.8c-1.8-0.5-3.3-1-4.8-1.5c-3-1-5.8-2-8.5-3C62.3,67,61,66.5,60,66
		c-1.3-0.8-2.3-1.3-3.3-1.5c-2-1-3.8-2-5.3-2.8c-1.3-0.8-2.5-1.5-3.3-2C47.8,59.3,47.3,59,47.3,59z"/>
	<path fill="#384294" d="M45.8,53.5c0,0,1.8,0.3,4.8,0.5c3.3,0,7.5,0.5,13,0.8c5.3,0.5,11.3,1,17.8,1.5c6.8,0.5,13.8,1,20.5,1.3
		c1.8,0,3.5,0.3,5.3,0.3s3.5,0,5.3,0.3c3.5,0,6.8,0,10-0.3c0.8,0,1.8,0,2.5,0s1.5,0,2.3,0c0.8-0.3,1.8-0.3,2.5-0.3s1.5,0,2.3-0.3
		c1.5,0,2.8-0.3,4.3-0.3c1.3-0.3,2.8-0.5,4-0.8c1.3,0,2.5-0.5,3.5-0.8c1.3,0,2.3-0.5,3.3-0.8s2-0.8,2.8-1c0.5,0,1-0.3,1.3-0.5
		c0.5,0,0.8-0.3,1.3-0.5s1.3-0.5,1.8-0.8c0.5-0.5,1-0.8,1.3-1c0.8-0.3,1-0.5,1-0.5s-0.3,0.3-0.8,0.8c-0.3,0.5-0.8,0.8-1,1.3
		c-0.5,0.5-1,0.8-1.8,1.3c-0.3,0.3-0.8,0.5-1,0.8s-0.8,0.5-1.3,0.8c-0.8,0.5-1.5,1.3-2.5,1.5c-2,1-4.5,2-7,3c-1.3,0.3-2.8,0.8-4,1
		c-1.5,0.5-3,0.8-4.5,1c-0.8,0.3-1.5,0.3-2.3,0.5c-0.8,0-1.8,0.3-2.5,0.3c-1.5,0.3-3.3,0.5-5,0.5c-1.5,0.3-3.3,0.3-5,0.5
		c-1.8,0-3.5,0-5.3,0.3c-1.8,0-3.5,0-5.3,0c-1.8-0.3-3.5-0.3-5.5-0.3c-3.5-0.3-7-0.5-10.5-0.8c-1.8-0.3-3.5-0.3-5.3-0.5
		s-3.3-0.5-5-0.8c-6.5-1-12.8-2-18-3.3c-5-1.3-9.3-2.3-12.3-3.3c-1.5-0.5-2.8-0.8-3.5-1S45.8,53.5,45.8,53.5z"/>
	<path fill="none" stroke="#8F1A1F" stroke-width="1.5" stroke-miterlimit="10" d="M78.8,127.3C78.8,138,69,150,57.3,150
		c-12,0-21.8-12-21.8-22.8s9.8-17.8,21.8-17.8C69,109.5,78.8,116.5,78.8,127.3L78.8,127.3z"/>
	<path fill="none" stroke="#8F1A1F" stroke-width="1.5" stroke-miterlimit="10" d="M146.8,127.3c0,10.8-9.8,22.8-21.5,22.8
		c-12,0-21.8-12-21.8-22.8s9.8-17.8,21.8-17.8C137,109.5,146.8,116.5,146.8,127.3L146.8,127.3z"/>
	<path fill="#8F1A1F" d="M78,132.3c0,0,0-0.3-0.3-0.5c0-0.5-0.3-0.8-0.3-1.5c0-0.3,0-0.5,0-1c0-0.3,0.3-0.8,0.3-1.3
		c0-0.8,0.3-1.8,0.5-2.8c0.3-0.5,0.5-1,0.8-1.5s0.8-1,1-1.5c0.8-1.3,1.8-2,2.8-3c1.3-0.8,2.5-1.5,4-2c1.3-0.5,3-0.8,4.5-0.8
		c1,0,1,0,1,0c0.3,0,0.8,0.3,1,0.3c1,0,1.8,0.3,2.5,0.5c1.3,0.5,2.5,1.3,3.8,2c1,1,2,1.8,2.8,3c0.5,0.5,0.8,1,1,1.5s0.5,1,0.8,1.5
		c0.3,1,0.5,2,0.8,2.8c0,0.5,0,1,0,1.3c0,0.5,0,0.8,0,1c0,0.8-0.3,1-0.3,1.5c0,0.3,0,0.5,0,0.5s-0.3-0.3-0.3-0.5
		c0-0.5-0.3-0.8-0.5-1.3c0-0.3,0-0.8-0.3-1c0-0.3-0.3-0.5-0.5-1c-0.3-0.8-0.8-1.3-1.3-2s-1.3-1.5-2-2.3c-0.5-0.8-1.5-1.3-2.3-1.8
		c-1-0.5-2-1-3-1.3c-0.5-0.3-1.3-0.3-1.8-0.3c-0.3-0.3-0.3-0.3-0.8-0.3c-0.8,0-0.8,0-0.8,0c-1.3,0-2.3,0.3-3.3,0.5
		c-1.3,0.3-2.3,0.8-3,1.3c-1,0.5-1.8,1-2.5,1.8s-1.5,1.5-2,2.3s-1,1.3-1.3,2c-0.3,0.5-0.3,0.8-0.5,1c0,0.3-0.3,0.5-0.3,1
		c-0.3,0.5-0.3,1-0.5,1.3C78,132,78,132.3,78,132.3z"/>
	
		<line fill="none" stroke="#8F1A1F" stroke-width="1.5" stroke-linecap="round" stroke-miterlimit="10" x1="36" y1="124" x2="12.3" y2="104"/>
	
		<line fill="none" stroke="#8F1A1F" stroke-width="1.5" stroke-linecap="round" stroke-miterlimit="10" x1="146.5" y1="124" x2="170" y2="104"/>
	<path fill="#FFFFFF" d="M57.3,116.5c-5,0-12.3,0.8-15.5,5c3.5-3,9.8-3.5,14-3.5c6.5,0,17.3,1.3,17.3,10.8c0,4.3-2,8.8-5.3,12.5
		c4.3-3.8,6.8-9.3,6.8-14C74.5,118,63.8,116.5,57.3,116.5z"/>
	<path fill="#FFFFFF" d="M125.3,116.5c-5,0-12.3,0.8-15.5,5c3.8-3,9.8-3.5,14-3.5c6.5,0,17.5,1.3,17.5,10.8c0,4.3-2.3,8.8-5.5,12.5
		c4.3-3.8,6.8-9.3,6.8-14C142.5,118,131.8,116.5,125.3,116.5z"/>
</g>
</svg>
