<?xml version="1.0" encoding="utf-8"?>
<!-- Generator: Adobe Illustrator 16.0.0, SVG Export Plug-In . SVG Version: 6.00 Build 0)  -->
<!DOCTYPE svg PUBLIC "-//W3C//DTD SVG 1.1//EN" "http://www.w3.org/Graphics/SVG/1.1/DTD/svg11.dtd">
<svg version="1.1" id="Layer_1" xmlns="http://www.w3.org/2000/svg" xmlns:xlink="http://www.w3.org/1999/xlink" x="0px" y="0px"
	 width="398px" height="331px" viewBox="0 0 398 331" enable-background="new 0 0 398 331" xml:space="preserve">
<g>
	<path fill="#7B6E65" d="M307.8,135.7c13-14.5,17.8,26.5,19,31c5,21,21.5,8.3,23-7c1,0,2-0.5,2.8-1c3,5.3-5,21-7.8,27
		c-5,10.8-10.3,14.3-19.3,5.3c-14.8-15,0.8-41-15.8-54.2C307.8,135.7,307.8,135.7,307.8,135.7z"/>
	<path fill="#351C16" d="M57.5,69.2c7.8-1,19-8.8,17.5-17.8c-1-6.8-10.3-8.5-14.8-12.8c-6.5-6.5-7.8-15.5-7.3-24
		c0.8-17.5-13.8-13-20-1.5C23.5,30.7,30.8,72.7,57.5,69.2z"/>
	<path fill="#351C16" d="M131.5,75.7c-6.5-3.3-13-13.8-7.3-21.5c4.5-6.3,14-4.8,20.3-7.5c9.5-4,15-12,19.3-20
		c8.3-16.3,19.3-8,19,4.5C182.5,50.2,154.5,86.7,131.5,75.7z"/>
	<path fill="#7B6E65" d="M257.3,293.9c-4.5,5.5-13.3,5-19.5,4.3c-18.3-1.5-24.8-12-22.8-29c0-1.5,0.3-3,0.5-4.5
		c2.3-11.8,4.3-24,8-35.5c2.5-8,4.5-26.3,10.8-31c11.3-1.5,11.3-1.5,11.3-1.5c20.8-5.8,6.5,34,5.3,43c-1,7.8,3.5,18.8,6.5,29.3
		C260.3,278.9,262,288.2,257.3,293.9z"/>
	<path fill="#100F0D" d="M257.3,293.9c-4.5,5.5-13.3,5-19.5,4.3c-18.3-1.5-24.8-12-22.8-29c9.5,7.8,29.8,4.5,42.3-0.3
		C260.3,278.9,262,288.2,257.3,293.9z"/>
	<path fill="#7B6E65" d="M71.3,293.9c2.3,6.5,11,9,17,10.5c17.8,4.8,27.3-3.3,31.3-19.8c0.3-1.3,0.5-2.8,0.8-4.3
		c2-12,4.3-24.3,4.5-36.3c0.3-8.3,4.5-26.3,0.3-33c-9.8-5-9.8-5-9.8-5c-18-12.3-17.8,29.8-19.8,38.5c-1.5,7.8-9.5,16.8-16,25.5
		C73.5,278.7,68.8,286.7,71.3,293.9z"/>
	<path fill="#100F0D" d="M71.3,293.9c2.3,6.5,11,9,17,10.5c17.8,4.8,27.3-3.3,31.3-19.8c-11.5,4-29.5-5.8-40-14.5
		C73.5,278.7,68.8,286.7,71.3,293.9z"/>
	<path fill="#D5AD93" d="M236,225.4c-21.5,4-40.3,18.5-37,36.8c1.5,8,4.3,17.8,17,16.3c-4.8,0.5,1,18.5,3.3,20.3
		c13.3,10.3,5.3-18.3,11-18.8c7.3-0.5,10.8-2.8,16.8-6.5c-0.8,5.3,2.8,20.8,9.3,22.5c5.5-4.5,4-21,5.8-25.8c2.3-5.3,5.5-1.5,9.3-7
		c6.8-9.8,6.3-20.3-0.3-28.8C263.8,224.7,250.5,222.4,236,225.4z"/>
	<path fill="#A09082" d="M322,173.9c-0.3,25-11.5,48.5-28.8,66.3c-11.5,11.5-25.5,20.8-40.8,26.5c-33.8,13-76.3,11.5-109.5-2.3
		c-19.8-8.3-39-21-46.5-41.8c-1.5-4-2.3-8.5-2.8-13.3c-1.3-16.3,3-35.3,8-48.2c0,0,36.8-109,39.8-117.8c-7.8,24,10.3,36.3,31.3,41.8
		c14.5,4,31.5,5.5,49,7.5c32.5,3.5,66.5,8.3,87.3,30.5c6,6.5,9.3,15,11,24.3C321.8,156.4,322,165.9,322,173.9z"/>
	<path fill="#A09082" d="M191.5,320.2c-3.8,6-12.8,6.5-19,7c-18.3,0.8-26-9-26.3-26c-0.3-1.5,0-3,0-4.5c0.5-12,1-24.3,3-36.3
		c1.5-8.3,1.3-26.5,6.8-32.3c10.8-3,10.8-3,10.8-3c20-8.3,11,33,11,42c0,7.8,6,18.3,10.5,28.3C192.3,304.7,195.3,313.9,191.5,320.2z
		"/>
	<path fill="#100F0D" d="M191.5,320.2c-3.8,6-12.8,6.5-19,7c-18.3,0.8-26-9-26.3-26c10.3,6.5,30,0.5,42-5.8
		C192.3,304.7,195.3,313.9,191.5,320.2z"/>
	<path fill="#A09082" d="M313,304.7c-4.3,6.3-13.3,6-19.5,5.8c-18.3-1-24.8-12.5-23.3-31.5c0-1.5,0.3-3.3,0.5-5
		c1.8-13.3,3.8-27,7.3-40c2.3-9,4-29.5,10-35.3c11-2.3,11-2.3,11-2.3c21-7.3,7.3,37.5,6.5,47.8c-0.8,8.8,3.8,20.8,7,32.5
		C315.8,287.4,317.8,297.9,313,304.7z"/>
	<path fill="#100F0D" d="M313,304.7c-4.3,6.3-13.3,6-19.5,5.8c-18.3-1-24.8-12.5-23.3-31.5c9.5,8,29.8,3.5,42.3-2.3
		C315.8,287.4,317.8,297.9,313,304.7z"/>
	<path fill="#7B6E65" d="M143.5,174.7c-10.8,16.8-26,30.3-46,34c-1.3,0.3-2.5,0.5-3.8,0.8c-1.3-16.3,3-35.3,8-48.2
		c40-118.3,40-118.3,40-118.3c-3.3,10,5.8,23.3,7.5,33c1.8,9.3,2.3,18.8,5.5,27.5c0,0.3,0,0.8,0.3,1c0.3,8,1.5,16.3,1.8,24.5
		C157.8,145.7,152.3,160.9,143.5,174.7z"/>
	<path fill="#A09082" d="M193.3,84.2c-6.3,1.3-12,4.5-18.3,6.5c-8.8,2.8-21,4-30,1.5c-2.8-0.8-7-1.8-9.3-3.8c-1-1-1.5-1.8-1.8-3
		c-0.5-3,2-8.8,3.5-11.3c3.5-7,7.5-13,17-12.5c6.8,0.3,13.5,3,19.5,5.8c8.5,3.5,16,8.5,19.3,16.5V84.2z"/>
	<path fill="#252322" d="M193.3,84.2c-6.3,1.3-12,4.5-18.3,6.5c-8.8,2.8-21,4-30,1.5c-2.8-0.8-7-1.8-9.3-3.8c1.3-1,2.5-1.8,3.5-2.5
		c7.8-6,20.3-8,30.3-7c7,0.5,16.8,1.5,23.8,5V84.2z"/>
	<path fill="#A09082" d="M4,60.2c5.3,3.5,9,8.8,13.8,13c6.5,5.8,17,11.5,26.3,12.5c3,0.5,7,1.3,10.3,0.3c1.3-0.3,2.3-1,2.8-2
		c2-2.5,2.5-8.8,2.5-11.5c0-7.8-0.8-14.5-9.5-17.8c-6.3-2.5-13.8-2.3-20.5-2.3c-9.3,0-18.5,1.8-25.3,7.5C4.3,59.9,4.3,60.2,4,60.2z"
		/>
	<path fill="#252322" d="M4,60.2c5.3,3.5,9,8.8,13.8,13c6.5,5.8,17,11.5,26.3,12.5c3,0.5,7,1.3,10.3,0.3c-0.8-1.3-1.5-2.5-2-3.5
		c-4.3-8.5-14.5-15-24-18c-6.8-2-16-5-24-4.5C4.3,59.9,4.3,60.2,4,60.2z"/>
	<path fill="#A09082" d="M38.8,135.9c0.3-9.8-0.8-19.5-0.3-29.3c0.3-11.8,1.3-23.3,1.3-35c0-1.3,0.3-2.5,0.8-3.5
		c2.8-3,6-6.3,9.8-9.3c1.3-1,2.5-2,3.8-2.8c15-14.3,36.5-17.3,56-9.5c1.5,0.3,3,0.8,4.5,1.3s2.8,1,4.3,1.5c1.5,0.8,2.8,1.3,4,2
		c1.5,0.5,2.8,1.3,3.8,2c1.8,0.8,3.5,1.3,5.3,2.3c1.5,0.8,3,1.5,5,2.3c1.8,0,3.5,0.3,5,0.5c7.3,1,12.3,7.3,10.3,13.8
		c-2,7,0,13.5-0.8,20.5c-0.3,1.5-0.5,3.3-0.8,4.8c-0.5,4.8-1,9.3-2,14.3c-0.5,1.3-1,2.8-1.3,4.5c-4.3,15.3-7.5,36.8-16.8,50.5
		C38.8,135.9,38.8,135.9,38.8,135.9z"/>
	<path fill="#D5AD93" d="M140.8,147.7c0-2.3,0-4.5-0.5-7c-4.3-26.3-40.3-38.8-65.8-35.3s-46.3,13-42.3,39
		c3.8,22.2,30,32.5,51.8,36.7C109,185.9,139.5,172.2,140.8,147.7z"/>
	<path fill="#FFFFFF" d="M129.5,109.2c11.8,0.8,18.8-11.3,15.8-20.5c-3.5-10.8-22-11.5-28.8-3.3c-5,6.5-4.3,14.8,2.8,19.8
		C122.8,107.9,126.3,108.9,129.5,109.2z"/>
	<path fill="#100F0D" d="M133.8,86.9c-4-6.8-15.3-5-16.5,2.8c-1,7,8.5,12,14.3,6.8C134.5,93.9,136,90.4,133.8,86.9z"/>
	<path fill="#FFFFFF" d="M126.3,87.2c0.3-2.5-3.5-4.3-5.5-2.3c-1.5,1.8-1.3,4.3,1.3,4.8C124,89.9,126,89.2,126.3,87.2z"/>
	<path fill="#FFFFFF" d="M65.8,100.9c11.5-2.5,14.5-15.5,8.8-23.8c-7-9.3-24.8-5.5-28.5,4.3c-3,7.3,0.5,15.3,8.8,18.3
		C58.8,101.2,62.5,101.4,65.8,100.9z"/>
	<path fill="#100F0D" d="M63,78.4c-6.3-5.5-16.5-1-15,6.8c1.3,7,12,9.3,15.8,3C65.8,84.9,66,81.2,63,78.4z"/>
	<path fill="#FFFFFF" d="M55.8,80.4c-0.5-2.5-4.8-3-6-0.5c-1,1.8,0.3,4.3,2.8,4C54.5,83.7,56.3,82.4,55.8,80.4z"/>
	<path fill="#582516" d="M93.3,27.4C80.5,17.2,56.5,38.2,71,40.9c-22.8-2.3-14.8,28.5,7.3,16.3c1.8,11.8,17.5,14.5,24,4.5
		c0.3,8.5,15.8,11.3,17,2c1,19.3,42-1.5,16.5-11.3c15.5-6.8,3.5-22.8-11.5-15.5c1.5-8.5-2.3-11.5-11-13c-4.3-0.8-20.8,0.8-18,3.5
		C93.3,27.4,93.3,27.4,93.3,27.4z"/>
	<path fill="#252322" d="M106.8,150.9c4.5,2.5,12,4.3,16.3,1.5c6.3-4,3.5-9.5-2.3-12.5c-5.3-2.5-12.5-0.8-16,3.8
		C102.3,147.2,103.8,149.4,106.8,150.9z"/>
	<path fill="#252322" d="M49.8,150.9c4.5,2.5,12,4.3,16.3,1.5c6-4,3.5-9.5-2.3-12.5c-5.5-2.5-12.5-0.8-16,3.8
		C45.3,147.2,46.8,149.4,49.8,150.9z"/>
	<path fill="#582516" d="M214.5,174.4c-2.5,10-11.8,4.5-5,18.5c3.5,7.5,8,12.5-1.8,19.5c-6.5,4.5-15,3.5-22,1.3
		c-9.3-3-13-12.5-21-14.8c-8-2.5-16.5,7.5-22.8,3.5c-7.5-4.8-1-16.5,3.8-20.8c7-6.8,14.5-3.5,22-7.8c6-3.8,5.8-13.2,12.5-16
		C187,155.4,217,164.4,214.5,174.4z"/>
	<path fill="#582516" d="M320,147.4c-4,5-9.3,8.8-16.3,8.3c-10-0.8-11-10.3-19-12c-11-2.8-12.5,8.8-20,12c-9,3.8-18.3-2.5-18.8-10.8
		c-0.5-7.8,7.3-14.3,5.5-22.3c-2.5-10.3-12-9-19.8-11.8c-10.8-4-15.3-11.3-10-18.3c32.5,3.5,66.5,8.3,87.3,30.5
		C315,129.7,318.3,138.2,320,147.4z"/>
	<path fill="#582516" d="M393.5,141.7c-4.3,12-5.8,30.7-21.8,32.7c-10.8,1.5-25.8-7.3-26-18.7c-0.3-7.8,2.8-15.5,10-19.3
		C372.8,127.2,378,148.7,393.5,141.7z"/>
	<path fill="#582516" d="M258.3,186.7c-9.3,4.8-0.3,8.5-0.8,13.3c-1,6.3-9.5,6.5-8.5,12.3c1.8,10.5,11.8,3.3,15,2.5
		c8.8-2.3,24.8,5.8,26.3-10.8c1-10-5-7.5-12-9C271.8,193.4,264,183.9,258.3,186.7z"/>
</g>
</svg>
