<?xml version="1.0" encoding="utf-8"?>
<!-- Generator: Adobe Illustrator 16.0.0, SVG Export Plug-In . SVG Version: 6.00 Build 0)  -->
<!DOCTYPE svg PUBLIC "-//W3C//DTD SVG 1.1//EN" "http://www.w3.org/Graphics/SVG/1.1/DTD/svg11.dtd">
<svg version="1.1" id="Layer_1" xmlns="http://www.w3.org/2000/svg" xmlns:xlink="http://www.w3.org/1999/xlink" x="0px" y="0px"
	 width="240px" height="134px" viewBox="0 0 240 134" enable-background="new 0 0 240 134" xml:space="preserve">
<g>
	<path fill="#FFD200" d="M126.1,101.4c0,0-8.3,16.2-5.3,19c2.9,2.5,10.2,3.8,14.7,1.2c2.3-1.5,6.2-17.4,6.2-17.4
		S132.9,98.1,126.1,101.4z"/>
	<path fill="#FFE363" d="M129,123.1c-0.2,0-0.5,0-0.6,0l0,0C128.5,123.1,128.8,123.1,129,123.1L129,123.1z M123.7,122.1
		c0-0.2-0.2-0.2-0.3-0.2l0,0C123.6,121.9,123.7,121.9,123.7,122.1L123.7,122.1z M135.3,121.6h0.2H135.3z"/>
	<path fill="#FFBB00" d="M129,123.1c-0.2,0-0.5,0-0.6,0c0.3-0.2,0.8-0.5,0.8-1.5c0,0,0-0.2,0-0.3l0,0c0-0.2,0-0.2,0-0.3
		c-0.2-0.3-0.2-0.7-0.3-0.8c0.5-0.2,0.8-0.3,1.2-0.3c-0.6,0.8-0.8,2-1.1,2.8C129,122.7,129,122.9,129,123.1z M134.7,122.1
		c0-0.2-0.2-0.5-0.2-0.7l0,0c0-0.3-0.2-0.5-0.3-0.7c-0.3-1-1.1-1.8-2.2-2c1.5-0.8,3.4-6.9,4.6-11.6c1.5-0.3,2.9-0.7,4.3-1
		c-1.1,4.5-3.7,14.2-5.6,15.4l0,0l0,0h-0.2C135.2,121.7,134.9,121.9,134.7,122.1z M123.7,122.1c0-0.2-0.2-0.2-0.3-0.2
		c0-0.2,0.2-0.2,0.3-0.2c0,0,0,0,0.2,0l0,0C123.9,121.9,123.9,121.9,123.7,122.1z"/>
	<path fill="#E6E7E8" d="M123.7,121.7c0,0,1.2,0,0.9-1.8c-0.2-1.7-1.2-3.1-2.8-2.8c-1.5,0.3-1.9,2.1-2.5,3.3
		C119,121.7,120.7,122.9,123.7,121.7z"/>
	<path fill="#D6B000" d="M124.7,119.7c0-0.2,0-0.2,0-0.3C124.7,119.6,124.7,119.6,124.7,119.7L124.7,119.7z"/>
	<path fill="#C1C2C4" d="M121.4,122.2c-1.2,0-2-0.7-2-1.3c0-0.2,0-0.3,0-0.5c0.2-0.2,0.2-0.3,0.2-0.3c0.3,0.8,1.4,1.2,2.5,1.2
		c1.1,0,2-0.3,2.2-0.7c0.3-0.5,0.3-1.5,0.3-1.5c0.2,0.2,0.2,0.2,0.2,0.3s0,0.2,0,0.3c-0.3,0.7-0.5,1.3-0.8,2c-0.2,0-0.2,0-0.2,0
		c-0.2,0-0.3,0-0.3,0.2l0,0C122.7,122.1,122,122.2,121.4,122.2z"/>
	<path fill="#FFFFFF" d="M122.5,118.4c-0.5-0.2-0.8-0.3-0.8-0.7c0.2-0.2,0.5-0.3,0.9-0.3c0.3,0,0.6,0.3,0.6,0.5
		C123.3,118.3,122.8,118.4,122.5,118.4z"/>
	<path fill="#E6E7E8" d="M128.1,123.1c0,0,1.4,0,1.1-1.8c-0.2-1.7-1.2-3-2.8-2.8c-1.5,0.3-2,2.1-2.5,3.3
		C123.3,123.1,125.1,124.2,128.1,123.1z"/>
	<path fill="#D69D00" d="M128.4,123.1L128.4,123.1c0.3-0.2,0.8-0.5,0.8-1.5C129.2,122.6,128.7,122.9,128.4,123.1z M129.2,121.2
		c0-0.2,0-0.2,0-0.3C129.2,121.1,129.2,121.1,129.2,121.2z"/>
	<path fill="#C1C2C4" d="M125.9,123.5c-1.4,0-2.2-0.7-2.2-1.3c0-0.2,0.2-0.3,0.2-0.5s0.2-0.2,0.2-0.3c0.3,0.8,1.4,1.2,2.5,1.2
		c0.9,0,2-0.3,2.2-0.5c0.3-0.7,0.3-1.7,0.3-1.7c0,0.2,0.2,0.3,0.2,0.5c0,0.2,0,0.2,0,0.3l0,0c0,0.2,0,0.3,0,0.3c0,1-0.5,1.3-0.8,1.5
		l0,0c-0.2,0-0.3,0-0.3,0C127.3,123.4,126.5,123.5,125.9,123.5z"/>
	<path fill="#FFFFFF" d="M126.8,119.7c-0.5,0-0.6-0.3-0.6-0.7c0-0.2,0.5-0.3,0.8-0.3c0.5,0.2,0.8,0.3,0.6,0.7
		C127.6,119.6,127.3,119.7,126.8,119.7z"/>
	<path fill="#E6E7E8" d="M133.6,123.5c0,0,1.4-0.3,0.9-2.1c-0.5-1.7-1.7-3-3.4-2.5c-1.5,0.5-1.7,2.3-2.2,3.6
		C128.5,124,130.5,125.2,133.6,123.5z"/>
	<path fill="#D69D00" d="M134.6,121.4c0-0.3-0.2-0.5-0.3-0.7C134.4,120.9,134.6,121.1,134.6,121.4z"/>
	<path fill="#C1C2C4" d="M130.9,124.4c-1.2,0-1.9-0.7-1.9-1.3c0-0.2,0-0.3,0-0.5c0.2,0,0.2-0.2,0.2-0.3c0.3,0.7,1.2,1,2,1
		c1.4,0,2.8-0.7,2.9-1c0.2-0.7,0.2-1.7,0.2-1.7s0,0,0,0.2c0.2,0.2,0.3,0.3,0.3,0.7l0,0c0,0.2,0.2,0.5,0.2,0.7c0,1.2-1.1,1.5-1.1,1.5
		C132.6,124,131.6,124.4,130.9,124.4z"/>
	<path fill="#FFFFFF" d="M131.9,120.1c-0.5,0-0.8-0.2-0.8-0.5c0-0.3,0.5-0.5,0.9-0.5c0.3,0,0.6,0.2,0.6,0.5
		C132.7,119.9,132.4,120.1,131.9,120.1z"/>
	<path fill="#FFD200" d="M70.1,101.7c0,0-8.2,16.2-5.1,19c2.8,2.5,10,4,14.5,1.2c2.5-1.3,6.2-17.4,6.2-17.4S76.9,98.4,70.1,101.7z"
		/>
	<path fill="#FFE363" d="M73,123.4c-0.6,0-1.1,0-1.5-0.2l0,0C72,123.4,72.4,123.4,73,123.4L73,123.4z M67.8,122.2
		c-0.3,0-0.6-0.2-0.8-0.3l0,0C67.2,122.1,67.5,122.2,67.8,122.2L67.8,122.2z"/>
	<path fill="#FFBB00" d="M73,123.4c-0.6,0-1.1,0-1.5-0.2c0.2,0,0.3,0,0.6-0.2c0,0,1.1,0,1.1-1.5c0,0,0-0.2-0.2-0.3l0,0
		c0-0.2,0-0.2,0-0.3c0-0.2,0-0.3-0.2-0.5c0.3-0.2,0.6-0.2,0.9-0.2c-0.5,0.7-0.6,1.7-0.8,2.3c-0.2,0.2-0.2,0.3-0.2,0.5
		S72.9,123.2,73,123.4z M78.6,122.4c0,0,0-0.2,0-0.3c0-0.2,0-0.5-0.2-0.7l0,0c0-0.3-0.2-0.5-0.2-0.7c-0.5-0.8-0.9-1.7-1.7-1.8
		c1.2-1.3,2.8-6.1,4-10.2c0.2,0,0.2,0.2,0.3,0.2c1.7,0.3,2.8,0.5,3.6,0.7c-1.4,4.8-3.4,11.6-4.9,12.4l0,0
		C79.2,122.2,78.9,122.4,78.6,122.4z M67.8,122.2c-0.3,0-0.6-0.2-0.8-0.3c0.2,0,0.3,0,0.6-0.2c0,0,0.2,0,0.3,0c-0.2,0-0.2,0-0.2,0
		C67.8,121.9,67.8,122.1,67.8,122.2L67.8,122.2z"/>
	<path fill="#E6E7E8" d="M67.6,121.7c0,0,1.2,0,1.1-1.8c-0.2-1.7-1.4-3.1-2.9-2.8c-1.5,0.3-1.9,2.1-2.3,3.3
		C62.8,121.7,64.7,122.9,67.6,121.7z"/>
	<path fill="#D6B000" d="M68.7,119.7c0-0.2,0-0.2-0.2-0.3C68.7,119.6,68.7,119.6,68.7,119.7L68.7,119.7z"/>
	<path fill="#C1C2C4" d="M65.3,122.2c-1.2,0-2-0.7-2-1.3c0-0.2,0-0.3,0.2-0.5c0-0.2,0-0.3,0.2-0.3c0.3,0.8,1.4,1.2,2.3,1.2
		c1.1,0,2.2-0.3,2.3-0.7c0.2-0.5,0.3-1.5,0.3-1.5c0,0.2,0,0.2,0,0.3c0.2,0.2,0.2,0.2,0.2,0.3c-0.3,0.7-0.6,1.3-0.8,2
		c-0.2,0-0.3,0-0.3,0c-0.3,0.2-0.5,0.2-0.6,0.2l0,0C66.4,122.1,65.8,122.2,65.3,122.2z"/>
	<path fill="#FFFFFF" d="M66.4,118.4c-0.5-0.2-0.8-0.3-0.6-0.7c0-0.2,0.5-0.3,0.8-0.3c0.5,0,0.8,0.3,0.6,0.5
		C67.2,118.3,66.9,118.4,66.4,118.4z"/>
	<path fill="#E6E7E8" d="M72.1,123.1c0,0,1.2,0,0.9-1.8c-0.2-1.7-1.2-3-2.8-2.8c-1.5,0.3-1.9,2.1-2.5,3.3
		C67.3,123.1,69,124.2,72.1,123.1z"/>
	<path fill="#D69D00" d="M71.5,123.2L71.5,123.2c0.2,0,0.3,0,0.6-0.2c0,0,1.1,0,1.1-1.5c0,1.5-1.1,1.5-1.1,1.5
		C71.8,123.2,71.7,123.2,71.5,123.2z M73,121.2c0-0.2,0-0.2,0-0.3C73,121.1,73,121.1,73,121.2z"/>
	<path fill="#C1C2C4" d="M69.8,123.5c-1.2,0-2-0.7-2-1.3c0-0.2,0-0.3,0-0.5c0.2-0.2,0.2-0.2,0.2-0.3c0.3,0.8,1.4,1.2,2.5,1.2
		c1.1,0,2-0.3,2.2-0.5c0.3-0.7,0.3-1.7,0.3-1.7c0.2,0.2,0.2,0.3,0.2,0.5c0,0.2,0,0.2,0,0.3l0,0c0.2,0.2,0.2,0.3,0.2,0.3
		c0,1.5-1.1,1.5-1.1,1.5c-0.3,0.2-0.5,0.2-0.6,0.2l0,0C70.9,123.5,70.3,123.5,69.8,123.5z"/>
	<path fill="#FFFFFF" d="M70.7,119.7c-0.3,0-0.6-0.3-0.6-0.7c0.2-0.2,0.5-0.3,0.9-0.3c0.3,0.2,0.6,0.3,0.6,0.7
		C71.7,119.6,71.2,119.7,70.7,119.7z"/>
	<path fill="#E6E7E8" d="M77.5,123.5c0,0,1.4-0.3,0.9-2.1c-0.3-1.7-1.7-3-3.2-2.5c-1.7,0.5-1.9,2.3-2.2,3.6
		C72.6,124,74.6,125.2,77.5,123.5z"/>
	<path fill="#D69D00" d="M78.5,121.4c0-0.3-0.2-0.5-0.2-0.7C78.3,120.9,78.5,121.1,78.5,121.4z"/>
	<path fill="#C1C2C4" d="M74.7,124.4c-1.1,0-1.9-0.7-1.9-1.3c0-0.2,0-0.3,0.2-0.5c0,0,0-0.2,0-0.3c0.5,0.7,1.2,1,2.2,1
		c1.2,0,2.8-0.7,2.8-1c0.3-0.7,0.3-1.7,0.2-1.7c0.2,0,0.2,0,0.2,0.2s0.2,0.3,0.2,0.7l0,0c0.2,0.2,0.2,0.5,0.2,0.7
		c0,1.2-1.1,1.5-1.1,1.5C76.4,124,75.5,124.4,74.7,124.4z"/>
	<path fill="#FFFFFF" d="M75.8,120.1c-0.5,0-0.8-0.2-0.6-0.5c0-0.3,0.3-0.5,0.8-0.5c0.5,0,0.8,0.2,0.8,0.5
		C76.8,119.9,76.3,120.1,75.8,120.1z"/>
	<path fill="#B15C12" d="M110,8.8c0,0-18.9,14.7-16.5,21c2.2,5.5,6,8.4,6.8,9.1c0.3,0.3,2.2-0.2,4.8-0.7c3.4-0.7,8.2-1.3,13.1-0.2
		c0,0,6.8-8.1,3.7-12.7C118.5,20.2,114.3,5.2,110,8.8z"/>
	<path fill="#A14A0D" d="M102.9,33c-0.2-1-0.2-2-0.5-2.8c1.1,0.8,2.2,1.5,3.2,2C104.7,32.5,103.8,32.6,102.9,33z M100.1,25.2
		c-0.2-0.2-0.5-0.2-0.6-0.3c-1.1-0.5-2.2-1.5-3.4-2.3c2.6-3.6,6.6-7.4,9.7-10.1C105.5,12.6,100.1,20.1,100.1,25.2z"/>
	<path fill="#D18316" d="M113.1,14.1c0,0,4.9,9.4,6,11.1c0.9,1.7-0.5,3.3-1.1,3.1c-0.8-0.2-7.3-9.8-6.2-11.9
		C113.1,14.1,112.3,12.8,113.1,14.1z"/>
	<path fill="#B15C12" d="M161.1,15.6c0,0-22.1,6.6-21.9,13.4c0,6.1,2.5,10.2,3.1,11.4c0.5,1,9.3,0.7,16.5,5.8c0,0,9-5,7.7-10.4
		C165.2,29.5,166.4,13.8,161.1,15.6z"/>
	<path fill="#A14A0D" d="M147.5,33.3c-0.3-0.2-0.6-0.2-0.9-0.3c0.2-0.3,0.3-0.5,0.3-0.8C147.1,32.5,147.2,32.8,147.5,33.3z
		 M147.4,25.9c-0.2-0.3-0.3-0.7-0.5-1c-0.3-1-0.6-2-0.9-3c3.2-1.8,7.1-3.5,10.2-4.6C155.9,17.4,149.9,21.6,147.4,25.9z"/>
	<path fill="#D18316" d="M162.2,21.7c0,0,1.4,10.7,1.7,12.7c0.3,2-1.4,3-2,2.6c-0.6-0.5-3.2-12.1-1.4-13.7
		C162.2,21.7,162.1,20.1,162.2,21.7z"/>
	<path fill="#FFE14F" d="M85.4,109.5c0,0-3.7,15.2-2.3,16.7c1.4,1.5,16.1,2.3,21.2,1.7c5.1-0.7,3.2-14.9,3.2-18.7
		c0,0,23.8,0.8,37.2-4.1c0,0-0.8,12.2,0.3,16c1.2,3.8,27,8.8,28.4-0.3c2.2-16-3.2-28.3-2.9-28.4c5.4-1.8,22.3-0.5,35.4,4.8
		c13.1,5.3,27,6,31.7,5c4.8-0.8-18.5-9.6-25.5-15c-7.1-5.5-27.7-44.8-63.7-53.6c-36-8.9-57.5-0.7-78.4,23.1
		C49.1,80.4,58.7,106.5,85.4,109.5z"/>
	<path fill="#B38808" d="M121.7,47.5c0,0,11.3-0.5,18.9,3.6c7.6,4,5.9,8.1,3.7,9.3c-2.2,1.2-6.5,1.7-9.1,0.5s-7-2.3-9.7-2.3
		c-2.6,0-6.5-2.3-7-5.1C117.9,50.5,118.5,47.5,121.7,47.5z"/>
	<path fill="#B38808" d="M97,49.3c0,0,6.3-4.1,12.1-4.3c5.6-0.2,5.9,2.6,4.9,4.1c-0.9,1.3-3.4,3.1-5.3,3.5c-2,0.2-4.8,1-6.3,1.8
		c-1.7,1-4.5,1-5.7-0.7C95.6,52.3,95,50.5,97,49.3z"/>
	<path fill="#B38808" d="M136.3,68.8c0,0,5.3-3.3,9.6-3.5c4.5,0,4.6,2.3,4,3.3c-0.8,1.2-2.6,2.6-4.2,2.8c-1.5,0.2-3.9,0.8-5.1,1.5
		c-1.2,0.8-3.6,0.7-4.5-0.5C135.2,71.3,134.9,69.7,136.3,68.8z"/>
	<path fill="#B38808" d="M78.8,58.9c0,0,7.6-3.3,14.1-1c6.3,2.3,6.5,6.9,5.3,8.6c-1.1,1.7-3.9,3.3-6,2.8c-2.3-0.7-5.6-0.7-7.4,0
		c-1.9,0.5-5.3-0.8-6.5-3.6C77.1,62.9,76.6,59.7,78.8,58.9z"/>
	<path fill="#B38808" d="M159.9,62.1c0,0,7.7-3.3,14.1-1c6.3,2.3,6.5,6.8,5.4,8.4c-1.2,1.7-4,3.3-6.2,2.8c-2.3-0.5-5.6-0.7-7.4,0
		s-5.1-0.8-6.3-3.6S157.7,62.7,159.9,62.1z"/>
	<path fill="#B38808" d="M110.8,64.7c0,0,4.5-2,8.2-0.7c3.9,1.5,3.9,4,3.2,5s-2.3,2-3.6,1.7c-1.4-0.3-3.2-0.3-4.3,0
		c-1.1,0.3-2.9-0.5-3.7-2.1C109.8,66.9,109.5,65.2,110.8,64.7z"/>
	<path fill="#B38808" d="M151.4,49.8c0,0,4.6-0.8,8,1.5c3.4,2.1,2.9,4.8,2,5.6c-0.8,0.7-2.6,1.2-3.7,0.7c-1.2-0.7-3.1-1.3-4.2-1.2
		c-1.2,0-2.9-1.2-3.2-3C150,51.6,150,49.8,151.4,49.8z"/>
	<path fill="#FFE14F" d="M212.8,87.5l-0.2-0.2c0.3-0.2,0.5-0.5,0.6-0.8C213.1,86.9,212.9,87.2,212.8,87.5z"/>
	<path fill="#FFC718" d="M208.7,90.2c-2.6,0-4.8-2.6-4.9-5.8c0-0.8,0.2-1.7,0.3-2.3c0,0.3,0,0.7,0,1c0,0,0,0.2,0,0.3l0,0
		c0,0,1.1,4.5,3.4,5.6c0.5,0.3,0.9,0.3,1.4,0.3c1.4,0,2.8-0.8,3.7-2l0.2,0.2C212,89,210.4,90.2,208.7,90.2L208.7,90.2z"/>
	<path fill="#E6E7E8" d="M204.1,83.4c0,0,1.1,4.5,3.4,5.6c2.3,1.3,5.4-1.2,6.2-3.3c0.8-2.3,6-9.1,8.7-11.4c2.8-2.3,0-3.1-3.4-2.1
		C215.5,73.3,203.3,77.4,204.1,83.4z"/>
	<path fill="#C1C2C4" d="M206.9,88.5h-0.2C206.9,88.5,206.9,88.5,206.9,88.5z M206.7,88.5c-1.7-1.7-2.6-5.1-2.6-5.1l0,0
		c0-0.2,0-0.3,0-0.3c0-5.8,11.6-9.8,14.8-10.9c1.1-0.2,2-0.3,2.6-0.3c1.4,0,2.3,0.5,1.9,1.3c0,0-8.3,1.2-12.2,6
		C207.4,83.7,206.3,87.8,206.7,88.5z"/>
	<path fill="#FFFFFF" d="M211.1,87c-0.6-0.2-0.8-1.3-0.3-2.5c0.5-1.2,1.2-1.8,1.9-1.5c0.5,0.2,0.6,1.3,0.2,2.5
		C212.3,86.5,211.5,87.4,211.1,87z"/>
	<path fill="#FFE14F" d="M217.1,90.2c0,0,0,0-0.2-0.2c0.3-0.2,0.5-0.5,0.6-0.7C217.4,89.7,217.2,89.8,217.1,90.2z"/>
	<path fill="#FFC718" d="M219.4,96.4c-0.6,0-1.1-0.2-1.5-0.5c-1.7-0.8-2.2-3.3-1.2-5.3c0.2-0.2,0.3-0.5,0.3-0.7
		c0.2,0.2,0.2,0.2,0.2,0.2l0,0l0,0l0,0l0,0l0,0c0,0-0.6,3.1,0.3,4.8c0.6,0.7,1.4,1,2.3,1c0.8,0,1.5-0.2,2-0.5
		C221.1,96.1,220.2,96.4,219.4,96.4z"/>
	<path fill="#E6E7E8" d="M217.1,90.2c0,0-0.6,3.1,0.3,4.8c1.1,1.5,3.7,1.2,4.9,0c1.2-1,6.6-3.3,9-3.6c2.5-0.5,1.1-2-1.4-2.6
		C227.4,88.2,218.6,86.2,217.1,90.2z"/>
	<path fill="#D6D6D7" d="M229.9,88.7L229.9,88.7L229.9,88.7z M229.9,88.7L229.9,88.7L229.9,88.7z"/>
	<path fill="#C1C2C4" d="M217.2,94.3h-0.2H217.2z M217.1,94.3c-0.5-1.7,0-4.1,0-4.1l0,0l0,0l0,0l0,0c0.8-1.8,3.1-2.5,5.7-2.5
		c2.8,0,5.9,0.7,7.1,1l0,0l0,0l0,0l0,0c2,0.5,3.4,1.7,2.5,2.3c0,0-3.2-1.5-6.5-1.5c-0.9,0-2,0.2-2.9,0.5
		C219.1,91.5,216.9,93.6,217.1,94.3z"/>
	<path fill="#FFFFFF" d="M220.2,95c-0.2-0.3,0-1.2,0.6-1.7c0.8-0.5,1.4-0.7,1.7-0.3c0.3,0.3,0,1.2-0.6,1.7S220.5,95.3,220.2,95z"/>
	<path fill="#FFEEBB" d="M167.9,86.4c11.1,0,27.5,1.5,42.7,12.4c-1.5-0.5-3.1-1-4.6-1.7c-13.1-5.3-30-6.6-35.4-4.8
		C167.9,86.4,167.9,86.4,167.9,86.4z"/>
	<path fill="#FFEEBB" d="M106.6,98.6c10.7-2.3,24.7-5.6,36.9-8.3c1.2,14.9,1.2,14.9,1.2,14.9s-7.1,1.8-11.1,2.5
		c-4.9,0.3-11.3,1-18.2,1.5c-4.8,0-7.9,0-7.9,0s0,0.2,0,0.3C106.6,98.6,106.6,98.6,106.6,98.6z"/>
	<path fill="#FFEEBB" d="M85.4,109.5c1.1-8.4,1.1-8.4,1.1-8.4c-11.1-0.8-18.2-5.5-18.2-5.5c-4.8-2.5-4.3,2.3-4.2,3.1
		c0,0,3.1,5.1,10.8,8.1C82.5,109.7,85.4,109.5,85.4,109.5z"/>
	<path fill="#FFD433" d="M116.2,109c6-0.3,11.6-0.8,16.1-1.2C128.1,108.3,122.8,108.8,116.2,109z M107.4,108.8
		c-0.2-1.7-1.9-11.6-3.1-19.3c0,0,3.6,4.1,5.1,8.6c-0.9,0.2-1.9,0.3-2.8,0.5C107.4,108.8,107.4,108.8,107.4,108.8z"/>
	<path fill="#FFF0A7" d="M142.1,105.9c0.6-0.2,1.2-0.3,1.9-0.5c0.5-0.2,0.6-0.2,0.8-0.2l0,0C144.6,105.2,143.8,105.5,142.1,105.9z
		 M144.8,105.2c0-0.2,0-0.2,0-0.2l0,0C144.8,105,144.8,105,144.8,105.2z"/>
	<path fill="#FFD433" d="M137.2,107c2.6-0.7,5.6-1.3,6.8-1.7c-0.6,0.2-1.2,0.3-1.9,0.5C140.9,106.2,139.2,106.7,137.2,107z
		 M144.8,105.2L144.8,105.2L144.8,105.2L144.8,105.2L144.8,105.2c0-0.2,0-0.2,0-0.2l0,0c-1.2-14.7-1.2-14.7-1.2-14.7
		c-0.3,0-0.6,0.2-0.9,0.2c0.8-2.8,1.2-6.4,1.7-11.2C144.3,79.3,144.9,100.7,144.8,105.2L144.8,105.2z"/>
	<path fill="#FFE07A" d="M111.1,109.2c-1.2,0-2.3,0-3.6,0l0,0l0,0l0,0l0,0c0-0.2,0-0.2,0-0.2s0,0-0.2-0.2
		c-0.8-10.2-0.8-10.2-0.8-10.2c0.9-0.2,1.9-0.3,2.8-0.5c0.3,0.7,0.6,1.5,0.8,2.1c0.5,2.5,4.8,3.5,10,3.5c5.4,0,11.7-1.2,15-2.6
		c4.2-2,6-4.3,7.4-10.6c0.3,0,0.6-0.2,0.9-0.2c1.2,14.7,1.2,14.7,1.2,14.7c0,0.2,0,0.2,0,0.2l0,0l0,0l0,0c-0.2,0-0.3,0-0.8,0.2
		c-1.2,0.3-4.2,1-6.8,1.7c-1.4,0.3-3.1,0.5-4.9,0.8c-4.5,0.3-10,0.8-16.1,1.2C114.6,109.2,112.8,109.2,111.1,109.2z"/>
	<path fill="#FFF0A7" d="M233.2,102.4L233.2,102.4L233.2,102.4L233.2,102.4z M232.9,102.4c-6.3,0-16.5-1.3-26.4-5.1
		C216.3,101.1,226.5,102.4,232.9,102.4z M237.6,102.2c0,0,0,0,0-0.2l0,0l0,0C237.6,102.2,237.6,102.2,237.6,102.2z M206.3,97.3
		L206.3,97.3L206.3,97.3L206.3,97.3z"/>
	<path fill="#FFD433" d="M233.2,102.4c-0.2,0-0.2,0-0.3,0c-6.3,0-16.5-1.3-26.4-5.1c-0.2,0-0.2,0-0.2,0l0,0c1.4,0.5,2.8,1,4.3,1.5
		c-15.1-10.9-31.5-12.4-42.7-12.4c2.2,4.8,2.2,4.8,2.2,4.8c-0.8-1.7-1.5-3.1-2.3-4.6c-1.1-1.8-2.2-3.6-3.4-5c0,0,0-0.2-0.2-0.2h0.2
		c1.7,0,13.9,0,22.3,4.1c29.4,14.5,44.2,16.2,51.2,16.2c0.2,0,0.3,0,0.5,0c0,0.2-0.2,0.3-0.6,0.5l0,0l0,0
		C236.6,102.4,235,102.4,233.2,102.4L233.2,102.4z"/>
	<path fill="#FFE07A" d="M210.6,98.8c-1.5-0.5-2.9-1-4.3-1.5l0,0c-0.2-0.2-0.2-0.2-0.3-0.2l0,0c-9.3-3.8-20.4-5.5-28.1-5.6
		c-0.2,0-0.3,0-0.5,0l0,0c-2.9,0-5.4,0.3-6.8,0.8l0,0c-0.2-0.3-0.3-0.8-0.5-1.2c-2.2-4.8-2.2-4.8-2.2-4.8
		C179.1,86.4,195.5,87.8,210.6,98.8z"/>
	<path fill="#FFE14F" d="M161.1,125.9H161l0,0H161.1L161.1,125.9z M153.1,124.9c-0.2,0-0.2-0.2-0.3-0.2l0,0
		C153,124.7,153,124.9,153.1,124.9L153.1,124.9z M146.3,122.4c-0.6-0.5-1.1-0.8-1.2-1.3C145.2,121.6,145.7,121.9,146.3,122.4
		L146.3,122.4z M145.1,121.1L145.1,121.1L145.1,121.1L145.1,121.1z M173.5,120.7L173.5,120.7c2.2-16-3.2-28.3-2.9-28.4l0,0
		C170.6,92.6,175.7,104.7,173.5,120.7L173.5,120.7z"/>
	<path fill="#FFC718" d="M161.1,125.9H161c0.2-0.3,0.5-0.8,0.5-1.5c0-0.3,0-0.5-0.2-0.8l0,0c0-0.2,0-0.3-0.2-0.5
		c-0.2-1-0.6-1.8-1.2-2.5c4.5-1.2,8.2-3.5,9-8.3c3.2-19.5-8.7-35.5-8.7-35.5s1.9,1.7,4,4.6l0,0l0.2,0.2c1.1,1.3,2.2,3,3.4,5
		c1.5,3,2.8,5.8,2.8,5.8l0,0c-0.3,0.2,5.1,12.4,2.9,28.4l0,0c-0.3,1.8-1.7,3.1-3.6,4v-0.2c0-0.3,0-0.8-0.2-1.3l0,0
		c-0.2-0.2-0.2-0.5-0.3-0.8c-0.8-1.7-2.3-3-3.9-3c-0.5,0-0.8,0.2-1.2,0.3c-2.5,1-2.6,3.8-3.2,6C161.1,125.9,161.1,125.9,161.1,125.9
		z M153.1,124.9c-0.2,0-0.2-0.2-0.3-0.2c0.2,0,0.2,0,0.3,0C153.1,124.7,153.1,124.7,153.1,124.9L153.1,124.9z M146.3,122.4
		c-0.6-0.5-1.1-0.8-1.2-1.3l0,0l0,0c0,0,0.6,0.2,1.5,0.2C146.5,121.6,146.3,122.1,146.3,122.4z M154.2,121.6L154.2,121.6
		c0,0,0.2,0,0.2-0.2C154.3,121.6,154.2,121.6,154.2,121.6z"/>
	<path fill="#FFBB10" d="M170.6,92.3c0,0-1.2-2.8-2.8-5.8c0.8,1.5,1.5,3,2.3,4.6C170.6,92.3,170.6,92.3,170.6,92.3L170.6,92.3z
		 M164.4,81.6l-0.2-0.2l0,0C164.4,81.4,164.4,81.6,164.4,81.6z"/>
	<path fill="#FFC626" d="M170.6,92.3c-0.5-1.2-0.5-1.2-0.5-1.2C170.3,91.5,170.4,92,170.6,92.3z"/>
	<path fill="#FFE14F" d="M96.8,128c0,0-0.2,0-0.3,0l0,0C96.7,128,96.8,128,96.8,128L96.8,128z"/>
	<path fill="#FFC718" d="M96.8,128c0,0-0.2,0-0.3,0c0.3-0.3,0.6-0.8,0.6-1.7c0-0.3,0-0.5-0.2-0.8l0,0c0-0.2,0-0.3,0-0.5
		c-0.2-0.7-0.5-1.3-0.9-1.8c1.7-0.8,2.9-2,3.7-3.6c3.4-7.3,4.3-23.6,2.9-38c4.6,27.3,4.6,27.3,4.6,27.3c0.2,0.7,0.2,0.7,0.2,0.7
		c0,1.7,0.3,5.1,0.3,8.6c0,3.8-0.5,7.8-2.2,9.3c0-0.3,0-0.5,0-0.8c0-0.3,0-0.7-0.2-1.2l0,0c0-0.3-0.2-0.7-0.3-1
		c-0.8-1.7-2.2-3-3.9-3c-0.5,0-0.8,0.2-1.2,0.3c-2.5,1-2.6,4-3.1,6C96.8,127.8,96.8,128,96.8,128z"/>
	<path fill="#FFD23A" d="M107.5,109.5c-0.2-0.7-0.2-0.7-0.2-0.7c0.2,0.2,0.2,0.2,0.2,0.2c0,0.2,0,0.2,0,0.2l0,0
		C107.5,109.2,107.5,109.3,107.5,109.5z"/>
	<path fill="#FFC626" d="M107.5,109.2c0,0,0,0,0-0.2C107.5,109.2,107.5,109.2,107.5,109.2z"/>
	<path fill="#FFE14F" d="M88.7,127.5c-0.5-0.2-1.1-0.2-1.5-0.2l0,0C87.6,127.4,88.2,127.4,88.7,127.5L88.7,127.5z"/>
	<path fill="#FFC718" d="M88.7,127.5c-0.5-0.2-1.1-0.2-1.5-0.2c0.5-0.2,0.9-0.3,1.4-0.5c0,0,0.2-0.2,0.3-0.2c0,0,0,0,0,0.2
		C88.7,127,88.7,127.2,88.7,127.5z"/>
	<path fill="#E6E7E8" d="M88.5,126.9c0,0,2-0.3,1.5-3.1c-0.5-2.5-2.3-4.6-4.8-4c-2.3,0.7-2.8,3.3-3.6,5.3
		C80.9,127.2,83.9,128.8,88.5,126.9z"/>
	<path fill="#D6BD43" d="M89.9,123.5c0-0.2,0-0.3,0-0.5C89.9,123.2,89.9,123.4,89.9,123.5L89.9,123.5z"/>
	<path fill="#C1C2C4" d="M84.6,127.7c-1.9,0-3.1-0.8-3.1-2c0-0.2,0.2-0.5,0.2-0.7c0.2-0.2,0.2-0.3,0.3-0.7c0.5,1.3,1.9,1.8,3.4,1.8
		c1.9,0,3.7-0.7,3.9-1.2c0.3-1,0.3-2.5,0.3-2.5c0.2,0.2,0.2,0.3,0.3,0.5c0,0.2,0,0.3,0,0.5c-0.5,1-0.8,2.1-1.1,3.1
		c-0.2,0-0.3,0.2-0.3,0.2c-0.5,0.2-0.9,0.3-1.4,0.5l0,0C86.2,127.7,85.3,127.7,84.6,127.7z"/>
	<path fill="#FFFFFF" d="M86.2,121.6c-0.6,0-1.1-0.3-0.9-0.8c0-0.3,0.6-0.7,1.2-0.7c0.6,0.2,1.1,0.5,1.1,0.8
		C87.4,121.4,87,121.7,86.2,121.6z"/>
	<path fill="#E6E7E8" d="M95.5,128.5c0,0,2.2-0.2,1.5-3c-0.5-2.5-2.3-4.6-4.6-4c-2.5,0.5-2.8,3.3-3.6,5.3
		C88,129,90.8,130.7,95.5,128.5z"/>
	<path fill="#D6A714" d="M96.5,128L96.5,128c0.3-0.3,0.6-0.8,0.6-1.7C97.2,127.2,96.8,127.7,96.5,128z M97,125.5c0-0.2,0-0.3,0-0.5
		C97,125.2,97,125.4,97,125.5z"/>
	<path fill="#C1C2C4" d="M91.6,129.5c-1.9,0-2.9-0.8-2.9-2c0-0.3,0-0.5,0.2-0.7c0-0.3,0.2-0.5,0.2-0.7c0.6,1.3,2,1.7,3.6,1.7
		c1.7,0,3.6-0.5,3.9-1c0.3-1,0.3-2.5,0.3-2.5c0.2,0.2,0.2,0.3,0.3,0.7c0,0.2,0,0.3,0,0.5l0,0c0.2,0.3,0.2,0.5,0.2,0.8
		c0,0.8-0.3,1.3-0.6,1.7l0,0c-0.5,0.5-1.1,0.5-1.1,0.5C94.1,129.2,92.7,129.5,91.6,129.5z M96.7,124.4L96.7,124.4L96.7,124.4z"/>
	<path fill="#FFFFFF" d="M93.3,123.4c-0.6,0-1.1-0.5-1.1-0.8c0.2-0.3,0.8-0.7,1.4-0.7s1.1,0.3,0.9,0.8
		C94.5,123.1,93.9,123.4,93.3,123.4z"/>
	<path fill="#E6E7E8" d="M104.3,128.7c0,0,2.2-0.5,1.2-3.3c-0.8-2.6-2.9-4.6-5.4-3.6c-2.5,1-2.6,4-3.1,6
		C96.4,130.2,99.6,131.6,104.3,128.7z"/>
	<path fill="#D6A714" d="M105.5,125.4c0-0.3-0.2-0.7-0.3-1C105.4,124.7,105.5,125,105.5,125.4z"/>
	<path fill="#C1C2C4" d="M99.5,130.3c-1.5,0-2.6-0.8-2.6-2c0-0.2,0-0.3,0.2-0.7c0-0.2,0-0.3,0.2-0.5c0.5,1,1.7,1.3,2.9,1.3
		c2.2,0,4.6-1.2,4.8-1.8c0.3-1,0.2-2.6,0.2-2.6c0,0.2,0.2,0.3,0.2,0.3c0.2,0.3,0.3,0.7,0.3,1l0,0c0.2,0.5,0.2,0.8,0.2,1.2
		c0,1.8-1.4,2.1-1.4,2.1C102.4,129.8,100.9,130.3,99.5,130.3z M105,124L105,124L105,124z"/>
	<path fill="#FFFFFF" d="M101.3,123.5c-0.8,0-1.2-0.3-1.2-0.7c0-0.5,0.6-0.8,1.2-1c0.8,0,1.2,0.3,1.2,0.8
		C102.6,123.1,101.9,123.5,101.3,123.5z"/>
	<path fill="#E6E7E8" d="M152.6,124.7c0,0,2.2-0.2,1.5-3c-0.3-2.5-2.2-4.6-4.6-4c-2.3,0.7-2.8,3.3-3.6,5.3
		C145.2,125.2,148.2,126.9,152.6,124.7z"/>
	<path fill="#D6BD43" d="M154.2,121.6c0-0.2,0-0.3-0.2-0.5C154.2,121.2,154.2,121.4,154.2,121.6L154.2,121.6z"/>
	<rect x="154.2" y="121.6" fill="#D6A714" width="0" height="0"/>
	<path fill="#C1C2C4" d="M148.8,125.7c-1.9,0-2.9-0.8-2.9-2c0-0.2,0-0.5,0.2-0.7c0.2-0.2,0.2-0.3,0.2-0.7c0.6,1.3,2,1.8,3.6,1.8
		c1.9,0,3.6-0.7,3.9-1.2c0.3-1,0.3-2.5,0.3-2.5c0.2,0.2,0.2,0.3,0.2,0.5c0.2,0.2,0.2,0.3,0.2,0.5l0,0c-0.5,1-0.8,2.1-1.1,3.1
		c-0.2,0-0.2,0-0.3,0l0,0h-0.2C151.3,125.5,149.9,125.7,148.8,125.7z"/>
	<path fill="#FFFFFF" d="M150.5,119.6c-0.6,0-1.1-0.3-0.9-0.8c0-0.3,0.6-0.7,1.2-0.7c0.6,0.2,1.1,0.5,0.9,0.8
		C151.7,119.4,151.1,119.6,150.5,119.6z"/>
	<path fill="#E6E7E8" d="M159.8,126.5c0,0,2.2-0.2,1.5-3c-0.5-2.5-2.3-4.6-4.6-4c-2.5,0.5-2.9,3.3-3.6,5.3
		C152.2,127,155.1,128.7,159.8,126.5z"/>
	<path fill="#D6A714" d="M161,125.9L161,125.9c0.2-0.3,0.5-0.8,0.5-1.5C161.5,125,161.1,125.5,161,125.9z M161.3,123.5
		c0-0.2,0-0.3-0.2-0.5C161.3,123.2,161.3,123.4,161.3,123.5z"/>
	<path fill="#C1C2C4" d="M155.9,127.5c-1.9,0-2.9-0.8-2.9-2c0-0.3,0-0.5,0.2-0.7c0-0.3,0.2-0.5,0.2-0.7c0.5,1.3,2,1.7,3.6,1.7
		c1.7,0,3.6-0.5,3.7-1c0.5-1,0.5-2.5,0.5-2.6c0,0.3,0.2,0.5,0.2,0.8c0.2,0.2,0.2,0.3,0.2,0.5l0,0c0.2,0.3,0.2,0.5,0.2,0.8
		c0,0.7-0.3,1.2-0.5,1.5l0,0c-0.5,0.7-1.2,0.7-1.2,0.7C158.2,127.2,157,127.5,155.9,127.5z M161,122.2L161,122.2L161,122.2z"/>
	<path fill="#FFFFFF" d="M157.6,121.4c-0.6,0-1.1-0.5-1.1-0.8c0.2-0.5,0.6-0.7,1.2-0.7s1.1,0.3,1.1,0.8
		C158.8,121.1,158.2,121.4,157.6,121.4z"/>
	<path fill="#E6E7E8" d="M168.6,126.7c0,0,2.2-0.5,1.2-3.5c-0.8-2.5-2.9-4.5-5.4-3.5c-2.5,1-2.6,3.8-3.2,6
		C160.7,128.2,163.9,129.5,168.6,126.7z"/>
	<path fill="#D6A714" d="M169.8,123.2c-0.2-0.2-0.2-0.5-0.3-0.8C169.6,122.7,169.6,123.1,169.8,123.2z"/>
	<path fill="#C1C2C4" d="M163.8,128.3c-1.5,0-2.6-0.8-2.6-2c0-0.2,0-0.3,0-0.7c0.2-0.2,0.2-0.3,0.2-0.5c0.6,1,1.7,1.3,3.1,1.3
		c2.2,0,4.6-1.2,4.8-1.8c0.3-1,0.2-2.6,0.2-2.6c0,0.2,0,0.2,0.2,0.3c0.2,0.3,0.2,0.7,0.3,0.8l0,0c0.2,0.5,0.2,1,0.2,1.3
		c0,1.8-1.4,2.1-1.4,2.1C166.7,127.8,165,128.3,163.8,128.3z M169.3,122.1L169.3,122.1L169.3,122.1z"/>
	<path fill="#FFFFFF" d="M165.6,121.6c-0.8,0-1.2-0.3-1.2-0.8c0-0.3,0.6-0.7,1.2-0.8c0.6,0,1.2,0.3,1.2,0.8
		C166.9,121.1,166.2,121.6,165.6,121.6z"/>
	<path fill="#FFB900" d="M192.4,73.6c-0.6,0-1.4-0.7-1.9-1.7c-0.9-1.7-5.7-6.3-6.2-6.9c0-0.2,0-0.3,0-0.3c0.2,0,0.2,0,0.2,0.2l0,0
		c0.2,0.7,4.6,3,7.1,7.6l0,0c0,0,0.5,0,1.2-0.2C193,73.1,192.7,73.6,192.4,73.6z"/>
	<path fill="#B15C12" d="M200.1,57.4c0,0-12.7-2.6-14.4,0.8c-1.4,3.1-1.2,6-1.2,6.6c0.2,0.7,4.6,3,7.1,7.6c0,0,5.7-0.2,6.5-3.3
		C198.9,65.7,203.3,57.9,200.1,57.4z"/>
	<path fill="#E7B639" d="M185.7,58.3c0,0,0-0.2,0.2-0.2C185.7,58.1,185.7,58.3,185.7,58.3z"/>
	<path fill="#A14A0D" d="M191.6,72.5c-2.5-4.6-7-6.9-7.1-7.6c0-0.2,0-0.7,0-1c0-1.3,0.2-3.5,1.2-5.6l0,0c0,0,0-0.2,0.2-0.2
		c0.8-1.3,2.9-1.7,5.6-1.7c2,0,4,0.3,5.7,0.5l0,0c-0.3,0-7.3,0.7-8,3.8c-0.6,2.8,0.3,5,2.3,7.3c1.4,1.3,3.4,2.3,4.8,2.3
		c0.6,0,1.2-0.2,1.5-0.5C196.5,72.3,191.6,72.5,191.6,72.5L191.6,72.5z"/>
	<path fill="#D18316" d="M199.2,60.9c0,0-1.9,5.8-2.2,6.9c-0.3,1-1.4,1.2-1.7,0.7c-0.2-0.3,1.4-6.9,2.6-7.3S199.5,60.1,199.2,60.9z"
		/>
	<path fill="#FFB900" d="M138.9,45.9c-0.9,0-2-0.2-2.9-0.7c-5.6-2.8-15.9-1.7-17.3-2.1c-0.3-0.2-0.3-0.3,0-0.5
		c0.2,0.2,0.5,0.3,0.9,0.3c0.8,0,1.9-0.2,3.1-0.3l0,0c0.2,0,0.2,0,0.2,0l0,0c0,0,0,0,0.2,0l0,0c1.2-0.2,2.6-0.3,4.3-0.3l0,0l0,0
		c3.6,0,8,0.7,12.4,3.1l0,0l0,0l0,0c0,0,0.6-0.8,1.5-2.1C142.4,44.9,140.9,45.9,138.9,45.9z"/>
	<path fill="#B15C12" d="M137.5,4c0,0-20.7,15.4-21.2,23.6c-0.6,8.1,1.9,13.4,2.3,14.9c0.2,0.5,1.7,0.2,4,0c4-0.3,10.7-0.8,17,2.8
		c0,0,10.5-12.9,7.3-20.5C143.8,17.3,142.3,0.2,137.5,4z"/>
	<polygon fill="#E7B639" points="118.6,42.6 118.6,42.6 118.6,42.6 	"/>
	<path fill="#A14A0D" d="M116.3,27.7L116.3,27.7L116.3,27.7z M116.3,27.7c0-0.2,0-0.2,0-0.2S116.3,27.5,116.3,27.7z M116.3,27.5
		L116.3,27.5L116.3,27.5z M116.3,27.5L116.3,27.5L116.3,27.5z M116.3,27.5L116.3,27.5L116.3,27.5z M116.3,27.5L116.3,27.5
		L116.3,27.5z M116.3,27.5L116.3,27.5L116.3,27.5z M116.3,27.5L116.3,27.5L116.3,27.5z M116.3,27.4L116.3,27.4L116.3,27.4z
		 M116.3,27.4L116.3,27.4L116.3,27.4z M116.3,27.4L116.3,27.4L116.3,27.4z"/>
	<path fill="#E7CEB7" d="M119.6,20.9L119.6,20.9c2.3-3.1,5.7-6.6,9-9.4C125.3,14.3,121.9,17.8,119.6,20.9z"/>
	<path fill="#A14A0D" d="M116.3,27.4c0-0.3,0-0.5,0.2-0.8l0,0C116.3,26.9,116.3,27,116.3,27.4z M117.9,23.2L117.9,23.2
		c0.5-0.8,1.1-1.5,1.7-2.3l0,0C119,21.7,118.3,22.4,117.9,23.2z"/>
	<path fill="#BE6A10" d="M116.5,26.5L116.5,26.5c0.2-1,0.8-2.1,1.4-3.3l0,0C117.3,24.4,116.6,25.5,116.5,26.5z"/>
	<path fill="#E79500" d="M139.7,45.4c-4.3-2.5-8.8-3.1-12.4-3.1C130.9,42.2,135.3,42.9,139.7,45.4L139.7,45.4L139.7,45.4z
		 M139.7,45.4L139.7,45.4L139.7,45.4z M119.6,42.9c-0.5,0-0.8-0.2-0.9-0.3l0,0C118.8,42.7,119.1,42.9,119.6,42.9
		c0.8,0,1.9-0.2,3.1-0.3l0,0l0,0C121.4,42.7,120.3,42.9,119.6,42.9z M122.8,42.6L122.8,42.6L122.8,42.6z M123,42.6L123,42.6
		L123,42.6z M127.3,42.2L127.3,42.2L127.3,42.2L127.3,42.2z"/>
	<path fill="#A14A0D" d="M139.7,45.4c-4.3-2.5-8.8-3.1-12.4-3.1l0,0l0,0l0,0l0,0c-1.7,0-3.1,0.2-4.3,0.3l0,0c-0.2,0-0.2,0-0.2,0l0,0
		c0,0,0,0-0.2,0l0,0c-1.2,0.2-2.3,0.3-3.1,0.3c-0.5,0-0.8-0.2-0.9-0.3l0,0l0,0l0,0c-0.5-1.3-2.5-5.8-2.5-12.6c0-0.8,0-1.5,0.2-2.3
		l0,0l0,0l0,0c0-0.2,0-0.2,0-0.2l0,0l0,0l0,0l0,0l0,0l0,0l0,0l0,0l0,0l0,0l0,0l0,0v-0.2l0,0l0,0l0,0l0,0l0,0l0,0
		c0-0.3,0-0.5,0.2-0.8c0.2-1,0.8-2.1,1.4-3.3c0.5-0.8,1.1-1.5,1.7-2.3c2.3-3.1,5.7-6.6,9-9.4c1.5-1.5,3.1-2.6,4.5-3.8
		c-0.5,0.3-10.5,12.1-9.4,18.2c1.1,6.3,4.8,8.8,10.5,9.4c0.3,0,0.8,0,1.1,0c5.6,0,11.9-4,12.2-8.8C148.6,34.1,139.7,45.2,139.7,45.4
		L139.7,45.4L139.7,45.4L139.7,45.4z"/>
	<path fill="#D18316" d="M139.4,9.7c0,0,3.4,12.1,4.2,14.5c0.8,2.6-0.9,4.8-1.9,4.5c-0.8-0.2-5.4-14-3.9-16.5
		C139.4,9.7,138.9,8.2,139.4,9.7z"/>
	<path fill="#FFB900" d="M176.4,58.1c-0.9,0-2.5-0.7-3.6-2c-2.3-2.5-13.1-7.9-14.2-9.1c-0.3-0.3-0.2-0.5,0.3-0.5
		c0.2,0,0.6,0.2,0.9,0.2c0,0.2,0,0.2,0,0.2c0.3,1.2,9.1,3.3,15.3,10.1l0,0l0,0l0,0c0,0,0.9-0.2,2.3-0.7
		C177.8,57.6,177.4,58.1,176.4,58.1z"/>
	<path fill="#B15C12" d="M184,28c0,0-23.3,0.7-24.7,7.3c-1.2,5.8,0.3,10.4,0.6,11.6c0.3,1.2,9.1,3.3,15.3,10.1c0,0,9.9-2.5,9.9-7.9
		C184.9,42.6,189.6,27.7,184,28z"/>
	<path fill="#A14A0D" d="M159.3,35.3L159.3,35.3L159.3,35.3z M159.3,35.3c0-0.2,0-0.2,0-0.2S159.3,35.1,159.3,35.3z M159.3,35.1
		L159.3,35.1L159.3,35.1z"/>
	<path fill="#A14A0D" d="M175.2,56.9c-6.2-6.8-15-8.9-15.3-10.1c0,0,0,0,0-0.2c-0.3-1-1.1-3.5-1.1-6.9c0-1.5,0.2-3,0.5-4.5l0,0l0,0
		l0,0c0-0.2,0-0.2,0-0.2l0,0l0,0c1.2-4.5,12.4-6.1,19.3-6.8c-0.5,0.2-12.4,4.1-12.4,9.8c0,5,2.6,8.4,7,11.2c2.3,1.7,5.3,2.5,7.6,2.5
		c1.9,0,3.4-0.5,4.2-1.7C183.7,54.8,175.2,56.9,175.2,56.9L175.2,56.9L175.2,56.9L175.2,56.9z"/>
	<path fill="#D18316" d="M183.7,34.3c0,0-0.9,10.7-0.9,12.7c-0.2,2-2,2.5-2.6,2c-0.5-0.7-0.6-12.6,1.4-13.6
		C183.7,34.3,183.9,32.6,183.7,34.3z"/>
	<path fill="#FFB900" d="M74.1,57.9c-0.2,0,0-0.3,0.2-0.8h0.2l0,0l0,0l0,0l0,0c0.8,0,2.9-4.5,7.6-6.4l0,0l0,0l0,0c0.2,0,0.2,0,0.2,0
		h0.2l0,0l0,0l0,0l0,0l0,0l0,0l0,0l0,0l0,0l0,0l0,0l0,0l0,0l0,0l0,0l0,0l0,0l0,0l0,0l0,0l0,0l0,0l0,0l0,0c0-0.2,0-0.2,0-0.2l0,0l0,0
		l0,0l0,0l0,0l0,0l0,0l0,0l0,0l0,0l0,0l0,0l0,0l0,0l0,0l0,0l0,0l0,0l0,0c0-0.2-0.2-0.7-0.2-1.5c1.4,0.3,0.5,2.3-1.1,3
		c-1.9,0.8-6.2,5.6-6.8,6C74.3,57.9,74.3,57.9,74.1,57.9z"/>
	<path fill="#B15C12" d="M66.2,36.8c0,0-2.5,14.7,1.2,17.5c3.2,2.3,6.2,2.8,7,2.8c0.6,0.2,2.9-4.6,7.9-6.4c0,0-0.3-6.9-3.6-8.6
		C74.9,40.4,66.7,33.1,66.2,36.8z"/>
	<path fill="#E79500" d="M74.4,57.1L74.4,57.1c0.8,0,2.9-4.5,7.6-6.4C77.4,52.6,75.2,57.1,74.4,57.1z"/>
	<polygon fill="#E79500" points="74.4,57.1 74.4,57.1 74.3,57.1 74.3,57.1 74.4,57.1 	"/>
	<path fill="#E79500" d="M82,50.7L82,50.7L82,50.7z M82,50.7c0.2,0,0.2,0,0.2,0S82.2,50.7,82,50.7z M82.3,50.7L82.3,50.7L82.3,50.7z
		 M82.3,50.7L82.3,50.7L82.3,50.7z M82.3,50.7L82.3,50.7L82.3,50.7z M82.3,50.7L82.3,50.7L82.3,50.7z M82.3,50.7L82.3,50.7
		L82.3,50.7z M82.3,50.7L82.3,50.7L82.3,50.7z M82.3,50.7L82.3,50.7L82.3,50.7z M82.3,50.7L82.3,50.7L82.3,50.7z M82.3,50.7
		L82.3,50.7L82.3,50.7z M82.3,50.7L82.3,50.7L82.3,50.7z M82.3,50.7v-0.2C82.3,50.5,82.3,50.5,82.3,50.7z M82.3,50.5L82.3,50.5
		L82.3,50.5z M82.3,50.5L82.3,50.5L82.3,50.5z M82.3,50.5L82.3,50.5L82.3,50.5z M82.3,50.5L82.3,50.5L82.3,50.5z M82.3,50.5
		L82.3,50.5L82.3,50.5z M82.3,50.5L82.3,50.5L82.3,50.5z M82.3,50.5L82.3,50.5L82.3,50.5z M82.3,50.5L82.3,50.5L82.3,50.5z
		 M82.3,50.5L82.3,50.5L82.3,50.5z"/>
	<path fill="#E7CEB7" d="M81.2,45.4c-0.2-0.7-0.6-1.3-0.9-2C80.6,44,81.1,44.7,81.2,45.4L81.2,45.4z"/>
	<path fill="#E7B639" d="M82.2,49L82.2,49c-0.2-1-0.5-2.3-0.9-3.6l0,0C81.7,46.7,82,48,82.2,49z"/>
	<path fill="#E79500" d="M82.3,50.5c0-0.2-0.2-0.7-0.2-1.5l0,0C82.2,49.8,82.3,50.3,82.3,50.5z"/>
	<path fill="#A14A0D" d="M74.4,57.1L74.4,57.1L74.4,57.1h-0.2c-0.3,0-0.8,0-1.5-0.3c-0.5-1.5-0.9-2.5-0.9-2.5s-0.3-1.5-1.4-3.3
		c0.9,0.3,1.9,0.5,2.6,0.5c1.7,0,3.1-0.7,4.5-1.8c2.2-1.8,3.2-5.3,1.9-7.1c0.3,0.3,0.6,0.5,0.9,0.8c0.3,0.7,0.8,1.3,0.9,2
		c0.5,1.3,0.8,2.6,0.9,3.6c0,0.8,0.2,1.3,0.2,1.5l0,0l0,0l0,0l0,0l0,0l0,0l0,0l0,0l0,0l0,0l0,0l0,0l0,0l0,0l0,0l0,0l0,0l0,0l0,0
		c0,0,0,0,0,0.2l0,0l0,0l0,0l0,0l0,0l0,0l0,0l0,0l0,0l0,0l0,0l0,0l0,0l0,0l0,0l0,0l0,0l0,0l0,0l0,0l0,0l0,0h-0.2c0,0,0,0-0.2,0l0,0
		l0,0l0,0C77.4,52.6,75.2,57.1,74.4,57.1z M67.2,46.7c-0.5-0.5-1.1-1.2-1.7-1.7c0-1.8,0.2-3.5,0.3-4.8
		C65.8,40.4,66.1,43.7,67.2,46.7z"/>
	<path fill="#D18316" d="M69.8,38.8c0,0,6.3,3.6,7.6,4.3c1.1,0.7,1.1,2,0.8,2.1c-0.3,0.2-7.4-3.3-7.9-4.8
		C69.8,38.8,69,38.3,69.8,38.8z"/>
	<path fill="#FFB900" d="M87,50.5c-0.5,0,0-0.7,0.5-1.3c0.2,0,0.2,0,0.2,0c0.2,0.2,0.2,0.2,0.2,0.2l0,0l0,0l0,0
		c1.1,0,6.3-7.3,14.7-9.3l0,0l0,0l0,0c0,0,0.2-0.8,0.3-2.3c2.3,0.8,0.3,3.6-2.3,4.3c-4.5,1.2-12.1,7.9-13.3,8.4H87z"/>
	<path fill="#B15C12" d="M85.4,18.1c0,0-7.7,19.2-4.9,24c2.8,5,6.3,6.6,7.1,7.1c0.9,0.7,6.2-7.1,14.8-9.1c0,0,2-12.6-2.9-15.2
		S87.1,13.5,85.4,18.1z"/>
	<path fill="#E7CEB7" d="M82.2,44.7c-0.6-0.8-1.2-1.7-1.7-2.6l0,0l0,0C80.9,43.1,81.5,43.9,82.2,44.7L82.2,44.7z"/>
	<path fill="#E7CEB7" d="M80.5,42.1L80.5,42.1L80.5,42.1z M80.5,42.1L80.5,42.1L80.5,42.1z M80.5,42.1L80.5,42.1L80.5,42.1z
		 M80.2,41.6L80.2,41.6L80.2,41.6z M80.2,41.6L80.2,41.6L80.2,41.6z M80.2,41.6L80.2,41.6L80.2,41.6z M80.2,41.6L80.2,41.6
		L80.2,41.6z M80.2,41.6L80.2,41.6L80.2,41.6z M80.2,41.6L80.2,41.6L80.2,41.6z M80.2,41.6c0,0,0,0,0-0.2
		C80.2,41.6,80.2,41.6,80.2,41.6z M80.2,41.4c-0.5-1.5-0.3-3.8,0.2-6.4C79.8,37.6,79.7,39.9,80.2,41.4z"/>
	<path fill="#E79500" d="M87.7,49.3L87.7,49.3c1.1,0,6.3-7.3,14.7-9.3l0,0l0,0C94.1,42.1,88.8,49.3,87.7,49.3z M87.7,49.3
		c0,0,0,0-0.2-0.2c0,0,0,0-0.2,0l0,0c0.2,0,0.2,0,0.2,0C87.7,49.3,87.7,49.3,87.7,49.3z M102.4,40.1L102.4,40.1L102.4,40.1z"/>
	<path fill="#A14A0D" d="M87.7,49.3L87.7,49.3c0,0,0,0-0.2-0.2c0,0,0,0-0.2,0c-0.8-0.5-3.1-1.8-5.3-4.5c-0.6-0.8-1.2-1.7-1.7-2.6
		l0,0l0,0l0,0l0,0l0,0l0,0l0,0c-0.2-0.2-0.2-0.3-0.3-0.5l0,0l0,0l0,0l0,0l0,0l0,0l0,0l0,0l0,0l0,0l0,0l0,0c0,0,0,0,0-0.2l0,0
		c-0.5-1.5-0.3-3.8,0.2-6.4c0.8-4.1,2.3-9.1,3.6-12.6c-0.2,0.5-2.3,12.1,0.8,15c1.4,1.3,2.9,2,4.5,2c1.9,0,3.7-0.8,5.9-2.1
		c4-2.6,7.1-8.6,5.4-11.7c3.7,3.8,2,14.5,2,14.5l0,0l0,0l0,0C94.1,42.1,88.8,49.3,87.7,49.3z"/>
	<path fill="#D18316" d="M88.8,20.2c0,0,6.8,5.1,8.2,6.1c1.5,1,1.2,3.1,0.6,3.5c-0.6,0.2-9-5.1-9-7.3C88.8,20.2,87.9,19.6,88.8,20.2
		z"/>
	<path fill="#FFE14F" d="M71.8,54.3c0,0,10,23.3,0.5,37c-9.6,13.7-35.9,16.5-44.8,13.9c-8.8-2.6-7.1-3.3-13.4-4.5
		C7.4,99.6-1.3,87.4,6.7,76.9c7.9-10.4,6-20.2,10.2-26.4c2.3-3.3,13.9-16,32.9-12.4C69,41.7,71.8,54.3,71.8,54.3z"/>
	<path fill="#B38808" d="M14.3,74.6c-0.2,1.5,0.3,2.6,1.2,2.8c0.8,0,1.5-1,1.7-2.3c0.2-1.5-0.3-2.6-1.1-2.8
		C15.2,72.3,14.5,73.3,14.3,74.6z"/>
	<path fill="#FFEEBB" d="M3.5,87.4c0.2,0,12.2,4.5,22.1,0.7c9.7-3.8,25.5-2.1,25.5,8.8c0,2.6-0.2,5.1-0.5,7.3
		c-9.3,2.3-18.5,2.5-23.2,1.2c-8.8-2.6-7.1-3.3-13.4-4.5C9.5,100.1,4.3,94.3,3.5,87.4z"/>
	<path fill="#FFFFFF" d="M44.5,66.2c-0.5,6.6-5.7,11.6-11.9,11.1c-6.3-0.5-11-6.3-10.5-12.9c0.5-6.6,5.9-11.6,12.1-11.1
		C40.3,53.8,44.9,59.6,44.5,66.2z"/>
	<path fill="#231F20" d="M38.9,66.2c-0.2,3.6-3.1,6.4-6.6,6.1c-3.4-0.2-6-3.5-5.7-7.1c0.2-3.6,3.2-6.4,6.6-6.1
		C36.6,59.4,39.2,62.6,38.9,66.2z"/>
	<path fill="#FFFFFF" d="M40.3,61.1c-0.2,1.7-1.5,3.1-3.2,3c-1.7-0.2-2.9-1.8-2.8-3.5c0.2-1.8,1.5-3.1,3.2-3
		C39.2,57.6,40.4,59.3,40.3,61.1z"/>
	<path fill="#FFFFFF" d="M30.9,70.5c-0.2,1.2-1.1,2.1-2.2,2c-1.1-0.2-1.9-1.2-1.7-2.3c0-1.2,0.9-2,2-1.8
		C30.1,68.3,30.9,69.3,30.9,70.5z"/>
	<path fill="#FFF0A7" d="M16.9,50.5c0.2-0.2,0.3-0.3,0.5-0.7C17.3,50.2,17.1,50.3,16.9,50.5z"/>
	<path fill="#FFD433" d="M35.5,106c-2.8,0-5.1-0.2-7-0.7C30.4,105.9,32.7,106,35.5,106c4.5,0,9.7-0.7,15.1-2
		c0.2-1.2,0.3-2.5,0.3-3.8c4.8-0.2,9.7-0.8,14.2-2.1c-0.5,0.2-0.8,0.5-1.2,0.8l0,0C55.3,104,43.8,106,35.5,106z M28.5,105.4
		L28.5,105.4L28.5,105.4z M14,100.7L14,100.7L14,100.7z M14,100.7L14,100.7L14,100.7z M13.1,100.6L13.1,100.6L13.1,100.6z
		 M13.1,100.6C8.4,99.1,3.5,93,3.5,86c0-3,0.9-6.1,3.2-9.1c7.9-10.4,6-20.2,10.2-26.4l0,0c0.2-0.2,0.3-0.3,0.5-0.7
		c0.8-1,2.2-2.5,4-4.1c0,0-6.3,14.7-5.9,19.5c0.3,5-11.3,16.4-5.1,23.8l0,0c-4-0.7-6.8-1.7-7-1.7C4.1,93.8,8.8,99.1,13.1,100.6z"/>
	<path fill="#FFE07A" d="M35.5,106c-2.8,0-5.1-0.2-7-0.7l0,0l0,0c-0.5,0-0.8-0.2-1.1-0.2l0,0c-8.8-2.6-7.1-3.3-13.4-4.5l0,0l0,0l0,0
		l0,0l0,0l0,0l0,0c-0.3,0-0.6-0.2-0.9-0.2l0,0l0,0l0,0l0,0l0,0c-4.3-1.5-9-6.8-9.6-13.2c0.2,0,2.9,1,7,1.7
		c4.6,5.6,20.9,11.4,37.6,11.4c1.1,0,2,0,2.9-0.2c0,1.3-0.2,2.6-0.3,3.8C45.2,105.4,40,106,35.5,106z"/>
	<path fill="#FFE14F" d="M64.7,99.6c-0.8-0.7-0.8-0.7-0.8-0.7c0-0.2,0-0.2,0.2-0.2c0.2,0.2,0.3,0.5,0.5,0.7L64.7,99.6z"/>
	<path fill="#FFC718" d="M64.5,99.4c-0.2-0.2-0.3-0.5-0.5-0.7l0,0C64.1,98.9,64.2,99.1,64.5,99.4z M70.7,96.9c-1.2-0.7-2-1-2.3-1.3
		c1.5-1.3,2.8-2.6,3.9-4.3c1.2-1.7,2-3.3,2.6-5.1c2.8-5.8,3.1-10.2,3.1-10.2l0,0C79.1,83.7,74.3,92,70.7,96.9z"/>
	<path fill="#FFD23A" d="M66.9,101.7c-2.2-2.1-2.2-2.1-2.2-2.1l-0.2-0.2c-0.3-0.3-0.5-0.5-0.5-0.7c1.5-1,2.9-2,4.3-3.1
		c0.3,0.3,1.1,0.7,2.3,1.3C68.6,99.9,66.9,101.7,66.9,101.7z"/>
	<path fill="#FFC718" d="M63.9,98.9L63.9,98.9c0.5-0.3,0.9-0.7,1.4-1c0,0-0.2,0-0.2,0.2c2.3-1.7,4-2.8,6.8-6.8
		c1.2-1.7,2.2-3.5,2.9-5.1c-0.6,1.8-1.4,3.5-2.6,5.1c-1.1,1.7-2.3,3-3.9,4.3c-1.4,1.2-2.8,2.1-4.3,3.1l0,0
		C63.9,98.8,63.9,98.8,63.9,98.9z"/>
	<path fill="#FFBB10" d="M63.9,98.9L63.9,98.9c0.5-0.3,0.8-0.7,1.2-0.8c0-0.2,0.2-0.2,0.2-0.2C64.9,98.3,64.4,98.6,63.9,98.9z"/>
</g>
</svg>
