<?xml version="1.0" encoding="utf-8"?>
<!-- Generator: Adobe Illustrator 16.0.0, SVG Export Plug-In . SVG Version: 6.00 Build 0)  -->
<!DOCTYPE svg PUBLIC "-//W3C//DTD SVG 1.1//EN" "http://www.w3.org/Graphics/SVG/1.1/DTD/svg11.dtd">
<svg version="1.1" id="Layer_1" xmlns="http://www.w3.org/2000/svg" xmlns:xlink="http://www.w3.org/1999/xlink" x="0px" y="0px"
	 width="130px" height="91px" viewBox="0 0 130 91" enable-background="new 0 0 130 91" xml:space="preserve">
<g>
	<path fill="#3D5A88" d="M78.6,71.3c0,1.3,1,14.8-0.3,15s-15.5,0.3-15.5,0.3c0.3-17.5,0.3-17.5,0.3-17.5
		C78.6,71.3,78.6,71.3,78.6,71.3z"/>
	<path fill="#3D5A88" d="M114.1,40.3c-0.3-0.3,1-3.8,4.5-5c3.5-1.5,11.3,2.5,10.8,3.3c-0.3,1-2.8,4.8-7.3,5.8
		C117.6,45.6,115.4,41.8,114.1,40.3z"/>
	<path fill="#5E86B6" d="M115.4,40.8c0,0,1.3-3.5,4.3-3.5c3-0.3,6.5,1.8,6.8,2.3c0.3,0.8-2.3,3.5-5.5,3.5
		C117.9,43.1,115.9,42.1,115.4,40.8z"/>
	<path fill="#4F71A4" d="M98.1,29.1c0,0,9,12.5,23.8,11c-1,3.3-14.5,3-22.5-6.5C97.6,30.6,98.1,29.1,98.1,29.1z"/>
	<path fill="#4F71A4" d="M104.4,51.8c-0.5,18-1.3,32.8-2.3,34.3c-0.3,0.3-0.8,0.3-1.3,0.3c-2.8,0.5-9.5,0.3-13.3,0
		c-1.5-0.3-2.5-0.3-2.8-0.5c-0.3,0-0.5-0.8-0.5-2c-0.3-3.3,0.5-9.5,1-15c0.3-4.5,0.8-8.5,0.8-8.5s1.3-36.8,11.3-36.5
		C97.4,23.8,104.4,36.1,104.4,51.8z"/>
	<path fill="#4D9ADA" d="M87.6,86.3c-1.5-0.3-2.5-0.3-2.8-0.5c-0.3,0-0.5-0.8-0.5-2c-0.3-3.3,0.5-9.5,1-15c1.8-0.3,1.8-0.3,1.8-0.3
		C87.1,69.1,87.4,80.3,87.6,86.3z"/>
	<path fill="#3D5A88" d="M97.4,72.6c0-1.5-10-1.5-9.8,0C87.9,74.3,97.4,74.8,97.4,72.6z"/>
	<path fill="#3D5A88" d="M97.4,76.1c0-1.5-8.5-1.5-8.5,0C89.1,77.3,97.4,77.8,97.4,76.1z"/>
	<path fill="#CDDDF3" d="M100.9,86.3c-3.8,0.5-14.5,0.3-16-0.5c-0.3,0-0.5-0.8-0.5-2c0.5-1.8,1-3.5,2-3.8c2.3,0,2.8,5,2.8,5
		s0.8-6,3.3-5.5s2.8,5,2.8,5s1-5.8,2.8-4.8C99.1,80.6,100.4,84.3,100.9,86.3z"/>
	<path fill="#4F71A4" d="M101.9,43.1c-0.3,1.3-0.3,2.8-0.5,4.3c-1.3,7-4,16.5-11.3,22c-8.8,6.8-39,2.8-45.3-0.3
		c-1.8-1-3.3-2.5-4.3-4.3c-3.3-4.8-4.5-11-4.5-11c-1-6.3,6.5-34.5,10.3-37s41.8-6.5,46.5-1.3S102.1,36.3,101.9,43.1z"/>
	<path fill="#3D5A88" d="M101.4,47.3c-1.3,7-4,16.5-11.3,22c-8.8,6.8-39,2.8-45.3-0.3c-1.8-1-3.3-2.5-4.3-4.3c0-3.8,0.3-7.8,0.8-7.3
		c1,0.8,1.3,5.5,3,6.3s6.5,1.8,9,1.5c0.8-0.5,2.5-5.8,2.5-5.8s5.8,8.3,6.3,8.5s23.8-1.5,28.3-3.5C93.6,62.8,98.6,52.8,101.4,47.3z"
		/>
	<path fill="#3D5A88" d="M42.9,55.1c0.5,0,13.5-1.3,17.3-3.3c3.5,5.8,7.8,11,10.8,11.3c2.8,0,11.8-2.5,14.3-6.3s1.3-10.5,1.3-10.5
		C61.9,35.1,61.9,35.1,61.9,35.1C41.6,47.8,41.6,47.8,41.6,47.8C42.9,55.1,42.9,55.1,42.9,55.1z"/>
	<path fill="#5E86B6" d="M86.9,16.1c0-0.8,3.5,0.5,5.5,2.3c2,2,8.8,23,7.8,26.5c-1.8,4.8-7.3,16.8-9,16.8
		c-1.3,0.3,4.5-16.8,4.3-19.5c-0.3-2.5-3.8-20.5-5-22.3C88.9,18.1,86.9,16.8,86.9,16.1z"/>
	<path fill="#4F71A4" d="M78.1,88.3c0,0.3,0,0.5-0.3,0.5c-0.5,0.5-10.3,0.8-16,0.3c-0.3-0.3-0.8-0.3-1-0.3c-1.5-0.3-2.5-0.5-2.8-0.8
		c-0.8-1-2.3-18-3.3-28.8c-0.3-5-0.8-8.5-0.8-8.8c0-9.3,0-9.3,0-9.3s18.5,2.5,18.8,3.8c0.3,1,1.5,28.5,1.5,28.5S78.1,85.6,78.1,88.3
		z"/>
	<path fill="#4D9ADA" d="M61.9,89.1c-0.3-0.3-0.8-0.3-1-0.3c-1.5-0.3-2.5-0.5-2.8-0.8c-0.8-1-2.3-18-3.3-28.8
		C55.6,62.3,60.1,83.3,61.9,89.1z"/>
	<path fill="#CDDDF3" d="M78.1,88.3c0,0.3,0,0.5-0.3,0.5c-0.5,0.5-11.8,0.8-17,0c0.5-1.3,1.3-3.5,2.3-4c1.3-0.5,3.8,3.5,3.8,3.5
		s0.8-4.5,2.8-4.3s2.8,4,3,4c0-0.3,1.5-4.8,2.8-4.3C76.4,84.1,77.6,86.6,78.1,88.3z"/>
	<path fill="#3D5A88" d="M70.6,73.1c0,0-9.5-1.8-8.5,0.3c1.3,2,8,3.3,10,1.8C74.4,73.8,70.6,73.1,70.6,73.1z"/>
	<path fill="#3D5A88" d="M70.6,77.3c0,0-6.3-1-6,0.8c0,1.8,8.3,2,8.5,0.8S70.6,77.3,70.6,77.3z"/>
	<path fill="#4F71A4" d="M45.4,39.8c0,9,0,9,0,9c-0.3,0.8-2.8,33.3-3.8,37.3c0,0.3,0,0.3-0.3,0.5c0,0.3-0.8,0.5-2,0.5
		c-3.8,0.8-11.5,0.8-15.5,0.5c-1.3,0-2-0.3-2.3-0.3c-0.3-0.3-0.3-0.8,0-1.5l0,0c0.5-3.8,3.8-13.8,3.8-13.8s0.3-5,0.5-10.8l0,0
		c0.3-8,0.8-17.3,1-18C27.1,42.3,45.4,39.8,45.4,39.8z"/>
	<path fill="#4D9ADA" d="M27.4,73.1c-0.5,2.5-2.5,10.8-3.5,14.5c-1.3,0-2-0.3-2.3-0.3c-0.3-0.3-0.3-0.8,0-1.5l0,0
		c0.5-3.8,3.8-13.8,3.8-13.8s0.3-5,0.5-10.8C25.9,62.8,27.6,71.1,27.4,73.1z"/>
	<path fill="#3D5A88" d="M45.4,39.8c0,9,0,9,0,9c-0.3,0.8-2.8,33.3-3.8,37.3c-6.5-4.3-10.8-19.3-11.8-23.8c-0.5,0-2.5-0.5-4-1
		c0.3-8,0.8-17.3,1-18C27.1,42.3,45.4,39.8,45.4,39.8z"/>
	<path fill="#CDDDF3" d="M39.4,87.1c-4.8,1-17,0.8-17.8,0.3c-0.3-0.3-0.3-0.8,0-1.5l0,0c1-2,2.3-3.8,3.3-3.5
		c1.5,0.3,2.5,3.8,2.5,3.8s2-5.5,3.8-4.5c1.5,1,2.5,4,2.5,4s1.8-3.8,3.5-3.3C38.1,82.6,38.9,85.1,39.4,87.1z"/>
	<path fill="#5E86B6" d="M30.9,43.1c-0.5,3.3-8.8,15.8-13.3,16.3c-0.5,0.3-1,0.3-1.5,0c-4.8-0.3-13-4.8-14.5-9.5
		c-1.5-4,1.3-41.3,10-46.8c0,0,0.3,0,0.3-0.3c8.8-5,16.5,5.8,16.5,5.8S31.6,39.8,30.9,43.1z"/>
	<path fill="#4F71A4" d="M27.4,11.8c0,0,0,2,0,5.3c0,9.3-0.3,27.5-1,28.5c-0.8,1.5-6.5,8.8-9.5,9.8c-3.3,1.3-11-3.3-11.8-6.3
		c-1-3,2-21.5,4-31.3c0.5-2.8,1-5,1.3-5.8c1.3-3.5,2.8-7.8,6.3-7.3C19.9,5.1,27.4,11.8,27.4,11.8z"/>
	<path fill="#3D5A88" d="M27.4,11.8c0,0,0,2,0,5.3c-0.5,2.5-0.5,2.5-0.5,2.5s-7.8-6.5-11.5-7.8c-2.3-0.5-4.8,3.3-6.3,6
		c0.5-2.8,1-5,1.3-5.8c1.3-3.5,2.8-7.8,6.3-7.3C19.9,5.1,27.4,11.8,27.4,11.8z"/>
	<path fill="#3D5A88" d="M23.6,28.6c0,0-7.5-1.3-8.3,0.3c-0.8,1.3,8.5,3.5,8.5,3.5C23.6,28.6,23.6,28.6,23.6,28.6z"/>
	<path fill="#5E86B6" d="M63.6,8.6c0,0,3.8-3.8,8-6c1-0.5,7.3-1.3,9.5,1c5.5,4.8,10.5,42.3,9.3,46.3c-2,5.3-11.5,10-16,9.5
		s-12.8-13-13.5-16.3C60.4,39.8,63.6,8.6,63.6,8.6z"/>
	<path fill="#4F71A4" d="M64.4,11.8c0,0,0,2,0,5.3c0.3,9.3,0.5,27.5,1,28.5c1,1.5,6.8,8.8,9.5,9.8c3.5,1.3,11-3.3,12-6.3
		c0.8-3-2.3-21.5-4.3-31.3c-0.5-2.8-1-5-1.3-5.8c-1-3.5-3.3-6-6.5-5.5C71.4,7.1,64.4,11.8,64.4,11.8z"/>
	<path fill="#3D5A88" d="M64.4,11.8c0,0,0,2,0,5.3c0.5,2.5,0.5,2.5,0.5,2.5s8-6.5,11.8-7.8c2.3-0.5,4.5,3.3,6,6c-0.5-2.8-2-9-2.3-10
		c-0.5-2-5.3-3.5-7-2.8C70.1,6.6,64.4,11.8,64.4,11.8z"/>
	<path fill="#3D5A88" d="M64.6,28.6c0,0,7.5-1.3,8.3,0.3c1,1.3-8.5,3.5-8.5,3.5C64.6,28.6,64.6,28.6,64.6,28.6z"/>
	<path fill="#5E86B6" d="M64.6,45.8c-1.8,4.5-20.5,6.8-32.5,4.8c-4.5-0.8-8.3-2.3-9.8-4.5c-4-9.5,3.5-40,6.5-41.8
		c0.8-0.3,1.5-0.5,2.5-1c9.8-3,31.5-2.5,33.8,3.3C67.4,12.8,66.9,39.8,64.6,45.8z"/>
	<path fill="#4D9ADA" d="M32.1,50.3c0,0.3,0,0.3,0,0.3c-4.5-0.8-8.3-2.3-9.8-4.5c-4-9.5,3.5-40,6.5-41.8c0.8-0.3,1.5-0.5,2.5-1
		c-1,1-2,2.5-2.8,4.5c-1.5,3.5-7,31.8-3.8,36S32.1,50.3,32.1,50.3z"/>
	<path fill="#3D5A88" d="M47.4,28.3c0,0-1.5,5,2.8,7.5c4.3,2.8,8.3-1,8.5-4.3c0.5-3.3-2.3-5.5-2.3-5.5
		C47.4,28.3,47.4,28.3,47.4,28.3z"/>
	<path fill="#3D5A88" d="M34.4,27.1c0,0,0.8,5.5-2,7.8c-2.5,2.5-8,2.5-8.8-3.8c-0.8-6.5,5.5-7.3,5.5-7.3
		C34.4,27.1,34.4,27.1,34.4,27.1z"/>
	<path fill="#CDDDF3" d="M35.6,51.3L35.6,51.3c-0.3,0.3-3.8,4.5-7,5.3c-3.5,1-9.8-1.3-9.8-2c0-0.3,0-0.3,0-0.3c0-0.8,4.8-2,6.8-3
		c1.8-1.3,7.8-8.5,7.8-8.5C36.9,44.8,35.6,51.3,35.6,51.3z"/>
	<path fill="#FFFFFF" d="M26.9,51.8c-0.8,0.3-6.3,1.8-5.8,2c0.3,0.3,5,0,6-0.8c1.3-0.5,4.8-3.3,5.8-5c1-1.5-0.3-3.5-0.3-3.5
		S27.4,51.6,26.9,51.8z"/>
	<path fill="#BCB1DD" d="M35.6,51.3c-0.3,0.3-3.8,4.5-7,5.3c-3.5,1-9.8-1.3-9.8-2c0-0.3,0-0.3,0-0.3c2,0.5,5.3,1,7.3,0.8
		c2.5-0.8,8.3-6.8,8.3-6.8C35.6,51.3,35.6,51.3,35.6,51.3z"/>
	<path fill="#CDDDF3" d="M44.1,51.3L44.1,51.3c0.3,0.3,3.8,4.5,7,5.5c3.5,1,9.8-1.5,9.8-2.3l0,0c0-0.8-4.8-2.3-6.8-3.3
		c-1.8-1-7.8-8.5-7.8-8.5C42.9,44.8,44.1,51.3,44.1,51.3z"/>
	<path fill="#FFFFFF" d="M52.9,51.8c0.8,0.3,6.3,1.8,5.8,2c-0.3,0.5-5,0-6-0.5c-1.3-0.5-4.8-3.5-5.8-5c-1-1.8,0.3-3.5,0.3-3.5
		S52.4,51.6,52.9,51.8z"/>
	<path fill="#BCB1DD" d="M44.1,51.3c0.3,0.3,3.8,4.5,7,5.5c3.5,1,9.8-1.5,9.8-2.3l0,0c-2,0.5-5.3,1-7.3,0.5
		c-2.5-0.5-8.3-6.8-8.3-6.8C44.1,51.3,44.1,51.3,44.1,51.3z"/>
	<path fill="#FFFFFF" d="M51.9,24.1c-1.8,0.3-4.8,2.5-4.5,6.3c0,3.5,3.3,6.3,7,4.8c3.8-1.3,4.3-5.5,3.3-8S53.9,23.8,51.9,24.1z"/>
	<path fill="#341F17" d="M56.4,28.6c-0.3,0.3-0.3,0.3-0.5,0.5l0,0c-0.3,0-0.5,0.3-0.5,0.3c-0.3,0-0.5,0-0.8,0c-0.5,0-1-0.3-1.3-0.5
		c-0.5-0.5-0.8-1-0.8-1.5c0-0.3,0.3-0.5,0.3-0.8s0.3-0.5,0.5-0.8c0-0.3,0.3-0.3,0.3-0.3c-0.3-0.3-0.5-0.3-0.8-0.3
		c-2.5,0-4.3,2-4.3,4.5s1.8,4.5,4.3,4.5c2.3,0,4-2,4-4.5c0-0.5,0-1-0.3-1.5L56.4,28.6z"/>
	<path fill="#FFFFFF" d="M28.4,23.8c-1.5,0.3-4.5,2.5-4.5,6.3c0.3,3.5,3.5,6.3,7.3,4.8c3.8-1.3,4-5.5,3.3-8
		C33.4,24.3,30.6,23.6,28.4,23.8z"/>
	<path fill="#341F17" d="M33.1,28.3c-0.3,0.3-0.3,0.3-0.5,0.5c-0.3,0-0.3,0-0.3,0s-0.3,0.3-0.5,0.3c0,0-0.3,0-0.5,0
		c-0.5,0.3-1-0.3-1.5-0.5c-0.3-0.5-0.5-1-0.5-1.5c0-0.3,0-0.5,0.3-0.8c0-0.3,0.3-0.5,0.3-0.8c0.3-0.3,0.3-0.3,0.5-0.3
		c-0.3-0.3-0.5-0.3-1-0.3c-2.3,0-4,2-4,4.5s1.8,4.5,4,4.5s4.3-2,4.3-4.5c0-0.5-0.3-1-0.3-1.5L33.1,28.3z"/>
	<path fill="#5E86B6" d="M32.6,39.1c-1,0.8-1.5,18.8,0.3,25c1.5,6.3,6,18,8,17.8c2-0.5,1.8-3.8,1.8-3.8s3,2.8,4,1.3
		c0.8-1.8-2.3-12.5-2.8-16.8c-0.3-4.5,4-19.3,3.3-21.8S36.9,34.1,32.6,39.1z"/>
	<path fill="#3D5A88" d="M42.9,37.1c0,0-9-0.8-8.3,0.8c1,1.5,9.5,1.5,10,0.5S42.9,37.1,42.9,37.1z"/>
	<path fill="#3D5A88" d="M43.4,41.6c-2.3-1-6-1-8.5,0c-0.5,0.3-0.5,1,0.3,1.3c1.3,0,2.5,0,3.8-0.3c1.5,0,3,0.3,4.3,0
		C43.6,42.6,43.9,41.6,43.4,41.6z"/>
	<path fill="#4F71A4" d="M58.9,20.8c-1.8-2-6-4.8-7.3-4.5c-2.5,0.5-5.3,6.8-4.5,7.3s5.8-2.5,6.3-2.5c0.5-0.5,3.3,1.3,3.8,1.5
		s2,1,2.5,0.5S59.6,21.8,58.9,20.8z"/>
	<path fill="#4F71A4" d="M24.6,20.8c1.8-2,6.3-4.8,7.5-4.5c2.3,0.5,5,6.8,4.3,7.3s-5.8-2.5-6-2.5c-0.5-0.5-3.5,1.3-4,1.5
		s-1.8,1-2.3,0.5S23.9,21.8,24.6,20.8z"/>
	<path fill="#4F71A4" d="M37.1,25.3c0,0,8.3-0.3,8.8,0.5c0.8,1-5.3,2-8,1.3C34.9,26.6,35.4,25.6,37.1,25.3z"/>
	<path fill="#4F71A4" d="M37.4,28.6c0.3,0,8.3-0.3,8.8,0.8c0.8,1-5.3,1.8-8,1.3C35.4,29.8,35.6,29.1,37.4,28.6z"/>
	<path fill="#7098BC" d="M33.9,45.6c0,0-0.8,13,0,17c0.8,3.8,5.8,16.3,6.5,15.3s-2-14.5-2.3-16.5c0-1.8,0.8-14.8,0.3-16.3
		C37.9,43.8,34.9,42.8,33.9,45.6z"/>
	<path fill="#7098BC" d="M41.1,4.8c0,0.8,15,1,17.8,2.8c2.5,1.8,4.8,27.3,5.5,26.8s0.8-21.5-1.5-27.8C61.9,3.8,40.9,4.1,41.1,4.8z"
		/>
	<path fill="#4D9ADA" d="M16.1,59.3c-4.8-0.3-13-4.8-14.5-9.5c-1.5-4,1.3-41.3,10-46.8c0,0,0.3,0,0.3-0.3c-1.5,2.8-4.5,8.8-5.5,13.8
		c-1.3,6.5-4.3,31-3,34C4.6,53.1,11.9,57.3,16.1,59.3z"/>
</g>
</svg>
