<?xml version="1.0" encoding="utf-8"?>
<!-- Generator: Adobe Illustrator 16.0.0, SVG Export Plug-In . SVG Version: 6.00 Build 0)  -->
<!DOCTYPE svg PUBLIC "-//W3C//DTD SVG 1.1//EN" "http://www.w3.org/Graphics/SVG/1.1/DTD/svg11.dtd">
<svg version="1.1" id="Layer_1" xmlns="http://www.w3.org/2000/svg" xmlns:xlink="http://www.w3.org/1999/xlink" x="0px" y="0px"
	 width="302px" height="211px" viewBox="0.4 0.4 302 211" enable-background="new 0.4 0.4 302 211" xml:space="preserve">
<g>
	<path fill="#F0E613" d="M151.9,204.7c-1,0.2,0.7,1.2,1.5,0.5c9.3-5.8,21.2-2,32-0.5c10.1,1.7,20.7,1.2,30.5-1.2
		c7.1-2,14.3-5.2,17.2-12c3.5-8.6-2-17.8-7.3-25.3c-2-2.7-4-5.5-6.1-8.6c-1-1.2-2-2.5-3.2-3c-1.7-0.7-3.7-0.2-5.5,0.5
		c-9.3,3-18.4,7.1-27.2,11.7C151.9,204.7,151.9,204.7,151.9,204.7z"/>
	<path fill="#F5A419" d="M221.9,190.6c-1.2,0-2.7,0.5-4.2,0.5c-1.5,0.2-3,0.5-4.7,0.7c-3,0.3-6.1,0.5-9.1,0.5
		c-3.2,0.2-6.3,0.2-9.3,0c-2.7-0.2-5.5-0.5-8.3-1c-2-0.5-4.2-1.5-5.2-3.5c-0.7-1.5-3.2-0.5-2.7,1.2c1.7,5.2,8.6,5.8,13.3,6.1
		c6.8,0.5,13.6,0.5,20.2-0.7c1.7-0.2,3.7-0.7,5.5-1.2c1.5-0.5,3.5-1,5-2C222.4,191.1,222.4,190.6,221.9,190.6L221.9,190.6"/>
	<path fill="#F5A419" d="M219.9,182.2c-2-0.5-4-0.5-5.8-1.2c-2-0.5-4-1.2-5.8-2c-3.5-2-6.6-4.5-9.3-7.6c-1-1-3,0.2-2,1.5
		c2.5,3.5,6.3,6.3,10.3,8.1c2,0.7,4,1.5,6.3,2c2,0.2,4.2,0.7,6.3,0.2C220.4,183.2,220.4,182.4,219.9,182.2L219.9,182.2"/>
	<path fill="#1D1B19" d="M216.8,190.4c1.2,1,2.5,1.7,4,2.5c5.2,1.7,7.8-4.5,4.2-8.3c-1.2-1.2-3.5-1-5.2-1
		C216.1,184.1,213.1,187.4,216.8,190.4z"/>
	<path fill="#F0E613" d="M63.7,67.8C81,36.3,114,14.8,149.3,6.8c18.4-4.2,38.3-4.7,56,2c8.6,3.2,16.9,8.8,21.2,17.3
		c4,8.3,2.5,19.8-5,25c3.7,7.1,7.3,14.2,9.8,21.8c2.2,6.1,3.7,13.2,0.5,18.8c-2.2,3.7-6.6,6.1-10.6,8.3c-8.1,4-16.3,8.3-25.2,10.5
		c-12.6,3.2-26.2,2.2-38.8,5.8c-19.4,5-34.8,19.3-49.1,33C63.7,67.8,63.7,67.8,63.7,67.8z"/>
	<path fill="#F5A419" d="M177.6,11.8c-2.5,0-5.2,0.2-7.8,0.7c-2.5,0.2-5,0.7-7.6,1.2c-5.2,1.2-10.3,3-15.1,5
		c-9.6,4-18.7,9.8-26.4,16.4c-2.2,2-4.5,4-6.6,6.1c-2,2-4.2,4.2-5.8,7.1c-1,1.7,1.2,3.5,2.7,2.2c2-1.7,3.5-4,5-5.8
		c1.7-2,3.5-3.7,5.2-5.5c3.7-3.5,7.8-6.8,11.8-9.8c8.6-5.8,17.9-10.3,27.7-13.2c2.5-1,5.2-1.7,8.1-2.2c2.7-0.7,5.8-1,8.6-1.7
		C177.8,12.3,177.8,11.8,177.6,11.8L177.6,11.8"/>
	<path fill="#F5A419" d="M219.2,29.4c-4-0.2-8.1,0.7-11.8,1.7c-4,0.7-7.8,2-11.6,3.5c-7.3,3-14.1,7.3-20.4,12
		c-1.7,1.5-3.5,2.7-5,4.2c-1.7,1.7-3.5,3.2-5,5.2c-1,1.5,1.2,3,2.5,1.7c1.5-1.2,2.7-2.7,4-4c1.2-1.5,2.7-2.7,4.2-4
		c3-2.5,6.1-4.7,9.3-6.8c6.6-4.2,13.6-7.6,21.2-9.8c2-0.7,4-1.2,6.1-1.7c2.2-0.5,4.5-0.7,6.6-1.5C219.7,30.1,219.4,29.4,219.2,29.4
		L219.2,29.4"/>
	<path fill="#F5A419" d="M199.5,19.3c-2,0-4.2,0.2-6.3,0.5c-2,0.2-4.2,0.7-6.3,1.2c-4.2,1-8.3,2.2-12.3,3.7
		c-7.8,3-15.3,7.3-22.2,12.5c-3.7,3-7.6,6.1-10.8,9.8c-1,1.5,0.7,3.5,2.2,2c3-3,5.8-6.1,9.1-8.8c3.2-2.5,6.6-5,10.1-7.3
		c7.1-4.2,14.8-7.6,22.9-10.1c2.2-0.5,4.2-1.2,6.6-1.7c2.5-0.2,4.7-0.7,7.3-1.2C200.3,20,200,19.3,199.5,19.3L199.5,19.3"/>
	<path fill="#F5A419" d="M229.2,79.8c-3.7-0.7-7.8-0.5-11.8-0.2c-3.7,0.5-7.8,1.2-11.6,2.2c-7.8,2-15.3,5-22.7,8.3
		c-4.2,1.7-8.6,3.7-12.6,5.8c-0.8,0.2-1,1.2-0.5,2c0.5,0.7,1.2,0.7,2,0.5c7.3-3.2,14.3-6.8,21.9-9.8c7.3-2.7,14.6-5.2,22.4-6.6
		c4.2-0.7,8.6-1.2,12.8-2C229.4,80,229.4,79.8,229.2,79.8L229.2,79.8"/>
	<path fill="#F5A419" d="M223.9,67.3c-4-0.7-8.1-0.5-12.1,0c-3.7,0.5-7.8,1.5-11.6,2.5c-7.8,2.2-15.3,5.5-22.7,9.1
		c-4.2,2-8.3,4-12.3,6.1c-1.5,1-0.3,3,1.2,2.2c14.1-7.3,28.5-14.4,44.4-17.3c2-0.5,4.2-0.7,6.3-0.7c2.2-0.2,4.5-0.2,6.8-0.7
		C224.4,68.3,224.4,67.3,223.9,67.3L223.9,67.3"/>
	<path fill="#F5A419" d="M212.4,52.1c-3.7-0.7-8.1-0.2-11.8,0.2c-4,0.5-8.1,1.5-11.8,2.5c-7.8,2.2-15.3,5.5-22.7,9.1
		c-4.2,2-8.3,4-12.3,6.1c-1.5,0.7-0.2,3,1.2,2.2c14.1-7.3,28.5-14.4,44.4-17.3c2-0.5,4.2-0.7,6.3-1c2.2,0,4.5-0.2,6.8-0.5
		C212.9,53.4,212.9,52.4,212.4,52.1L212.4,52.1"/>
	<path fill="#4F82CB" d="M303.8,159.9c-0.7-0.3-3.5,0.5-6.3,1.5c-3.2,1.2-6.8,2.7-8.1,3c-5.2,1-10.6,1.2-15.8,1.2
		c-11.1-0.5-21.9-3.2-31.5-8.3c-2.2-1-4.2-3-6.6-3.7c-3.5-1.5-2.7-1.7-4.7,2c-7.6,14.7-20.4,25-34.5,32.7c-2.7,1.5-5.2,2.7-8.1,4
		c-19.7,9.6-39.6,16.4-61.4,17c-5.2,0.2-10.6,0-15.8-0.5c-11.6-1-22.9-3.7-34.3-7.1c-8.1-2.5-15.8-5.2-23.7-8.1
		c-10.8-4-21.7-8.6-31-15.2c-9.3-6.6-17.2-15.4-20.4-26.3v-0.2c0-0.2-0.3-0.2-0.3-0.2c2-1.2,4.2-2,6.6-2c-2,0-4.7-3-4.5-5
		c0-0.2,0-0.5,0.2-0.7c0.3-1.5,1.5-1.2,3.2-1.5c5.8-1,8.8-5,11.1-10.3c7.3-15.7,12.3-33,21.7-47.8c9.1-14.2,22.7-25.5,37.8-33.2
		c7.6-3.7,15.8-7.1,24.4-9.3c8.8-2.5,17.9-4.2,26.7-4.7l0,0c0.5,0,0.7-0.2,1.2-0.2c12.6-0.7,25.4,0.5,37.8,4
		c4.2,1.2,8.6,2.7,12.8,4.7c9.8,4.5,18.7,11,26.4,18.5c0.7,0.5,1.5,1.2,2,1.7c5.8,5.8,11.1,12.2,15.6,18.8c2.2,3.5,4.5,7.1,6.6,10.5
		c1,1.5,1.5,3.7,3.5,2.7c1.2-0.5,1.7-3.2,2.5-4.2c2.7-4,6.1-7.8,9.8-11c5-4.5,10.6-8.1,16.8-10.3c3.2-1.5,7.3-2.7,11.1-3.2
		c2.5-0.5,5-0.7,7.3-0.5c0.5,0,3.2,0.7,5,1.2c1.2,0.5,2,1,2,1.2c-11.1,20-12.8,45-4.5,66.6c2,5.2,4.7,10.5,8.6,14.4
		C296.2,155.6,299.8,158.4,303.8,159.9z"/>
	<path fill="#1D1B19" d="M194.4,36.8c2.3,1.9,4.7,3.7,7.6,4.5c9.8,3.5,14.6-8.3,8.1-14.9c-2.5-2.5-6.6-2-10.1-1.7
		C193.2,25.1,187.7,31.3,194.4,36.8z"/>
	<path fill="#1D1B19" d="M164.2,30.4c1.2,1,2.5,2,4,2.5c5.2,1.7,7.8-4.5,4.2-8.3c-1.2-1.2-3.5-1-5.2-0.7
		C163.5,24,160.4,27.4,164.2,30.4z"/>
	<path fill="#1D1B19" d="M132.7,27.1c0.8,0.7,1.7,1.2,2.7,1.7c4,1.2,5.8-3.2,3.2-6.1c-1-0.7-2.5-0.7-4-0.5
		C132.2,22.5,130,24.8,132.7,27.1z"/>
	<path fill="#3165AB" d="M303.8,159.9c-0.7-0.3-3.5,0.5-6.3,1.5c-3.2,1.2-6.8,2.7-8.1,3c-5.2,1-10.6,1.2-15.8,1.2
		c-11.1-0.5-21.9-3.2-31.5-8.3c-2.2-1-4.2-3-6.6-3.7c-3.5-1.5-2.7-1.7-4.7,2c-7.6,14.7-20.4,25-34.5,32.7c-2.7,1.5-5.2,2.7-8.1,4
		c-19.7,9.6-39.6,16.4-61.4,17c-5.2,0.2-10.6,0-15.8-0.5c-11.6-1-22.9-3.7-34.3-7.1c-8.1-2.5-15.8-5.2-23.7-8.1
		c-10.8-4-21.7-8.6-31-15.2c-9.3-6.6-17.2-15.4-20.4-26.3c33,25.5,74.9,39.3,116.4,38.5c42.4-0.7,83.9-16.2,115.9-43.5
		c14.3,7.8,31.3,11.2,47.4,9.8c4-0.5,8.1-1,11.1-3.7c0.3-0.2,0.7-0.5,1-1C296.2,155.6,299.8,158.4,303.8,159.9z"/>
	<path fill="#F0E613" d="M143.6,111.4c1.5-2.2,3.5-4.5,5.8-6.3c2.5-1.5,5.5-2.2,8.3-1.5c3,1,5.2,4,5.8,7.3c0.5,3-0.5,6.3-2,9.1
		c-1.2,2.2-2.7,4-3.7,6.1c-1,2.2-1.2,4.7,0,6.8s4,2.7,5.8,4.7c2.5,2.7,1.5,7.6-0.5,10.7c-5,7.3-14.6,10.1-23.2,8.8
		c-6.8-0.7-13.3-3.7-17.7-9.1c-4.2-5.5-6.3-15.2,1.5-18.5c4.2-1.7,7.8-2.5,11.3-6.1C138.3,119.9,140.8,115.4,143.6,111.4z"/>
	<path fill="#98D5F4" d="M135.5,74.1c-2,5.5-4.7,10.7-6.3,16.2c-1.7,7.3-1,14.4-0.5,22c0.5,7.3,1,14.7-1.2,21.8
		c-1.5,4.5-4.2,8.8-7.8,11.5c-2,1.7-4.5,2.7-7.1,3.2c0.7-1.7,1.7-3.5,2.2-5.5c1-2.2,1.5-4.7,1.5-7.3c-0.2-4.7-2.7-9.1-4-13.7
		c-3.5-12,2.2-24.5,3.2-36.7c0.5-9.6-1.7-18.5-6.3-26.8c-2.2-4.5-7.8-11-7.6-16.7c8.8-2.5,17.9-4.2,26.7-4.7l0,0
		c3.2,2.2,5.8,5.8,7.3,9.3C139.7,55,138.7,65.3,135.5,74.1z"/>
	<path fill="#98D5F4" d="M119.6,172.7c0.2,4.5,2.5,8.8,2.5,13.2c0,5-2.5,9.6-5,13.7c-1.7,3.2-3.7,6.6-6.3,9.3
		c-11.6-1-22.9-3.7-34.3-7.1c3.7-2,7.6-3.7,9.3-5.5c3.5-3.5,6.6-7.3,8.8-11.2c1.5-2.7,3-5.5,4.2-8.3c1.2-2.7,2.5-5.2,3.7-8.1
		c2.7-5.5,5.2-10.7,7.8-16.2c0.5-1,1-2,1.5-3c1-2,1.7-4,2.7-6.3c1-2,2-4,3-6.3c0,3,0.7,5.8,1.7,8.6c1,3,2.2,6.1,2.5,9.3
		C122.4,160.9,119.4,166.6,119.6,172.7z"/>
	<path fill="#98D5F4" d="M196.3,88.3c-0.4,5,1.7,10.1,2.5,15.2c2,13-4.2,26.5-13.6,35.7c0.8-9.6,5.8-18.8,5-28.3
		c-0.5-4.7-2.5-9.3-5-13.2c-2.7-4.5-6.3-8.6-7.3-13.5c-1.5-7.6,3-14.7,4.5-22.3c1-5.5,0.3-11.2-2-16.2c9.8,4.5,18.7,11,26.4,18.5
		c-0.5,2.2-1.7,4.5-2.7,6.8C200.8,76.5,196.8,81.9,196.3,88.3z"/>
	<path fill="#98D5F4" d="M297.6,161.4c-0.2,0.1-0.2-0.2-0.5-0.2c-2.2-0.7-4-1.7-6.1-3c-3.5-2.2-6.6-4.7-9.3-8.1
		c-2.5-3-4.5-6.1-6.3-9.3c-1.7-4-3.2-8.1-4.2-12c-0.8-4.2-1.5-8.8-1.5-13c0-4.5,0.5-9.1,1.2-13.2c1.5-7.3,4-14.4,7.8-21
		c1.7-3.5,4.2-6.8,6.8-9.6c0.7-0.7,1.2-1.2,1.7-2c1.2,0.5,2,1,2,1.2c-11.1,20-12.8,45-4.5,66.6c3.5,9.3,9.8,18.5,19.2,22
		C303.1,159.6,300.3,160.4,297.6,161.4z"/>
	<path fill="#FFFFFF" d="M97.7,90.8c-2.9-5.1-7.1-9.6-12.8-11.7c-9.8-3.7-22.7-2.2-30.3,5c-10.6,9.8-8.6,26.5,2,35.5
		c11.1,9.1,30.8,12.2,40.9,0C104.2,111.1,102.7,99.6,97.7,90.8z"/>
	<path fill="#1D1B19" d="M56.8,103.9c0,12.7,12.8,22,24.2,16.8c7.3-3.5,10.6-10.3,9.6-18.3c-0.7-4.7-4-8.8-8.3-11
		c-8.8-4.5-20.7-1.7-24.4,8.1C57.3,100.8,56.8,102.3,56.8,103.9z"/>
	<path fill="#FFFFFF" d="M75,93.7c-2.4,0.9-4.2,3.7-4.2,7.1c0,1,0.5,2,1.2,2.7c2,1.7,5,2,7.3,0.7c2.2-1.5,3.2-4.2,2.7-6.8
		C80.8,93.4,77.8,92.7,75,93.7z"/>
	<path fill="#3165AB" d="M25.3,152.7c-0.7,0-20.9-2-23.7-0.7c0,0-0.2,0-0.2,0.2c0-0.2-0.3-0.2-0.3-0.2c2-1.2,4.2-2,6.6-2
		c-2,0-4.7-3-4.5-5c0-0.2,0-0.5,0.2-0.7c0-0.2,0-0.2,0-0.2S6.2,150.2,25.3,152.7"/>
</g>
</svg>
