<?xml version="1.0" encoding="utf-8"?>
<!-- Generator: Adobe Illustrator 16.0.0, SVG Export Plug-In . SVG Version: 6.00 Build 0)  -->
<!DOCTYPE svg PUBLIC "-//W3C//DTD SVG 1.1//EN" "http://www.w3.org/Graphics/SVG/1.1/DTD/svg11.dtd">
<svg version="1.1" id="Layer_1" xmlns="http://www.w3.org/2000/svg" xmlns:xlink="http://www.w3.org/1999/xlink" x="0px" y="0px"
	 width="400px" height="300px" viewBox="0 0 400 300" enable-background="new 0 0 400 300" xml:space="preserve">
<g>
	<path fill="#7CB72A" d="M83.9,125.3c5-18.8,3-39.1,7.6-58.1c8.8-37.3,43.8-66.1,81.1-67.1c5.8-0.3,12.3,0.5,16.1,5.1
		c5.8,6.7,2.8,17.7,8.1,24.7c9.6,12.9,33.5-1.5,44.6,10.3c5.3,5.4,4.5,14.1,6.5,21.9c4,15.2,18.9,24.9,23.9,39.9
		c7.3,21.3-7.8,43.2-21.9,60.4C83.9,125.3,83.9,125.3,83.9,125.3z"/>
	<path fill="#298F47" d="M107.3,101.4c7.8-33.9,29.5-64.6,58.4-82.8c-18.1,19.3-32,42.7-40.3,67.9c14.4-0.8,29,1.3,42.3,6.2
		c-2.5-4.4-0.5-10.3,1.8-14.9c7.6-14.1,18.1-26.7,31-36c-7.3,12.9-13.1,26.5-17.6,40.6c13.1-12.9,29-22.9,46.3-28.5
		c-10.6,12.9-19.4,27-26.2,41.9C107.3,101.4,107.3,101.4,107.3,101.4z"/>
	<path fill="#7CB72A" d="M74.6,239.2c-6.5,5.1-11.1,13.1-12.1,21.9c-1,8.7,2,17.7,8.3,23.9c6.3,6.2,15.4,9,23.9,7.5
		c3.8-0.5,8.1-3.3,7.3-6.9c-0.3-2.3-2.3-3.9-4-5.4c-7.3-6.4-11.1-17.2-9.3-27c1-5.4,9.1-16.7,6-20.8
		C90.4,226.4,77.8,236.7,74.6,239.2z"/>
	<path fill="#298F47" d="M280.4,221c-21.1,17-44.8,31.1-71,37.3c-50.9,11.8-118.1-8-160.5-37.5c-18.1-12.6-34.8-29.3-43.3-49.4
		C2.8,164.9,0.8,158.2,0,151c2.8,1,5.3,2.1,8.1,3.1C6,149,5.3,143,6.3,137.4c0.5-1.5,1-3.3,2.5-3.9c2-0.8,4,1.3,5.5,2.8
		c11.6,12.6,31.7,12.9,46.9,5.4C76.3,134,87.2,120.1,97,106c9.1-12.6,18.1-26.5,32-32.9c9.8-4.6,20.9-5.1,31.5-4.9
		c32.7,0.5,69.3,11.3,84.6,40.9c5.5,10.5,7.8,22.4,11.3,33.9c3.5,11.3,8.6,23.1,17.9,30.3c4.5,3.6,10.6,5.7,16.4,5.9
		c5.8,0.3,11.6-1.5,15.9-5.9C309.3,192.2,295,209.1,280.4,221z"/>
	<path fill="#2DA350" d="M290.7,179.3c-20.9-0.9-30.7,29.6-50.6,36.8c-23.9,9-49.6,11.1-75.3,12.1c-23.9,1-48.1,1.3-71.8-3.9
		c-31.5-7.2-60.7-24.2-83.1-48.1c-1.5-1.5-3-3.1-4.3-4.9C2.8,164.9,0.8,158.2,0,151c2.8,1,5.3,2.1,8.1,3.1C6,149,5.3,143,6.3,137.4
		c0.5-1.5,1-3.3,2.5-3.9c2-0.8,4,1.3,5.5,2.8c11.6,12.6,31.7,12.9,46.9,5.4C76.3,134,87.2,120.1,97,106c9.1-12.6,18.1-26.5,32-32.9
		c9.8-4.6,20.9-5.1,31.5-4.9c32.7,0.5,69.3,11.3,84.6,40.9c5.5,10.5,7.8,22.4,11.3,33.9c3.5,11.3,8.6,22.9,17.9,30.3
		C278.8,177,284.9,179,290.7,179.3z"/>
	<path fill="#FFFFFF" d="M139.5,180.8c7.8-3.3,14.4-8.5,18.1-15.4c14.9-28-12.8-69.7-44.1-58.6c-18.1,6.4-28,23.1-28,42.4
		c0,16.5,12.8,32.7,29,35C122.7,185.5,131.7,184.2,139.5,180.8z"/>
	<path fill="#1D1B19" d="M108.3,132c-4.4,6.1-5.5,14.4-2.8,21.3c2.5,7.2,8.6,12.6,15.9,14.4c13.1,3.3,32.7-2.3,35.5-18
		c2-11.8-5.8-26-16.9-29.6C128.2,116,115.4,122.2,108.3,132z"/>
	<path fill="#FFFFFF" d="M129.7,142c2.7,2.9,7.3,3.9,10.8,2.3c3.8-1.3,6.5-5.1,6.8-9.3c0.3-3.9-1.8-8-5-10.3
		C132.7,118.3,122.2,134,129.7,142z"/>
	<path fill="#7CB72A" d="M297.2,116.5c10.2-23.4,24.4-44.5,44.1-55.6c-12.8,40.1-12.8,84.6-0.3,124.7c4.3,13.4,10.1,26.7,20.7,35.7
		c10.6,9.3,26.4,12.9,38.3,5.7c-5,19-27.7,28.8-46.9,25.2s-35-16.7-48.6-30.9C272.5,189.1,280.4,155.4,297.2,116.5z"/>
	<path fill="#7CB72A" d="M102.5,260.3c0.5,10.8,4,21.6,11.6,29.3s18.9,11.6,29.7,10c10.6-1.5,20.4-8.5,25.7-18.3
		c2.3-4.1,3-10.5-1.3-12.9c-2.3-1.3-5.3-0.5-8.1,0c-12.1,2.6-25.4-2.1-33.5-11.6c-4.3-4.9-9.1-22.1-15.6-22.1
		C102.3,234.6,102.3,255.2,102.5,260.3z"/>
	<path fill="#43B356" d="M181.1,106.5c18.6-11.2,0-29.8-14.6-29.3c-17.9,0.5-16.9,21.9-3.8,29.3
		C168.3,109.6,175.6,109.9,181.1,106.5z"/>
	<path fill="#43B356" d="M221.4,109.3c13.4-8.2,0.3-21.3-10.3-21.1c-13.1,0.3-12.3,15.7-2.8,20.8
		C212.3,111.4,217.6,111.7,221.4,109.3z"/>
	<path fill="#298F47" d="M170.8,191.6c8.8-22.8,11.8-49.9-0.5-71.2c5.3,2.3,9.6,6.4,12.6,11.3c2,3.6,3.3,7.5,4.3,11.3
		c3.3,13.6,2.8,28.5-2.3,41.7c-4.5,11.3-14.9,26.5-27.2,29.8C162,206.8,167.5,200.1,170.8,191.6z"/>
	<path fill="#7CB72A" d="M221.2,125.6c-17.3,17.6-18.9,48.4-5.3,68.9c-19.1,13.4-40.3-9.8-39-29.6c0.5-9.8,7.6-17.2,14.1-23.9
		c4.3-4.4,8.8-9.3,14.4-11.8C207.8,127.6,220.4,126.3,221.2,125.6z"/>
</g>
</svg>
