<?xml version="1.0" encoding="utf-8"?>
<!-- Generator: Adobe Illustrator 16.0.0, SVG Export Plug-In . SVG Version: 6.00 Build 0)  -->
<!DOCTYPE svg PUBLIC "-//W3C//DTD SVG 1.1//EN" "http://www.w3.org/Graphics/SVG/1.1/DTD/svg11.dtd">
<svg version="1.1" id="Layer_1" xmlns="http://www.w3.org/2000/svg" xmlns:xlink="http://www.w3.org/1999/xlink" x="0px" y="0px"
	 width="280px" height="213px" viewBox="0 0 280 213" enable-background="new 0 0 280 213" xml:space="preserve">
<g>
	<path fill="#DD3F58" d="M155.6,149c-4.7,1.3-9.2,3-14,3.5c-3.5,0.5-5.5,1.3-8,4c-6,5.8-9.2,13.5-7.5,21.8c1,5,3.7,9.3,6.5,13.5
		c3.5,5,7,9.5,11.5,13.5c8,7,16.4,8.3,26.7,7.5c8-0.8,26.4-9.8,18.2-20.3c2.5,3.5,8.5,2,12,1.3c6.5-1.5,11.2-6.3,12.2-12.8
		c2-11-4.7-19.8-13.7-24.5c-4.2-2.3-8.7-3.8-12.7-6c-2.7-1.3-5.2-2.5-8.2-3.3C171.1,145.2,162.9,147,155.6,149z"/>
	<path fill="#DA233C" d="M206.7,175.5c0.8,2.6,0.2,5.5-2,6.8c-1.7,1.3-4,1-6,0.3c-3.7-1.3-7-3.8-10-6.3c-1.2-1-2.7-2.5-2.5-4.3
		c0.2-0.8,0.7-1.5,1.2-2c0.7-1,1.7-1.8,3-2c3.2-1.3,7,0.5,10,1.5C203.2,170.3,205.7,172.5,206.7,175.5z"/>
	<path fill="#DA233C" d="M174.6,196.5c0.9,2.5,0.2,5.5-2,7c-1.7,1-4,0.8-6,0c-3.7-1.3-7-3.8-10-6.3c-1.2-1-2.7-2.5-2.5-4
		c0.2-1,0.7-1.5,1.2-2.3c0.7-0.8,1.7-1.5,3-2c3.2-1.3,7,0.8,10,1.5C171.1,191.5,173.6,193.8,174.6,196.5z"/>
	<path fill="#DD3F58" d="M94.1,46.1c7.7-20.8,27.2-35,48.1-42.3c6-2.3,12.2-4,18.7-3.8c6.5,0.5,13,2.8,17.2,7.8
		c4.5,5.5,5.5,13.8,2,20.3c5.7-2.3,12.7,0.8,15.7,6c3,5.5,2.5,12.3,0,17.8c-3.5,8-10.7,13.8-18.7,17c-8,3.5-16.7,4.5-25.2,5
		C94.1,46.1,94.1,46.1,94.1,46.1z"/>
	<path fill="#DA233C" d="M126.7,41.6c-2.2,1-6.7,1.8-8.5-0.8c-0.5-1-0.2-2.5,0-3.8c0.5-2.3,4-5,5.7-6.5c2.2-2.3,4.7-4.5,7.2-6.3
		c5-4,10.2-7.5,15.9-10.3c2.2-1,4.7-2,7.2-2c4.7-0.3,7,3.8,4,7.3c-4,4.5-9,8-14,11.5C138.9,34.8,133,38.8,126.7,41.6z"/>
	<path fill="#DA233C" d="M138.4,58.6c-2.1,0.9-6.7,1.8-8.2-0.8c-0.7-1-0.5-2.5-0.2-3.8c0.5-2.3,4.2-5,6-6.5c2.2-2.3,4.5-4.5,7-6.3
		c5-4,10.5-7.5,15.9-10.3c2.5-1,4.7-2,7.5-2c4.5-0.3,7,3.8,3.7,7.3c-3.7,4.5-9,8-13.7,11.5C150.6,51.8,144.9,55.8,138.4,58.6z"/>
	<path fill="#DA233C" d="M153.6,74.1c-2.2,1-7,1.8-8.5-0.8c-0.7-1-0.5-2.5-0.2-3.8c0.5-2.3,4.2-5,6-6.5c2.2-2.3,4.5-4.5,7-6.3
		c5-4,10.5-7.5,16.2-10.3c2.2-1,4.7-2,7.2-2c4.5-0.3,7,3.8,4,7.3c-4,4.5-9,8-14,11.5C165.6,67.4,159.9,71.4,153.6,74.1z"/>
	<path fill="#DD3F58" d="M224.1,74.9c8.4-7.9,19.2-12.3,30.1-12.5c4.7-0.3,10,0.5,14.4,2.8c4.5,2.5,8.5,6.8,10.2,12.3
		c2.5,7.5,0.2,15.5-3,22c-7,13.3-19.9,21.5-33.4,21.5c6.7,1.3,13.5,2.8,19.7,7c12.5,8.5,16.7,26.5,8,39.8
		c-9,13.8-30.1,11.5-42.6,3.3c-11.2-7.3-23.4-22.3-24.4-37.3c-1.2-17,0.2-33,9.7-46.1C216.2,82.9,220.1,78.6,224.1,74.9z"/>
	<path fill="#DA233C" d="M212.7,102.4c0.7-5.3,3.5-6.8,7.2-10.3c5-4.8,11-8.5,16.9-12.3c3.2-2,11.7-6.3,13.2,0
		c1,3.5-3.5,7.3-5.7,9.3c-7,5.8-14.7,10.3-22.9,14c-1.2,0.8-2.7,1.3-4.2,1c-2.5-0.3-4.5-3.3-3.5-5.8c0,0,0-0.3,0.2-0.5
		C212.7,102.4,212.7,102.4,212.7,102.4z"/>
	<path fill="#DA233C" d="M209.7,114.9c2.5-4.5,5.2-5.3,10-7.5c6.2-3.3,13-5.3,19.7-7c3.7-0.8,13-2.5,12.7,4c0,3.5-5.2,6-8.2,7
		c-8.2,3.5-16.9,5.8-25.7,7c-1.5,0.3-3.2,0.3-4.5-0.3c-2.2-1-3.5-4.5-1.7-6.5c0-0.3,0.2-0.3,0.5-0.5
		C209.7,114.9,209.7,114.9,209.7,114.9z"/>
	<path fill="#DA233C" d="M208.7,122.7c5-2,7.5-0.5,12.5,0.8c6.7,2,13,5,19.2,8.3c3.5,1.8,11.5,6.8,7,11.3c-2.5,2.8-8,1-11,0
		c-8.2-3.3-16.4-7.3-23.7-12.3c-1.2-0.8-2.5-1.8-3.2-3.3c-1-2.3,0.5-5.5,3-6c0.2,0,0.5,0,0.7,0C208.7,122.7,208.7,122.7,208.7,122.7
		z"/>
	<path fill="#DA233C" d="M207.9,136.7c5-1,7.5,1,12,3.3c6.2,3,12,7.3,17.4,11.5c3,2.5,10,8.8,4.7,12.5c-3,2.3-8-0.5-10.7-2.3
		c-7.7-4.5-14.7-10-21.2-16.3c-1-1.3-2-2.3-2.5-3.8c-0.5-2.5,1.5-5.5,4.2-5.3c0.2,0,0.2,0,0.5,0
		C207.9,136.7,207.9,136.7,207.9,136.7z"/>
	<path fill="#4DBBAE" d="M184,185.8c-25.1,14.4-56,17.5-85.2,15.8c-3.5-0.3-7-0.5-10.5-1c-16.2-2-32.1-6.5-46.3-13.8
		c-17.2-8.8-29.9-23.3-36.6-40.3c-1.7-4-3-8.5-3.7-13c-1.5-7.5-2-14.8-1.5-21.8c0.5-5,1.5-10,3.2-14.8c0.7-2.5,1.7-4.8,2.7-7
		c4.2-8.5,10.5-16.3,19.2-23.3c15.7-13,35.4-21.3,55.8-25.5c2.7-0.5,5.7-1,8.5-1.5c22.4-3.5,45.6-2,67,5.3
		c23.9,8,45.1,23.8,57.5,44.8c5.2,8.5,8.7,17.8,10,27.3v0.3C227.1,144.5,208.9,171.5,184,185.8z"/>
	<path fill="#3CA397" d="M184,185.8c-25.1,14.4-56,17.5-85.2,15.8c-19.7-1.3-39.6-6-56.8-14.8c-17.2-8.8-29.9-23.3-36.6-40.3
		c-1.7-4-3-8.5-3.7-13c-1.5-7.5-2-14.8-1.5-21.8c1.7,15.3,7.7,29.8,17.2,42.3c5.7,7.5,14.2,12.3,21.9,17.3
		c9.2,6.3,19.9,10.3,30.9,12.8c24.4,5.5,50.1,4,74.2-1.3C162.9,179,181,172.5,196,161c14.2-10.8,25.2-26.3,28.1-43.8
		C227.1,144.5,208.9,171.5,184,185.8z"/>
	<path fill="#81D0D0" d="M88.4,200.5c-1,1.4-33.5-7.2-46.3-13.8c-17.2-8.8-29.9-23.3-36.6-40.3c-1.7-4-3-8.5-3.7-13
		c-1.5-7.5-2-14.8-1.5-21.8c0.5-5,1.5-10,3.2-14.8c0.7-2.5,1.7-4.8,2.7-7c4.2-8.5,10.5-16.3,19.2-23.3c15.7-13,35.4-21.3,55.8-25.5
		c2.7-0.5,5.7-1,8.5-1.5c7.5,9,26.4,33.8,30.4,57.1C120,96.7,130.2,141,88.4,200.5z"/>
	<path fill="#FFFFFF" d="M94.3,66.4c-2.8-5.1-7-9.3-12.7-11.5c-9.5-3.5-22.2-2.3-29.6,5c-10.2,9.8-8.2,26.3,2,35
		c11,9,30.1,12.3,39.9,0C100.6,86.6,99.3,75.4,94.3,66.4z"/>
	<path fill="#1D1B19" d="M54.2,79.4c0,12.8,12.7,21.8,23.9,16.5c7-3.3,10.2-10,9.2-17.8c-0.7-4.8-4-9-8.2-11
		c-8.5-4.5-20.2-1.8-23.9,7.8C54.7,76.4,54.2,77.9,54.2,79.4z"/>
	<path fill="#FFFFFF" d="M72.2,69.4c-2.4,1.2-4.5,3.5-4.5,6.8c0,1,0.7,2,1.5,2.8c1.7,1.8,4.7,2,7,0.8c2.2-1.3,3.5-4.3,2.7-6.8
		C77.7,68.9,74.7,68.1,72.2,69.4z"/>
	<path fill="#F0DC33" d="M148.2,57.4c-12.7,2.2-20.7,9.5-21.7,22.8c-2.2,27.5,30.9,32.8,45.3,13.5C184,77.4,166.6,54.1,148.2,57.4z"
		/>
	<path fill="#F0DC33" d="M176.8,120.7c-3.5,0.5-5.7,2.8-6,6.3c-0.7,7.8,8.5,9.3,12.5,3.8C186.8,126.2,182,119.9,176.8,120.7z"/>
	<path fill="#81D0D0" d="M173.6,103.2c-3,0.5-5,2.3-5.2,5.5c-0.5,6.5,7.5,7.8,10.7,3.3C182,107.9,177.8,102.4,173.6,103.2z"/>
	<path fill="#81D0D0" d="M199.5,115.4c-4.3,0.7-7,3.3-7.5,8c-0.7,9.5,10.7,11.3,15.7,4.5C211.9,122.4,205.9,114.4,199.5,115.4z"/>
	<path fill="#81D0D0" d="M153.6,113.9c-2.7,0.5-4.2,2-4.5,4.8c-0.5,5.8,6.5,7,9.5,3C161.1,118.2,157.6,113.2,153.6,113.9z"/>
	<path fill="#34948B" d="M91.1,125.9c-1.7,1.7-4.2,1.8-6.2,2.5c-2,0.5-4.2,1-6.5,1.5c-4.2,0.8-8.7,1.3-13,1.3
		c-25.2,0.3-48.8-13.5-62-34.3c0.7-2.5,1.7-4.8,2.7-7c2.2,4,4.7,7.8,7.5,11.3c8.5,10.5,19.9,18.8,32.9,23c7,2.3,14.4,3.5,21.9,3.8
		c3.7,0,7.7-0.3,11.5-0.8c2-0.3,4-0.5,6-1c1.5-0.3,3.2-1,5-1C91.4,125.2,91.4,125.7,91.1,125.9z"/>
	<path fill="#34948B" d="M109.8,68.6c0,0,28.4,41.8,4.2,77.4C114,146,129.7,114.4,109.8,68.6z"/>
	<path fill="#DD3F58" d="M122.5,127.7c-0.7,4.5-3.5,9-7.5,11.5c-1.7,1.3-3.7,2-5.5,3.8c-1.2,1.3-2.2,3-3,4.8
		c-2.7,5.8-5.7,11.8-6.7,18c-1.2,6.3-0.5,13.3,3.2,18.3c6,8.3,17.7,9.8,27.7,7.8c6.2-1.3,12.7-3.8,16.7-9c5.2-6.8,5-16.3,1.7-24.3
		c-4-9.8-12-17-19.4-24.3C128,132.5,123.5,129.9,122.5,127.7L122.5,127.7z"/>
	<path fill="#F0DC33" d="M183.5,100.9c1.9,4.3,7.7,7,12,5c9.7-4.5,11-19.5-1-20.8C185,84.1,179.5,92.1,183.5,100.9z"/>
</g>
</svg>
