<?xml version="1.0" encoding="utf-8"?>
<!-- Generator: Adobe Illustrator 16.0.0, SVG Export Plug-In . SVG Version: 6.00 Build 0)  -->
<!DOCTYPE svg PUBLIC "-//W3C//DTD SVG 1.1//EN" "http://www.w3.org/Graphics/SVG/1.1/DTD/svg11.dtd">
<svg version="1.1" id="Layer_1" xmlns="http://www.w3.org/2000/svg" xmlns:xlink="http://www.w3.org/1999/xlink" x="0px" y="0px"
	 width="119px" height="63px" viewBox="0 0 119 63" enable-background="new 0 0 119 63" xml:space="preserve">
<g>
	<g>
		<path fill="#4B823D" d="M13.5,57.6c0,0-13.8-3.8-8.3-16.8c5.3-12.8,17-4,17-4s-11.8-9.5-2.5-17.8c9-8.5,11.5,9.8,11.5,9.8
			S26.8,7.1,46.5,3.4c20-3.8,25.7,24.8,25.7,24.8s2-21.5,11.3-22.3c9-1,0,19.3,0,19.3s11-17.3,27.5-4.8c16.3,12.3-3.5,37.3-3.5,37.3
			C13.5,57.6,13.5,57.6,13.5,57.6z"/>
	</g>
	<path fill="#6FB259" d="M11.8,45.1c2.3-6,14.8-4.3,14.8-4.3s-6.5-14-4-15.8c2.8-1.8,10.8,8.8,10.8,8.8s-1-14.5,6.5-20.5
		c7.8-6,22.2-0.5,30.2,16.8c0,0,0.8-1.3,2-2.8c-1-4.3-7.5-27.5-25.5-24C29,6.6,30.5,23.9,31,28.1c-0.5-3.8-3.5-16.3-11.3-9
		c-9.3,8.3,2.5,17.8,2.5,17.8s-11.8-8.8-17,4c-5.5,13,8.3,16.8,8.3,16.8S9.5,50.9,11.8,45.1z"/>
	<path fill="#6FB259" d="M111,20.4c-16.5-12.5-27.5,4.8-27.5,4.8s9-20.3,0-19.3c-8,0.5-10.5,17-11,21.3c2-2.5,4.8-5,6.5-3.8
		c2.5,2.5,1.5,9,1.5,9s11.5-12,20.5-7.3s6.5,32.5,6.5,32.5S127.3,32.6,111,20.4z"/>
</g>
</svg>
