<?xml version="1.0" encoding="utf-8"?>
<!-- Generator: Adobe Illustrator 16.0.0, SVG Export Plug-In . SVG Version: 6.00 Build 0)  -->
<!DOCTYPE svg PUBLIC "-//W3C//DTD SVG 1.1//EN" "http://www.w3.org/Graphics/SVG/1.1/DTD/svg11.dtd">
<svg version="1.1" id="Layer_1" xmlns="http://www.w3.org/2000/svg" xmlns:xlink="http://www.w3.org/1999/xlink" x="0px" y="0px"
	 width="469px" height="306px" viewBox="0 0 469 306" enable-background="new 0 0 469 306" xml:space="preserve">
<g>
	<polygon fill="#E42130" points="292.8,114.5 278,99.8 254.8,76 253.8,75.5 239.3,68.3 215,56 200.5,48.8 176.3,36.5 170.8,33.8 
		161.5,38.3 137.3,50.5 122.8,57.8 98.5,70 86.5,76 84,78.8 59.8,103.3 45,118.3 32.3,131 32.3,298 309,298 309,131 292.8,114.5 	
		"/>
	<polygon fill="#EA2F4D" points="292.8,114.5 292.8,298 278,298 278,99.8 292.8,114.5 	"/>
	<polygon fill="#EA2F4D" points="253.8,75.5 253.8,298 239.3,298 239.3,68.3 253.8,75.5 	"/>
	<polygon fill="#EA2F4D" points="215,56 215,298 200.5,298 200.5,48.8 215,56 	"/>
	<polygon fill="#EA2F4D" points="176.3,36.5 176.3,298 161.5,298 161.5,38.3 170.8,33.8 176.3,36.5 	"/>
	<polygon fill="#EA2F4D" points="137.3,50.5 137.3,298 122.8,298 122.8,57.8 137.3,50.5 	"/>
	<polygon fill="#EA2F4D" points="98.5,70 98.5,298 84,298 84,78.8 86.5,76 98.5,70 	"/>
	<polygon fill="#EA2F4D" points="59.8,103.3 59.8,298 45,298 45,118.3 59.8,103.3 	"/>
	<path fill="#FFFFFF" d="M96,287.3h145.8v-108H96V287.3L96,287.3z M251.5,297H86.3V169.5h165.3V297L251.5,297z"/>
	<path fill="#FFFFFF" d="M133.8,128.5H204V97.8h-70.3V128.5L133.8,128.5z M211.5,136h-85.3V90h85.3V136L211.5,136z"/>
	<polygon fill="#FFFFFF" points="206,135.8 128.3,97.3 131.8,90.5 209.5,128.8 206,135.8 	"/>
	<polygon fill="#FFFFFF" points="131.8,135.8 128.3,128.8 206,90.5 209.5,97.3 131.8,135.8 	"/>
	<polygon fill="#FFFFFF" points="94,293.3 88.3,285.5 243.8,170.3 249.5,178.3 94,293.3 	"/>
	<polygon fill="#FFFFFF" points="243.5,296 88.3,178.3 94,170.5 249.5,288.3 243.5,296 	"/>
	<polygon fill="#9F1B22" points="328,157.8 250.8,80 170.8,39.8 89.8,80.5 13.8,157.3 6,149.8 83.3,71.5 170.8,27.8 257,71 
		335.8,150.3 328,157.8 	"/>
	<polygon fill="#EF4526" points="444.5,292.3 339.3,292.3 339.3,76.8 444.5,76.8 444.5,292.3 	"/>
	<polygon fill="#D23123" points="444.5,292.3 339.3,292.3 339.3,259.3 444.5,259.3 444.5,292.3 	"/>
	<polygon fill="#D23123" points="444.5,110.3 339.3,110.3 339.3,77.5 444.5,77.5 444.5,110.3 	"/>
	<polygon fill="#D23123" points="444.5,170.5 339.3,170.5 339.3,137.5 444.5,137.5 444.5,170.5 	"/>
	<polygon fill="#D23123" points="444.5,231.8 339.3,231.8 339.3,198.8 444.5,198.8 444.5,231.8 	"/>
	<path fill="#EF4526" d="M320.5,76.8c142,0,142,0,142,0S469.8,4,392,4C392,4,320.5,1.5,320.5,76.8z"/>
	<path fill="#EE5745" d="M393.3,39.3c7.8,9.8,35.3,27,48.8,25c18-2.8,9-23,1.3-31.5C434,22.8,423,15,409,14.5
		C394,14,381,24.5,393.3,39.3z"/>
</g>
</svg>
