<?xml version="1.0" encoding="utf-8"?>
<!-- Generator: Adobe Illustrator 16.0.0, SVG Export Plug-In . SVG Version: 6.00 Build 0)  -->
<!DOCTYPE svg PUBLIC "-//W3C//DTD SVG 1.1//EN" "http://www.w3.org/Graphics/SVG/1.1/DTD/svg11.dtd">
<svg version="1.1" id="Layer_1" xmlns="http://www.w3.org/2000/svg" xmlns:xlink="http://www.w3.org/1999/xlink" x="0px" y="0px"
	 width="141px" height="219px" viewBox="0 0 141 219" enable-background="new 0 0 141 219" xml:space="preserve">
<g>
	<path fill="#ECED18" d="M133.8,128.3c0-38.3-21.8-70-50.3-76.3c-0.3-4.3-4.5-8-10-8c-5.5,0-10,3.8-10.2,8C34.8,58.3,13,90,13,128.3
		c0,38.5,21.8,70.3,50.3,76.3c0.3,4.5,4.8,8,10.2,8c5.5,0,9.8-3.5,10-8C112,198.5,133.8,166.8,133.8,128.3z"/>
	<path fill="#64B33E" d="M70.8,31.8c0,0-17-30-46.3-15C24.5,16.8,42.3,50.8,70.8,31.8z"/>
	<path fill="#56A438" d="M70.8,31.8c-46.3-15-46.3-15-46.3-15S42.3,50.8,70.8,31.8z"/>
	<path fill="#5F352A" d="M57.5,7.8C63,5,63,5,63,5s12.3,20.3,11.5,42c-2.3,0.5-2.3,0.5-2.3,0.5S72.3,22,57.5,7.8z"/>
	<path fill="#4B2923" d="M63,5c-2.5,1.3-2.5,1.3-2.5,1.3s14,20.3,13,41c1-0.3,1-0.3,1-0.3C75.3,25.3,63,5,63,5z"/>
	<path fill="#4B2923" d="M76,47.3c0,0.8-1.3,1.3-2.5,1.3c-1.5,0-2.7-0.5-2.7-1.3S72,46,73.5,46C74.8,46,76,46.5,76,47.3z"/>
	<path fill="#E9D216" d="M63.3,204.5c0.3,4.5,4.8,8,10.2,8c5.5,0,9.8-3.5,10-8c28.5-6,50.3-37.8,50.3-76.3c0-34.5-17.5-63.8-42-73.5
		c36.5,22.5,28,137.5-49.5,140C48.8,199.5,55.8,203,63.3,204.5z"/>
	<path fill="#DDBD12" d="M83.5,204.5c28.5-6,50.3-37.8,50.3-76.3c0-18.3-4.8-35-13-48c0,0.3,30.8,95.5-57.5,124.3
		c0.3,4.5,4.8,8,10.2,8C79,212.5,83.3,209,83.5,204.5z"/>
	<path fill="#F9F898" d="M55.3,100C49,113.3,38,121.3,31,118c-7.3-3.5-8.3-17.3-2-30.5C35.3,74,46,66,53.3,69.5S61.3,86.5,55.3,100z
		"/>
</g>
</svg>
