<?xml version="1.0" encoding="utf-8"?>
<!-- Generator: Adobe Illustrator 16.0.0, SVG Export Plug-In . SVG Version: 6.00 Build 0)  -->
<!DOCTYPE svg PUBLIC "-//W3C//DTD SVG 1.1//EN" "http://www.w3.org/Graphics/SVG/1.1/DTD/svg11.dtd">
<svg version="1.1" id="Layer_1" xmlns="http://www.w3.org/2000/svg" xmlns:xlink="http://www.w3.org/1999/xlink" x="0px" y="0px"
	 width="480px" height="360px" viewBox="0 0 480 360" enable-background="new 0 0 480 360" xml:space="preserve">
<g>
	<polygon fill="#FDEDF2" points="0,360.75 480,360.75 480,0 0,0 0,360.75 	"/>
	<path fill="#FEF5F8" d="M28.75,264.75c-12,0-12,0-12,0C16.75,0,16.75,0,16.75,0c12,0,12,0,12,0c0,75.75,0,75.75,0,75.75
		c-3.75,1-6.5,2-6.25,3c-0.25,0-0.5,0-0.75,0c-1.25,0-2,0.25-2.5,0.75c0,27,0,27,0,27c0,16.75,0,16.75,0,16.75c0,27,0,27,0,27
		c0.5,0.25,1.25,0.5,2.5,0.5c0.25,0,0.5,0,0.75,0c-0.25,1,2.5,2,6.25,3c0,22.5,0,22.5,0,22.5c-9.25,0-9.25,0-9.25,0
		c0,35.25,0,35.25,0,35.25c9.25,0,9.25,0,9.25,0C28.75,264.75,28.75,264.75,28.75,264.75"/>
	<path fill="#FEF5F8" d="M59.75,264.75c-12,0-12,0-12,0c0-53.25,0-53.25,0-53.25c12,0,12,0,12,0
		C59.75,264.75,59.75,264.75,59.75,264.75 M59.75,176.25c-12,0-12,0-12,0c0-19.75,0-19.75,0-19.75c5.5,0.5,10,1,12,1.25
		C59.75,176.25,59.75,176.25,59.75,176.25 M47.75,73c0-73,0-73,0-73c12,0,12,0,12,0c0,72,0,72,0,72C58,72,53.25,72.5,47.75,73"/>
	<path fill="#FEF5F8" d="M91,264.75c-12.25,0-12.25,0-12.25,0c0-108.75,0-108.75,0-108.75c4.25-0.5,8.5-1.25,12.25-2
		C91,264.75,91,264.75,91,264.75 M91,75.5c-3.75-0.75-8-1.5-12.25-2c0-73.5,0-73.5,0-73.5C91,0,91,0,91,0C91,75.5,91,75.5,91,75.5"
		/>
	<polygon fill="#FEF5F8" points="122,264.75 109.75,264.75 109.75,0 122,0 122,52.25 120.25,52.25 120.25,58.75 122,58.75 
		122,264.75 	"/>
	<path fill="#FEF5F8" d="M153,264.75h-12v-18h12V264.75L153,264.75z M153,52.25h-12V0h12V52.25L153,52.25z"/>
	<path fill="#FEF5F8" d="M184,264.75c-12,0-12,0-12,0c0-50.5,0-50.5,0-50.5c5-21,5-21,5-21c0.25-1.25,0.5-2.5,0.75-3.5
		c6.25,0,6.25,0,6.25,0C184,264.75,184,264.75,184,264.75 M184,52.25c-12,0-12,0-12,0C172,0,172,0,172,0c12,0,12,0,12,0
		C184,52.25,184,52.25,184,52.25"/>
	<path fill="#FEF5F8" d="M215,264.75h-12v-75h12V264.75L215,264.75z M215,65.75h-12v-7h12V65.75L215,65.75z M215,52.25h-12V0h12
		V52.25L215,52.25z"/>
	<path fill="#FEF5F8" d="M246,264.75h-12v-75h12V264.75L246,264.75z M246,65.75h-12v-7h12V65.75L246,65.75z M246,52.25h-12V0h12
		V52.25L246,52.25z"/>
	<path fill="#FEF5F8" d="M277,264.75h-12v-75h12V264.75L277,264.75z M272.25,65.75H265v-7h11.5l0,0h-4.25V65.75L272.25,65.75z
		 M277,52.25h-12V0h12V52.25L277,52.25z"/>
	<path fill="#FEF5F8" d="M308,264.75h-12v-18h12V264.75L308,264.75z M308,52.25h-12V0h12V52.25L308,52.25z"/>
	<path fill="#FEF5F8" d="M339,264.75h-12v-18h2.5v-188H327h12V264.75L339,264.75z M339,52.25h-12V0h12V52.25L339,52.25z"/>
	<path fill="#FEF5F8" d="M370.25,264.75h-5.5v-121.5h5.5V264.75L370.25,264.75z M370.25,134.5H358V0h12.25V134.5L370.25,134.5z"/>
	<path fill="#FEF5F8" d="M401.25,264.75H389v-121.5h12.25V264.75L401.25,264.75z M401.25,134.5H389V0h12.25V134.5L401.25,134.5z"/>
	<path fill="#FEF5F8" d="M432.25,256.75h-12v-113.5h12V256.75L432.25,256.75z M432.25,134.5h-12V0h12V134.5L432.25,134.5z"/>
	<path fill="#FEF5F8" d="M462,264.75h-10.75v-121.5H462V264.75L462,264.75z M463.25,134.5h-12V0h12V134.5L463.25,134.5z"/>
	<polygon fill="#E2B1A9" points="0,360.75 480,360.75 480,272 0,272 0,360.75 	"/>
	<polygon fill="#FFFFFF" points="0,272 480,272 480,264.75 0,264.75 0,272 	"/>
	<polygon fill="#C3D9F2" points="286.25,74.75 263.75,115.5 256.25,115.5 278.75,74.75 286.25,74.75 	"/>
	<polygon fill="#C3D9F2" points="286.25,74.75 263.75,115.5 256.25,115.5 278.75,74.75 286.25,74.75 	"/>
	<polygon fill="#C64F6D" points="120.25,58.75 349,58.75 349,52.25 120.25,52.25 120.25,58.75 	"/>
	<polygon fill="#A23347" points="349,52.25 120.25,52.25 120.25,55 349,55 349,52.25 	"/>
	<path fill="#A23347" d="M126,56c0-3.75-3.75-6.5-8.5-6.5S109,52.25,109,56c0,3.5,3.75,6.25,8.5,6.25S126,59.5,126,56"/>
	<path fill="#A23347" d="M357.25,56c0-3.75-3.75-6.5-8.5-6.5s-8.5,2.75-8.5,6.5c0,3.5,3.75,6.25,8.5,6.25S357.25,59.5,357.25,56"/>
	<path fill="#F58050" d="M290.75,165H175.5V74.75h115.25V165L290.75,165z M163.5,65.75v124h139.25v-124H163.5L163.5,65.75z"/>
	<polygon fill="#F58050" points="227.25,165 239,165 239,74.75 227.25,74.75 227.25,165 	"/>
	<polygon fill="#F58050" points="173,124.25 293.25,124.25 293.25,115.5 173,115.5 173,124.25 	"/>
	<polygon fill="#C3D9F2" points="274.75,74.75 252.25,115.5 239,115.5 239,106.5 256.5,74.75 274.75,74.75 	"/>
	<polygon fill="#C3D9F2" points="214.25,74.75 192,115.5 175.5,115.5 175.5,112.5 196.25,74.75 214.25,74.75 	"/>
	<polygon fill="#C3D9F2" points="226,74.75 203.5,115.5 196,115.5 218.25,74.75 226,74.75 	"/>
	<polygon fill="#C3D9F2" points="239,115.5 290.75,115.5 290.75,74.75 239,74.75 239,115.5 	"/>
	<polygon fill="#C3D9F2" points="175.5,115.5 227.25,115.5 227.25,74.75 175.5,74.75 175.5,115.5 	"/>
	<polygon fill="#C3D9F2" points="175.5,165 227.25,165 227.25,124.25 175.5,124.25 175.5,165 	"/>
	<polygon fill="#C3D9F2" points="239,165 290.75,165 290.75,124.25 239,124.25 239,165 	"/>
	<polygon fill="#F58050" points="151.75,189.75 314.5,189.75 314.5,172.25 151.75,172.25 151.75,189.75 	"/>
	<polygon fill="#ED7545" points="151.75,175.75 314.5,175.75 314.5,172.25 151.75,172.25 151.75,175.75 	"/>
	<g>
		<defs>
			<path id="SVGID_1_" d="M192,115.5h-5c0-3.25,0-6.25,0-9.25v-15l9.25-16.5h18L192,115.5"/>
		</defs>
		<clipPath id="SVGID_2_">
			<use xlink:href="#SVGID_1_"  overflow="visible"/>
		</clipPath>
		<polygon clip-path="url(#SVGID_2_)" fill="#E0EDF9" points="187,115.5 214.25,115.5 214.25,74.75 187,74.75 187,115.5 		"/>
	</g>
	<polygon fill="#E0EDF9" points="203.5,115.5 196,115.5 218.25,74.75 226,74.75 203.5,115.5 	"/>
	<polygon fill="#E0EDF9" points="252.25,115.5 239,115.5 239,106.5 256.5,74.75 272.25,74.75 272.25,79 252.25,115.5 	"/>
	<path fill="#E0EDF9" d="M192,165c-9.5,0-9.5,0-9.5,0c1-6.75,2-13.75,2.75-20.75c11-20,11-20,11-20c18,0,18,0,18,0
		C192,165,192,165,192,165"/>
	<polygon fill="#E0EDF9" points="203.5,165 196,165 218.25,124.25 226,124.25 203.5,165 	"/>
	<path fill="#E0EDF9" d="M252.25,165C239,165,239,165,239,165c0-9,0-9,0-9c17.5-31.75,17.5-31.75,17.5-31.75
		c16.25,0,16.25,0,16.25,0c0,1.25,0.25,2.25,0.25,3.25C252.25,165,252.25,165,252.25,165"/>
	<polygon fill="#FABE79" points="263.75,165 256.25,165 256.25,165 263.75,165 263.75,165 	"/>
	<path fill="#E0EDF9" d="M263.75,165c-7.5,0-7.5,0-7.5,0c17-31,17-31,17-31c0.5,4,0.75,7.75,1.25,11.75
		C263.75,165,263.75,165,263.75,165"/>
	<polygon fill="#E0EDF9" points="263.75,115.5 256.25,115.5 272.25,86.25 272.25,100 263.75,115.5 	"/>
	<path fill="#F2596F" d="M164.25,246.75c-11.25,0-11.25,0-11.25,0l0,0l0,0c12.75-53.5,12.75-53.5,12.75-53.5
		c0.25-1.25,0.5-2.25,0.75-3.5c4.5,0,4.5,0,4.5,0c-0.25,1.25-0.5,2.25-0.75,3.5c-12.75,53.5-12.75,53.5-12.75,53.5
		c3.5,0,3.5,0,3.5,0c11-46.25,11-46.25,11-46.25c0,13.75,0,13.75,0,13.75C164.25,246.75,164.25,246.75,164.25,246.75 M141,246.75
		c-11,0-11,0-11,0c0-188,0-188,0-188c4.25,0,4.25,0,4.25,0c0,188,0,188,0,188c3.25,0,3.25,0,3.25,0c0-188,0-188,0-188
		c3.5,0,3.5,0,3.5,0C141,246.75,141,246.75,141,246.75"/>
	<polygon fill="#F35B70" points="153,246.75 141,246.75 141,58.75 145.75,58.75 143.25,246.75 145.5,246.75 149.5,246.75 
		153,246.75 153,246.75 	"/>
	<path fill="#F35B70" d="M172,214.25c0-13.75,0-13.75,0-13.75c1.75-7.25,1.75-7.25,1.75-7.25c0.25-1.25,0.5-2.25,0.75-3.5
		c3.25,0,3.25,0,3.25,0c-0.25,1-0.5,2.25-0.75,3.5C172,214.25,172,214.25,172,214.25"/>
	<path fill="#F14A51" d="M181.25,172.25c-4.5,0-4.5,0-4.5,0c0.25-2.25,0.5-4.75,0.75-7.25c5,0,5,0,5,0
		C182,167.5,181.75,169.75,181.25,172.25"/>
	<path fill="#F35B70" d="M181,65.75c-7.25,0-7.25,0-7.25,0c0-4.25,0-7,0-7c7.5,0,7.5,0,7.5,0S181.25,61.5,181,65.75"/>
	<path fill="#F14A51" d="M173.5,172.25c-4.75,0-4.75,0-4.75,0c3.25-33.25,4.5-87.25,5-106.5c7.25,0,7.25,0,7.25,0
		c0,2.5-0.25,5.5-0.25,9c-5.25,0-5.25,0-5.25,0c0,40.75,0,40.75,0,40.75c-2.5,0-2.5,0-2.5,0c0,8.75,0,8.75,0,8.75c2.5,0,2.5,0,2.5,0
		c0,30.75,0,30.75,0,30.75C174.75,161,174.25,167,173.5,172.25"/>
	<path fill="#F14A51" d="M177.75,124.25c-4.75,0-4.75,0-4.75,0c0-8.75,0-8.75,0-8.75c5.25,0,5.25,0,5.25,0
		C178.25,118.5,178,121.25,177.75,124.25"/>
	<path fill="#F25574" d="M178.25,115.5c-2.75,0-2.75,0-2.75,0c0-40.75,0-40.75,0-40.75c5.25,0,5.25,0,5.25,0
		c-0.5,8.5-1,19.25-1.75,31.25c-3.5,6.5-3.5,6.5-3.5,6.5c0,3,0,3,0,3C178.25,115.5,178.25,115.5,178.25,115.5L178.25,115.5"/>
	<path fill="#F25574" d="M175.5,155c0-30.75,0-30.75,0-30.75c2.25,0,2.25,0,2.25,0C177,134.75,176.25,145.25,175.5,155"/>
	<path fill="#F14A51" d="M177.75,189.75c-3.25,0-3.25,0-3.25,0c0.5-4,1.25-8.75,2-14c4.25,0,4.25,0,4.25,0
		C179.75,180.25,178.75,185,177.75,189.75 M171,189.75c-4.5,0-4.5,0-4.5,0c0.75-4,1.25-8.75,2-14c4.75,0,4.75,0,4.75,0
		C172.5,181,171.75,185.75,171,189.75"/>
	<path fill="#F1484F" d="M180.75,175.75c-4.25,0-4.25,0-4.25,0c0-1.25,0.25-2.25,0.25-3.5c4.5,0,4.5,0,4.5,0
		C181,173.5,180.75,174.5,180.75,175.75 M173.25,175.75c-4.75,0-4.75,0-4.75,0c0-1.25,0.25-2.25,0.25-3.5c4.75,0,4.75,0,4.75,0
		C173.5,173.5,173.25,174.5,173.25,175.75"/>
	<path fill="#F25973" d="M178.25,115.5c-2.75,0-2.75,0-2.75,0c0-3,0-3,0-3c3.5-6.5,3.5-6.5,3.5-6.5
		C178.75,109,178.5,112.25,178.25,115.5"/>
	<path fill="#F14A51" d="M186.75,124.25c-6.5,0-6.5,0-6.5,0c0.25-3,0.25-5.75,0.5-8.75c6.25,0,6.25,0,6.25,0
		C187,118.5,186.75,121.5,186.75,124.25"/>
	<polygon fill="#F2596F" points="184,65.75 187,65.75 187,58.75 184,58.75 184,65.75 	"/>
	<path fill="#F35B70" d="M184,65.75c-1.25,0-1.25,0-1.25,0c0-4.25,0-7,0-7c1.25,0,1.25,0,1.25,0C184,65.75,184,65.75,184,65.75"/>
	<path fill="#F14A51" d="M187,74.75c-4.5,0-4.5,0-4.5,0c0-3.5,0-6.5,0.25-9c1.25,0,1.25,0,1.25,0c3,0,3,0,3,0
		C187,74.75,187,74.75,187,74.75"/>
	<path fill="#F25574" d="M187,115.5c-6.25,0-6.25,0-6.25,0l0,0C187,115.5,187,115.5,187,115.5L187,115.5 M181.5,101.5
		c0.25-10,0.75-19.5,1-26.75c4.5,0,4.5,0,4.5,0c0,16.5,0,16.5,0,16.5C181.5,101.5,181.5,101.5,181.5,101.5"/>
	<path fill="#F25574" d="M178.25,157c0.75-10.25,1.5-21.5,2-32.75c6.5,0,6.5,0,6.5,0c-0.5,6.75-1,13.5-1.5,20
		C178.25,157,178.25,157,178.25,157"/>
	<path fill="#F25973" d="M187,115.5c-6.25,0-6.25,0-6.25,0c0.25-4.75,0.5-9.5,0.75-14c5.5-10.25,5.5-10.25,5.5-10.25c0,15,0,15,0,15
		C187,109.25,187,112.25,187,115.5"/>
	<path fill="#F25973" d="M182.5,165c-5,0-5,0-5,0c0.25-2.5,0.5-5.25,0.75-8c7-12.75,7-12.75,7-12.75
		C184.5,151.25,183.5,158.25,182.5,165"/>
	<path fill="#F2596F" d="M153.75,214c2.75-20.75,2.75-20.75,2.75-20.75c0-1.25,0.25-2.25,0.5-3.5c2.5,0,2.5,0,2.5,0
		c-0.25,1.25-0.5,2.25-0.75,3.5C153.75,214,153.75,214,153.75,214 M162.25,172.25c-4,0-4,0-4,0c2.25-41,2.75-113,2.75-113.5
		c10.75,0,10.75,0,10.75,0s-0.25,2.75-0.5,7c-7.75,0-7.75,0-7.75,0c0,96,0,96,0,96C163,165.5,162.5,169,162.25,172.25"/>
	<path fill="#F14A51" d="M163.5,161.75c0-96,0-96,0-96c7.75,0,7.75,0,7.75,0C170.25,83,167.25,128.5,163.5,161.75"/>
	<path fill="#F14A51" d="M159.5,189.75c-2.5,0-2.5,0-2.5,0c0.25-4,0.75-8.75,1-14c3.75,0,3.75,0,3.75,0
		C161,181,160.25,185.75,159.5,189.75"/>
	<path fill="#F1484F" d="M161.75,175.75c-3.75,0-3.75,0-3.75,0c0-1.25,0-2.25,0.25-3.5c4,0,4,0,4,0
		C162,173.5,161.75,174.5,161.75,175.75"/>
	<path fill="#F2596F" d="M153,190.25c0-0.5,0-0.5,0-0.5l0,0C153,189.75,153,190,153,190.25 M154.5,172.25c-1.5,0-1.5,0-1.5,0
		c0-113.5,0-113.5,0-113.5c6.75,0,6.75,0,6.75,0C159.75,59.25,157.5,131.25,154.5,172.25"/>
	<path fill="#F35B70" d="M150.25,210.5C149,58.75,149,58.75,149,58.75c4,0,4,0,4,0c0,113.5,0,113.5,0,113.5c-1.25,0-1.25,0-1.25,0
		c0,17.5,0,17.5,0,17.5c1.25,0,1.25,0,1.25,0c0,0.5,0,0.5,0,0.5c-0.25,1-0.25,2-0.5,3C150.25,210.5,150.25,210.5,150.25,210.5"/>
	<path fill="#F14A51" d="M153,189.75c-1.25,0-1.25,0-1.25,0c0-17.5,0-17.5,0-17.5c2.75,0,2.75,0,2.75,0l0,0c-2.75,0-2.75,0-2.75,0
		c0,3.5,0,3.5,0,3.5c2.5,0,2.5,0,2.5,0C153.75,181,153.5,185.75,153,189.75"/>
	<path fill="#F1484F" d="M154.25,175.75c-2.5,0-2.5,0-2.5,0c0-3.5,0-3.5,0-3.5c2.75,0,2.75,0,2.75,0
		C154.5,173.5,154.25,174.5,154.25,175.75"/>
	<polygon fill="#EB4658" points="145.5,246.75 143.25,246.75 145.75,58.75 149,58.75 149,58.75 150.25,210.5 145.5,246.75 	"/>
	<polygon fill="#E03041" points="145.75,58.75 149,58.75 149,58.75 145.75,58.75 145.75,58.75 	"/>
	<polygon fill="#D53D55" points="134.25,58.75 137.5,58.75 137.5,58.75 134.25,58.75 134.25,58.75 	"/>
	<polygon fill="#F24E62" points="137.5,246.75 134.25,246.75 134.25,58.75 137.5,58.75 137.5,246.75 	"/>
	<path fill="#D53D55" d="M173.75,58.75c-2,0-2,0-2,0l0,0C173.75,58.75,173.75,58.75,173.75,58.75L173.75,58.75"/>
	<path fill="#F24E62" d="M153,246.75L153,246.75c0-26.75,0-26.75,0-26.75c0.75-6,0.75-6,0.75-6c5-20.75,5-20.75,5-20.75
		c0.25-1.25,0.5-2.25,0.75-3.5c7,0,7,0,7,0c-0.25,1.25-0.5,2.25-0.75,3.5C153,246.75,153,246.75,153,246.75"/>
	<polygon fill="#F25063" points="153,246.75 149.5,246.75 150.5,246.75 150.5,238.25 153,220 153,246.75 	"/>
	<path fill="#F24E62" d="M163.5,172.25c-1.25,0-1.25,0-1.25,0c0.25-3.25,0.75-6.75,1.25-10.5
		C163.5,172.25,163.5,172.25,163.5,172.25 M172,65.75c-0.75,0-0.75,0-0.75,0c0.25-4.25,0.5-7,0.5-7c0.25,0,0.25,0,0.25,0
		C172,65.75,172,65.75,172,65.75"/>
	<path fill="#F25063" d="M173.75,65.75c-1.75,0-1.75,0-1.75,0c0-7,0-7,0-7c1.75,0,1.75,0,1.75,0S173.75,61.5,173.75,65.75"/>
	<path fill="#F04146" d="M168.75,172.25c-5.25,0-5.25,0-5.25,0c0-10.5,0-10.5,0-10.5c3.75-33.25,6.75-78.75,7.75-96
		c0.75,0,0.75,0,0.75,0c1.75,0,1.75,0,1.75,0C173.25,85,172,139,168.75,172.25"/>
	<path fill="#F04146" d="M166.5,189.75c-7,0-7,0-7,0c0.75-4,1.5-8.75,2.25-14c6.75,0,6.75,0,6.75,0
		C167.75,181,167.25,185.75,166.5,189.75"/>
	<path fill="#F03F43" d="M168.5,175.75c-6.75,0-6.75,0-6.75,0c0-1.25,0.25-2.25,0.5-3.5c6.5,0,6.5,0,6.5,0
		C168.75,173.5,168.5,174.5,168.5,175.75"/>
	<polygon fill="#EB4658" points="150.5,246.75 149.5,246.75 150.5,238.25 150.5,246.75 	"/>
	<path fill="#EA4457" d="M153,220c0-29.75,0-29.75,0-29.75c0-0.25,0-0.5,0-0.5c4,0,4,0,4,0c-0.25,1.25-0.5,2.25-0.5,3.5
		C153.75,214,153.75,214,153.75,214C153,220,153,220,153,220"/>
	<path fill="#EB4658" d="M149.5,246.75c-4,0-4,0-4,0c4.75-36.25,4.75-36.25,4.75-36.25c2.25-17.25,2.25-17.25,2.25-17.25
		c0.25-1,0.25-2,0.5-3c0,29.75,0,29.75,0,29.75c-2.5,18.25-2.5,18.25-2.5,18.25C149.5,246.75,149.5,246.75,149.5,246.75"/>
	<path fill="#EA4457" d="M158.25,172.25c-3.75,0-3.75,0-3.75,0c3-41,5.25-113,5.25-113.5l0,0c1.25,0,1.25,0,1.25,0l0,0
		C161,59.25,160.5,131.25,158.25,172.25"/>
	<path fill="#E03041" d="M161,58.75c-1.25,0-1.25,0-1.25,0l0,0C161,58.75,161,58.75,161,58.75L161,58.75"/>
	<path fill="#EB373C" d="M157,189.75c-4,0-4,0-4,0c0.5-4,0.75-8.75,1.25-14c3.75,0,3.75,0,3.75,0
		C157.75,181,157.25,185.75,157,189.75"/>
	<path fill="#E8363A" d="M158,175.75c-3.75,0-3.75,0-3.75,0c0-1.25,0.25-2.25,0.25-3.5c3.75,0,3.75,0,3.75,0
		C158,173.5,158,174.5,158,175.75"/>
	<path fill="#EA4457" d="M161,246.75c-3.5,0-3.5,0-3.5,0c12.75-53.5,12.75-53.5,12.75-53.5c0.25-1.25,0.5-2.25,0.75-3.5c1,0,1,0,1,0
		c0,10.75,0,10.75,0,10.75C161,246.75,161,246.75,161,246.75"/>
	<path fill="#EB4658" d="M172,200.5c0-10.75,0-10.75,0-10.75c2.5,0,2.5,0,2.5,0c-0.25,1.25-0.5,2.25-0.75,3.5
		C172,200.5,172,200.5,172,200.5"/>
	<path fill="#EB373C" d="M176.75,172.25c-3.25,0-3.25,0-3.25,0c0.75-5.25,1.25-11.25,2-17.25c0,10,0,10,0,10l0,0c2,0,2,0,2,0
		C177.25,167.5,177,170,176.75,172.25"/>
	<path fill="#EB373C" d="M180.25,124.25c-2.5,0-2.5,0-2.5,0c0.25-3,0.5-5.75,0.5-8.75c2.5,0,2.5,0,2.5,0
		C180.5,118.5,180.5,121.25,180.25,124.25"/>
	<path fill="#EB4658" d="M182.75,65.75c-1.75,0-1.75,0-1.75,0c0.25-4.25,0.25-7,0.25-7l0,0c1.5,0,1.5,0,1.5,0l0,0
		C182.75,58.75,182.75,61.5,182.75,65.75"/>
	<path fill="#E03041" d="M182.75,58.75c-1.5,0-1.5,0-1.5,0l0,0C182.75,58.75,182.75,58.75,182.75,58.75L182.75,58.75"/>
	<path fill="#EB373C" d="M182.5,74.75c-1.75,0-1.75,0-1.75,0c0-3.5,0.25-6.5,0.25-9c1.75,0,1.75,0,1.75,0
		C182.5,68.25,182.5,71.25,182.5,74.75"/>
	<path fill="#DE425C" d="M180.75,115.5c-2.5,0-2.5,0-2.5,0l0,0C180.75,115.5,180.75,115.5,180.75,115.5L180.75,115.5 M179,106
		c0.75-12,1.25-22.75,1.75-31.25c1.75,0,1.75,0,1.75,0c-0.25,7.25-0.75,16.75-1,26.75C179,106,179,106,179,106"/>
	<path fill="#DE425C" d="M175.5,165L175.5,165c0-10,0-10,0-10c0.75-9.75,1.5-20.25,2.25-30.75c2.5,0,2.5,0,2.5,0
		c-0.5,11.25-1.25,22.5-2,32.75c-2.75,5-2.75,5-2.75,5C175.5,165,175.5,165,175.5,165"/>
	<path fill="#EB373C" d="M174.5,189.75c-3.5,0-3.5,0-3.5,0c0.75-4,1.5-8.75,2.25-14c3.25,0,3.25,0,3.25,0
		C175.75,181,175,185.75,174.5,189.75"/>
	<path fill="#E8363A" d="M176.5,175.75c-3.25,0-3.25,0-3.25,0c0-1.25,0.25-2.25,0.25-3.5c3.25,0,3.25,0,3.25,0
		C176.75,173.5,176.5,174.5,176.5,175.75"/>
	<path fill="#E4455C" d="M180.75,115.5c-2.5,0-2.5,0-2.5,0c0.25-3.25,0.5-6.5,0.75-9.5c2.5-4.5,2.5-4.5,2.5-4.5
		C181.25,106,181,110.75,180.75,115.5"/>
	<path fill="#E4455C" d="M177.5,165c-2,0-2,0-2,0c0-3,0-3,0-3c2.75-5,2.75-5,2.75-5C178,159.75,177.75,162.5,177.5,165"/>
	<path fill="#F2596F" d="M327,246.75c-19,0-19,0-19,0l0,0c8.25,0,8.25,0,8.25,0c-2.75-188-2.75-188-2.75-188c8.5,0,8.5,0,8.5,0
		c0,188,0,188,0,188c3.25,0,3.25,0,3.25,0c0-188,0-188,0-188c1.75,0,1.75,0,1.75,0C327,246.75,327,246.75,327,246.75 M296,246.75
		c-0.75,0-0.75,0-0.75,0c-12.75-53.5-12.75-53.5-12.75-53.5c-0.25-1.25-0.5-2.5-0.75-3.5c3.25,0,3.25,0,3.25,0
		c0.25,1.25,0.5,2.25,0.75,3.5C296,236,296,236,296,236C296,246.75,296,246.75,296,246.75 M296,222.25c-7-29-7-29-7-29
		c-0.25-1.25-0.5-2.25-0.75-3.5c4.75,0,4.75,0,4.75,0c0.25,1.25,0.5,2.25,0.75,3.5c2.25,9.5,2.25,9.5,2.25,9.5
		C296,222.25,296,222.25,296,222.25 M285.75,65.75c-7.25,0-7.25,0-7.25,0c-0.25-4.25-0.5-7-0.5-7c7.75,0,7.75,0,7.75,0
		S285.75,61.5,285.75,65.75"/>
	<path fill="#F35B70" d="M276.75,65.75c-4.5,0-4.5,0-4.5,0c0-7,0-7,0-7c4.25,0,4.25,0,4.25,0S276.75,61.5,276.75,65.75"/>
	<polygon fill="#F35B70" points="308,246.75 296,246.75 296,236 298.5,246.75 301.75,246.75 296,222.25 296,202.75 306.5,246.75 
		308,246.75 308,246.75 	"/>
	<polygon fill="#F35B70" points="327,246.75 329.5,246.75 329.5,58.75 327,58.75 327,246.75 	"/>
	<path fill="#F14A51" d="M290.75,172.25c-5,0-5,0-5,0c-0.25-2.25-0.5-4.75-0.75-7.25c5,0,5,0,5,0
		C290.25,167.5,290.5,170,290.75,172.25 M282.75,172.25c-4.5,0-4.5,0-4.5,0c-0.5-2.5-1-4.75-1.25-7.25c5,0,5,0,5,0
		C282.25,167.5,282.5,170,282.75,172.25 M286,74.75c-7.25,0-7.25,0-7.25,0c0-3.5-0.25-6.5-0.25-9c7.25,0,7.25,0,7.25,0
		C285.75,68.25,285.75,71.25,286,74.75 M277,74.75c-4.75,0-4.75,0-4.75,0c0-9,0-9,0-9c4.5,0,4.5,0,4.5,0
		C276.75,68.25,277,71.25,277,74.75"/>
	<path fill="#F14A51" d="M287.5,124.25c-5.75,0-5.75,0-5.75,0c-0.25-3-0.5-5.75-0.75-8.75c6.25,0,6.25,0,6.25,0
		C287.25,118.5,287.5,121.25,287.5,124.25 M279.25,124.25c-6.5,0-6.5,0-6.5,0c0-2.75-0.25-5.75-0.25-8.75c6.25,0,6.25,0,6.25,0
		C278.75,118.5,279,121.25,279.25,124.25"/>
	<path fill="#F25574" d="M287.25,115.5c-6.25,0-6.25,0-6.25,0c-0.5-10.25-1-20-1.5-28.5c6.5-11.75,6.5-11.75,6.5-11.75
		C286.25,85.75,286.5,100.25,287.25,115.5 M278.75,115.5c-6.25,0-6.25,0-6.25,0c0-3.25-0.25-6.25-0.25-9.25c0-6.25,0-6.25,0-6.25
		c5.25-9.5,5.25-9.5,5.25-9.5C278,98,278.25,106.5,278.75,115.5 M272.25,86.25c0-7.25,0-7.25,0-7.25c2.5-4.25,2.5-4.25,2.5-4.25
		c-2.5,0-2.5,0-2.5,0l0,0c4.75,0,4.75,0,4.75,0c0,1,0,1.75,0.25,2.75C272.25,86.25,272.25,86.25,272.25,86.25 M286,74.75
		c-7.25,0-7.25,0-7.25,0l0,0C286,74.75,286,74.75,286,74.75L286,74.75"/>
	<path fill="#F25574" d="M290,165c-5,0-5,0-5,0c-1-10.25-2-21.75-2.75-33.25c4-7.5,4-7.5,4-7.5c-4.5,0-4.5,0-4.5,0l0,0
		c5.75,0,5.75,0,5.75,0C288.25,138.5,289,152.75,290,165 M282,165c-5,0-5,0-5,0c-1-6.25-2-12.75-2.5-19.25
		c5.25-9.75,5.25-9.75,5.25-9.75C280.5,146.25,281.25,156,282,165 M273.25,134c0-2.25-0.25-4.25-0.25-6.5
		c1.75-3.25,1.75-3.25,1.75-3.25c-2,0-2,0-2,0l0,0c6.5,0,6.5,0,6.5,0l0,0c-0.5,0-0.5,0-0.5,0C273.25,134,273.25,134,273.25,134"/>
	<path fill="#F14A51" d="M293,189.75c-4.75,0-4.75,0-4.75,0c-0.75-4-1.25-8.75-2-14c4.75,0,4.75,0,4.75,0
		C291.5,181,292.25,185.75,293,189.75 M285,189.75c-3.25,0-3.25,0-3.25,0c-1-4.75-2-9.5-3-14c4.25,0,4.25,0,4.25,0
		C283.75,181,284.25,185.75,285,189.75"/>
	<path fill="#F1484F" d="M291,175.75c-4.75,0-4.75,0-4.75,0c-0.25-1.25-0.25-2.25-0.5-3.5c5,0,5,0,5,0
		C290.75,173.5,291,174.5,291,175.75 M283,175.75c-4.25,0-4.25,0-4.25,0c-0.25-1.25-0.25-2.25-0.5-3.5c4.5,0,4.5,0,4.5,0
		C282.75,173.5,283,174.5,283,175.75"/>
	<polygon fill="#F25973" points="272.25,79 272.25,74.75 274.75,74.75 272.25,79 	"/>
	<path fill="#F25973" d="M273,127.5c0-1-0.25-2-0.25-3.25c2,0,2,0,2,0C273,127.5,273,127.5,273,127.5"/>
	<path fill="#F25973" d="M274.5,145.75c-0.5-4-0.75-7.75-1.25-11.75c5.5-9.75,5.5-9.75,5.5-9.75c0.5,0,0.5,0,0.5,0
		c0,4,0.25,8,0.5,11.75C274.5,145.75,274.5,145.75,274.5,145.75 M282.25,131.75c-0.25-2.5-0.5-5-0.5-7.5c4.5,0,4.5,0,4.5,0
		C282.25,131.75,282.25,131.75,282.25,131.75"/>
	<path fill="#F25973" d="M272.25,100c0-13.75,0-13.75,0-13.75c5-8.75,5-8.75,5-8.75c0,4,0.25,8.25,0.25,13
		C272.25,100,272.25,100,272.25,100 M279.5,87c-0.25-4.5-0.5-8.5-0.75-12.25c7.25,0,7.25,0,7.25,0c0,0.25,0,0.25,0,0.5
		C279.5,87,279.5,87,279.5,87"/>
	<path fill="#F2596F" d="M296,65.75c-7.75,0-7.75,0-7.75,0c-0.25-4.25-0.5-7-0.5-7c8.25,0,8.25,0,8.25,0
		C296,65.75,296,65.75,296,65.75"/>
	<path fill="#F35B70" d="M305.75,214c-5-20.75-5-20.75-5-20.75c-0.25-1.25-0.5-2.25-0.75-3.5c2.5,0,2.5,0,2.5,0
		c0.25,1.25,0.25,2.25,0.5,3.5C305.75,214,305.75,214,305.75,214 M298.5,65.75c-2.5,0-2.5,0-2.5,0c0-7,0-7,0-7c2.5,0,2.5,0,2.5,0
		S298.5,61.5,298.5,65.75"/>
	<path fill="#F14A51" d="M301.25,172.25c-4,0-4,0-4,0c-1.75-13.75-3.25-31-4.75-48c0.75,0,0.75,0,0.75,0c0-8.75,0-8.75,0-8.75
		c-1.5,0-1.5,0-1.5,0c-0.25-4-0.75-7.75-1-11.5c0-29.25,0-29.25,0-29.25c-2,0-2,0-2,0c-0.25-3.5-0.5-6.5-0.5-9c7.75,0,7.75,0,7.75,0
		c2.5,0,2.5,0,2.5,0C298.75,85,299.5,139,301.25,172.25"/>
	<path fill="#F14A51" d="M293.25,124.25c-0.75,0-0.75,0-0.75,0c-0.25-3-0.5-5.75-0.75-8.75c1.5,0,1.5,0,1.5,0
		C293.25,124.25,293.25,124.25,293.25,124.25"/>
	<path fill="#F25574" d="M290.75,104c-0.75-11.25-1.5-21.25-2-29.25c2,0,2,0,2,0C290.75,104,290.75,104,290.75,104"/>
	<path fill="#F14A51" d="M302.5,189.75c-2.5,0-2.5,0-2.5,0c-0.75-4-1.5-8.75-2.25-14c3.75,0,3.75,0,3.75,0
		C301.75,181,302.25,185.75,302.5,189.75"/>
	<path fill="#F1484F" d="M301.5,175.75c-3.75,0-3.75,0-3.75,0c-0.25-1.25-0.25-2.25-0.5-3.5c4,0,4,0,4,0
		C301.25,173.5,301.5,174.5,301.5,175.75"/>
	<path fill="#F2596F" d="M309,210.5l-1-8v-12.75h1.25L309,210.5L309,210.5z M309.5,172.25H308V58.75h2.25L309.5,172.25L309.5,172.25
		z"/>
	<path fill="#F35B70" d="M308,202.5c-1.25-9.25-1.25-9.25-1.25-9.25c0-1.25-0.25-2.25-0.25-3.5c1.5,0,1.5,0,1.5,0
		C308,202.5,308,202.5,308,202.5 M308,172.25c-3,0-3,0-3,0c-0.75-10.5-1.5-23.25-2.25-36.5c0-70,0-70,0-70c-2.75,0-2.75,0-2.75,0
		c-0.25-4.25-0.25-7-0.25-7c8.25,0,8.25,0,8.25,0C308,172.25,308,172.25,308,172.25"/>
	<path fill="#F14A51" d="M302.75,135.75c-1.25-27.75-2.5-57-2.75-70c2.75,0,2.75,0,2.75,0
		C302.75,135.75,302.75,135.75,302.75,135.75"/>
	<path fill="#F14A51" d="M309.25,189.75c-2.75,0-2.75,0-2.75,0c-0.5-4-1-8.75-1.25-14c4.25,0,4.25,0,4.25,0
		C309.25,189.75,309.25,189.75,309.25,189.75"/>
	<path fill="#F1484F" d="M309.5,175.75c-4.25,0-4.25,0-4.25,0c-0.25-1.25-0.25-2.25-0.25-3.5c4.5,0,4.5,0,4.5,0
		C309.5,175.75,309.5,175.75,309.5,175.75"/>
	<polygon fill="#EA4457" points="316.25,246.75 314,246.75 309,210.5 309.25,189.75 314.5,189.75 314.5,175.75 314.5,172.25 
		309.5,172.25 310.25,58.75 313.5,58.75 313.5,58.75 316.25,246.75 	"/>
	<polygon fill="#E03041" points="310.25,58.75 313.5,58.75 313.5,58.75 310.25,58.75 310.25,58.75 	"/>
	<polygon fill="#EB373C" points="314.5,189.75 309.25,189.75 309.5,175.75 314.5,175.75 314.5,189.75 	"/>
	<polygon fill="#E8363A" points="314.5,175.75 314.5,175.75 309.5,175.75 309.5,172.25 314.5,172.25 314.5,175.75 	"/>
	<polygon fill="#D53D55" points="322,58.75 325.25,58.75 325.25,58.75 322,58.75 322,58.75 	"/>
	<polygon fill="#F24E62" points="325.25,246.75 322,246.75 322,58.75 325.25,58.75 325.25,246.75 	"/>
	<path fill="#D53D55" d="M287.75,58.75c-2,0-2,0-2,0l0,0C287.75,58.75,287.75,58.75,287.75,58.75L287.75,58.75"/>
	<path fill="#F24E62" d="M310,246.75c-2,0-2,0-2,0c0-14.75,0-14.75,0-14.75c1,6.25,1,6.25,1,6.25c-0.25,8.5-0.25,8.5-0.25,8.5
		C310,246.75,310,246.75,310,246.75 M296,202.75c-2.25-9.5-2.25-9.5-2.25-9.5c-0.25-1.25-0.5-2.25-0.75-3.5c3,0,3,0,3,0
		C296,202.75,296,202.75,296,202.75 M288.25,65.75c-2.5,0-2.5,0-2.5,0c0-4.25,0-7,0-7c2,0,2,0,2,0S288,61.5,288.25,65.75"/>
	<path fill="#F25063" d="M308,246.75c-1.5,0-1.5,0-1.5,0c-10.5-44-10.5-44-10.5-44c0-13,0-13,0-13c4,0,4,0,4,0
		c0.25,1.25,0.5,2.25,0.75,3.5c5,20.75,5,20.75,5,20.75c2.25,18,2.25,18,2.25,18C308,246.75,308,246.75,308,246.75"/>
	<path fill="#F04146" d="M297.25,172.25c-6.5,0-6.5,0-6.5,0c-0.25-2.25-0.5-4.75-0.75-7.25c0.75,0,0.75,0,0.75,0
		c0-40.75,0-40.75,0-40.75c1.75,0,1.75,0,1.75,0C294,141.25,295.5,158.5,297.25,172.25 M291.75,115.5c-1,0-1,0-1,0
		c0-11.5,0-11.5,0-11.5C291,107.75,291.5,111.5,291.75,115.5 M288.75,74.75c-2.75,0-2.75,0-2.75,0c-0.25-3.5-0.25-6.5-0.25-9
		c2.5,0,2.5,0,2.5,0C288.25,68.25,288.5,71.25,288.75,74.75"/>
	<path fill="#F04146" d="M292.5,124.25c-5,0-5,0-5,0c0-3-0.25-5.75-0.25-8.75c3.5,0,3.5,0,3.5,0c1,0,1,0,1,0
		C292,118.5,292.25,121.25,292.5,124.25"/>
	<path fill="#E94A67" d="M290.75,115.5c-3.5,0-3.5,0-3.5,0c-0.75-15.25-1-29.75-1.25-40.25c0.25-0.5,0.25-0.5,0.25-0.5
		c-0.25,0-0.25,0-0.25,0l0,0c2.75,0,2.75,0,2.75,0c0.5,8,1.25,18,2,29.25C290.75,115.5,290.75,115.5,290.75,115.5"/>
	<path fill="#E94A67" d="M290.75,165c-0.75,0-0.75,0-0.75,0c-1-12.25-1.75-26.5-2.5-40.75c3.25,0,3.25,0,3.25,0
		C290.75,165,290.75,165,290.75,165"/>
	<path fill="#F04146" d="M300,189.75c-7,0-7,0-7,0c-0.75-4-1.5-8.75-2-14c6.75,0,6.75,0,6.75,0C298.5,181,299.25,185.75,300,189.75"
		/>
	<path fill="#F03F43" d="M297.75,175.75c-6.75,0-6.75,0-6.75,0c0-1.25-0.25-2.25-0.25-3.5c6.5,0,6.5,0,6.5,0
		C297.5,173.5,297.5,174.5,297.75,175.75"/>
	<path fill="#EE4D66" d="M286,75.25c0-0.25,0-0.25,0-0.5c0.25,0,0.25,0,0.25,0C286,75.25,286,75.25,286,75.25"/>
	<polygon fill="#EA4457" points="310,246.75 308.75,246.75 309,238.25 310,246.75 	"/>
	<polygon fill="#EA4457" points="314,246.75 310,246.75 309,238.25 308,232 308,202.5 309,210.5 314,246.75 	"/>
	<path fill="#EB4658" d="M308,232c-2.25-18-2.25-18-2.25-18C303,193.25,303,193.25,303,193.25c-0.25-1.25-0.25-2.25-0.5-3.5
		c4,0,4,0,4,0c0,1.25,0.25,2.25,0.25,3.5c1.25,9.25,1.25,9.25,1.25,9.25C308,232,308,232,308,232 M305,172.25c-2.25,0-2.25,0-2.25,0
		c0-36.5,0-36.5,0-36.5C303.5,149,304.25,161.75,305,172.25 M300,65.75c-1.5,0-1.5,0-1.5,0c0-4.25,0-7,0-7l0,0c1.25,0,1.25,0,1.25,0
		l0,0C299.75,58.75,299.75,61.5,300,65.75"/>
	<path fill="#E03041" d="M299.75,58.75c-1.25,0-1.25,0-1.25,0l0,0C299.75,58.75,299.75,58.75,299.75,58.75L299.75,58.75"/>
	<path fill="#EB373C" d="M302.75,172.25c-1.5,0-1.5,0-1.5,0C299.5,139,298.75,85,298.5,65.75c1.5,0,1.5,0,1.5,0
		c0.25,13,1.5,42.25,2.75,70C302.75,172.25,302.75,172.25,302.75,172.25"/>
	<path fill="#EB373C" d="M306.5,189.75c-4,0-4,0-4,0c-0.25-4-0.75-8.75-1-14c3.75,0,3.75,0,3.75,0
		C305.5,181,306,185.75,306.5,189.75"/>
	<path fill="#E8363A" d="M305.25,175.75c-3.75,0-3.75,0-3.75,0c0-1.25-0.25-2.25-0.25-3.5c3.75,0,3.75,0,3.75,0
		C305,173.5,305,174.5,305.25,175.75"/>
	<path fill="#EA4457" d="M296,236c-10.25-42.75-10.25-42.75-10.25-42.75c-0.25-1.25-0.5-2.25-0.75-3.5c3.25,0,3.25,0,3.25,0
		c0.25,1.25,0.5,2.25,0.75,3.5c7,29,7,29,7,29C296,236,296,236,296,236 M278.5,65.75c-1.5,0-1.5,0-1.5,0c0-7,0-7,0-7c1,0,1,0,1,0
		l0,0C278,58.75,278.25,61.5,278.5,65.75"/>
	<path fill="#EB4658" d="M277,65.75c-0.25,0-0.25,0-0.25,0c0-4.25-0.25-7-0.25-7l0,0c0.5,0,0.5,0,0.5,0
		C277,65.75,277,65.75,277,65.75"/>
	<polygon fill="#EB4658" points="301.75,246.75 298.5,246.75 296,236 296,222.25 301.75,246.75 	"/>
	<path fill="#E03041" d="M278,58.75c-1.5,0-1.5,0-1.5,0l0,0C278,58.75,278,58.75,278,58.75L278,58.75"/>
	<path fill="#EB373C" d="M285.75,172.25c-3,0-3,0-3,0c-0.25-2.25-0.5-4.75-0.75-7.25c3,0,3,0,3,0
		C285.25,167.5,285.5,170,285.75,172.25 M278.75,74.75c-1.75,0-1.75,0-1.75,0c0-3.5-0.25-6.5-0.25-9c0.25,0,0.25,0,0.25,0
		c1.5,0,1.5,0,1.5,0C278.5,68.25,278.75,71.25,278.75,74.75"/>
	<path fill="#EB373C" d="M281.75,124.25c-2.5,0-2.5,0-2.5,0c-0.25-3-0.5-5.75-0.5-8.75c2.25,0,2.25,0,2.25,0
		C281.25,118.5,281.5,121.25,281.75,124.25"/>
	<path fill="#DE425C" d="M281,115.5c-2.25,0-2.25,0-2.25,0c-0.5-9-0.75-17.5-1.25-25c2-3.5,2-3.5,2-3.5
		C280,95.5,280.5,105.25,281,115.5 M277.25,77.5c-0.25-1-0.25-1.75-0.25-2.75c1.75,0,1.75,0,1.75,0l0,0l0,0
		C277.25,77.5,277.25,77.5,277.25,77.5"/>
	<path fill="#DE425C" d="M285,165c-3,0-3,0-3,0c-0.75-9-1.5-18.75-2.25-29c2.5-4.25,2.5-4.25,2.5-4.25
		C283,143.25,284,154.75,285,165 M281.75,124.25c-2.5,0-2.5,0-2.5,0l0,0C281.75,124.25,281.75,124.25,281.75,124.25L281.75,124.25"
		/>
	<path fill="#EB373C" d="M288.25,189.75c-3.25,0-3.25,0-3.25,0c-0.75-4-1.25-8.75-2-14c3.25,0,3.25,0,3.25,0
		C287,181,287.5,185.75,288.25,189.75"/>
	<path fill="#E8363A" d="M286.25,175.75c-3.25,0-3.25,0-3.25,0c0-1.25-0.25-2.25-0.25-3.5c3,0,3,0,3,0
		C286,173.5,286,174.5,286.25,175.75"/>
	<path fill="#E4455C" d="M279.75,136c-0.25-3.75-0.5-7.75-0.5-11.75c2.5,0,2.5,0,2.5,0c0,2.5,0.25,5,0.5,7.5
		C279.75,136,279.75,136,279.75,136"/>
	<path fill="#E4455C" d="M277.5,90.5c0-4.75-0.25-9-0.25-13c1.5-2.75,1.5-2.75,1.5-2.75l0,0c0.25,3.75,0.5,7.75,0.75,12.25
		C277.5,90.5,277.5,90.5,277.5,90.5"/>
	<path fill="#FCD868" d="M313.75,215.25c-167,0-167,0-167,0c-10.5,0-19,6.25-19,14.25c0,47.25,0,47.25,0,47.25
		c204.75,0,204.75,0,204.75,0c0-47.25,0-47.25,0-47.25C332.5,221.5,324,215.25,313.75,215.25"/>
	<path fill="#FDE39E" d="M196.5,250.25c-47,0-47,0-47,0c-5.5,0-5,3.5-5,3.5c0,14.75,0,14.75,0,14.75c23,0,23,0,23,0
		c10.75,0,10.75,0,10.75,0c23.25,0,23.25,0,23.25,0c0-14.75,0-14.75,0-14.75S201.75,250.25,196.5,250.25"/>
	<path fill="#FDE39E" d="M253.25,250.25c-46.75,0-46.75,0-46.75,0c-5.5,0-5.25,3.5-5.25,3.5c0,14.75,0,14.75,0,14.75
		c23.25,0,23.25,0,23.25,0c10.75,0,10.75,0,10.75,0c23,0,23,0,23,0c0-14.75,0-14.75,0-14.75S258.75,250.25,253.25,250.25"/>
	<path fill="#FDE39E" d="M310.5,250.25c-47,0-47,0-47,0c-5.5,0-5,3.5-5,3.5c0,14.75,0,14.75,0,14.75c23,0,23,0,23,0
		c10.75,0,10.75,0,10.75,0c23.25,0,23.25,0,23.25,0c0-14.75,0-14.75,0-14.75S315.75,250.25,310.5,250.25"/>
	<polygon fill="#DCA319" points="315.75,258 144.5,258 144.5,268.5 315.75,268.5 315.75,258 	"/>
	<path fill="#FBC529" d="M342.25,276.75c0-38.25,0-38.25,0-38.25c0-2.25-2.5-4-5.5-4c-7.75,0-7.75,0-7.75,0c-7.5,0-13.5,4.5-13.5,10
		c0,14.5,0,14.5,0,14.5c-171,0-171,0-171,0c0-14.5,0-14.5,0-14.5c0-5.5-6-10-13.5-10c-7.75,0-7.75,0-7.75,0c-3,0-5.5,1.75-5.5,4
		c0,38.25,0,38.25,0,38.25c0,3,3,5.25,7,5.25c210.5,0,210.5,0,210.5,0C339.25,282,342.25,279.75,342.25,276.75"/>
	<path fill="#BF881B" d="M153.75,285c0-3,0-3,0-3c-19.25,0-19.25,0-19.25,0c0,3,0,3,0,3c0,1,1.25,2,2.75,2c13.75,0,13.75,0,13.75,0
		C152.5,287,153.75,286,153.75,285"/>
	<path fill="#BF881B" d="M325.5,285c0-3,0-3,0-3c-19.25,0-19.25,0-19.25,0c0,3,0,3,0,3c0,1,1.25,2,2.75,2c13.75,0,13.75,0,13.75,0
		C324.25,287,325.5,286,325.5,285"/>
	<polygon fill="#F58050" points="107.25,219.25 11.5,219.25 11.5,287.25 107.25,287.25 107.25,219.25 	"/>
	<polygon fill="#E56547" points="102.25,224.75 16.25,224.75 16.25,241.5 102.25,241.5 102.25,224.75 	"/>
	<polygon fill="#E56547" points="102.25,245.75 16.25,245.75 16.25,262.5 102.25,262.5 102.25,245.75 	"/>
	<polygon fill="#E56547" points="102.25,266.25 16.25,266.25 16.25,283 102.25,283 102.25,266.25 	"/>
	<polygon fill="#ED7545" points="107.25,219.25 11.5,219.25 11.5,221.75 107.25,221.75 107.25,219.25 	"/>
	<polygon fill="#F58050" points="111,219.25 7.5,219.25 7.5,211.5 111,211.5 111,219.25 	"/>
	<path fill="#A23347" d="M63.5,233.5c0,1.75-1.75,3.25-4.25,3.25c-2.25,0-4.25-1.5-4.25-3.25s2-3.25,4.25-3.25
		C61.75,230.25,63.5,231.75,63.5,233.5"/>
	<path fill="#A23347" d="M63.5,254.75c0,1.75-1.75,3.25-4.25,3.25C57,258,55,256.5,55,254.75s2-3.25,4.25-3.25
		C61.75,251.5,63.5,253,63.5,254.75"/>
	<path fill="#A23347" d="M63.5,275c0,1.75-1.75,3.25-4.25,3.25c-2.25,0-4.25-1.5-4.25-3.25s2-3.25,4.25-3.25
		C61.75,271.75,63.5,273.25,63.5,275"/>
	<polygon fill="#F58050" points="86.75,187.75 81.75,187.75 81.75,199.5 86.75,199.5 86.75,187.75 	"/>
	<path fill="#3DB83D" d="M96.5,185.25c0-6-12.75-14.5-12.75-14.5S71,179.25,71,185.25c0,5.75,5.75,10.5,12.75,10.5
		S96.5,191,96.5,185.25"/>
	<polygon fill="#A23347" points="74,199.5 74.75,211.5 93.5,211.5 94.25,199.5 74,199.5 	"/>
	<path fill="#2F963E" d="M80.5,180.25c0,0.75-1,1.5-2,1.5s-1.75-0.75-1.75-1.5s0.75-1.5,1.75-1.5S80.5,179.5,80.5,180.25"/>
	<path fill="#2F963E" d="M92,188c0,0.75-0.75,1.25-1.75,1.25s-1.75-0.5-1.75-1.25s0.75-1.5,1.75-1.5S92,187.25,92,188"/>
	<path fill="#2F963E" d="M86.25,175.5c0,0.5-0.5,1-1.25,1s-1.25-0.5-1.25-1c0-0.75,0.5-1,1.25-1S86.25,174.75,86.25,175.5"/>
	<path fill="#2F963E" d="M84.5,191.5c0,0.75-0.75,1.5-2,1.5c-1,0-2-0.75-2-1.5s1-1.5,2-1.5C83.75,190,84.5,190.75,84.5,191.5"/>
	<path fill="#2F963E" d="M76.5,186.25c0,0.5-0.75,1-1.5,1s-1.25-0.5-1.25-1s0.5-1,1.25-1S76.5,185.75,76.5,186.25"/>
	<path fill="#2F963E" d="M88.5,182.5c0,0.5-0.75,1.25-1.5,1.25c-1,0-1.75-0.75-1.75-1.25c0-0.75,0.75-1.25,1.75-1.25
		C87.75,181.25,88.5,181.75,88.5,182.5"/>
	<path fill="#FFFFFF" d="M54.75,207.25H25v-27h29.75V207.25L54.75,207.25z M19.5,176.25v35.25h40.75v-35.25H19.5L19.5,176.25z"/>
	<polygon fill="#8AA1D9" points="25,207.25 54.75,207.25 54.75,180.25 25,180.25 25,207.25 	"/>
	<path fill="#FFFFFF" d="M25,197.5v-9.25l0,0V197.5L25,197.5L25,197.5z M54.75,190v-9.25l0,0V190L54.75,190L54.75,190z"/>
	<polygon fill="#BECDED" points="25,197.5 25,188.25 54.75,180.75 54.75,190 25,197.5 	"/>
	<path fill="#FFFFFF" d="M25,205.75v-5l0,0V205.75L25,205.75L25,205.75z M54.75,198.25v-5l0,0V198.25L54.75,198.25L54.75,198.25z"/>
	<polygon fill="#BECDED" points="25,205.75 25,200.75 54.75,193.25 54.75,198.25 25,205.75 	"/>
	<path fill="#A23347" d="M462,278.25h-97.25v-135H462V278.25L462,278.25z M354.5,134.5V287h117.75V134.5H354.5L354.5,134.5z"/>
	<polygon fill="#A23347" points="462.5,172.75 364.25,172.75 364.25,175.75 462.5,175.75 462.5,172.75 	"/>
	<polygon fill="#A23347" points="462.5,210 364.25,210 364.25,213.25 462.5,213.25 462.5,210 	"/>
	<polygon fill="#A23347" points="462.5,247 364.25,247 364.25,250.25 462.5,250.25 462.5,247 	"/>
	<polygon fill="#FBCB46" points="418,189.5 409.25,189.5 409.25,210 418,210 418,189.5 	"/>
	<polygon fill="#8AA1D9" points="391.5,190.75 380.75,190.75 380.75,210 391.5,210 391.5,190.75 	"/>
	<polygon fill="#3DB83D" points="401.5,185.5 391.75,185.5 391.75,210 401.5,210 401.5,185.5 	"/>
	<polygon fill="#E62B37" points="409.25,184 409.25,210 401.5,210 401.5,184 409.25,184 	"/>
	<polygon fill="#8AA1D9" points="440.5,183.5 433.25,183.5 433.25,210 440.5,210 440.5,183.5 	"/>
	<polygon fill="#E62B37" points="460.5,183.5 453.5,183.5 453.5,210 460.5,210 460.5,183.5 	"/>
	<polygon fill="#FBCB46" points="451.75,186 440.75,186 440.75,210 451.75,210 451.75,186 	"/>
	<polygon fill="#FFFFFF" points="449.75,191.25 442.25,191.25 442.25,206.75 449.75,206.75 449.75,191.25 	"/>
	<polygon fill="#E62B37" points="418,193.25 424.75,193.25 424.75,210 418,210 418,193.25 	"/>
	<polygon fill="#3DB83D" points="433.25,187.25 433.25,210 424.75,210 424.75,187.25 433.25,187.25 	"/>
	<polygon fill="#FFFFFF" points="409.25,188 409.25,191 401.5,191 401.5,188 409.25,188 	"/>
	<polygon fill="#FFFFFF" points="409.25,203.5 409.25,206.25 401.5,206.25 401.5,203.5 409.25,203.5 	"/>
	<polygon fill="#FBCB46" points="378.5,185.5 378.5,210 367.5,210 367.5,185.5 378.5,185.5 	"/>
	<polygon fill="#E62B37" points="378.5,188.75 378.5,191.5 367.5,191.5 367.5,188.75 378.5,188.75 	"/>
	<polygon fill="#E62B37" points="378.5,204.5 378.5,207.5 367.5,207.5 367.5,204.5 378.5,204.5 	"/>
	<polygon fill="#FFFFFF" points="389.25,209 383.25,209 383.25,193.25 389.25,193.25 389.25,209 	"/>
	<polygon fill="#FFFFFF" points="433.25,189.5 433.25,191.75 424.75,191.75 424.75,189.5 433.25,189.5 	"/>
	<polygon fill="#FFFFFF" points="433.25,205.75 433.25,207.75 424.75,207.75 424.75,205.75 433.25,205.75 	"/>
	<polygon fill="#FBCB46" points="407.25,222.25 399.75,222.25 399.75,247 407.25,247 407.25,222.25 	"/>
	<polygon fill="#FFFFFF" points="407.25,224.5 399.75,224.5 399.75,227.75 407.25,227.75 407.25,224.5 	"/>
	<polygon fill="#FFFFFF" points="407.25,241.75 399.75,241.75 399.75,244.75 407.25,244.75 407.25,241.75 	"/>
	<polygon fill="#E62B37" points="389.5,227.75 380,227.75 380,247.25 389.5,247.25 389.5,227.75 	"/>
	<polygon fill="#FFFFFF" points="389.5,233 380,233 380,242.75 389.5,242.75 389.5,233 	"/>
	<polygon fill="#8AA1D9" points="398,222.5 389.5,222.5 389.5,247.25 398,247.25 398,222.5 	"/>
	<polygon fill="#E62B37" points="416,221 416,247.25 408.25,247.25 408.25,221 416,221 	"/>
	<polygon fill="#E62B37" points="441.75,220.25 433.5,220.25 433.5,247.25 441.75,247.25 441.75,220.25 	"/>
	<polygon fill="#8AA1D9" points="458,220.75 449.25,220.75 449.25,247.25 458,247.25 458,220.75 	"/>
	<polygon fill="#FBCB46" points="449.25,223.25 442.5,223.25 442.5,247.25 449.25,247.25 449.25,223.25 	"/>
	<polygon fill="#3DB83D" points="416,227.25 424,227.25 424,247.25 416,247.25 416,227.25 	"/>
	<polygon fill="#3DB83D" points="377.25,222.5 377.25,247.25 367.75,247.25 367.75,222.5 377.25,222.5 	"/>
	<polygon fill="#FFFFFF" points="377.25,225.75 377.25,228.5 367.75,228.5 367.75,225.75 377.25,225.75 	"/>
	<polygon fill="#FFFFFF" points="377.25,241.5 377.25,244.5 367.75,244.5 367.75,241.5 377.25,241.5 	"/>
	<polygon fill="#FBCB46" points="432.25,224.25 432.25,247.25 424,247.25 424,224.25 432.25,224.25 	"/>
	<polygon fill="#F58050" points="460.5,121.25 429.5,121.25 433.75,134.5 456.25,134.5 460.5,121.25 	"/>
	<polygon fill="#ED7545" points="459.75,124.25 460.5,121.25 429.5,121.25 430.5,124.25 459.75,124.25 	"/>
	<path fill="#F58050" d="M397.5,169.5h-22.25v-20.25h22.25V169.5L397.5,169.5z M371,146.25v26.5h30.75v-26.5H371L371,146.25z"/>
	<polygon fill="#FFFFFF" points="375.25,169.5 397.5,169.5 397.5,149.25 375.25,149.25 375.25,169.5 	"/>
	<polygon fill="#8AA1D9" points="375.25,169.5 397.5,169.5 397.5,165.25 375.25,165.25 375.25,169.5 	"/>
	<polygon fill="#8AA1D9" points="397.5,165.25 391.5,159.75 387.75,162.25 382.5,158 375.25,165.25 397.5,165.25 	"/>
	<path fill="#FBCB46" d="M394,154.5c0,1.5-1.5,2.5-3.25,2.5s-3.25-1-3.25-2.5c0-1.25,1.5-2.25,3.25-2.25S394,153.25,394,154.5"/>
	<polygon fill="#FFFFFF" points="430.75,226.75 426,226.75 426,245.5 430.75,245.5 430.75,226.75 	"/>
	<path fill="#FBCB46" d="M447,159c0-7.25-7.75-13-17.5-13c-9.5,0-17.25,5.75-17.25,13s7.75,13.25,17.25,13.25
		C439.25,172.25,447,166.25,447,159"/>
	<path fill="#FFFFFF" d="M442,159c0-5-5.5-9.25-12.5-9.25c-6.75,0-12.25,4.25-12.25,9.25c0,5.25,5.5,9.25,12.25,9.25
		C436.5,168.25,442,164.25,442,159"/>
	<polygon fill="#3DB83D" points="459.5,263.25 443.75,263.25 443.75,278.25 459.5,278.25 459.5,263.25 	"/>
	<polygon fill="#8AA1D9" points="402,267.75 366.5,267.75 366.5,278.25 402,278.25 402,267.75 	"/>
	<polygon fill="#E62B37" points="399,258 371,258 371,268 399,268 399,258 	"/>
	<polygon fill="#FBCB46" points="406.75,278.25 439,278.25 439,256.75 406.75,256.75 406.75,278.25 	"/>
	<polygon fill="#F0BA37" points="409.75,278.25 408.75,278.25 406.75,274.5 406.75,272.5 409.75,278.25 	"/>
	<polygon fill="#F0BA37" points="413.25,278.25 412.25,278.25 406.75,267.75 406.75,265.75 413.25,278.25 	"/>
	<polygon fill="#F0BA37" points="416.5,278.25 415.5,278.25 406.75,261 406.75,259 416.5,278.25 	"/>
	<polygon fill="#F0BA37" points="420,278.25 419,278.25 408,256.75 409,256.75 420,278.25 	"/>
	<polygon fill="#F0BA37" points="423.5,278.25 422.25,278.25 411.25,256.75 412.25,256.75 423.5,278.25 	"/>
	<polygon fill="#F0BA37" points="426.75,278.25 425.75,278.25 414.75,256.75 415.75,256.75 426.75,278.25 	"/>
	<polygon fill="#F0BA37" points="430.25,278.25 429.25,278.25 418,256.75 419,256.75 430.25,278.25 	"/>
	<polygon fill="#F0BA37" points="433.5,278.25 432.5,278.25 421.5,256.75 422.5,256.75 433.5,278.25 	"/>
	<polygon fill="#F0BA37" points="437,278.25 436,278.25 424.75,256.75 426,256.75 437,278.25 	"/>
	<polygon fill="#F0BA37" points="439,277.75 428.25,256.75 429.25,256.75 439,275.75 439,277.75 	"/>
	<polygon fill="#F0BA37" points="439,271 431.75,256.75 432.75,256.75 439,269 439,271 	"/>
	<polygon fill="#F0BA37" points="439,264.5 435,256.75 436,256.75 439,262.5 439,264.5 	"/>
	<polygon fill="#F58050" points="447,112.5 443,112.5 443,121.5 447,121.5 447,112.5 	"/>
	<path fill="#3DB83D" d="M458.25,107.5c0-5.5-5.75-10-13.25-10c-7.25,0-13.25,4.5-13.25,10s6,10,13.25,10
		C452.5,117.5,458.25,113,458.25,107.5"/>
	<path fill="#2F963E" d="M439.75,103.75c0,0.5-0.75,1-1.75,1c-0.75,0-1.5-0.5-1.5-1c0-0.75,0.75-1.25,1.5-1.25
		C439,102.5,439.75,103,439.75,103.75"/>
	<path fill="#2F963E" d="M454.25,111c0,0.5-0.5,1-1.5,1c-0.75,0-1.5-0.5-1.5-1c0-0.75,0.75-1.25,1.5-1.25
		C453.75,109.75,454.25,110.25,454.25,111"/>
	<path fill="#2F963E" d="M447.5,100c0,0.5-0.5,0.75-1.25,0.75S445,100.5,445,100s0.5-1,1.25-1S447.5,99.5,447.5,100"/>
	<path fill="#2F963E" d="M446.5,107.25c0,0.5-0.5,0.75-1,0.75c-0.75,0-1.25-0.25-1.25-0.75s0.5-1,1.25-1
		C446,106.25,446.5,106.75,446.5,107.25"/>
	<path fill="#2F963E" d="M446,114c0,0.5-1,1.25-1.75,1.25c-1,0-1.75-0.75-1.75-1.25c0-0.75,0.75-1.5,1.75-1.5
		C445,112.5,446,113.25,446,114"/>
	<path fill="#2F963E" d="M438.75,109.5c0,0.5-0.5,0.75-1,0.75c-0.75,0-1.25-0.25-1.25-0.75s0.5-1,1.25-1
		C438.25,108.5,438.75,109,438.75,109.5"/>
	<path fill="#2F963E" d="M452.5,105c0,0.5-0.5,1-1.5,1c-0.75,0-1.25-0.5-1.25-1s0.5-1,1.25-1C452,104,452.5,104.5,452.5,105"/>
	<polygon fill="#FBCB46" points="421,128 365.5,128 365.5,134.5 421,134.5 421,128 	"/>
	<polygon fill="#8AA1D9" points="410.75,121.5 378.25,121.5 378.25,128 410.75,128 410.75,121.5 	"/>
	<polygon fill="#EEBB41" points="30,145.75 91.75,145.75 91.75,83.75 30,83.75 30,145.75 	"/>
	<path fill="#A23347" d="M99.25,78.75c0.5-4-38.5-7-38.5-7s-39,3-38.25,7c-1.75,0-2.75,0.25-3.25,0.75c0,27,0,27,0,27
		c0,16.75,0,16.75,0,16.75c0,27,0,27,0,27c0.5,0.25,1.5,0.5,3.25,0.5c-0.75,4,38.5,7,38.5,7s38.75-3,38.25-7
		c1.5,0,2.5-0.25,3.25-0.5c0-27,0-27,0-27c0-16.75,0-16.75,0-16.75c0-27,0-27,0-27C101.75,79,100.75,78.75,99.25,78.75"/>
	<polygon fill="#FFFFFF" points="30,145.75 91.75,145.75 91.75,83.75 30,83.75 30,145.75 	"/>
	<path fill="#FDE1B0" d="M64.5,114.25c-5.5-1.5-10.25-1.5-15-0.25c2.5,0.75,5.25,1.75,8,3.25C59.75,116.25,62.25,115.25,64.5,114.25
		"/>
	<path fill="#FBC663" d="M57.5,117.25c-8.75,4-17.75,7.5-27.5,8.25c0-1,0-1,0-1c6.25-4.25,12.5-8.75,19.5-10.5
		C52,114.75,54.75,115.75,57.5,117.25"/>
	<path fill="#FDE1B0" d="M91.75,107.25c0,18.75,0,18.75,0,18.75c-0.25-0.25-0.5-0.25-0.75-0.25s-0.5,0-0.75-0.25
		c-0.25,0-0.5,0-0.75,0c-0.5-0.25-1-0.25-1.5-0.5h-0.25c-0.25-0.25-0.5-0.25-0.75-0.25c-0.5-0.25-0.75-0.25-1-0.25
		c-0.25-0.25-0.5-0.25-0.75-0.5c-0.25,0-0.5,0-0.75,0c-2-1-4.25-2-6.75-3.25c-0.5-0.25-1-0.75-1.5-1c-0.25-0.25-0.75-0.5-1-0.75
		c-3.75-2.25-7.5-3.75-10.75-4.75C73.25,110.25,82.25,107,91.75,107.25"/>
	<path fill="#F8CD8E" d="M91,125.75L91,125.75c-0.25,0-0.25,0-0.25,0H91 M88,125h-0.25H88 M85.75,124.25H85.5H85.75 M76.25,119.75
		c-0.25-0.25-0.5-0.25-0.75-0.5C75.75,119.5,76,119.5,76.25,119.75"/>
	<path fill="#FBC663" d="M91,125.75c0.25,0,0.5,0,0.75,0.25c0,14.25,0,14.25,0,14.25c-4.25-1.5-8.5-4-13.25-8.25
		c-8-7-15-11.75-21-14.75c2.25-1,4.75-2,7-3c3.25,1,7,2.5,10.75,4.75c0.25,0.25,0.75,0.5,1,0.75c0.5,0.25,1,0.75,1.5,1
		C80.25,122,82.5,123,84.5,124c0.25,0,0.5,0,0.75,0c0.25,0.25,0.5,0.25,0.75,0.5c0.25,0,0.5,0,1,0.25c0.25,0,0.5,0,0.75,0.25H88
		c0.5,0.25,1,0.25,1.5,0.5c0.25,0,0.5,0,0.75,0C90.5,125.75,90.75,125.75,91,125.75"/>
	<path fill="#F6CD93" d="M91.75,145.75c-61.75,0-61.75,0-61.75,0c0-20.25,0-20.25,0-20.25c9.75-0.75,18.75-4.25,27.5-8.25
		c6,3,13,7.75,21,14.75c4.75,4.25,9,6.75,13.25,8.25C91.75,145.75,91.75,145.75,91.75,145.75"/>
	<path fill="#F8A514" d="M91.75,140.25c0,5.5,0,5.5,0,5.5c-61.75,0-61.75,0-61.75,0c0-20.25,0-20.25,0-20.25
		c9.75-0.75,18.75-4.25,27.5-8.25c6,3,13,7.75,21,14.75C83.25,136.25,87.5,138.75,91.75,140.25"/>
</g>
</svg>
