<?xml version="1.0" encoding="utf-8"?>
<!-- Generator: Adobe Illustrator 16.0.0, SVG Export Plug-In . SVG Version: 6.00 Build 0)  -->
<!DOCTYPE svg PUBLIC "-//W3C//DTD SVG 1.1//EN" "http://www.w3.org/Graphics/SVG/1.1/DTD/svg11.dtd">
<svg version="1.1" id="Layer_1" xmlns="http://www.w3.org/2000/svg" xmlns:xlink="http://www.w3.org/1999/xlink" x="0px" y="0px"
	 width="127px" height="90px" viewBox="0 0 127 90" enable-background="new 0 0 127 90" xml:space="preserve">
<g>
	<path fill="#4F71A4" d="M105.1,74.9c-0.5,2.5-1,5.3-1.5,8c-0.5,1.3-3.5,1.8-7.3,2c-4.5,0.3-9.8,0-11-1c0,0,0-0.3,0-0.5
		c-0.3-1,0.3-3.8,0.8-7.8c0.5-2.5,0.8-5.3,1.3-8.8c-1.8-2.5-10.8-8.8-10-20c1-18,24-24,26-17.8c2.3,6,3,28.8,3,32.5
		C106.6,66.1,105.9,70.4,105.1,74.9z"/>
	<path fill="#3D5A88" d="M105.1,75.4c-7.3,1.8-14.5,1.3-19,0.8c0.5-2.3,0.8-5.3,1.3-8.8c-1.8-2.5-10.8-8.5-10-20c1-18,24-24,26-17.8
		c2.3,6.3,3,28.8,3,32.5C106.6,66.6,105.9,70.9,105.1,75.4z"/>
	<path fill="#BCB1DD" d="M96.4,84.9c-0.3,0-0.5,0-1,0c-3.8,0.3-7.8,0-9.5-0.8c0,0-0.3-0.3-0.5-0.3c0,0,0-0.3,0-0.5
		c0.3-1.3,2-4.5,3-4.3c1,0.5,2,4.3,2,4.3s1.8-4.5,3.5-3.8C95.1,79.9,96.1,82.9,96.4,84.9z"/>
	<path fill="#CDDDF3" d="M95.4,84.9c-3.8,0.3-7.8,0-9.5-0.8c0.5-1.3,1.8-3.3,2.5-2.8c0.8,0.3,1.8,3.3,1.8,3.3s2.8-3.5,3.8-3.3
		C94.6,81.6,95.1,83.4,95.4,84.9z"/>
	<path fill="#4F71A4" d="M59.4,85.4c-0.5,0-1.8,0.3-3.3,0.3c-3.5,0-8.3,0.3-11.5,0c-1-0.3-1.8-0.3-2.3-0.3c-0.8-0.3-1-1-0.8-1.5
		c0.3-0.8,0.5-1.3,0.8-2.3c2.5-5.5,5-13.8,5-13.8s-0.3-3.8-0.5-8.8c-0.5-8.8-0.5-20.5,2.5-22.5c5-2.8,10.8,0,13,6.3
		C63.6,46.6,66.6,70.4,59.4,85.4z"/>
	<path fill="#4D9ADA" d="M50.6,68.6c-6,17-6,17-6,17c-1-0.3-1.8-0.3-2.3-0.3c-0.8-0.3-1-1-0.8-1.5c0.3-0.8,0.5-1.3,0.8-2.3
		c2.5-5.5,5-13.8,5-13.8s-0.3-3.8-0.5-8.8c2,1,2,1,2,1C50.6,68.6,50.6,68.6,50.6,68.6z"/>
	<path fill="#BCB1DD" d="M52.6,85.6c-0.5,0-0.8,0-1.3,0c-3.3,0.3-7.5,0-9.3-0.3c-0.3,0-0.3-0.3-0.5-0.3c-0.3-0.3-0.3-0.5,0-0.8
		c0-0.3,0-0.5,0.3-0.8c0.3-0.8,0.8-1.5,1.5-2s1.3-0.8,1.8-0.5c1.3,1,2,3.3,2,3.3s1.3-3.3,3-3.3C51.4,81.1,52.1,83.9,52.6,85.6z"/>
	<path fill="#CDDDF3" d="M51.4,85.6c-3.3,0.3-7.5,0-9.3-0.3c-0.3,0-0.3-0.3-0.5-0.3c0.5-0.8,2.3-2.5,3-2.3c0.8,0.5,2.3,2.5,2.3,2.5
		s2.3-2.8,3-2.5C50.6,82.9,51.1,84.6,51.4,85.6z"/>
	<path fill="#3D5A88" d="M113.1,23.1c0,0,4.5,10,12.5,13.5c-1.5,1.5-9.8-1.8-12.3-5C110.6,28.1,113.1,23.1,113.1,23.1z"/>
	<path fill="#5E86B6" d="M117.6,66.1v0.3c-0.3,1.5-2.3,2.5-5.3,3.5c-3.5,0.8-8.3,1.5-13.5,1.8c-9.5,0.8-20,0.5-27.3-0.5
		c-1.8-0.3-3.5-0.5-4.8-0.8c-0.5-0.3-1-0.3-1.5-0.5c-2-0.8-4.3-1.5-6-2.5c-7.8-3.8-13.3-9-13.3-9s5-1.5,5-8c0-6.8-6.3-30.5-6.3-30.5
		c1.5,0,4.8-0.3,9-0.5c7.5-0.5,18.5-1.3,29.3-1.3c11.8,0.3,23.3,1.3,30,4c0.8,0.8,1.5,3.3,2.3,7l0,0
		C117.1,40.4,117.9,60.9,117.6,66.1z"/>
	<path fill="#4F71A4" d="M59.4,19.1c-1.5,1.3,10.3,10.3,13.8,18.3s8,27.8,4.3,36.3c21,0.5,22-0.5,22-0.5c-0.3-5.3-0.3-5.3-0.3-5.3
		s-10.3-9.5-10-18.3c0.5-9,3-15.5,10.8-18.3c-3-4.8-13-12.5-13.5-12.5C85.6,18.9,61.1,17.9,59.4,19.1z"/>
	<path fill="#3D5A88" d="M113.9,63.4c0,1-0.3,2-0.3,3c-0.3,0.5-0.8,3.3-1.3,3.5c-3.5,0.8-8.3,1.5-13.5,1.8c-9.5,0.8-20,0.5-27.3-0.5
		c1.3-3.5,3-8.3,3-8.3c4.5,2,15.3,2.3,15.3,2.3c-0.5,0-1.8-2.8-1.8-3c-1.3-2.5-2.5-5.3-2.8-8c-0.3-6.3,2.3-9.8,3.5-11.8
		c1.8-2.3,5.8-2.8,8.3-2.5c3.3,0,11.3,10.3,13.3,12.8s3,5.5,3.5,8.8C113.9,62.1,113.9,62.6,113.9,63.4z"/>
	<path fill="#3D5A88" d="M65.4,69.9c-2-0.8-4.3-1.5-6-2.5c-7.8-3.8-13.3-9-13.3-9s5-1.5,5-8c0-6.8-6.3-30.5-6.3-30.5
		c1.5,0,4.8-0.3,9-0.5c4,5.3,11.3,16.3,13.3,23.5C68.4,48.1,67.6,61.1,65.4,69.9z"/>
	<path fill="#739CD3" d="M118.4,67.4c-0.3-0.5-0.5-1-0.8-1.8c-3-10.8-8.8-32.3-10.8-37c0-0.3-0.3-0.5-0.5-0.8
		c-3-4.3-15.5-8-23.3-9.8c11.8,0.3,23.3,1.3,30,4c0.8,0.8,1.5,3.3,2.3,7l0,0c0.3,1.8,0.5,3.5,1,5.3c1.5,9,2,24.8,2,27.8
		C118.4,63.9,118.4,65.6,118.4,67.4z"/>
	<path fill="#739CD3" d="M89.6,28.6c0-0.5-0.3-1-0.5-1.5c-0.3,0-0.5-0.3-0.5-0.5c-0.5-0.3-1-0.5-1.5-0.5c-0.3,0-0.8,0-1,0.3
		c-0.5,0-0.8,0.3-1,0.5s-0.5,0.5-0.8,0.8s-0.3,0.8-0.3,1s0,0.5,0,0.8c0,0.5,0.3,1,0.5,1.5c0.3,0,0.5,0.3,0.5,0.5
		c0.5,0.3,1,0.5,1.5,0.5c0.3,0,0.8,0,1-0.3c0.5,0,0.8-0.3,1-0.5s0.5-0.5,0.8-0.8s0.3-0.8,0.3-1C89.6,28.6,89.6,28.6,89.6,28.6z"/>
	<path fill="#739CD3" d="M77.4,26.1c-2,0-1.8,3,0.3,3S79.4,26.1,77.4,26.1z"/>
	<path fill="#5E86B6" d="M43.4,19.6c-0.3,0.3-0.8,0.3-1.3,0.3c-1.8-2.3-5.5-2.3-8.5-6.5c-2.8-3.3-2.5-7.8-1.8-10.8
		c0-0.3,0.3-0.3,0.3-0.3c0.3-0.5,1-0.5,1.5,0c3.8,6.8,10.3,15.8,10.5,16C44.1,18.4,44.1,19.4,43.4,19.6z"/>
	<path fill="#405B8C" d="M43.4,19.6c-0.3,0.3-0.8,0.3-1.3,0.3c-1.8-2.3-5.5-2.3-8.5-6.5c-2.8-3.3-2.5-7.8-1.8-10.8
		c0-0.3,0.3-0.3,0.3-0.3c0,1.8,0.8,4.8,2,6.8C36.6,14.1,42.9,17.6,43.4,19.6L43.4,19.6z"/>
	<path fill="#5E86B6" d="M37.6,20.6c-0.3,0.3-0.5,0.3-1.3,0.5c-2.3-1.5-5.8-0.5-10-3.5c-3.5-2.5-4.5-6.8-4.8-10V7.4
		c0.3-0.5,1-0.8,1.5-0.3c5.8,5.3,14.5,11.8,14.8,12C37.9,19.1,38.4,19.9,37.6,20.6z"/>
	<path fill="#405B8C" d="M37.6,20.6c-0.3,0.3-0.5,0.3-1.3,0.5c-2.3-1.5-5.8-0.5-10-3.5c-3.5-2.5-4.5-6.8-4.8-10V7.4
		c0.8,1.8,2.3,4.3,4,5.8C29.6,17.4,36.6,18.9,37.6,20.6L37.6,20.6z"/>
	<path fill="#5E86B6" d="M54.6,55.6c0,0.5-0.3,1-0.3,1.5c-2,5.8-10.8,9-16,6.3c7-2.8,8-8.3,7.8-11.5c-0.3-3-2-5.5-3.8-7.3
		c0.5,2,1.3,8.3-0.8,11.8c-1.8,3.3-6.8,4.3-9,5c0,1.5,2.3,3.8,2.3,4.5c-4.3,1.3-12,0-15-1.3c-2-0.8-4.3-2.3-6.5-4
		c-0.8-0.5-1.3-1.3-2-1.8c-1.8-1.8-3.3-3.5-4.3-5c-4-6.5-5-12.5-4.3-13.3c0.3-0.3,4.5,4.3,6.8,6.3c2,1.8,6.3,3.8,8.8,4
		c0.8,0,1.5-0.3,1.8-0.8c0.3-0.8,0.3-5.8,0.5-11.5c0-0.5,0-1,0-1.5s0-0.8,0-1.3s0-1,0-1.5c0.3-6.3,0.5-12.3,1.3-13.3
		c1.5-2.5,22.5-3.5,24.5-2.3s6,12.8,8,20C55.6,43.9,56.1,50.4,54.6,55.6z"/>
	<path fill="#4F71A4" d="M41.6,56.4c-1.8,3.3-6.8,4.3-9,5c0,1,1,2.5,1.8,3.5c0.3,0.5,0.5,0.8,0.5,1c-4.3,1.3-12,0-15-1.3
		c-2-0.8-4.3-2.3-6.5-4c-0.5-0.5-1-1-1.8-1.5c0-0.3-0.3-0.3-0.3-0.3c1.5-2.3,1.5-2.3,1.5-2.3c4.8,0.8,4.8,0.8,4.8,0.8s8.3,3,11.8,3
		c-1.5-1.5-1.3-3.3-1.3-3.3s14.3,6.8,14.3-12.5C42.9,46.6,43.6,52.9,41.6,56.4z"/>
	<path fill="#4D9ADA" d="M34.9,65.9c-4.3,1.3-12,0-15-1.3c-2-0.8-4.3-2.3-6.5-4c-0.5-0.5-1-1-1.8-1.5c2.5,0.3,2.5,0.3,2.5,0.3
		s9.3,7.8,20.3,5.5C34.6,65.4,34.9,65.6,34.9,65.9z"/>
	<path fill="#CDDDF3" d="M17.6,57.4c-0.5,0.5-0.8,1-1.3,1.3c-1,0.8-2,1.5-3,2c-0.3-0.3-0.5-0.5-0.8-0.8c-1-1-2-1.8-3-2.8
		s-1.8-2.3-2.5-3c0-0.3,0-0.3,0-0.3c-1-1.8-2-3.5-2.8-5c-1.8-4.3-2-7.8-1.5-8.3l0,0c0.3-0.3,3,2.8,5.3,4.8c0.5,0.8,1,1.3,1.5,1.5
		c0.5,0.5,0.8,0.8,1.3,1c1,0.5,1.8,1,2.8,1.5c0.8,0.3,1.5,0.5,2.3,0.8c0.8,0.5,1.8,0.5,2.5,0.8C18.6,52.6,18.9,55.4,17.6,57.4z"/>
	<path fill="#BCB1DD" d="M17.6,57.4c-0.5,0.5-0.8,1-1.3,1.3c-1,0.8-2,1.5-3,2c-0.3-0.3-0.5-0.5-0.8-0.8c-0.5-0.3-0.8-0.8-1.3-1
		c0-0.3-0.3-0.3-0.3-0.5c-0.5-0.3-1-0.8-1.5-1.3c-1-1-1.8-2.3-2.5-3c0-0.3,0-0.3,0-0.3c-0.5-0.8-1-1.5-1.3-2.3
		c-0.3-0.3-0.3-0.3-0.3-0.3l0,0c0-0.3-0.3-0.5-0.3-0.8c-0.3-0.5-0.5-0.8-0.8-1.3c0-0.3,0-0.5-0.3-0.5c-1.8-4.3-2-7.8-1.5-8.3
		c0.3,1.8,1.3,4.3,3,7l0,0c0.8,1.3,1.8,2.5,3,3.8c0.8,0.8,1.8,1.5,2.8,2.3c0,0.3,0.3,0.3,0.5,0.5c0.8,0.5,1.3,1,2,1.3
		C15.4,56.1,16.6,56.9,17.6,57.4z"/>
	<path fill="#CDDDF3" d="M20.1,46.9c-3.8-0.3-10.3-3.5-10.3-4.8c0-0.3,0-0.3,0-0.3c0.5-1.3,10.3-2.5,11-2.3c1.8,0,2.5,1.5,2.8,3
		C23.9,44.6,22.6,47.1,20.1,46.9z"/>
	<path fill="#BCB1DD" d="M20.1,46.9c-3.8-0.3-10.3-3.5-10.3-4.8c0-0.3,0-0.3,0-0.3c2,1,5.8,2.3,8.5,2c2.5,0,4.3-0.8,5.3-1.3
		C23.9,44.6,22.6,47.1,20.1,46.9z"/>
	<path fill="#4F71A4" d="M27.1,40.6c0,0-0.8,3.5,3,5.3c3.5,1.5,8.3-1.3,7.5-5c-0.8-2.8-2.5-4.3-2.5-4.3
		C27.1,40.6,27.1,40.6,27.1,40.6z"/>
	<path fill="#FFFFFF" d="M31.1,35.6c-1.3,0.3-4,2-4,5c0.3,3.3,3.3,5.3,6.5,4.3c3.3-1.3,3.8-4.8,2.8-6.8
		C35.6,36.1,33.1,35.4,31.1,35.6z"/>
	<path fill="#1E2944" d="M35.4,39.4c-0.3,0.3-0.3,0.3-0.5,0.3c0,0.3,0,0.3,0,0.3c-0.3,0-0.5,0-0.5,0c-0.3,0.3-0.3,0.3-0.5,0.3
		c-0.5,0-1-0.3-1.3-0.5c-0.5-0.5-0.5-1-0.5-1.3s0-0.5,0-0.8c0.3-0.3,0.3-0.5,0.5-0.5c0-0.3,0.3-0.3,0.3-0.3
		c-0.3-0.3-0.5-0.3-0.8-0.3c-2,0-3.8,1.8-3.8,3.8s1.8,3.8,3.8,3.8s3.8-1.8,3.8-3.8c0-0.5-0.3-1-0.3-1.3L35.4,39.4z"/>
	<path fill="#4F71A4" d="M39.1,44.4c-0.3,0,0.5-4.8,3-5.5c2.8-0.5,7,5.8,6.3,5.8c-0.5,0-5-3.8-6-3.5C41.6,41.4,40.1,44.9,39.1,44.4z
		"/>
	<path fill="#4F71A4" d="M20.6,35.9c0-0.5,0-1,0-1.5c2,0,6.5,0,7,0.3C27.9,35.1,23.4,35.6,20.6,35.9z"/>
	<path fill="#4F71A4" d="M26.4,37.1c0,0.5-3.8,1.3-5.8,1.5c0-0.5,0-1,0-1.5C22.6,36.9,26.4,36.9,26.4,37.1z"/>
	<path fill="#B4ADDD" d="M10.9,47.9c-2,3.5-2,3.5-2,3.5c-1.3-1.3-2.3-2.5-3-3.8l0,0c0.8-0.8,1.5-1.5,2.3-2.3c0.5,0.8,1,1.3,1.5,1.5
		C10.1,47.4,10.4,47.6,10.9,47.9z"/>
	<path fill="#A88BC9" d="M8.9,51.4c-1.8,2.8-1.8,2.8-1.8,2.8c0-0.3,0-0.3,0-0.3c-0.5-0.8-1-1.5-1.3-2.3c-0.3-0.3-0.3-0.3-0.3-0.3
		l0,0c0-0.3-0.3-0.5-0.3-0.8c-0.3-0.5-0.5-0.8-0.8-1.3c0-0.3,0-0.5-0.3-0.5c0.5-0.5,1-0.8,1.5-1.3C6.6,48.9,7.6,50.1,8.9,51.4z"/>
	<path fill="#B4ADDD" d="M15.9,50.1c-1.8,5.3-1.8,5.3-1.8,5.3c-0.8-0.3-1.3-0.8-2-1.3c-0.3-0.3-0.5-0.3-0.5-0.5
		c0.8-1.5,1.5-3.3,2-4.3C14.4,49.6,15.1,49.9,15.9,50.1z"/>
	<path fill="#A88BC9" d="M14.1,55.4c-1.5,4.5-1.5,4.5-1.5,4.5c-0.5-0.3-0.8-0.8-1.3-1c0-0.3-0.3-0.3-0.3-0.5c-0.5-0.3-1-0.8-1.5-1.3
		c0.5-1,1.3-2.3,2-3.5c0,0.3,0.3,0.3,0.5,0.5C12.9,54.6,13.4,55.1,14.1,55.4z"/>
	<path fill="#739CD3" d="M46.6,28.9c-0.3-1.3-1-1.8-2-2c-0.8-0.3-1.8,0-2.3,0.5c-0.8,0.5-1,1.5-1,2.3c0,1,0.5,1.5,1.3,2
		c1.3,0.8,3,0.5,3.5-1c0.3-0.3,0.3-0.5,0.3-0.5C46.6,29.6,46.6,29.1,46.6,28.9z"/>
	<path fill="#739CD3" d="M50.1,33.4c-0.3-0.5-1-0.8-1.5-0.8s-1,0.5-1.3,1c0,0,0,0,0,0.3c-0.3,0.3-0.3,0.5,0,0.8c0,0.3,0,0.3,0.3,0.5
		c0.3,0.5,1,0.8,1.8,0.5C50.4,35.4,50.6,34.1,50.1,33.4z"/>
	<path fill="#3D5A88" d="M24.4,61.1c0,0-3.8-6.5-2.5-6.5S26.1,59.4,24.4,61.1z"/>
	<path fill="#5E86B6" d="M74.6,85.4c-1,0-3.8,0.3-6.8,0.3c-2.5,0-5,0-7,0c-0.8,0-1.3-0.3-2-0.3c-1.5,0-2.3-0.3-2.5-0.5
		c0.5-1,1-2.3,1.8-3.5c2-5.8,4.5-13.5,4.5-13.5s-2.8-28.3,2.3-31.3c0.5-0.3,1-0.5,1.5-0.8c0.5,0,0.8-0.3,1.3-0.3c4-0.8,8.3,2,10,7.3
		C78.9,46.6,82.1,70.4,74.6,85.4z"/>
	<path fill="#4F71A4" d="M64.9,47.1c1,9.8,2,20.8,2,20.8s-2.5,10.5-6,17.8c-2.5-0.3-4.3-0.5-4.5-0.8c0.5-1,1-2.3,1.8-3.5
		c2-5.8,4.5-13.5,4.5-13.5s-2.8-28.3,2.3-31.3c0.8-0.5,1.8-0.8,2.8-1C66.1,37.6,64.4,41.1,64.9,47.1z"/>
	<path fill="#4F71A4" d="M70.6,66.9c-2.8-1.3-8.5-0.3-7,1.5c1.8,1.5,9,2,9.3,0.8C73.1,68.1,73.4,68.1,70.6,66.9z"/>
	<path fill="#4D9ADA" d="M63.4,44.9c0,5,1.3,21,1.5,24c-1,3.5-4,11.5-6,16.5c-1.5,0-2.3-0.3-2.5-0.5c0.5-1,1-2.3,1.8-3.5
		c2-5.8,4.5-13.5,4.5-13.5s-2.8-28.3,2.3-31.3c0.5-0.3,1-0.5,1.5-0.8C65.4,37.1,63.4,40.6,63.4,44.9z"/>
	<path fill="#BCB1DD" d="M67.9,85.6c-0.5,0-1,0-1.5,0c-4.8,0-9.8-0.3-10-0.8c0-0.8,0.5-1.5,0.8-2s0.8-1,1-1.5c1.8,0.3,3,2.5,3,2.5
		s3.3-3.3,4.5-2.8C66.9,81.4,67.4,84.1,67.9,85.6z"/>
	<path fill="#CDDDF3" d="M66.4,85.6c-4.8,0-9.8-0.3-10-0.8c0-0.8,0.5-1.5,0.8-2c0.5,0,1.3,0.3,1.8,0.8c1.3,1.3,1.8,1.8,1.8,1.8
		s3-2.3,4.3-1.8C65.6,83.9,66.1,84.9,66.4,85.6z"/>
	<path fill="#739CD3" d="M73.1,59.9c-0.3-0.3-0.3-0.8-0.8-1c0,0-0.3,0-0.3-0.3c-0.3,0-0.5,0-0.8,0c-0.5,0-1,0.3-1.3,0.5
		s-0.3,0.8-0.3,1.3c0,0.3,0.3,0.8,0.5,1c0.3,0,0.3,0,0.5,0.3c0.3,0,0.5,0,0.8,0s0.8-0.3,1-0.5S73.1,60.4,73.1,59.9z"/>
	<path fill="#5E86B6" d="M118.4,67.4c-0.5,5-1.8,10-2.8,16c-0.3,0.8-1.5,1.3-3.3,1.5c-0.3,0-0.5,0.3-0.5,0.3c-1.3,0-2.5,0.3-3.8,0.3
		c-0.3,0-0.5,0-0.8,0c-1.3,0-2.3,0-3.5,0c-0.3,0-0.8,0-1,0l0,0c-1.3,0-2.5-0.3-3.5-0.3l0,0c-0.3-0.3-0.5-0.3-0.8-0.3s-0.3,0-0.5-0.3
		c-0.3,0-0.5,0-0.8-0.3c-0.5-0.5,0-3,0.8-7.5c0.3-1.5,0.5-3.3,0.8-5.3c0-1.3,0.3-2.8,0.5-4.3c-1.8-2.5-10.8-8.5-10-20
		c0.3-3.3,1-6,2.3-8.3c0.3-0.8,0.8-1.3,1-1.8c0.8-1.3,1.8-2.3,2.8-3.3c2.3-2.3,5.3-4,8-5.3c1-0.5,2-0.8,3-1c4.3-1,7.8-0.8,9,1.3
		c0,0.3,0,0.3,0,0.5c0.5,1,0.8,2.8,1,4.8c1.5,9,2,24.8,2,27.8C118.4,63.9,118.4,65.6,118.4,67.4z"/>
	<path fill="#739CD3" d="M118.4,67.4c-0.3-0.5-0.5-1-0.8-1.8c-3-10.8-8.8-32.3-10.8-37c0-0.3-0.3-0.5-0.5-0.8c4.3-1,7.8-0.8,9,1.3
		c0.3,1.8,0.8,3.5,1,5.3c1.5,9,2,24.8,2,27.8C118.4,63.9,118.4,65.6,118.4,67.4z"/>
	<path fill="#4F71A4" d="M105.1,66.6c-2.3,18.8-2.3,18.8-2.3,18.8l0,0c-1.3,0-2.5-0.3-3.5-0.3l0,0c-0.3-0.3-0.5-0.3-0.8-0.3
		s-0.3,0-0.5-0.3c-0.3,0-0.5,0-0.8-0.3c-0.5-0.5,0-3,0.8-7.5c0.3-1.5,0.5-3.3,0.8-5.3c0-1.3,0.3-2.8,0.5-4.3
		c-1.8-2.5-10.8-8.5-10-20c0.3-3.3,1-6,2.3-8.3c0.3-0.8,0.8-1.3,1-1.8c-0.8,3.5-1.3,10,2.3,16.3C99.9,63.1,105.1,66.6,105.1,66.6z"
		/>
	<path fill="#4D9ADA" d="M101.4,66.6c-2,18.5-2,18.5-2,18.5l0,0c-0.3-0.3-0.5-0.3-0.8-0.3s-0.3,0-0.5-0.3c-0.3,0-0.5,0-0.8-0.3
		c-0.5-0.5,0-3,0.8-7.5c0.3-1.5,0.5-3.3,0.8-5.3c0-1.3,0.3-2.8,0.5-4.3c-1.8-2.5-10.8-8.5-10-20c0.3-3.3,1-6,2.3-8.3
		c-0.8,3.3-1.3,8.5,0.8,14C95.4,62.4,101.4,66.6,101.4,66.6z"/>
	<path fill="#BCB1DD" d="M112.4,84.9c-0.3,0-0.5,0.3-0.5,0.3c-1.3,0-2.5,0.3-3.8,0.3c-0.3,0-0.5,0-0.8,0c-1.3,0-2.3,0-3.5,0
		c-0.3,0-0.8,0-1,0c-1.3,0-2.5-0.3-3.5-0.3c-0.3-0.3-0.5-0.3-0.8-0.3c0-0.3,0-0.3,0-0.3c0.3-1.3,1-3.8,2.3-3.3
		c1.3,0.3,1.8,1.5,2,2.3c0,0.5,0.3,0.8,0.3,0.8s0-0.5,0.3-1c0-0.5,0.3-1,0.5-1.3c0.3-0.8,0.8-1,1.5-1c1.8,0,2.3,3,2.3,3
		s0.8-3.8,2.8-3.3C111.4,81.1,112.1,83.4,112.4,84.9z"/>
	<path fill="#CDDDF3" d="M101.9,84.1c0.3,0.3,0.8,0.8,1,1.3c-1.3,0-2.5-0.3-3.5-0.3c0.3-0.3,0.3-0.5,0.5-0.5
		c0.5-0.8,1.3-1.5,1.5-1.3S101.6,83.9,101.9,84.1z"/>
	<path fill="#CDDDF3" d="M107.4,85.4c-1.3,0-2.3,0-3.5,0c0.5-0.8,1-2,1.8-2C106.4,83.6,106.9,84.6,107.4,85.4z"/>
	<path fill="#CDDDF3" d="M111.9,85.1c-1.3,0-2.5,0.3-3.8,0.3c0.5-1.3,1.8-3.3,2.3-2.8S111.4,84.1,111.9,85.1z"/>
	<path fill="#4F71A4" d="M108.9,66.6c-2.8-1-8.5,0-6.8,1.5c1.5,1.8,8.8,2.3,9,1S111.6,67.9,108.9,66.6z"/>
	<path fill="#739CD3" d="M110.6,54.1c-2.3-0.8-4.8-1.3-6.8,0c-1.3,0.8-1,2.8,0,3.5c1.5,1.5,4.3,1.3,6,1c1-0.3,1.8-1,2-2
		S111.4,54.6,110.6,54.1z"/>
</g>
</svg>
