<?xml version="1.0" encoding="utf-8"?>
<!-- Generator: Adobe Illustrator 16.0.0, SVG Export Plug-In . SVG Version: 6.00 Build 0)  -->
<!DOCTYPE svg PUBLIC "-//W3C//DTD SVG 1.1//EN" "http://www.w3.org/Graphics/SVG/1.1/DTD/svg11.dtd">
<svg version="1.1" id="Layer_1" xmlns="http://www.w3.org/2000/svg" xmlns:xlink="http://www.w3.org/1999/xlink" x="0px" y="0px"
	 width="480px" height="360px" viewBox="0 0 480 360" enable-background="new 0 0 480 360" xml:space="preserve">
<g>
	<rect x="1.135" fill="#A1D9F6" width="478.865" height="362.377"/>
	<g>
		<g>
			<rect x="0.809" y="53.849" fill="#62C7F2" width="30.56" height="179.643"/>
			<g opacity="0.49">
				<rect x="7.796" y="60.486" fill="#FFFFFF" width="6.23" height="7.072"/>
				<rect x="7.796" y="72.062" fill="#FFFFFF" width="6.23" height="7.071"/>
				<rect x="7.796" y="83.637" fill="#FFFFFF" width="6.23" height="7.072"/>
				<rect x="7.796" y="106.787" fill="#FFFFFF" width="6.23" height="7.072"/>
				<rect x="7.796" y="118.363" fill="#FFFFFF" width="6.23" height="7.072"/>
				<rect x="7.796" y="129.938" fill="#FFFFFF" width="6.23" height="7.072"/>
				<rect x="7.796" y="141.513" fill="#FFFFFF" width="6.23" height="7.072"/>
				<rect x="7.796" y="153.088" fill="#FFFFFF" width="6.23" height="7.072"/>
				<rect x="7.796" y="164.663" fill="#FFFFFF" width="6.23" height="7.072"/>
			</g>
		</g>
		<path fill="#FFFFFF" d="M392.876,180.854c0-3.12-1.892-5.647-4.226-5.647c-0.778,0-1.5,0.301-2.125,0.792
			c-0.793-3.737-3.748-6.517-7.282-6.517c-3.379,0-6.231,2.537-7.171,6.022c-0.445-0.181-0.918-0.297-1.418-0.297
			c-2.334,0-4.227,2.148-4.227,4.797h-3c-1.58,0-2.863,1.455-2.863,3.25c0,1.794,1.283,3.249,2.863,3.249h25.903
			c1.306,0,2.396-0.997,2.739-2.354C392.572,183.219,392.876,182.087,392.876,180.854z"/>
		<g>
			<polygon fill="#82BED6" points="203.649,253.77 163.237,253.77 163.237,58.643 203.649,16.211 			"/>
			<rect x="166.604" y="102.7" opacity="0.58" fill="#FFFFFF" enable-background="new    " width="6.23" height="7.072"/>
			<rect x="166.604" y="90.515" opacity="0.58" fill="#FFFFFF" enable-background="new    " width="6.23" height="7.073"/>
			<rect x="166.604" y="78.33" opacity="0.58" fill="#FFFFFF" enable-background="new    " width="6.23" height="7.072"/>
			<rect x="177.212" y="102.7" opacity="0.58" fill="#FFFFFF" enable-background="new    " width="6.23" height="7.072"/>
			<rect x="177.212" y="90.515" opacity="0.58" fill="#FFFFFF" enable-background="new    " width="6.23" height="7.073"/>
			<rect x="177.212" y="78.33" opacity="0.58" fill="#FFFFFF" enable-background="new    " width="6.23" height="7.072"/>
			<rect x="187.821" y="102.7" opacity="0.58" fill="#FFFFFF" enable-background="new    " width="6.229" height="7.072"/>
			<rect x="187.821" y="90.515" opacity="0.58" fill="#FFFFFF" enable-background="new    " width="6.229" height="7.073"/>
			<rect x="187.821" y="78.33" opacity="0.58" fill="#FFFFFF" enable-background="new    " width="6.229" height="7.072"/>
			<rect x="166.604" y="141.5" opacity="0.58" fill="#FFFFFF" enable-background="new    " width="6.23" height="7.072"/>
			<rect x="166.604" y="129.315" opacity="0.58" fill="#FFFFFF" enable-background="new    " width="6.23" height="7.072"/>
			<rect x="177.212" y="153.685" opacity="0.58" fill="#FFFFFF" enable-background="new    " width="6.23" height="7.072"/>
			<rect x="177.212" y="141.5" opacity="0.58" fill="#FFFFFF" enable-background="new    " width="6.23" height="7.072"/>
			<rect x="187.821" y="141.5" opacity="0.58" fill="#FFFFFF" enable-background="new    " width="6.229" height="7.072"/>
			<rect x="187.821" y="129.315" opacity="0.58" fill="#FFFFFF" enable-background="new    " width="6.229" height="7.072"/>
		</g>
		<g>
			<polygon fill="#82BED6" points="28.57,317.215 68.982,317.215 68.982,122.09 28.57,79.658 			"/>
			<rect x="59.384" y="166.147" opacity="0.58" fill="#FFFFFF" enable-background="new    " width="6.23" height="7.072"/>
			<rect x="59.384" y="153.961" opacity="0.58" fill="#FFFFFF" enable-background="new    " width="6.23" height="7.072"/>
			<rect x="59.384" y="141.777" opacity="0.58" fill="#FFFFFF" enable-background="new    " width="6.23" height="7.072"/>
			<rect x="48.776" y="166.147" opacity="0.58" fill="#FFFFFF" enable-background="new    " width="6.23" height="7.072"/>
			<rect x="48.776" y="153.961" opacity="0.58" fill="#FFFFFF" enable-background="new    " width="6.23" height="7.072"/>
			<rect x="48.776" y="141.777" opacity="0.58" fill="#FFFFFF" enable-background="new    " width="6.23" height="7.072"/>
			<rect x="38.167" y="166.147" opacity="0.58" fill="#FFFFFF" enable-background="new    " width="6.23" height="7.072"/>
			<rect x="38.167" y="153.961" opacity="0.58" fill="#FFFFFF" enable-background="new    " width="6.23" height="7.072"/>
			<rect x="38.167" y="141.777" opacity="0.58" fill="#FFFFFF" enable-background="new    " width="6.23" height="7.072"/>
			<rect x="59.384" y="204.947" opacity="0.58" fill="#FFFFFF" enable-background="new    " width="6.23" height="7.072"/>
			<rect x="59.384" y="192.762" opacity="0.58" fill="#FFFFFF" enable-background="new    " width="6.23" height="7.072"/>
			<rect x="48.776" y="217.132" opacity="0.58" fill="#FFFFFF" enable-background="new    " width="6.23" height="7.071"/>
			<rect x="48.776" y="204.947" opacity="0.58" fill="#FFFFFF" enable-background="new    " width="6.23" height="7.072"/>
			<rect x="38.167" y="204.947" opacity="0.58" fill="#FFFFFF" enable-background="new    " width="6.23" height="7.072"/>
			<rect x="38.167" y="192.762" opacity="0.58" fill="#FFFFFF" enable-background="new    " width="6.23" height="7.072"/>
		</g>
		<g>
			<polygon fill="#82BED6" points="319.893,134.99 319.893,119.137 312.566,119.137 312.566,106.235 301.201,106.235 
				301.201,119.137 292.866,119.137 292.866,134.99 284.757,134.99 284.757,253.77 325.169,253.77 325.169,134.99 			"/>
			<rect x="301.848" y="173.364" opacity="0.49" fill="#FFFFFF" enable-background="new    " width="6.23" height="7.072"/>
			<rect x="290.677" y="173.364" opacity="0.49" fill="#FFFFFF" enable-background="new    " width="6.23" height="7.072"/>
			<rect x="309.452" y="155.73" opacity="0.49" fill="#FFFFFF" enable-background="new    " width="6.229" height="7.072"/>
			<rect x="309.452" y="198.495" opacity="0.49" fill="#FFFFFF" enable-background="new    " width="6.229" height="7.071"/>
			<rect x="290.677" y="140.619" opacity="0.49" fill="#FFFFFF" enable-background="new    " width="6.23" height="7.072"/>
		</g>
		<g>
			<polygon fill="#82BED6" points="474.723,79.945 474.723,64.092 467.397,64.092 467.397,51.191 456.031,51.191 456.031,64.092 
				447.696,64.092 447.696,79.945 439.588,79.945 439.588,266.578 480,266.578 480,79.945 			"/>
			<rect x="459.14" y="117.917" opacity="0.49" fill="#FFFFFF" enable-background="new    " width="6.23" height="7.071"/>
			<rect x="447.969" y="117.917" opacity="0.49" fill="#FFFFFF" enable-background="new    " width="6.23" height="7.071"/>
			<rect x="466.743" y="100.282" opacity="0.49" fill="#FFFFFF" enable-background="new    " width="6.229" height="7.073"/>
			<rect x="466.743" y="143.047" opacity="0.49" fill="#FFFFFF" enable-background="new    " width="6.229" height="7.072"/>
			<rect x="447.969" y="85.171" opacity="0.49" fill="#FFFFFF" enable-background="new    " width="6.23" height="7.072"/>
		</g>
		<g>
			<rect x="333.277" y="74.125" fill="#62C7F2" width="30.104" height="179.645"/>
			<g opacity="0.49">
				<rect x="340.268" y="80.763" fill="#FFFFFF" width="6.229" height="7.072"/>
				<rect x="340.268" y="92.338" fill="#FFFFFF" width="6.229" height="7.072"/>
				<rect x="340.268" y="103.913" fill="#FFFFFF" width="6.229" height="7.072"/>
				<rect x="340.268" y="127.063" fill="#FFFFFF" width="6.229" height="7.072"/>
				<rect x="340.268" y="138.639" fill="#FFFFFF" width="6.229" height="7.072"/>
				<rect x="340.268" y="150.214" fill="#FFFFFF" width="6.229" height="7.072"/>
				<rect x="340.268" y="161.789" fill="#FFFFFF" width="6.229" height="7.072"/>
				<rect x="340.268" y="173.364" fill="#FFFFFF" width="6.229" height="7.072"/>
				<rect x="340.268" y="184.939" fill="#FFFFFF" width="6.229" height="7.071"/>
			</g>
		</g>
		<path opacity="0.59" fill="#FFFFFF" enable-background="new    " d="M119.457,125.117c0-3.119-1.893-5.648-4.227-5.648
			c-0.778,0-1.498,0.301-2.125,0.791c-0.792-3.736-3.747-6.517-7.282-6.517c-3.378,0-6.233,2.537-7.17,6.023
			c-0.445-0.181-0.918-0.297-1.418-0.297c-2.334,0-4.226,2.147-4.226,4.797h-3c-1.581,0-2.863,1.456-2.863,3.25
			c0,1.795,1.282,3.25,2.863,3.25h25.903c1.306,0,2.395-0.999,2.739-2.355C119.153,127.482,119.457,126.351,119.457,125.117z"/>
		<g>
			<g>
				<path fill="#59C2EE" d="M249.516,101.194l-4.689-44.068c-0.023-0.217-0.299-0.223-0.329-0.007l-6.273,44.21
					c-14.997,3.186-26.35,18.114-26.35,36.061v116.377h64.66V137.391C276.533,119.178,264.842,104.072,249.516,101.194z"/>
			</g>
			<g opacity="0.39">
				<rect x="223.252" y="132.58" fill="#FFFFFF" width="6.23" height="7.072"/>
				<rect x="223.252" y="144.155" fill="#FFFFFF" width="6.23" height="7.072"/>
				<rect x="223.252" y="155.73" fill="#FFFFFF" width="6.23" height="7.072"/>
				<rect x="223.252" y="167.305" fill="#FFFFFF" width="6.23" height="7.072"/>
				<rect x="223.252" y="178.88" fill="#FFFFFF" width="6.23" height="7.072"/>
				<rect x="223.252" y="190.456" fill="#FFFFFF" width="6.23" height="7.071"/>
				<rect x="223.252" y="202.031" fill="#FFFFFF" width="6.23" height="7.07"/>
				<rect x="223.252" y="213.605" fill="#FFFFFF" width="6.23" height="7.072"/>
				<rect x="223.252" y="225.182" fill="#FFFFFF" width="6.23" height="7.071"/>
				<rect x="223.252" y="236.757" fill="#FFFFFF" width="6.23" height="7.071"/>
			</g>
			<g opacity="0.39">
				<rect x="259.118" y="132.58" fill="#FFFFFF" width="6.229" height="7.072"/>
				<rect x="259.118" y="144.155" fill="#FFFFFF" width="6.229" height="7.072"/>
				<rect x="259.118" y="155.73" fill="#FFFFFF" width="6.229" height="7.072"/>
				<rect x="259.118" y="167.305" fill="#FFFFFF" width="6.229" height="7.072"/>
				<rect x="259.118" y="178.88" fill="#FFFFFF" width="6.229" height="7.072"/>
				<rect x="259.118" y="190.456" fill="#FFFFFF" width="6.229" height="7.071"/>
				<rect x="259.118" y="202.031" fill="#FFFFFF" width="6.229" height="7.07"/>
				<rect x="259.118" y="213.605" fill="#FFFFFF" width="6.229" height="7.072"/>
				<rect x="259.118" y="225.182" fill="#FFFFFF" width="6.229" height="7.071"/>
				<rect x="259.118" y="236.757" fill="#FFFFFF" width="6.229" height="7.071"/>
			</g>
			<g opacity="0.39">
				<rect x="241.088" y="132.58" fill="#FFFFFF" width="6.23" height="7.072"/>
				<rect x="241.088" y="144.155" fill="#FFFFFF" width="6.23" height="7.072"/>
				<rect x="241.088" y="155.73" fill="#FFFFFF" width="6.23" height="7.072"/>
				<rect x="241.088" y="167.305" fill="#FFFFFF" width="6.23" height="7.072"/>
				<rect x="241.088" y="178.88" fill="#FFFFFF" width="6.23" height="7.072"/>
				<rect x="241.088" y="190.456" fill="#FFFFFF" width="6.23" height="7.071"/>
				<rect x="241.088" y="202.031" fill="#FFFFFF" width="6.23" height="7.07"/>
				<rect x="241.088" y="213.605" fill="#FFFFFF" width="6.23" height="7.072"/>
				<rect x="241.088" y="225.182" fill="#FFFFFF" width="6.23" height="7.071"/>
				<rect x="241.088" y="236.757" fill="#FFFFFF" width="6.23" height="7.071"/>
			</g>
		</g>
		<g>
			<rect x="110.027" y="79.295" fill="#62C7F2" width="40.412" height="174.475"/>
			<rect x="115.221" y="93.429" opacity="0.55" fill="#FFFFFF" enable-background="new    " width="6.23" height="7.073"/>
			<rect x="130.233" y="106.235" opacity="0.55" fill="#FFFFFF" enable-background="new    " width="6.23" height="7.072"/>
			<rect x="113.227" y="125.922" opacity="0.55" fill="#FFFFFF" enable-background="new    " width="6.23" height="7.072"/>
			<rect x="132.591" y="125.922" opacity="0.55" fill="#FFFFFF" enable-background="new    " width="6.23" height="7.072"/>
			<rect x="115.221" y="176.956" opacity="0.55" fill="#FFFFFF" enable-background="new    " width="6.23" height="7.071"/>
			<rect x="122.993" y="146.565" opacity="0.55" fill="#FFFFFF" enable-background="new    " width="6.23" height="7.072"/>
			<rect x="133.348" y="166.532" opacity="0.55" fill="#FFFFFF" enable-background="new    " width="6.23" height="7.072"/>
			<rect x="142.02" y="145.036" opacity="0.55" fill="#FFFFFF" enable-background="new    " width="6.23" height="7.072"/>
			<rect x="127.118" y="209.066" opacity="0.55" fill="#FFFFFF" enable-background="new    " width="6.23" height="7.072"/>
		</g>
		<g>
			<rect x="406.941" y="131.944" fill="#62C7F2" width="40.411" height="174.473"/>
			<rect x="412.134" y="146.079" opacity="0.55" fill="#FFFFFF" enable-background="new    " width="6.23" height="7.071"/>
			<rect x="427.146" y="158.885" opacity="0.55" fill="#FFFFFF" enable-background="new    " width="6.229" height="7.072"/>
			<rect x="410.14" y="178.571" opacity="0.55" fill="#FFFFFF" enable-background="new    " width="6.23" height="7.072"/>
			<rect x="429.504" y="178.571" opacity="0.55" fill="#FFFFFF" enable-background="new    " width="6.23" height="7.072"/>
			<rect x="412.134" y="229.604" opacity="0.55" fill="#FFFFFF" enable-background="new    " width="6.23" height="7.072"/>
			<rect x="419.906" y="199.214" opacity="0.55" fill="#FFFFFF" enable-background="new    " width="6.229" height="7.072"/>
			<rect x="430.262" y="219.182" opacity="0.55" fill="#FFFFFF" enable-background="new    " width="6.23" height="7.071"/>
			<rect x="438.934" y="197.686" opacity="0.55" fill="#FFFFFF" enable-background="new    " width="6.229" height="7.071"/>
			<rect x="424.031" y="261.715" opacity="0.55" fill="#FFFFFF" enable-background="new    " width="6.229" height="7.072"/>
		</g>
		<path fill="#77AFC5" d="M180.328,253.77h-35.192v-68.83H158.7c11.945,0,21.628,10.992,21.628,24.551V253.77z"/>
		<g opacity="0.35">
			<rect x="152.181" y="205.004" fill="#FFFFFF" width="24.247" height="2.294"/>
			<rect x="152.181" y="209.878" fill="#FFFFFF" width="24.247" height="2.293"/>
			<rect x="152.181" y="214.752" fill="#FFFFFF" width="24.247" height="2.294"/>
			<rect x="152.181" y="219.626" fill="#FFFFFF" width="24.247" height="2.294"/>
			<rect x="152.181" y="224.501" fill="#FFFFFF" width="24.247" height="2.292"/>
			<rect x="152.181" y="229.374" fill="#FFFFFF" width="24.247" height="2.294"/>
		</g>
		<path fill="#FFFFFF" d="M132.932,57.515c0-3.805-2.308-6.89-5.154-6.89c-0.95,0-1.828,0.368-2.592,0.965
			c-0.966-4.558-4.571-7.949-8.882-7.949c-4.12,0-7.603,3.094-8.746,7.347c-0.543-0.221-1.12-0.363-1.73-0.363
			c-2.847,0-5.155,2.62-5.155,5.852h-3.658c-1.929,0-3.493,1.775-3.493,3.964s1.564,3.964,3.493,3.964h31.594
			c1.592,0,2.921-1.217,3.341-2.872C132.562,60.399,132.932,59.019,132.932,57.515z"/>
		<path fill="#FFFFFF" d="M48.275,25.554c0-3.805-2.308-6.89-5.154-6.89c-0.95,0-1.827,0.368-2.591,0.965
			c-0.966-4.558-4.572-7.949-8.884-7.949c-4.12,0-7.603,3.094-8.746,7.346c-0.543-0.22-1.12-0.362-1.729-0.362
			c-2.847,0-5.155,2.62-5.155,5.852h-3.658c-1.929,0-3.492,1.774-3.492,3.964c0,2.189,1.563,3.964,3.492,3.964h31.595
			c1.592,0,2.921-1.218,3.341-2.872C47.905,28.438,48.275,27.058,48.275,25.554z"/>
		<path opacity="0.59" fill="#FFFFFF" enable-background="new    " d="M225.978,46.504c0-3.12-1.892-5.648-4.226-5.648
			c-0.778,0-1.498,0.301-2.124,0.792c-0.792-3.737-3.748-6.518-7.283-6.518c-3.377,0-6.232,2.537-7.17,6.023
			c-0.445-0.181-0.918-0.297-1.417-0.297c-2.335,0-4.227,2.148-4.227,4.797h-3c-1.581,0-2.862,1.455-2.862,3.25
			c0,1.795,1.282,3.25,2.862,3.25h25.903c1.306,0,2.395-0.999,2.739-2.355C225.674,48.869,225.978,47.737,225.978,46.504z"/>
		<path fill="#FFFFFF" d="M298.225,91.393c0-3.877-2.353-7.021-5.254-7.021c-0.967,0-1.861,0.374-2.641,0.983
			c-0.982-4.644-4.657-8.1-9.051-8.1c-4.198,0-7.747,3.152-8.912,7.485c-0.555-0.225-1.143-0.369-1.764-0.369
			c-2.9,0-5.252,2.669-5.252,5.962h-3.729c-1.966,0-3.559,1.809-3.559,4.039c0,2.231,1.593,4.04,3.559,4.04h32.193
			c1.623,0,2.978-1.241,3.404-2.927C297.846,94.332,298.225,92.926,298.225,91.393z"/>
		<path fill="#FFFFFF" d="M346.047,26.032c0-3.843-2.331-6.958-5.207-6.958c-0.958,0-1.845,0.371-2.615,0.975
			c-0.977-4.604-4.617-8.029-8.973-8.029c-4.163,0-7.68,3.125-8.835,7.42c-0.548-0.223-1.13-0.366-1.747-0.366
			c-2.875,0-5.207,2.646-5.207,5.91h-3.693c-1.949,0-3.527,1.792-3.527,4.004c0,2.211,1.578,4.004,3.527,4.004h31.912
			c1.607,0,2.949-1.23,3.373-2.901C345.673,28.945,346.047,27.551,346.047,26.032z"/>
		<path opacity="0.59" fill="#FFFFFF" enable-background="new    " d="M388.721,72.682c0-3.12-1.891-5.648-4.226-5.648
			c-0.778,0-1.498,0.301-2.124,0.792c-0.792-3.737-3.747-6.517-7.283-6.517c-3.378,0-6.232,2.537-7.171,6.022
			c-0.444-0.181-0.917-0.297-1.417-0.297c-2.335,0-4.227,2.148-4.227,4.797h-3c-1.58,0-2.862,1.455-2.862,3.25
			s1.282,3.25,2.862,3.25h25.902c1.307,0,2.396-0.999,2.739-2.355C388.417,75.046,388.721,73.915,388.721,72.682z"/>
		<path opacity="0.59" fill="#FFFFFF" enable-background="new    " d="M470.354,52.222c0-3.12-1.892-5.648-4.227-5.648
			c-0.778,0-1.497,0.301-2.124,0.792c-0.792-3.737-3.748-6.518-7.283-6.518c-3.377,0-6.231,2.537-7.17,6.023
			c-0.444-0.182-0.918-0.297-1.419-0.297c-2.334,0-4.226,2.147-4.226,4.797h-3c-1.58,0-2.862,1.456-2.862,3.25
			c0,1.795,1.282,3.25,2.862,3.25h25.901c1.308,0,2.396-0.999,2.74-2.354C470.051,54.586,470.354,53.455,470.354,52.222z"/>
	</g>
	<g>
		<g>
			<defs>
				<rect id="SVGID_1_" x="1.135" y="207.745" width="478.865" height="83.069"/>
			</defs>
			<clipPath id="SVGID_2_">
				<use xlink:href="#SVGID_1_"  overflow="visible"/>
			</clipPath>
			<g clip-path="url(#SVGID_2_)">
				<g>
					<ellipse fill="#70902C" cx="111.753" cy="241.305" rx="10.906" ry="12.381"/>
					<ellipse fill="#70902C" cx="38.089" cy="248.702" rx="10.907" ry="12.38"/>
					<ellipse fill="#70902C" cx="86.149" cy="248.055" rx="20.702" ry="23.498"/>
					<ellipse fill="#70902C" cx="60.188" cy="252.712" rx="20.702" ry="23.499"/>
					<ellipse fill="#70902C" cx="14.117" cy="249.28" rx="20.702" ry="23.499"/>
					<ellipse fill="#70902C" cx="137.556" cy="236.354" rx="16.269" ry="18.468"/>
					<ellipse fill="#70902C" cx="160.641" cy="262.346" rx="21.667" ry="24.595"/>
					<ellipse fill="#70902C" cx="196.233" cy="230.78" rx="12.463" ry="14.146"/>
					<ellipse fill="#70902C" cx="218.658" cy="228.283" rx="14.503" ry="16.463"/>
					<ellipse fill="#70902C" cx="237.214" cy="238.225" rx="13.079" ry="14.846"/>
					<ellipse fill="#70902C" cx="404.105" cy="246.796" rx="24.263" ry="27.54"/>
					<ellipse fill="#70902C" cx="321.76" cy="246.513" rx="18.163" ry="20.618"/>
					<ellipse fill="#70902C" cx="304.232" cy="257.152" rx="18.164" ry="20.617"/>
					<ellipse fill="#70902C" cx="275.703" cy="239.638" rx="18.164" ry="20.617"/>
					<ellipse fill="#70902C" cx="482.481" cy="242.442" rx="18.163" ry="20.618"/>
					<ellipse fill="#70902C" cx="346.047" cy="245.683" rx="15.329" ry="17.399"/>
					<ellipse fill="#70902C" cx="368.416" cy="247.319" rx="14.167" ry="16.081"/>
					<ellipse fill="#70902C" cx="436.365" cy="245.378" rx="14.167" ry="16.081"/>
				</g>
				<g>
					<ellipse fill="#93BD21" cx="93.695" cy="263.465" rx="9.758" ry="11.076"/>
					<ellipse fill="#93BD21" cx="117.256" cy="263.181" rx="20.158" ry="22.881"/>
					<ellipse fill="#93BD21" cx="40.139" cy="273.615" rx="20.158" ry="22.881"/>
					<ellipse fill="#93BD21" cx="63.78" cy="262.116" rx="20.158" ry="22.882"/>
					<ellipse fill="#93BD21" cx="145.957" cy="263.465" rx="14.684" ry="16.669"/>
					<ellipse fill="#93BD21" cx="12.194" cy="263.469" rx="14.684" ry="16.668"/>
					<ellipse fill="#93BD21" cx="327.275" cy="265.51" rx="9.759" ry="11.076"/>
					<ellipse fill="#93BD21" cx="348.408" cy="262.468" rx="17.728" ry="20.124"/>
					<ellipse fill="#93BD21" cx="483.129" cy="272.361" rx="17.729" ry="20.123"/>
					<ellipse fill="#93BD21" cx="452.8" cy="257.152" rx="17.729" ry="20.123"/>
					<ellipse fill="#93BD21" cx="379.538" cy="265.51" rx="14.685" ry="16.668"/>
					<ellipse fill="#93BD21" cx="425.668" cy="264.47" rx="14.685" ry="16.668"/>
					<ellipse fill="#93BD21" cx="213.74" cy="257.98" rx="19.886" ry="22.573"/>
					<ellipse fill="#93BD21" cx="185.954" cy="269.113" rx="19.886" ry="22.572"/>
					<ellipse fill="#93BD21" cx="243.95" cy="256.039" rx="19.886" ry="22.573"/>
					<ellipse fill="#93BD21" cx="277.884" cy="258.601" rx="19.886" ry="22.573"/>
				</g>
			</g>
		</g>
	</g>
	<g>
		<rect x="1.135" y="288.904" fill="#364954" width="478.865" height="73.473"/>
		<g>
			<path fill="#FFFFFF" d="M127.004,328.528H87.512c-2.333,0-4.226-2.147-4.226-4.796l0,0c0-2.649,1.893-4.798,4.226-4.798h39.492
				c2.334,0,4.226,2.147,4.226,4.798l0,0C131.23,326.381,129.338,328.528,127.004,328.528z"/>
			<path fill="#FFFFFF" d="M57.835,328.528H18.343c-2.334,0-4.226-2.147-4.226-4.796l0,0c0-2.649,1.892-4.798,4.226-4.798h39.493
				c2.333,0,4.226,2.147,4.226,4.798l0,0C62.061,326.381,60.169,328.528,57.835,328.528z"/>
			<path fill="#FFFFFF" d="M193.659,328.528h-39.493c-2.334,0-4.226-2.147-4.226-4.796l0,0c0-2.649,1.892-4.798,4.226-4.798h39.493
				c2.334,0,4.226,2.147,4.226,4.798l0,0C197.885,326.381,195.993,328.528,193.659,328.528z"/>
			<path fill="#FFFFFF" d="M260.313,328.528H220.82c-2.333,0-4.225-2.147-4.225-4.796l0,0c0-2.649,1.892-4.798,4.225-4.798h39.493
				c2.334,0,4.227,2.147,4.227,4.798l0,0C264.539,326.381,262.646,328.528,260.313,328.528z"/>
			<path fill="#FFFFFF" d="M326.968,328.528h-39.491c-2.334,0-4.227-2.147-4.227-4.796l0,0c0-2.649,1.893-4.798,4.227-4.798h39.491
				c2.333,0,4.226,2.147,4.226,4.798l0,0C331.193,326.381,329.301,328.528,326.968,328.528z"/>
			<path fill="#FFFFFF" d="M393.622,328.528h-39.493c-2.332,0-4.225-2.147-4.225-4.796l0,0c0-2.649,1.893-4.798,4.225-4.798h39.493
				c2.334,0,4.226,2.147,4.226,4.798l0,0C397.848,326.381,395.956,328.528,393.622,328.528z"/>
			<path fill="#FFFFFF" d="M462.792,328.528H423.3c-2.334,0-4.226-2.147-4.226-4.796l0,0c0-2.649,1.892-4.798,4.226-4.798h39.492
				c2.333,0,4.225,2.147,4.225,4.798l0,0C467.017,326.381,465.125,328.528,462.792,328.528z"/>
		</g>
		<rect x="1.135" y="288.813" fill="#FECB4C" width="478.865" height="4.002"/>
	</g>
	<g>
		<g>
			<g>
				<path fill="none" d="M225.84,104.503"/>
			</g>
			<g>
				<path fill="none" d="M215.335,111.262"/>
			</g>
			<path fill="#70902C" d="M259.355,229.693l-0.526-5.899c-2.752,1.3-5.96,3.842-8.771,8.761c-0.705,1.234-1.416,2.338-2.125,3.336
				c3.64-0.295,5.319,1.012,5.975,1.764C255.395,234.27,257.398,231.654,259.355,229.693z"/>
		</g>
	</g>
</g>
</svg>
