<?xml version="1.0" encoding="utf-8"?>
<!-- Generator: Adobe Illustrator 16.0.0, SVG Export Plug-In . SVG Version: 6.00 Build 0)  -->
<!DOCTYPE svg PUBLIC "-//W3C//DTD SVG 1.1//EN" "http://www.w3.org/Graphics/SVG/1.1/DTD/svg11.dtd">
<svg version="1.1" id="Layer_1" xmlns="http://www.w3.org/2000/svg" xmlns:xlink="http://www.w3.org/1999/xlink" x="0px" y="0px"
	 width="253px" height="448px" viewBox="170.9 197.9 253 448" enable-background="new 170.9 197.9 253 448" xml:space="preserve">
<g>
	<path fill="#EF6D1C" d="M339.4,202.4c7.3,3,15.8,2.3,23.5,1.3c10.5-1.3,19.3-4.3,24.5,7.5c3.3,7.5,2.3,16.5,1.8,24.3
		c-0.8,16.5-4.3,32.5-10.5,47.8C339.4,202.4,339.4,202.4,339.4,202.4z"/>
	<path fill="#F9C310" d="M286.8,509.5c22,5.5,41.9,18,56.4,34.8c3.5,4.3,6.8,8.5,9,13.5c5.8,12.3,5,27.3-2,38.8
		c-6.8,11.8-19.8,20-33.5,21.5c8.8,6,20.3,8.8,31,6.8c11-1.8,20.8-8,27-16.8c7.8-11.3,9.3-25.8,6.5-39c-2.8-13.2-9.3-25.5-16.5-37.3
		c-9.5-15.5-21.5-31.3-39.4-37.5c-3.8-1.3-9-1.8-11.3,1.5C286.8,509.5,286.8,509.5,286.8,509.5z"/>
	<path fill="#F9C310" d="M402.2,355.2c3.6,1.1,6.5,4,7.3,7.5c1.3,6.5-5.8,11.8-12,14.3c5.3,0.3,11,0.5,15.8,3c4.8,2.8,8,8.5,6,13.5
		c-2,5-8.3,6.8-13.8,7.8c9.8-1,19,8,18.3,17.5c-0.3,1.3-0.5,2.5-1,3.5c-1,1-2.3,1.5-3.5,2c-3.5,1.5-7.3,2.5-11.3,3
		c7.5,5,11.5,14.5,9.8,23c-0.5,2.3-1.5,4.8-3.3,6.3c-2.8,2.5-7,2.8-10.5,1.8c-3.5-1-6.5-3-9.5-5c3,5,4.8,10.8,4.5,16.8
		c0,4.8-2,10.3-6.5,11.5c-3.5,1-7.5-0.8-9.8-3.5c-2.3-3-3.5-6.5-4.5-9.8c-3-10-6-19.8-9-29.8c-5.5-17.5-11.5-39-5.5-57
		C367.9,369,388.2,351,402.2,355.2z"/>
	<path fill="#EF6D1C" d="M176.6,264.7c3.1,2.9,6.8,4.8,10.8,6.5c16,7,33.3,11.8,50.9,14.3c5.8,0.8,11.5,1.3,17.3,2.3
		c10,1.3,19.5,3.8,27.5,9c0.5,0.5,1,0.8,1.5,1.3c8.8,6.3,14.8,15.8,23.8,21.8c3.5,2.3,7.3,4,11.3,5.3c14.8,4,31.8,0.3,43.9-9
		c3.3-2.8,6.5-5.8,9-9.3c9.5-11.5,14-26.8,14.5-41.8c0.3-9.8-1.5-20-5.5-29c-6.3-13.5-17.5-24.5-31.3-31
		c-13.5-6.3-29.5-8.5-44.6-6.3c-18,2.8-27,12.8-39.9,24.8c-4.5,4.3-9,8.5-14,12.3c-10.5,7.5-37.9,27.8-45.1,5.5
		c-1.5-4.5-0.8-7.8-4.8-11c-4.3-3.8-10.3-4.3-15.5-3.3c-11.5,2.3-14.5,8.8-15.5,19.8C170.4,253.2,171.9,260.2,176.6,264.7z"/>
	<path fill="#FFFFFF" d="M296.1,230.1c4.2-7.3,10.3-13.5,19-16.8c14.3-5.3,33-3,44.4,7.3c15.3,14,12.3,38-3.3,50.8
		c-16,13-44.9,17.8-59.4,0C286.8,259.5,288.8,242.9,296.1,230.1z"/>
	<path fill="#1D1B19" d="M356.2,249c2,18.2-19,31.5-35.8,24c-10.5-5-15.5-14.5-13.8-26c1-6.8,6-12.8,12.3-16
		c12.8-6.3,30.3-2.3,35.5,11.5C355.4,244.6,355.9,246.6,356.2,249z"/>
	<path fill="#FFFFFF" d="M329.3,234.4c3.5,1.5,6.5,5.3,6.5,9.8c0,1.5-1,3-2,4c-3,2.5-7.5,3-10.8,1c-3.3-2-5-6-4-9.5
		C320.8,233.6,325.3,232.6,329.3,234.4z"/>
	<path fill="#EF6D1C" d="M236,481.7c11.9,18.3,34.5,29.5,57.1,28.5c8.5-0.5,16.8-2.5,25-5c0.8-0.3,1.5-0.5,2.3-0.8
		c16.3-5,32.5-11.3,46.1-21c13.8-10,24.8-24,28-40.3c2.5-12.3,0.5-24.7-3.8-36.5c-4.3-11.5-10.5-22.3-17.3-32.8
		c-6-10-12.8-20.3-13-31.5c-0.3-12.8,7-24,12-35.8c0.5-1,1-2,1.5-3c-78.6-9.5-78.6-9.5-78.6-9.5c-19.5-2.5-19.5-2.5-19.5-2.5
		c3.3,1.8,6.3,3.8,8.8,6.3c8.5,7.8,14,18.8,14.8,30.3c1.3,15-4.5,30-14,41.8c-14.8,18.5-38.1,29.5-50.4,49.5
		C223.5,438.2,224,463.2,236,481.7z"/>
	<path fill="#EF6D1C" d="M304.3,495c19.8,15.3,40.4,31,52.4,52.8c5,9.5,8.5,20.3,8.3,31.3c-0.5,10.8-4.8,21.8-13,29
		c-4.3,3.8-9.5,6.5-15.3,7.3c-6,1-12.3-0.3-17.8-3c-9.8-4.5-17.5-13.5-19.5-24c-1.5-6.8,0.5-15,7.3-17.5c5.5-2,11.8,1.3,16,5.5
		c1.5,1.5,3.5,3.5,5.8,3.3c2,0,3.3-1.5,4.3-3c2.5-4.3,2-9.8-0.5-14c-2.5-4-6.8-7-11.3-9c-7-3.3-15.5-4-22.5-0.8
		c-7.3,3.5-11.8,11-14.3,18.5c-6.8,21.8,1,47.3,19.3,61.8c18.3,14.3,45.6,16.8,66.1,5.8c8-4.3,15-10.3,21-17.3c5.3-6,10-13,12-20.8
		c3.3-12.8-0.8-26.3-7.3-37.8c-6.5-11.5-15.5-21.8-22.8-32.8c-3.8-5.5-7-11.5-8.3-17.8c-1.3-7,0-13.8,1.5-20.5
		c1.5-6.3,3.5-12.5,6-18.5c1.5-4,3.3-8.3,2.8-12.5C304.3,495,304.3,495,304.3,495z"/>
	<path fill="#F9C310" d="M234.5,479c0.6,1,1,1.8,1.5,2.8c1.5,2.3,3.5,4.8,5.3,6.8c7.5,8.5,17.3,14.8,28,18.3c5,1.8,10.5,3,16,3.3
		l0,0c2.5,0.3,5.3,0.3,7.8,0.3c8.5-0.5,16.8-2.5,25-5c-3-3.3-5.8-6.3-8.8-9.5c-0.5-0.5-1-1-1.5-1.5c-1.8-1.8-3.5-3.5-5.5-5.5
		c-4.3-4.3-8.3-8.8-11.8-13.5c-1.8-2.5-3.3-5-4.5-7.8c-0.8-1.3-1.5-2.8-2-4.3c-2.5-6.8-3.3-14-2.8-21.3c0.3-3,0.8-6.3,1.3-9.3
		c1.5-6.8,3.8-13.2,6.8-19.5c0.5-1.5,1.3-3,2-4.5c1-2,2.3-4.3,3.3-6.3c3.8-7,7.8-13.8,11.3-20.8c1-1.8,2-3.8,3-5.8
		c1.5-3,2.8-5.8,4-8.8c2.5-6.8,4.8-14,6-21c0.3-1.8,0.5-3.3,0.8-5c0-0.3,0-0.8,0.3-1.3c0.5-5,0.8-10.3-0.3-15c-0.5-3-1.5-6-2.8-8.8
		c-0.8-1-1.5-2.3-2.3-3.3c-1.5-2.3-3.5-4.5-5.5-6.8c-0.3-0.3-0.8-0.5-1-0.8c-3.8-4-7.8-8.3-12.8-11.3c-0.5-0.5-1.3-0.8-2-1.3
		c-9.3-4.8-22.3-5.8-32.8-6c-1.8,0-3.5,0.3-5,0.8c10,1.3,19.5,3.8,27.5,9c0.5,0.5,1,0.8,1.5,1.3c2.8,2.5,5.3,5.3,7.5,8.5
		c1.5,2.5,3,5.3,4,8c1.8,4.5,3,9,3.3,13.8c0.3,2,0.3,3.8,0.3,5.8c0,3-0.5,6-1.3,9c-1.8,9.5-6.3,18.3-12,26c-0.5,0.3-0.8,0.8-1,1
		c-2,2.8-4.3,5-6.5,7.5c-7.3,6.8-15.3,13-22.8,19.5c-3.5,2.8-6.8,5.8-10,9c-4,4-7.8,8.5-11,13.5c-2.5,4.2-4.5,9-6,13.7
		c-1,4-1.8,8-2,12.3l0,0C226,457,228.7,469,234.5,479z"/>
	<path fill="#FBDD66" d="M292.1,306.5c1.5,2.5,3,5.3,4,8c2-0.5,4-1,6.3-1.5c2.8-0.3,5.3-0.5,8-0.5c1.5,0.3,2.8,0.3,4.3,0.5
		c-1.5-2.3-3.5-4.5-5.5-6.8c-2.5-0.3-5-0.5-7.5-0.5C298.6,305.7,295.1,306,292.1,306.5"/>
	<path fill="#FBDD66" d="M298.3,343c3,0,6,0,9,0.5c3,0.3,5.8,1,8.5,1.8c1,0.3,2,0.5,3,1c0.3-1.8,0.5-3.3,0.8-5c0-0.3,0-0.8,0.3-1.3
		c-0.3-0.3-0.5-0.3-1-0.5c-3-1.5-6-2.8-9.3-3.8c-3.3-0.8-6.8-1.5-10-1.8C299.6,337,299.1,340,298.3,343"/>
	<path fill="#FBDD66" d="M278.8,377.5c4,0,8,0.3,12.3,0.8c4.3,0.8,8.3,1.8,12.5,3c0.8,0.3,1.5,0.3,2.3,0.5c1-1.8,2-3.8,3-5.8
		c-4-2-8.5-3.5-12.8-4.8c-3.3-1-6.5-1.8-9.8-2.3c-0.5,0.3-0.8,0.8-1,1C283.3,372.7,281.1,375,278.8,377.5"/>
	<path fill="#FBDD66" d="M246,406c8.5,0.5,17.3,1.3,25.8,1.8c6.3,0.5,12.5,0.8,18.5,1c0.5,0,0.8,0,1,0c1-2,2.3-4.3,3.3-6.3
		c-1.8-0.3-3.8-0.8-5.8-1c-10.8-1.8-21.8-3.3-32.8-4.5C252.5,399.7,249.2,402.7,246,406"/>
	<path fill="#FBDD66" d="M227,445.5c0.5,0,1.3,0,1.8-0.3c14.3-0.8,28.5-1.5,42.9-2.5c3.3-0.3,6.5-0.5,9.8-0.8c0.3-3,0.8-6.3,1.3-9.3
		c-11.8,0-23.5,0-35.5,0.3c-6,0-12,0-18,0.3C228,437.2,227.2,441.2,227,445.5"/>
	<path fill="#FBDD66" d="M234.5,479c0.5,1,1,1.8,1.5,2.8c1.5,2.3,3.5,4.8,5.3,6.8c10.5-2.8,21-5.5,31.5-8.5c6-1.5,12-3.3,17.8-4.8
		c-1.8-2.5-3.3-5-4.5-7.8c-13.8,2.8-27.5,6-41.1,9.3C241.5,477.5,238,478.2,234.5,479"/>
	<path fill="#FBDD66" d="M269.3,506.7c5,1.8,10.5,3,16,3.3l0,0c2-1,3.8-2,5.5-3.3c5.8-3.5,11.3-7.3,16.3-11.8
		c0.3-0.3,0.5-0.5,0.8-0.8c-1.8-1.8-3.5-3.5-5.5-5.5c-0.8,0.8-1.8,1.5-2.8,2C290.1,497.2,279.8,502.5,269.3,506.7"/>
	<path fill="#DF4B1F" d="M187.2,258.5c-0.7,0.6-1.5,1.3-2.5,1.3c-1.3,0-2.3-0.8-3-1.5c-4-3.8-6.3-9.5-5.5-15
		c1-8.3,10.8-13.5,15.3-4.5C195,244.9,193,254,187.2,258.5z"/>
	<path fill="#F9C310" d="M350.2,389.2c3.5,0.4,7,2.3,9,5c1.8,3,1.8,7.3-0.8,9.8c-3.3,3.3-8.8,2.5-13,4c4,1.5,8.3,2.8,11.3,5.8
		c3,2.8,4.3,7.8,1.8,11c-1.5,2-4.3,3-7,3c-2.5-0.3-5-1.3-7.3-2.5c2.5,2.3,4.8,5,6.5,8.3c1.3,2,2.3,4.8,1.3,7
		c-0.8,1.5-2.8,2.5-4.5,2.8c-5,1-10-2.3-12.8-6.3c-2.5-4.3-3.3-9.3-4-14.3c-0.5-2.7-1-5.7-1.5-8.5c-0.3-1.8-0.5-3.5-0.3-5
		C329.8,399.5,339.4,388,350.2,389.2z"/>
</g>
</svg>
