<?xml version="1.0" encoding="utf-8"?>
<!-- Generator: Adobe Illustrator 16.0.0, SVG Export Plug-In . SVG Version: 6.00 Build 0)  -->
<!DOCTYPE svg PUBLIC "-//W3C//DTD SVG 1.1//EN" "http://www.w3.org/Graphics/SVG/1.1/DTD/svg11.dtd">
<svg version="1.1" id="Layer_1" xmlns="http://www.w3.org/2000/svg" xmlns:xlink="http://www.w3.org/1999/xlink" x="0px" y="0px"
	 width="480px" height="360px" viewBox="0 0 480 360" enable-background="new 0 0 480 360" xml:space="preserve">
<g>
	<polygon fill="#A5DCF0" points="0,1 0,361 480,361 480,1 0,1 	"/>
	<path fill="#D8EDEE" d="M424.75,334.25c-2-0.25-3.75-0.5-5.5-0.5c0.5-1,0.75-2,1.25-3.25c3.5-13.25-8-26.25-25.75-28.75
		c-15-2.25-29.75,3.5-36,13.5c-3.75-2.25-8.25-4-13.25-4.75c-11-1.75-22,1.75-28.25,8.25c-1.75-0.5-3.75-1-5.75-1.25
		c-17.25-2.75-34,5.75-37.5,18.75c-2.5,10,3.5,19.75,14.5,24.75c160.25,0,160.25,0,160.25,0C452,348.75,441.25,336.75,424.75,334.25
		"/>
	<path fill="#D8EDEE" d="M22.75,333.5c0.25,0,0.5,0,1-0.25c0,0.5,0,1,0.25,1.25C23.5,334.25,23.25,334,22.75,333.5L22.75,333.5z
		 M64.5,340c-1.5-0.5-2.75-0.75-4-1c0.5-0.5,0.75-1,1-1.5c4.25-7.5-0.5-16.25-10.5-19.25c-5.5-1.75-11.5-1.5-16.5,0.25
		c-1-4.25-5-8-10.5-9.75c-7-2.25-14.75-0.75-19.5,3c-1.25-1-2.75-1.75-4.5-2.5c0,48.5,0,48.5,0,48.5c5.75,1.75,12.25,1.25,17.25-1
		c1,1.75,2.5,3,4,4.25C70,361,70,361,70,361c1.5-1,2.75-2.5,3.5-4C77.25,350.25,73.25,342.75,64.5,340"/>
	<path fill="#D8EDEE" d="M304,351.75c2.75-5.75,1-11.75-3.75-15.75c1.75-1.25,3.25-2.75,4.25-4.5c2.5-5.25-0.75-11.25-7.25-13.75
		c1.75-1.25,3.25-3,4.25-5c4-8.5-1.75-17.75-13-20.75c-11-3-23.5,1.25-27.5,9.75c-0.5,0.75-0.75,1.75-1,2.75
		c-0.75-0.5-1.75-0.75-2.75-1c-12-3.25-25.25,1.25-29.5,10.25c-3.75,7.75,0.25,16,8.75,20.25c-2.5,1.5-4.5,3.75-5.75,6.25
		C228,346,230,352,235.25,356c-0.5,0.75-1.25,1.75-1.75,2.75c-0.25,0.75-0.5,1.5-0.75,2.25c59,0,59,0,59,0
		C297.25,359.5,301.75,356,304,351.75"/>
	<path fill="#D8EDEE" d="M480,309.25c-1-0.5-2.25-0.75-3.5-1.25c-11-3.25-23.25,0.75-27.5,9c-0.5,1-0.75,1.75-1,2.75
		c-1-0.25-2-0.75-3-1c-11.75-3.5-24.75,1-29.5,9.75c-3.75,7.25-0.25,15.5,8.25,20c-2.75,1.5-4.75,3.75-6.25,6.25
		c-1,2-1.5,4.25-1.25,6.25c63.75,0,63.75,0,63.75,0C480,309.25,480,309.25,480,309.25"/>
	<path fill="#D8EDEE" d="M219,312.75c1-1.25,1.75-2.75,2.5-4c2.75-7.25-1.75-14.5-10-16.25c-7.5-1.75-15.75,1.5-19.25,7.25
		c-7.25,0-14,3.75-16.25,9.75c-2,4.75-0.5,9.5,3.25,12.75c-3.25,1-6.25,3.25-7.5,6.25c-2,5,1,10,7,11.5c0.5,0,1,0,1.5,0.25l0,0
		c-2.25,5.25,1,10.75,7.5,12.25c6.25,1.25,13-1.75,15.25-7c0.25-1,0.5-2,0.5-3c0.25,0,0.25,0,0.5,0.25c10,2.25,21-2.75,24.25-11.25
		C231.5,323.75,227.25,315.75,219,312.75"/>
	<path fill="#D8EDEE" d="M227.5,337.25C227,324,212.25,313.5,194.75,314c-6,0-11.5,1.5-16.25,3.75c0-0.25,0-0.25,0-0.25
		c-0.5-12.75-14.5-22.75-31.5-22.25c-11.25,0.25-20.75,5-25.75,11.75c-3-1-6.5-1.75-10-1.5c-10.75,0-19.25,6.25-20.5,14
		c-3.5-1-7.25-1.5-11.25-1.5c-17,0.5-30.25,11-29.75,23.75c0.25,8.25,6.5,15.5,15.5,19.25c137.25,0,137.25,0,137.25,0
		C217,358.75,227.75,348.75,227.5,337.25"/>
	<path fill="#FFFFFF" d="M407.5,329.5c-13.75-5.5-30-2.75-39.75,5.5c-2.5-3-6.25-5.5-11-7.5c-10-3.75-21.75-2.75-30.25,2.25
		c-1.5-1-3-1.75-5-2.5c-15.5-6-34.75-1.5-42.75,10.25c-5.25,7.75-4.5,16.75,1.25,23.5c142.25,0,142.25,0,142.25,0
		C429.25,349.25,422.75,335.5,407.5,329.5"/>
	<path fill="#FFFFFF" d="M26.5,350.5c0.25-0.25,0.5-0.25,0.75-0.5c0.25,0.25,0.5,0.5,0.75,1C27.5,350.75,27,350.5,26.5,350.5
		L26.5,350.5z M79.25,353c-0.75-6.25-8-11-16.5-10.5c-1.25,0.25-2.5,0.25-3.5,0.75c0-0.75,0-1.25,0-1.75c-1-7-9.5-12.5-19-11.75
		C35,330,30.5,332,27.5,335c-3.25-3-8.25-4.75-13.5-4.25C7.25,331,2,334.5,0.25,339H0c0,22,0,22,0,22c76,0,76,0,76,0
		C78.5,358.75,79.75,356,79.25,353"/>
	<path fill="#FFFFFF" d="M300.25,348c1.75-1.25,3.25-2.75,4.25-4.5c2.5-5.25-0.75-11-7.25-13.5c1.75-1.5,3.25-3.25,4.25-5.25
		c4-8.25-1.75-17.5-13-20.75c-11-3-23.5,1.5-27.5,9.75c-0.5,1-0.75,2-1,2.75c-0.75-0.25-1.75-0.5-2.75-1
		c-12-3.25-25.25,1.5-29.5,10.5c-3.75,7.5,0.25,15.75,8.75,20c-2.5,1.75-4.5,3.75-5.75,6.5c-1.5,2.75-1.5,5.75-0.75,8.5
		c75,0,75,0,75,0C306,356.25,304.25,351.5,300.25,348"/>
	<path fill="#FFFFFF" d="M480,336.5c-9-3-20-1-26,5.25c-0.75,0.75-1.25,1.5-2,2.5c-0.75-0.75-1.5-1.25-2.25-1.75
		c-10.25-5.5-24.5-3.75-31.75,3.75c-4.25,4.5-5.5,10-3.5,14.75c65.5,0,65.5,0,65.5,0C480,336.5,480,336.5,480,336.5"/>
	<path fill="#FFFFFF" d="M224.5,356c0-1-0.25-2-0.75-2.75c0.25,0,0.25,0,0.5,0c10.5-0.75,18.25-8.25,17.25-17.25
		c-0.75-8-8.5-14.25-17.75-14.75c0.5-1.5,0.5-3,0.5-4.5c-0.75-7.5-8.5-13-17.25-12.5c-7.75,0.5-13.75,5.75-14.5,12
		c-6.5,1.75-11,7.25-10.5,13.5c0.5,5,4.25,9,9.5,11c-2.75,1.75-4.5,4.75-4.25,8c0.5,5,6,9,12,8.75c0.5-0.25,1-0.25,1.5-0.25l0,0
		c0.25,1.5,0.75,2.75,1.25,3.75c21.5,0,21.5,0,21.5,0C224.25,359.5,224.75,357.75,224.5,356"/>
	<path fill="#FFFFFF" d="M240.5,357c-0.5-13.25-15-23.75-32.75-23.25c-6,0-11.5,1.5-16.25,3.75v-0.25
		C191,324.5,177,314.75,160.25,315c-11.25,0.25-21,5-26,11.75c-3-1-6.5-1.75-10-1.5c-10.75,0.25-19.25,6.25-20.25,14
		c-3.75-1-7.5-1.5-11.5-1.25c-16.75,0.25-30,10.5-29.75,23c177.5,0,177.5,0,177.5,0C240.5,359.75,240.5,358.25,240.5,357"/>
	<path fill="#FFFFFF" d="M427,57.5c-1.75,0.25-3.75,0.75-5.25,1.5c0-0.25,0-0.5-0.25-0.75c-2-8-12.25-13.25-22.75-11.5
		C392.5,47.5,387.5,50.5,385,54.5c-3.75-1.75-8-2.5-12.5-1.75c-6.75,1-11.75,4.75-13.25,9.5c-2-0.25-4.25-0.25-6.25,0
		c-7.75,1.25-13.25,6.5-13.5,12.25c109.5,0,109.5,0,109.5,0c0.5-2,0.75-4,0.25-5.75C447.25,61,437.25,56,427,57.5"/>
	<path fill="#FFFFFF" d="M60.75,82c0.25,0,0.25-0.25,0.5-0.25c0,0,0.25,0.25,0.5,0.5C61.5,82.25,61.25,82,60.75,82L60.75,82z
		 M85.75,74.25c-1,0.25-1.75,0.5-2.5,0.75c0-0.5,0-0.75-0.25-1c-1.25-5.25-7.75-8.5-14.5-7.5C64.75,67,61.75,68.75,60,71
		c-2.75-2-6.5-2.75-10.25-2.25c-4.5,0.75-8,3.25-8.75,6.75c-1.5-0.25-3-0.25-4.5,0c-5,0.75-8.75,3.5-9.75,7c72,0,72,0,72,0
		c0-0.5,0-1-0.25-1.75C97.25,76.5,91.5,73.5,85.75,74.25"/>
	<path fill="#FFFFFF" d="M137,38.5c0.25,0,0.25-0.25,0.25-0.25c0.25,0.25,0.5,0.25,0.75,0.5C137.5,38.5,137.25,38.5,137,38.5
		L137,38.5z M156.5,32.5c-0.75,0.25-1.25,0.25-2,0.5c0-0.25,0-0.5,0-0.75c-1-4-6.25-6.75-11.5-6c-3,0.5-5.25,2-6.75,3.75
		c-2-1.5-4.75-2.25-7.75-2c-3.75,0.75-6.25,2.75-7,5.25c-1,0-2.25,0-3.5,0.25c-3.75,0.5-6.75,2.75-7.5,5.5c56.25,0,56.25,0,56.25,0
		c0-0.5-0.25-1-0.25-1.5C165.5,34,161,31.75,156.5,32.5"/>
</g>
</svg>
