<?xml version="1.0" encoding="utf-8"?>
<!-- Generator: Adobe Illustrator 16.0.0, SVG Export Plug-In . SVG Version: 6.00 Build 0)  -->
<!DOCTYPE svg PUBLIC "-//W3C//DTD SVG 1.1//EN" "http://www.w3.org/Graphics/SVG/1.1/DTD/svg11.dtd">
<svg version="1.1" id="Layer_1" xmlns="http://www.w3.org/2000/svg" xmlns:xlink="http://www.w3.org/1999/xlink" x="0px" y="0px"
	 width="157px" height="284px" viewBox="0 0 157 284" enable-background="new 0 0 157 284" xml:space="preserve">
<g>
	<path fill="#F05A2A" d="M80.3,210c-14.5,0.3-26.7,13.8-26.4,23.5c0.2,9.8,28.4,46.5,28.4,46.5c8-16.8,25.9-38,25.7-47.5
		C107.8,223,94.5,209.5,80.3,210"/>
	<path fill="#F8EC3A" d="M80.3,210.8C68.6,211,58.7,222,58.9,230c0.2,8,23.2,37.8,23.2,37.8c6.5-13.5,21.2-31,20.9-38.8
		C102.8,221.3,92.1,210.5,80.3,210.8"/>
	<path fill="#FFFFFF" d="M80.3,210.5c-9,0.3-16.7,8.8-16.7,15c0.2,6,17.9,29.3,17.9,29.3c5-10.8,16.4-24,16.2-30
		C97.5,218.8,89.3,210.3,80.3,210.5"/>
	<path fill="#F05A2A" d="M69.4,215c-9.2-1.5-19.7,5.8-21.2,12c-1.5,6.5,10.5,33.8,10.5,33.8c8-10,23.4-21.5,24.9-27.8
		S78.8,216.5,69.4,215"/>
	<path fill="#F8EC3A" d="M69.4,215.5c-7.7-1.3-16.2,4.8-17.4,9.8c-1.2,5.3,8.7,27.5,8.7,27.5c6.5-8,18.9-17.5,20.2-22.5
		C82.1,225,77.1,216.8,69.4,215.5"/>
	<path fill="#FFFFFF" d="M69.4,215.3c-6-0.8-12.5,3.8-13.5,7.8c-0.7,4,6.7,21.3,6.7,21.3c5-6.3,14.7-13.8,15.5-17.5
		C79.1,222.8,75.4,216.3,69.4,215.3"/>
	<path fill="#F05A2A" d="M73.6,213c-5.5,2-7.7,9-5.7,12.8c2,3.8,19.9,14.5,19.9,14.5c-0.3-7.8,3-18.5,1-22
		C86.8,214.5,79.3,211,73.6,213"/>
	<path fill="#F8EC3A" d="M73.9,213.3c-4.5,1.8-6.5,7.5-4.7,10.5c1.5,3,16.2,11.8,16.2,11.8c0-6.3,2.5-15,0.7-18
		C84.6,214.5,78.3,211.8,73.9,213.3"/>
	<path fill="#FFFFFF" d="M73.9,213.3c-3.5,1.3-5,5.8-3.7,8c1.2,2.5,12.5,9.3,12.5,9.3c0-5,2-11.8,0.7-14S77.4,212,73.9,213.3"/>
	<path fill="#C6421E" d="M44.5,153.3c0,0-17.7,8.5-26.7,23.8c-11,19-14,48.5-9.7,50.3c4.5,2,9.7-12.3,18.4-20.5
		C40.7,193,53.2,194,53.2,194C44.5,153.3,44.5,153.3,44.5,153.3"/>
	<path fill="#AA290B" d="M111.2,153.3c0,0,17.7,8.5,26.4,23.8c11,19,14,48.5,9.7,50.3c-4.5,2-9.7-12.3-18.2-20.5
		C114.7,193,102.3,194,102.3,194C111.2,153.3,111.2,153.3,111.2,153.3"/>
	<path fill="#2B2B38" d="M103.8,217.8c2-5.3,15.2-41.8,15.2-87c0-37.5-25.7-58.8-41.1-69.3C62.1,72,36.5,93.3,36.5,130.8
		c0,45.3,13.5,81.8,15.5,87C103.8,217.8,103.8,217.8,103.8,217.8"/>
	<path fill="#FFFFFF" d="M25.5,110.3c0,57.3,16.9,91.5,19.4,98c65.5,0,65.5,0,65.5,0c2.5-6.5,19.4-40.8,19.4-98
		c0-25.5-9.2-49.3-20.9-68c-62.6,0-62.6,0-62.6,0C34.7,61,25.5,84.8,25.5,110.3"/>
	<path fill="#C6421E" d="M77.8,7c-9.2,6.3-21.2,18.8-31.4,35.3c62.6,0,62.6,0,62.6,0C99,25.8,87.1,13.3,77.8,7"/>
	<path fill="#F0F1F1" d="M109,42.3c-31.2,0-31.2,0-31.2,0c0,166,0,166,0,166c32.6,0,32.6,0,32.6,0c2.5-6.5,19.4-40.8,19.4-98
		C129.9,84.8,120.7,61,109,42.3"/>
	<path fill="#A5DCF0" d="M77.8,67.3c-12.5,0-22.7,8.5-22.7,18.8c0,10.5,10.2,19,22.7,19c12.2,0,22.4-8.5,22.4-19
		C100.3,75.8,90.1,67.3,77.8,67.3"/>
	<path fill="#2B2B38" d="M95.8,94.8c-5.7,8.5-18.2,11.5-28.2,6.8s-13.7-15.5-8-24c5.7-8.3,18.4-11.3,28.4-6.5S101.5,86.5,95.8,94.8
		 M101,97.3c7.2-10.8,2.7-24.5-10.2-30.5c-12.7-6.3-28.9-2.5-36.1,8.3c-7.5,11-2.7,24.8,10,30.8C77.4,112,93.8,108,101,97.3"/>
	<path fill="#B9DFED" d="M77.8,103.8c-3.5,0-7-0.8-10.2-2.3c-10-4.8-13.7-15.5-8-24c3.7-5.5,11-8.8,18.2-8.8c3.5,0,7,0.8,10.2,2.3
		c10,4.8,13.5,15.5,7.7,23.8C92.1,100.5,85.1,103.8,77.8,103.8 M77.8,71c-3.7,0-7.7,1-11,3c-6.7,4-9.2,11.3-6.7,17.5
		c0,0,6.5-6.8,12.2-10.3c5.7-3.5,16.4-7.3,16.4-7.3C85.6,72,81.8,71,77.8,71"/>
	<path fill="#63636D" d="M77.8,105.3c-4,0-7.7-0.8-11.2-2.5c-11-5-14.7-16.8-8.7-26c4.2-6.3,12-9.8,19.9-9.8c3.7,0,7.5,0.8,11.2,2.5
		c10.7,5.3,14.7,17,8.5,26.3C93.3,101.8,85.6,105.3,77.8,105.3 M77.8,68.8c-7.2,0-14.5,3.3-18.2,8.8c-5.7,8.5-2,19.3,8,24
		c3.2,1.5,6.7,2.3,10.2,2.3c7.2,0,14.2-3.3,17.9-9c5.7-8.3,2.2-19-7.7-23.8C84.8,69.5,81.3,68.8,77.8,68.8"/>
	<path fill="#DCEFF6" d="M60.2,91.5c-2.5-6.3,0-13.5,6.7-17.5c3.5-2,7.2-3,11-3c4,0,7.7,1,11,3c0,0-10.7,3.8-16.4,7.3
		C66.6,84.8,60.2,91.5,60.2,91.5"/>
	<path fill="#C6421E" d="M77.8,160L77.8,160c-4.5,0-7.5,5.8-7.5,13.5s1,54,7.5,54l0,0l0,0c6.5,0,7.5-46.3,7.5-54S82.3,160,77.8,160"
		/>
	<path fill="#AA290B" d="M77.8,42.3c31.2,0,31.2,0,31.2,0C99,25.8,87.1,13.3,77.8,7c0,0.3,0,0.3,0,0.3
		C77.8,42.3,77.8,42.3,77.8,42.3"/>
	<path fill="#AA290B" d="M77.8,160L77.8,160c0,67.5,0,67.5,0,67.5l0,0c6.5,0,7.5-46.3,7.5-54S82.3,160,77.8,160"/>
</g>
</svg>
