<?xml version="1.0" encoding="utf-8"?>
<!-- Generator: Adobe Illustrator 16.0.0, SVG Export Plug-In . SVG Version: 6.00 Build 0)  -->
<!DOCTYPE svg PUBLIC "-//W3C//DTD SVG 1.1//EN" "http://www.w3.org/Graphics/SVG/1.1/DTD/svg11.dtd">
<svg version="1.1" id="Layer_1" xmlns="http://www.w3.org/2000/svg" xmlns:xlink="http://www.w3.org/1999/xlink" x="0px" y="0px"
	 width="310px" height="310px" viewBox="-7 -3.1 310 310" enable-background="new -7 -3.1 310 310" xml:space="preserve">
<g>
	<path fill="#58626B" d="M67.1,1.8c35-4.8,71.1,0.5,103.8,13.2c32.9,12.8,62.8,32.1,89.4,54.7c14.9,12.3,29.9,27,36.5,45.1
		c3.5,9.3,6.6,17.4-4.8,17.7c-7.3,0-13.4-0.5-20,0.2c-4.8,0.2-9.6,1.2-14.7,3.2c-13.4,4.9-25.1,13-36.7,21.1
		c-3.5,2.5-7.1,4.9-9.6,8.3c-4.6,5.9-5.3,13.7-4.6,21.1c2.8,23.1,19.7,41.7,36.7,57.9c16.7,16.4,34.9,33.4,41.3,55.7
		c-9.6-16.2-24.3-28.7-39-41c-19.5-16.4-39.2-32.6-58.7-49.1c-5.8-4.9-11.9-9.8-19.2-11.5c-7.8-1.7-16.2,0.7-23.5,3.9
		c-16,6.4-30.4,15.7-42.5,27.5c-6.1,5.9-12.4,12.5-16.7,19.9c-1.8,2.7-3.3,5.4-4.8,7.6c-4.6,6.9-9.1,10.5-17.2-0.2
		c-9.6-13.2-21-25.5-30.4-39c-20-28-31.4-61.8-32.2-95.9c-0.9-34.1,9-68.2,27.4-97.1c3-4.4,6.1-8.8,10.1-12.3
		C45.6,5.9,56.5,3.2,67.1,1.8z"/>
	<path fill="#737D85" d="M169.7,185c17.8-13.4,31.1-32.1,38.2-52.7c3-9.3,4.8-18.9,3.8-28.7c-1-10.5-5.3-20.4-11.1-29.2
		c-18.5-28.5-49.9-46.8-82.8-57.4C97.3,10.4,74.2,6.7,55,16.2c-32.7,16.4-29.6,63-21.3,92c9.1,32.6,31.4,60.6,57,82.9
		C114.2,211.5,146.1,202.6,169.7,185z"/>
	<path fill="#FFFFFF" d="M37,50.3c-5.6,1-10.9,3.4-14.2,7.4c-13.9,15.5-1.3,45.6,21,42.9c12.9-1.5,21.8-10.5,24.6-22.8
		c2.3-10.3-4.1-22.3-14.4-26.2C48.9,49.8,42.6,49.3,37,50.3z"/>
	<path fill="#1D1B19" d="M50.9,85.4c3.6-3.2,5.6-8.3,4.8-13c-0.8-4.9-4.1-9.1-8.6-11.3c-8.4-3.9-22-3.2-26.1,6.4
		c-3,7.4,0.3,17.2,7.1,21.1C35.5,92.8,44.9,90.8,50.9,85.4z"/>
	<path fill="#FFFFFF" d="M38,76.3c-1.4-2.1-4.3-3.4-6.8-3.2c-2.8,0.5-5.1,2.5-5.8,4.9c-0.8,2.5,0,5.4,1.8,7.4
		C32.7,90.6,42.1,82.5,38,76.3z"/>
	<path fill="#FFFFFF" d="M93,7.4c-4.8,0.7-9.1,2.9-11.9,6.1c-11.6,13-1.3,38.5,17.7,36.3c10.9-1.2,18.5-9.1,20.8-19.1
		c2-8.8-3.3-19.1-12.2-22.3C103.1,6.9,97.8,6.4,93,7.4"/>
	<path fill="#1D1B19" d="M104.9,37.1c3.1-2.7,4.6-7.1,4.1-11c-0.5-4.2-3.3-7.8-7.1-9.6c-7.1-3.2-18.7-2.7-22.3,5.4
		c-2.6,6.1,0.2,14.4,6,17.9C91.7,43.2,99.8,41.5,104.9,37.1z"/>
	<path fill="#FFFFFF" d="M94,29.2c-1.1-1.8-3.5-2.9-5.8-2.5c-2.3,0.2-4.3,2-5.1,3.9c-0.5,2.2,0,4.7,1.8,6.1
		C89.4,41.5,97.3,34.4,94,29.2z"/>
	<path fill="#8F999C" d="M134.2,172c-1.6-6.6-7.6-11.8-14.2-13c-9.4-1.5-22.8,7.6-22.8,17.4c0.3,10.1,15.4,16.2,24.3,13.7
		C130.2,187.9,136.3,180.6,134.2,172z"/>
	<path fill="#8F999C" d="M96.3,155.3c-0.9-3.7-4.3-6.6-8.1-7.1c-5.1-1-12.9,4.2-12.9,9.8c0.3,5.6,8.9,9.1,13.9,7.8
		C94,164.6,97.5,160.4,96.3,155.3z"/>
	<path fill="#495258" d="M67.1,1.8c35-4.8,71.1,0.5,103.8,13.2c32.9,12.8,62.8,32.1,89.4,54.7c14.9,12.3,29.9,27,36.5,45.1
		c3.5,9.3,6.6,17.4-4.8,17.7c-7.3,0-13.4-0.5-20,0.2c-1.5-2.9-3-5.9-4.3-8.6c-26.8-54.4-81.8-92.2-140.8-111.8
		C101.6,3.7,72-1.4,48.7,11.6C31.5,21.2,20.8,39.3,16.3,58c-4.3,18.6-3,38.3-1.3,57.4c3,29.4,7.6,59.4,21.3,85.8
		c10.9,21.1,26.8,39,43.5,56.2c-4.6,6.9-9.1,10.5-17.2-0.2c-9.6-13.2-21-25.5-30.4-39c-20-28-31.4-61.8-32.2-95.9
		C-0.7,88.1,9.2,54,27.6,25.1c3-4.4,6.1-8.8,10.1-12.3C45.6,5.9,56.5,3.2,67.1,1.8z"/>
</g>
</svg>
