<?xml version="1.0" encoding="utf-8"?>
<!-- Generator: Adobe Illustrator 16.0.0, SVG Export Plug-In . SVG Version: 6.00 Build 0)  -->
<!DOCTYPE svg PUBLIC "-//W3C//DTD SVG 1.1//EN" "http://www.w3.org/Graphics/SVG/1.1/DTD/svg11.dtd">
<svg version="1.1" id="Layer_1" xmlns="http://www.w3.org/2000/svg" xmlns:xlink="http://www.w3.org/1999/xlink" x="0px" y="0px"
	 width="253px" height="253px" viewBox="0 0 253 252" enable-background="new 0 0 253 252" xml:space="preserve">
<g>
	<path fill="#F9B729" d="M246.7,123.9c-12.4-12.4-13.3-11.5-13.3-11.5c-7.5-6.8-10.3-17-7-26.5c5.5-16.8,5.5-16.8,5.5-16.8
		c0.5-1.3-0.3-2.8-1.5-3c-17.5-3.3-17.5-3.3-17.5-3.3c-9.8-2-17.3-9.8-19.3-19.5c-3.5-17.3-3.5-17.3-3.5-17.3
		c-0.3-1.3-1.5-2.3-3-1.8c-16.8,5.8-16.8,5.8-16.8,5.8c-9.3,3-19.8,0.3-26.3-7.3c-11.8-13-11.8-13-11.8-13c-0.8-1.3-2.5-1.3-3.5,0
		c-11.5,13-11.5,13-11.5,13c-6.8,7.5-17,10.3-26.5,7.3c-16.8-5.8-16.8-5.8-16.8-5.8c-1.3-0.5-2.8,0.5-3,1.8
		c-3.3,17.3-3.3,17.3-3.3,17.3c-2,9.8-9.8,17.5-19.5,19.5c-17.3,3.3-17.3,3.3-17.3,3.3c-1.3,0.3-2.3,1.8-1.8,3
		c5.8,16.8,5.8,16.8,5.8,16.8c3,9.5,0.3,19.8-7.3,26.5c-13,11.5-13,11.5-13,11.5c-1.3,1-1.3,2.5,0,3.5c13,11.8,13,11.8,13,11.8
		c7.5,6.5,10.3,17,7.3,26.3c-5.8,16.8-5.8,16.8-5.8,16.8c-0.5,1.3,0.5,2.8,1.8,3c17.3,3.5,17.3,3.5,17.3,3.5
		c9.8,2,17.5,9.5,19.5,19.3c3.3,17.3,3.3,17.3,3.3,17.3c0.3,1.5,1.8,2.3,3,1.8c16.8-5.5,16.8-5.5,16.8-5.5c9.5-3.3,19.8-0.5,26.5,7
		c11.5,13.3,11.5,13.3,11.5,13.3c1,1,2.8,1,3.5,0c11.8-13.3,11.8-13.3,11.8-13.3c6.5-7.5,17-10.3,26.3-7c16.8,5.5,16.8,5.5,16.8,5.5
		c1.5,0.5,2.8-0.3,3-1.8c3.5-17.3,3.5-17.3,3.5-17.3c2-9.8,9.5-17.3,19.3-19.3c17.5-3.5,17.5-3.5,17.5-3.5c1.3-0.3,2-1.8,1.5-3
		c-5.5-16.8-5.5-16.8-5.5-16.8c-3.3-9.3-0.5-19.8,7-26.3c13.3-11.8,13.3-11.8,13.3-11.8C247.7,126.4,247.7,124.9,246.7,123.9z"/>
	<path fill="#F5F013" d="M210.9,125.7c0,44.3-36,80.3-80.3,80.3c-44.3,0-80-36-80-80.3s35.8-80,80-80
		C174.9,45.7,210.9,81.4,210.9,125.7"/>
	<path fill="#F0E706" d="M198.7,83.4c-42.5,3-85-5.8-127.3-11.5c-7,7.8-12.8,17-16.3,27.3c18.3,1.3,36.3,2.5,55,2
		c31.5-1,62.8-3.8,94.3-7.3C202.7,90.2,200.9,86.7,198.7,83.4"/>
	<path fill="#F0E706" d="M120.4,119.7c-23,5.3-46.3,9.8-69.3,15c1,10.3,4.3,19.8,8.8,28.5c15-2,30-4.3,45-6.5
		c34-4.5,68.3-5.8,102.5-8c2.3-7.3,3.5-15,3.5-23c0-5.8-0.8-11.5-2-17c-11.3-1-22.8-1-34.3,0.3C156.4,110.9,138.4,115.7,120.4,119.7
		"/>
	<path fill="#F0E706" d="M75.2,183.4c5.5,5.3,11.8,9.8,18.5,13.3c32.3-7.3,64.8-14.8,97.3-18.3c3.3-3.8,6.3-7.8,8.8-12
		c-36.5,4.5-73.3,7.8-109.8,13.8C84.9,180.9,80.2,182.2,75.2,183.4"/>
	<path fill="#F0E706" d="M158.4,58.2c-2.8-1.8-5.5-3-7.3-3.5c-7-2-15.8-2.3-23-1.5c-3,0.5-6.3,2-5.5,5.5c1,6.5,9.3,9.3,14.8,9.8
		c4.8,0.5,9.8,0.8,14.5,1.3c2.8,0.3,10.3,2.5,12-0.5C166.4,65.2,162.7,60.9,158.4,58.2"/>
	<path fill="#F0E706" d="M75.2,113.2L75.2,113.2c-2.5-2-7.3-3-10.3-3.3c-2.3-0.3-6.5,0.8-7.8,3c-2.8,5.5,5.3,8.8,9.3,8.8
		c2,0,4.3-0.3,6.3-0.8c0.8-0.3,1.8-0.5,2.5-0.8C77.4,118.4,76.9,114.9,75.2,113.2"/>
</g>
</svg>
