<?xml version="1.0" encoding="utf-8"?>
<!-- Generator: Adobe Illustrator 16.0.0, SVG Export Plug-In . SVG Version: 6.00 Build 0)  -->
<!DOCTYPE svg PUBLIC "-//W3C//DTD SVG 1.1//EN" "http://www.w3.org/Graphics/SVG/1.1/DTD/svg11.dtd">
<svg version="1.1" id="Layer_1" xmlns="http://www.w3.org/2000/svg" xmlns:xlink="http://www.w3.org/1999/xlink" x="0px" y="0px"
	 width="111px" height="239px" viewBox="0 0 111 239" enable-background="new 0 0 111 239" xml:space="preserve">
<g>
	<polygon fill="#695020" points="59.8,154 56.8,154.5 53.5,154 48,234.3 56.8,234.3 65.3,234.3 59.8,154 	"/>
	<polygon fill="#588E3F" points="97.5,172.8 102,172.8 91.8,149 97.5,149 89,130.3 94.3,130.3 82.5,112.3 89.8,112.3 78,89 82.5,89 
		73.5,68.8 80,68.8 69.8,51 76.8,51 64.5,33.5 70.3,33.5 56.8,4 43.3,33.5 49,33.5 36.8,51 43.8,51 33.5,68.8 40,68.8 30.8,89 
		35.3,89 23.8,112.3 30.8,112.3 19.3,130.3 24.3,130.3 16,149 21.8,149 11.5,172.8 16,172.8 5,194.3 56.8,194.3 108.5,194.3 
		97.5,172.8 	"/>
	<path fill="#44722D" d="M108.5,194.3c-11-21.5-11-21.5-11-21.5c4.5,0,4.5,0,4.5,0C91.8,149,91.8,149,91.8,149c5.8,0,5.8,0,5.8,0
		C89,130.3,89,130.3,89,130.3c5.3,0,5.3,0,5.3,0c-11.8-18-11.8-18-11.8-18c7.3,0,7.3,0,7.3,0C78,89,78,89,78,89c4.5,0,4.5,0,4.5,0
		c-9-20.3-9-20.3-9-20.3c6.5,0,6.5,0,6.5,0C69.8,51,69.8,51,69.8,51c7,0,7,0,7,0C64.5,33.5,64.5,33.5,64.5,33.5c5.8,0,5.8,0,5.8,0
		C56.8,4,56.8,4,56.8,4c9.8,90.3,0,150.5-15.3,168.3S5,194.3,5,194.3c51.8,0,51.8,0,51.8,0C108.5,194.3,108.5,194.3,108.5,194.3z"/>
</g>
</svg>
