<?xml version="1.0" encoding="utf-8"?>
<!-- Generator: Adobe Illustrator 16.0.0, SVG Export Plug-In . SVG Version: 6.00 Build 0)  -->
<!DOCTYPE svg PUBLIC "-//W3C//DTD SVG 1.1//EN" "http://www.w3.org/Graphics/SVG/1.1/DTD/svg11.dtd">
<svg version="1.1" id="Layer_1" xmlns="http://www.w3.org/2000/svg" xmlns:xlink="http://www.w3.org/1999/xlink" x="0px" y="0px"
	 width="390px" height="248px" viewBox="0 -3.9 390 248" enable-background="new 0 -3.9 390 248" xml:space="preserve">
<g>
	<path fill="#50A4DF" d="M68.4,204.4c-19.2,17.8-43,29.8-68.4,34.8c8.2,6.3,19.9,5.3,30.1,3.3c29.1-5.5,65.4-14.3,73.4-48.3
		C68.4,204.4,68.4,204.4,68.4,204.4z"/>
	<path fill="#50A4DF" d="M27.4,183.4c2,4.9,4.5,10,8,14c8,9.3,19.2,15.3,30.4,20.5c48.8,22.8,104.7,32.3,157,19.3
		c52.5-12.8,99.8-50.3,118.2-101.1c5.5-15.3,8.2-31.6,6.5-47.6c-0.7-6.5-2.5-15.3-5.5-22.8c-2.2-5.5-5.5-10.8-9.2-13.8
		c-7-5.8-6-4.3-10.4,2.8c-4,6.3-6.5,12.8-11.4,18.5c-6.5,7.5-15.4,13.3-25.4,13.5c-11.7,0.3-21.9-7-32.3-12.5
		c-36.1-19-80.6-17-118.2-1.8C97,87.9,65.4,115.5,38.3,146c-4.7,5.3-9.2,10.5-11.4,17c-1.7,5.3-1.7,10.5-0.7,15.8
		c0,0.3,0.2,0.8,0.2,1C26.6,180.8,26.9,182.1,27.4,183.4z"/>
	<path fill="#50A4DF" d="M314.2,25c-26.9-0.2-43.8-12.5-38.8-28.1c-2.7,8.8-8,8.5-7.2,18.5c1,16.3,9.7,29.3,24.4,35.8
		c15.9,7,33.6,4.5,49.5-0.8c13.9-4.8,25.4-12.3,33.3-20c9.7-9.4,17.7-22.4,13.4-30.4C366,12.6,344.6,25.3,314.2,25z"/>
	<path fill="#7CCFF0" d="M35.3,197.4c7.9,9.3,19.2,15.3,30.4,20.5c48.8,22.8,104.7,32.3,157,19.3c52.5-12.8,99.8-50.3,118.2-101.1
		c5.5-15.3,8.2-31.6,6.5-47.6c-0.7-6.5-2.5-15.3-5.5-22.8c-4.5,19-10.2,38.3-22.6,53.4c-7,8.8-15.9,15.5-25.4,21.5
		c-28.4,17.8-61.7,27.6-95,28.1c-21.6,0-43.3-3.5-64.7-1c-21.1,2.3-41,10.5-61.7,14.8c-17.4,3.3-30.6,0.3-46-2.5
		C27.9,186.1,31.1,192.4,35.3,197.4z"/>
	<path fill="#50A4DF" d="M263.7,154c34.8,8.3,71.9,6.8,105.7-4.3c-6,13-20.4,19.8-34.1,24.3c-38.8,13-88.6,26.8-120.7-9
		C263.7,154,263.7,154,263.7,154z"/>
	<path fill="#FFFFFF" d="M180.4,144.5c-7.5-0.5-14.4-3-19.4-7.5c-20.4-18.8-9.2-61.4,20.4-61.1c16.9,0,29.9,10.8,35.3,26.6
		c4.5,13.8-1.7,30.8-14.4,37.6C195.8,143.3,188.1,145,180.4,144.5z"/>
	<path fill="#1D1B19" d="M192.8,94.9c5.3,3.7,8.5,10.5,8.5,17c-0.2,6.5-3.7,12.8-9.2,16.3c-10.2,6.5-28.1,7.8-34.8-4.5
		c-5.2-9-2.5-23,5.7-29.3C171.7,87.7,184.1,88.9,192.8,94.9z"/>
	<path fill="#FFFFFF" d="M177.6,109.5c-1.6,3.2-5,5.3-8.5,5.3c-3.5-0.3-6.7-2.5-8.2-5.8c-1.5-3.3-1-7.3,1.2-10
		C168.4,90.9,181.9,100.7,177.6,109.5z"/>
	<path fill="#1D1B19" d="M27.4,183.4c6.5,3.8,15.2,4.3,22.1,4.8c21.1,1.8,41.3-2.5,61.2-9.5c9.7-3.5,19.4-7.5,29.4-10.3
		c10-3,19.9-4.5,30.1-4.5c4.2,0,4.2-6.3,0.2-6.8c-11.4-0.8-22.9,1.8-33.6,5c-19.4,6-37.8,15-57.7,18.8c-10,1.8-20.2,2.5-30.4,2
		c-7.7-0.5-15.2-1.5-22.6-4c0,0.3,0.2,0.8,0.2,1C26.6,180.8,26.9,182.1,27.4,183.4"/>
	<path fill="#1D1B19" d="M171.4,155.8c1.2,2,2,4.3,3.2,6c1.5,1.8,3.5,3.3,5.5,4.3c3.7,1.8,0,8-3.2,5.5c-2.5-2-4.5-4-6.2-6.8
		c-1.2-2.3-2.7-5.3-2.5-8C168.4,155,170.4,154.3,171.4,155.8L171.4,155.8"/>
</g>
</svg>
