<?xml version="1.0" encoding="utf-8"?>
<!-- Generator: Adobe Illustrator 16.0.0, SVG Export Plug-In . SVG Version: 6.00 Build 0)  -->
<!DOCTYPE svg PUBLIC "-//W3C//DTD SVG 1.1//EN" "http://www.w3.org/Graphics/SVG/1.1/DTD/svg11.dtd">
<svg version="1.1" id="Layer_1" xmlns="http://www.w3.org/2000/svg" xmlns:xlink="http://www.w3.org/1999/xlink" x="0px" y="0px"
	 width="126px" height="108px" viewBox="0 0 126 108" enable-background="new 0 0 126 108" xml:space="preserve">
<g>
	<path fill="#242B2D" d="M64,42.4c1,0,1.8,0.3,2.5,0.3c4.8,0.8,6,0.5,6,0.5s17.8-29,25.5-31.3c4.3-1.3,6.8-1.8,8-2s1.5-0.3,1.5-0.3
		s-0.3-6.8-4.5-8.3c-4.5-1.5-11.3,0.8-19.8,8.3C74.8,17.4,64.3,39.9,64,42.4z"/>
	<path fill="#1D2121" d="M66.5,42.7c4.8,0.8,6,0.5,6,0.5s17.8-29,25.5-31.3c4.3-1.3,6.8-1.8,8-2c0-1.5-0.8-4.3-3-5
		c-3-1-5.5-0.8-11,2.5s-15.5,16-18,20.5C71.8,32.2,67.5,40.9,66.5,42.7z"/>
	<path fill="#A4BAD5" d="M36,97.7c1,0.8,3.5-0.3,6.3-2c1-0.5,2-1.3,3-2c2.3-1.5,4.3-3,5.5-4.3c0.5-0.5,1-1,1.3-1.3
		c0.3-0.5,0.5-1,0.8-2c1-7-2.5-29.5-2.5-29.5c0.5,0.5,0.5,0.5,0.5,0.5c-3.8-4-12.3,0-12.3,0c4,16.8,4,16.8,4,16.8s-11,8.5-13.3,10.8
		C27,87.2,33.8,96.4,36,97.7z"/>
	<path fill="#242B2D" d="M38.5,78.4c0,0,3.3,4.3,5.8,6.8c0.5,1,0.5,1.3-2,0c-2.8-1.3-5.8-3.5-6.3-4.8C35.5,79.4,38.5,78.4,38.5,78.4
		z"/>
	<path fill="#242B2D" d="M45,82.4c-0.3,0.3,1.3,2.8,2.3,4c0.8,0.8,2.3,2,3.5,3c0.5-0.5,1-1,1.3-1.3c0.3-0.5,0.5-1,0.8-2
		c-1.5-0.3-3.8-1-4.8-1.8C46.3,82.9,45,81.9,45,82.4z"/>
	<path fill="#242B2D" d="M42.3,95.7c1-0.5,2-1.3,3-2c-1.5-1.5-4.5-4.5-5.3-4.3C39.3,89.4,41,93.4,42.3,95.7z"/>
	<path fill="#FFFFFF" d="M82.5,90.9c-0.5,0.5-0.8,1-1,1.3c0.3,1,3.8,3.3,7,5c2.5,1.3,4.8,2.5,5.8,2.5c0.3,0,1.5-1.5,2.8-3.5
		s2.8-4.8,4-7.3c0.5-1.3,1-2.5,1.5-3.8c0.5-1.5,0.8-2.8,1-3.8c0-1,0-2-0.5-3c-0.3-1-0.8-2-1.3-2.8c-2.5-4-6.5-7.3-6.5-7.3
		c-2-0.8-6.8,1.3-10.3,3c-2,1-3.5,1.8-3.5,1.8s6.8,7.8,7,8.8S84.3,88.2,82.5,90.9z"/>
	<path fill="#A4BAD5" d="M82.5,90.9c-0.5,0.5-0.8,1-1,1.3c0.3,1,3.8,3.3,7,5c3-3.8,7-9.3,7.8-12.8c0.5-2-0.3-4-1.3-5.8
		c-0.5-0.5-0.8-1-1.3-1.5c-1.8-2-4-3.5-4-3.5C85,71.4,85,71.4,85,71.4c-2,1-3.5,1.8-3.5,1.8s4.3,4.8,6,7.5c0.5,0.5,1,1,1,1.3
		s-0.5,1.3-1.3,2.3c0,0.3-0.3,0.8-0.5,1c-0.5,0.8-1.3,1.5-1.8,2.3C84,88.7,83,89.9,82.5,90.9z"/>
	<path fill="#242B2D" d="M87.3,84.2c2,0,5-2.3,6.5-3.5c0.5-0.5,0.8-1.3,1.3-2c0.8-1.5,1.3-3.3,1.3-3.5c-0.3-0.3-1.3,1-2.5,2
		c-0.5,0.5-1.3,1-2,1.5c-1.5,1-3.3,1.5-4.3,2c0.5,0.5,1,1,1,1.3S88,83.2,87.3,84.2z"/>
	<path fill="#242B2D" d="M85,87.4c1.3,0.8,2.8,1.8,4,2c1.8,0.8,3.5,1,4,0.8c0.5-0.5-1.5-1.3-3-2.3c-1-0.8-2.8-2-3.3-2.8
		C86.3,85.9,85.5,86.7,85,87.4z"/>
	<path fill="#7E9CB7" d="M83,89.2c0.8-0.8,1.3-1.8,2-2.8c0.8-0.8,1.5-1.8,1.8-2.8c0.3-0.8,0.8-3.3-0.3-3.5c-1.5-0.5,0.3-2.3,0.8-1
		c0.5,1,1.3,1.8,1.3,2.8c0,1.3-0.3,2.5-1,3.5c-0.8,1.3-1.8,2.3-2.5,3.5c-1,1-1.8,2.5-3,3c-0.3,0.3-0.5,0-0.5-0.3
		C81.8,90.7,82.5,89.9,83,89.2z"/>
	<path fill="#242B2D" d="M81.5,92.2c0.5,1.5,10.5,7.3,12.8,7.5c0.3,0,1.5-1.5,2.8-3.5c-3-2-11.8-4.5-14.5-5.3
		C82,91.4,81.8,91.9,81.5,92.2z"/>
	<path fill="#242B2D" d="M95.3,81.9c0.5,0,1-0.3,1.5-0.3c2.3-0.5,4.3-2,6.3-3.3c-0.3-1-0.8-2-1.3-2.8c0,0-2.8,2.8-3.3,3
		c-1,1-2.3,1.5-3.3,2.5c-0.3,0.3-1,0.8-0.3,0.8C95,82.2,95.3,81.9,95.3,81.9z"/>
	<path fill="#242B2D" d="M98,88.4c0.5,0,1.8,0.3,3,0.5c0.5-1.3,1-2.5,1.5-3.8c-1,0.3-2.5,0.8-3.3,0.8c-1.5-0.3-5.8-1-6.3-0.8
		C92.8,85.7,96.8,87.9,98,88.4z"/>
	<path fill="#242B2D" d="M34,44.4c-1-0.3-5-0.8-10.3,3.5c-5.5,4-13,21.2-21,22.5c5.8,3.5,17.3,6,25.3-2C35.8,60.4,34,44.4,34,44.4z"
		/>
	<path fill="#1D2121" d="M30.3,49.7c0,0-3.3-0.3-8.5,5.5c-5.3,6-6.5,13.8-11,15.5c3.5,0.8,11.3,1,16.5-3.3
		C32.8,62.9,36,52.4,30.3,49.7z"/>
	<path fill="#FFFFFF" d="M103.8,44.2c-0.3,0.8-0.3,1.8-0.5,2.5s-0.5,1.8-0.5,2.5c-0.3,0.5-0.3,0.8-0.3,1.3c-0.5,2-1.3,4.5-2,6.7
		c-0.3,1-0.5,1.8-0.8,2.5c-0.8,2-1.5,3.8-2.3,5.8c0,0-0.3,0.3-0.3,0.5c-2,4.3-4.3,8-7.3,10.8c-7.3,7.3-32.8,5.5-49.5,2
		c-0.5-0.3-1-0.3-1.3-0.3l0,0c-2.5-0.5-4.5-1.3-6.5-1.8c-1.3-0.3-2.5-0.8-3.5-1.3c-2.3-0.8-3.8-1.8-4-2.3c-0.3-1-0.3-2.8-0.3-4.8
		l0,0c0-0.3,0-0.5,0-0.5c0-1.3,0-2.5,0-4c0.3,0,0.3,0,0.3,0c0.3-3.5,0.8-7.5,1.8-11.2c0.8-2.5,1.5-4.8,2.5-6.5s1.8-3,3-4
		c0.5-0.5,1.3-1,2-1.3c1-0.5,2.3-0.8,3.8-1c1,0,2-0.3,3.3-0.3s2.8,0,4,0c1.8,0,3.3,0,5,0.3c1.3,0,2.5,0,3.5,0.3
		c4.5,0.5,8.5,1,11.5,1.5c2,0.3,3.8,0.8,4.3,0.8c0.3,0,0.3,0,0.3,0s0.5-0.5,1.3-1.8s1.8-2.8,3.3-4.8c0.8-1.5,1.8-3.3,3-4.8
		c1-1.5,1.8-3,2.8-4.3c1.8-2.8,3.5-5.3,5.3-7.3l0,0c1.5-2.3,3-4,3.8-4.8c3.5-2.8,15.3,23.3,15.3,23.3
		C104.5,38.4,104.3,40.7,103.8,44.2z"/>
	<path fill="#A4BAD5" d="M87.3,28.2c0,0-12.8,24.8-16,24.5c-2.8-0.5-11.5-2-19.8-3c-7.3-0.8-14.3-1-15.8,0.8
		C35,50.9,34,53.7,33,57.2c-0.5,2-1,4-1.5,6.5c-0.3,1.5-0.8,3.5-1,5.3c-0.5,2.3-1,4.5-1.3,6.5c0,0.3,0,0.5-0.3,0.5
		c-2.3-0.8-3.5-1.8-3.8-2.5c-0.5-1-0.5-2.8-0.5-5.3c0.3,0.3,0.3,0.3,0.3,0.3c0-0.3,0-0.5,0-0.5c0-1.3,0-2.5,0.3-4l0,0
		c0.3-3.5,0.8-7.5,1.8-11.2c0.8-2.5,1.5-4.8,2.5-6.5s1.8-3,3-4c0.5-0.5,1.3-1,2-1.3c1-0.5,2.3-0.8,3.8-1c1,0,2-0.3,3.3-0.3
		s2.8,0,4,0c1.8,0,3.3,0,5,0.3c1.3,0,2.5,0,3.5,0.3c4.5,0.5,8.5,1,11.5,1.5c2,0.3,3.8,0.8,4.3,0.8c0.3,0,0.3,0,0.3,0
		s0.5-0.5,1.3-1.8s1.8-2.8,3.3-4.8c0.8-1.5,1.8-3.3,3-4.8c1-1.5,1.8-3,2.8-4.3c1.8-2.8,3.5-5.3,5.3-7.3c0.5,3.5,0.5,3.5,0.5,3.5
		C87.3,28.2,87.3,28.2,87.3,28.2z"/>
	<path fill="#A4BAD5" d="M85.5,19.7c-1,5.5-1.3,8.3,0.5,12c2,4.8,7.5,9.5,12.5,9.8c0.5,0.3,2.8,5,4.3,7.8c1.3-6,1.8-10.8,1.8-11
		c0,0-11.8-26-15.3-23.3C88.5,15.7,87,17.4,85.5,19.7z"/>
	<path fill="#242B2D" d="M96.5,47.9c2,1.3,4.3,2,6,2.5c0-0.5,0-0.8,0.3-1.3c0.3-0.8,0.3-1.8,0.5-2.5c-7.8,0-14-8.5-14.8-8.5
		C87.8,38.4,93.5,46.4,96.5,47.9z"/>
	<path fill="#242B2D" d="M94.8,58.7c1.3,0.3,3.3,0.8,5,1c0.3-0.8,0.5-1.5,0.8-2.5c-3.3-0.3-9.5-1.3-11-1.5
		C87.5,55.4,92.8,57.9,94.8,58.7z"/>
	<path fill="#A4BAD5" d="M97.3,65.9c-2,4.3-4.5,8.5-7.3,11.3c-4.5,4.3-15,5.5-26.5,5c-1.3-0.3-2.8-0.3-4-0.3c-0.5-0.3-1-0.3-1.3-0.3
		c-1.5,0-3-0.3-4.5-0.5c-2,0-3.8-0.5-5.8-0.8c-1.8-0.3-3.8-0.5-5.5-0.8c-3.8-0.8-7.5-1.8-10.3-2.5C31,76.7,30,76.4,29,75.9
		c-2.3-0.8-3.5-1.8-3.8-2.5c-0.5-1-0.5-2.8-0.5-5.3c0.3,0.3,0.3,0.3,0.3,0.3c1.3,0,3.3,0.3,5.5,0.5c4.3,0.5,9.5,0.8,12.3-0.5
		c5-2,7.8-9.8,7.5-14.5c3,2.8,2.8,7.5,1.5,11.8c-1,4.5-3,8.3-3,8.3s1.3,0.3,3,0.3c0.8,0.3,1.5,0.3,2.3,0.3c1.3,0.3,2.8,0.3,4.3,0.5
		c0.8,0,1.8,0,2.8,0.3c1,0,2,0,3.3,0.3c6.8,0.3,14,0.5,18.8-0.3c5.3-0.8,9.5-4,12.5-7.5C96.3,67.2,96.8,66.4,97.3,65.9L97.3,65.9z"
		/>
	<path fill="#A4BAD5" d="M103.8,44.9c-2,11.5-4.3,24-13.5,32.2c-4.3,3.5-9.3,5.5-14.8,6c-3.8,0.3-7.8,0-11.5-0.3
		c-1.5,0-2.8-0.3-4.3-0.3l0,0c-0.5-0.3-0.8-0.3-1.3-0.3c-1,0-2-0.3-2.8-0.3s-1.3-0.3-1.8-0.3c-1.8-0.3-3.5-0.3-5.3-0.5
		s-3.8-0.8-5.8-1c-3.5-0.5-6.8-1.3-10.3-2.3c-0.5,0-0.8-0.8-0.5-1c0-0.3,0.3-0.5,0.5-0.5H33c4,0.8,8,1.5,12,2c1.8,0.5,3.5,0.8,5.5,1
		c1.3,0,2.5,0.3,3.8,0.5c1.3,0,2.8,0.3,4.3,0.5c0.5,0,1.3,0,1.8,0c1.3,0.3,2.5,0.3,3.8,0.3c2.5,0.3,5,0.3,7.5,0.5
		c5.5,0,11.3-0.8,16-4.3c3.3-2.5,6-5.8,8-9.5l0,0c0.5-0.8,1-1.8,1.5-2.8c3-6.5,4.3-13.5,5.5-20.5c0-0.5,0.8-0.5,1.3-0.3
		C103.8,44.4,104,44.7,103.8,44.9z"/>
	<path fill="#242B2D" d="M41.5,39.7c0,1,0.3,2,0.5,3c0.8,3,1.5,6.5,2.3,8.5c1.3,4,4.3,8.7,5.3,8.7s-2.3-8.5-2.5-10.2
		c-0.3-0.8-0.5-3.5-1-6c0-1.5-0.3-3-0.5-4C44.3,39.7,42.8,39.7,41.5,39.7z"/>
	<path fill="#242B2D" d="M34.5,40.9c0.3,1,0.5,2.5,0.8,3.8c0.8,4,1.8,8.5,2.5,8.3c0.8-0.3,0.8-5.5,0.5-9.8c0-1,0-2.3,0-3.3
		C36.8,40.2,35.5,40.4,34.5,40.9z"/>
	<path fill="#242B2D" d="M30.3,49.7c-0.3-1.5-0.5-2.8-0.8-3.5c-1,1.8-1.8,4-2.5,6.5c0.3,0.5,0.5,1.2,0.5,2c0.8,2.8,1.5,5.8,2.3,6.8
		c1.5,2,6.3,7.5,7.3,7C30.3,49.7,30.3,49.7,30.3,49.7z"/>
	<path fill="#242B2D" d="M77.5,31.2c0.5,2,1.5,4,2.3,5.5c2.3,3.8,8.5,8.5,9.3,8.3c0.8-0.5-3.8-5-5.8-8.3c-1.5-2.8-2.5-7.5-3-9.8
		C79.3,28.2,78.5,29.7,77.5,31.2z"/>
	<path fill="#242B2D" d="M93.8,53.2c0,0-5-0.5-8.3-2.7s-7.3-8.5-7.3-9.3s8,7,9.3,7.8s10.3,3.3,9.8,4C96.8,53.7,93.8,53.2,93.8,53.2z
		"/>
	<path fill="#242B2D" d="M71.3,40.7c0.8,2.5,2,5,3,6c2,2,7.8,5.8,8.5,5.5c1-0.3-4-4.5-5.3-6.8c-1.3-2-2.8-7.3-3-9.5
		C73,37.9,72,39.4,71.3,40.7z"/>
	<path fill="#242B2D" d="M62.3,41.2c0,3,0.3,9.3,0.8,11c0.8,2,3.3,8,2.3,8c-1-0.3-4.3-6.3-5.3-9.2c-0.8-2-1.5-7.3-1.8-10.3
		C62.3,41.2,62.3,41.2,62.3,41.2z"/>
	<path fill="#242B2D" d="M65.5,41.7c0.8,3.3,3.5,10.5,4.8,12.2c1.3,2,6,7.3,7.5,7c0.3,0-5.3-8.2-6-9.2c-0.5-1-1.5-7-2-9.3
		C69.3,42.4,67.5,41.9,65.5,41.7z"/>
	<path fill="#242B2D" d="M77.5,31.2c0.5,2,1.5,4,2.3,5.5c2.3,3.8,8.5,8.5,9.3,8.3c0.8-0.5-3.8-5-5.8-8.3c-1.5-2.8-2.5-7.5-3-9.8
		C79.3,28.2,78.5,29.7,77.5,31.2z"/>
	<path fill="#242B2D" d="M93.8,53.2c0,0-5-0.5-8.3-2.7s-7.3-8.5-7.3-9.3s8,7,9.3,7.8s10.3,3.3,9.8,4C96.8,53.7,93.8,53.2,93.8,53.2z
		"/>
	<path fill="#242B2D" d="M71.3,40.7c0.8,2.5,2,5,3,6c2,2,7.8,5.8,8.5,5.5c1-0.3-4-4.5-5.3-6.8c-1.3-2-2.8-7.3-3-9.5
		C73,37.9,72,39.4,71.3,40.7z"/>
	<path fill="#242B2D" d="M62.3,41.2c0,3,0.3,9.3,0.8,11c0.8,2,3.3,8,2.3,8c-1-0.3-4.3-6.3-5.3-9.2c-0.8-2-1.5-7.3-1.8-10.3
		C62.3,41.2,62.3,41.2,62.3,41.2z"/>
	<path fill="#242B2D" d="M65.5,41.7c0.8,3.3,3.5,10.5,4.8,12.2c1.3,2,6,7.3,7.5,7c0.3,0-5.3-8.2-6-9.2c-0.5-1-1.5-7-2-9.3
		C69.3,42.4,67.5,41.9,65.5,41.7z"/>
	<path fill="#242B2D" d="M50.5,39.9c1,3.8,2.8,10.3,3.8,10.5s0.3-7.3-0.3-10.3C53,39.9,51.8,39.9,50.5,39.9z"/>
	<path fill="#242B2D" d="M58.5,74.9h-0.3c-1.5-0.3-2.8-0.3-3.8-0.5c0.5-7.8,1.8-17.8,2.8-17.8l0,0C58.3,57.4,58.5,67.2,58.5,74.9
		L58.5,74.9z"/>
	<path fill="#1B2025" d="M58.5,80.7L58.5,80.7c-1.5-0.3-3-0.5-4.3-0.5c0-1.3,0-2.8,0-4.3c0.3-0.5,0.3-1,0.3-1.5l0,0
		c1,0.3,2.3,0.3,3.8,0.5h0.3c0,0.5,0,0.8,0,1.3C58.5,77.7,58.5,79.2,58.5,80.7z"/>
	<path fill="#1B2025" d="M58.5,82.4L58.5,82.4c-1,0-2-0.3-2.8-0.3s-1.3-0.3-1.8-0.3c0-0.3,0-0.5,0-0.5c0-0.3,0-0.5,0-0.5
		c0-0.3,0-0.5,0.3-0.8l0,0c1.3,0,2.8,0.3,4.3,0.5l0,0l0,0c0,0.3,0,0.3,0,0.5s0,0.5,0,0.5C58.5,81.9,58.5,82.2,58.5,82.4z"/>
	<path fill="#242B2D" d="M64.5,75.4h-0.3c-1-0.3-1.8-0.3-2.8-0.3l0,0c1.3-4,2.3-7.8,3-7.8l0,0C65,67.4,65,71.4,64.5,75.4L64.5,75.4z
		"/>
	<path fill="#1B2025" d="M64,80.9L64,80.9c-1.3,0-2.5,0-3.8-0.3c0.3-1.3,0.8-2.8,1-4.3c0.3-0.5,0.3-1,0.3-1.3c1,0,1.8,0,2.8,0.3h0.3
		c0,0.3,0,0.8,0,1.3C64.3,78.2,64.3,79.7,64,80.9z"/>
	<path fill="#1B2025" d="M64,82.9L64,82.9c-1.5,0-2.8-0.3-4.3-0.3c0-0.3,0.3-0.5,0.3-0.8s0-0.3,0-0.5c0.3-0.3,0.3-0.5,0.3-0.8l0,0
		c1.3,0.3,2.5,0.3,3.8,0.3l0,0l0,0c0,0.3,0,0.5,0,0.8c0,0,0,0.3,0,0.5S64,82.7,64,82.9z"/>
	<path fill="#242B2D" d="M52.3,74.4c-0.3,0-0.3-0.3-0.5-0.3c-1.5,0-2.5-0.3-3-0.3c0.8-1,1.3-1.8,1.8-2.8c0.5-1.3,0.8-2.3,1.3-3.5
		c0-0.3,0.3-0.8,0.5-1c0.5,0.8,0.5,1.8,0.5,2.5c0,1-0.3,1.8-0.3,2.8c0,0.5-0.3,1.3-0.3,2C52.3,73.9,52.3,74.2,52.3,74.4z"/>
	<path fill="#1B2025" d="M50.5,79.7L50.5,79.7c-2-0.3-3.8-0.5-5.5-1c1.3-1,2.3-2.5,3.3-3.8c0.3-0.3,0.5-0.8,0.5-1
		c0.5,0,1.5,0.3,3,0.3c0.3,0,0.3,0.3,0.5,0.3C52,76.2,51.5,78.2,50.5,79.7z"/>
	<path fill="#1B2025" d="M48.8,81.4L48.8,81.4c-1.8-0.3-3.8-0.8-5.8-1c0.5-0.5,0.5-0.5,0.5-0.5c0.3-0.3,0.5-0.5,0.8-0.8
		c0.3,0,0.5-0.3,0.8-0.5l0,0c1.8,0.5,3.5,0.8,5.5,1l0,0l0,0C50,80.2,49.5,80.9,48.8,81.4z"/>
	<path fill="#1C2123" d="M94.3,10.9c0-0.3-1.8-4-2.5-6.8c-0.8-2.5-1.5-3-3.3-2c-1.8,0.8-3,3.5-2.3,5.8c0.8,2,2.8,4.3,4.5,5
		C92.5,13.9,93.8,11.7,94.3,10.9z"/>
	<path fill="#F2576E" d="M89.3,4.7c1.8-0.5,1,1.8,1.5,3.8c0.5,1.8,1.8,3.3,1.8,3.3c-0.8,0.8-0.8,0.8-0.8,0.8s-3.5-2-4-4
		C87.8,7.2,87.5,4.9,89.3,4.7z"/>
	<path fill="#1C2123" d="M108,10.2c0-0.3,2.5-3.8,3.8-6.3s2.3-2.5,3.8-1.3c1.5,1,2,4,0.8,6c-1,1.8-3.5,3.5-5.5,4
		C109,13.2,108,10.9,108,10.2z"/>
	<path fill="#F2576E" d="M113.8,4.9c-1.8-0.8-1.5,1.5-2.5,3.3c-0.8,1.8-2.3,3-2.3,3c0.5,1,0.5,1,0.5,1s3.8-1.3,4.8-3.3
		C114.5,7.9,115.3,5.4,113.8,4.9z"/>
	<path fill="#FFFFFF" d="M86.8,23.2c0.5,4.3,2.5,8.5,5.3,11.3c1.8,1.8,3.8,2.8,5.3,3.3c2.3,1,4,1,4.5,1l0,0c1.3,2.8,1.3,2.8,1.3,2.8
		c2.3,5,2.3,5,2.3,5s0,0,0.3,0.3c2,0,11.3,0.5,17-6c-0.3-3.3-1-7.3-2.3-11.5c-0.3-0.8-0.3-1.3-0.5-2c-0.3-0.5-0.3-1-0.5-1.3
		c-0.3-1-0.8-2-1-3l0,0c-1-2.3-2-4.5-3.3-6.5c-0.5-1-1.3-2-1.8-2.8c-0.5-0.5-1-1-1.5-1.5c-0.8-0.8-1.5-1.3-2.3-1.8
		c-0.3,0-0.3,0-0.3,0c-1-0.5-2-0.8-3.3-1c-1-0.3-2.3-0.5-3.5-0.5c-0.5,0-1.3,0-2,0c-2.8,0-5.5,0.8-7.8,2c-0.8,0.5-1.8,1-2.3,1.5
		c-1,1-1.8,1.8-2.3,2.8C87,17.7,86.5,20.4,86.8,23.2z"/>
	<path fill="#1C2123" d="M113.8,15.9c0.5,0,0.8,0.3,1.3,0.5c-0.5-1-1.3-2-1.8-2.8c-2,0-3.8,0.8-4.5,1.8
		C108.3,16.9,110.8,15.4,113.8,15.9z"/>
	<path fill="#1C2123" d="M107,14.2c1.3-1,3.5-1.8,4.8-2c-0.8-0.8-1.5-1.3-2.3-1.8c-0.3,0-0.3,0-0.3,0
		C107.3,11.4,106.3,14.2,107,14.2z"/>
	<path fill="#1C2123" d="M117.3,27.4c0.3-0.3,0.8-0.3,1-0.5c0.5-0.5,1-0.8,0.8-1.5c0-0.8-0.5-1.8-0.8-2.5c0.3,1-1.5,3-2.3,3.5
		c-0.5,0.3-2.5,1.3-0.8,1.3C116,27.9,116.5,27.7,117.3,27.4z"/>
	<path fill="#1C2123" d="M116.3,30.2c1,0.3,2.8,0,4-1c-0.3-0.8-0.3-1.3-0.5-2c-0.5,0.5-1.5,1.3-3.3,1.8
		C115.3,28.9,114.8,29.7,116.3,30.2z"/>
	<path fill="#CDDDF3" d="M103.8,8.9c7.3-0.5,11.8,6,14.3,11.8c1.5,3.5,2.8,7,3.5,10.8c0.8,3.5,1.3,7.5,0.8,11c0,0.5-0.8,0.3-0.8,0
		c-0.5-3.5-0.5-6.8-1.3-10c-0.5-3.3-1.5-6.5-2.8-9.8c-2.5-5.8-6.3-13.5-13.8-13.3C103.5,9.4,103.5,9.2,103.8,8.9z"/>
	<path fill="#CDDDF3" d="M86.8,23.2c0.5,4.3,2.5,8.5,5.3,11.3c1.8,1.8,3.8,2.8,5.3,3.3c2.3,1,4,1,4.5,1l0,0c1.3,2.8,1.3,2.8,1.3,2.8
		c2.3,5,2.3,5,2.3,5s0,0,0.3,0.3c1-2.5,1.8-5.3,1.8-5.3s-2.8-8.5-3.3-8.8c-0.8-0.5-4.8,1.3-7.8-1c-3.3-2-4-5.5-4-8
		c-0.3-3,1.5-10,7.8-9.3c1.8,0,1.5-0.3,1.5-0.3s-4-4.3-11-1.8c-1,1-1.8,1.8-2.3,2.8C87,17.7,86.5,20.4,86.8,23.2z"/>
	<path fill="#1C2123" d="M89.3,17.4c3.8-4.5,10-3,13-2.5c0-1.5,3-4.5,3.8-5.5c-1-0.3-2.3-0.5-3.5-0.5c-0.8,1.5-1.8,3.5-1.8,3.5
		s-4.5-1.5-7-0.5c-2.8,1-5.3,4.8-5.5,5.8S88.3,18.7,89.3,17.4z"/>
	<path fill="#FFFFFF" d="M122,46.9c0,0-1,2.8-2.3,3.8c-1.3,1.3-6.8,1.3-9.8-1.3c-2.8-2.8-2.8-3.8-2.8-3.8
		C122,46.9,122,46.9,122,46.9z"/>
	<path fill="#242B2D" d="M105.8,50.9c2.5,3.2,5.3,4.2,7.8,4.2c2,0,4-0.5,5.3-1.5c-5.8,1.3-9.8-2.5-11-7c5.5,4.8,10.5,3.3,13.5,1.8
		c3.3-1.8,4.8-4.5,2.3-8.3c-2.3-3.8-7.5,0-8.3,0c0,0-3-2.5-7.5-0.8l0,0C104,40.9,101,45.4,105.8,50.9z"/>
	<path fill="#CDDDF3" d="M113.5,16.9c1.3,0.5,3.8,2.5,3.3,5.5c-0.5,2.8-3.5,4.8-6.5,3.3s-3-4.8-2-7
		C109.3,16.9,111.5,16.7,113.5,16.9z"/>
	<path fill="#FFFFFF" d="M113.3,17.9c1.3,0.3,3.3,1.8,2.8,4.3s-2.8,4-5.5,2.8c-2.5-1.3-2.5-4-1.5-5.8
		C109.8,17.7,111.8,17.4,113.3,17.9z"/>
	<path fill="#1C2123" d="M109.8,20.4c0,0.3,0,0.3,0.3,0.3c0,0.3,0,0.3,0,0.3c0.3,0,0.3,0,0.5,0c0,0.3,0.3,0.3,0.3,0.3
		c0.5,0,0.8-0.3,1-0.5c0.5,0,0.5-0.5,0.5-0.8c0.3-0.3,0-0.5,0-0.8c0,0,0-0.3-0.3-0.3c0-0.3,0-0.3-0.3-0.3c0.3-0.3,0.5-0.3,0.8,0
		c1.5,0,2.8,1.5,2.5,3.3c0,1.5-1.5,2.8-3.3,2.5c-1.5-0.3-2.8-1.5-2.5-3.3c0-0.3,0-0.8,0.3-1C109.5,20.2,109.5,20.4,109.8,20.4z"/>
	<path fill="#CDDDF3" d="M102,19.9c1.3,0.3,3.8,2.3,3.3,5.3s-3.5,4.8-6.5,3.3c-3-1.3-3-4.8-2-6.8C97.8,19.9,100,19.4,102,19.9z"/>
	<path fill="#FFFFFF" d="M101.8,20.7c1.3,0.3,3.3,2,2.8,4.5c-0.5,2.3-2.8,3.8-5.5,2.8c-2.5-1.3-2.5-4-1.5-5.8
		C98.3,20.7,100.3,20.4,101.8,20.7z"/>
	<path fill="#1C2123" d="M98.3,23.4c0,0,0,0,0.3,0.3l0,0c0.3,0,0.3,0.3,0.5,0.3h0.3c0.5,0,0.8,0,1-0.3c0.5-0.3,0.5-0.5,0.5-1
		c0-0.3,0-0.3,0-0.5s0-0.3-0.3-0.5c0,0,0-0.3-0.3-0.3c0.3,0,0.5,0,0.8,0c1.5,0.3,2.8,1.8,2.5,3.3c0,1.8-1.5,2.8-3.3,2.8
		c-1.5-0.3-2.8-1.8-2.5-3.3c0-0.5,0-0.8,0.3-1C98,23.2,98,23.2,98.3,23.4z"/>
	<path fill="#1C2123" d="M117.5,43.2c0.3-0.3,2-3,3.5-2.8s2.3,1.8,1.8,2.8c-0.8,1-3.3,2.3-4.3,2S117.3,43.9,117.5,43.2z"/>
	<path fill="#1C2123" d="M114.5,43.4c0-0.3-2-2.8-3.5-2.5s-2.3,2-1.5,3s3.5,2,4.3,1.5C114.8,44.9,115,44.2,114.5,43.4z"/>
	<path fill="#1C2123" d="M101.8,38.7L101.8,38.7c1.3,2.8,1.3,2.8,1.3,2.8c0.5-1,1.8-2.8,3.5-3.8c3-1.8,5.5-2,5.3-2.8s-5.3-0.3-7,0.5
		C103.8,35.9,102.5,37.4,101.8,38.7z"/>
	<path fill="#1C2123" d="M92.8,20.7c2-2.3,4.3-2.8,4.3-2.3c0,0-2,1.8-2.8,3.5c-1,1.8-1.5,4.5,0.5,7.3c2.8,3.8,10,2.3,9.8,3
		s-4.5,2.3-8,1.3s-4.8-3-5.5-5.3C90.5,26.2,91.3,22.2,92.8,20.7z"/>
	<path fill="#1C2123" d="M86.8,23.2c0.5,4.3,2.5,8.5,5.3,11.3c1.8,1.8,3.8,2.8,5.3,3.3c2.3-0.3,3.5-1.3,3.8-1.5
		c0.8-0.5,0.5-0.8-1.3-0.5c-3.8,0.3-6.5-1.3-8.3-2.8c-1.5-1.8-2.8-4.3-2.5-7.5c0-3.3,3-5.5,2.5-6.3C91.3,18.4,88.5,19.9,86.8,23.2z"
		/>
	<path fill="#1C2123" d="M92.8,10.9c3.5-1.3,5.3-0.5,6.8-0.3c0-0.5,0.5-1.3,1-1.8C97.8,8.9,95,9.7,92.8,10.9z"/>
	<path fill="#1C2123" d="M105.8,50.9c2.5,3.2,5.3,4.2,7.8,4.2c-1-0.5-2.3-1-3.3-1.5c-3.5-2-4.5-3.7-5.3-7.5c-0.5-3,2-6.3,2.5-6.8
		c0.3,0,0.3,0,0.3,0C104,40.9,101,45.4,105.8,50.9z"/>
	<path fill="#FFFFFF" d="M86,60.4c0,0.5-0.5,2.5-1.3,5.3c-0.5,1.5-1,3.3-1.5,5.3c-0.5,1.5-1,3-1.5,4.8c-0.8,2.3-1.3,4.3-2,6.3
		c-0.3,1.3-0.8,2.3-1,3.3c-0.5,2-1,3.3-1,3.3s0,0.5,0.3,1.3c0,1,0,2,0.3,3.5c0.3,2.5,0.5,6,0.5,8.5c0,1.8,0,3.3,0,3.5
		c-0.3,0.3-0.5,0.3-0.8,0.3c-2.8,0.3-13-0.3-14.5-1.3c-0.3,0-0.3-0.5-0.3-1c-0.3-1.8,0-5,0.3-8.5c0.3-1.5,0.3-2.8,0.5-4
		c0.3-2.3,0.5-4,0.5-5.5c0-0.5,0-0.8,0-1.3c0-0.8,0.3-1.8,0.3-3c0.3-1.3,0.5-3,0.8-4.5c0.3-1.3,0.3-2.5,0.5-3.8
		c1.3-7.8,2.5-16.3,2.5-16.3c0.8-1,1.5-1.5,2-2c0.8-0.8,1.5-1,2.3-1.3C79,51.2,86.3,58.4,86,60.4z"/>
	<path fill="#242B2D" d="M77.8,60.9c-1.5,0.3-5.5-4.3-7.3-6.5c0.8-0.8,1.5-1,2.3-1.3C74.8,55.9,78,60.9,77.8,60.9z"/>
	<path fill="#242B2D" d="M63.3,103.2c0,0.5,0,1,0.3,1c1.5,1.3,13.5,1.8,15.3,1c0-0.3,0-1.8,0-3.5C75.5,101.2,67.3,102.4,63.3,103.2z
		"/>
	<path fill="#242B2D" d="M78,74.2c1.5,0.8,2.8,1.3,3.8,1.5c0.5-1.8,1-3.3,1.5-4.8c-1,0.3-2.3,0.5-3.8,0.3c-2.5-0.3-7-2-7.3-1.8
		C71.3,69.9,75.3,73.2,78,74.2z"/>
	<path fill="#242B2D" d="M65.5,76.4c1,0.5,3,1.3,5.3,1c2.8-0.3,3.5-1.3,3.8-1.5s-2.3-0.3-4.8-1c-1.8-0.5-3.3-1.8-3.8-2.3
		C65.8,73.9,65.8,75.2,65.5,76.4z"/>
	<path fill="#242B2D" d="M74,84.7c1,0.5,3.5,0.5,4.8,0.5c0.3-1,0.8-2,1-3.3c-0.8,0-2.3,0.3-3.3,0.3c-1.5,0-6-1.8-6.5-1.5
		C69.5,80.7,72.8,83.7,74,84.7z"/>
	<path fill="#242B2D" d="M64.5,83.9c0,0.5,0,0.8,0,1.3c1,0.5,2.8,1,4,1.3c2.3,0.5,4.5,0.3,4.5-0.3s-1.8-0.8-3.8-1.5
		c-1.8-0.8-3.8-3-4.5-3.8C64.8,82.2,64.5,83.2,64.5,83.9z"/>
	<path fill="#242B2D" d="M74.3,93.2c0.8,0,2.8,0,4,0C78,91.7,78,90.7,78,89.7c-1,0.3-2.5,1-3.5,0.8c-1.5,0-5-1-5.3-0.8
		C69,90.2,73,92.9,74.3,93.2z"/>
	<path fill="#242B2D" d="M64,90.7c-0.3,1.3-0.3,2.5-0.5,4c1.3,0.5,2.8,1,3.5,1.3c1.5,0,4.8-0.8,4.8-1c-0.3-0.5-3-0.8-4-1.3
		S64.5,90.9,64,90.7z"/>
	<path fill="#7E9CB7" d="M77.5,87.2L77.5,87.2c0.3-1.8,1-3.3,1.5-4.8c2.3-6,3.3-12.3,5-18.3c0.3-0.3,0.3-0.5,0.5-0.5
		c0.3-0.3,0.5,0.5,0.5,0.8c-0.5,2.8-0.8,5.8-1.3,8.5C83,75.7,82,78.2,81,80.7c-0.8,2.3-2,4.8-2,7.3c-0.3,2.8-0.3,5.5-0.3,8.3
		c0.3,3,0.5,6,0.3,9c-0.3,0.5-1,0.5-1,0c-0.5-3-0.3-6.3-0.3-9.3c-0.3-1.5-0.3-3-0.3-4.5S77.5,88.4,77.5,87.2z"/>
	<path fill="#FFFFFF" d="M48.5,68.7c-0.8,1-1.3,2-2,2.8c-0.3,0.3-0.5,0.5-0.5,0.8c-1,1.5-2,2.8-2.8,3.8c-1,1-2,2-2.8,2.8
		c-2,1.8-3.5,2.5-3.5,2.5s0,0.5,0.3,1.5c0,0.5,0,1.5,0,2.5c0.5,4,1,10.5,1,14.8c0.3,2.5,0.3,4.3,0.3,4.8c-0.5,1-8.3,0.3-13-0.5
		c-2-0.5-3.5-1-3.5-1.3s0-1,0-2c0-2.5,0.5-7.5,0.8-13c0.3-1.3,0.3-2.8,0.3-4c0.3-1.8,0.5-3.5,0.5-5.3c0-1,0.3-2,0.3-3
		c0.3-1.3,0.3-2.3,0.5-3.5c0.3-2.8,0.5-5,0.8-7.3c0-0.3,0-0.5,0-1c0.3,0,0.3,0,0.3,0c0.3-1.8,0.5-3.3,0.8-4.3c0.3-1.8,0.8-3.5,1.5-5
		c0.8-1.7,1.8-3.5,2.8-5c1.5-2,3.3-3.8,5-5c1-0.5,2-1,3-1.5c1.3-0.3,2.5-0.5,3.8-0.5s2.8,0.5,4,1c0.3,0,0.5,0.3,0.8,0.3
		c2.3,1.3,3.8,3.3,4.8,5.8C53.3,55.2,52.3,62.9,48.5,68.7z"/>
	<path fill="#A4BAD5" d="M51.5,49.7c-1.8,0-3.3-0.3-4.8-0.3c-1-0.3-2-0.3-3.3-0.3c-2,0-3.8,0-5,0.3c-1,0-1.5,0.3-2,0.5
		c-0.5,0-0.5,0.3-0.8,0.5c-0.8,0.8-2,3.7-3,8.2c-0.5,1.5-0.8,3.3-1.3,5c-0.5,2.5-1.3,5.5-1.8,8.5c0,0.8-0.3,1.5-0.3,2.3
		c-0.3,0.5-0.3,0.8-0.3,1c-0.3,1-0.5,2-0.5,3c-0.3,1.5-0.3,1.5-0.3,1.5c-0.5,2-0.8,4-1,6.3c-0.3,1-0.3,2-0.5,3
		c-1,6.8-1.5,12.5-1.5,15c-2-0.5-3.5-1-3.5-1.3s0-1,0-2c0-2.5,0.5-7.5,0.8-13c0.3-1.3,0.3-2.8,0.3-4c0.3-1.8,0.5-3.5,0.5-5.3
		c0-1,0.3-2,0.3-3c0.3-1.3,0.3-2.3,0.5-3.5c0.3-2.8,0.5-5,0.8-7.3c0-0.3,0-0.5,0-1c0.3,0,0.3,0,0.3,0c0.3-1.8,0.5-3.3,0.8-4.3
		c0.3-1.8,0.8-3.5,1.5-5c0.8-1.7,1.8-3.5,2.8-5c1.5-2,3.3-3.8,5-5c1-0.5,2-1,3-1.5c1.3-0.3,2.5-0.5,3.8-0.5s2.8,0.5,4,1
		c0.3,0,0.5,0.3,0.8,0.3C49,45.2,50.5,47.2,51.5,49.7z"/>
	<path fill="#242B2D" d="M42,63.4c0.3,0.8,2.3,6.3,4,8.8c0-0.3,0.3-0.5,0.5-0.8c0.8-0.8,1.3-1.8,2-2.8c-1.3-1.5-2.8-3.8-3.8-5.8
		c-1.3-2.8-2.3-8-3-7.8C41,55.2,41.8,62.2,42,63.4z"/>
	<path fill="#242B2D" d="M37,68.4c-0.8,0.3-3.5-2.5-5.5-4.8c-0.8-1-1.3-1.8-1.8-2.3c-0.8-1-1.5-4-2.3-6.8c0.8-1.7,1.8-3.5,2.8-5
		c0.8,3,1.8,6.5,2.5,9c0.3,1,0.5,2,0.8,2.5C35.3,64.4,38,68.2,37,68.4z"/>
	<path fill="#242B2D" d="M36.8,75.2c0.5,0.5,2,2.3,3.8,3.5c0.8-0.8,1.8-1.8,2.8-2.8c-2.3-1.3-8-5-10-6.3
		C31.3,68.9,35.8,73.9,36.8,75.2z"/>
	<path fill="#242B2D" d="M24.3,72.2c2,1.5,8.3,3.5,9,3s-4.5-3.3-5.8-4.5c-0.8-0.8-1.8-3.5-2.5-5.8C24.8,67.2,24.5,69.4,24.3,72.2z"
		/>
	<path fill="#242B2D" d="M37.3,85.2c0-1,0-2,0-2.5c-1.8,0-5.8-0.3-7.8-0.8C28,82.2,33.8,85.2,37.3,85.2z"/>
	<path fill="#242B2D" d="M23.8,75.7c0,1-0.3,2-0.3,3c2.3,1,8,1.8,7.3,1S25.3,76.4,23.8,75.7z"/>
	<path fill="#242B2D" d="M23,83.9c0,1.3,0,2.8-0.3,4c1.5,0.5,3.3,1,4.8,1.3c3,0.5,6.3-1.5,6.5-2c0.5-0.5-4-0.3-6.8-1.3
		C25.8,85.4,24.3,84.7,23,83.9z"/>
	<path fill="#242B2D" d="M49.5,59.9c-1,0-4-4.8-5.3-8.7c-0.3-0.5-0.5-1.3-0.8-2c-0.5-2-1-4.3-1.5-6.5c1.3,0.3,2.8,0.5,4,1
		c0.3,2.3,0.8,4.5,0.8,5.8c0.3,0,0.3,0.3,0.3,0.3C47.3,51.4,50.5,59.9,49.5,59.9z"/>
	<path fill="#242B2D" d="M38.5,49.4c-0.3,2-0.3,3.3-0.8,3.5c-0.3,0-0.8-1.3-1.3-3c-0.5-1.5-1-3.3-1.3-5.3c1-0.5,2-1,3-1.5
		C38.5,45.2,38.5,47.7,38.5,49.4z"/>
</g>
</svg>
