<?xml version="1.0" encoding="utf-8"?>
<!-- Generator: Adobe Illustrator 16.0.0, SVG Export Plug-In . SVG Version: 6.00 Build 0)  -->
<!DOCTYPE svg PUBLIC "-//W3C//DTD SVG 1.1//EN" "http://www.w3.org/Graphics/SVG/1.1/DTD/svg11.dtd">
<svg version="1.1" id="Layer_1" xmlns="http://www.w3.org/2000/svg" xmlns:xlink="http://www.w3.org/1999/xlink" x="0px" y="0px"
	 width="316px" height="284px" viewBox="0 0 316 284" enable-background="new 0 0 316 284" xml:space="preserve">
<g>
	<path fill="#D01747" d="M175.5,244c-5-10-8.5-21.3-11.5-32.3c-1.8-6.3-3.5-13.3-3.5-19.8c0.5-17.8,19.5,0,26,3.5
		c17.3,9.8,32.8,19.5,46,34.3C239,237,254.7,257,252,268c-1.5,6-11.3,7.5-16.8,8.8c-12.5,2.8-34.8,8.5-44-3.3
		C185,265.3,180,253.5,175.5,244z"/>
	<path fill="#F03289" d="M162,130.3c5.8-11.8,11.3-24.5,18.3-36c14-23.3,39.8-38.5,66-47c19.5-6.3,37.8-6.5,53.3,6.8
		c14.8,12.8,20.5,33.3,11.8,50.8c-4.3,8.5-10.3,16-14.3,24.8c-3.3,7.5-4.3,15.8-6,23.8c-3.8,17.5-7.8,34.8-13.8,52
		c-8,23-26.3,32.5-52,25.3c-17-5-31.8-18-42.3-31.3c-7.8-10.3-17.8-19.5-23-31.3c-5.3-12.3-3.8-25.3,1.7-37.3
		C162,130.8,162,130.5,162,130.3z"/>
	<path fill="#F364B5" d="M195,125c-6.5,1.8-26.8,12.8-32.5,6c-6-7,10-19.5,14.8-23c11.8-8.5,22.5-16.8,35.8-22.8
		c12.3-5.8,28.3-15,41.3-8.8c12.3,6.3,9.3,15.8-1.5,22.5C235.2,110.3,215.2,119.5,195,125z"/>
	<path fill="#F364B5" d="M219.2,128c7.8,0.5,27.8,5.3,22.3,16.3c-4.8,9.5-21.8,8-30.3,8c-10.8,0-22.3-1-32-5.8
		c-11-5.5-3-11.8,4.8-13.8C195.5,130,207.2,127.5,219.2,128z"/>
	<path fill="#F364B5" d="M211.2,172.5c5,6,15,24,3.3,27.5c-10,3-20.5-10.8-26.3-17c-7.3-7.8-14.5-17-17.5-27.3
		c-3.5-11.8,6.5-10.3,13-6C193.7,156.5,203.5,163.3,211.2,172.5z"/>
	<path fill="#D01747" d="M104,233.3c7.5-8.5,13.8-18.5,19.3-28.3c3.3-5.8,7-11.8,8.5-18.3c4-17.3-18.8-5-26-3.3
		c-19,5-36.8,10.3-53.3,21.3c-8,5.3-28.5,20.8-28.5,32c-0.3,6,8.8,10.3,13.8,12.8c11.3,6,31.8,17.3,43.5,8
		C89.2,251.3,97.2,241.3,104,233.3z"/>
	<path fill="#F03289" d="M20.7,29.3c-8.8,8.3-5,29.3-2.8,39.5c3.5,16.5,10.3,34.5,4.5,51C16.2,138.3,7.2,155.3,5.2,175
		c-2,20.5,10.5,32.3,29.3,37.8c28.3,8.3,56.8-14.3,81.8-24.3c11.3-4.3,23.5-6.8,33.3-14c9.3-7.3,10.8-16.8,11-27.8
		c0.3-10.5-0.3-21-2.8-31.3c-2.3-8.8-7.5-15.3-11.8-23c-9-16.8-18-34.5-35-44.3c-15-9-31.5-17.3-48.5-21C49.5,24.8,32,19,20.7,29.3z
		"/>
	<path fill="#100F0D" d="M173,221.8c-1.3,10-3.5,20-8,28.8c-4.7,8.8-11.2,15.8-20.7,19.3c-18.8,7-39.5-8.8-40.8-28.3
		c0-0.8,0-1.8,0-2.8c0.3-8.8,4.3-17.5,8.8-25.5c3.5-6,7.3-11.8,10-17c1.8-3,3.3-6,5-9c4-7.5,8.3-15,11.5-22.8
		c2-4.5,3.8-8.8,5.3-13.5c2.5-8.3,10.8-19,20.7-12.3c4,2.8,2,2.5,2.5,7c0.5,6,0.8,12.3,1.5,18c0,0.8,0,1.5,0.3,2.5
		c0.8,7.8,2,15.3,3,23c0.5,5,1,10,1.3,15C173.7,209.8,173.5,215.8,173,221.8z"/>
	<path fill="#302F2F" d="M172,189.3c-9.8,2-20.5,2-30.2,0.5c-3.8-0.5-9.3-1-14.5-2.5c4-7.5,8.3-15,11.5-22.8c3.5,1,6.8,1.8,8,2
		c7.8,1,15,0.8,22.2-0.3C169.7,174,171,181.5,172,189.3z"/>
	<path fill="#302F2F" d="M173,221.8c-1.3,10-3.5,20-8,28.8c-8,1.5-18.2,0.8-23.2,1c-14.3,0.5-27.3-4.3-38.3-12.8
		c0.3-8.8,4.3-17.5,8.8-25.5c6.5,3.3,14,5,20.3,6.3C145.2,222.3,160,225.8,173,221.8z"/>
	<path fill="#F364B5" d="M99.2,99.5c5.3,3.5,17.8,15.3,24.5,11c9-5.8-6.8-21.5-10.5-26.3c-8.3-11-27.8-24-42-23
		c-8.5,0.8-18,7-13.5,17c3.8,8,15.8,8,23,10.8C88,91.5,93,95.3,99.2,99.5z"/>
	<path fill="#F364B5" d="M117.5,136.5c3.8,0.3,10.5,0.3,12-5c2-8.3-13.5-12.5-18-13.8c-11-3-43.5-19.5-50.3,1
		c-4,12.5,8.8,13.3,16,14.8C90.2,136.3,104.2,135.8,117.5,136.5L117.5,136.5z"/>
	<path fill="#F364B5" d="M130.5,141c-10.8,1.5-77,16.5-65.5,35.8c5.5,9.8,30.8-3.5,38.3-6.3c10.3-3.5,24.3-11,32.5-18.3
		c2.8-2.3,4.3-5.3,5.8-8.5c-2.8-2-8-3.5-11-2V141z"/>
	<path fill="#F03289" d="M308,178.8c0.8,0-0.8,0-0.8,0"/>
	<path fill="#BB1C2B" d="M167.2,67c23.3,6.8,29,35,26.8,58c-2.3,23.5-32.3,29-53.2,25.5c-11-2-23.3-6-31.3-15
		c-9.5-11-9.8-27-4.5-40.3C115.2,70.3,144,60.5,167.2,67z"/>
	<path fill="#FFFFFF" d="M105.7,106.5c2,13.3,18.5,18.3,29.5,12.3c12.5-7,9.3-27.8-2.8-33c-9.3-4.3-19.5-1-24.3,8
		C105.7,98.5,105.2,102.8,105.7,106.5z"/>
	<path fill="#100F0D" d="M134.7,105.5c7.8-6.5,2.8-18.8-7.3-18c-9,0.8-13,12.8-5.3,18C126.2,108,130.7,108.8,134.7,105.5z"/>
	<path fill="#FFFFFF" d="M132.7,97c3.3-0.3,4.3-5,1.3-6.8c-2.3-1.5-5.5-0.3-5.5,2.5C128.7,95,130,97.3,132.7,97z"/>
	<path fill="#FFFFFF" d="M150,100c2,14.3,19.7,19.5,31.7,13.3c13.5-7.5,10-29.8-3-35.8c-10-4.3-21-0.8-26,8.8
		C150,91.3,149.2,96,150,100z"/>
	<path fill="#100F0D" d="M181,99c8.5-7,3.3-20.3-7.8-19.3c-9.8,0.8-14,13.8-5.5,19.3C172,101.8,177,102.5,181,99z"/>
	<path fill="#FFFFFF" d="M179,89.8c3.5-0.3,4.8-5.5,1.5-7.3c-2.5-1.5-6-0.3-6,2.8C174.7,87.8,176.2,90,179,89.8z"/>
	<path fill="#F04156" d="M137.2,127.3c8.3,0.8,14.8-0.5,21.5-6c1,12.5-12.8,15.3-20.3,7.5L137.2,127.3z"/>
	<path fill="#F04156" d="M155.7,68.5c1.5-12.5,1.5-25.3,5.2-37.5c1.3-4.8,3.3-9.3,6.5-13.3c2.5-3.3,5.8-6,9.3-7.8
		c3-1.5,6.8-2.3,10-1c3.5,1.8,5.8,5.8,6.5,9.5c1.3,6.3-3.3,11.8-8.8,14.5c-1,0.5-2.5,0.8-3.8,1c0.3,0-0.3,0-0.3,0
		c-0.3,0-0.3,0-0.5,0s-0.8,0-1,0c-0.8,0-0.8,0-1.5-0.3c-1.3-0.3-2-0.5-2.8-1.5l-0.3-0.3c0.3,0.3,0-0.3,0-0.3
		c-0.3-0.3-0.5-0.5-0.5-0.8c-0.3-0.5-0.5-1.3-0.8-2c-0.3-1.5,0-3.5,0.3-5c0.3-0.8,0.3-1,0.8-1.5c0-0.3,0-0.3,0.3-0.5
		c0.3-0.5-0.3,0.3,0,0s0.8-0.8,0.5-0.5c0.3-0.3,0.5-0.3,0.8-0.5c0,0,0.3-0.3,0,0c0,0,0.3,0,0.3-0.3c0.3,0,0.5,0,0.8,0
		c-0.3,0,0.5,0,0.8,0s0.5,0,0.8,0c-0.5,0,0.3,0,0.5,0s0.5,0.3,0.8,0.3c0,0,0.8,0.3,0.5,0.3c0.5,0.3,0.8,0.3,1.3,0.5
		c0,0.3,0.3,0.3,0.5,0.5c0,0,0.3,0.3,0,0c0,0,0.3,0,0.3,0.3c0.3,0,0.3,0.3,0.5,0.3c0,0.3,0.5,0.8,0.3,0.3c0,0.3,0.3,0.3,0.3,0.5
		s0,0.3,0,0.3c0.3,0.3,0-0.5,0,0l0.3,0.3c-0.3-0.8-0.3,0.5,0-0.3c-0.3,0.5,0,0,0,0.3c-0.3,0.3,0-0.3-0.3,0s0.3,0,0,0.3
		c-0.3,0-0.8,0.3-0.5,0.3c-0.5,0-1,0.3-1.5,0.3c-2.3,0.5-1.3,3.5,0.8,3.3c2.5-0.5,5-2,4.5-4.8c-0.3-2-2.3-3.8-4-4.5
		c-2.3-1.3-4.8-1.8-7.3-1c-2.8,1-4.5,3.8-4.8,6.5c-0.5,3.5-0.3,7.3,2,10c1.8,2.3,4.8,3.3,7.5,3c6.3,0,12.5-4.3,15.3-9.8
		c3.5-7.3,0.8-17-6.3-21c-7.3-4.3-16.3,1.3-21.5,6.5c-6.3,6.5-9.2,15-11,23.5c-2.3,10.5-2.5,21.5-3.8,32c-0.3,1,0.8,1.8,1.5,1.8
		C155,70.3,155.5,69.5,155.7,68.5z"/>
	<path fill="#F04156" d="M142,68.3c-0.3-11.5-3-23-6.8-33.8c-3.3-9-7.3-18-15-24.3C114.7,6,107,3.3,100.7,8c-3.5,2.8-5.5,7-6.5,11.3
		c-1,3.5-1,7.5,0,10.8c2,5,7,7.5,12.3,7c4.8-0.8,10-3.5,11.3-8.3c0.8-3-0.3-5.8-1.5-8.3c-1.5-2.5-4.3-4.8-7.5-4
		c-4.8,1.5-8,9.8-2.3,12c1.5,0.5,3,0.5,4.5,0.3c1,0,1.5-1.3,1.3-2c-0.3-1-1.3-1.3-2-1c-0.5,0-0.8,0-1,0s-0.5,0-0.8,0
		c0,0-0.5,0-0.3,0c-0.3,0-0.5-0.3-0.8-0.3c0.5,0-0.8-0.5-0.3-0.3c0,0-0.3,0-0.3-0.3c-0.3-0.3,0.3,0.3,0,0l-0.3-0.3
		c-0.3-0.3,0.3,0.3,0,0c0-0.3-0.3-0.8,0-0.5c0-0.3,0-0.5,0-0.8c0-0.5-0.3,0.5,0,0c0-0.3,0-0.3,0-0.5s0.3-0.5,0.3-0.8
		c0,0.5,0.3-0.3,0.3-0.3c0.3-0.5,0.3-0.8,0.5-1c-0.3,0.3,0.3-0.3,0.3-0.3c0.3-0.3,0.5-0.5,0.8-0.5c-0.3,0.3,0.3-0.3,0.5-0.3
		c0-0.3,0-0.3,0.3-0.3c-0.5,0.3,0,0,0.3,0h0.3c-0.5,0,0,0,0,0c0.3-0.3,0.3,0,0.5,0c0.5,0-0.3-0.3,0,0c0.3,0,0.8,0.3,0.5,0
		c0.3,0,0.3,0.3,0.5,0.3c0,0,0.5,0.3,0.3,0.3c0.5,0.5,1,1,1.5,1.5c0.3,0.5,0.5,1,0.8,1.5c0,0,0,0.3,0.3,0.5c0,0.3,0,0,0,0.3
		c0.3,0.5,0.5,1,0.5,1.8c0-0.5,0,0.3,0,0.5s0,0.5,0,0.8c0,0.5,0-0.3,0,0.3v0.3c-0.3,0.3-0.3,0.5-0.3,0.8c0,0,0,0.3-0.3,0.3
		c0.3-0.3,0,0,0,0.3s-0.3,0.5-0.3,0.8c-0.5,0.5-0.3,0.3-1,1c0,0-0.3,0.3-0.5,0.5c0,0-0.8,0.5-0.5,0.5c-0.3,0.3-0.8,0.5-1.3,0.8
		c-0.3,0.3-0.5,0.3-0.8,0.5h-0.3c-0.3,0.3,0,0-0.5,0.3s-1,0.3-1.5,0.5c-0.3,0-0.5,0-0.8,0c-0.3,0.3-0.3,0.3-0.5,0.3h-0.3
		c0.3,0,0.3,0,0,0c-0.5,0-1,0-1.5,0s-0.8,0-1,0c-0.5,0,0,0-0.5,0c-0.8-0.3-1.3-0.3-1.8-0.5c0,0-0.3,0-0.3-0.3c0.3,0.3,0,0-0.3,0
		s-0.5-0.3-0.8-0.5c-0.8-0.3-1.5-1.3-2-2c-0.8-1-1-2-1.3-3.3c-0.3-1.5-0.3-3.3,0-4.8c0.5-4.3,2.3-8.8,5.3-11.5
		c2.3-2.3,5.3-2.8,8-2.3c3.3,0.8,6.5,2.8,9,5c3,2.5,5.8,5.8,7.5,9.3c3.8,7,6.3,14.8,8.5,22.3c2,7.5,3.3,15.3,3.5,23
		C138.7,70.5,142,70.5,142,68.3z"/>
	<path fill="#F03289" d="M217,265c5-4,4.8-13,2.8-18.5c-3.8-10.3-20-15.5-26.5-5C186.7,252.3,205,274.8,217,265z"/>
	<path fill="#F03289" d="M58.7,248.3c4.5,2.8,11.3,0,15-3c6.8-5.5,6.5-19.3-3.5-21.3C60.5,221.8,48.2,241.8,58.7,248.3z"/>
	<path fill="#F364B5" d="M284.7,98c12.8,0,21-12,16.8-23.8c-4.3-12-23.3-10.3-30.5-1.8C262.2,82.8,272.7,98.3,284.7,98z"/>
	<path fill="#F364B5" d="M41,65.3c9.8,0,16.3-9.3,13-18.3c-3.5-9.5-18-8.3-23.8-1.5C23.5,53.5,31.7,65.3,41,65.3z"/>
	<path fill="#F364B5" d="M265,156.3c11,0,18-10.5,14.5-20.5c-3.8-10.3-20-9-26.5-1.5C245.5,143,254.5,156.5,265,156.3z"/>
	<path fill="#F364B5" d="M41,136.8c8,0,13-7.8,10.5-14.8c-2.8-7.5-14.5-6.5-19-1.3C27,127,33.5,136.8,41,136.8z"/>
	<path fill="#F364B5" d="M239.7,219.3c9.3,0,15-8.8,12-17c-3-8.8-16.8-7.5-22-1.3C223.5,208.3,231,219.3,239.7,219.3z"/>
	<path fill="#F364B5" d="M36.2,201c9,0,15-8.8,12-17c-3-8.8-16.8-7.8-22-1.5C20,190,27.5,201,36.2,201z"/>
</g>
</svg>
