<?xml version="1.0" encoding="utf-8"?>
<!-- Generator: Adobe Illustrator 16.0.0, SVG Export Plug-In . SVG Version: 6.00 Build 0)  -->
<!DOCTYPE svg PUBLIC "-//W3C//DTD SVG 1.1//EN" "http://www.w3.org/Graphics/SVG/1.1/DTD/svg11.dtd">
<svg version="1.1" id="Layer_1" xmlns="http://www.w3.org/2000/svg" xmlns:xlink="http://www.w3.org/1999/xlink" x="0px" y="0px"
	 width="480px" height="360px" viewBox="0 0 480 360" enable-background="new 0 0 480 360" xml:space="preserve">
<g>
	<polygon fill="#90CDF0" points="0,360 480,360 480,0 0,0 0,360 	"/>
	<polygon fill="#F9FACD" points="0,257 480,257 480,0 0,0 0,257 	"/>
	<polygon fill="#D3D5B2" points="480,273.5 0,273.5 0,256.5 480,256.5 480,273.5 	"/>
	<polygon fill="#D3D5B2" points="480,16.75 0,16.75 0,0 480,0 480,16.75 	"/>
	<path fill="#F574B5" d="M418,311.5c0,9.25-80.25,16.75-179.25,16.75S59.5,320.75,59.5,311.5c0-9,80.25-16.5,179.25-16.5
		S418,302.5,418,311.5"/>
	<path fill="#F466A0" d="M238.75,313.75c-76.5,0-138.5-3.25-138.5-7c0-1.25,8.5-2.75,23.25-3.75c1.5,0.75,3.25,1.25,5.25,1.25
		c230.25,0,230.25,0,230.25,0c1.25,0,2.5-0.25,3.5-0.5c9.5,1,14.75,2,14.75,3C377.25,310.5,315.25,313.75,238.75,313.75"/>
	<path fill="#F466A0" d="M238.75,324.5c-36.75,0-66.5-1.25-66.5-3.25c0-1.75,29.75-3.25,66.5-3.25s66.75,1.5,66.75,3.25
		C305.5,323.25,275.5,324.5,238.75,324.5"/>
	<path fill="#7BB1D6" d="M425.25,289.5c-23.5,0-42.5-1-42.5-2.25s19-2.25,42.5-2.25s42.5,1,42.5,2.25S448.75,289.5,425.25,289.5"/>
	<path fill="#7BB1D6" d="M58.5,289.5c-23.5,0-42.5-1-42.5-2.25S35,285,58.5,285s42.25,1,42.25,2.25S82,289.5,58.5,289.5"/>
	<path fill="#B5693B" d="M348.75,250.75c0,3.75-4.25,7-9.5,7c-190.5,0-190.5,0-190.5,0c-5.25,0-9.5-3.25-9.5-7c0-60.5,0-60.5,0-60.5
		c0-4,4.25-7,9.5-7c190.5,0,190.5,0,190.5,0c5.25,0,9.5,3,9.5,7C348.75,250.75,348.75,250.75,348.75,250.75"/>
	<path fill="#F68C58" d="M339.25,183.25c-190.5,0-190.5,0-190.5,0c-5.25,0-9.5,3-9.5,7c0,5,0,5,0,5c0-4,4.25-7.25,9.5-7.25
		c190.5,0,190.5,0,190.5,0c5.25,0,9.5,3.25,9.5,7.25c0-5,0-5,0-5C348.75,186.25,344.5,183.25,339.25,183.25"/>
	<path fill="#FFFFFF" d="M368.75,256.5c0,3.25-3.75,6-8.25,6c-233,0-233,0-233,0c-4.5,0-8.25-2.75-8.25-6
		C138,236.25,138,236.25,138,236.25c0-3.5,3.75-6.25,8.25-6.25c196.5,0,196.5,0,196.5,0c4.75,0,8.25,2.75,8.25,6.25
		C368.75,256.5,368.75,256.5,368.75,256.5"/>
	<path fill="#ACDE74" d="M368.75,256.5C351,236.25,351,236.25,351,236.25c0-0.25,0-0.25,0-0.25c-213,0-213,0-213,0s0,0,0,0.25
		c-18.75,20.25-18.75,20.25-18.75,20.25c0,3.25,3.75,6,8.25,6c233,0,233,0,233,0C365,262.5,368.75,259.75,368.75,256.5"/>
	<path fill="#B5693B" d="M368.75,297c0,4-4.25,7.25-9.75,7.25c-230.25,0-230.25,0-230.25,0c-5.25,0-9.5-3.25-9.5-7.25
		c0-40.75,0-40.75,0-40.75c0-4,4.25-7,9.5-7c230.25,0,230.25,0,230.25,0c5.5,0,9.75,3,9.75,7C368.75,297,368.75,297,368.75,297"/>
	<path fill="#F68C58" d="M359,249.25c-230.25,0-230.25,0-230.25,0c-5.25,0-9.5,3-9.5,7c0,3,0,3,0,3c0-4,4.25-7.25,9.5-7.25
		C359,252,359,252,359,252c5.5,0,9.75,3.25,9.75,7.25c0-3,0-3,0-3C368.75,252.25,364.5,249.25,359,249.25"/>
	<path fill="#9A5934" d="M359,304.25c-230.25,0-230.25,0-230.25,0c-5.25,0-9.5-3.25-9.5-7.25c0-7.75,0-7.75,0-7.75
		c0,4,4.25,7.25,9.5,7.25c48.5,0,48.5,0,48.5,0c2,1,4,1.5,6.25,1.5c110.5,0,110.5,0,110.5,0c2.25,0,4.5-0.5,6.25-1.5
		c58.75,0,58.75,0,58.75,0c5.5,0,9.75-3.25,9.75-7.25c0,7.75,0,7.75,0,7.75C368.75,301,364.5,304.25,359,304.25"/>
	<path fill="#723929" d="M145.75,306c0,1.25-1.25,2-2.75,2c-11.5,0-11.5,0-11.5,0c-1.5,0-2.75-0.75-2.75-2c0-1,1.25-1.75,2.75-1.75
		c11.5,0,11.5,0,11.5,0C144.5,304.25,145.75,305,145.75,306"/>
	<path fill="#723929" d="M357.25,306c0,1.25-1.25,2-2.75,2c-11.5,0-11.5,0-11.5,0c-1.5,0-2.75-0.75-2.75-2c0-1,1.25-1.75,2.75-1.75
		c11.5,0,11.5,0,11.5,0C356,304.25,357.25,305,357.25,306"/>
	<path fill="#8BD5A4" d="M228.5,228.75c0,4.5-5,8.25-11,8.25c-41.75,0-41.75,0-41.75,0c-6,0-11-3.75-11-8.25s5-8.25,11-8.25
		c41.75,0,41.75,0,41.75,0C223.5,220.5,228.5,224.25,228.5,228.75"/>
	<path fill="#75CE98" d="M217.5,237c-41.75,0-41.75,0-41.75,0c-6,0-11-3.75-11-8.25c0-0.5,0-1.25,0.25-1.75
		c1,3.75,5.5,6.75,10.75,6.75c41.75,0,41.75,0,41.75,0c5.25,0,9.75-3,10.75-6.75c0,0.5,0.25,1.25,0.25,1.75
		C228.5,233.25,223.5,237,217.5,237"/>
	<path fill="#8BD5A4" d="M323.5,228.75c0,4.5-5,8.25-11,8.25c-41.75,0-41.75,0-41.75,0c-6,0-11-3.75-11-8.25s5-8.25,11-8.25
		c41.75,0,41.75,0,41.75,0C318.5,220.5,323.5,224.25,323.5,228.75"/>
	<path fill="#75CE98" d="M312.5,237c-41.75,0-41.75,0-41.75,0c-6,0-11-3.75-11-8.25c0-0.5,0.25-1.25,0.25-1.75
		c1,3.75,5.5,6.75,10.75,6.75c41.75,0,41.75,0,41.75,0c5.25,0,9.75-3,10.75-6.75c0.25,0.5,0.25,1.25,0.25,1.75
		C323.5,233.25,318.5,237,312.5,237"/>
	<polygon fill="#E3EDF1" points="103,163.5 384.25,163.5 384.25,65.5 103,65.5 103,163.5 	"/>
	<polygon fill="#FFFFFF" points="288,65.5 157.5,163.5 170,163.5 300.5,65.5 288,65.5 	"/>
	<polygon fill="#FFFFFF" points="146.5,163.5 149.25,163.5 280,65.5 277,65.5 146.5,163.5 	"/>
	<polygon fill="#FFFFFF" points="310.5,65.5 179.75,163.5 233.75,163.5 364.5,65.5 310.5,65.5 	"/>
	<polygon fill="#B9B18C" points="101.25,69.75 387.25,69.75 387.25,63 101.25,63 101.25,69.75 	"/>
	<path fill="#B9B18C" d="M391.5,164c0,2.25-2.25,4.25-5.25,4.25c-281.5,0-281.5,0-281.5,0c-3,0-5.5-2-5.5-4.25c0-2,2.5-4,5.5-4
		c281.5,0,281.5,0,281.5,0C389.25,160,391.5,162,391.5,164"/>
	<path fill="#B9B18C" d="M391.5,164c0,2.25-2.25,4.25-5.25,4.25c-281.5,0-281.5,0-281.5,0c-3,0-5.5-2-5.5-4.25c0-2,2.5-4,5.5-4
		c281.5,0,281.5,0,281.5,0C389.25,160,391.5,162,391.5,164"/>
	<path fill="#D3D8AE" d="M391.5,164L391.5,164L391.5,164 M99.25,164L99.25,164L99.25,164 M391.5,164L391.5,164L391.5,164 M99.25,164
		L99.25,164L99.25,164 M391.5,164L391.5,164L391.5,164 M99.25,164L99.25,164L99.25,164 M391.5,164L391.5,164L391.5,164 M99.25,164
		L99.25,164L99.25,164 M99.25,164L99.25,164L99.25,164 M391.5,164L391.5,164L391.5,164"/>
	<path fill="#9D977A" d="M386.25,168.25c-281.5,0-281.5,0-281.5,0c-3,0-5.5-2-5.5-4.25l0,0l0,0l0,0l0,0l0,0l0,0l0,0l0,0l0,0l0,0
		c0-0.25,0.25-0.75,0.25-1c0.75,1.5,2.75,2.75,5.25,2.75c281.5,0,281.5,0,281.5,0c2.25,0,4.5-1.25,5-2.75
		c0.25,0.25,0.25,0.75,0.25,1l0,0l0,0l0,0l0,0l0,0l0,0l0,0l0,0l0,0l0,0C391.5,166.25,389.25,168.25,386.25,168.25"/>
	<path fill="#B9B18C" d="M404.25,53.5c0,0.75-0.75,1.5-2,1.5C87.5,55,87.5,55,87.5,55c-1.25,0-2-0.75-2-1.5c0-1,0.75-1.5,2-1.5
		c314.75,0,314.75,0,314.75,0C403.5,52,404.25,52.5,404.25,53.5"/>
	<path fill="#B9B18C" d="M92,56.5c0,0.75-0.75,1.5-1.75,1.5s-1.75-0.75-1.75-1.5c0-6.25,0-6.25,0-6.25c0-0.75,0.75-1.25,1.75-1.25
		S92,49.5,92,50.25C92,56.5,92,56.5,92,56.5"/>
	<path fill="#B9B18C" d="M79.75,53.5c0-2,2.25-3.75,5-3.75c2.5,0,4.75,1.75,4.75,3.75s-2.25,3.75-4.75,3.75
		C82,57.25,79.75,55.5,79.75,53.5"/>
	<path fill="#9D977A" d="M88.5,55.75L88.5,55.75c0.75-0.5,1-1.5,1-2.25l0,0C89.5,54.25,89.25,55.25,88.5,55.75 M89.5,53.5L89.5,53.5
		L89.5,53.5"/>
	<path fill="#D3D8AE" d="M79.75,53.5L79.75,53.5L79.75,53.5 M79.75,53.5L79.75,53.5L79.75,53.5"/>
	<polyline fill="#9D977A" points="89.5,53.5 89.5,53.5 89.5,53.5 	"/>
	<path fill="#9D977A" d="M84.75,57.25c-2.75,0-5-1.75-5-3.75l0,0l0,0l0,0l0,0c0-0.5,0-0.75,0.25-1.25c0.5,1.5,2.5,2.75,4.75,2.75
		c2,0,4-1.25,4.5-2.75c0.25,0.5,0.25,0.75,0.25,1.25l0,0l0,0l0,0l0,0c0,0.75-0.25,1.75-1,2.25C87.5,56.75,86.25,57.25,84.75,57.25"
		/>
	<path fill="#DCD1A8" d="M82.25,51.75c0-0.5,1-1,2.5-1c1.25,0,2.25,0.5,2.25,1s-1,0.75-2.25,0.75
		C83.25,52.5,82.25,52.25,82.25,51.75"/>
	<path fill="#B9B18C" d="M402,56.5c0,0.75,0.75,1.5,1.75,1.5s1.75-0.75,1.75-1.5c0-6.25,0-6.25,0-6.25c0-0.75-0.75-1.25-1.75-1.25
		S402,49.5,402,50.25C402,56.5,402,56.5,402,56.5"/>
	<path fill="#B9B18C" d="M414.25,53.5c0-2-2.25-3.75-5-3.75s-4.75,1.75-4.75,3.75s2,3.75,4.75,3.75S414.25,55.5,414.25,53.5"/>
	<path fill="#D3D8AE" d="M414.25,53.5L414.25,53.5L414.25,53.5 M414.25,53.5L414.25,53.5L414.25,53.5"/>
	<path fill="#9D977A" d="M405.5,55.75c-0.75-0.5-1-1.5-1-2.25l0,0C404.5,54.25,404.75,55.25,405.5,55.75L405.5,55.75 M404.5,53.5
		L404.5,53.5L404.5,53.5 M404.5,53.5L404.5,53.5L404.5,53.5"/>
	<path fill="#9D977A" d="M409.25,57.25c-1.5,0-2.75-0.5-3.75-1.5c-0.75-0.5-1-1.5-1-2.25l0,0l0,0l0,0l0,0c0-0.5,0-0.75,0.25-1.25
		c0.5,1.5,2.5,2.75,4.5,2.75c2.25,0,4.25-1.25,4.75-2.75c0.25,0.5,0.25,0.75,0.25,1.25l0,0l0,0l0,0l0,0
		C414.25,55.5,412,57.25,409.25,57.25"/>
	<path fill="#DCD1A8" d="M411.75,51.75c0-0.5-1-1-2.5-1c-1.25,0-2.25,0.5-2.25,1s1,0.75,2.25,0.75
		C410.75,52.5,411.75,52.25,411.75,51.75"/>
	<path fill="#90CDF0" d="M291.75,57.25c0,0,28.5,62.5,99.75,62.5c0-62.5,0-62.5,0-62.5C291.75,57.25,291.75,57.25,291.75,57.25"/>
	<path fill="#D3D8AE" d="M391.5,119.75L391.5,119.75L391.5,119.75c0-9,0-9,0-9l0,0C391.5,119.75,391.5,119.75,391.5,119.75
		 M391.5,119.75c0,0,0,0-0.25,0C391.5,119.75,391.5,119.75,391.5,119.75 M391.25,119.75L391.25,119.75L391.25,119.75 M391.25,119.75
		L391.25,119.75L391.25,119.75 M391,119.75L391,119.75L391,119.75 M391,119.75L391,119.75L391,119.75 M391,119.75c0,0,0,0-0.25,0
		C391,119.75,391,119.75,391,119.75 M390.75,119.75L390.75,119.75L390.75,119.75 M390.75,119.75L390.75,119.75L390.75,119.75
		 M390.5,119.75L390.5,119.75L390.5,119.75 M390.5,119.75L390.5,119.75L390.5,119.75 M390.5,119.75c-0.25,0-0.25,0-0.25,0
		S390.25,119.75,390.5,119.75 M390.25,119.75L390.25,119.75L390.25,119.75 M390.25,119.75c0,0,0,0-0.25,0
		C390.25,119.75,390.25,119.75,390.25,119.75 M390,119.75L390,119.75L390,119.75 M390,119.75L390,119.75L390,119.75 M390,119.75
		c-0.25,0-0.25,0-0.25,0S389.75,119.75,390,119.75 M389.75,119.75L389.75,119.75L389.75,119.75 M389.75,119.75h-0.25H389.75
		 M389.5,119.75L389.5,119.75L389.5,119.75 M389.5,119.75L389.5,119.75L389.5,119.75 M389.25,119.75L389.25,119.75L389.25,119.75
		 M389.25,119.75L389.25,119.75L389.25,119.75 M389.25,119.75H389H389.25 M389,119.75L389,119.75L389,119.75 M389,119.75L389,119.75
		L389,119.75 M388.75,119.75L388.75,119.75L388.75,119.75 M388.75,119.75c0,0,0,0-0.25,0C388.75,119.75,388.75,119.75,388.75,119.75
		 M388.5,119.75L388.5,119.75L388.5,119.75 M388.5,119.75c0,0,0,0-0.25,0C388.5,119.75,388.5,119.75,388.5,119.75 M388.25,119.75
		L388.25,119.75L388.25,119.75 M388.25,119.75L388.25,119.75L388.25,119.75 M388.25,119.75c-0.25,0-0.25,0-0.25,0
		S388,119.75,388.25,119.75 M388,119.75L388,119.75L388,119.75 M388,119.75c0,0,0,0-0.25,0C388,119.75,388,119.75,388,119.75
		 M387.75,119.75c0,0,0,0-0.25,0C387.75,119.75,387.75,119.75,387.75,119.75 M387.5,119.75L387.5,119.75L387.5,119.75 M387.5,119.75
		h-0.25H387.5 M387.25,119.75v-0.25C387.25,119.75,387.25,119.75,387.25,119.75 M387.25,119.5L387.25,119.5L387.25,119.5 M387,119.5
		L387,119.5L387,119.5 M387,119.5L387,119.5L387,119.5 M387,119.5c-0.25,0-0.25,0-0.5,0C386.75,119.5,386.75,119.5,387,119.5
		 M386.5,119.5L386.5,119.5L386.5,119.5 M386.5,119.5L386.5,119.5L386.5,119.5 M386.5,119.5h-0.25H386.5 M386.25,119.5L386.25,119.5
		L386.25,119.5 M386.25,119.5c0,0,0,0-0.25,0C386.25,119.5,386.25,119.5,386.25,119.5 M386,119.5L386,119.5L386,119.5 M386,119.5
		c-0.25,0-0.25,0-0.5,0C385.75,119.5,385.75,119.5,386,119.5 M385.5,119.5L385.5,119.5L385.5,119.5 M385.5,119.5
		c-0.25,0-0.25,0-0.25,0S385.25,119.5,385.5,119.5 M385.25,119.5L385.25,119.5L385.25,119.5 M385.25,119.5c0,0,0,0-0.25,0
		C385.25,119.5,385.25,119.5,385.25,119.5 M385,119.5c-0.25,0-0.25,0-0.5,0C384.75,119.5,384.75,119.5,385,119.5 M384.5,119.5
		c0,0,0,0-0.25,0l0,0C384.5,119.5,384.5,119.5,384.5,119.5 M295,63L295,63c-0.75-1-1.25-2.25-1.75-3C293.75,60.75,294.25,62,295,63"
		/>
	<path fill="#C1CBCD" d="M384.25,119.5c-26-1.5-46-11.75-60.5-23.25l0,0C338.25,107.75,358.25,118,384.25,119.5L384.25,119.5
		 M301.25,72.5c-0.75-1-1.5-1.75-2-2.75l0,0C299.75,70.75,300.5,71.5,301.25,72.5L301.25,72.5"/>
	<path fill="#D8DAD7" d="M323.75,96.25c-10-8-17.25-16.5-22.5-23.75l0,0C306.5,79.75,313.75,88.25,323.75,96.25L323.75,96.25"/>
	<path fill="#9D977A" d="M299.25,69.75L299.25,69.75C297.5,67.25,296,65,295,63l0,0C296,65,297.5,67.25,299.25,69.75"/>
	<path fill="#7BB1D6" d="M391.5,119.75L391.5,119.75L391.5,119.75c0,0,0,0-0.25,0l0,0l0,0l0,0l0,0c0,0,0,0-0.25,0l0,0l0,0l0,0l0,0
		c0,0,0,0-0.25,0l0,0l0,0l0,0l0,0c0,0,0,0-0.25,0l0,0l0,0l0,0l0,0c-0.25,0-0.25,0-0.25,0l0,0l0,0l0,0c0,0,0,0-0.25,0l0,0l0,0l0,0
		l0,0l0,0c-0.25,0-0.25,0-0.25,0l0,0l0,0l0,0h-0.25l0,0l0,0l0,0l0,0h-0.25l0,0l0,0l0,0l0,0H389l0,0l0,0l0,0l0,0h-0.25l0,0l0,0
		c0,0,0,0-0.25,0l0,0l0,0l0,0c0,0,0,0-0.25,0l0,0l0,0l0,0l0,0l0,0c-0.25,0-0.25,0-0.25,0l0,0l0,0l0,0c0,0,0,0-0.25,0l0,0
		c0,0,0,0-0.25,0l0,0l0,0l0,0h-0.25l0,0c0,0,0,0,0-0.25l0,0l0,0H387l0,0l0,0l0,0l0,0c-0.25,0-0.25,0-0.5,0l0,0l0,0l0,0l0,0l0,0
		h-0.25l0,0l0,0l0,0c0,0,0,0-0.25,0l0,0l0,0l0,0c-0.25,0-0.25,0-0.5,0l0,0l0,0l0,0c-0.25,0-0.25,0-0.25,0l0,0l0,0l0,0
		c0,0,0,0-0.25,0l0,0c-0.25,0-0.25,0-0.5,0l0,0c0,0,0,0-0.25,0c-26-1.5-46-11.75-60.5-23.25c-10-8-17.25-16.5-22.5-23.75
		c-0.75-1-1.5-1.75-2-2.75C297.5,67.25,296,65,295,63c-0.75-1-1.25-2.25-1.75-3c-0.25-0.5-0.5-0.75-0.75-1.25
		c11.25,15.5,37,43.5,81.5,50.5c-15.25-13.5-46-40.75-47-43.5c0,0,0,0,0.25,0c2,0,38.25,31.5,52.75,44.25c0.5,0,1.25,0,1.75,0.25
		C376,98,363.5,70.75,364,67.5c0-0.25,0.25-0.25,0.25-0.25c2,0,16.5,31.75,22,43.25c0.25,0,0.75,0,1,0
		c-1.25-10.25-4.25-32.75-3.5-34.75c0-0.25,0.25-0.25,0.25-0.25c0.75,0,3.5,23.75,4.75,35.25c1,0,2,0,2.75,0
		C391.5,119.75,391.5,119.75,391.5,119.75"/>
	<path fill="#90CDF0" d="M382.25,119.25c0,0-14.5,35.5-8,62.75c17.25,0,17.25,0,17.25,0c0-62.25,0-62.25,0-62.25
		C382.25,119.25,382.25,119.25,382.25,119.25"/>
	<path fill="#55A1D3" d="M393.75,119c0,1.25-1.5,2.25-3.25,2.25c-9.25,0-9.25,0-9.25,0c-1.75,0-3-1-3-2.25s1.25-2.25,3-2.25
		c9.25,0,9.25,0,9.25,0C392.25,116.75,393.75,117.75,393.75,119"/>
	<path fill="#55A1D3" d="M382.5,119.25c0,0,4.5,9.75-0.5,21c2.25,0,2.25,0,2.25,0s4-12.75,0-21
		C382.5,119.25,382.5,119.25,382.5,119.25"/>
	<path fill="#55A1D3" d="M383.25,139c0,0-3.5,1-3.5,5.25c6.25,0,6.25,0,6.25,0S387.25,140.25,383.25,139"/>
	<path fill="#55A1D3" d="M388.75,119.25c0,0,4.25,9.75-0.5,21c2.25,0,2.25,0,2.25,0s4-12.75,0-21
		C388.75,119.25,388.75,119.25,388.75,119.25"/>
	<path fill="#55A1D3" d="M389.5,139c0,0-3.5,1-3.5,5.25c6.25,0,6.25,0,6.25,0S393.5,140.25,389.5,139"/>
	<path fill="#55A1D3" d="M296,57.25c0,0.75-1,1.5-2,1.5c-1.25,0-2.25-0.75-2.25-1.5c0-4.25,0-4.25,0-4.25c0-1,1-1.75,2.25-1.75
		c1,0,2,0.75,2,1.75C296,57.25,296,57.25,296,57.25"/>
	<path fill="#55A1D3" d="M315,57.25c0,0.75-1,1.5-2,1.5c-1.25,0-2.25-0.75-2.25-1.5c0-4.25,0-4.25,0-4.25c0-1,1-1.75,2.25-1.75
		c1,0,2,0.75,2,1.75C315,57.25,315,57.25,315,57.25"/>
	<path fill="#55A1D3" d="M334,57.25c0,0.75-0.75,1.5-2,1.5c-1,0-2-0.75-2-1.5c0-4.25,0-4.25,0-4.25c0-1,1-1.75,2-1.75
		c1.25,0,2,0.75,2,1.75C334,57.25,334,57.25,334,57.25"/>
	<path fill="#55A1D3" d="M353.25,57.25c0,0.75-1,1.5-2.25,1.5c-1,0-2-0.75-2-1.5c0-4.25,0-4.25,0-4.25c0-1,1-1.75,2-1.75
		c1.25,0,2.25,0.75,2.25,1.75C353.25,57.25,353.25,57.25,353.25,57.25"/>
	<path fill="#55A1D3" d="M372.25,57.25c0,0.75-1,1.5-2,1.5c-1.25,0-2.25-0.75-2.25-1.5c0-4.25,0-4.25,0-4.25c0-1,1-1.75,2.25-1.75
		c1,0,2,0.75,2,1.75C372.25,57.25,372.25,57.25,372.25,57.25"/>
	<path fill="#55A1D3" d="M391.25,57.25c0,0.75-0.75,1.5-2,1.5s-2-0.75-2-1.5c0-4.25,0-4.25,0-4.25c0-1,0.75-1.75,2-1.75
		s2,0.75,2,1.75C391.25,57.25,391.25,57.25,391.25,57.25"/>
	<path fill="#90CDF0" d="M198.75,57.25c0,0-28.5,62.5-99.75,62.5c0-62.5,0-62.5,0-62.5C198.75,57.25,198.75,57.25,198.75,57.25"/>
	<path fill="#D3D8AE" d="M99,119.75L99,119.75L99,119.75L99,119.75 M99,119.75L99,119.75L99,119.75 M99.25,119.75L99.25,119.75
		L99.25,119.75 M99.25,119.75L99.25,119.75L99.25,119.75 M99.25,119.75h0.25H99.25 M99.5,119.75L99.5,119.75L99.5,119.75
		 M99.5,119.75L99.5,119.75L99.5,119.75 M99.75,119.75L99.75,119.75L99.75,119.75 M99.75,119.75L99.75,119.75L99.75,119.75
		 M99.75,119.75c0.25,0,0.25,0,0.25,0S100,119.75,99.75,119.75 M100,119.75L100,119.75L100,119.75 M100,119.75h0.25H100
		 M100.25,119.75L100.25,119.75L100.25,119.75 M100.25,119.75L100.25,119.75L100.25,119.75 M100.5,119.75L100.5,119.75L100.5,119.75
		 M100.5,119.75L100.5,119.75L100.5,119.75 M100.5,119.75h0.25H100.5 M100.75,119.75L100.75,119.75L100.75,119.75 M100.75,119.75
		c0,0,0,0,0.25,0C100.75,119.75,100.75,119.75,100.75,119.75 M101,119.75L101,119.75L101,119.75 M101,119.75L101,119.75L101,119.75
		 M101,119.75c0.25,0,0.25,0,0.25,0S101.25,119.75,101,119.75 M101.25,119.75L101.25,119.75L101.25,119.75 M101.25,119.75
		c0,0,0,0,0.25,0C101.25,119.75,101.25,119.75,101.25,119.75 M101.5,119.75L101.5,119.75L101.5,119.75 M101.5,119.75L101.5,119.75
		L101.5,119.75 M101.5,119.75c0.25,0,0.25,0,0.25,0S101.75,119.75,101.5,119.75 M101.75,119.75c0,0,0,0,0.25,0
		C101.75,119.75,101.75,119.75,101.75,119.75 M102,119.75L102,119.75L102,119.75 M102,119.75L102,119.75L102,119.75 M102.25,119.75
		L102.25,119.75L102.25,119.75 M102.25,119.75L102.25,119.75L102.25,119.75 M102.25,119.75h0.25H102.25 M102.5,119.75L102.5,119.75
		L102.5,119.75 M102.5,119.75L102.5,119.75L102.5,119.75 M102.75,119.75c0,0,0,0,0.25,0C102.75,119.75,102.75,119.75,102.75,119.75
		 M103,119.75L103,119.75L103,119.75"/>
	<path fill="#C1CBCD" d="M103,119.75c0,0,0,0,0.25,0C103,119.75,103,119.75,103,119.75 M103.25,119.75v-0.25V119.75 M103.25,119.5
		L103.25,119.5L103.25,119.5 M103.25,119.5c0.25,0,0.25,0,0.25,0S103.5,119.5,103.25,119.5 M103.5,119.5L103.5,119.5L103.5,119.5
		 M103.5,119.5c0.25,0,0.25,0,0.5,0C103.75,119.5,103.75,119.5,103.5,119.5 M104,119.5L104,119.5L104,119.5 M104,119.5
		c0,0,0,0,0.25,0H104 M104.25,119.5L104.25,119.5L104.25,119.5 M104.25,119.5L104.25,119.5L104.25,119.5 M104.25,119.5
		c0.25,0,0.5,0,0.75,0C104.75,119.5,104.5,119.5,104.25,119.5 M105,119.5h0.25H105 M105.25,119.5c46.75-2.5,74-32.25,86-49.75l0,0
		C179.25,87.25,152,117,105.25,119.5"/>
	<path fill="#9D977A" d="M191.25,69.75L191.25,69.75c1-1.5,2-3,3-4.5C193.25,66.75,192.25,68.25,191.25,69.75 M194.25,65.25
		L194.25,65.25L194.25,65.25"/>
	<path fill="#7BB1D6" d="M99,119.75c0-9,0-9,0-9c0.75,0,1.75,0,2.5,0c1.5-11.5,4.25-35.25,5-35.25c0,0,0,0,0.25,0.25
		c0.75,2-2.25,24.5-3.5,34.75c0.25,0,0.75,0,1,0c5.5-11.5,20-43.25,22-43.25c0,0,0,0,0.25,0.25c0.5,3.25-12,30.5-17.75,42.75
		c0.5-0.25,1-0.25,1.75-0.25c14.5-12.75,50.75-44.25,52.75-44.25c0.25,0,0.25,0,0.25,0c-1,2.75-31.75,30-47,43.5
		c44.5-7,70.25-35,81.25-50.5c-0.5,1.5-1.75,3.75-3.5,6.5l0,0l0,0c-1,1.5-2,3-3,4.5c-12,17.5-39.25,47.25-86,49.75l0,0H105l0,0
		c-0.25,0-0.5,0-0.75,0l0,0l0,0l0,0l0,0l0,0c-0.25,0-0.25,0-0.25,0l0,0l0,0l0,0c-0.25,0-0.25,0-0.5,0l0,0l0,0l0,0c0,0,0,0-0.25,0
		l0,0l0,0l0,0v0.25l0,0c-0.25,0-0.25,0-0.25,0l0,0l0,0l0,0c-0.25,0-0.25,0-0.25,0s0,0-0.25,0l0,0l0,0l0,0l0,0h-0.25l0,0l0,0l0,0l0,0
		H102l0,0l0,0l0,0l0,0c-0.25,0-0.25,0-0.25,0l0,0c0,0,0,0-0.25,0l0,0l0,0l0,0l0,0l0,0c-0.25,0-0.25,0-0.25,0l0,0l0,0l0,0
		c0,0,0,0-0.25,0l0,0l0,0l0,0l0,0l0,0c-0.25,0-0.25,0-0.25,0l0,0l0,0l0,0h-0.25l0,0l0,0l0,0l0,0c-0.25,0-0.25,0-0.25,0l0,0l0,0l0,0
		l0,0H100l0,0l0,0l0,0c0,0,0,0-0.25,0l0,0l0,0l0,0l0,0c0,0,0,0-0.25,0l0,0l0,0l0,0l0,0h-0.25l0,0l0,0l0,0l0,0
		C99.25,119.75,99.25,119.75,99,119.75L99,119.75L99,119.75L99,119.75"/>
	<path fill="#90CDF0" d="M108.25,119.25c0,0,14.5,35.5,8,62.75C99,182,99,182,99,182c0-62.25,0-62.25,0-62.25
		C108.25,119.25,108.25,119.25,108.25,119.25"/>
	<path fill="#55A1D3" d="M96.75,119c0,1.25,1.5,2.25,3,2.25c9.5,0,9.5,0,9.5,0c1.75,0,3-1,3-2.25s-1.25-2.25-3-2.25
		c-9.5,0-9.5,0-9.5,0C98.25,116.75,96.75,117.75,96.75,119"/>
	<path fill="#55A1D3" d="M107.75,119.25c0,0-4.25,9.75,0.75,21c-2.5,0-2.5,0-2.5,0s-3.75-12.75,0-21
		C107.75,119.25,107.75,119.25,107.75,119.25"/>
	<path fill="#55A1D3" d="M107.25,139c0,0,3.5,1,3.5,5.25c-6.5,0-6.5,0-6.5,0S103,140.25,107.25,139"/>
	<path fill="#55A1D3" d="M101.75,119.25c0,0-4.25,9.75,0.5,21c-2.25,0-2.25,0-2.25,0s-4-12.75,0-21
		C101.75,119.25,101.75,119.25,101.75,119.25"/>
	<path fill="#55A1D3" d="M101,139c0,0,3.5,1,3.5,5.25c-6.25,0-6.25,0-6.25,0S97,140.25,101,139"/>
	<path fill="#55A1D3" d="M194.5,57.25c0,0.75,1,1.5,2,1.5c1.25,0,2.25-0.75,2.25-1.5c0-4.25,0-4.25,0-4.25c0-1-1-1.75-2.25-1.75
		c-1,0-2,0.75-2,1.75C194.5,57.25,194.5,57.25,194.5,57.25"/>
	<path fill="#55A1D3" d="M175.5,57.25c0,0.75,0.75,1.5,2,1.5s2-0.75,2-1.5c0-4.25,0-4.25,0-4.25c0-1-0.75-1.75-2-1.75
		s-2,0.75-2,1.75C175.5,57.25,175.5,57.25,175.5,57.25"/>
	<path fill="#55A1D3" d="M156.25,57.25c0,0.75,1,1.5,2.25,1.5c1,0,2-0.75,2-1.5c0-4.25,0-4.25,0-4.25c0-1-1-1.75-2-1.75
		c-1.25,0-2.25,0.75-2.25,1.75C156.25,57.25,156.25,57.25,156.25,57.25"/>
	<path fill="#55A1D3" d="M137.25,57.25c0,0.75,1,1.5,2,1.5c1.25,0,2.25-0.75,2.25-1.5c0-4.25,0-4.25,0-4.25c0-1-1-1.75-2.25-1.75
		c-1,0-2,0.75-2,1.75C137.25,57.25,137.25,57.25,137.25,57.25"/>
	<path fill="#55A1D3" d="M118.25,57.25c0,0.75,1,1.5,2,1.5c1.25,0,2.25-0.75,2.25-1.5c0-4.25,0-4.25,0-4.25c0-1-1-1.75-2.25-1.75
		c-1,0-2,0.75-2,1.75C118.25,57.25,118.25,57.25,118.25,57.25"/>
	<path fill="#55A1D3" d="M99.25,57.25c0,0.75,0.75,1.5,2,1.5c1,0,2-0.75,2-1.5c0-4.25,0-4.25,0-4.25c0-1-1-1.75-2-1.75
		c-1.25,0-2,0.75-2,1.75C99.25,57.25,99.25,57.25,99.25,57.25"/>
	<polygon fill="#B5693B" points="467.75,284.25 382.75,284.25 382.75,212.5 467.75,212.5 467.75,284.25 	"/>
	<polygon fill="#723929" points="459.25,235.25 389.25,235.25 389.25,217.5 459.25,217.5 459.25,235.25 	"/>
	<polygon fill="#B5693B" points="432.5,228.5 416,228.5 416,224.25 432.5,224.25 432.5,228.5 	"/>
	<polygon fill="#723929" points="459.25,257.5 389.25,257.5 389.25,239.75 459.25,239.75 459.25,257.5 	"/>
	<polygon fill="#B5693B" points="432.5,250.75 416,250.75 416,246.5 432.5,246.5 432.5,250.75 	"/>
	<polygon fill="#723929" points="459.25,279.5 389.25,279.5 389.25,261.75 459.25,261.75 459.25,279.5 	"/>
	<polygon fill="#B5693B" points="432.5,272.75 416,272.75 416,268.5 432.5,268.5 432.5,272.75 	"/>
	<path fill="#723929" d="M407.5,286.25c0,1-1.25,2-2.5,2c-11.75,0-11.75,0-11.75,0c-1.5,0-2.5-1-2.5-2s1-2,2.5-2
		c11.75,0,11.75,0,11.75,0C406.25,284.25,407.5,285.25,407.5,286.25"/>
	<path fill="#723929" d="M457.75,286.25c0,1-1.25,2-2.5,2c-11.75,0-11.75,0-11.75,0c-1.5,0-2.75-1-2.75-2s1.25-2,2.75-2
		c11.75,0,11.75,0,11.75,0C456.5,284.25,457.75,285.25,457.75,286.25"/>
	<polygon fill="#F68C58" points="459.25,205.75 389.25,205.75 382.75,212.5 467.75,212.5 459.25,205.75 	"/>
	<path fill="#82D3A9" d="M432,207c-1.75,0-1.75,0-1.75,0c3-1.5,6.25-4.5,6.25-9.5c0,0-11-7.25-2.5-11.5c-9,0-9,0-9,0
		c-9.25,0-9.25,0-9.25,0c8.75,4.25-2.25,11.5-2.25,11.5c0,5,3,8,6.25,9.5c-2,0-2,0-2,0c-1,0-2,0.75-2,1.5s1,1.25,2,1.25
		c14.25,0,14.25,0,14.25,0c1,0,1.75-0.5,1.75-1.25S433,207,432,207"/>
	<path fill="#D3D8AE" d="M413.5,197.5c0,0,0-0.25,0.25-0.25l0,0C413.5,197.25,413.5,197.5,413.5,197.5 M436.5,197.5l-0.25-0.25l0,0
		L436.5,197.5"/>
	<path fill="#6FCC9E" d="M432,209.75c-14.25,0-14.25,0-14.25,0c-1,0-2-0.5-2-1.25s1-1.5,2-1.5c2,0,2,0,2,0l0,0
		c-3.25-1.5-6.25-4.5-6.25-9.5l0,0c0,0,0-0.25,0.25-0.25c0.25,3,1.75,8.5,10.5,8.5c8.5,0,11.25-5.5,12-8.5l0.25,0.25l0,0
		c0,5-3.25,8-6.25,9.5l0,0l0,0c1.75,0,1.75,0,1.75,0c1,0,1.75,0.75,1.75,1.5S433,209.75,432,209.75"/>
	<path fill="#D3D8AE" d="M430.75,190L430.75,190c0-0.75,0.25-1.5,1-2.25l0,0C431,188.5,430.75,189.25,430.75,190 M419,190L419,190
		c0-0.75-0.25-1.5-0.75-2.25l0,0C418.75,188.5,419,189.25,419,190"/>
	<path fill="#6FCC9E" d="M430.75,190C419,190,419,190,419,190c0-0.75-0.25-1.5-0.75-2.25c6,0,6,0,6,0c7.5,0,7.5,0,7.5,0
		C431,188.5,430.75,189.25,430.75,190"/>
	<polygon fill="#F574B5" points="434.25,167.25 414.25,167.25 405.75,187.75 442.75,187.75 434.25,167.25 	"/>
	<polygon fill="#F466A0" points="442.75,187.75 405.75,187.75 414.25,167.25 415.25,167.25 409,182 424.25,182 439.25,182 
		433.25,167.25 434.25,167.25 442.75,187.75 	"/>
	<polygon fill="#B5693B" points="102,284.25 17,284.25 17,212.5 102,212.5 102,284.25 	"/>
	<polygon fill="#723929" points="93.5,235.25 23.5,235.25 23.5,217.5 93.5,217.5 93.5,235.25 	"/>
	<polygon fill="#B5693B" points="66.75,228.5 50.25,228.5 50.25,224.25 66.75,224.25 66.75,228.5 	"/>
	<polygon fill="#723929" points="93.5,257.5 23.5,257.5 23.5,239.75 93.5,239.75 93.5,257.5 	"/>
	<polygon fill="#B5693B" points="66.75,250.75 50.25,250.75 50.25,246.5 66.75,246.5 66.75,250.75 	"/>
	<polygon fill="#723929" points="93.5,279.5 23.5,279.5 23.5,261.75 93.5,261.75 93.5,279.5 	"/>
	<polygon fill="#B5693B" points="66.75,272.75 50.25,272.75 50.25,268.5 66.75,268.5 66.75,272.75 	"/>
	<path fill="#723929" d="M41.75,286.25c0,1-1.25,2-2.5,2c-11.75,0-11.75,0-11.75,0c-1.5,0-2.5-1-2.5-2s1-2,2.5-2
		c11.75,0,11.75,0,11.75,0C40.5,284.25,41.75,285.25,41.75,286.25"/>
	<path fill="#723929" d="M92,286.25c0,1-1.25,2-2.75,2c-11.5,0-11.5,0-11.5,0c-1.5,0-2.75-1-2.75-2s1.25-2,2.75-2
		c11.5,0,11.5,0,11.5,0C90.75,284.25,92,285.25,92,286.25"/>
	<polygon fill="#F68C58" points="93.5,205.75 23.5,205.75 17,212.5 102,212.5 93.5,205.75 	"/>
	<path fill="#82D3A9" d="M66.25,207c-1.75,0-1.75,0-1.75,0c3-1.5,6.25-4.5,6.25-9.5c0,0-11-7.25-2.5-11.5c-9,0-9,0-9,0
		C50,186,50,186,50,186c8.75,4.25-2.5,11.5-2.5,11.5c0,5,3.25,8,6.5,9.5c-2.25,0-2.25,0-2.25,0C51,207,50,207.75,50,208.5
		s1,1.25,1.75,1.25c14.5,0,14.5,0,14.5,0c1,0,1.75-0.5,1.75-1.25S67.25,207,66.25,207"/>
	<path fill="#D3D8AE" d="M47.5,197.5c0,0,0.25-0.25,0.5-0.25l0,0C47.75,197.25,47.5,197.5,47.5,197.5 M70.75,197.5l-0.25-0.25l0,0
		L70.75,197.5"/>
	<path fill="#6FCC9E" d="M66.25,209.75c-14.5,0-14.5,0-14.5,0c-0.75,0-1.75-0.5-1.75-1.25s1-1.5,1.75-1.5c2.25,0,2.25,0,2.25,0l0,0
		c-3.25-1.5-6.5-4.5-6.5-9.5l0,0c0,0,0.25-0.25,0.5-0.25c0.25,3,1.75,8.5,10.5,8.5c8.5,0,11.25-5.5,12-8.5l0.25,0.25l0,0
		c0,5-3.25,8-6.25,9.5l0,0l0,0c1.75,0,1.75,0,1.75,0c1,0,1.75,0.75,1.75,1.5S67.25,209.75,66.25,209.75"/>
	<path fill="#D3D8AE" d="M65,190L65,190c0-0.75,0.25-1.5,1-2.25l0,0C65.25,188.5,65,189.25,65,190 M53.25,190L53.25,190
		c0-0.75-0.25-1.5-0.75-2.25l0,0C53,188.5,53.25,189.25,53.25,190"/>
	<path fill="#6FCC9E" d="M65,190c-11.75,0-11.75,0-11.75,0c0-0.75-0.25-1.5-0.75-2.25c6,0,6,0,6,0c7.5,0,7.5,0,7.5,0
		C65.25,188.5,65,189.25,65,190"/>
	<polygon fill="#F574B5" points="68.5,167.25 48.5,167.25 40,187.75 77,187.75 68.5,167.25 	"/>
	<polygon fill="#F466A0" points="77,187.75 40,187.75 48.5,167.25 49.5,167.25 43.25,182 58.5,182 73.5,182 67.5,167.25 
		68.5,167.25 77,187.75 	"/>
	<path fill="#90CDF0" d="M306.25,288.75c0,5-5.5,9.25-12.25,9.25c-110.5,0-110.5,0-110.5,0c-6.75,0-12-4.25-12-9.25
		s5.25-9.25,12-9.25c110.5,0,110.5,0,110.5,0C300.75,279.5,306.25,283.75,306.25,288.75"/>
	<path fill="#9A5934" d="M306.25,288.75L306.25,288.75L306.25,288.75L306.25,288.75z M171.5,288.75L171.5,288.75L171.5,288.75
		L171.5,288.75z"/>
	<path fill="#7BB1D6" d="M294,298c-110.5,0-110.5,0-110.5,0c-6.75,0-12-4.25-12-9.25l0,0l0,0c0-1.25,0.25-2.25,0.75-3.25
		c1.5,3.5,6,6,11.25,6c110.5,0,110.5,0,110.5,0c5.25,0,9.75-2.5,11.5-6c0.5,1,0.75,2,0.75,3.25l0,0l0,0
		C306.25,293.75,300.75,298,294,298"/>
	<polygon fill="#723929" points="298.5,317.5 179.5,317.5 179.5,296.25 298.5,296.25 298.5,317.5 	"/>
	<path fill="#B5693B" d="M201.25,319.5c0,1-1,1.75-2.5,1.75c-11.75,0-11.75,0-11.75,0c-1.25,0-2.5-0.75-2.5-1.75
		c0-1.25,1.25-2,2.5-2c11.75,0,11.75,0,11.75,0C200.25,317.5,201.25,318.25,201.25,319.5"/>
	<path fill="#B5693B" d="M294.25,319.5c0,1-1.25,1.75-2.75,1.75c-11.5,0-11.5,0-11.5,0c-1.5,0-2.75-0.75-2.75-1.75
		c0-1.25,1.25-2,2.75-2c11.5,0,11.5,0,11.5,0C293,317.5,294.25,318.25,294.25,319.5"/>
	<path fill="#55A1D3" d="M117,182c0,0.75-0.75,1.25-1.75,1.25c-15.75,0-15.75,0-15.75,0c-1,0-1.5-0.5-1.5-1.25
		c0-0.5,0.5-1.25,1.5-1.25c15.75,0,15.75,0,15.75,0C116.25,180.75,117,181.5,117,182"/>
	<path fill="#55A1D3" d="M392.5,182c0,0.75-0.75,1.25-1.5,1.25c-16,0-16,0-16,0c-0.75,0-1.5-0.5-1.5-1.25c0-0.5,0.75-1.25,1.5-1.25
		c16,0,16,0,16,0C391.75,180.75,392.5,181.5,392.5,182"/>
</g>
</svg>
