<?xml version="1.0" encoding="utf-8"?>
<!-- Generator: Adobe Illustrator 16.0.0, SVG Export Plug-In . SVG Version: 6.00 Build 0)  -->
<!DOCTYPE svg PUBLIC "-//W3C//DTD SVG 1.1//EN" "http://www.w3.org/Graphics/SVG/1.1/DTD/svg11.dtd">
<svg version="1.1" id="Layer_1" xmlns="http://www.w3.org/2000/svg" xmlns:xlink="http://www.w3.org/1999/xlink" x="0px" y="0px"
	 width="310px" height="203px" viewBox="0 0 310 203.3" enable-background="new 0 0 310 203" xml:space="preserve">
<path fill-rule="evenodd" clip-rule="evenodd" fill="#882F1F" d="M93.1,66h-4.6c0,0-0.8,1.1-0.8,3.6c0,2.7,0.8,3.6,0.8,3.6h4.6V66z"
	/>
<path fill="#5A5A5C" d="M212.5,57.1c0,0-4.6,14.6-6.1,17.1l-2.4-0.7l5.5-16.3L212.5,57.1z"/>
<g>
	<line fill="none" stroke="#E5E5E4" stroke-miterlimit="10" x1="65.9" y1="95.8" x2="67.2" y2="196"/>
	<line fill="none" stroke="#E5E5E4" stroke-miterlimit="10" x1="57.8" y1="96.3" x2="73.7" y2="195.4"/>
	<line fill="none" stroke="#E5E5E4" stroke-miterlimit="10" x1="50.7" y1="98" x2="80.9" y2="193.7"/>
	<line fill="none" stroke="#E5E5E4" stroke-miterlimit="10" x1="43.9" y1="100.8" x2="87.7" y2="191"/>
	<line fill="none" stroke="#E5E5E4" stroke-miterlimit="10" x1="37.5" y1="104.4" x2="94.1" y2="187.3"/>
	<line fill="none" stroke="#E5E5E4" stroke-miterlimit="10" x1="31.8" y1="109" x2="99.9" y2="182.7"/>
	<line fill="none" stroke="#E5E5E4" stroke-miterlimit="10" x1="26.7" y1="114.4" x2="104.9" y2="177.3"/>
	<line fill="none" stroke="#E5E5E4" stroke-miterlimit="10" x1="22.6" y1="120.5" x2="109.1" y2="171.2"/>
	<line fill="none" stroke="#E5E5E4" stroke-miterlimit="10" x1="19.3" y1="127.1" x2="112.3" y2="164.6"/>
	<line fill="none" stroke="#E5E5E4" stroke-miterlimit="10" x1="17.1" y1="134.1" x2="114.5" y2="157.6"/>
	<line fill="none" stroke="#E5E5E4" stroke-miterlimit="10" x1="15.9" y1="141.3" x2="115.7" y2="150.3"/>
	<line fill="none" stroke="#E5E5E4" stroke-miterlimit="10" x1="15.8" y1="148.7" x2="115.9" y2="143"/>
	<line fill="none" stroke="#E5E5E4" stroke-miterlimit="10" x1="16.7" y1="156" x2="114.9" y2="135.7"/>
	<line fill="none" stroke="#E5E5E4" stroke-miterlimit="10" x1="18.7" y1="163.1" x2="112.9" y2="128.6"/>
	<line fill="none" stroke="#E5E5E4" stroke-miterlimit="10" x1="21.7" y1="169.8" x2="109.9" y2="121.9"/>
	<line fill="none" stroke="#E5E5E4" stroke-miterlimit="10" x1="25.7" y1="175.9" x2="105.9" y2="115.7"/>
	<line fill="none" stroke="#E5E5E4" stroke-miterlimit="10" x1="30.6" y1="181.5" x2="101.1" y2="110.1"/>
	<line fill="none" stroke="#E5E5E4" stroke-miterlimit="10" x1="36.1" y1="186.3" x2="95.5" y2="105.3"/>
	<line fill="none" stroke="#E5E5E4" stroke-miterlimit="10" x1="42.4" y1="190.2" x2="89.2" y2="101.4"/>
	<line fill="none" stroke="#E5E5E4" stroke-miterlimit="10" x1="49.1" y1="193.1" x2="82.5" y2="98.5"/>
	<line fill="none" stroke="#E5E5E4" stroke-miterlimit="10" x1="57" y1="195.2" x2="74.6" y2="96.4"/>
</g>
<path fill="#343434" d="M8.5,144.5c0.4,31.6,26.3,56.9,57.9,56.5c31.6-0.4,56.9-26.3,56.5-57.9c-0.4-31.6-26.3-56.9-57.9-56.5
	C33.4,87,8.1,112.9,8.5,144.5z M17.2,144.4c-0.3-26.8,21.1-48.8,47.9-49.1c26.8-0.3,48.7,21.1,49.1,47.9
	c0.3,26.8-21.1,48.8-47.9,49.1C39.5,192.6,17.6,171.2,17.2,144.4z"/>
<ellipse transform="matrix(0.9999 -1.237686e-002 1.237686e-002 0.9999 -1.7746 0.8241)" fill="none" stroke="#E5E5E4" stroke-width="5" stroke-miterlimit="10" cx="65.7" cy="143.8" rx="51.1" ry="51.2"/>
<g>
	<line fill="none" stroke="#E5E5E4" stroke-miterlimit="10" x1="249.5" y1="95" x2="249.5" y2="194"/>
	<line fill="none" stroke="#E5E5E4" stroke-miterlimit="10" x1="242" y1="94.4" x2="256.7" y2="193.6"/>
	<line fill="none" stroke="#E5E5E4" stroke-miterlimit="10" x1="234.8" y1="96" x2="263.8" y2="192"/>
	<line fill="none" stroke="#E5E5E4" stroke-miterlimit="10" x1="228" y1="98.6" x2="270.7" y2="189.4"/>
	<line fill="none" stroke="#E5E5E4" stroke-miterlimit="10" x1="221.6" y1="102.2" x2="277.1" y2="185.8"/>
	<line fill="none" stroke="#E5E5E4" stroke-miterlimit="10" x1="215.8" y1="106.7" x2="282.9" y2="181.2"/>
	<line fill="none" stroke="#E5E5E4" stroke-miterlimit="10" x1="210.7" y1="112.1" x2="288" y2="175.9"/>
	<line fill="none" stroke="#E5E5E4" stroke-miterlimit="10" x1="206.4" y1="118.1" x2="292.3" y2="169.9"/>
	<line fill="none" stroke="#E5E5E4" stroke-miterlimit="10" x1="203.1" y1="124.6" x2="295.6" y2="163.3"/>
	<line fill="none" stroke="#E5E5E4" stroke-miterlimit="10" x1="200.8" y1="131.6" x2="297.9" y2="156.3"/>
	<line fill="none" stroke="#E5E5E4" stroke-miterlimit="10" x1="199.5" y1="138.8" x2="299.2" y2="149.1"/>
	<line fill="none" stroke="#E5E5E4" stroke-miterlimit="10" x1="199.3" y1="146.2" x2="299.4" y2="141.7"/>
	<line fill="none" stroke="#E5E5E4" stroke-miterlimit="10" x1="200.1" y1="153.5" x2="298.6" y2="134.4"/>
	<line fill="none" stroke="#E5E5E4" stroke-miterlimit="10" x1="202.1" y1="160.6" x2="296.6" y2="127.3"/>
	<line fill="none" stroke="#E5E5E4" stroke-miterlimit="10" x1="205" y1="167.3" x2="293.7" y2="120.6"/>
	<line fill="none" stroke="#E5E5E4" stroke-miterlimit="10" x1="208.9" y1="173.6" x2="289.8" y2="114.3"/>
	<line fill="none" stroke="#E5E5E4" stroke-miterlimit="10" x1="213.7" y1="179.2" x2="285" y2="108.7"/>
	<line fill="none" stroke="#E5E5E4" stroke-miterlimit="10" x1="219.2" y1="184" x2="279.5" y2="103.8"/>
	<line fill="none" stroke="#E5E5E4" stroke-miterlimit="10" x1="225.4" y1="188" x2="273.3" y2="99.9"/>
	<line fill="none" stroke="#E5E5E4" stroke-miterlimit="10" x1="232.1" y1="191" x2="266.6" y2="96.8"/>
	<line fill="none" stroke="#E5E5E4" stroke-miterlimit="10" x1="239.9" y1="193.2" x2="258.7" y2="94.7"/>
</g>
<path fill="#343434" d="M191.8,144.5c0,31.6,25.6,57.2,57.2,57.2c31.6,0,57.2-25.6,57.2-57.2S280.5,87.3,249,87.3
	C217.4,87.3,191.8,112.9,191.8,144.5z M200.5,144.5c0-26.8,21.7-48.5,48.5-48.5s48.5,21.7,48.5,48.5c0,26.8-21.7,48.5-48.5,48.5
	S200.5,171.3,200.5,144.5z"/>
<ellipse fill="none" stroke="#E5E5E4" stroke-width="5" stroke-miterlimit="10" cx="249" cy="144.5" rx="51.1" ry="51.2"/>
<path fill="#F9B03C" d="M100.5,85.8l1.4-1.4c-0.1-0.1-3.6-3.7-2.6-10.9l-1.9-0.3C96.2,81.4,100.3,85.6,100.5,85.8"/>
<path fill="#F9B03C" d="M101.6,70.3c0,0,1.1-5.2-10.5-6.8c0,0-4.7,6.6-0.9,11.9C90.3,75.3,99.9,77.7,101.6,70.3"/>
<polygon fill="#F9B03C" points="255.6,147.2 270.5,79.7 266.7,78.8 253.5,138.6 203.9,79.8 200.9,82.3 "/>
<path fill-rule="evenodd" clip-rule="evenodd" fill="#F9B03C" d="M267.2,74.2l-0.6,3.7c-0.2,1,0.5,1.9,1.4,2l1.4,0.3
	c0.9,0.2,1.9-0.5,2-1.4l0.6-3.7"/>
<path fill-rule="evenodd" clip-rule="evenodd" fill="#F9B03C" d="M270,77.5c0.1-0.5-0.2-0.9-0.7-1c-0.5-0.1-0.9,0.2-1,0.7
	c-0.1,0.5,0.2,0.9,0.7,1C269.5,78.3,270,78,270,77.5"/>
<rect x="195.8" y="145.8" transform="matrix(-0.9897 0.143 -0.143 -0.9897 469.0562 260.4662)" fill="#7F8080" width="58.8" height="2.6"/>
<path fill-rule="evenodd" clip-rule="evenodd" fill="#7F8080" d="M73,143.6c0-3.6-2.9-6.5-6.5-6.4c-3.6,0-6.4,2.9-6.4,6.5
	c0,3.6,2.9,6.5,6.5,6.4C70.1,150,73,147.1,73,143.6"/>
<path fill-rule="evenodd" clip-rule="evenodd" fill="#5A5A5C" d="M69.3,143.6c0-1.6-1.3-2.8-2.8-2.8c-1.5,0-2.8,1.3-2.8,2.8
	c0,1.6,1.3,2.8,2.8,2.8C68.1,146.4,69.3,145.1,69.3,143.6"/>
<polygon fill="#F9B03C" points="184,136.9 207.2,74 203.5,72.7 179.7,137.3 "/>
<path fill="#F9B03C" d="M184.5,128.4l1.1-3.8c-0.2-0.1-24.8-7.3-44.5-22.6c-19.3-14.9-20.4-57-20.4-57.4l-3.9,0.1
	c0,0.4,0.3,11.1,3,23.9c3.8,17.4,10.1,29.7,18.9,36.5C159,120.9,183.5,128.1,184.5,128.4"/>
<polygon fill="#F9B03C" points="136,111 140.3,106 137.3,103.4 133,108.5 "/>
<rect x="135.1" y="66.7" transform="matrix(-0.7501 0.6613 -0.6613 -0.7501 314.4704 106.7032)" fill="#F9B03C" width="3.9" height="92.2"/>
<path fill="#F9B03C" d="M212.3,89.8c3-2.2,15.3-10.7,19.6-11.2c5.8-0.6,54.9-4.1,55.4-4.1l-0.3-3.9c-2,0.1-49.7,3.5-55.6,4.1
	c-6.2,0.7-20.8,11.4-22,12.3L212.3,89.8z"/>
<path fill="#F9B03C" d="M68.9,144.2c0.1-0.1,12.4-12.9,16.9-17c4.7-4.2,31.1-72.2,36.4-85.8l-3.7-1.4
	c-11.9,30.9-32.1,81.1-35.4,84.4c-4.6,4.1-16.5,16.6-17.1,17.2L68.9,144.2z"/>
<g>
	<path fill="#676767" d="M179.5,122c0,0-2.2,25.8,0.2,26c2.4,0.2,2.6-0.8,2.4-4.6c-0.2-3.8-0.5-21.4-0.5-21.4H179.5z"/>
	<path fill="#E86E34" d="M172.4,120.5c0,1.9,1.6,2.5,3.5,2.5h8.9c1.9,0,3.5-0.6,3.5-2.5l0,0c0-1.9-1.6-2.5-3.5-2.5h-8.9
		C173.9,118,172.4,118.6,172.4,120.5L172.4,120.5z"/>
	<path fill="#B75648" d="M179,120.5c0,0.7-1,1.5-0.3,1.5h3.5c0.7,0,0.8-0.8,0.8-1.5V120c0-0.7-0.1-1-0.8-1h-3.5
		c-0.7,0,0.3,0.3,0.3,1V120.5z"/>
	<g>
		<path fill="none" stroke="#53240F" stroke-miterlimit="10" d="M262.5,159.5c-5.1,3.3-73,8.1-91.2-0.6c-7-3.3-13.3-29.3,23.2-26.1
			s56.3-8.3,64.7-1.7c8.4,6.6,0.3,10.2-2.1,13C254.6,147.1,271.3,153.9,262.5,159.5z"/>
		<g>
			
				<path fill="none" stroke="#53240F" stroke-width="3" stroke-linecap="round" stroke-linejoin="round" stroke-dasharray="0,6.9444" d="
				M262.5,159.5c-5.1,3.3-73,8.1-91.2-0.6c-7-3.3-13.3-29.3,23.2-26.1s56.3-8.3,64.7-1.7c8.4,6.6,0.3,10.2-2.1,13
				C254.6,147.1,271.3,153.9,262.5,159.5z"/>
		</g>
	</g>
	<path fill="none" stroke="#010202" stroke-miterlimit="10" d="M262.5,159.5c-5.1,3.3-73,8.1-91.2-0.6c-7-3.3-13.3-29.3,23.2-26.1"
		/>
	<g>
		<path fill="#676767" d="M167.6,149.2c0.2,1.8-1.1,3.4-2.9,3.7c0.1,0.3,0.2,0.6,0.3,0.8c1.6-0.8,3.6-0.3,4.5,1.3
			c0.9,1.6,0.4,3.6-1.1,4.5c0.2,0.2,0.4,0.4,0.6,0.7c1.1-1.4,3.1-1.7,4.6-0.6c1.5,1.1,1.8,3.1,0.8,4.6c0.3,0.1,0.5,0.2,0.8,0.4
			c0.5-1.7,2.2-2.8,4-2.5c1.8,0.4,2.9,2.1,2.6,3.9c0.2,0,0.3,0,0.5,0c0.1,0,0.3,0,0.4,0c-0.3-1.8,0.9-3.5,2.6-3.8
			c1.8-0.4,3.5,0.7,4,2.5c0.3-0.1,0.5-0.2,0.8-0.4c-1-1.5-0.6-3.5,0.8-4.6c1.5-1.1,3.5-0.8,4.6,0.6c0.2-0.2,0.4-0.4,0.6-0.6
			c-1.5-1-2-2.9-1.1-4.5c0.9-1.6,2.9-2.1,4.5-1.3c0.1-0.3,0.2-0.6,0.3-0.8c-1.8-0.3-3-1.9-2.9-3.7c0.2-1.8,1.8-3.1,3.6-3
			c0-0.3-0.1-0.6-0.1-0.9c-1.7,0.5-3.5-0.5-4.1-2.2c-0.6-1.7,0.3-3.6,2-4.2c-0.1-0.3-0.3-0.5-0.4-0.8c-1.4,1.1-3.4,1-4.6-0.3
			c-1.2-1.3-1.2-3.4,0.1-4.7c-0.2-0.2-0.5-0.3-0.7-0.5c-0.8,1.6-2.7,2.3-4.4,1.6c-1.7-0.7-2.4-2.6-1.8-4.3c-0.3-0.1-0.5-0.1-0.8-0.2
			c-0.1,1.8-1.6,3.2-3.4,3.2c-1.8,0-3.3-1.4-3.4-3.2c-0.3,0.1-0.6,0.1-0.9,0.2c0.6,1.7-0.1,3.6-1.8,4.3c-1.7,0.7-3.6,0-4.4-1.6
			c-0.2,0.2-0.5,0.3-0.7,0.5c1.3,1.3,1.3,3.3,0.1,4.7c-1.2,1.4-3.3,1.5-4.7,0.3c-0.2,0.2-0.3,0.5-0.4,0.8c1.7,0.6,2.6,2.5,2,4.2
			c-0.6,1.7-2.4,2.7-4.1,2.2c0,0.3-0.1,0.6-0.1,0.9C165.8,146.1,167.4,147.4,167.6,149.2z M169.5,147.7c0-7,5.7-12.7,12.7-12.7
			c7,0,12.7,5.7,12.7,12.7s-5.7,12.7-12.7,12.7C175.2,160.4,169.5,154.8,169.5,147.7z"/>
		<ellipse fill="none" stroke="#4E4D4D" stroke-width="6" stroke-miterlimit="10" cx="182.2" cy="147.9" rx="15.6" ry="15.6"/>
	</g>
	<path fill="#676767" d="M183.2,175c0,0,2.2-25.5-0.2-25.7s-2.6,0.6-2.4,4.4c0.2,3.8,0.5,21.3,0.5,21.3H183.2z"/>
	<path fill="#E86E34" d="M175,176.2c0,1.8,1,2.8,3,2.8h8.8c1.9,0,3.3-1,3.3-2.8V176c0-1.8-1.3-3-3.3-3H178c-1.9,0-3,1.2-3,3V176.2z"
		/>
	<path fill="#B75648" d="M179,176.8c0,0.7,0.7,1.2,1.4,1.2h3.3c0.6,0,1.4-0.5,1.4-1.2v-0.4c0-0.7-0.7-1.4-1.4-1.4h-3.3
		c-0.6,0-1.4,0.7-1.4,1.4V176.8z"/>
</g>
<path fill="#4E4D4D" d="M226.9,49.8l2.8-1.1c0,0,0.1,1.5-0.5,2.7c-0.7,1.3-2,6.2-5.2,6.7c-3.3,0.5-6.2-0.3-8.6-0.2
	c-2.3,0.1-10.4-0.5-12.8-0.4c-2.4,0.1-13.2-4.1-12.6-5.9c0,0,2.6,0.3,2.6,0.3c0,0,10.5,4.8,29.4,4.4
	C224.8,56.4,226.9,55.4,226.9,49.8z"/>
<path fill="#4E4D4D" d="M205.9,55.6c0,0,2.2,4.9,3,5.9c0.7,1,2.7,1.5,4.8-0.6c2.1-2.1,0.8-4.8,0.8-4.8
	C211.2,56.9,205.9,55.6,205.9,55.6z M207.2,56.7c0,0,3.7,0.9,5.9,0.4c0,0,0.9,1.9-0.5,3.3c-1.4,1.4-2.8,1.1-3.3,0.4
	C208.8,60,207.2,56.7,207.2,56.7z"/>
<path fill="#010202" d="M230.5,42.9c0,0,5.2-0.9,5.1,1.2c-0.1,2.1-2.4,3.3-7,4.9c-4.6,1.6-10.1,5.7-14.3,7.1
	c-4.2,1.3-14.5-2.6-20-3.8c-5.4-1.2-12.1-1.8-12.1-3.1c0-1.3,2.1-8.4,19-3.6S225.8,43.1,230.5,42.9z"/>
<path fill="#CCCBCB" d="M186.5,147.7l-0.5,1.7l7.1,5.5c0,0,3.2-5.9,1.3-10.5L186.5,147.7z"/>
<path fill="#CCCBCB" d="M178.3,148.7l0.7,1.7l-6.3,6.4c0,0-3.9-5.4-2.6-10.3L178.3,148.7z"/>
<circle fill="#676767" cx="182.3" cy="148.3" r="4.6"/>
<circle fill="#333333" cx="182.3" cy="148.3" r="2.6"/>
<path fill-rule="evenodd" clip-rule="evenodd" fill="#7F8080" d="M260.7,142.9c0-3.6-2.9-6.5-6.5-6.5c-3.6,0-6.5,2.9-6.5,6.5
	c0,3.6,2.9,6.5,6.5,6.5C257.8,149.3,260.7,146.5,260.7,142.9"/>
<path fill-rule="evenodd" clip-rule="evenodd" fill="#5A5A5C" d="M257.1,142.9c0-1.6-1.2-2.8-2.8-2.8c-1.5,0-2.8,1.3-2.8,2.8
	s1.2,2.8,2.8,2.8C255.8,145.7,257.1,144.4,257.1,142.9"/>
<path fill="#E86E34" d="M201.8,73c-0.2,0.7,0.1,1.4,0.8,1.6l4,1.3c0.7,0.2,1.4-0.1,1.6-0.8l0-0.1c0.2-0.7-0.1-1.4-0.8-1.6l-4-1.3
	C202.7,71.9,202,72.2,201.8,73L201.8,73z"/>
<path fill="#343434" d="M117.6,41.1c0,0,4.6-9.9,0.9-13.2c-3.7-3.3-7.5-6.1-4.2-11.6c3.3-5.5,10-12.6,10-12.6l3.9,1.3
	c0,0-11.2,10.6-10.1,14.1c1.1,3.5,6.6,6.8,6.2,10.8c-0.4,4-3.1,12.9-3.1,12.9L117.6,41.1z"/>
<path fill-rule="evenodd" clip-rule="evenodd" fill="#E86E34" d="M127.3,4.8c0,0,12.7,2.4,14,2.7c1.2,0.3,4.4,2,3.7,5.1
	c-0.7,2.8-3,4.8-5.8,4.1c-2.8-0.8-16.4-7.2-16.4-7.2S126.2,4.6,127.3,4.8z"/>
<path fill="#808081" d="M123.2,0.5c-1.8,0-3.2,1.4-3.2,3.2s1.4,3.2,3.2,3.2s3.2-1.4,3.2-3.2S125,0.5,123.2,0.5"/>
<path fill="#E86E34" d="M116.6,40.4c-0.2,0.7,0.1,1.4,0.8,1.6l4,1.3c0.7,0.2,1.4-0.1,1.6-0.8l0-0.1c0.2-0.7-0.1-1.4-0.8-1.6l-4-1.3
	C117.5,39.3,116.8,39.7,116.6,40.4L116.6,40.4z"/>
<path fill="#E86E34" d="M294,70.9c0-1.7-2.3-2.9-4-2.9h-2c-1.7,0-3,1.2-3,2.9v2.6c0,1.7,1.3,2.5,3,2.5h2c1.7,0,4-0.8,4-2.5V70.9z"/>
</svg>
