<?xml version="1.0" encoding="utf-8"?>
<!-- Generator: Adobe Illustrator 16.0.0, SVG Export Plug-In . SVG Version: 6.00 Build 0)  -->
<!DOCTYPE svg PUBLIC "-//W3C//DTD SVG 1.1//EN" "http://www.w3.org/Graphics/SVG/1.1/DTD/svg11.dtd">
<svg version="1.1" id="Layer_1" xmlns="http://www.w3.org/2000/svg" xmlns:xlink="http://www.w3.org/1999/xlink" x="0px" y="0px"
	 width="86px" height="74px" viewBox="0 0 86 74" enable-background="new 0 0 86 74" xml:space="preserve">
<g>
	<path fill="#1C2123" d="M1.6,23c1.3,5,6.3,14.3,10.5,18.8c1,1,1.8,1.5,2.5,2c0,0,0.3,0.3,0.5,0.3c1,0.8,2.3,1,3.5,1
		c1,0.3,1.8,0,2.5,0c2.3-0.8,4-2.5,4.5-5c0.3-0.3,0.3-0.8,0.3-1.3c0,0-3-2-4.8-13.5s-0.3-14,0-16c-0.8-1.5-4.8,3.8-4.8,5.8
		c-1.8-6.3-1.8-8.8-2.8-8c-1,0.5-2.5,7-2.3,8c-2.8-4-4-7.5-4.8-6.8c-0.8,1-1.3,8.8-1.3,8.5c-0.3-0.5-3.3-6.5-4.3-6.3
		C0.3,10.8,0.1,17,1.6,23z"/>
	<path fill="#181817" d="M12.1,41.8c0.5,0.8,1,1.5,1.3,2c0.8,0,1.3,0.3,1.8,0.3c2.3,0.5,4.5,0.8,6,1c2.3-0.8,4-2.5,4.5-5
		c-1.3-2.5-1.3-2.5-1.3-2.5c-0.5-0.5-3.8-6.5-5.5-15c-1-3-2.3,1.5-1.5,4.5c-2.8-4.5-3.3-6.8-3.8-5.3c-0.8,1.5,0,7.5-0.3,7.3
		c-0.3-0.5-2.8-7.3-4-6.5c-1.5,1,1.3,8,1.3,8.3c0-0.3-4.5-7-5.3-5C4.6,27.5,8.8,36.8,12.1,41.8z"/>
	<path fill="#181817" d="M65.1,22.3c0.3,0,5.5,0,6.5,4.8c1.3,4.5,1,13.3,0.3,13.8c-0.8,0.8-1-2.5-1-2.5s-0.8,11-12.3,17.3
		s-29,0-29,0s9.5-7.3,12.8-10c3-2.8,13-11.5,14-14S61.8,22.3,65.1,22.3z"/>
	<path fill="#AB5A1E" d="M48.3,63.3c0.3-0.3,8-2.8,8.8-2c0.5,0.8-0.8,6.8-1.3,6.5c-0.8,0-0.8-4-0.8-4s-6,1-6.5,0.5
		S48.3,63.3,48.3,63.3z"/>
	<path fill="#CD741C" d="M50.1,65.8h0.3c1-0.5-2-4-4.5-6.5c-1.5-1.5-2.8-2.8-2.8-2.8c-1.3-0.5-2-0.8-2.5,0.3S47.8,65.8,50.1,65.8z"
		/>
	<path fill="#AB5A1E" d="M50.1,65.8c-2-1.5-4.5-4.8-6-6c0.5-0.3,1.3-0.3,1.8-0.5c-1.5-1.5-2.8-2.8-2.8-2.8c-1.3-0.5-2-0.8-2.5,0.3
		S47.8,65.8,50.1,65.8z"/>
	<path fill="#CD741C" d="M48.1,63.3c0.5-0.3,9.8-1,10.5,0.3s-1.3,5.3-2,5.5c0-0.8,0-4.3,0-4.3s-7,0.3-7.5-0.5
		C48.3,63.8,48.1,63.3,48.1,63.3z"/>
	<path fill="#CD741C" d="M49.1,63.3c0.3,0,5.3,1.8,5.5,3c0,1-1.3,4-1.5,3.5c-0.5-0.3-0.5-3.3-0.5-3.3s-3-0.3-4.3-1.5
		c-1-1.3,1-1.8,1-1.8H49.1z"/>
	<path fill="#CD741C" d="M44.3,66c-0.8,0.5,1.3,3.5,0.5,3.3c-0.5,0-3.3-3.8-2.5-4.8c0.5-1,6.8-0.5,6.8-0.5c0.5,0,1.3,0.3,1.8,0.5
		s0.3,1-0.3,1.3c-0.8,0.3-1.3,0-1.8,0c-0.8,0-1.5,0-2,0C46.1,65.8,45.1,65.8,44.3,66z"/>
	<path fill="#CD741C" d="M35.8,70L35.8,70c1.8,0.3-1.8-14-2-14.3c-0.5-0.8-0.8-1-1-1.3c-0.5-0.3-1-0.3-1.5,0.3
		C30.6,55.3,34.3,69,35.8,70z"/>
	<path fill="#AB5A1E" d="M35.8,70c-1-3.3-2.5-9.8-2.8-11.8c-0.3-1.5-0.5-3-0.3-3.8c-0.5-0.3-1-0.3-1.5,0.3
		C30.6,55.3,34.3,69,35.8,70z"/>
	<path fill="#AB5A1E" d="M33.6,67c0.3,0,8-2.8,8.5-2c0.8,1-0.8,6.8-1.3,6.8c-0.5-0.3-0.5-4.3-0.5-4.3s-6,1.3-6.5,0.5
		C33.1,67.5,33.6,67,33.6,67z"/>
	<path fill="#CD741C" d="M33.3,67c0.5,0,9.8-1,10.5,0.3c0.8,1.3-1.5,5.5-2.3,5.5c0-0.8,0.3-4,0.3-4s-7,0-7.8-0.8
		C33.6,67.5,33.3,67,33.3,67z"/>
	<path fill="#CD741C" d="M34.1,67c0.5,0.3,5.5,1.8,5.5,3c0.3,1-1,4-1.5,3.5c-0.3-0.3-0.5-3.3-0.5-3.3s-2.8-0.3-4-1.5
		s0.8-1.8,0.8-1.8H34.1z"/>
	<path fill="#CD741C" d="M30.3,69.3c-0.8,0.5,1.3,3.3,0.5,3.3c-0.5-0.3-3.3-3.8-2.5-4.8c0.5-1,6.8-0.8,6.8-0.8
		c0.5,0,1.3,0.5,1.3,1.3c-0.3,1-2.8,0.8-3.5,0.8S31.1,69,30.3,69.3z"/>
	<path fill="#1C2123" d="M13.6,41c0.5,2.5,3.3,6.3,6.3,9.5c1.8,1.8,4,3.5,5.8,4.5c0.5,0.3,1,0.5,1.3,0.5c6,2.5,18.8,3.8,27.8-0.3
		c-2,2-1.8,3.8,0.3,2.8c1.8-1,8.5-5,10.8-11.3c0.3,4.5,1,4.8,1.8,3.5c1-1,1-13.8,0-20.8C66.3,22.8,63.6,4,61.6,2
		c-0.5-0.5-5.3-2-10.5-0.5s-8,4.5-10.8,4s-4-1.5-4-0.8c-0.3,0.5,1.3,3.5,4,3.8c-1.5,2.3-1.5,18.8-7,23.5
		C27.8,36.5,19.1,43.5,13.6,41z"/>
	<path fill="#181817" d="M19.8,50.5c1.8,1.8,4,3.5,5.8,4.5c0.5,0.3,1,0.5,1.3,0.5c9,1.5,17-3,20-6.5c4.8-5.5,5-11.8,5.3-11.5
		c0.5-4.3,0.5-4.3,0.5-4.3c0.3-8.3-5.8-13.3-6-12c0,1.3,1.3,7-3.8,14.8C38.6,42.5,23.6,46.3,19.8,50.5z"/>
	<path fill="#181817" d="M52.6,24.3c14.3,9.5,14.3,9.5,14.3,9.5s-0.3,12.8-4.5,13.5c-3.5,0.3-3.5-5.5-3.5-5.5s-2.3,4.8-4,2.8
		c-1.5-2-0.8-5.5-0.5-6c-0.3,0.8-1.3,5-4,4C48.3,38.3,52.6,24.3,52.6,24.3z"/>
	<path fill="#F7DB92" d="M51.8,31.8c-0.5,3-0.5,5.5,0.3,5.8c1.8,0.3,4.3-4.8,4.3-4.8s-0.8,6.8,0.8,8c1.3,1.3,2.5-4.8,2.5-4.8
		s1.5,9.8,3.3,8.3s3.3-8.5,3.3-8.5s2.5,4,3,2.8c0.3-0.8,0.3-3,0-5.8c0-2.5-0.5-5.5-1-7.5c-1-4.8-3.8-11.3-3.8-11.3s0-0.3-0.3-1
		c-0.8-2.5-2.3-9-2-10.3c0,0-3.3-1.5-8-0.5l0,0c-4.5,1-6,3.3-6.5,6.3c-0.3,2.8,4.8,11,4.8,14.5C52.6,24.8,52.1,28.5,51.8,31.8z"/>
	<path fill="#EF2D34" d="M56.3,14.3c0,0-0.8,2.3,0,4.3c0.8,2.3,1.8,6,2.5,5.5c1-0.5,1.3-3.8,1.3-3.8s1.5,5.3,2,5
		c0.8-0.3,1.3-4,1.3-4s2.3,5,2.5,3.8c0.5-1.3,0-4.3,0-4.3s1.3,2.8,1.5,2c0.5-0.8-2-8.5-2-8.5C56.3,14.3,56.3,14.3,56.3,14.3z"/>
	<path fill="#4A7669" d="M52.8,10.3c1,3,3,3,3,3c1.8,1.3,6.3,0.3,8.3-0.3c-0.8-2.5-2.3-9-2-10.3c0,0-3.3-1.5-8-0.5l0,0
		c-1,0.8-1.8,1.3-1.8,2C52.1,5.5,51.6,7.3,52.8,10.3z"/>
	<path fill="#F7C020" d="M61.1,9.8c0.3,0,0.5,0,0.5,0c2,0.5,4.5-1.8,5-3s-1-4.8-1-4.8s0-1-0.5-1.3c-0.3,0-0.3-0.3-0.5-0.3
		c-1.3,0-2.3,0.3-3,1.5S61.8,8.8,61.1,9.8z"/>
	<path fill="#E3AD25" d="M62.8,6.5c-0.3,1-0.8,2.3-1.3,3.3c2,0.5,4.5-1.8,5-3s-1-4.8-1-4.8s0-1-0.5-1.3c-0.5,0-1,0.3-1.3,0.5
		C62.8,2.3,62.8,5,62.8,6.5z"/>
	<path fill="#F7C020" d="M61.8,18c4.5,0,10-4.3,13.5-7c0.3-0.3,0.5-0.5,0.8-0.5c3.5-2.5,6.3-3,6.3-3.3c-1.3-1.8-4.3-2-6-1
		c-1.8,0.8-3.5,1.5-5.3,2.3c-2.5,1-5,1.8-7.5,2.5c-1.3,0.5-2.8,1-4,1.3c-0.5,0.3-4.3,0.8-4.5,1c0,0.3,0,0.3,0,0.3
		C54.8,16,57.6,17.8,61.8,18z"/>
	<path fill="#C3971A" d="M59.1,14.8c-1.5,0-2.8-0.3-4-1.3c0-0.3,0-0.3,0-0.3l0,0c0,0,0.8,0.8,3.3,0.8c0.8,0,1.8-0.3,2.8-0.3
		c3.5-0.5,8.8-3.3,12.3-4.8c1.5-0.8,3-1.3,3.8-1.3c0.3,0,0.5,0,0.5,0c0.5-0.3,0.8-0.3,1.3-0.3c0,0,0.3,0,0.5,0l0,0l0,0l0,0l0.3,0.3
		c0.3,0,0.5,0,0.8,0l0,0c0.3,0,0.5,0,0.8,0c-1,0.5-3,1.3-5,2.8l0,0c-2.3,0.3-5.8,1-9.5,2.5C63.6,14.3,61.1,14.8,59.1,14.8z"/>
	<path fill="#5E86B6" d="M55.1,13.3c0,0,1,1,6,0.5c3.5-0.5,8.8-3.3,12.3-4.8c-0.8-3.3,0.8-6.5,2-8.8c-3,0.3-6,1-7.3,1
		c-1.8,0-3.3,0-3.5,2.8s-0.3,3.8-2.5,4.8c-2,0.8-5.5,1-6.5,3.3l-0.3,0.3C55.1,13.3,55.1,13.3,55.1,13.3z"/>
	<path fill="#EF2D34" d="M73.3,9c1.5-0.8,3-1.3,3.8-1.3c0.8-0.3,1.5-0.3,2.3-0.3c0.3,0.3,0.5,0.3,0.8,0.3h0.3c0.5,0,1,0,1.3,0
		C81.8,8,81.8,8,81.8,8c0.3,0,0.5,0,0.8,0c0,0.3,0,0.3,0,0.3c0.3,0,0.5,0,0.8,0.3c0.3,0,0.3,0,0.3,0c0.3,0.3,0.3,0.3,0.3,0.3
		c0.3,0,0.3,0,0.3,0l0,0c0,0.3,0,0.3,0,0.3c0.3,0,0.3,0,0.3,0c0,0.3,0,0.3,0,0.3l0,0c0.3,0,0.3,0,0.3,0l0,0c0,0.3,0,0.3,0,0.3l0,0
		c0,0.3,0,0.3,0,0.3l0,0c0.3,0,0.3,0.3,0.3,0.3c0.8-1.5,1.3-3,0.3-6c0-0.3,0-0.3-0.3-0.5c0-0.3,0-0.3,0-0.3l0,0c0-0.3,0-0.3,0-0.3
		c-0.3,0-0.3,0-0.3,0c-0.3-0.3-0.3-0.3-0.3-0.3c0-0.3,0-0.3,0-0.3l0,0c-0.3-0.3-0.3-0.3-0.3-0.3l0,0C83.8,2,83.8,2,83.8,2l0,0
		c-0.3-0.3-0.3-0.3-0.3-0.3c-0.3-0.3-0.3-0.3-0.3-0.3l0,0c-0.3,0-0.3,0-0.3,0c0-0.3-0.3-0.3-0.3-0.3C82.6,1,82.6,1,82.6,1
		c-0.3,0-0.3,0-0.3,0c-0.3-0.3-0.3-0.3-0.3-0.3c-0.3,0-0.3,0-0.3,0h-0.3c-0.3-0.3-0.3-0.3-0.3-0.3l0,0c-0.3,0-0.3,0-0.3,0h-0.3
		c-0.3,0-0.3,0-0.3,0l0,0l-0.3-0.3c-0.3,0-0.3,0-0.5,0s-0.5,0-1,0c0,0-0.3,0-0.3-0.3l0,0c-0.3,0-0.5,0-0.5,0c-0.3,0-0.3,0-0.5,0
		c-0.8,0-1.5,0.3-2.3,0.3C74.1,2.5,72.6,5.8,73.3,9z"/>
	<path fill="#1C2123" d="M79.3,7.5c2.5,0.3,5.3,0.8,5.5,2.5c0.8-1.5,1.3-3,0.3-6c-0.3-0.8-0.8-1.5-1.3-2c-1,0.3-2.5,1.3-3.5,3
		C79.8,5.8,79.6,6.8,79.3,7.5z"/>
	<path fill="#3F3334" d="M72.3,2.3c0,0.5-3,2-3.8,1.3C67.8,3,72.1,1.8,72.3,2.3z"/>
	<path fill="#A47D1E" d="M58.3,14c-2.5,0-3.3-0.8-3.3-0.8l0,0l0,0C55.1,13.3,55.8,14,58.3,14c0.8,0,1.8-0.3,2.8-0.3
		c3.5-0.5,8.8-3.3,12.3-4.8l0,0c1.5-0.8,3-1.3,3.8-1.3c0.3,0,0.5,0,0.5,0s-0.3,0-0.5,0c-0.8,0-2.3,0.5-3.8,1.3
		c-3.5,1.5-8.8,4.3-12.3,4.8C60.1,13.8,59.1,14,58.3,14z"/>
	<path fill="#4E6F98" d="M58.3,14c-2.5,0-3.3-0.8-3.3-0.8l0,0l0,0c0-0.3,0-0.5,0.3-1c0.5,0.3,1.3,0.3,1.8,0.3c2,0,4.3-0.5,6.3-1.3
		c2-0.5,6-2.8,9.8-4.5c0,0.3,0,0.3,0,0.5c0,0.5,0.3,1,0.3,1.8c-3.5,1.5-8.8,4.3-12.3,4.8C60.1,13.8,59.1,14,58.3,14z"/>
	<path fill="#CB2A2C" d="M73.3,9L73.3,9c0-0.8-0.3-1.3-0.3-1.8c0-0.3,0-0.3,0-0.5c2.8-1,5.3-2,6.8-2c0.3,0,0.5,0,0.5,0
		c0,0.3,0,0.3,0,0.3c-0.5,0.8-0.8,1.8-1,2.5c-0.3,0-0.5,0-0.5,0c-0.5,0-0.8,0-1.3,0.3c0,0-0.3,0-0.5,0C76.3,7.8,74.8,8.3,73.3,9z"/>
	<path fill="#D5CD8D" d="M84.8,10V9.8l0,0V10L84.8,10z M84.6,9.5L84.6,9.5L84.6,9.5L84.6,9.5z M83.3,8.5c-0.3-0.3-0.5-0.3-1-0.5l0,0
		c0.3,0,0.3,0,0.3,0l0,0C82.8,8.3,83.1,8.3,83.3,8.5L83.3,8.5z M81.8,8L81.8,8L81.8,8L81.8,8L81.8,8z"/>
	<path fill="#CB2A2C" d="M84.8,10L84.8,10L84.8,10L84.8,10L84.8,10z M84.6,9.8L84.6,9.8V9.5l0,0l0,0c-0.3-0.5-0.8-0.8-1.3-1l0,0
		c0.8,0.3,1.3,0.8,1.5,1.3H84.6z M82.6,8L82.6,8L82.6,8z M82.3,8L82.3,8c0,0-0.3,0-0.5,0l0,0C82.1,8,82.3,8,82.3,8z M81.8,8L81.8,8
		c-0.5-0.3-0.8-0.3-1.3-0.3C81.1,7.8,81.3,7.8,81.8,8z"/>
	<path fill="#191C1D" d="M84.8,10L84.8,10L84.8,10V9.8c-0.3-0.5-0.8-1-1.5-1.3c-0.3-0.3-0.5-0.3-0.8-0.5l0,0c0,0,0,0-0.3,0
		c0,0-0.3,0-0.5,0l0,0c-0.5-0.3-0.8-0.3-1.3-0.3s-0.8,0-1.3-0.3c0.3-0.8,0.5-1.8,1-2.5c0,0,0,0,0-0.3c0.5,0,0.8,0.3,1,0.3
		C84.8,6.8,85.1,9.5,84.8,10L84.8,10z"/>
	<path fill="#1C2123" d="M52.8,9.3c0.5,4,5,4.5,8,3.8c3.3-1,6.5-2.5,9.5-3.8c3-1,6-2.3,9-2.5c2.3,0,5,2,5.3,4.5c0.3,0.3,0-0.8,0-1
		c-1.5-3.5-6.3-2-9.3-1.3c-3.3,0.8-6.5,2.3-9.8,3.5c-2.8,1.3-6,2.5-9,1.8c-2.3-0.5-4.3-2.5-4.3-5C52.3,9,52.8,9,52.8,9.3z"/>
	<path fill="#1C2123" d="M54.8,10.3c0,0-1.8-2.3-2.5-1.5c-1,0.8-1.5,3.5-1,3c0.8-0.3,1.3-2.5,1.3-2.5S55.1,10.8,54.8,10.3z"/>
	<path fill="#F6C94B" d="M52.1,37.5c1.8,0.3,4.3-4.8,4.3-4.8s-0.8,6.8,0.8,8c1.3,1.3,2.5-4.8,2.5-4.8s1.5,9.8,3.3,8.3
		s3.3-8.5,3.3-8.5s2.5,4,3,2.8c0.3-0.8,0.3-3,0-5.8c-0.3,1.8-0.5,4-1,4c-1-0.5-2.8-4.5-2.8-4.5s-0.5,8.5-2.8,9.3
		c-1.3-0.3-2.8-9-2.8-9s-1.5,6-2.5,5.3c-0.8-1.5-0.3-7.3-0.3-7.3s-3,5-4.5,4.5c-0.5,0-0.8-1.5-0.8-3.3
		C51.3,34.8,51.3,37.3,52.1,37.5z"/>
	<polygon fill="#F7C020" points="61.1,10.8 61.1,10.8 61.1,10.8 	"/>
	<path fill="#F7DB92" d="M61.8,2.3c-0.3,0.5-0.3,5.3,0,5s0.5-4,0.8-4.8s1-1.5,1-1.5C63.3,0.8,62.1,1.8,61.8,2.3z"/>
	<path fill="#F7DB92" d="M63.3,16.8c-4.3,0.8-6.8-0.8-6.3-1.3c0.5-0.3,2.8,1,4.8,0.3c2.3-0.5,9.3-4,9.8-4
		C72.1,11.5,67.3,16,63.3,16.8z"/>
	<path fill="#FFFFFF" d="M57.3,3c1,0.3,2.8,1.3,2.8,3.3c-0.3,2-2,3.5-4.3,2.8c-2-0.8-2.3-3-1.8-4.5C54.6,3.3,56.3,3,57.3,3z"/>
	<path fill="#1E2944" d="M54.8,5.5c0,0,0.3,0,0.3,0.3l0,0c0.3,0,0.3,0,0.3,0c0.3,0,0.3,0,0.5,0.3c0.3,0,0.5-0.3,0.8-0.5
		s0.3-0.5,0.3-0.8s0-0.3,0-0.5L56.6,4c-0.3-0.3-0.3-0.3-0.3-0.3c0.3,0,0.3,0,0.5,0c1.3,0,2.5,1,2.5,2.3c0,1.5-1.3,2.5-2.5,2.5
		s-2.3-1-2.3-2.5c0-0.3,0-0.5,0-0.8C54.8,5.5,54.8,5.5,54.8,5.5z"/>
	<path fill="#1C2123" d="M47.8,21.5c1.8,1.5,3.8,9.3,0.3,16c-3.3,6.8-6.8,13-15.5,15c-9,2-13.3,0-15-2c-8.3,1-9.5-0.3-10-0.8
		c-0.8-1.3-0.8-1.3-0.8-1.3s-5.3,1-6.3-1.5c3.5-1.3,25.3-10.3,28.8-14.5c3.3-4.3,6-24,18-11H47.8z"/>
	<path fill="#293438" d="M44.8,21.8c0,0-3.5-4-6.8-1.8c-3.3,2.5-6,12.3-7.3,13.8c-4,3-22.8,11.5-22,11.8c0.8,0.5,8,0.3,11.5-1.3
		c-3.8,2-5.5,2.8-4.8,3s5.5,0,8-1c2.3-1.3,4-2.5,4-2.5s-6.3,4.5-5.5,4.8s7.5-0.8,10.8-3C36.1,43.5,48.1,32.8,44.8,21.8z"/>
</g>
</svg>
