<?xml version="1.0" encoding="utf-8"?>
<!-- Generator: Adobe Illustrator 16.0.0, SVG Export Plug-In . SVG Version: 6.00 Build 0)  -->
<!DOCTYPE svg PUBLIC "-//W3C//DTD SVG 1.1//EN" "http://www.w3.org/Graphics/SVG/1.1/DTD/svg11.dtd">
<svg version="1.1" id="Layer_1" xmlns="http://www.w3.org/2000/svg" xmlns:xlink="http://www.w3.org/1999/xlink" x="0px" y="0px"
	 width="366px" height="148px" viewBox="0 0 366 148" enable-background="new 0 0 366 148" xml:space="preserve">
<g>
	<g>
		<path fill="#363636" d="M9.5,99c0,0,3.1,22.7,4.9,22.8s10.3,0,10.3,0l1.6-23.5L9.5,99z"/>
		<path fill="#97C561" d="M161.1,5c-4.8,0-14.3,2.3-23,8.9c-1.6,1.2-2.9,3.8-4.4,5.3c-9.8,9.6-27.8,26.2-31.9,26.2
			c-4.1,0-54.3,4.3-70.6,15.9C14.7,73,15.2,77.4,14.7,81.5c-0.5,4.1-7.5,6.7-7.5,10.8s0,7,0,8.6c0,1.6,7.4,1.4,10.1,4.1
			s6.1,10.9,2.2,10.9s-6.4,0-8.2,0c-1.8,0-2.8,2-2.8,3.9c0,1.9,1,6.6,9.4,6.6c1.2,0,7.4,0,17.2,0c9.1-1.6,21.5-1.6,35.6-1.6
			c10.1,0,21.1,0,32.5,1.6c60.3,0,136.6,0,173,0c12.8-1.6,20.2-3.6,20.2-3.6s13.5-8.3,29.1-8.3c9.3,0,15.4,0.7,18.9,2.4
			c2.4,0,4,0,5.6,0c4.1,0,11.1-5.3,11.1-8.8c0-3.4,0-18.4,0-20.4c0-2-7.8-6.4-7.8-10c0-3.6,0-20.9,0-24.5c0-1-2.1-4.2-5.2-8.5
			c-3.3-4.6-9.5-9.6-13.8-15c-5.6-7-9.2-14.1-11.2-16.5c-0.4-0.4-0.6-0.7-0.8-0.8c-2.2-2.3,3.6-2.2,3.6-3.6c0-1.3-13.1-3.8-19.2-3.8
			C300.5,5,166.7,5,161.1,5z"/>
		<path fill="#89BF4E" d="M19.7,70.9c-4.7,5-4.6,7.9-4.9,10.6c-0.5,4.1-7.5,6.7-7.5,10.8s0,7,0,8.6c0,1.6,7.4,1.4,10.1,4.1
			s6.1,10.9,2.2,10.9s-6.4,0-8.2,0c-1.8,0-2.8,2-2.8,3.9c0,1.9,1,6.6,9.4,6.6c1.2,0,7.4,0,17.2,0c7.4-3.2,21.5-2.3,35.7-2.3
			c10,0,24.9,0.4,32.4,2.3c60.3,0,136.6,0,173,0c13.3,0,20.5-1.6,20.5-1.6s14-8.4,29.6-8.4c9.3,0,14.5,0.5,18,0.5c2.4,0,4,0,5.6,0
			c4.1,0,11.1-5.3,11.1-8.8c0-3.4,0-18.4,0-20.4c0-2-7.8-6.4-7.8-10c0-1.2,0-3.8,0-6.9H19.7z"/>
		<path fill="#BDBDBC" d="M244.3,45.8c2.8,16.6-2.4,57.9-2.4,58.3c-1.2,9.1-8.4,13.9-10.7,13.9H129c-3.1,0-4-3.1-4-4.7V55.7
			c0-4.7,17.8-19.4,18.6-20.1l0.5,0.6c-5.1,4.2-18.3,15.9-18.3,19.5v57.5c0,1.4,0.7,4,3.2,4h102.3c1.7,0,8.8-4.1,9.9-13.2
			c0.1-0.4,5.2-41.6,2.5-58.1L244.3,45.8z M326.7,58.6c0,4.6-3.8,8.4-8.4,8.4c-4.6,0-8.4-3.8-8.4-8.4s3.8-8.4,8.4-8.4
			C323,50.2,326.7,54,326.7,58.6z M326,58.6c0-4.2-3.4-7.6-7.6-7.6c-4.2,0-7.6,3.4-7.6,7.6s3.4,7.6,7.6,7.6
			C322.5,66.2,326,62.8,326,58.6z"/>
		<g>
			<path fill="#242424" d="M103.3,126.3v-9.4c0-18.8-15.3-34.1-34.1-34.1s-34.1,15.3-34.1,34.1v9.4
				C50.7,126.3,75.2,126.3,103.3,126.3z"/>
			<path fill="#242424" d="M310.3,82.8c-18.8,0-34.1,15.3-34.1,34.1v9.4c13.3,0,21.2,0,21.2,0s13.3-9.4,28.9-9.4c9.3,0,14.5,0,18,0
				C344.4,98.1,329.1,82.8,310.3,82.8z"/>
		</g>
		<g>
			<circle fill="#363636" cx="69.2" cy="116.9" r="29.2"/>
			<circle fill="#2E2F2F" cx="69.2" cy="116.9" r="22.7"/>
			<path fill="#C3C2C2" d="M89.6,116.9c0,11.3-9.1,20.4-20.4,20.4c-11.3,0-20.4-9.1-20.4-20.4c0-11.3,9.1-20.4,20.4-20.4
				C80.5,96.5,89.6,105.6,89.6,116.9z"/>
			<circle fill="#8C8C8C" cx="69.2" cy="116.9" r="17.9"/>
			<circle fill="#2A292A" cx="69.2" cy="116.9" r="16.1"/>
			<circle fill="#C3C2C2" cx="69.2" cy="116.9" r="3.7"/>
			<polygon fill="#C3C2C2" points="72.6,115.8 65.9,115.8 67.4,97.5 71,97.5 			"/>
			<polygon fill="#C3C2C2" points="69.2,113.4 67.1,119.7 50.2,112.6 51.3,109.2 			"/>
			<polygon fill="#C3C2C2" points="65.8,115.8 71.3,119.7 59.3,133.6 56.4,131.5 			"/>
			<polygon fill="#C3C2C2" points="67.1,119.7 72.6,115.8 82,131.5 79.1,133.6 			"/>
			<polygon fill="#C3C2C2" points="71.3,119.7 69.2,113.4 87.1,109.2 88.2,112.6 			"/>
		</g>
		<g>
			<path fill="#363636" d="M339.5,116.9c0,16.1-13.1,29.2-29.2,29.2c-16.1,0-29.2-13.1-29.2-29.2c0-16.1,13.1-29.2,29.2-29.2
				C326.4,87.7,339.5,100.8,339.5,116.9z"/>
			<circle fill="#2E2F2F" cx="310.3" cy="116.9" r="22.7"/>
			<circle fill="#C3C2C2" cx="310.3" cy="116.9" r="20.4"/>
			<circle fill="#8C8C8C" cx="310.3" cy="116.9" r="17.9"/>
			<circle fill="#2A292A" cx="310.3" cy="116.9" r="16.1"/>
			<circle fill="#C3C2C2" cx="310.3" cy="116.9" r="3.7"/>
			<polygon fill="#C3C2C2" points="313.7,115.8 307,115.8 308.5,97.5 312.1,97.5 			"/>
			<polygon fill="#C3C2C2" points="310.3,113.4 308.3,119.7 291.4,112.6 292.5,109.2 			"/>
			<polygon fill="#C3C2C2" points="307,115.8 312.4,119.7 300.4,133.6 297.5,131.5 			"/>
			<polygon fill="#C3C2C2" points="308.3,119.7 313.7,115.8 323.2,131.5 320.3,133.6 			"/>
			<polygon fill="#C3C2C2" points="312.4,119.7 310.3,113.4 328.2,109.2 329.3,112.6 			"/>
		</g>
		<g>
			<path fill="#484848" d="M310.3,18.4c-1.1-1.5-3.6-5.2-10.6-5.2s-128.7,0-128.7,0c-3.4,0-6.2,0-9.4,3.3
				c-3.2,3.3-23.5,23.6-24.8,24.8c-1.3,1.2-1.3,6.7,5.5,6.7c6.8,0,169.4,0,173.7,0s5.9-1.9,5.2-4.7
				C320.5,40.4,311.4,19.8,310.3,18.4z"/>
			<path fill="#484848" d="M323.1,13.2c-1.7,0.2-3.4,1-2.1,3.3c1.6,2.7,15.9,25,16.8,26.1c0.9,1.1,3.4,2,10.2,2
				C340.5,34.2,326.7,17.4,323.1,13.2z"/>
			<path fill="#484848" d="M114.2,46.5c1,0,2.7-0.8,5-2.9c2.3-2.1,24.4-23.8,26.4-25.6c2-1.8,3-4.1,0.4-4.1c-1.1,0-4.5,0-7.9,0
				c-1.6,1.2-3.2,2.5-4.7,4c-9.8,9.6-27.6,27.5-31.7,27.5l0,0c0.8,0.6,1.5,1,2,1C105.8,46.5,113.2,46.5,114.2,46.5z"/>
		</g>
		<path fill="#2A292A" d="M244,48c4.3,0,8.6,0,12.8,0l-3.9-34.8c-2.9,0-5.9,0-8.9,0V48z"/>
		<path fill="#FFFFFF" d="M49.5,59.5c-4.1,0.5-15.7,2.9-20.3,5.8c-4.7,2.8-12.6,16.9-6.7,16.9s9.8,0,11.3,0s9.4-2.6,13.6-8.2
			C51.5,68.4,54,58.9,49.5,59.5z"/>
		<path fill="#EF7951" d="M33.7,82.2c1.5,0,9.4-2.6,13.6-8.2c4.2-5.6,6.7-15.1,2.2-14.5c-1.6,0.2-4.3,0.7-7.3,1.4
			C37.2,65.3,30.1,73,30.1,82.2C31.8,82.2,33,82.2,33.7,82.2z"/>
	</g>
	<path fill="#EF7951" d="M353.3,77.7c0-3,0-15.7,0-21.8h-6.8c-1.5,0-2.7,1.2-2.7,2.7v16.6c0,1.5,1.2,2.7,2.7,2.7L353.3,77.7
		C353.3,77.8,353.3,77.8,353.3,77.7z"/>
	<path fill="#DB5524" d="M353.3,77.7c0-1.2,0-3.8,0-6.9h-9.4v4.3c0,1.5,1.2,2.7,2.7,2.7L353.3,77.7
		C353.3,77.8,353.3,77.8,353.3,77.7z"/>
	<polygon fill="#8A8A8A" points="193.9,48 182.9,48 203.4,13.2 214.4,13.2 	"/>
	<polygon fill="#8A8A8A" points="215.6,48 208.4,48 228.9,13.2 236.1,13.2 	"/>
</g>
</svg>
