<?xml version="1.0" encoding="utf-8"?>
<!-- Generator: Adobe Illustrator 16.0.0, SVG Export Plug-In . SVG Version: 6.00 Build 0)  -->
<!DOCTYPE svg PUBLIC "-//W3C//DTD SVG 1.1//EN" "http://www.w3.org/Graphics/SVG/1.1/DTD/svg11.dtd">
<svg version="1.1" id="Layer_1" xmlns="http://www.w3.org/2000/svg" xmlns:xlink="http://www.w3.org/1999/xlink" x="0px" y="0px"
	 width="278px" height="273px" viewBox="0 0 278 273" enable-background="new 0 0 278 273" xml:space="preserve">
<g>
	<path fill="#952A8B" d="M61.8,187.2c2.4,2.9,5.3,5.7,6.3,9.5c2.8,9.7-9.5,19.2-6.5,28.7c0.3,1,0.8,2.2,1.8,2.7c3.3,2,6.3-2.5,7.5-6
		c2.8-6.7,7.3-12.5,13.3-16.7c-0.8,10.7,1.5,21.5,6.5,30.7c7-4.2,5-18.5,13-19.5c3.5-0.3,6.3,2,8.8,4.2c6.8,6,14,11.5,22.3,14.5
		c8.3,3,18.3,3.2,25.8-1.5c6.3-3.7,10.3-10,13.8-16.2c5.5-9.2,10.5-19.2,10-30c-1-18.2-18.1-31.2-34.6-39.2
		c-24.1-11.7-51.2-14.7-77.3-7.2C51.7,147.2,48.2,170.4,61.8,187.2z"/>
	<path fill="#B547A6" d="M18.1,205.7c2.8-4,2.8-10.5,3.5-15.2c0.5-4.7,1.5-9.5,2.3-14.2c1-5.2,2.3-10,4-15c2.5-7,4.5-11.5,1.5-19
		c-2-4.2-8-6-12.3-4.7c-13.3,3.7-16.1,24.5-16.6,36.5c-0.3,9.7,1.8,28.2,11.8,33.2C14.6,208.2,16.6,207.4,18.1,205.7L18.1,205.7z"/>
	<path fill="#C35DB3" d="M52.5,206.9c-4.3-7.7-5-18.2-6.3-26.7c-0.8-5.2-1-10.2-1-15.5c0.3-3,0-4.2,0.3-6c0-1,0.3-2,0.8-3
		c-0.5,1-0.5,1,0.3-0.3c3.5-7.2,0.3-14.2-7-17c-9.8-3.7-19.3,4.7-21.8,13.5c-2.8,9-1.3,19.5,0.3,28.5c2.8,15.2,11,32,27.8,35.2
		C50.7,216.9,55,211.7,52.5,206.9L52.5,206.9z"/>
	<path fill="#B547A6" d="M100.6,199.2c-4-2.5-8-6.7-11.5-9.7c-4.8-4.5-9.3-9.2-13.3-14.2c-3.8-4.5-7.3-9.2-10.3-14.2
		c-3-5.2-0.5-9.7-2-15c-1.5-4.2-5.5-8-10.3-7.7c-12.5,0.8-17.6,13.7-15.1,25c2.3,10,9.8,18.2,16.6,25.5c6.5,7,14.3,14,24.1,16.2
		c4,1,8.3,1.7,12.5,1c4.3-1,6-2.7,9.3-5.2C101.1,200.4,101.1,199.7,100.6,199.2L100.6,199.2z"/>
	<path fill="#C280C6" d="M234.3,24.3c8-8.2,17.3-15,27.6-20c3.8-2,8.8-3.5,11.8-0.5c3,2.7,1.8,7.7,0,11.7
		C269,26.3,261.9,36,253.4,44.2C234.3,24.3,234.3,24.3,234.3,24.3z"/>
	<path fill="#B547A6" d="M215,96.7c-2.9-0.3,0.5,6,3,7c2.8,1,5.8,0.2,8.5-0.5c7.3-1.7,14.3-4.2,20.1-9c21.3-17.2,20.8-38,8-59
		C244.6,18.8,230.1,8.8,210,15c-10,3-19.3,10.2-23.6,20c-5,10.5-10.3,20.2-6.3,31.2C184.2,77.2,203.5,95.7,215,96.7z"/>
	<path fill="#C35DB3" d="M221,170.9c13.8-5.2,25.3-16.5,30.6-30.2c5.5-14.7,3.8-31.7-2.3-46.2c-6-14.7-16.3-27.2-27.6-38.2
		c-14-13.2-30.6-24.7-49.7-28.7c-26.1-5-54.7,9.2-69,31.2c-3.3,5-6,11.2-3.8,17c4.8,12.5,12.5,21,23.3,29
		c23.8,17.7,45.4,38.2,64.5,61.2C221,170.9,221,170.9,221,170.9z"/>
	<path fill="#C280C6" d="M55.5,114.2c4.9,9,13.8,15.2,22.1,21.5c14.5,10.7,28.3,22.5,40.1,35.7c13.3,15,24.1,32.2,39.4,45.2
		c15.1,12.7,36.9,20.7,55.2,13c21.8-9.5,29.8-37,25.6-60.2c-10-56-64-81.5-107.1-108.9C109.7,47,81.6,42.7,64,64
		C52.7,77.7,46.5,97.7,55.5,114.2z"/>
	<path fill="#FFFFFF" d="M67.5,164.7c8.3-0.7,16.3-3.5,21.8-9C111.9,134.4,98.1,87.2,65,88c-19.3,0.2-33.6,12.7-39.4,30.7
		c-5,15.2,2.5,34.2,17.1,41.5C50,163.7,59,165.4,67.5,164.7z"/>
	<path fill="#1D1B19" d="M52.2,109.7c-5.8,4.3-9.3,11.7-9,19c0.3,7.2,4.5,14.2,10.8,18.2c11.8,7,32.1,8,39.4-6
		c5.5-10.2,2.3-26-7.3-32.7C76.1,101,62,102.5,52.2,109.7z"/>
	<path fill="#FFFFFF" d="M69.8,125.5c1.7,3.5,5.8,5.7,9.8,5.7c3.8-0.3,7.5-3,9-6.7c1.8-3.5,1-8-1.5-11.2
		C79.6,104.5,65,115.7,69.8,125.5z"/>
	<path fill="#B547A6" d="M214,263.4c9.8-5,12-23.5,11.5-33.2c-0.3-11.7-3-32.7-16.3-36.5c-4-1.2-10.5,0.5-12.3,4.7
		c-3.3,7.5-1,12,1.5,19c1.8,5,3,9.7,4,15c0.8,4.7,1.5,9.5,2.3,14.2c0.8,4.7,0.8,11.2,3.5,15.2C209.8,263.6,211.8,264.4,214,263.4
		L214,263.4z"/>
	<path fill="#C35DB3" d="M180.7,271.9c16.8-3.2,25.1-19.7,27.8-35.2c1.5-8.7,3-19,0.5-27.7c-2.5-9-12-18.2-22.1-14.2
		c-7.3,2.7-10.8,9.7-7,17c0.8,1.3,0.8,1.3,0.3,0.3c0.5,1,0.8,2,0.8,3c0.3,1.7,0,3,0,6c0,5.2,0,10.2-0.8,15.5c-1.3,8.5-2,19-6.3,26.7
		C171.4,267.9,175.6,273.1,180.7,271.9L180.7,271.9z"/>
	<path fill="#B547A6" d="M125.7,256.9c3.3,2.5,5,4.2,9.3,5.2c4,0.7,8.5,0,12.5-1c9.5-2.2,17.6-9,24.1-16.2
		c6.8-7.2,14.3-15.5,16.6-25.5c2.5-11-2.8-24.2-15.1-25c-4.8-0.3-9,3.5-10.3,7.7c-1.5,4.7,0.8,9.2-1.5,14c-2.8,5.2-7,10.7-10.8,15.2
		c-4,4.7-8,9.2-12.5,13.5c-3.5,3.5-8,8-12.3,10.5C125.2,255.9,125.2,256.6,125.7,256.9L125.7,256.9z"/>
	<path fill="#FFFFFF" d="M148.8,209.9c10.3-0.7,20.3-4.5,27.3-11.2c28.1-26.5,11-85.7-30.6-84.7c-23.8,0.5-41.9,16.2-49.2,38.5
		c-6,19.2,3.3,43,21.6,52C126.7,208.7,138,210.7,148.8,209.9z"/>
	<path fill="#1D1B19" d="M129.7,141.2c-7.4,5.4-11.8,14.7-11.3,23.7c0.5,9.2,5.5,18,13.5,22.7c14.5,8.7,39.9,10,48.9-7.2
		c7-13,3-32.5-8.8-41C159.6,130.4,141.8,132.4,129.7,141.2z"/>
	<path fill="#FFFFFF" d="M151.6,160.9c2.2,4.5,7.3,7.2,12,7c5-0.2,9.8-3.5,11.5-8c2-4.7,1-10.2-2-14.2
		C163.9,134.7,145.5,148.7,151.6,160.9z"/>
	<path fill="#E2B0DC" d="M112.9,72.7c0.8-16.7-23.8-17.2-30.4-5c-2.3,4.2-4.3,10-1.3,14c1.5,1.5,3.5,2.5,5.8,3
		c5.3,1.7,11,2.2,16.3,0.3C108.4,83.2,112.7,78.2,112.9,72.7z"/>
	<path fill="#E2B0DC" d="M124.7,72.7c2.3-0.8,5-0.5,7,2.7c1.5,2.5,1.5,5.5,0,7.7c-1.5,3-4.8,5-8.5,4.2
		C113.7,86.2,118.5,75,124.7,72.7z"/>
</g>
</svg>
