<?xml version="1.0" encoding="utf-8"?>
<!-- Generator: Adobe Illustrator 16.0.0, SVG Export Plug-In . SVG Version: 6.00 Build 0)  -->
<!DOCTYPE svg PUBLIC "-//W3C//DTD SVG 1.1//EN" "http://www.w3.org/Graphics/SVG/1.1/DTD/svg11.dtd">
<svg version="1.1" id="Layer_1" xmlns="http://www.w3.org/2000/svg" xmlns:xlink="http://www.w3.org/1999/xlink" x="0px" y="0px"
	 width="309px" height="267px" viewBox="0 0 309 267" enable-background="new 0 0 309 267" xml:space="preserve">
<g>
	<path fill="#CE1E25" d="M34,227.3c-6.2,7.6-14.3,22.4-5.7,31.1c13.4,12.8,14.6-5.9,19-13.6c5.7-10.1,15.8-17.8,27.2-20
		c3.7-0.7,7.7-0.7,11.4-2.5c16.1-6.7-2-21.9-13.1-19.7C59.2,205.1,42.4,217,34,227.3z"/>
	<path fill="#CE1E25" d="M30.3,183.9c-8.7,4.7-21.8,15.8-16.8,26.9c7.4,17,15.6,0,22.5-5.4c9.1-7.4,21.5-10.6,32.9-8.4
		c3.7,0.7,7.4,2,11.4,2c17.6-0.2,6.7-21.2-4.7-23.4C62.2,173.1,42.2,177.5,30.3,183.9z"/>
	<path fill="#CE1E25" d="M31.6,140.8c-9.7,1.4-25.7,7.1-25,19.2c1,18.5,14.6,5.4,23,2.7c11.1-3.7,23.7-2.5,33.6,3.5
		c3.2,2.2,6.4,4.7,10.1,5.9c16.3,5.7,13.4-17.5,3.7-23.4C65.2,141.5,44.9,138.8,31.6,140.8z"/>
	<path fill="#CE1E25" d="M278.8,214c6.3,7.8,14.3,22.7,5.7,31.3c-13.4,12.8-14.6-5.9-19-13.6c-5.7-10.1-15.6-17.8-27.2-20
		c-3.7-0.7-7.7-1-11.4-2.5c-16.1-6.9,2-21.9,13.1-20C253.6,192.1,270.4,203.6,278.8,214z"/>
	<path fill="#CE1E25" d="M282.5,170.9c8.7,4.7,21.8,15.5,16.8,26.9c-7.4,16.8-15.6,0-22.5-5.7c-9.1-7.1-21.5-10.6-32.9-8.1
		c-3.7,0.7-7.4,2-11.4,2c-17.6-0.5-6.4-21.2,4.7-23.4C250.6,159.8,270.7,164.4,282.5,170.9z"/>
	<path fill="#CE1E25" d="M281.3,127.7c9.6,1.4,26,7.1,25.2,19.2c-1.2,18.5-14.6,5.4-23.2,2.7c-10.9-3.7-23.7-2.7-33.6,3.5
		c-3.2,2-6.4,4.7-9.9,5.9c-16.6,5.7-13.6-17.8-4-23.7C247.7,128.2,268,125.7,281.3,127.7z"/>
	<path fill="#A91C22" d="M125.3,73.5c-1.6,5.2-1.7,10.8-2.2,16c-0.5,6.4-0.7,12.6-1.2,18.7c-0.7,8.9,12.9,8.6,13.6,0
		c1.2-11.1,2.5-22.4,2.7-33.5c0.5-11.3-17.1-11.3-17.3,0c-0.2,11.1,0.2,22.4,1,33.5c4.5,0,9.1,0,13.6,0c-0.2-5.7-0.7-11.1-0.7-16.8
		c0-5.9,0.2-12.1-0.7-18C132.9,68.8,126.5,69.5,125.3,73.5z"/>
	<path fill="#A91C22" d="M188.8,64.8c-3.5,4-4.5,9.4-5.9,14.3c-1.5,5.4-3.2,11.1-4.7,16.8c-2.2,7.9,10.1,11.3,12.4,3.5
		c3-10.1,5.9-20,8.2-30.1c2.2-9.6-12.6-13.6-14.8-3.9c-2.2,10.1-4,20.2-5.7,30.6c4.2,1.2,8.2,2.2,12.4,3.5c1-5.9,2.2-11.6,3.2-17.3
		c0.7-5.2,2-10.6,1-15.8C194,64.1,190.6,62.9,188.8,64.8z"/>
	<path fill="#CE1E25" d="M46.1,90.7c0.2-2,0.7-4.2,1.7-6.2c1-1.7,2.5-3.2,4.2-4.4c5.7-4.2,13.4-4.9,20-3c6.4,2,12.1,6.9,15.3,12.8
		c1.5,2.7,2.7,5.7,2.7,8.9c0.2,4.2-1.5,8.1-3.2,12.1c-1.7,3.7-3.7,7.6-6.7,10.4C63.9,135.1,44.9,104.5,46.1,90.7z"/>
	<path fill="#E82D3D" d="M79,92c-7.2,6.9-18.8,9.9-28.7,8.1C33.3,96.9,22.9,89,13.7,74.2C2.6,56.7,7.3,31.3,23.9,18.7
		c3.2-1.2,5.4,3.2,5.4,6.7c-0.2,3.2-1,7.1,1.7,9.4c1.5,1.5,4.2,1.5,5.7,3c4,3.2-0.2,9.9,2,14.5c2.5,5.9,13.1,5.2,14.3,11.3
		c3.5-6.2,2.2-14.8-2.7-20c-1-1-2.2-2.2-2.5-3.7c-0.2-1.2,0.2-2.5,0.2-3.7c0-3.9-4.9-5.9-7.4-9.1c-3.2-4.4-1.2-11.1,3.2-14.3
		c4.2-3.5,10.1-3.7,15.6-2.7c12.9,2.5,24,12.1,29.4,24.2c5.4,11.8,5.4,25.9,1.5,38.5C88.2,79.9,84.5,86.8,79,92z"/>
	<path fill="#CE1E25" d="M225.4,62.9c1.8-0.9,3.7-1.7,5.9-2c2.2,0,4.2,0.5,6.2,1.2c6.4,2.5,11.4,8.4,13.4,14.8
		c1.7,6.7,0.7,14.1-2.5,20.2c-1.5,2.7-3.2,5.2-5.9,6.9c-3.5,2.5-7.7,3.2-11.9,3.9c-4.2,0.5-8.4,1-12.4,0
		C197.7,101.8,212.8,69.3,225.4,62.9z"/>
	<path fill="#E82D3D" d="M61.7,154.8c-1.1-20.5,10.1-46.6,30.7-54c13.8-5.2,32.4-5.7,47.2-7.4c15.3-2,30.9-3,46.2-2.7
		c31.7,1,56.9,18,61.6,50.5c3.2,20.7,2.2,55.5-11.4,73c-29.7,37-100.1,41.2-139.7,19.5c-12.6-6.9-26.2-19-30.9-33
		C61,187.4,62.5,169.1,61.7,154.8z"/>
	<path fill="#E82D3D" d="M242.2,91c-9.7-2.3-18.5-10.4-22.3-19.5c-6.9-16-5.7-29.1,1.5-44.9C230.4,7.9,254.4-2,273.9,4.9
		c2.7,2.2,0.2,6.4-2.7,8.1c-2.7,1.7-6.7,3.2-6.9,6.7c-0.5,2.2,1,4.2,0.7,6.4c-0.7,5.2-8.7,5.2-11.4,9.4c-3.5,5.4,3,14.1-1.7,18.2
		c7.2-0.5,13.6-5.9,15.3-13.1c0.5-1.5,0.5-3.2,1.7-4.2c1-0.7,2.2-1,3.2-1.5c3.5-2.2,2.5-7.6,4-11.3c1.7-5.2,8.7-7.1,13.6-5.2
		c5.2,1.7,8.7,6.7,10.6,11.6c5.2,12.1,3,26.6-4.2,37.7s-19,18.7-31.7,22.2C257.3,92,249.7,92.7,242.2,91z"/>
	<path fill="#CE1E25" d="M112.4,79.6c-8.3-6.2-15.6-17.5-14.6-27.9c0.5-6.9,5.2-13.3,11.1-17c5.7-3.9,13.1-5.7,20-5.7
		c4.2-0.2,8.4,0.2,12.4,1.7c7.4,3,12.6,9.9,14.3,17.5c2.5,11.3-2.5,26.4-13.1,31.6c-9.1,4.7-17.3,7.1-27,1.7
		C114.6,81.1,113.4,80.4,112.4,79.6z"/>
	<path fill="#FFFFFF" d="M149,63.4c1.2-4.7,1-9.6-1.2-14.5c-3.7-7.6-12.4-14.1-21-14.1c-12.1,0-20.5,11.3-19,22.7
		c1.2,11.8,11.4,25.1,24.5,23.2C141.1,79.4,146.8,71.7,149,63.4z"/>
	<path fill="#1D1B19" d="M122.6,51.5c-7.9,7.1-4.7,20.7,5.2,23.9c6.4,2,12.1,0,16.1-5.7c2.5-3.2,2.7-7.6,1.5-11.6
		c-2.7-7.6-11.6-12.8-19.3-8.9C124.8,49.8,123.5,50.5,122.6,51.5"/>
	<path fill="#FFFFFF" d="M139.6,55.7c-2.2-0.7-4.9-0.5-6.7,1.5c-0.7,0.7-0.7,1.7-0.7,2.5c0,2.2,1.7,4.2,4,4.7c2,0.5,4.5-0.7,5.4-2.5
		C143.3,58.7,141.8,56.5,139.6,55.7z"/>
	<path fill="#CE1E25" d="M178.4,72c-8.9-6.7-16.8-18.7-15.6-29.6c0.7-7.4,5.4-14.1,11.6-18c6.4-4.2,13.8-5.9,21.5-6.2
		c4.5,0,8.9,0.2,12.9,2c7.9,3,13.6,10.4,15.3,18.5c2.5,12.1-2.5,27.9-14.1,33.5c-9.4,4.9-18.3,7.4-28.4,2
		C180.7,73.5,179.4,72.7,178.4,72z"/>
	<path fill="#FFFFFF" d="M217,54.7c1.3-5.2,1.2-10.4-1.2-15.3c-4-8.4-12.9-15-22.3-15c-12.6,0-21.8,12.1-20.3,24.2
		c1.5,12.6,12.1,26.4,26,24.4C208.9,71.7,214.8,63.6,217,54.7z"/>
	<path fill="#1D1B19" d="M189.1,42.2c-7.9,7.9-4.9,21.9,5.4,25.4c6.9,2.2,13.1-0.2,17.1-5.9c2.5-3.5,3-8.4,1.5-12.3
		c-2.7-8.1-12.1-13.6-20.5-9.6C191.3,40.4,190.1,41.2,189.1,42.2z"/>
	<path fill="#FFFFFF" d="M207.1,46.6c-2.2-0.7-5.2-0.5-7.2,1.7c-0.5,0.7-0.7,1.7-0.7,2.5c0.2,2.5,2,4.4,4.2,4.9s4.7-0.7,5.9-2.7
		C211.1,49.8,209.6,47.3,207.1,46.6z"/>
	<path fill="#ED4E6D" d="M230.4,139.5c1.3-10.1-2.7-22.7-12.4-26.9c-3.2-1.2-8.2-3.9-11.6-2c-2.7,1.7-3.5,6.7-2.7,9.4
		c1.5,6.7,8.7,10.4,10.4,17c0.7,2.7-0.2,6.4,1.2,8.6C220,153.1,229.6,145.5,230.4,139.5z"/>
	<path fill="#ED4E6D" d="M196.5,99.9c-7.5-2.6-14.1,8.1-6.7,12.3C198,117.1,205.6,103.1,196.5,99.9z"/>
</g>
</svg>
