<?xml version="1.0" encoding="utf-8"?>
<!-- Generator: Adobe Illustrator 16.0.0, SVG Export Plug-In . SVG Version: 6.00 Build 0)  -->
<!DOCTYPE svg PUBLIC "-//W3C//DTD SVG 1.1//EN" "http://www.w3.org/Graphics/SVG/1.1/DTD/svg11.dtd">
<svg version="1.1" id="Layer_1" xmlns="http://www.w3.org/2000/svg" xmlns:xlink="http://www.w3.org/1999/xlink" x="0px" y="0px"
	 width="157px" height="80px" viewBox="0 0 157 80" enable-background="new 0 0 157 80" xml:space="preserve">
<g>
	<path fill="#F2576E" d="M27.6,39.3c-4.8-2.3-14-3.5-14-3.5c4,10,24.5,11,24.5,11S32.6,41.8,27.6,39.3z"/>
	<path fill="#FFFFFF" d="M3.1,26.5c-0.3-0.3,3.3-2,3.5-0.8c0.3,1-1,3.8-1,3.8s3.5-1.8,3.8-1c0.5,1-1.3,4-0.8,3.8
		c0.3-0.3,2.3-1.5,3.3-0.8c1,0.5-0.5,3.5-0.5,3.5s3.3-1.8,3.8-0.8S14.9,38,14.9,38s3.3-1.8,3.5-1s0.3,3.3,0.3,3.3s2.8-2,3.3-1
		c0.8,1,0.8,3.3,0.8,3.3s1.5-2.3,2.5-1.3c0.8,0.8,1.5,3.3,1.5,3c0,0,2.3-2.3,2.8-1.3s0.5,2.3,0.5,2.3s1.8-2.3,2-1.5
		c0.3,1,0.3,2,0.3,2S11.1,42,3.1,26.5z"/>
	<path fill="#FFFFFF" d="M8.6,6.3c0,0-4,2.5-3.3,3.3C5.9,10.3,9.9,10,9.9,10s-4,3.3-3,3.8c0.8,0.5,4.3,0.5,4.3,0.5s-3.5,3-2.3,3.5
		s4.3,0.3,4.3,0.3s-3.3,3-3,3.5c0.3,0.8,4.5,0,4.5,0s-2.5,3.8-1.8,4c0.5,0.5,4.5-0.3,4.5-0.3s-2.3,3.5-1.5,4
		c0.8,0.8,4.5-0.8,4.5-0.8s-2.5,3-2,4c0.3,1,5.3-1,5.3-1s-1.8,4.3-1.3,4.8c0.8,0.3,4.8-1,4.8-1s-2.3,4.8-0.5,5
		c1.5,0,4.3-1.3,4.3-1.3s-1.8,3.3-0.8,3.3c1,0.3,4-1.8,4-1.8s-1,4.5-0.3,4.5c1-0.3,4-2,4-2S15.1,27,8.6,6.3z"/>
	<path fill="#73C72C" d="M64.9,39.8c0.3,0,0.3,0,0.3,0l0,0H64.9z M155.9,65.8L155.9,65.8c-1-1.5-15.8-6.3-34.3-11.3
		c0-0.3,0-0.3,0-0.5c-1-1.3-2.3-2.3-3.8-2.5c-0.8-0.3-1.5,0-2.3,0c-0.5,0.3-1.3,0.8-1.8,1l0,0c-0.5-1.3-2-2.5-3-3s-2-0.8-3.3-0.5
		c-0.5,0-1,0-1.8,0c-0.5,0.3-1.5,0.8-2,0.8c-0.3-1.3-1.5-2.5-2.5-3c-0.8-0.5-1.8-0.5-2.8-0.3c-1,0-2,0.5-2.8,0.8
		c-0.8-1.8-2-3.5-4-4.3c-2.8-1-5,0.3-7.3,1.8c-0.3,0-0.3,0-0.5-0.3c-0.3-1.8-1.8-3.8-3.8-4.5c-2.5-0.8-5.3,0-7,1.8
		c-0.5-0.8-0.8-1.8-1-2.5c-0.8-1.3-1.8-2.5-3.3-2.8c-2.3-0.3-4,0.5-6,1.5c0-0.3,0-0.5-0.3-0.8c-0.3,0-0.3,0-0.3,0
		c-0.8-1.5-2.3-3-3.5-3.3c-2.5-0.8-5,0.5-6,2.5c0,0.3,0,0.5,0,0.5c-1-0.3-1.8-0.3-2.5-0.5c0.5-1.8,0.5-3.8-0.5-4.8
		c-1.8-2.8-3.8-3.3-10-1c0.3-0.8-0.3-8.3-5-8.3c-3.8,0.3-6,1.5-7,2.3c-3.5-2.5-6.8-6-10.5-10.8c1.5-2.5,1.8-4.5,0-5.8
		c-1.8-1-3.3-1.5-3.3-1.5s1.5-5.5-4.3-5.5c-1.8,0-1.8,1.3-2,4c-0.3,3,1,11.3,7.8,19.8c7,8.8,15,16.5,23.5,20
		c-5.3,1.3-16.3-1.5-25-8.3c-8.5-7-12-12.8-12.8-13c-1,0,0,6.8,4.3,12.3c2.8,3.5,6.8,9.3,13.3,14.5c3.5,2.5,7.5,5.3,12.3,7.5
		c6.3,2.8,13.3,5,20,6.8c1,0.3,2,0.5,3,0.8c0.5,0,1,0.3,1.5,0.3c4,0.8,7.5,1.5,11,2c2.3,0.5,4.5,0.8,6.5,1c3.5,0.3,13,0.5,24.3,0.5
		c3.5,0,7.3,0,11,0C131.6,69,156.9,67.8,155.9,65.8z"/>
	<path fill="#5E922F" d="M31.1,25.3c-0.3,0.3-3.3,1-3.8,4.5c-0.5,3.3,2.5,5.3,4.5,5.5s5-1.3,6-5C38.9,26.8,31.1,25.3,31.1,25.3z"/>
	<path fill="#5E922F" d="M42.4,32c-0.3,0-3.3,1-3.8,4.3c-0.5,3.5,2.5,5.3,4.5,5.5s4.8-1.3,5.8-4.8C49.9,33.3,42.4,32,42.4,32z"/>
	<path fill="#5E922F" d="M58.6,56c0,0-3,6.8-4.3,9.5c-1-0.3-2-0.5-3-0.8c-6.8-1.8-13.8-4-20-6.8c-4.8-2.3-8.8-5-12.3-7.5
		c9.8,4.8,20.8,6.8,25.3,5.5c7.3-2,9.3-5.3,9.3-5.3C58.6,56,58.6,56,58.6,56z"/>
	<path fill="#5E922F" d="M108.6,69.3c-3.8,0-7.5,0-11,0c-11.3,0-20.8-0.3-24.3-0.5c-2-0.3-4.3-0.5-6.5-1c-3.5-0.5-7-1.3-11-2
		c-1.5-0.3-3-0.8-4.5-1c-0.3-1.5-0.3-1.5-0.3-1.5c8.3-2.5,8.3-2.5,8.3-2.5c0.3,0,9.3,2.5,31,3.8c19.5,1.3,57.8,1.3,65.5,1.3l0,0
		C156.9,67.8,131.6,69,108.6,69.3z"/>
	<path fill="#5E922F" d="M108.6,69.3c-3.8,0-7.5,0-11,0c-0.5-1.3-1.3-2.8-1-3.3c0-0.8,6.3-1.8,7.3-3.5s1-3.8,0.5-4.3
		c0,0,3.8,3,3.5,5.5c-0.3,2.8-1.5,3-1.5,3C108.6,69.3,108.6,69.3,108.6,69.3z"/>
	<path fill="#5E922F" d="M66.9,67.8c-3.5-0.5-7-1.3-11-2c1.8-0.8,4.3-2.3,4.8-5c0.8-4.5,0-7-2.8-10.5c-0.5-0.8,9.3,1.5,10.3,9.8
		C68.6,63,67.9,65.8,66.9,67.8z"/>
	<path fill="#FFFFFF" d="M43.6,31.3c-1.5,0-4.5,1.5-4.5,4.8c-0.3,3,2.5,5.3,6,4.5s4.3-4.3,3.5-6.5C47.9,32,45.6,31.3,43.6,31.3z"/>
	<path fill="#361B15" d="M47.4,35.3c0,0.3-0.3,0.3-0.5,0.5l0,0c-0.3,0-0.5,0-0.5,0c-0.3,0-0.3,0-0.5,0c-0.5,0-1-0.3-1.3-0.5
		s-0.5-0.8-0.5-1.3c0-0.3,0.3-0.5,0.3-0.8s0.3-0.3,0.5-0.5l0.3-0.3c-0.3,0-0.5,0-0.8-0.3c-2,0-4,1.5-4.3,3.5c0,2,1.5,3.8,3.5,4
		c2.3,0.3,4-1.3,4.3-3.5c0-0.3,0-0.8-0.3-1.3C47.6,35.3,47.6,35.3,47.4,35.3z"/>
	<path fill="#FFFFFF" d="M33.1,24.5c-1.5,0-4.5,1.8-4.5,4.8s2.8,5.5,6.3,4.5c3.5-0.8,4-4.3,3.3-6.5C37.6,25.3,35.1,24.5,33.1,24.5z"
		/>
	<path fill="#361B15" d="M37.1,28.8c-0.3,0-0.5,0-0.5,0.3c-0.3,0-0.3,0-0.3,0s-0.3,0-0.5,0c0,0.3-0.3,0.3-0.5,0.3
		c-0.5,0-0.8-0.5-1.3-0.8c-0.3-0.3-0.3-0.8-0.3-1.3c0-0.3,0-0.5,0.3-0.8c0-0.3,0-0.3,0.3-0.5c0.3,0,0.3,0,0.5-0.3c-0.3,0-0.5,0-1,0
		c-2-0.3-3.8,1.3-4,3.3s1.3,3.8,3.5,4c2,0.3,3.8-1.3,4-3.3c0-0.5,0-1,0-1.5C37.1,28.5,37.1,28.5,37.1,28.8z"/>
	<path fill="#476C29" d="M12.4,3.8c-0.5-1-1.8-1.3-2.5-0.5C9.4,3.8,9.4,4,9.1,4.5c0,0.3,0,0.3,0,0.3V5c0.3,0.3,0.3,0.3,0.3,0.3l0,0
		c0,0.3,0,0.5,0.3,0.8s0.5,0.3,0.8,0.3c0.5,0.3,1,0,1.5,0C12.6,5.8,12.9,4.5,12.4,3.8z"/>
	<path fill="#476C29" d="M15.6,8.5c-0.3,0-0.5,0-1,0c-0.5-0.3-1.5,0-2,0.5c-0.5,1-0.5,2,0.3,2.8c0.5,0.8,1.5,1,2.3,0.8
		c1-0.3,1.5-1.3,1.8-2C16.9,9.8,16.4,9,15.6,8.5z"/>
	<path fill="#5E922F" d="M122.4,55.8c0.3-1.5-2.3-3.5-3.3-4c-1.8-1-3.8-0.5-5.5,0c-0.5-1.5-2.3-2.8-3.5-3.3c-2-1-4-0.5-6,0.3
		c-0.5-1.3-1.5-2.5-2.8-3c-0.8-0.5-2-0.5-3-0.3c-0.5,0-1,0.3-1.5,0.3c-0.3,0.3-0.5,0.3-0.8,0.5c-0.5-1.8-2.5-3.3-4-4
		c-2.8-1-5.3,0.5-7.5,1.8c-0.8-1.8-2.8-3.3-4.5-4c-2-0.8-4.3-0.5-6.3,0.5c-0.3-1.8-1.5-3.3-3-4c-1-0.5-2.3-0.5-3.5-0.3
		c-0.8,0-1.5,0.3-2,0.5c-0.8,0.3-1.3,0.8-2,1c-0.5-2-2.3-3.8-4.3-4.3c-2.8-0.8-4.5,1.5-6.5,3c-0.5,0.8-0.3,1.3,0.5,0.8
		c2-1.3,3.5-3.3,5.8-2.8s2.8,3,3.5,4.8c0.3,0,0.3,0,0.3,0c0.3,0,0.3,0,0.3,0c1-0.5,2.5-1.8,3.8-1.8c1.3-0.3,2.5-0.3,3.8,0.3
		c0.8,0.5,1.3,1.3,1.8,2.3c0.3,0.5,0.5,2,1.3,2.3c0.3,0,1-0.5,1.3-0.8c0.5,0,1-0.3,1.5-0.5c1.3-0.3,2.5,0,3.5,0.5c2,0.8,3,2.3,4,4
		l0.3,0.3c0.3,0.3,0.5,0,0.8,0c0.5-0.8,1.3-1,2.3-1.5c1.3-0.8,3-1.3,4.5-0.8c1,0.3,2,1,2.8,2c0.5,0.8,0.8,1.8,1,2.8
		c0,0,1.5-1,1.5-1.3c0.5,0,1-0.3,1.5-0.3c2.5,0,4.5,1.3,4.8,3.8c0,0.3,0.3,0.5,0.3,0.5c0.3,0,0.3,0,0.3-0.3c1-0.5,2-1.3,3.3-1.5
		c1,0,2.3,0.3,3.3,0.8s2.5,2,2.8,3c0.3,0.3,0.3,0.5,0.5,0.5h0.3c1.5-0.8,3.3-1.3,5-0.8c1.5,0.8,2.8,2.5,3.5,3.5
		C122.1,56.3,122.1,56,122.4,55.8z"/>
	<path fill="#5E922F" d="M61.9,38.5c-2.8-0.8-5.5,1.5-7,3.5c0,0.3,0.3,0.3,0.3,0.3c2-1.3,4.3-3.5,6.8-2.3c2.3,1,1.8,3.3,3,5
		c0.3,0.5,0.8,0.5,1,0C66.6,42.5,64.6,39,61.9,38.5z"/>
	<path fill="#5E922F" d="M77.1,45.5c-0.5-2-2-4-4.3-4s-4.3,1.5-5.5,3c-0.5,0.3,0,0.8,0.5,0.5c1-1.5,3-2.5,4.8-2.3c2,0,2.3,1.8,3,3.3
		C76.1,46.8,77.4,46.3,77.1,45.5z"/>
	<path fill="#5E922F" d="M88.9,50c-0.3-1.8-1.5-3.5-3.3-4.3c-0.8-0.5-1.8-0.5-2.8-0.3c-1.5,0.3-2.5,1-3.8,1.5s0,2,0.8,1.3
		c1.3-1.3,4-2,5.5-1c1.3,0.8,1.5,2.3,2.5,3.3C88.1,50.8,88.9,50.5,88.9,50z"/>
	<path fill="#5E922F" d="M96.1,47.5c-2.3-0.5-4,1-5.5,2.5c-0.3,0.3,0.3,1,0.8,0.5c1.3-0.8,3-2.3,4.8-1.5c1.3,0.8,1.5,2.3,2.5,3.3
		c0.5,0.3,1,0,1-0.5C99.6,50,97.9,48,96.1,47.5z"/>
	<path fill="#5E922F" d="M109.1,54.5c-0.8-3.5-6-4.3-8.5-2.3c-0.8,0.5,0,1.5,0.8,1c1-0.8,2.5-1,4-0.8c1.3,0.5,2,1.5,2.8,2.5
		C108.6,55.5,109.1,55,109.1,54.5z"/>
	<path fill="#B0DE65" d="M56.4,42.5c0.3-0.3,3.3-2.5,5-2c1.5,0.5,2.3,4.5,2.3,4.3c-0.3-0.3-1.8-2.5-3-3
		C59.6,41.5,56.4,42.5,56.4,42.5z"/>
	<path fill="#B0DE65" d="M68.1,45.8c0.3-0.3,3.3-2.8,5-2c1.5,0.5,2.3,4.5,2.3,4.3c-0.3-0.3-1.8-2.5-3-3
		C71.4,44.8,68.1,45.8,68.1,45.8z"/>
	<path fill="#B0DE65" d="M79.9,49.8c0.3-0.3,3.3-2.5,4.8-2c1.8,0.8,2.3,4.5,2.3,4.3s-1.8-2.5-3-3C83.1,48.8,79.9,49.8,79.9,49.8z"/>
	<path fill="#B0DE65" d="M90.6,52.3c0.3-0.3,3.3-2.5,5-2c1.5,0.5,2.3,4.5,2.3,4.3c-0.3-0.3-1.8-2.5-3-3
		C93.9,51.3,90.6,52.3,90.6,52.3z"/>
	<path fill="#B0DE65" d="M100.4,55.3c0.3-0.3,3.3-2.8,5-2c1.5,0.5,2.3,4.5,2.3,4.3c-0.3-0.3-1.8-2.5-3-3
		C103.6,54.3,100.4,55.3,100.4,55.3z"/>
	<path fill="#5E922F" d="M40.1,45.3c-3.8-2-9.3-5.8-12.5-8.5s-6.3-5.8-8.8-9c-2.8-3.5-5-7.3-7-11.3C9.9,12.3,8.4,8,8.6,3
		c0,0-0.3-0.5-0.5-0.3c-1,4,0,8.8,1.8,12.5c1.8,4.5,4.3,8.5,7.3,12.3c2.5,3.5,5.8,6.8,9.3,9.8s9.3,6.3,13.5,8.5
		C40.1,45.8,40.4,45.5,40.1,45.3z"/>
	<path fill="#5E922F" d="M39.4,45l-0.3-0.3c0,0.3,0,0.3,0,0.3S39.1,45,39.4,45L39.4,45z"/>
	<path fill="#B0DE65" d="M77.4,55.3c-0.3-0.8-1.3-1-1.8-1.3c-1-0.3-1.8-0.3-2.8-0.5c-0.5,0-0.8,0-1.3,0l0,0c-0.8,0-1.5,0.3-1.8,0.8
		c-1.3,2,2.5,2.3,3.5,2.3S77.9,57,77.4,55.3z"/>
	<path fill="#B0DE65" d="M74.1,54.8c-0.3,0-0.3,0.3,0,0.3C74.4,55.3,74.4,54.8,74.1,54.8z"/>
	<path fill="#B0DE65" d="M81.4,59c-0.8-0.5-1.5-0.8-2.3-0.5l0,0c-0.5,0-0.8,0.3-0.8,0.8c0,0.3,0.3,0.8,0.8,0.8c0.3,0,0.5,0,0.8,0
		c0.3,0.3,0.5,0.3,0.8,0.3C81.4,60.3,81.9,59.3,81.4,59z"/>
	<path fill="#B0DE65" d="M125.1,60.8c-0.3-0.5-0.8-0.5-1.3-0.5c-0.8-0.3-1.8-0.3-2.5,0l0,0c-0.5,0-1,0-1.3,0.3
		c-0.8,0.5-0.8,1.3,0,1.8c0.5,0.5,1.3,0.3,2,0.3C123.1,62.5,126.1,62.5,125.1,60.8z"/>
	<path fill="#B0DE65" d="M130.1,61.8c-0.3,0-0.5,0.3-0.5,0.5s0.3,0.5,0.5,0.5s0.5-0.3,0.5-0.5S130.4,61.8,130.1,61.8z"/>
	<path fill="#73C72C" d="M51.9,51.3c0-3,4-5.5,8-2.3c4.5,3.8,5,12.3,2.8,16.3s-6.8,9-25.5,6.3c-5-0.8,5.8-2.8,5.8-2.8
		s-11.5-1-11.3-1.8c0-1,10.3-1.8,10-1.8c-0.5,0-10.3-1.8-8.8-2.5s11.8-0.3,14.8-1.8C50.4,59.5,52.1,56.5,51.9,51.3z"/>
	<path fill="#4D8932" d="M62.6,51.5c-0.3-0.5-1-0.3-0.8,0.3c1.5,3.3,2,6.8,1,10.3c-1,3-3.3,6-6.3,7.3c-3.3,1.3-7,1.8-10.5,2
		c-3.8,0-6.3,0-9.8-0.8c-0.8-0.3-1,0.8-0.5,0.8c4.3,1,7.3,1.5,11.8,1.3c3.8-0.3,7.8-0.8,11.3-2.5C65.9,66.3,65.9,57.5,62.6,51.5z"/>
	<path fill="#4D8932" d="M42.9,68.5c-2,0-4-0.3-5.8-0.5c-2-0.3-3.5-1-5.3-1.5c-0.3,0-0.5,0.5-0.3,0.5c3.3,1.8,7.5,2.3,11.3,2
		C43.4,69,43.4,68.3,42.9,68.5z"/>
	<path fill="#4D8932" d="M42.1,65c-3.3-0.3-6.3-0.8-9.3-2.3c-0.3,0-0.5,0.5-0.3,0.5c3.3,1.3,6.3,2.3,9.5,2.3
		C42.4,65.5,42.4,65,42.1,65z"/>
	<path fill="#5E922F" d="M60.4,62c-0.3-0.8-6.8-3.5-6.3-1.8s5.3,4.8,6.3,3.8C61.1,63,60.4,62,60.4,62z"/>
	<path fill="#B0DE65" d="M56.6,54.8c-0.8-0.8-2.3-0.8-3.3-0.5c-0.3,0-0.5,0.3-0.5,0.3c-0.3,0.3-0.3,0.3-0.3,0.5
		c-0.5,1.3,2,1.8,3,1.8c0.5,0,1.3,0,1.5-0.5S57.1,55.3,56.6,54.8z"/>
	<path fill="#B0DE65" d="M59.9,52.3c-0.3-0.3-0.8-0.5-1.3-0.5c-0.3-0.3-0.8-0.3-1.3-0.3s-1,0.5-1,1c0,0.8,0.8,1,1.3,1
		c0.3,0.3,0.5,0.3,1,0.3c0.3,0,0.8,0,1.3-0.3C60.1,53.3,60.1,52.8,59.9,52.3z"/>
	<path fill="#73C72C" d="M87.9,54.3c-6.8,2.5-4.5,12,6,16c-7-0.5-17.3,0-14.8,1c1.5,0.8,6,1,9.3,1.3c0.3,0,0.3,0.3,0,0.3
		c-3.8,0.3-9,0.8-7.5,1.3s5.5,0.8,8.8,1c0.3,0,0.3,0.5,0,0.5c-3,0-6.3,0.5-5,1.3c2.3,1.5,24,1.5,25.5-0.8c1.5-2.5-8-10.3-8-10.3
		s5-2.5,4.8-4.8C106.6,59,100.1,49.8,87.9,54.3z"/>
	<path fill="#4D8932" d="M109.4,72.3c-2-2.5-4.5-4.5-6.8-6.5c2-1,4-2.5,4.5-4.8c0.3-2-1-3.5-2.8-4.5c-0.5-0.3-0.8,0.3-0.3,0.5
		c2,0.8,2.5,3.5,1.8,5c-1,1.8-2.8,2.5-4.3,3.3c-0.3,0.3-0.3,0.5-0.3,0.8c1.8,1.3,3.3,2.8,5,4.3c0.8,0.8,4.3,3.8,3.3,5.3
		c-1.5,1.3-3.5,1.5-5.5,1.5c-2.3,0.3-4.5,0.5-6.5,0.5c-4.5,0-9-0.5-13.3-1c-0.3,0-0.5,0.5,0,0.5c4.5,1,9.5,1.3,14.3,1.3
		c2.8,0,5.8,0,8.5-0.8c1-0.3,3-0.8,3.3-1.8C111.1,74.8,110.1,73,109.4,72.3z"/>
	<path fill="#5E922F" d="M87.4,61.8c-0.8,1,1.3,2.5,4,2.5s4.8,0,4-1.3C94.6,62,88.4,60.5,87.4,61.8z"/>
</g>
</svg>
