<?xml version="1.0" encoding="utf-8"?>
<!-- Generator: Adobe Illustrator 16.0.0, SVG Export Plug-In . SVG Version: 6.00 Build 0)  -->
<!DOCTYPE svg PUBLIC "-//W3C//DTD SVG 1.1//EN" "http://www.w3.org/Graphics/SVG/1.1/DTD/svg11.dtd">
<svg version="1.1" id="Layer_1" xmlns="http://www.w3.org/2000/svg" xmlns:xlink="http://www.w3.org/1999/xlink" x="0px" y="0px"
	 width="66px" height="125px" viewBox="0 0 66 125" enable-background="new 0 0 66 125" xml:space="preserve">
<g>
	<path fill="#6BA543" d="M44,121c-1.3-0.3-1.3-0.3-1.3-0.3C43,120.3,54.5,81.5,31,42c3.3-2.3,3.3-2.3,3.3-2.3
		C58.3,80.5,44,120.5,44,121z"/>
	<path fill="#D396C2" d="M33.8,41.5c0,0-7.5,3.8-13-7.5C16.3,25.5,14.5,21.8,6,22.8c0,0,3.3-6,9-4.8c0,0-1-4.3-6.3-5.8
		c0,0,6-2.8,10.5,1c0,0,0.5-8.3,5.5-9.3c0,0-1,6.5,0.8,8.5c0,0,3.5-4.8,9.8-3.8c0,0-5.5,4-4.3,9.5C33,26.8,43.5,35.3,33.8,41.5z"/>
	<path fill="#BE3D95" d="M18.3,25.8c0,1.5,4.3,7.8,5.5,10c1.8,2.8,6.3,5.5,9.5,3.3c3.5-2.3,3-5.8,1-10.3S30,18.8,29.8,18
		s-0.8,2.8,0.8,7.3c0,0-2.8-5.3-4-5.8c-1.3-0.3,3,8.3,3,8.3s-5.5-7.3-6.3-7.3c-1,0,3.8,8.5,3.8,8.5s-4.5-6.3-5.5-6.3s2.5,7,2.5,7
		s-3.3-5.5-4-5.5c-0.5-0.3,2.8,6,2.8,6S18.5,24.3,18.3,25.8z"/>
	<path fill="#6BA543" d="M47,91.8c0,0-12.3-6.3-11.5-14.8C35.5,77,44,80.8,47,91.8z"/>
	<path fill="#6BA543" d="M39.3,54.3c0,0,13.5-7,10.8-17.8C50,36.5,38.8,41,39.3,54.3z"/>
	<path fill="#6BA543" d="M46.3,74.8c0,0-3-24,13.5-33C59.8,41.8,66.8,59.8,46.3,74.8z"/>
	<path fill="#6BA543" d="M45.5,110.3c0,0,1-16.8-17-21.5C28.5,88.8,23,101.8,45.5,110.3z"/>
</g>
</svg>
