<?xml version="1.0" encoding="utf-8"?>
<!-- Generator: Adobe Illustrator 16.0.0, SVG Export Plug-In . SVG Version: 6.00 Build 0)  -->
<!DOCTYPE svg PUBLIC "-//W3C//DTD SVG 1.1//EN" "http://www.w3.org/Graphics/SVG/1.1/DTD/svg11.dtd">
<svg version="1.1" id="Layer_1" xmlns="http://www.w3.org/2000/svg" xmlns:xlink="http://www.w3.org/1999/xlink" x="0px" y="0px"
	 width="56px" height="119px" viewBox="0 0 56 119" enable-background="new 0 0 56 119" xml:space="preserve">
<g>
	<path fill="#CF202A" d="M39.3,28.8c0,0,17-9.5,13-11.5c-4.3-1.8-11.8,0-11.8,0S41.3,6.5,35.8,6c-5.5-0.5-7,9-7,9s-6-8.3-9.5-7.8
		C15.8,7.5,23.8,25,23.8,25C39.3,28.8,39.3,28.8,39.3,28.8z"/>
	<path fill="#88C881" d="M28.1,113c-0.3-0.5-13-51.8,2-77c-1.3-0.8-1.3-0.8-1.3-0.8c-15.5,26.2-4.3,71-3.8,73
		C28.1,113,28.1,113,28.1,113z"/>
	<path fill="#88C881" d="M29.6,37c0,0,6.3,0.8,9.8-8.3c0,0-8.3-6.5-15.5-3.8c0,0-3,5.5,4.5,11.8C29.6,37,29.6,37,29.6,37z"/>
	<path fill="#88C881" d="M22.3,59c0,0,15.8-5,15-16.8C37.3,42.3,24.3,44.8,22.3,59z"/>
	<path fill="#88C881" d="M24.1,90.3c0,0-2.5-8.5,4.5-12.8c7.5-4.5,8.8-7.5,8.8-7.5s2.8,7.3-1.5,12.8C31.3,88.3,25.6,87.8,24.1,90.3z
		"/>
	<path fill="#88C881" d="M22.3,73.5c0,0,0.8-9-6.3-11.5c-7.3-2.5-9-5.2-9-5.2s-1,7.7,3.8,12C15.6,73.3,20.6,71.3,22.3,73.5z"/>
</g>
</svg>
