<?xml version="1.0" encoding="utf-8"?>
<!-- Generator: Adobe Illustrator 16.0.0, SVG Export Plug-In . SVG Version: 6.00 Build 0)  -->
<!DOCTYPE svg PUBLIC "-//W3C//DTD SVG 1.1//EN" "http://www.w3.org/Graphics/SVG/1.1/DTD/svg11.dtd">
<svg version="1.1" id="Layer_1" xmlns="http://www.w3.org/2000/svg" xmlns:xlink="http://www.w3.org/1999/xlink" x="0px" y="0px"
	 width="65px" height="119px" viewBox="0 0 65 119" enable-background="new 0 0 65 119" xml:space="preserve">
<g>
	<path fill="#94C85B" d="M41.4,116.9c-2.8-0.5-2.8-0.5-2.8-0.5c0.3-0.3,4-27.3-5.8-49.3c-7-16.8-1-27,5-36.8c2.3-4,6.3-8.5,7.8-13
		c1.3,1.3,1.3,1.3,1.3,1.3c-1.8,4.8-4.3,9-6.8,13.3c-5.8,9.5-11.3,18.8-4.8,34C45.4,88.7,41.6,115.9,41.4,116.9z"/>
	<path fill="#94C85B" d="M37.9,77.7c0,0-12.3,2.8-17.5-10.5C20.4,67.2,34.1,62.7,37.9,77.7z"/>
	<path fill="#94C85B" d="M33.1,62.2c0,0-2.8-12.5,10.3-17.8C43.4,44.4,47.6,58.2,33.1,62.2z"/>
	<path fill="#94C85B" d="M33.9,41.2c0,0-10-8-3.3-20.5C30.6,20.7,42.6,28.4,33.9,41.2z"/>
	<path fill="#94C85B" d="M35.6,73.4c0-0.3-8.3-18.8-16-28.5c0.8-0.5,0.8-0.5,0.8-0.5c7.8,9.5,16.3,28.3,16.3,28.5
		C35.6,73.4,35.6,73.4,35.6,73.4z"/>
	<path fill="#EE5E80" d="M11.6,43.2c0,0-3.8,3.8-5.5,1.3c-2-2.3-1.5-6.5,3.3-6.5c0,0-3.5-3.8-0.3-6.8c3.8-2.8,6,1.8,6,1.8
		s2-5.5,5.8-2.8c2.8,2,0.5,7-2.3,6.5C11.6,43.2,11.6,43.2,11.6,43.2z"/>
	<path fill="#94C85B" d="M11.6,43.2c0,0,3.8,5.3,8.8,1.3c0,0,2.3-2.3-1.8-7.8C18.6,36.7,12.9,38.9,11.6,43.2z"/>
	<path fill="#94C85B" d="M42,109.4c0-0.3,1-21.1,4.7-32.9c-1-0.5-1.2,0.1-1.2,0.1c-3.8,12-4.8,32.5-4.8,32.8
		C42,109.4,42,109.4,42,109.4z"/>
	<path fill="#EE5E80" d="M53.9,72.4c0,0,4.8,2.3,5.8-0.8s-1.3-6.5-5.5-5c0,0,1.8-4.8-2.3-6c-4.5-1.5-5,3.8-5,3.8s-3.8-4.5-6.3-0.5
		c-2,3,2,6.8,4.5,5.3C53.9,72.4,53.9,72.4,53.9,72.4z"/>
	<path fill="#94C85B" d="M53.9,72.4c0,0-1.5,6.5-7.8,4.5c0,0-3-1.3-1-7.8C45.1,69.2,51.1,69.2,53.9,72.4z"/>
	<path fill="#EE5E80" d="M52.9,14.2c0,0,5,2.3,6-0.8c0.8-3-1.3-6.8-5.5-5c0,0,1.8-4.8-2.3-6.3c-4.5-1.3-5,4-5,4s-3.8-4.5-6.3-0.5
		c-2,3,2,6.5,4.3,5.3C52.9,14.2,52.9,14.2,52.9,14.2z"/>
	<path fill="#94C85B" d="M52.9,14.2c0,0-1.5,6.5-7.5,4.5c0,0-3-1.3-1.3-7.8C44.1,10.9,50.4,10.9,52.9,14.2z"/>
</g>
</svg>
