<?xml version="1.0" encoding="utf-8"?>
<!-- Generator: Adobe Illustrator 16.0.0, SVG Export Plug-In . SVG Version: 6.00 Build 0)  -->
<!DOCTYPE svg PUBLIC "-//W3C//DTD SVG 1.1//EN" "http://www.w3.org/Graphics/SVG/1.1/DTD/svg11.dtd">
<svg version="1.1" id="Layer_1" xmlns="http://www.w3.org/2000/svg" xmlns:xlink="http://www.w3.org/1999/xlink" x="0px" y="0px"
	 width="287px" height="251px" viewBox="0 0 287 251" enable-background="new 0 0 287 251" xml:space="preserve">
<g>
	<path fill="#D02952" d="M132.3,176.5c-11.3,18.5-23.5,40-33,60c-3.3,0.8-6-1.3-7.5-3.8c-3.3,2.5-7.3,3.5-11,4
		c-1.5-4,0.5-10.3,0.5-14.5c-0.3-5.5-0.5-10.8-0.5-16.3c0-5.8-0.3-10.8,2-16.5c6.3-16.8,16.3-19.5,33.8-22
		C132.3,176.5,132.3,176.5,132.3,176.5z"/>
	<path fill="#E23F66" d="M250.8,111.8c-0.3-0.3-0.3-0.5-0.3-0.8c0-0.5-0.3-1.5,0,0c-0.3-0.8-0.3-1.5-0.3-2c0.3-0.8,0.3-1.3,0.3-2
		c0-0.3,0-0.3,0-0.5c0.3-0.8,0,0.8,0,0.3c0.3-0.5,0.3-1,0.3-1.3c0.5-1.5,0.8-3,1.5-4.5c0-0.5,0.3-0.8,0.3-1.3c0.3,0,0.3-0.3,0.3-0.5
		c-0.3,1,0,0.3,0,0.3c0.5-0.8,0.8-1.5,1.3-2.3c0.3-0.8,0.8-1.5,1-2c0.3-0.3,0.5-0.8,0.8-1c0,0,0.3-0.3,0.3-0.5c0.5-0.5-0.5,0.8,0,0
		c0.5-0.5,1-1,1.5-1.5c0.3-0.3,0.5-0.5,0.8-0.5c0.3-0.3,0.3-0.3,0.5-0.5c-1,0.8-0.5,0.3-0.3,0.3c0.5-0.5,1-0.8,1.8-1
		c0.5-0.3-1,0.5-0.5,0.3c0.3-0.3,0.3-0.3,0.5-0.3s0.8-0.3,1-0.3s1,0-0.5,0c0.3,0,0.5,0,0.5,0c0.3,0,0.8,0,1,0c0.5,0.3-1,0-0.5,0
		c0.3,0,0.5,0,0.5,0.3c0.5,0,0.8,0,1,0.3c-1-0.5,0,0,0.3,0.3c0.5,0,0.8,0.3,1,0.5s0.8,0.5,0,0l0.3,0.3c0.5,0.5,0.8,0.8,1,1.3
		c-0.8-1,0,0,0.3,0.3s0.3,0.5,0.5,1c0,0.3,0.3,0.8,0-0.3v0.3c0.3,0.5,0.3,0.8,0.3,1.3c0.3,0.5,0-1,0-0.5c0,0.3,0,0.3,0,0.5
		s0,0.5,0,0.8c0,0.8,0.3-1,0,0c0,0.3-0.3,0.8-0.3,1c-0.3,0.8,0.5-1,0,0c-0.3,0-0.3,0.3-0.5,0.5c-0.3,0.8,0.8-0.8,0,0
		c0,0.3-0.3,0.3-0.5,0.5c-0.5,0.3,0.8-0.5,0.5-0.3c-0.3,0-0.3,0-0.3,0.3c-0.3,0-0.5,0-0.8,0.3c1.3-0.8,0.5-0.3,0.3-0.3
		c-1,0.3,1,0,0.3,0c-0.3,0-0.3,0-0.5,0c-0.5,0,1,0.3,0.5,0c-0.3,0-1-0.3,0.3,0.3c-0.3,0-0.5-0.3-0.5-0.3c-0.5-0.5,0.8,0.5,0.3,0.3
		c0-0.3-0.3-0.3-0.3-0.5c-0.3,0-0.3,0-0.3-0.3c0.8,1,0.3,0.5,0.3,0.3c-0.3-0.3-0.5-0.5-0.5-0.8c-0.3-0.3-0.5-0.8,0,0.3
		c0-0.3,0-0.3,0-0.5c-0.3-0.5-0.3-0.8-0.5-1.3c0-0.5,0-1-0.3-1.3c0-0.3,0-1,0,0c0-0.3,0-0.3,0-0.5c0-0.5,0-0.8,0-1.3
		c0-0.3,0.3-1,0,0.3c0-0.3,0.3-0.5,0.3-0.8c0-0.5,0.3-0.8,0.3-1.3c0.3-0.8-0.3,0.8,0,0.3c0.3-0.3,0.3-0.5,0.3-0.8
		c0.3-0.5,0.5-0.8,0.8-1.3c0.3,0,0.8-0.8,0,0c0.3,0,0.5-0.3,0.5-0.5c0.5-0.3,0.8-0.8,1-1s0.5-0.3,0.8-0.5c0-0.3,1-0.8,0,0
		c0.8-0.5,1.8-1,2.5-1.5c0.5-0.3,1-0.5,1.3-0.8c0.8-0.3-0.8,0.5,0,0.3c0.3-0.3,0.5-0.3,0.8-0.3c1-0.5,1.8-0.8,2.8-0.8
		c0.3,0,0.5,0,0.8-0.3c-1.3,0.3-0.3,0.3,0,0.3c0.5-0.3,1-0.3,1.5-0.3c0.3,0,0.8,0.3,1.3,0.3s-1-0.3,0,0c0.3,0,0.5,0,0.8,0.3
		c1.8,0.5,3.8-0.5,4.3-2.5c0.8-1.8-0.5-4-2.3-4.5c-7.3-2-15.8,1-20.5,6.5c-2.8,3.3-4.3,7.3-3.8,11.5c0.5,3.5,1.8,7,4.8,9
		c3,1.8,6.3,1,8.8-1c2.3-2,3.5-5,3.5-7.8c-0.3-7.5-7.8-14-15.3-12.3c-5.8,1.5-10,7.3-12.3,12.5c-1.3,2.8-2.3,5.8-2.8,8.8
		s-0.8,5.8,0,8.8c0.5,1.8,2.3,3,4.3,2.5C249.8,115.5,251.3,113.5,250.8,111.8L250.8,111.8z"/>
	<path fill="#E23F66" d="M232.1,161c-5.3,21-10.3,45.3-13,67.3c-3,1.8-6.3,0.8-8.3-1.3c-2.3,3.3-5.8,5.5-9.3,7
		c-2.8-3.3-2.8-9.8-4-13.8c-2-5.3-3.8-10-5.5-15.5s-3.5-10.3-3.3-16.3c1-18,9.5-23.5,25.5-31.3C232.1,161,232.1,161,232.1,161z"/>
	<path fill="#EB6585" d="M255.1,184.8c-17.8,27.5-53.8,45.8-84.3,47.3c-22.5,0.8-49-7.5-68.8-24.5c-1.3-1-2.5-2-3.8-3.3
		c-5.5-5.5-10.5-11.5-14.5-18.5c-4.3-7.3-6.8-15.8-8-24.3c-0.8-5.5-1-11-1-16.3c0.3-6.8,1.3-13.3,2.5-19.3
		c10.3-44.8,52.3-74,92.5-75.5c28-1,56.3,16.5,75.3,41.5C264.3,117.8,272.6,158,255.1,184.8z"/>
	<path fill="#E23F66" d="M175.6,102.5c2.8,12.8,2.8,27.3-1.3,40.8c-6.8,22.5-37.5,52-66.8,59c-3,0.8-6.3,1.5-9.3,2
		c-5.5-5.5-10.5-11.5-14.5-18.5c-4.3-7.3-6.8-15.8-8-24.3c-0.8-5.5-1-11-1-16.3c1.5-1.8,3-3.5,4.3-5.3c9-12.3,15.3-25.3,26.8-36.5
		c4.5-4.5,43-36.3,48.8-28.3c2.8-1.5,2.8-1.5,2.8-1.5C163.6,84,172.6,90,175.6,102.5z"/>
	<path fill="#E23F66" d="M143.1,59.8c5.8-14,35-31.3,50.3-28.3c-3.5,6.8-7.8,10.8-9.5,18.8c-1.5,8,0.5,15.3-1,23.3
		c-3.3,17.8-17,17-30.8,21.8C143.1,59.8,143.1,59.8,143.1,59.8z"/>
	<path fill="#E23F66" d="M26.6,72.8c-10.5-10.5-2.8-20,2.5-31.8c4.8-11,9.3-26.3,5.3-37c22.5,6,30,38.3,22.8,57.5
		C26.6,72.8,26.6,72.8,26.6,72.8z"/>
	<path fill="#EB6585" d="M105.3,38.5c-40.8-1.3-88,18.8-99,62c-9.8,38.3,35.8,75,69.3,81.5c43.3,8.8,95-18,98-66
		C176.1,76.3,145.3,40,105.3,38.5z"/>
	<path fill="#FFFFFF" d="M18.8,82c-8.3,12.5,1.8,28.8,15.3,32c15.5,3.8,28.3-15.8,22.3-29.3c-4.5-10.3-15.5-15.5-26-11.5
		C24.8,75.5,21.1,78.5,18.8,82z"/>
	<path fill="#100F0D" d="M43.3,102.8c11.3,0.5,16.3-13.3,7.5-20.3c-8-6-20.3,0.8-17.8,11C34.6,98.5,37.8,102.5,43.3,102.8z"/>
	<path fill="#FFFFFF" d="M48.1,94.3c3,2.3,7.5-1,6.3-4.5c-1-3-4.5-4.5-6.5-2C46.1,89.8,45.8,92.5,48.1,94.3z"/>
	<path fill="#FFFFFF" d="M108.6,76.3c-9.5,14.3,2,32.8,17.3,36.5c17.8,4.3,32-18,25.3-33.5c-5-11.5-17.5-17.3-29.5-12.8
		C115.6,69,111.3,72.3,108.6,76.3z"/>
	<path fill="#100F0D" d="M136.6,99.8c12.8,0.5,18.3-15,8.3-22.8c-9-7-23,1-20,12.3C126.3,95,130.1,99.5,136.6,99.8z"/>
	<path fill="#FFFFFF" d="M141.8,90.3c3.5,2.5,8.5-1,7-5.3c-1-3.3-5-5-7.3-2.3C139.6,85,139.1,88.3,141.8,90.3z"/>
	<path fill="#F7B8C6" d="M67.1,171.5c12.8,2.5,26.5,1.5,37.3-2.5c8.5-3,20-10,22-19.5c2.5-12-8-20-15-27.3
		c-5-5.3-7.8-14.5-13.8-18.5c-22-14.5-43.5,3-56.5,21c-7,9.8-10.8,21.8-2,32C45.8,164.5,56.1,169.3,67.1,171.5z"/>
	<path fill="#E45077" d="M88.3,149c7,7.5,21.8,3,20.8-8.5C107.3,124.5,72.8,132,88.3,149z"/>
	<path fill="#E45077" d="M47.1,146.5c5.8,6.3,17.8,2.5,17-7C62.6,126.3,34.3,132.5,47.1,146.5z"/>
	<path fill="#EB6585" d="M128.3,45c17.5-12,40.8-13.8,63.3-13c-16.3,4.3-41,19-39.8,37.5C128.3,45,128.3,45,128.3,45z"/>
	<path fill="#EB6585" d="M76.8,46.8c-0.5-4.3-5.5-10-7.5-13.8c-2.5-4.8-5.5-10.3-9.3-14.3C55.3,13.8,41.8,3.5,34.8,5
		c5.3,7.3,10,13.3,12.5,21.8c2.3,8.8,3.5,17.5,5.8,26.3C76.8,46.8,76.8,46.8,76.8,46.8z"/>
	<path fill="#EB6585" d="M111.6,209.8c-1.3,4.8-0.5,14.5-1.8,21c-0.5,2.5-4,9-1,11c1.5,1,6.8-3.8,9.5-4c7.5,9,10.8,11.5,14.5-1.5
		c1.8-5.5,7.8-25,5-27.8C111.6,209.8,111.6,209.8,111.6,209.8z"/>
	<path fill="#EB6585" d="M262.6,158.8c-5.3,20.8-10.3,45.3-13.3,67c-2.8,2-6,0.8-8.3-1c-2.3,3.3-5.8,5.3-9.3,6.8
		c-2.5-3-2.5-9.8-4-13.8c-1.8-5-3.8-10-5.5-15.3c-1.5-5.5-3.5-10.3-3.3-16.3c1-18,9.8-23.5,25.5-31.3
		C262.6,158.8,262.6,158.8,262.6,158.8z"/>
</g>
</svg>
