<?xml version="1.0" encoding="utf-8"?>
<!-- Generator: Adobe Illustrator 16.0.0, SVG Export Plug-In . SVG Version: 6.00 Build 0)  -->
<!DOCTYPE svg PUBLIC "-//W3C//DTD SVG 1.1//EN" "http://www.w3.org/Graphics/SVG/1.1/DTD/svg11.dtd">
<svg version="1.1" id="Layer_1" xmlns="http://www.w3.org/2000/svg" xmlns:xlink="http://www.w3.org/1999/xlink" x="0px" y="0px"
	 width="480px" height="360px" viewBox="0 0 480 360" enable-background="new 0 0 480 360" xml:space="preserve">
<rect x="-2.441" y="0.236" fill="#1C1F3D" width="483.306" height="364.191"/>
<path fill="#1F264A" d="M523.582-15.454c-13.26-7.203-28.019-12.563-44.385-13.114c-20.788-0.7-42.726,6.367-62.821,16.732
	c-31.625,16.311-88.9,72.273-123.226,52.064c-6.646-3.913-8.672-16.065-0.754-22.609c0.017-0.014,0.034-0.028,0.053-0.043
	c7.541-6.047,19.188,2.907,25.488-6.011c8.349-11.839-19.521-18.325-27.31-17.195c-25.252,3.667-27.446,36.143-24.22,52.657
	c5.1,26.081,30.764,36.521,58.236,34.341c19.35-1.536,39.077-9.443,56.481-20.877c19.543-12.838,38.88-31.024,60.463-31.68
	c6.65-0.202,13.7,2.043,15.389,7.956c2.03,7.114-4.573,15.384-11.424,20.737c-25.32,19.782-58.331,19.687-86.511,29.697
	c-27.989,9.942-37.752,40.623-14.666,54.393c40.486,24.148,83.452-28.943,125.649-35.16c32.168-4.739,96.71,14.938,107.748-39.33"/>
<path fill="#1F264A" d="M-122.56,138.74c-7.729,28.545,48.337,26.124,62.77,20.5c12.393-4.83,24.052-9.888,31.972-21.139
	c7.94-11.279,14.406-20.188,28.704-23.378c17.291-3.858,35.091,2.824,51.477,9.721c22.212,9.35,45.892,18.07,69.656,17.86
	c35.634-0.314,61.865-24.967,68.535-60.25c2.825-14.951,0.179-31.979-9.845-44.071c-6.362-7.673-15.156-12.819-24.196-16.392
	c-13.807-5.456-28.995-7.576-42.769-3.813C99.97,21.543,87.868,31.711,83.518,45.677c-4.351,13.966,0.192,31.465,12.114,40.739
	c9.43,7.336,23.692,8.33,31.491,0.174c3.521-3.683,5.165-10.407,1.286-14.193c-0.711-0.694-1.503-1.198-2.353-1.573
	c-3.791-1.675-8.712-0.776-12.611-2.747c-6.712-3.391-6.851-14.272-1.503-19.042c5.348-4.769,13.589-4.579,20.702-2.432
	c12.163,3.672,23.794,13.767,25.557,26.61c1.624,11.843-5.639,22.996-15.409,28.625c-9.769,5.628-21.59,6.684-33.083,6.577
	c-16.543-0.153-54.869,2.838-59-21.661c-0.737-4.368-0.005-8.763-0.329-13.157C48.41,46.831,3.134,56.179-11.225,60.54
	c-29.551,8.974-59.223,21.942-91.661,10.391"/>
<path fill="#1F264A" d="M544.255,232.185c-27.804,11.945-55.129,13.317-84.229,7.316c-21.294-4.391-42.209-10.428-63.723-13.341
	c-21.401-2.896-41.755,2.094-63.088,1.332c-26.415-0.944-49.576-17.771-75.292-22.617c-28.777-5.421-58.417,0.57-86.223,9.435
	c-22.27,7.099-45.009,16.213-67.891,12.605c-14.595-2.3-28.185-9.659-42.253-14.729c-24.783-8.93-49.291-2.191-72.738,9.133
	c-6.5,3.139-13.245,6.902-20.228,5.893c-10.827-1.563-17.958-10.869-11.066-20.621c0.663-0.938,1.456-1.882,2.388-2.821
	c7.7-7.768,18.598-9.785,27.242-15.637c14.854-10.058,30.085-20.353,47.768-20.859c20.15-0.577,36.809,13.795,54.952,20.783
	c15.846,6.102,27.171-3.942,41.436-11.501c23.771-12.598,52.44-24.611,78.159-29.911c32.667-6.731,65.949,8.758,97.236,18.354
	c34.802,10.671,63.532,5.134,97.871-4.463c56.036-15.661,120.156-51.146,178.069-30.183"/>
<path fill="#1F264A" d="M550.044,265.182c-4.328-1.089-10.769-2.205-18.984-2.19c-4.104,0.004-8.642,0.219-13.57,0.797
	c-4.926,0.582-10.24,1.424-15.908,2.551c-5.667,1.137-11.698,2.468-18.089,3.959c-6.39,1.494-13.154,3.02-20.323,4.443
	c-3.595,0.685-7.272,1.375-11.086,1.88c-1.896,0.292-3.84,0.486-5.791,0.723c-1.969,0.174-3.945,0.394-5.969,0.486
	c-2.014,0.149-4.067,0.179-6.138,0.225c-1.048,0.013-2.145-0.032-3.223-0.053c-0.535-0.017-1.102-0.024-1.613-0.049l-1.491-0.096
	l-1.497-0.097l-0.75-0.049l-0.896-0.093c-1.018-0.106-2.038-0.213-3.062-0.32c-2.051-0.214-4.116-0.43-6.194-0.647
	c-2.085-0.194-4.155-0.533-6.257-0.796c-2.096-0.288-4.206-0.58-6.329-0.872c-4.222-0.693-8.503-1.38-12.815-2.138
	c-2.15-0.402-4.311-0.805-6.483-1.211c-2.176-0.404-4.359-0.803-6.536-1.277c-4.361-0.917-8.775-1.819-13.188-2.823
	c-8.858-1.931-17.792-4.047-26.809-6.229c-4.502-1.081-9.03-2.166-13.582-3.257c-4.535-1.071-9.094-2.148-13.671-3.229
	c-4.569-1.067-9.157-2.136-13.753-3.113c-2.298-0.491-4.6-1.033-6.904-1.481c-2.303-0.464-4.61-0.927-6.919-1.391
	c-2.307-0.499-4.615-0.909-6.925-1.334c-2.31-0.424-4.62-0.848-6.932-1.27l-6.86-1.084l-3.431-0.543l-3.551-0.457l-7.118-0.902
	l-0.444-0.058l-0.224-0.029c0.192,0.022-0.063-0.003-0.074-0.001l-0.819-0.061l-1.64-0.125l-3.276-0.256
	c-4.372-0.199-8.746-0.151-13.114,0.256c-4.368,0.383-8.731,1.081-13.086,2.021c-4.361,0.909-8.723,2.078-13.087,3.39
	c-8.736,2.63-17.491,5.963-26.458,8.975c-2.258,0.745-4.508,1.488-6.752,2.23c-2.264,0.717-4.556,1.387-6.819,2.076
	c-2.28,0.663-4.599,1.239-6.882,1.856c-1.121,0.321-2.348,0.56-3.533,0.816c-1.191,0.253-2.381,0.506-3.568,0.758l-1.769,0.366
	l-1.657,0.263c-1.104,0.175-2.206,0.35-3.305,0.522l-1.647,0.26l-0.411,0.066l-0.409,0.065l-0.229,0.021l-0.91,0.087
	c-1.214,0.114-2.424,0.225-3.632,0.338c-1.208,0.146-2.408,0.118-3.607,0.153c-1.197,0.018-2.394,0.059-3.582,0.049
	c-1.181-0.058-2.359-0.113-3.535-0.17l-1.758-0.094c-0.583-0.045-1.158-0.126-1.735-0.188c-9.251-0.979-17.931-3.139-26.036-5.585
	c-8.104-2.491-15.718-5.164-23.026-7.427c-1.829-0.603-3.626-1.107-5.417-1.648c-0.903-0.277-1.775-0.517-2.635-0.741
	c-0.866-0.233-1.728-0.465-2.585-0.695c-0.834-0.243-1.778-0.437-2.676-0.645c-0.904-0.206-1.805-0.41-2.702-0.613l-0.335-0.077
	l-0.168-0.038c-0.148-0.026,0.013-0.004-0.062-0.017l-0.649-0.118c-0.433-0.079-0.863-0.156-1.293-0.235
	c-0.861-0.158-1.716-0.315-2.569-0.473c-6.823-1.191-13.441-1.831-19.767-1.988c-6.326-0.134-12.354,0.174-18.019,0.747
	c-11.327,1.24-21.173,3.548-29.222,5.784c-8.047,2.282-14.331,4.425-18.598,5.926c-4.277,1.544-6.558,2.368-6.558,2.368
	l-0.243-0.676c0,0,0.535-0.305,1.571-0.895c1.039-0.584,2.565-1.484,4.59-2.582c4.079-2.156,10.041-5.401,17.929-8.828
	c7.882-3.427,17.704-7.089,29.406-9.771c5.857-1.29,12.178-2.264,18.904-2.855c6.729-0.511,13.854-0.481,21.269,0.09
	c0.926,0.09,1.856,0.179,2.792,0.269c0.468,0.046,0.937,0.093,1.408,0.139l0.706,0.069l0.786,0.111
	c0.907,0.13,1.819,0.26,2.735,0.39c0.923,0.136,1.815,0.239,2.805,0.434c0.97,0.177,1.945,0.353,2.924,0.529
	c0.986,0.175,1.965,0.358,2.911,0.567c1.91,0.408,3.862,0.79,5.777,1.253c7.713,1.799,15.49,3.947,23.352,5.772
	c7.849,1.865,15.788,3.335,23.742,3.703c0.497,0.023,0.996,0.069,1.492,0.077l1.485-0.004c0.99,0.004,1.982,0.009,2.977,0.013
	c0.989-0.039,1.974-0.125,2.963-0.182c0.987-0.077,1.985-0.084,2.96-0.26c0.98-0.136,1.963-0.271,2.948-0.409l0.739-0.101
	l0.185-0.024c-0.338,0.057,0.023-0.009,0.001-0.008l0.408-0.083l1.636-0.334c1.092-0.224,2.187-0.448,3.283-0.674l1.648-0.335
	l1.516-0.396c1.004-0.265,2.012-0.529,3.02-0.795c1.013-0.275,2.002-0.494,3.062-0.832c2.09-0.643,4.185-1.229,6.292-1.915
	c2.109-0.719,4.22-1.41,6.346-2.157c2.133-0.779,4.273-1.562,6.419-2.348c8.607-3.249,17.508-6.757,26.894-9.808
	c4.698-1.51,9.506-2.906,14.438-4.03c4.936-1.098,9.984-1.943,15.095-2.428l3.845-0.304l1.923-0.146l1.934-0.021l3.87-0.021
	c1.291-0.007,2.583-0.034,3.87,0.093l3.864,0.273l1.934,0.141l0.967,0.07c0.138,0.015,0.031-0.007,0.371,0.037l0.222,0.029
	l0.444,0.059l7.113,0.948l3.563,0.48l3.659,0.597l7.315,1.2c2.396,0.453,4.79,0.906,7.181,1.36c2.391,0.456,4.783,0.896,7.146,1.422
	c4.739,1.029,9.469,2.058,14.14,3.201c4.692,1.09,9.333,2.263,13.955,3.432c9.245,2.312,18.326,4.862,27.286,7.287
	c4.471,1.219,8.914,2.43,13.326,3.633c2.201,0.604,4.394,1.21,6.578,1.813c2.183,0.583,4.356,1.162,6.521,1.742
	c8.662,2.318,17.171,4.432,25.505,6.45c4.169,0.97,8.297,1.863,12.377,2.767c4.087,0.771,8.116,1.67,12.104,2.389
	c1.994,0.344,3.975,0.686,5.941,1.023c0.985,0.172,1.965,0.341,2.943,0.51l0.366,0.063l0.181,0.031c0,0,0.26,0.038,0.049,0.016
	l0.746,0.099l1.488,0.196l1.483,0.195c0.477,0.057,0.902,0.082,1.355,0.126c0.897,0.079,1.791,0.158,2.682,0.236
	c1.854,0.102,3.694,0.225,5.543,0.232c7.37,0.171,14.641-0.48,21.665-1.155c14.058-1.522,27.162-3.621,38.931-4.569
	c11.762-1.019,22.188-0.935,30.657,0.298c2.119,0.259,4.112,0.669,5.981,1.014c0.934,0.199,1.831,0.439,2.699,0.646
	c0.868,0.211,1.707,0.406,2.504,0.663c1.598,0.489,3.078,0.893,4.404,1.41"/>
<rect x="-2.441" y="0.236" fill="none" width="483.306" height="364.191"/>
<path fill="#1F264A" d="M-165.504,141.595c40.487,24.148,83.451-28.943,125.65-35.16c32.167-4.739,96.71,14.938,107.748-39.33
	c3.482-17.122-4.407-30.143-10.358-44.277c-1.853-4.398-5.164-8.778-10.689-19.063c-3.528-6.565-26.209-15.454-33.145-19.22
	c-13.259-7.203-28.02-12.563-44.384-13.114c-20.789-0.7-42.726,6.367-62.823,16.732"/>
<path fill="#1F264A" d="M-68.292,28.812c6.65-0.202,13.7,2.043,15.389,7.956c2.031,7.114-4.572,15.384-11.423,20.737
	c-25.321,19.782-58.332,19.687-86.512,29.697"/>
<path fill="#3BBEEF" d="M304.362,193.908l-0.444-0.112c-1.509-0.375-2.688-1.707-3.02-3.413l-0.098-0.501
	c-0.038-0.194-0.283-0.194-0.321,0l-0.097,0.501c-0.333,1.706-1.51,3.038-3.02,3.413l-0.443,0.112c-0.172,0.042-0.172,0.318,0,0.361
	l0.443,0.11c1.51,0.375,2.687,1.708,3.02,3.413l0.097,0.501c0.038,0.194,0.283,0.194,0.321,0l0.098-0.501
	c0.332-1.705,1.511-3.038,3.02-3.413l0.444-0.11C304.534,194.227,304.534,193.95,304.362,193.908z"/>
<path fill="#3BBEEF" d="M187.982,54.73l-0.444-0.111c-1.509-0.375-2.688-1.708-3.02-3.414l-0.098-0.501
	c-0.038-0.194-0.283-0.194-0.321,0l-0.097,0.501c-0.332,1.706-1.511,3.039-3.02,3.414l-0.444,0.111
	c-0.171,0.042-0.171,0.319,0,0.361l0.444,0.11c1.508,0.375,2.688,1.708,3.02,3.414l0.097,0.501c0.038,0.194,0.283,0.194,0.321,0
	l0.098-0.501c0.332-1.706,1.511-3.038,3.02-3.414l0.444-0.11C188.154,55.049,188.154,54.772,187.982,54.73z"/>
<path fill="#FDD002" d="M453.701,190.33l-0.759-0.188c-2.58-0.643-4.598-2.922-5.166-5.84l-0.166-0.857
	c-0.065-0.333-0.483-0.333-0.549,0l-0.167,0.857c-0.568,2.918-2.584,5.197-5.167,5.84l-0.759,0.188
	c-0.294,0.073-0.294,0.547,0,0.619l0.759,0.189c2.583,0.643,4.599,2.921,5.167,5.84l0.167,0.857c0.065,0.332,0.483,0.332,0.549,0
	l0.166-0.857c0.568-2.919,2.586-5.197,5.166-5.84l0.759-0.189C453.995,190.877,453.995,190.403,453.701,190.33z"/>
<path fill="#FDD002" d="M68.162,96.988l-0.405-0.101c-1.377-0.342-2.453-1.558-2.756-3.115l-0.089-0.458
	c-0.035-0.177-0.258-0.177-0.292,0l-0.089,0.458c-0.303,1.557-1.379,2.773-2.756,3.115l-0.405,0.101
	c-0.157,0.039-0.157,0.292,0,0.331l0.405,0.101c1.377,0.342,2.453,1.558,2.756,3.115l0.089,0.458c0.034,0.178,0.258,0.178,0.292,0
	l0.089-0.458c0.303-1.557,1.379-2.772,2.756-3.115l0.405-0.101C68.319,97.28,68.319,97.027,68.162,96.988z"/>
<path fill="#FDD002" d="M322.772,50.6c0.127-0.143,0.056-0.389-0.12-0.42l-2.012-0.362c-0.069-0.013-0.13-0.062-0.161-0.133
	l-0.926-2.05c-0.082-0.181-0.311-0.181-0.393,0l-0.926,2.05c-0.031,0.071-0.092,0.12-0.161,0.133l-2.011,0.362
	c-0.177,0.032-0.248,0.277-0.121,0.42l1.438,1.629c0.05,0.056,0.072,0.136,0.062,0.214l-0.316,2.273
	c-0.028,0.201,0.156,0.352,0.316,0.26l1.816-1.043c0.062-0.036,0.136-0.036,0.198,0l1.815,1.043c0.16,0.092,0.345-0.06,0.316-0.26
	l-0.316-2.273c-0.011-0.079,0.012-0.158,0.063-0.214L322.772,50.6z"/>
<path fill="#FDD002" d="M215.621,216.647c0.167-0.189,0.074-0.515-0.161-0.557l-2.662-0.479c-0.092-0.017-0.171-0.082-0.213-0.175
	l-1.227-2.715c-0.107-0.239-0.41-0.239-0.518,0l-1.227,2.715c-0.042,0.093-0.121,0.158-0.213,0.175l-2.662,0.479
	c-0.235,0.042-0.328,0.367-0.161,0.557l1.905,2.157c0.065,0.074,0.095,0.18,0.081,0.283l-0.419,3.01
	c-0.038,0.266,0.208,0.466,0.419,0.345l2.404-1.381c0.083-0.048,0.18-0.048,0.263,0l2.404,1.381
	c0.211,0.121,0.457-0.079,0.419-0.345l-0.419-3.01c-0.014-0.104,0.016-0.209,0.081-0.283L215.621,216.647z"/>
<ellipse fill="#FFFFFF" cx="430.8" cy="24.694" rx="1.213" ry="1.372"/>
<ellipse fill="#FFFFFF" cx="105.381" cy="17.985" rx="1.214" ry="1.372"/>
<ellipse fill="#1F264A" cx="419.056" cy="52.573" rx="2.6" ry="2.939"/>
<ellipse fill="#1F264A" cx="467.753" cy="121.833" rx="2.601" ry="2.939"/>
<ellipse fill="#1F264A" cx="337.591" cy="17.985" rx="2.6" ry="2.94"/>
<ellipse fill="#1F264A" cx="348.632" cy="157.604" rx="2.6" ry="2.939"/>
<ellipse fill="#1F264A" cx="374.799" cy="236.65" rx="2.6" ry="2.938"/>
<ellipse fill="#1F264A" cx="26.342" cy="23.323" rx="2.6" ry="2.939"/>
<ellipse fill="#1F264A" cx="99.946" cy="170.922" rx="2.6" ry="2.938"/>
<ellipse fill="#1F264A" cx="190.858" cy="17.985" rx="2.6" ry="2.94"/>
<ellipse fill="#1F264A" cx="139.84" cy="150.322" rx="2.6" ry="2.939"/>
<ellipse fill="#1F264A" cx="184.26" cy="219.42" rx="2.6" ry="2.938"/>
<ellipse fill="#1F264A" cx="86.289" cy="147.383" rx="2.601" ry="2.939"/>
<ellipse fill="#1F264A" cx="66.712" cy="70.176" rx="2.6" ry="2.939"/>
<ellipse fill="#1F264A" cx="92.69" cy="15.046" rx="2.6" ry="2.939"/>
<ellipse fill="#1F264A" cx="23.741" cy="142.278" rx="2.6" ry="2.939"/>
<ellipse fill="#1F264A" cx="243.7" cy="15.046" rx="2.6" ry="2.939"/>
<ellipse fill="#1F264A" cx="249.764" cy="77.972" rx="2.601" ry="2.939"/>
<ellipse fill="#1F264A" cx="30.281" cy="219.42" rx="2.601" ry="2.938"/>
<ellipse fill="#1F264A" cx="211.099" cy="77.972" rx="2.601" ry="2.939"/>
<ellipse fill="#1F264A" cx="441.962" cy="48.608" rx="2.601" ry="2.939"/>
<ellipse fill="#FFFFFF" cx="423.013" cy="183.834" rx="1.214" ry="1.371"/>
<ellipse fill="#FFFFFF" cx="170.154" cy="84.333" rx="1.214" ry="1.372"/>
<ellipse fill="#FFFFFF" cx="110.213" cy="137.715" rx="1.214" ry="1.372"/>
<ellipse fill="#FFFFFF" cx="461.776" cy="128.462" rx="1.213" ry="1.372"/>
<ellipse fill="#FFFFFF" cx="6.724" cy="160.543" rx="1.214" ry="1.372"/>
<ellipse fill="#FFFFFF" cx="274.531" cy="49.634" rx="1.214" ry="1.372"/>
<ellipse fill="#FFFFFF" cx="179.926" cy="199.544" rx="1.214" ry="1.373"/>
<ellipse fill="#FFFFFF" cx="256.248" cy="15.046" rx="1.214" ry="1.372"/>
<ellipse fill="#FFFFFF" cx="57.779" cy="30.844" rx="1.214" ry="1.372"/>
<ellipse fill="#FFFFFF" cx="440.749" cy="72.97" rx="1.213" ry="1.371"/>
<ellipse fill="#FFFFFF" cx="350.408" cy="13.674" rx="1.213" ry="1.372"/>
<ellipse fill="#FFFFFF" cx="378.18" cy="154.666" rx="1.213" ry="1.372"/>
<ellipse fill="#FFFFFF" cx="220.425" cy="233.504" rx="1.214" ry="1.371"/>
<ellipse fill="#FFFFFF" cx="36.301" cy="121.284" rx="1.214" ry="1.372"/>
<ellipse fill="#FFFFFF" cx="166.412" cy="30.844" rx="1.214" ry="1.372"/>
<ellipse fill="#FFFFFF" cx="237.187" cy="85.328" rx="1.214" ry="1.372"/>
<ellipse fill="#FFFFFF" cx="110.213" cy="212.411" rx="1.214" ry="1.372"/>
<ellipse fill="#FFFFFF" cx="468.478" cy="224.662" rx="1.213" ry="1.372"/>
<ellipse fill="#FFFFFF" cx="26.342" cy="226.034" rx="1.214" ry="1.372"/>
<ellipse fill="#FFFFFF" cx="349.846" cy="123.305" rx="1.214" ry="1.372"/>
<ellipse fill="#FFFFFF" cx="278.356" cy="228.21" rx="1.213" ry="1.372"/>
<ellipse fill="#FFFFFF" cx="333.005" cy="203.454" rx="1.214" ry="1.373"/>
<path fill="#FDD002" d="M128.35,168.358l-12.856,18.475c-0.915,1.314-2.601,1.543-3.764,0.508c-1.163-1.034-1.365-2.938-0.45-4.254
	c0.131-0.189,0.29-0.365,0.45-0.508l16.345-14.532c0.085-0.076,0.208-0.059,0.275,0.037
	C128.406,168.166,128.404,168.279,128.35,168.358z"/>
<path fill="#D0D2D3" d="M393.136,97.521l-9.161,13.164c-0.65,0.938-1.852,1.1-2.681,0.362c-0.829-0.736-0.973-2.094-0.32-3.031
	c0.094-0.134,0.207-0.26,0.32-0.362l11.646-10.354c0.06-0.054,0.147-0.042,0.195,0.026
	C393.177,97.384,393.174,97.465,393.136,97.521z"/>
<path fill="#D0D2D3" d="M27.412,35.463l-9.161,13.164c-0.652,0.937-1.854,1.099-2.682,0.362s-0.972-2.094-0.32-3.031
	c0.093-0.135,0.207-0.26,0.32-0.362l11.646-10.354c0.061-0.054,0.148-0.042,0.197,0.026C27.453,35.326,27.45,35.407,27.412,35.463z"
	/>
<path fill="#E74A22" d="M470.319,25.352l-10.321,14.831c-0.734,1.057-2.087,1.239-3.021,0.409c-0.935-0.831-1.096-2.359-0.362-3.415
	c0.106-0.152,0.233-0.293,0.362-0.408l13.12-11.666c0.068-0.061,0.168-0.047,0.222,0.03
	C470.365,25.197,470.363,25.289,470.319,25.352z"/>
<path fill="#E74A22" d="M283.688,72.971l-6.673,9.589c-0.476,0.683-1.35,0.801-1.953,0.264c-0.604-0.536-0.709-1.526-0.233-2.208
	c0.067-0.098,0.149-0.189,0.233-0.264l8.482-7.542c0.045-0.04,0.109-0.031,0.144,0.019C283.718,72.871,283.717,72.93,283.688,72.971
	z"/>
<path fill="#E74A22" d="M263.313,215.06l-10.32,14.831c-0.735,1.056-2.087,1.238-3.021,0.408c-0.934-0.83-1.096-2.359-0.36-3.415
	c0.105-0.152,0.232-0.293,0.36-0.408l13.121-11.666c0.069-0.062,0.167-0.047,0.221,0.03
	C263.358,214.904,263.357,214.996,263.313,215.06z"/>
<g>
	<path fill="#EBDDBA" d="M231.141,29.948c6.206,0.762,10.691,7.066,10.017,14.082c-0.674,7.015-6.251,12.084-12.458,11.322
		c-6.207-0.762-10.691-7.067-10.018-14.082C219.357,34.255,224.935,29.186,231.141,29.948z"/>
	<g>
		<path fill="#EBDDBA" d="M232.492,30.83c-0.003-0.063-0.036-0.123-0.09-0.18c-0.144-0.147-0.27-0.315-0.358-0.51
			c-0.389-0.846-0.461-1.861-0.461-1.861l-1.639-0.003l-1.639-0.003c0,0-0.075,1.015-0.467,1.859
			c-0.091,0.194-0.216,0.362-0.359,0.508c-0.056,0.058-0.087,0.117-0.092,0.179c-0.004,0.004-0.008,0.01-0.012,0.014h0.012
			c0,0.398,1.142,0.725,2.551,0.728c1.411,0.003,2.554-0.318,2.555-0.718h0.012C232.501,30.839,232.497,30.834,232.492,30.83z"/>
		<ellipse fill="#E8CE9A" cx="229.944" cy="28.276" rx="1.639" ry="0.464"/>
		<path fill="#DCC183" d="M228.367,28.4c0.196,0.194,0.827,0.338,1.576,0.34c0.749,0.001,1.381-0.14,1.576-0.333
			c-0.194-0.195-0.826-0.338-1.575-0.34C229.194,28.065,228.563,28.206,228.367,28.4z"/>
	</g>
	<g>
		<path fill="#EBDDBA" d="M227.347,54.932c0.004,0.062,0.037,0.122,0.093,0.178c0.145,0.146,0.271,0.313,0.363,0.506
			c0.396,0.84,0.478,1.855,0.478,1.855l1.639-0.016l1.639-0.016c0,0,0.066-1.016,0.449-1.864c0.088-0.195,0.212-0.364,0.355-0.512
			c0.055-0.058,0.086-0.118,0.09-0.181c0.005-0.004,0.009-0.009,0.012-0.013h-0.011c-0.004-0.399-1.149-0.712-2.559-0.697
			c-1.41,0.014-2.55,0.348-2.548,0.748h-0.012C227.338,54.922,227.343,54.927,227.347,54.932z"/>
		
			<ellipse transform="matrix(-1 0.0098 -0.0098 -1 460.3917 112.6457)" fill="#E8CE9A" cx="229.919" cy="57.455" rx="1.639" ry="0.463"/>
		<path fill="#DCC183" d="M231.494,57.312c-0.197-0.191-0.83-0.328-1.579-0.32c-0.75,0.007-1.38,0.155-1.573,0.352
			c0.196,0.193,0.829,0.329,1.579,0.322C230.67,57.657,231.3,57.508,231.494,57.312z"/>
	</g>
	<g>
		<path fill="#EBDDBA" d="M224.59,32.292c-0.051-0.052-0.125-0.076-0.22-0.072c-0.242,0.008-0.485-0.02-0.715-0.107
			c-1.001-0.378-1.848-1.224-1.848-1.224l-1.48,1.609l-1.479,1.609c0,0,0.714,0.989,1.01,2.135c0.068,0.263,0.084,0.539,0.067,0.812
			c-0.006,0.106,0.011,0.192,0.056,0.251c0,0.008,0,0.017-0.001,0.025l0.011-0.012c0.307,0.36,1.588-0.47,2.861-1.855
			c1.273-1.385,2.057-2.799,1.75-3.16l0.011-0.012C224.605,32.291,224.598,32.291,224.59,32.292z"/>
		<path fill="#E8CE9A" d="M221.807,30.888c0.197,0.231-0.306,1.139-1.124,2.028c-0.817,0.89-1.639,1.422-1.836,1.191
			c-0.198-0.231,0.306-1.14,1.123-2.028C220.788,31.19,221.61,30.657,221.807,30.888z"/>
		<path fill="#DCC183" d="M219.001,34.16c0.326-0.016,1.005-0.508,1.682-1.244c0.676-0.735,1.137-1.485,1.165-1.852
			c-0.326,0.016-1.005,0.508-1.682,1.244C219.49,33.044,219.028,33.793,219.001,34.16z"/>
	</g>
	<g>
		<path fill="#EBDDBA" d="M240.722,45.599c0.068-0.008,0.134-0.055,0.195-0.136c0.159-0.208,0.341-0.391,0.554-0.524
			c0.923-0.579,2.046-0.715,2.046-0.715l-0.052-2.32l-0.052-2.321c0,0-1.128-0.072-2.076-0.597
			c-0.217-0.121-0.408-0.294-0.575-0.492c-0.065-0.077-0.132-0.12-0.202-0.124c-0.004-0.006-0.01-0.012-0.015-0.018v0.018
			c-0.442,0.012-0.765,1.641-0.72,3.638c0.044,1.997,0.439,3.605,0.882,3.593v0.017C240.712,45.611,240.717,45.604,240.722,45.599z"
			/>
		<path fill="#E8CE9A" d="M243.517,44.224c-0.284,0.008-0.537-1.024-0.565-2.306c-0.029-1.282,0.178-2.328,0.462-2.335
			s0.537,1.024,0.565,2.306C244.008,43.171,243.801,44.216,243.517,44.224z"/>
		<path fill="#DCC183" d="M243.274,39.676c-0.21,0.283-0.347,1.181-0.323,2.242c0.022,1.061,0.201,1.951,0.422,2.221
			c0.21-0.283,0.348-1.182,0.324-2.243S243.496,39.946,243.274,39.676z"/>
	</g>
	<g>
		<path fill="#EBDDBA" d="M236.418,52.654c0.041,0.038,0.097,0.051,0.169,0.045c0.184-0.017,0.367-0.005,0.544,0.05
			c0.768,0.244,1.436,0.846,1.436,0.846l1.063-1.278l1.064-1.278c0,0-0.572-0.716-0.835-1.569c-0.06-0.195-0.081-0.402-0.078-0.61
			c0.001-0.081-0.014-0.145-0.05-0.188c0-0.006,0-0.012,0-0.019l-0.007,0.01c-0.244-0.259-1.183,0.422-2.099,1.522
			c-0.915,1.1-1.459,2.202-1.215,2.46l-0.009,0.01C236.407,52.655,236.413,52.655,236.418,52.654z"/>
		<path fill="#E8CE9A" d="M238.566,53.596c-0.157-0.167,0.194-0.874,0.78-1.579c0.588-0.707,1.191-1.144,1.348-0.978
			c0.157,0.166-0.193,0.873-0.781,1.58C239.326,53.325,238.723,53.762,238.566,53.596z"/>
		<path fill="#DCC183" d="M240.576,51.006c-0.246,0.026-0.742,0.426-1.229,1.011c-0.486,0.584-0.81,1.17-0.817,1.448
			c0.246-0.026,0.742-0.426,1.229-1.011C240.245,51.869,240.568,51.284,240.576,51.006z"/>
	</g>
	<ellipse transform="matrix(1 0.0022 -0.0022 1 0.0869 -0.4862)" fill="#DCC183" cx="223.534" cy="39.676" rx="2.356" ry="2.663"/>
	<ellipse transform="matrix(1 0.002 -0.002 1 0.0995 -0.4621)" fill="#DCC183" cx="234.574" cy="50.242" rx="2.602" ry="2.941"/>
	<ellipse fill="#DCC183" cx="235.265" cy="37.814" rx="1.932" ry="2.183"/>
	<ellipse fill="#DCC183" cx="227.605" cy="34.158" rx="1.555" ry="1.757"/>
	<ellipse fill="#DCC183" cx="223.533" cy="46.587" rx="1.555" ry="1.757"/>
	<ellipse fill="#DCC183" cx="237.187" cy="43.146" rx="1.016" ry="1.148"/>
	<ellipse fill="#DCC183" cx="230.531" cy="41.985" rx="1.328" ry="1.5"/>
	<ellipse fill="#DCC183" cx="228.268" cy="51.12" rx="1.016" ry="1.148"/>
	<g>
		<path fill="#EBDDBA" d="M219.159,45.95c-0.049,0.039-0.08,0.105-0.095,0.196c-0.04,0.23-0.107,0.455-0.214,0.656
			c-0.471,0.876-1.257,1.519-1.257,1.519l0.913,1.705l0.913,1.706c0,0,0.868-0.49,1.773-0.554c0.208-0.014,0.414,0.022,0.614,0.09
			c0.078,0.026,0.145,0.025,0.198-0.005c0.006,0.002,0.012,0.004,0.018,0.006l-0.007-0.013c0.325-0.222-0.048-1.592-0.833-3.059
			c-0.785-1.468-1.686-2.477-2.011-2.254l-0.007-0.013C219.161,45.936,219.16,45.943,219.159,45.95z"/>
		<path fill="#E8CE9A" d="M217.592,48.32c0.208-0.143,0.786,0.505,1.29,1.447c0.504,0.941,0.744,1.82,0.536,1.964
			c-0.209,0.142-0.787-0.506-1.291-1.447C217.623,49.342,217.383,48.463,217.592,48.32z"/>
		<path fill="#DCC183" d="M219.485,51.595c0.05-0.311-0.186-1.047-0.604-1.827c-0.417-0.78-0.885-1.358-1.152-1.453
			c-0.049,0.312,0.186,1.048,0.604,1.828C218.751,50.922,219.219,51.5,219.485,51.595z"/>
	</g>
	<g>
		<path fill="#EBDDBA" d="M238.483,35.276c0.033-0.05,0.043-0.119,0.034-0.203c-0.024-0.217-0.022-0.437,0.021-0.65
			c0.191-0.928,0.722-1.752,0.722-1.752l-1.243-1.208l-1.243-1.208c0,0-0.641,0.716-1.424,1.069
			c-0.181,0.081-0.372,0.115-0.566,0.121c-0.075,0.003-0.133,0.024-0.173,0.069c-0.005,0-0.011,0-0.017,0.001l0.009,0.009
			c-0.23,0.303,0.449,1.39,1.519,2.429c1.07,1.04,2.122,1.637,2.353,1.334l0.009,0.009C238.485,35.29,238.484,35.283,238.483,35.276
			z"/>
		<path fill="#E8CE9A" d="M239.261,32.671c-0.147,0.194-0.825-0.189-1.51-0.856c-0.687-0.667-1.123-1.365-0.976-1.56
			c0.148-0.194,0.824,0.19,1.51,0.857C238.972,31.778,239.408,32.477,239.261,32.671z"/>
		<path fill="#DCC183" d="M236.75,30.398c0.036,0.291,0.433,0.864,1.001,1.417c0.569,0.552,1.128,0.91,1.389,0.906
			c-0.036-0.292-0.433-0.865-1.001-1.417C237.57,30.752,237.009,30.395,236.75,30.398z"/>
	</g>
	<path fill="#EBDDBA" d="M234.242,30.844c3.262,2.425,5.237,6.777,4.786,11.465c-0.64,6.669-5.943,11.488-11.843,10.764
		c-3.036-0.373-5.636-2.143-7.36-4.68c1.668,3.736,4.92,6.474,8.875,6.959c6.207,0.762,11.784-4.308,12.458-11.322
		C241.713,38.251,238.767,32.958,234.242,30.844z"/>
</g>
<g>
	<ellipse fill="#E74A22" cx="367.648" cy="52.235" rx="16.604" ry="18.77"/>
	<path fill="#F8AF41" d="M376.545,42.376c-4.785,0.013-9.512-1.218-14.295-1.393c-2.953-0.107-6.042,0.264-8.771,1.463
		c-1.544,2.85-2.435,6.202-2.435,9.788c0,0.902,0.058,1.788,0.167,2.656c4.405,1.79,9.167,2.422,13.734,1.293
		c4.988-1.234,9.479-4.206,14.148-6.542c1.521-0.761,3.17-0.979,4.851-1.034c-0.423-2.437-1.262-4.705-2.431-6.705
		C379.873,42.211,378.209,42.372,376.545,42.376z"/>
	<path fill="#F8AF41" d="M365.107,63.182c-2.59-0.075-7.483-0.008-10.362,0.864c3.044,4.244,7.693,6.958,12.903,6.958
		c4.742,0,9.02-2.247,12.045-5.848c-0.595-0.055-1.188-0.122-1.777-0.201C373.642,64.388,369.41,63.307,365.107,63.182z"/>
	<path fill="#F8AF41" d="M383.919,53.751c-1.552,0.371-3.104,0.741-4.657,1.112c-0.906,0.216-2.729,0.265-3.224,1.328
		c-0.691,1.466,1.376,3.277,2.352,3.77c1.176,0.594,2.5,0.707,3.786,0.639c0.107-0.005,0.223-0.009,0.345-0.012
		c0.928-2.106,1.513-4.437,1.681-6.901C384.107,53.708,384.013,53.729,383.919,53.751z"/>
	<path fill="#EB5C2C" d="M358.999,44.915c1.299-0.321,5.068-1.858,5.107,1.063c0.034,2.543-3.501,3.014-5.106,2.562
		c-0.875-0.246-2.496-0.752-2.089-2.115C357.141,45.655,358.159,45.394,358.999,44.915z"/>
	<path opacity="0.5" fill="#EB5C2C" d="M374.589,35.184c3.971,3.239,6.558,8.511,6.558,14.469c0,9.852-7.065,17.838-15.781,17.838
		c-5.271,0-9.935-2.924-12.801-7.412c2.629,6.448,8.393,10.926,15.084,10.926c9.172,0,16.607-8.404,16.607-18.77
		C384.256,44.67,380.294,38.155,374.589,35.184z"/>
</g>
<g>
	<ellipse fill="#BFABD4" cx="55.962" cy="146.3" rx="3.559" ry="4.022"/>
	<ellipse fill="#59BDB7" cx="63.153" cy="196.491" rx="3.559" ry="4.021"/>
	<g>
		<ellipse fill="#CC6632" cx="46.98" cy="173.721" rx="18.281" ry="20.663"/>
		<path fill="#A74E26" d="M41.985,161.818c0.066-2.399,1.839-4.285,3.962-4.211c2.123,0.074,3.791,2.079,3.726,4.479
			c-0.066,2.399-1.839,4.285-3.963,4.211C43.588,166.222,41.92,164.217,41.985,161.818z"/>
		<path fill="#A74E26" d="M55.969,178.502c0.026-0.938,0.718-1.673,1.547-1.645c0.829,0.029,1.48,0.812,1.455,1.75
			c-0.025,0.937-0.718,1.673-1.547,1.644C56.595,180.222,55.943,179.439,55.969,178.502z"/>
		<path fill="#A74E26" d="M55.963,166.378c0.031-1.134,0.869-2.024,1.872-1.99c1.002,0.035,1.791,0.982,1.76,2.116
			c-0.031,1.134-0.869,2.024-1.872,1.99C56.72,168.458,55.933,167.511,55.963,166.378z"/>
		<path fill="#A74E26" d="M47.089,173.635c0.042-1.545,1.185-2.759,2.552-2.712s2.442,1.339,2.399,2.884
			c-0.042,1.545-1.185,2.76-2.551,2.712C48.121,176.471,47.047,175.18,47.089,173.635z"/>
		<path fill="#A74E26" d="M36.81,183.724c0.054-1.978,1.516-3.531,3.265-3.47c1.749,0.062,3.123,1.713,3.07,3.69
			c-0.054,1.978-1.516,3.53-3.265,3.47C38.131,187.353,36.756,185.7,36.81,183.724z"/>
		<path fill="#A74E26" d="M39.034,173.673c0.024-0.867,0.665-1.547,1.431-1.521c0.766,0.027,1.368,0.75,1.345,1.617
			c-0.024,0.866-0.664,1.546-1.43,1.52C39.613,175.263,39.011,174.539,39.034,173.673z"/>
		<path fill="#A74E26" d="M48.009,186.919c0.033-1.236,0.948-2.208,2.042-2.169c1.093,0.037,1.953,1.07,1.92,2.307
			c-0.034,1.237-0.948,2.209-2.042,2.17C48.834,189.188,47.975,188.155,48.009,186.919z"/>
		<path fill="#A74E26" d="M31.452,175.341c0.025-0.923,0.706-1.648,1.523-1.619c0.816,0.028,1.458,0.799,1.433,1.722
			c-0.025,0.923-0.707,1.648-1.524,1.62C32.068,177.035,31.426,176.264,31.452,175.341z"/>
		<path fill="#A74E26" d="M34.409,166.018c0.021-0.749,0.574-1.337,1.236-1.314c0.663,0.023,1.183,0.648,1.163,1.397
			c-0.02,0.749-0.574,1.337-1.236,1.314C34.909,167.392,34.389,166.767,34.409,166.018z"/>
		<path opacity="0.5" fill="#CC6632" d="M53.763,154.534c4.936,3.436,8.229,9.599,8.229,16.633c0,10.782-7.733,19.522-17.271,19.522
			c-6.223,0-11.675-3.721-14.715-9.3c2.694,7.613,9.276,12.995,16.975,12.995c10.096,0,18.28-9.251,18.28-20.663
			C65.26,165.019,60.499,157.58,53.763,154.534z"/>
	</g>
</g>
<rect x="149.995" y="145.82" fill="none" width="178.436" height="39.465"/>
<g>
	<path fill="#E74A22" d="M106.905,73.674l5.789-4.113l1.305,6.819l-5.258,2.888c-0.244,0.133-0.43,0.371-0.52,0.659l-1.295,4.21
		c-0.095,0.309-0.5,0.231-0.5-0.096v-9.39C106.427,74.254,106.608,73.886,106.905,73.674z"/>
	<path fill="#E74A22" d="M106.933,78.314l6.751-3.577l0.315,1.643l-5.258,2.888c-0.244,0.133-0.43,0.371-0.52,0.659l-1.295,4.21
		c-0.095,0.309-0.5,0.231-0.5-0.095v-5.335C106.559,78.543,106.728,78.405,106.933,78.314z"/>
	<g>
		<rect x="120.604" y="40.144" fill="#9F182C" width="0.322" height="4.37"/>
	</g>
	<ellipse fill="#FAEA4B" cx="120.765" cy="39.692" rx="1.266" ry="1.431"/>
	<path fill="#E74A22" d="M134.625,73.674l-5.79-4.113l-1.304,6.819l5.259,2.888c0.244,0.133,0.429,0.371,0.519,0.659l1.295,4.21
		c0.095,0.309,0.5,0.231,0.5-0.096v-9.39C135.104,74.254,134.923,73.886,134.625,73.674z"/>
	<path fill="#E74A22" d="M134.598,78.314l-6.751-3.577l-0.315,1.643l5.259,2.888c0.244,0.133,0.429,0.371,0.519,0.659l1.295,4.21
		c0.095,0.309,0.5,0.231,0.5-0.095v-5.335C134.972,78.543,134.803,78.405,134.598,78.314z"/>
	<path fill="#B2DEEC" d="M120.765,43.604c0,0-8.7,8.376-8.7,24.583c0,6.373,3.222,13.292,3.222,13.292h5.478h5.477
		c0,0,3.223-6.919,3.223-13.292C129.465,51.98,120.765,43.604,120.765,43.604z"/>
	<polygon fill="#375EA9" points="126.242,81.479 120.765,81.479 115.288,81.479 113.032,90.038 120.765,90.038 128.498,90.038 	"/>
	<path fill="#F18745" d="M127.531,90.038h-6.766h-6.766c0,0-2.417,3.399-0.967,9.104c0,0,0.591-2.306,2.094-3.156
		c0,0-1.611,9.955,5.639,14.932c7.25-4.977,5.639-14.932,5.639-14.932c1.503,0.85,2.094,3.156,2.094,3.156
		C129.948,93.438,127.531,90.038,127.531,90.038z"/>
	<path fill="#FAEA4B" d="M120.765,106.315c-3.357-3.863-2.479-9.607-2.469-9.673l0.122-0.749c0.208-1.281,1.195-2.212,2.348-2.212
		l0,0c1.152,0,2.14,0.931,2.348,2.212l0.121,0.749C123.272,96.893,124.065,102.516,120.765,106.315z"/>
	<path fill="#E74A22" d="M120.765,51.252c1.672,0,3.245-0.327,4.624-0.899c-2.262-4.47-4.624-6.749-4.624-6.749
		s-2.361,2.279-4.624,6.749C117.521,50.925,119.093,51.252,120.765,51.252z"/>
	<ellipse fill="#375EA9" cx="120.765" cy="58.536" rx="3.228" ry="3.648"/>
	<ellipse fill="#2EA9E1" cx="120.765" cy="58.536" rx="1.939" ry="2.192"/>
	<ellipse fill="#375EA9" cx="120.765" cy="71.284" rx="3.948" ry="4.462"/>
	<path fill="#2EA9E1" d="M120.765,74.29c-1.466,0-2.659-1.349-2.659-3.006c0-1.657,1.192-3.005,2.659-3.005
		c1.465,0,2.659,1.348,2.659,3.005C123.424,72.941,122.23,74.29,120.765,74.29z"/>
	<path fill="#B2DEEC" d="M127.022,84.438h-3.913c-0.623,0-1.127,0.571-1.127,1.274s0.504,1.274,1.127,1.274h4.585L127.022,84.438z"
		/>
	<path fill="#B2DEEC" d="M118.421,84.438h-3.913l-0.671,2.549h4.584c0.623,0,1.128-0.571,1.128-1.274S119.043,84.438,118.421,84.438
		z"/>
	<path fill="#B2DEEC" d="M120.765,43.604c0,0-0.658,0.636-1.611,1.889c2.515,3.308,7.088,10.94,7.088,22.694
		c0,6.373-3.222,13.292-3.222,13.292h3.222c0,0,3.223-6.919,3.223-13.292C129.465,51.98,120.765,43.604,120.765,43.604z"/>
	<polygon opacity="0.5" fill="#375EA9" points="126.242,81.479 123.021,81.479 125.276,90.038 128.498,90.038 	"/>
</g>
<g>
	<path fill="#736759" d="M354.015,194.023c-0.082-0.348-0.115-0.71-0.087-1.091c0.154-2.116,1.753-4.772,3.666-5.276
		c2.223-0.587,3.179-3.099,5.142-3.77c1.498-0.512,3.394-1.307,4.838-0.502c1.158,0.646,1.346,0.465,2.552,0.44
		c1.809-0.036,3.233,1.302,4.461,2.66c1.405,1.557,3.965,3.263,3.543,5.857c-0.106,0.664-0.324,1.303-0.4,1.973
		c-0.422,3.735,4.238,5.339,2.329,9.208c-1.398,2.837-2.422,6.976-5.28,8.256c-1.255,0.563-2.325,0.947-3.577,0.273
		c-1.13-0.607-1.41-1.651-2.212-2.479c-1.14-1.174-2.87-1.154-4.083-2.227c-1.376-1.217-1.311-2.939-1.995-4.603
		c-0.772-1.879-2.593-2.833-4.179-3.875C357.077,197.781,354.54,196.241,354.015,194.023z"/>
	<ellipse fill="#83796F" cx="373.763" cy="206.972" rx="1.229" ry="1.389"/>
	<ellipse fill="#83796F" cx="364.757" cy="199.846" rx="0.972" ry="1.099"/>
	<path opacity="0.5" fill="#736759" d="M380.176,200.168c-1.034,2.312-2.147,4.815-4.347,5.736
		c-1.256,0.526-2.327,0.885-3.578,0.256c-1.131-0.568-1.41-1.544-2.212-2.315c-1.139-1.099-2.871-1.079-4.083-2.082
		c-1.377-1.137-1.312-2.745-1.995-4.3c-0.772-1.756-2.594-2.647-4.178-3.621c-1.574-0.967-3.945-2.32-4.624-4.234
		c-0.689,1.008-1.152,2.237-1.231,3.325c-0.028,0.381,0.005,0.743,0.087,1.091c0.525,2.218,3.063,3.758,4.717,4.847
		c1.586,1.042,3.406,1.996,4.179,3.875c0.685,1.663,0.619,3.386,1.995,4.603c1.213,1.072,2.943,1.053,4.083,2.227
		c0.802,0.827,1.082,1.871,2.212,2.479c1.252,0.674,2.322,0.289,3.577-0.273c2.858-1.28,3.882-5.419,5.28-8.256
		C380.712,202.198,380.595,201.138,380.176,200.168z"/>
	<ellipse fill="#C2B49B" cx="371.334" cy="194.088" rx="2.67" ry="3.019"/>
	<path opacity="0.5" fill="#C2B49B" d="M373.023,191.751c0.229,0.444,0.361,0.96,0.361,1.511c0,1.667-1.195,3.019-2.671,3.019
		c-0.641,0-1.229-0.256-1.689-0.681c0.462,0.9,1.322,1.507,2.311,1.507c1.474,0,2.669-1.352,2.669-3.019
		C374.004,193.146,373.622,192.305,373.023,191.751z"/>
	<ellipse fill="#F18745" cx="366.353" cy="187.613" rx="1.596" ry="1.805"/>
	<ellipse fill="#C2B49B" cx="376.584" cy="201.649" rx="1.597" ry="1.805"/>
	<path opacity="0.5" fill="#C2B49B" d="M377.487,200.163c0.177,0.292,0.281,0.643,0.281,1.022c0,0.996-0.714,1.805-1.596,1.805
		c-0.335,0-0.646-0.118-0.904-0.318c0.288,0.472,0.769,0.782,1.314,0.782c0.883,0,1.598-0.809,1.598-1.805
		C378.181,201.033,377.905,200.489,377.487,200.163z"/>
	<ellipse fill="#C2B49B" cx="359.582" cy="192.708" rx="2.181" ry="2.466"/>
	<path opacity="0.5" fill="#C2B49B" d="M360.777,190.649c0.227,0.388,0.359,0.852,0.359,1.352c0,1.361-0.977,2.465-2.182,2.465
		c-0.442,0-0.853-0.149-1.196-0.405c0.39,0.67,1.06,1.113,1.822,1.113c1.205,0,2.182-1.104,2.182-2.466
		C361.763,191.847,361.37,191.089,360.777,190.649z"/>
	<ellipse fill="#F18745" cx="368.664" cy="203.454" rx="2.181" ry="2.466"/>
	<path fill="#F18745" d="M367.18,186.076c0.146,0.273,0.236,0.591,0.236,0.934c0,0.996-0.715,1.805-1.597,1.805
		c-0.303,0-0.585-0.102-0.826-0.268c0.28,0.52,0.782,0.871,1.36,0.871c0.882,0,1.597-0.809,1.597-1.805
		C367.95,186.96,367.641,186.393,367.18,186.076z"/>
	<path fill="#F18745" d="M369.914,201.438c0.25,0.4,0.396,0.887,0.396,1.413c0,1.362-0.977,2.466-2.181,2.466
		c-0.465,0-0.896-0.166-1.251-0.448c0.394,0.636,1.046,1.052,1.785,1.052c1.204,0,2.181-1.104,2.181-2.466
		C370.845,202.62,370.478,201.884,369.914,201.438z"/>
	<path fill="#83796F" d="M371.335,185.86c-0.58,0-1.051,0.53-1.051,1.186c0,0.654,0.471,1.185,1.051,1.185
		c0.577,0,1.048-0.53,1.048-1.185C372.383,186.391,371.912,185.86,371.335,185.86z"/>
	<ellipse fill="#83796F" cx="364.993" cy="193.498" rx="0.699" ry="0.791"/>
	<ellipse fill="#83796F" cx="375.497" cy="191.069" rx="0.698" ry="0.791"/>
	<ellipse fill="#83796F" cx="362.07" cy="188.23" rx="1.018" ry="1.15"/>
	<ellipse fill="#83796F" cx="373.082" cy="199.846" rx="0.699" ry="0.791"/>
</g>
<g>
	<path fill="#A0744C" d="M50.235,65.792c-0.098-0.341-0.244-0.667-0.45-0.97c-1.144-1.685-3.761-2.938-5.61-2.189
		c-2.149,0.869-4.157-0.658-6.129-0.02c-1.503,0.487-3.478,0.98-4.307,2.542c-0.664,1.252-0.908,1.214-1.933,1.932
		c-1.538,1.078-2.094,3.074-2.474,4.968c-0.436,2.168-1.769,5.17-0.171,7.093c0.409,0.492,0.898,0.896,1.282,1.413
		c2.145,2.881-1.003,7.083,2.457,9.166c2.535,1.527,5.379,4.379,8.394,3.705c1.326-0.296,2.41-0.628,3.139-1.961
		c0.659-1.203,0.394-2.251,0.671-3.437c0.394-1.686,1.859-2.729,2.364-4.373c0.574-1.866-0.307-3.273-0.529-5.09
		c-0.252-2.053,0.821-3.969,1.654-5.816C49.462,70.828,50.857,67.977,50.235,65.792z"/>
	<path fill="#754D2A" d="M39.178,87.602c0.571-0.416,1.331-0.23,1.7,0.415c0.367,0.645,0.203,1.504-0.368,1.92
		c-0.57,0.416-1.331,0.23-1.698-0.415C38.443,88.877,38.608,88.018,39.178,87.602z"/>
	<path fill="#754D2A" d="M43.471,76.341c0.451-0.329,1.052-0.182,1.343,0.329c0.291,0.509,0.161,1.189-0.29,1.518
		c-0.451,0.329-1.053,0.182-1.344-0.328C42.89,77.35,43.021,76.67,43.471,76.341z"/>
	<path opacity="0.5" fill="#736759" d="M31.192,86.977c1.978,1.311,4.113,2.733,6.403,2.16c1.308-0.327,2.379-0.681,3.13-1.976
		c0.678-1.169,0.446-2.16,0.749-3.301c0.431-1.62,1.895-2.665,2.434-4.25c0.612-1.799-0.215-3.111-0.384-4.836
		c-0.192-1.949,0.91-3.813,1.775-5.602c0.86-1.777,2.205-4.366,1.857-6.39c1.063,0.424,2.041,1.173,2.628,2.04
		c0.206,0.303,0.352,0.628,0.45,0.97c0.622,2.185-0.773,5.036-1.642,6.963c-0.833,1.847-1.906,3.763-1.654,5.816
		c0.223,1.817,1.103,3.224,0.53,5.09c-0.505,1.644-1.97,2.687-2.365,4.373c-0.277,1.186-0.012,2.234-0.67,3.437
		c-0.729,1.333-1.813,1.665-3.139,1.961c-3.015,0.674-5.859-2.178-8.394-3.705C31.714,89.013,31.305,88.05,31.192,86.977z"/>
	<path fill="#C2B49B" d="M33.465,78.088c0.799,1.401,2.452,1.805,3.691,0.901c1.24-0.903,1.597-2.771,0.798-4.172
		c-0.799-1.401-2.452-1.805-3.692-0.901C33.023,74.819,32.666,76.687,33.465,78.088z"/>
	<path opacity="0.5" fill="#C2B49B" d="M33.169,75.523c0.021,0.514,0.156,1.028,0.42,1.491c0.8,1.401,2.452,1.805,3.692,0.902
		c0.539-0.393,0.911-0.968,1.093-1.607c0.043,1.04-0.388,2.077-1.218,2.681c-1.239,0.904-2.893,0.5-3.691-0.901
		C33.013,77.296,32.931,76.355,33.169,75.523z"/>
	<path fill="#FAEA4B" d="M35.451,68.938c0.477,0.837,1.465,1.079,2.207,0.539c0.74-0.54,0.954-1.657,0.477-2.495
		s-1.465-1.079-2.207-0.539C35.186,66.983,34.973,68.1,35.451,68.938z"/>
	<path fill="#C2B49B" d="M33.58,87.001c0.478,0.837,1.466,1.08,2.207,0.539c0.741-0.54,0.955-1.657,0.477-2.495
		c-0.478-0.837-1.466-1.078-2.206-0.539C33.316,85.047,33.102,86.164,33.58,87.001z"/>
	<path opacity="0.5" fill="#C2B49B" d="M33.45,85.328c-0.01,0.353,0.07,0.712,0.253,1.031c0.477,0.838,1.465,1.08,2.207,0.54
		c0.282-0.206,0.486-0.496,0.606-0.821c-0.015,0.573-0.27,1.129-0.729,1.463c-0.741,0.541-1.729,0.298-2.207-0.539
		C33.285,86.483,33.255,85.858,33.45,85.328z"/>
	<path fill="#C2B49B" d="M43.093,69.432c0.653,1.145,2.002,1.474,3.015,0.736c1.012-0.737,1.304-2.263,0.651-3.407
		c-0.652-1.145-2.002-1.475-3.014-0.736C42.732,66.763,42.441,68.288,43.093,69.432z"/>
	<path opacity="0.5" fill="#C2B49B" d="M42.933,67.097c-0.003,0.466,0.108,0.937,0.347,1.357c0.653,1.144,2.002,1.474,3.015,0.736
		c0.372-0.271,0.645-0.648,0.811-1.073c-0.007,0.802-0.358,1.585-0.998,2.052c-1.013,0.738-2.362,0.408-3.015-0.736
		C42.68,68.708,42.646,67.831,42.933,67.097z"/>
	<path fill="#FAEA4B" d="M40.61,84.026c0.653,1.144,2.003,1.474,3.015,0.736c1.012-0.737,1.304-2.263,0.651-3.407
		c-0.652-1.145-2.002-1.475-3.015-0.737S39.958,82.882,40.61,84.026z"/>
	<path fill="#FAEA4B" d="M35.361,67.175c0.007,0.32,0.084,0.641,0.248,0.929c0.479,0.838,1.466,1.08,2.207,0.54
		c0.256-0.186,0.444-0.443,0.567-0.731c0.014,0.609-0.239,1.211-0.725,1.565c-0.742,0.54-1.73,0.298-2.207-0.539
		C35.137,68.389,35.126,67.723,35.361,67.175z"/>
	<path fill="#FAEA4B" d="M40.425,81.761c-0.017,0.489,0.093,0.988,0.345,1.432c0.653,1.145,2.003,1.474,3.016,0.736
		c0.392-0.286,0.674-0.69,0.836-1.143c-0.027,0.775-0.375,1.524-0.996,1.977c-1.012,0.738-2.362,0.408-3.015-0.736
		C40.21,83.324,40.167,82.479,40.425,81.761z"/>
	<path fill="#754D2A" d="M31.766,69.538c0.486-0.355,1.135-0.196,1.449,0.354c0.313,0.55,0.173,1.283-0.314,1.638
		c-0.486,0.355-1.135,0.196-1.449-0.354C31.138,70.626,31.279,69.893,31.766,69.538z"/>
	<path fill="#754D2A" d="M40.377,71.409c0.325-0.236,0.757-0.13,0.967,0.236c0.209,0.367,0.115,0.856-0.209,1.094
		c-0.325,0.236-0.757,0.131-0.966-0.236S40.052,71.646,40.377,71.409z"/>
	<path fill="#754D2A" d="M30.384,75.802c0.325-0.237,0.758-0.131,0.967,0.236c0.209,0.367,0.115,0.856-0.209,1.093
		c-0.325,0.237-0.758,0.131-0.967-0.236C29.965,76.527,30.059,76.038,30.384,75.802z"/>
	<path fill="#754D2A" d="M40.137,64.89c0.472-0.344,1.102-0.19,1.406,0.343c0.305,0.535,0.169,1.247-0.304,1.591
		c-0.472,0.344-1.103,0.19-1.407-0.344C39.527,65.946,39.664,65.233,40.137,64.89z"/>
	<path fill="#754D2A" d="M36.622,81.698c0.324-0.236,0.757-0.131,0.966,0.236c0.21,0.367,0.116,0.856-0.209,1.093
		c-0.324,0.236-0.757,0.131-0.967-0.236C36.203,82.424,36.296,81.935,36.622,81.698z"/>
</g>
<g>
	<path fill="#375EA9" d="M429.703,144.325h-11.102c2.58,3.583,7.897,5.841,10.105,6.66c0.64,0.237,1.351,0.237,1.99,0
		c2.208-0.818,7.525-3.077,10.104-6.66H429.703z"/>
	<path opacity="0.5" fill="#375EA9" d="M429.703,144.325h-11.102c0.005,0.005,0.009,0.011,0.013,0.017
		c0.081,0.111,0.166,0.215,0.255,0.315l-0.015,0c0,0,0.844,0.961,0.921,1.039c0,0,7.701,1.354,9.928,1.354
		c0.4,0,0.808-0.016,1.209-0.042c1.048-0.066,1.524,1.493,0.643,2.134c-0.007,0.005-0.016,0.01-0.022,0.016
		c-0.973,0.684-1.992,1.277-2.96,1.777c0.045,0.018,0.092,0.035,0.135,0.051c0.64,0.237,1.35,0.237,1.99,0
		c2.208-0.818,7.525-3.077,10.105-6.66H429.703z"/>
	<ellipse fill="#F18745" cx="429.703" cy="137.191" rx="20.312" ry="8.729"/>
	<path fill="#E74A22" d="M429.703,144.874c-10.809,0-19.643-3.628-20.273-8.206c-0.023,0.173-0.038,0.348-0.038,0.524
		c0,4.821,9.095,8.729,20.312,8.729c11.216,0,20.309-3.908,20.309-8.729c0-0.176-0.014-0.351-0.037-0.524
		C449.345,141.246,440.51,144.874,429.703,144.874z"/>
	<path fill="#B2DEEC" d="M441.412,134.52c0,7.31-23.42,7.31-23.42,0c0-7.31,5.242-13.236,11.711-13.236
		C436.169,121.284,441.412,127.209,441.412,134.52z"/>
	<g>
		<path fill="#FAEA4B" d="M447.011,136.409c0,1.065-3.413,1.065-3.413,0c0-1.065,0.765-1.929,1.706-1.929
			C446.246,134.48,447.011,135.344,447.011,136.409z"/>
		<path fill="#FAEA4B" d="M445.586,134.497c0.314,0.35,0.509,0.835,0.509,1.373c0,0.698-1.464,0.938-2.475,0.722
			c0.396,0.861,3.367,0.795,3.367-0.198C446.987,135.445,446.383,134.66,445.586,134.497z"/>
	</g>
	<path fill="#FAEA4B" d="M431.408,142.728c0,1.065-3.412,1.065-3.412,0c0-1.064,0.764-1.928,1.707-1.928
		C430.645,140.799,431.408,141.663,431.408,142.728z"/>
	<path fill="#E74A22" d="M418.013,133.758c-0.013,0.252-0.021,0.506-0.021,0.761c0,7.31,23.42,7.31,23.42,0
		c0-0.255-0.009-0.509-0.021-0.761C440.646,140.587,418.76,140.587,418.013,133.758z"/>
	<ellipse fill="#92D1DB" cx="429.702" cy="133.758" rx="10.637" ry="4.056"/>
	<path fill="#B2DEEC" d="M430.683,122.51c-0.697,0-1.378,0.083-2.034,0.239c4.467,1.06,7.82,5.536,7.82,10.9
		c0,2.649-3.657,4.157-7.82,4.524c5.502,0.486,11.89-1.022,11.89-4.524C440.538,127.498,436.125,122.51,430.683,122.51z"/>
	<g>
		<path fill="#FAEA4B" d="M440.802,141.045c0,1.065-3.412,1.065-3.412,0s0.765-1.929,1.706-1.929
			C440.038,139.117,440.802,139.98,440.802,141.045z"/>
		<path fill="#FAEA4B" d="M439.4,139.149c0.313,0.35,0.509,0.835,0.509,1.373c0,0.697-1.464,0.938-2.475,0.721
			c0.396,0.862,3.367,0.796,3.367-0.198C440.802,140.098,440.196,139.312,439.4,139.149z"/>
	</g>
	<g>
		<path fill="#FAEA4B" d="M415.807,136.409c0,1.065-3.413,1.065-3.413,0c0-1.065,0.765-1.929,1.706-1.929
			C415.042,134.48,415.807,135.344,415.807,136.409z"/>
		<path fill="#FAEA4B" d="M414.383,134.497c0.313,0.35,0.508,0.835,0.508,1.373c0,0.698-1.463,0.938-2.474,0.722
			c0.395,0.861,3.367,0.795,3.367-0.198C415.784,135.445,415.18,134.66,414.383,134.497z"/>
	</g>
	<g>
		<path fill="#FAEA4B" d="M422.015,141.045c0,1.065-3.413,1.065-3.413,0s0.764-1.929,1.707-1.929
			C421.251,139.117,422.015,139.98,422.015,141.045z"/>
		<path fill="#FAEA4B" d="M420.613,139.149c0.313,0.35,0.508,0.835,0.508,1.373c0,0.697-1.465,0.938-2.475,0.721
			c0.396,0.862,3.368,0.796,3.368-0.198C422.015,140.098,421.409,139.312,420.613,139.149z"/>
	</g>
	<path fill="#FAEA4B" d="M430.007,140.833c0.313,0.349,0.508,0.834,0.508,1.373c0,0.697-1.465,0.938-2.474,0.721
		c0.396,0.862,3.367,0.796,3.367-0.198C431.408,141.78,430.804,140.994,430.007,140.833z"/>
</g>
<g>
	<defs>
		<rect id="SVGID_1_" x="-2.441" y="0.236" width="483.306" height="364.191"/>
	</defs>
	<clipPath id="SVGID_2_">
		<use xlink:href="#SVGID_1_"  overflow="visible"/>
	</clipPath>
	<g clip-path="url(#SVGID_2_)">
		<path fill="#613A14" d="M464.163,254.814c-3.537-3.231-7.132-6.361-10.803-9.373c-8.801-7.223-16.146-17.513-25.472-23.606
			c-7.738-5.058-10.548-2.817-17.227,2.699c-10.425,8.613-20.626,16.816-31.445,24.454c-1.742-1.942-5.667-1.278-8.083-1.512
			c-4.757-0.463-11.577-3.391-16.038-5.549c-4.137-2.002-7.908-5.045-11.97-7.263c-4.396-2.4-5.807-0.816-9.505,3.027
			c-5.633,5.855-10.344,13.298-16.668,17.962c-6.266,4.622-11.798-3.821-18.059-4.862c-7.505-1.248-14.619,7.374-22.796,4.136
			c-2.534-1.005-4.359-3.48-6.413-5.308c-5.772-5.135-15.666-17.032-23.187-14.664c-10.394,3.276-15.704,17.75-27.365,17.566
			c-11.573-0.18-23.723-4.362-34.461-9.797c-12.521-6.337-24.6-24.319-38.935-24.479c-7.92-0.089-15.002,9.536-21.437,14.148
			c-6.068,4.349-12.943,12.693-20.325,13.469c-6.201,0.649-12.139-8.975-16.416-13.896c-6.026-6.937-17.135-21.301-25.47-14.359
			c-9.364,7.799-17.695,18.118-27.315,25.311c-6.837,5.113-14.407,7.179-19.223,16.16c-5.123,9.55-12.882,17.422-20.622,22.98
			c-3.863,2.776-7.955,4.277-11.617,7.453c-1.363,1.183-5.169,6.247-6.865,6.247c0.653,0,530.393,0,530.408,0
			c-3.695,0-10.031-8.003-12.847-10.841c-4.209-4.245-8.289-8.716-12.448-13.047C475.87,265.943,470.099,260.234,464.163,254.814z"
			/>
		<path fill="#553014" d="M59.836,295.76c15.991,0,33.676,0,52.52,0c18.312,0,37.712,0,57.699,0l0,0c109.419,0,236.412,0,298.561,0
			c-0.089-0.16-0.176-0.319-0.265-0.48c-3.288-5.954-7.861-10.733-11.219-16.591c-2.422-4.226-3.391-9.163-5.392-13.612
			c-3.625-8.054-11.02-5.974-17.081-10.478c-7.354-5.463-8.121-27.947-14.299-35.584c-3.102,0.102-5.711,2.226-9.698,5.52
			c-10.078,8.326-19.953,16.267-30.375,23.686c-0.453,0.487-0.932,0.923-1.454,1.279c-2.135,1.454-5.093,1.59-7.399,2.805
			c-3.794,2.004-5.106,5.142-8.616,8.109c-5.097,4.308-13.482,0.926-17.481-3.701c-4.594-5.313-5.131-14.557-9.439-19.468
			c-0.329-0.377-0.639-0.673-0.939-0.929c-0.414,0.419-0.855,0.877-1.336,1.377c-4.9,5.094-9.105,11.389-14.281,16.011
			c-1.974,4.262-3.777,8.706-6.11,13.424c-4.715,9.542-12.646,14.604-21.986,16.4c-5.822,1.121-12.206,1.052-17.75-1.475
			c-1.918-1.915-3.902-3.754-5.895-5.573c-6.126-5.596-6.543-6.852-8.09-15.36c-1.133-6.241-4.963-8.294-7.827-13.065
			c-2.299-3.83-3.827-9.279-8.007-11.61c-0.088-0.048-0.177-0.081-0.265-0.126c-6.576,3.706-11.276,11.505-17.93,14.745
			c-0.933,1.287-1.802,2.396-2.594,3.187c-4.696,4.675-12.147,8.145-18.072,10.063c-6.656,2.152-13.273,2.009-20.15,0.786
			c-3.618-0.642-8.278-1.065-11.502-3.37c-1.256-0.898-2.176-2.264-3.144-3.399c-3.228-6.4-5.54-12.995-10.551-18.264
			c-6.074-6.387-16.628-10.899-20.074-19.994v0.001c-0.339,0.188-0.676,0.387-1.012,0.597l0,0c-0.333,0.208-0.665,0.426-0.994,0.651
			c-0.004,0.003-0.008,0.006-0.013,0.009c-2.792,1.922-5.471,4.469-8.052,6.831c-0.05,0.046-0.1,0.092-0.15,0.137
			c-0.169,0.155-0.339,0.311-0.508,0.463c-0.238,0.217-0.476,0.431-0.712,0.643c-0.083,0.074-0.165,0.146-0.247,0.219
			c-0.195,0.173-0.391,0.344-0.585,0.514c-0.081,0.07-0.163,0.142-0.245,0.212c-0.26,0.224-0.52,0.443-0.779,0.657
			c-0.04,0.032-0.08,0.064-0.119,0.097c-0.226,0.186-0.453,0.366-0.678,0.542c-0.071,0.057-0.143,0.112-0.213,0.166
			c-0.263,0.203-0.525,0.4-0.786,0.587c-0.38,0.272-0.762,0.56-1.147,0.859c-0.002,0.002-0.003,0.003-0.004,0.004
			c-1.156,0.9-2.34,1.917-3.551,2.971c-0.742,1.65-1.521,3.276-2.494,4.773c-7.219,11.11-19.94,25.179-33.344,23.987
			c-1.167-0.735-2.24-1.64-3.144-2.879c-5.666-7.763-7.126-16.857-9.261-26.339c-1.426-6.339-3.366-14.184-7.513-19.291h-0.001
			c-0.286,0.137-0.57,0.296-0.852,0.475c-0.013,0.008-0.026,0.014-0.038,0.021c-0.289,0.186-0.575,0.395-0.857,0.63
			c-0.002,0.001-0.003,0.002-0.004,0.002c-5.852,4.875-11.301,10.733-16.914,16.198c-3.368,3.278-6.794,6.416-10.401,9.112
			c-4.701,3.516-9.747,5.591-14.008,9.462c-1.161,1.056-2.265,2.245-3.287,3.635c-0.34,0.463-0.672,0.948-0.994,1.457
			c-0.322,0.511-0.634,1.044-0.935,1.606c-5.123,9.55-12.882,17.422-20.622,22.98c-3.863,2.776-7.955,4.277-11.617,7.453
			c-0.426,0.369-1.09,1.118-1.854,1.973c-0.306,0.343-0.627,0.701-0.956,1.06c-0.165,0.179-0.331,0.358-0.498,0.534
			c-1.333,1.414-2.709,2.681-3.557,2.681C-23.379,295.76,9.958,295.76,59.836,295.76z"/>
	</g>
	<g clip-path="url(#SVGID_2_)">
		<path fill="#A0744C" d="M378.515,293.868c-0.081-1.242-0.714-2.445-1.834-3.592c-2.873-2.944-5.393-6.315-7.189-10.201
			c-7.824-16.923-9.289-37.277-9.289-37.277h-32.849h-32.85c0,0-1.465,20.354-9.29,37.277c-1.796,3.886-4.315,7.257-7.189,10.201
			c-1.119,1.146-1.752,2.35-1.833,3.592c-0.087,0.092-0.172,0.185-0.259,0.274h0.247c0,7.996,22.911,14.479,51.174,14.479
			c28.262,0,51.174-6.482,51.174-14.479h0.247C378.687,294.053,378.602,293.96,378.515,293.868z"/>
		<ellipse fill="#8A5F3D" cx="327.353" cy="242.798" rx="32.849" ry="9.296"/>
		<path fill="#754D2A" d="M303.108,240.443c-1.841,0.798-1.841,3.746,0,4.545c5.266,2.282,14.372,3.793,24.729,3.793
			c10.356,0,19.463-1.511,24.729-3.793c1.839-0.799,1.839-3.747,0-4.545c-5.267-2.282-14.373-3.793-24.729-3.793
			C317.48,236.65,308.374,238.161,303.108,240.443z"/>
	</g>
	<g clip-path="url(#SVGID_2_)">
		<path fill="#A0744C" d="M187.566,295.257c-0.067-1.031-0.593-2.032-1.524-2.986c-2.388-2.447-4.484-5.252-5.978-8.48
			c-6.505-14.07-7.723-30.992-7.723-30.992h-27.311h-27.312c0,0-1.218,16.922-7.723,30.992c-1.494,3.23-3.588,6.033-5.978,8.48
			c-0.931,0.954-1.457,1.955-1.524,2.986c-0.072,0.076-0.143,0.154-0.215,0.229h0.206c0,6.647,19.048,12.038,42.546,12.038
			c23.497,0,42.545-5.391,42.545-12.038h0.206C187.709,295.411,187.639,295.333,187.566,295.257z"/>
		<ellipse fill="#8A5F3D" cx="145.031" cy="252.798" rx="27.311" ry="7.728"/>
		<path fill="#754D2A" d="M124.873,250.841c-1.53,0.662-1.53,3.114,0,3.776c4.378,1.898,11.95,3.154,20.561,3.154
			c8.61,0,16.181-1.256,20.56-3.154c1.53-0.662,1.53-3.114,0-3.776c-4.379-1.899-11.95-3.154-20.56-3.154
			C136.823,247.687,129.251,248.941,124.873,250.841z"/>
	</g>
	<g clip-path="url(#SVGID_2_)">
		<polygon fill="#754D2A" points="-25.35,310.567 -25.35,378.201 504.776,378.201 504.776,313.791 		"/>
		<path fill="#A87D50" d="M-25.35,292.504c7.379,3.752,15.171-1.606,22.602-2.664c7.715-1.098,15.95-0.884,23.675-1.334
			c12.404-0.723,24.504-0.684,36.774-1.333c17.875-0.944,35.562,2.664,53.572,2.664c16.911,0,34.912-0.306,51.484-3.313
			c17.036-3.09,33.22,0.341,50.241,1.313c9.045,0.517,17.378-0.772,26.335-1.332c7.266-0.453,14.306,1.814,21.646,1.332
			c26.292-1.726,53.065-0.63,79.47-0.667c17.603-0.025,36.597-4.773,53.911-1.981c10.732,1.729,21.075,3.548,31.935,4.421
			c7.842,0.629,14.842-2.528,22.435-2.439c8.345,0.098,16.362,2.721,24.558,3.368c10.238,0.81,21.339-0.418,31.487-1.666v32.91
			c-7.379,3.751-15.171-1.607-22.602-2.665c-7.715-1.098-15.951-0.883-23.676-1.332c-12.403-0.723-24.503-0.687-36.774-1.335
			c-17.874-0.944-35.562,2.665-53.572,2.665c-16.91,0-34.912-0.307-51.484-3.313c-17.036-3.092-33.22,0.341-50.24,1.313
			c-9.045,0.517-17.378-0.771-26.335-1.331c-7.267-0.454-14.307,1.813-21.647,1.331c-26.292-1.725-53.065-0.631-79.47-0.666
			c-17.603-0.026-36.598-4.775-53.911-1.984c-10.732,1.73-21.075,3.551-31.936,4.423c-7.841,0.63-14.84-2.528-22.434-2.438
			c-8.344,0.097-16.362,2.719-24.558,3.367c-10.238,0.809-21.339-0.417-31.487-1.666V292.504z"/>
		<path fill="#8A5F3D" d="M-35.567,349.077c0.973-0.89,3.431-1.42,7.924-1.2c7.401,0.364,14.827,0.483,22.252,0.41
			c13.829-0.14,27.612-0.956,41.308-2.019c15.972-1.24,31.472-2.472,47.624-2.457c38.043,0.035,72.732,3.734,110.413,6.372
			c54.162,3.793,110.917-0.929,165.252-1.805c41.822-0.677,82.897-2.905,124.791-2.905c8.293,0,19.348-0.47,26.564,2.312
			c3.532,1.361,5.521,4.015,1.239,5.431c-6.733,2.226-17.709,2.186-25.228,2.224c-23.48,0.12-46.827-0.554-70.438,0.109
			c-21.889,0.617-43.587,2.628-65.291,4.017c-18.993,1.216-37.497,0.174-56.433,0.307c-18.521,0.127-37.064,0.539-55.668,0.552
			c-38.046,0.021-75.015-4.864-113.212-2.921c-39.631,2.016-78.547-1.512-118.202-1.51c-10.203,0-24.218,2.027-33.79,0.015
			C-32.741,354.688-37.688,351.024-35.567,349.077z"/>
		<path fill="#613A14" d="M-33.969,330.795c0.067,0.017,0.132,0.051,0.194,0.085c1.912,1.021,3.418,1.34,5.527,1.34
			c1.001-0.097,1.991-0.3,2.972-0.54c0.853-0.209,1.9-0.739,2.768-0.739c6.654-1.769,13.336-3.6,20.197-3.66
			c16.811-0.146,33.588,2.428,50.494,2.428c24.496,0,49.218-7.038,73.686-3.534c36.74,5.261,73.78-3.846,110.112,2.065
			c9.919,1.612,19.418-0.96,29.642-0.96c0.939,0,5.078,0.938,6.7,1.453c6.828,2.167,14.38,3.242,21.407,4.409
			c12.815,2.131,26.793,0.082,39.801,1.263c15.225,1.379,28.015-1.172,42.947-4.472c11.911-2.633,24.994-2.33,36.93,0.141
			c27.287,5.65,54.972-1.432,82.462,0.118c6.736,0.38,16.938-3.607,22.621,1.327c-1.067,5.35-7.327,6.883-11.479,7.397
			c-8.494,1.053-16.989-1.276-25.623,0.006c-10.393,1.545-18.339,2.781-28.971,1.602c-8.705-0.966-16.207,0.467-24.821,0.354
			c-10.906-0.146-21.617-2.429-32.551-2.429c-13.578,0-26.549-0.028-39.937,2.915c-12.978,2.854-26.047,4.223-39.178,2.331
			c-11.423-1.644-23.247-2.843-34.863-2.817c-11.354,0.021-22.838-0.277-34.174-0.987c-10.781-0.678-21.803,2.018-32.671,2.485
			c-13.127,0.564-26.292,0.004-39.344-1.677c-12.891-1.66-25.815-6.742-38.705-7.092c-9.93-0.269-19.688,2.675-29.614,2.42
			c-10.222-0.263-20.391-1.948-30.64-1.948c-11.181,0-22.296,3.595-33.402,4.826c-11.146,1.234-22.36-0.655-33.592-0.08
			c-7.857,0.405-15.444,0.89-23.2,1.804c-5.226,0.616-11.793,0.707-15.555-4.195c-0.956-1.246-1.729-2.693-2.125-4.288
			c-0.028-0.116-0.056-0.238-0.037-0.355c0.087-0.519,1.301-0.784,1.659-0.937c0.091-0.038,0.185-0.076,0.282-0.072
			C-34.023,330.782-33.996,330.786-33.969,330.795z"/>
		<path fill="#613A14" d="M294.584,321.563c0.439-0.09,0.853-0.189,1.202-0.333c0.859-0.357,1.678-0.839,2.54-1.188
			c1.688-0.679,3.622-0.728,4.328,1.466c1.573,4.877-6.075,6.455-8.717,5.769c-1.174-0.304-3.468-0.723-3.491-2.482
			C290.411,322.135,292.731,321.94,294.584,321.563z"/>
		<path fill="#613A14" d="M96.692,353.807c0.503,0.103,0.975,0.216,1.375,0.381c0.983,0.409,1.917,0.96,2.904,1.355
			c1.931,0.778,4.144,0.834,4.952-1.673c1.797-5.58-6.951-7.385-9.972-6.601c-1.342,0.349-3.966,0.826-3.993,2.841
			C91.919,353.152,94.573,353.376,96.692,353.807z"/>
		<path fill="#8A5F3D" d="M322.83,337.41c0.261-0.081,0.515-0.179,0.757-0.313c0.633-0.35,1.286-0.73,1.99-0.73
			c2.226,0.003,2.235,4.338,0.719,5.428c-1.206,0.867-4.525,0.702-5.74,0.289c-1.799-0.609-1.335-2.592-0.16-3.676
			C321.088,337.769,321.986,337.673,322.83,337.41z"/>
		<path fill="#8A5F3D" d="M101.642,327.229c0.26-0.082,0.515-0.18,0.758-0.313c0.631-0.351,1.285-0.731,1.988-0.729
			c2.226,0.003,2.236,4.336,0.721,5.426c-1.207,0.869-4.527,0.704-5.742,0.291c-1.799-0.609-1.334-2.592-0.16-3.677
			C99.899,327.587,100.797,327.491,101.642,327.229z"/>
		<path fill="#8A5F3D" d="M391.539,324.755c2.274-0.709,5.649-2.02,7.873-0.532c2.517,1.681,1.292,7.84-0.867,9.391
			c-2.439,1.756-9.147,1.422-11.601,0.59c-3.637-1.233-2.698-5.239-0.325-7.433C388.019,325.479,389.833,325.288,391.539,324.755z"
			/>
		<path fill="#613A14" d="M133.781,340.822c0.428,0.384,0.804,0.84,1.216,1.253c1.136,1.14,2.949,1.55,4.109,0.191
			c1.054-1.234,1.003-3.531,0.075-4.808c-1.008-1.387-3.154-1.75-4.642-1.791c-2.162-0.059-4.046,1.461-2.667,3.817
			c0.352,0.601,0.876,0.602,1.376,0.925C133.438,340.532,133.614,340.672,133.781,340.822z"/>
		<path fill="#613A14" d="M237.5,321.01c0.428-0.385,0.803-0.839,1.215-1.253c1.136-1.14,2.949-1.55,4.109-0.191
			c1.054,1.235,1.004,3.531,0.075,4.808c-1.009,1.387-3.154,1.75-4.643,1.789c-2.161,0.06-4.045-1.459-2.666-3.814
			c0.352-0.601,0.875-0.603,1.375-0.926C237.156,321.299,237.332,321.16,237.5,321.01z"/>
		<path fill="#8A5F3D" d="M193.098,328.332c-3.679,1.86-7.658,7.684-2.584,10.487c1.774,0.98,3.551,0.631,5.188-0.474
			c1.199-0.809,3.953-2.576,4.099-4.351C200.014,331.399,196.169,328.234,193.098,328.332z"/>
		<path fill="#613A14" d="M345.492,321.9c3.211,1.625,6.685,6.708,2.256,9.154c-1.549,0.855-3.099,0.549-4.528-0.414
			c-1.047-0.706-3.451-2.249-3.578-3.798C339.456,324.578,342.813,321.814,345.492,321.9z"/>
		<path fill="#613A14" d="M163.345,318.395c-0.799-0.022-2.113,1.306-2.466,2.11c-0.515,1.171,0.763,2.488,1.772,2.891
			c1.65,0.66,3.876-0.673,3.755-2.807C166.342,319.453,164.629,318.151,163.345,318.395z"/>
		<path fill="#8A5F3D" d="M457.335,321.009c-1.155-0.033-3.057,1.887-3.568,3.054c-0.745,1.696,1.105,3.602,2.565,4.186
			c2.39,0.954,5.612-0.975,5.438-4.064C461.676,322.54,459.194,320.656,457.335,321.009z"/>
		<path fill="#613A14" d="M429.147,321.874c-0.691,0.504-2.039,1.343-2.284,2.257c-0.33,1.226,1.149,2.406,2.033,2.765
			c1.283,0.521,2.746-0.081,3.866-0.796c0.727-0.464,2.25-1.346,1.993-2.546c-0.38-1.775-2.391-2.549-3.729-2.171
			C430.475,321.539,429.776,321.754,429.147,321.874z"/>
		<path fill="#8A5F3D" d="M275.457,343.074c-0.692,0.507-2.039,1.344-2.286,2.26c-0.329,1.225,1.15,2.405,2.034,2.764
			c1.283,0.52,2.746-0.08,3.866-0.795c0.728-0.464,2.25-1.346,1.993-2.546c-0.381-1.778-2.391-2.55-3.729-2.172
			C276.782,342.742,276.085,342.955,275.457,343.074z"/>
		<path fill="#613A14" d="M226.811,345.195c0.756,2.797,4.014,4.879,6.165,2.758c0.846-0.837,2.266-2.357,1.913-3.795
			c-0.258-1.043-1.505-1.822-2.359-2.074C231.012,341.639,227.037,342.349,226.811,345.195z"/>
		<path fill="#613A14" d="M377.232,340.307c-1.513,0.971-5.073,2.876-2.517,4.537c1.777,1.154,4.274,0.324,5.849-0.975
			c2.249-1.855-1.012-5.332-2.921-3.848C377.539,340.104,377.397,340.199,377.232,340.307z"/>
		<path fill="#8A5F3D" d="M8.247,339.733c-0.396-0.039-0.775-0.006-1.07,0.106c-0.476,0.179-0.953,0.351-1.419,0.563
			c-0.862,0.388-1.823,0.866-2.423,1.702c-1.036,1.439-0.121,3.678,1.415,3.979c1.431,0.285,4.069-0.251,4.918-1.771
			c0.533-0.953,1.285-2.651,0.64-3.568C9.901,340.168,9.039,339.81,8.247,339.733z"/>
		<path fill="#8A5F3D" d="M482.487,331.503c-0.291-0.028-0.571-0.004-0.787,0.078c-0.351,0.133-0.703,0.259-1.045,0.414
			c-0.634,0.286-1.342,0.64-1.782,1.253c-0.763,1.06-0.09,2.707,1.04,2.93c1.053,0.209,2.994-0.186,3.619-1.305
			c0.392-0.701,0.944-1.95,0.472-2.625C483.704,331.825,483.069,331.561,482.487,331.503z"/>
		<path fill="#613A14" d="M350.064,349.808c-1.187,0.181-2.369,0.44-3.57,0.644c-1.297,0.22-2.54,0.501-3.483,1.623
			c-1.289,1.535-0.698,3.032,0.586,4.214c1.662,1.531,4.315,1.312,6.337,1.175c1.038-0.07,1.741-0.526,2.692-0.78
			c1.581-0.423,3.804-0.018,5.178-1.224c2.235-1.963-1.281-5.295-2.999-5.654C353.189,349.468,351.625,349.569,350.064,349.808z"/>
		<path fill="#8A5F3D" d="M69.287,335.513c-0.308-0.15-1.251,0.076-1.613,0.161c-0.575,0.137-1.181,0.542-1.476,1.127
			c-0.657,1.303-0.05,2.43,0.979,3.114c1.633,1.084,3.763,1.217,5.556,0.571c0.804-0.288,1.761-0.908,1.907-1.934
			c0.204-1.431-1.272-1.687-2.155-1.94c-0.664-0.189-1.299-0.506-1.917-0.781C70.155,335.646,69.76,335.564,69.287,335.513z"/>
		<path fill="#613A14" d="M33.142,320.527c-0.504,0.047-1.014-0.225-1.541-0.326c-1.35-0.258-2.719-0.063-3.657,1.172
			c-0.459,0.602-1.148,1.916-0.911,2.734c0.199,0.687,1.328,1.604,1.891,1.883c1.987,0.989,3.965-0.521,5.982-0.518
			c1.41,0.003,3.042,0.352,3.367-1.738c0.234-1.506-1.404-3.343-2.661-3.782c-0.742-0.259-1.416,0.136-2.081,0.464
			C33.403,320.481,33.272,320.515,33.142,320.527z"/>
		<path fill="#613A14" d="M59.09,348.986c0.716,0.049,1.441-0.224,2.189-0.325c1.918-0.258,3.862-0.063,5.196,1.171
			c0.652,0.602,1.631,1.917,1.294,2.734c-0.283,0.688-1.888,1.602-2.687,1.882c-2.824,0.99-5.634-0.521-8.5-0.518
			c-2.003,0.003-4.323,0.352-4.785-1.738c-0.333-1.505,1.994-3.341,3.781-3.78c1.054-0.259,2.011,0.135,2.957,0.464
			C58.719,348.94,58.905,348.974,59.09,348.986z"/>
		<path fill="#8A5F3D" d="M-33.086,305.429c0,0,0.115-0.062,0.337-0.181c0.227-0.105,0.538-0.328,0.993-0.493
			c0.894-0.388,2.256-0.803,4.025-1.075c1.768-0.277,3.935-0.424,6.415-0.459c2.479-0.042,5.277,0.041,8.305,0.106
			c1.523,0.038,3.066,0.006,4.713-0.074c1.639-0.068,3.354-0.076,5.102-0.066c3.501,0.039,7.197,0.213,11.001,0.612
			c3.805,0.392,7.727,0.926,11.682,1.654c1.965,0.351,4.001,0.751,5.967,1.236c1.972,0.461,3.932,0.901,5.88,1.104
			c1.937,0.199,3.89,0.187,5.591-0.508c0.738-0.323,1.507-0.937,2.217-1.646c0.724-0.711,1.443-1.529,2.287-2.282
			c0.425-0.369,0.871-0.734,1.372-1.032c0.07-0.043,0.103-0.07,0.203-0.126l0.168-0.09l0.335-0.182
			c0.212-0.123,0.476-0.238,0.716-0.356c0.973-0.449,1.922-0.808,2.887-1.129c1.921-0.63,3.835-1.101,5.723-1.498
			c1.897-0.376,3.727-0.75,5.596-0.943c1.873-0.189,3.737-0.16,5.497,0.007c3.542,0.352,6.781,1.217,9.745,1.948
			c2.965,0.74,5.677,1.354,8.114,1.657c1.214,0.175,2.329,0.109,3.403,0.051c1.066-0.078,2.046-0.151,2.93-0.216
			c1.775-0.134,3.19-0.081,4.132,0.114c0.238,0.037,0.441,0.099,0.617,0.153c0.177,0.049,0.323,0.101,0.436,0.158
			c0.229,0.103,0.346,0.155,0.346,0.155s-0.12-0.043-0.355-0.126c-0.115-0.049-0.262-0.089-0.44-0.122
			c-0.177-0.039-0.382-0.083-0.618-0.103c-0.941-0.124-2.328-0.032-4.085,0.192c-0.881,0.119-1.857,0.251-2.919,0.395
			c-0.534,0.066-1.093,0.123-1.677,0.165c-0.604,0.031-1.192,0.05-1.829-0.006c-2.49-0.152-5.281-0.608-8.271-1.237
			c-2.997-0.6-6.22-1.308-9.632-1.553c-1.714-0.106-3.441-0.078-5.207,0.155c-1.77,0.246-3.62,0.635-5.458,1.044
			c-1.842,0.424-3.701,0.919-5.527,1.557c-0.908,0.318-1.82,0.687-2.672,1.1c-0.212,0.106-0.413,0.19-0.642,0.323l-0.334,0.185
			l-0.167,0.091l-0.124,0.08c-0.379,0.227-0.742,0.526-1.103,0.845c-0.723,0.648-1.418,1.442-2.205,2.229
			c-0.794,0.785-1.667,1.555-2.818,2.065c-2.121,0.865-4.331,0.86-6.409,0.659c-2.09-0.231-4.112-0.702-6.09-1.177
			c-1.977-0.5-3.903-0.892-5.877-1.257c-3.921-0.731-7.788-1.38-11.547-1.824c-3.759-0.447-7.404-0.754-10.868-0.896
			c-1.736-0.068-3.41-0.101-5.048-0.104c-1.63,0.01-3.255-0.027-4.771-0.133c-3.048-0.18-5.817-0.435-8.278-0.544
			c-2.46-0.115-4.606-0.1-6.364,0.069c-1.754,0.179-3.127,0.445-4.028,0.764c-0.461,0.126-0.788,0.325-1.021,0.411
			C-32.968,305.377-33.086,305.429-33.086,305.429z"/>
		<path fill="#8A5F3D" d="M111.521,305.048c0,0,0.22-0.18,0.631-0.516c0.421-0.315,1.075-0.756,1.945-1.203
			c0.88-0.421,1.969-0.898,3.26-1.283c1.289-0.39,2.766-0.742,4.401-0.965c1.634-0.23,3.424-0.368,5.334-0.247
			c1.909,0.08,3.985,0.586,5.913,1.45c1.945,0.84,3.792,1.87,5.707,2.175c0.958,0.158,1.937,0.146,2.92-0.027l0.771-0.154
			l0.741-0.186c0.496-0.137,1.002-0.294,1.503-0.467c2.011-0.664,4.051-1.596,6.238-2.125c1.089-0.271,2.21-0.422,3.318-0.424
			c0.339,0.013,0.532,0.017,0.826,0.039c0.292,0.042,0.602,0.065,0.873,0.127c0.552,0.111,1.089,0.256,1.598,0.441
			c2.049,0.73,3.74,1.783,5.446,2.255c0.424,0.125,0.846,0.215,1.264,0.281c0.211,0.025,0.42,0.05,0.627,0.076
			c0.223,0.018,0.443,0.038,0.662,0.058c0.87,0.082,1.71,0.158,2.518,0.232c3.222,0.275,5.911,0.437,7.786,0.339
			c0.935-0.054,1.671-0.154,2.139-0.349c0.238-0.089,0.394-0.217,0.486-0.318c0.08-0.109,0.11-0.182,0.11-0.182
			s-0.02,0.074-0.09,0.203c-0.081,0.117-0.23,0.278-0.463,0.405c-0.461,0.27-1.198,0.507-2.142,0.672
			c-1.89,0.346-4.616,0.504-7.871,0.484c-0.813-0.009-1.659-0.019-2.535-0.027c-0.427,0.001-0.878-0.016-1.37-0.052
			c-0.478-0.047-0.962-0.12-1.443-0.232c-1.937-0.428-3.773-1.414-5.605-1.999c-0.461-0.151-0.922-0.255-1.387-0.332
			c-0.234-0.045-0.441-0.046-0.665-0.077c-0.222-0.013-0.55-0.008-0.733-0.011c-0.977,0.044-1.96,0.201-2.948,0.45
			c-1.977,0.496-3.958,1.426-6.086,2.157c-0.535,0.177-1.072,0.338-1.626,0.482l-0.842,0.2l-0.821,0.152
			c-1.145,0.189-2.334,0.195-3.48-0.01c-1.149-0.197-2.233-0.613-3.223-1.083c-0.957-0.471-1.901-0.936-2.832-1.394
			c-1.825-0.862-3.599-1.429-5.401-1.612c-1.793-0.205-3.527-0.221-5.121-0.13c-1.594,0.101-3.055,0.288-4.339,0.534
			c-1.284,0.253-2.384,0.572-3.283,0.875c-0.889,0.339-1.571,0.642-2.026,0.898C111.76,304.904,111.521,305.048,111.521,305.048z"/>
		<path fill="#8A5F3D" d="M238.425,293.288c0,0,0.741-0.08,2.013-0.299c1.276-0.205,3.076-0.612,5.305-0.899
			c1.114-0.14,2.343-0.251,3.67-0.143c0.388,0.021,0.655,0.077,0.994,0.114c0.328,0.05,0.693,0.138,1.044,0.209
			c0.68,0.173,1.364,0.399,2.035,0.662c1.347,0.525,2.682,1.146,4,1.736c1.322,0.588,2.659,1.086,4.006,1.296
			c0.335,0.075,0.671,0.086,1.006,0.129c0.319,0.019,0.732,0.04,1.07,0.043c0.688,0.01,1.41-0.012,2.117-0.051
			c1.416-0.092,2.831-0.2,4.207-0.333c2.747-0.265,5.398-0.405,7.641-0.151c1.1,0.117,2.106,0.225,2.999,0.32
			c0.887,0.073,1.66,0.107,2.297,0.084c0.636-0.03,1.136-0.097,1.476-0.161c0.338-0.084,0.519-0.128,0.519-0.128
			s-0.17,0.084-0.489,0.241c-0.327,0.135-0.814,0.338-1.46,0.479c-0.645,0.147-1.438,0.268-2.348,0.32
			c-0.908,0.063-1.934,0.085-3.03,0.1c-1.091,0.021-2.26,0.117-3.502,0.256c-1.241,0.144-2.552,0.362-3.924,0.554
			c-1.371,0.188-2.797,0.429-4.277,0.526c-0.741,0.054-1.48,0.091-2.261,0.091c-0.396,0.003-0.719-0.008-1.135-0.025
			c-0.396-0.042-0.801-0.05-1.189-0.132c-1.575-0.277-3.048-0.865-4.413-1.5c-1.375-0.627-2.642-1.346-3.892-1.891
			c-0.621-0.287-1.24-0.507-1.843-0.726c-0.298-0.087-0.573-0.183-0.884-0.259c-0.304-0.062-0.669-0.159-0.912-0.188
			c-1.193-0.188-2.368-0.229-3.459-0.227c-2.184,0.026-4.045,0.122-5.343,0.085c-0.65-0.008-1.163-0.054-1.507-0.081
			C238.609,293.307,238.425,293.288,238.425,293.288z"/>
		<path fill="#8A5F3D" d="M291.695,302.029c0,0,0.563-0.007,1.618-0.02c1.05-0.063,2.585-0.229,4.513-0.633
			c1.93-0.399,4.235-1.076,6.9-1.829c2.662-0.733,5.724-1.562,9.188-1.608c0.431,0.001,0.868,0.026,1.311,0.039l0.331,0.012
			l0.342,0.037l0.652,0.07c0.883,0.11,1.817,0.295,2.714,0.51c1.813,0.437,3.632,1.069,5.48,1.711
			c1.848,0.642,3.729,1.307,5.666,1.793c1.936,0.489,3.922,0.799,5.918,0.61c0.26-0.025,0.537-0.033,0.781-0.075l0.733-0.122
			c0.486-0.063,0.998-0.224,1.497-0.33c1.004-0.283,2.007-0.612,3.008-1.021c2.004-0.797,4.007-1.794,6.118-2.676
			c2.098-0.896,4.344-1.649,6.704-1.914c0.638-0.041,1.13-0.079,1.726-0.095c0.595,0.022,1.211,0,1.79,0.068
			c0.583,0.06,1.17,0.103,1.745,0.218l0.866,0.147l0.854,0.198c2.276,0.545,4.446,1.391,6.563,2.222
			c2.118,0.83,4.199,1.654,6.294,2.237c1.033,0.274,2.131,0.547,3.114,0.668c0.543,0.059,1.097,0.138,1.627,0.18
			c0.507-0.001,1.013-0.001,1.517-0.003c2.068-0.1,4.128-0.548,6.128-1.138c4.004-1.2,7.853-2.918,11.773-3.658
			c1.95-0.363,3.907-0.564,5.786-0.308l0.7,0.068c0.232,0.037,0.459,0.1,0.686,0.148c0.454,0.102,0.903,0.204,1.35,0.307
			c0.849,0.256,1.683,0.508,2.5,0.754c3.265,0.994,6.232,1.989,8.858,2.886c2.624,0.904,4.911,1.692,6.794,2.342
			c3.759,1.328,5.906,2.088,5.906,2.088s-0.547-0.15-1.571-0.433c-1.023-0.289-2.53-0.689-4.436-1.246
			c-3.813-1.105-9.27-2.661-15.823-4.419c-0.82-0.213-1.657-0.431-2.511-0.652c-0.418-0.078-0.84-0.156-1.265-0.236
			c-0.213-0.036-0.424-0.088-0.641-0.112l-0.654-0.037c-1.747-0.175-3.571,0.056-5.417,0.455c-3.711,0.803-7.461,2.61-11.59,3.911
			c-2.068,0.646-4.232,1.165-6.505,1.313c-0.581,0.009-1.163,0.017-1.747,0.024c-0.557-0.034-1.093-0.103-1.642-0.151
			c-1.197-0.144-2.261-0.412-3.383-0.7c-4.421-1.196-8.554-3.366-12.815-4.372l-0.797-0.19l-0.801-0.141
			c-0.533-0.111-1.069-0.151-1.604-0.211c-0.538-0.065-1.049-0.043-1.574-0.072c-0.526,0.007-1.153,0.053-1.634,0.076
			c-2.107,0.229-4.186,0.895-6.228,1.756c-2.043,0.85-4.075,1.825-6.181,2.616c-1.046,0.408-2.12,0.742-3.199,1.026
			c-0.554,0.11-1.075,0.266-1.648,0.333l-0.842,0.122c-0.279,0.039-0.533,0.041-0.8,0.063c-2.218,0.164-4.386-0.2-6.392-0.78
			c-2.015-0.567-3.912-1.298-5.744-1.991c-3.665-1.402-7.082-2.607-10.4-2.677c-3.302-0.068-6.343,0.564-9.023,1.148
			c-2.684,0.605-5.033,1.161-6.994,1.458c-1.96,0.316-3.52,0.337-4.576,0.332C292.258,302.063,291.695,302.029,291.695,302.029z"/>
		<path fill="#8A5F3D" d="M441.198,296.688c0,0,0.867-0.037,2.386-0.104c1.517-0.058,3.675-0.237,6.308-0.17
			c1.314,0.037,2.752,0.149,4.257,0.442c1.51,0.269,3.082,0.764,4.617,1.247c1.559,0.485,3.18,0.934,4.82,1.414
			c1.644,0.472,3.317,0.918,4.999,1.329c0.834,0.206,1.667,0.412,2.498,0.618c0.424,0.092,0.847,0.182,1.268,0.272
			c0.412,0.071,0.822,0.144,1.23,0.217c1.646,0.246,3.291,0.463,4.888,0.557c1.597,0.08,3.146,0.146,4.617,0.122
			c1.47-0.032,2.863-0.084,4.146-0.19c0.642-0.049,1.257-0.113,1.841-0.183c0.586-0.055,1.14-0.13,1.659-0.207
			c0.521-0.066,1.006-0.16,1.456-0.234c0.45-0.072,0.863-0.146,1.234-0.23c0.743-0.15,1.328-0.277,1.726-0.383
			c0.398-0.097,0.61-0.147,0.61-0.147s-0.203,0.091-0.58,0.262c-0.379,0.172-0.935,0.43-1.662,0.69
			c-0.36,0.143-0.765,0.282-1.206,0.427c-0.442,0.153-0.923,0.3-1.441,0.438c-1.032,0.296-2.21,0.585-3.508,0.814
			c-2.589,0.498-5.657,0.79-8.954,0.747c-1.65-0.043-3.353-0.133-5.087-0.394c-0.434-0.069-0.87-0.141-1.309-0.211
			c-0.422-0.084-0.846-0.167-1.271-0.253c-0.887-0.196-1.718-0.386-2.577-0.601c-1.699-0.44-3.392-0.918-5.048-1.422
			c-1.658-0.492-3.268-1.066-4.827-1.61c-1.578-0.553-3.003-1.137-4.421-1.495c-1.414-0.367-2.779-0.62-4.055-0.79
			c-2.553-0.32-4.729-0.459-6.24-0.645c-0.758-0.08-1.352-0.173-1.754-0.232C441.414,296.719,441.198,296.688,441.198,296.688z"/>
		<path fill="#8A5F3D" d="M230.749,299.618c0,0-0.168,0.032-0.483,0.088c-0.314,0.055-0.778,0.142-1.371,0.218
			c-1.181,0.172-2.883,0.313-4.87,0.593c-0.992,0.147-2.051,0.358-3.146,0.655c-1.098,0.289-2.195,0.756-3.434,1.196
			c-1.218,0.431-2.475,0.892-3.773,1.278c-1.296,0.397-2.62,0.774-3.95,1.123c-0.675,0.166-1.32,0.311-2.023,0.466
			c-0.658,0.136-1.325,0.262-2.025,0.36c-1.365,0.205-2.701,0.262-3.997,0.289c-2.587,0.019-4.993-0.238-7.019-0.657
			c-1.015-0.193-1.936-0.436-2.742-0.683c-0.808-0.235-1.501-0.491-2.064-0.721c-0.566-0.214-0.998-0.43-1.291-0.573
			c-0.294-0.141-0.45-0.216-0.45-0.216s0.167,0.035,0.481,0.104c0.311,0.073,0.771,0.157,1.355,0.264
			c0.582,0.112,1.293,0.214,2.107,0.318c0.406,0.055,0.838,0.105,1.297,0.139c0.456,0.046,0.936,0.089,1.438,0.121
			c1.001,0.068,2.088,0.094,3.233,0.106c1.147,0.007,2.353-0.059,3.595-0.128c1.242-0.078,2.521-0.262,3.797-0.452
			c0.621-0.099,1.277-0.235,1.944-0.385c0.647-0.161,1.295-0.322,1.943-0.485c1.312-0.317,2.619-0.664,3.9-1.03
			c1.283-0.368,2.545-0.73,3.768-1.082c1.194-0.37,2.44-0.746,3.629-0.947c1.186-0.223,2.317-0.295,3.349-0.308
			c2.066-0.026,3.75,0.15,4.938,0.221C230.07,299.574,230.749,299.618,230.749,299.618z"/>
	</g>
</g>
</svg>
