<?xml version="1.0" encoding="utf-8"?>
<!-- Generator: Adobe Illustrator 16.0.4, SVG Export Plug-In . SVG Version: 6.00 Build 0)  -->
<!DOCTYPE svg PUBLIC "-//W3C//DTD SVG 1.0//EN" "http://www.w3.org/TR/2001/REC-SVG-20010904/DTD/svg10.dtd">
<svg version="1.0" id="Layer_1" xmlns="http://www.w3.org/2000/svg" xmlns:xlink="http://www.w3.org/1999/xlink" x="0px" y="0px"
	 width="100px" height="200px" viewBox="0 0 100 200" enable-background="new 0 0 100 200" xml:space="preserve">
<path fill="#00A138" d="M73.231,67.65H28.902v64.699h44.329v-9.991h-32.98v-17.945h32.301v-9.991H40.251V77.641h32.98V67.65z
	 M40.833,51.548c-3.201,0-5.723,2.522-5.723,5.626c0,3.201,2.522,5.723,5.723,5.723c3.104,0,5.626-2.522,5.626-5.723
	C46.459,54.07,43.938,51.548,40.833,51.548z M61.106,51.548c-3.104,0-5.723,2.522-5.723,5.626c0,3.201,2.618,5.723,5.723,5.723
	c3.104,0,5.724-2.522,5.724-5.723C66.83,54.07,64.21,51.548,61.106,51.548z"/>
</svg>
