<?xml version="1.0" encoding="utf-8"?>
<!-- Generator: Adobe Illustrator 16.0.0, SVG Export Plug-In . SVG Version: 6.00 Build 0)  -->
<!DOCTYPE svg PUBLIC "-//W3C//DTD SVG 1.1//EN" "http://www.w3.org/Graphics/SVG/1.1/DTD/svg11.dtd">
<svg version="1.1" id="Layer_1" xmlns="http://www.w3.org/2000/svg" xmlns:xlink="http://www.w3.org/1999/xlink" x="0px" y="0px"
	 width="102px" height="106px" viewBox="0 0 102 106" enable-background="new 0 0 102 106" xml:space="preserve">
<g>
	<path fill="#F25B1C" d="M1.7,49.3c0.3,0.8,0.5,1.3,0.8,1.8c1.3,2.3,2.8,2.8,4.3,3c1,0,2.3-0.5,3.5-0.8c0.8-0.3,1.5-0.8,2.3-1
		c1.5-0.3,2.5-0.8,3.3-1c1,0,1.8,0,2.5,0.8c0.5,0.3,1,0.8,1.5,1.3c0,0.3,0.3,0.3,0.3,0.5c0.5,0.8,0.8,1.8,1,3c1,4.3,1,10.3,4,13.8
		c4,3.8,13,3,13.5,3c1-0.8,1-0.8,1-0.8c2.8-2.3,2.8-2.3,2.8-2.3s-7.8-1.8-10.5-4.3c-0.3-0.3-0.8-0.8-0.8-1.3c-0.3-0.5-0.5-1-0.8-1.8
		c-0.3-1.5-0.5-3.5-0.5-5.5c-0.3-1-0.3-2-0.3-3.3c-0.3-1.5-0.3-3-0.5-4.5c0-1-0.3-2.3-0.5-3c-0.3-1.3-0.5-2.3-0.8-3.3
		c-0.3-0.8-0.5-1.3-1-2s-1.3-1.3-2-1.8c-2.3-1.5-5-2-8-2.3c-1.8,0-3.3,0-4.8,0.3s-2.8,0.5-3.8,1C2.9,40.8,0.4,45.1,1.7,49.3z"/>
	<path fill="#B94520" d="M1.7,49.3c0.3,0.8,0.5,1.3,0.8,1.8c1.3,2.3,2.8,2.8,4.3,3c1,0,2.3-0.5,3.5-0.8c0.8-0.3,1.5-0.8,2.3-1
		c1.5-0.3,2.5-0.8,3.3-1c1,0,1.8,0,2.5,0.8c0.5,0.3,1,0.8,1.5,1.3c0,0.3,0.3,0.3,0.3,0.5c0.5,0.8,0.8,1.8,1,3c1,4.3,1,10.3,4,13.8
		c4,3.8,13,3,13.5,3c1-0.8,1-0.8,1-0.8c-4.8-1-4.8-1-4.8-1s-6.8-1.8-8-4.8s-1.5-17.3-3-19.5c-1.5-2-1.5-3.5-7.8-3.5
		C10.4,44.1,6.4,51.1,1.7,49.3z"/>
	<path fill="#361B15" d="M6.7,54.1c1,0,2.3-0.5,3.5-0.8c-0.8-0.8-1.3-1.8-1.5-3c-1-2.8,0-5.5-0.3-5.8C7.9,44.3,4.9,49.8,6.7,54.1z"
		/>
	<path fill="#361B15" d="M10.9,42.1c0.3,1.8,1.5,6.5,2,7c0.8,0.5,0.5-2.5,1.5-6.5c0.3-1.8,1.3-3.5,2.3-4.8c-1.8,0-3.3,0-4.8,0.3
		C11.2,39.6,10.9,41.3,10.9,42.1z"/>
	<path fill="#361B15" d="M15.7,51.3c1,0,1.8,0,2.5,0.8c0.3-2.8,1.5-7.5,1.3-7.8C18.9,44.1,15.9,49.8,15.7,51.3z"/>
	<path fill="#361B15" d="M21.2,46.6c0.5,0,3-3.5,5.5-4.8c-0.5-0.8-1.3-1.3-2-1.8C23.2,41.6,21.4,43.8,21.2,46.6z"/>
	<path fill="#361B15" d="M19.9,53.8c0.5,0.8,0.8,1.8,1,3c1.8-1.8,4.5-4,4-4.8C24.4,51.3,22.2,52.6,19.9,53.8z"/>
	<path fill="#361B15" d="M21.9,50.3c0.8-0.3,3.8-1.3,4.3-1.3c0.3,0.3,1.5,0.5,2.8,1c0-1-0.3-2.3-0.5-3c-0.8-0.3-1.5-0.5-2-0.5
		C24.7,46.6,20.9,50.6,21.9,50.3z"/>
	<path fill="#361B15" d="M23.2,57.6c0.3,0,1-0.3,1.8-0.5c1-0.3,2.3-0.5,3.3-0.3c1.5,0.5,1.5,0.5,1.5,0.5c-0.3-1-0.3-1.5-0.3-2.8
		c-1.3-0.3-3.3,0.3-3.5,0.5C24.7,55.8,22.9,57.6,23.2,57.6z"/>
	<path fill="#361B15" d="M22.2,63.8c0.8-0.8,2.3-2.3,2.8-2.3c0.8-0.3,2,0,3,0c0.3,0,0.3,0,0.3-0.3c0,0,0,0,0-0.3
		c-1.3-0.5-2.8-1.5-4.3-1.3c-0.3,0-0.5,0.3-0.8,0.3c0,0.3-0.8,0.8-1.5,1.3C22.2,63.8,22.2,63.8,22.2,63.8z"/>
	<path fill="#361B15" d="M26.7,68.3c0.5,0.3,1.5-2.8,2-2.8c0.3,0,1.3-0.3,2.3-0.5c-0.3-0.5-0.5-1-0.8-1.8c-1,0.3-2.5,0.5-2.8,1.3
		C26.9,65.3,25.9,68.1,26.7,68.3z"/>
	<path fill="#FFFFFF" d="M42.2,99.3c3,3.8,18.8,2,26,1.8s10.8-2,12-4.5c0.5-0.8,0.5-7.3,0.3-14.8c-0.3-11.5-1.5-25.5-3.5-27.3
		c-3.3-2.8-28.5-6.5-32-3.3c-2,1.8-3.5,15.3-4.3,27.5C40.4,88.6,40.7,97.6,42.2,99.3z"/>
	<path fill="#F25B1C" d="M40.7,88.6c0,5.5,0.5,9.5,1.5,10.8c3,3.8,18.8,2,26,1.8s10.8-2,12-4.5c0.3-0.5,0.5-3.3,0.5-7.3
		c0-2.3,0-4.8-0.3-7.5c-3,3.5-11.8,12.5-21,10.8c-7-1.3-14-8.3-18.8-13.8C40.7,82.3,40.7,85.6,40.7,88.6z"/>
	<path fill="#B94520" d="M40.7,88.6c0,5.5,0.5,9.5,1.5,10.8c3,3.8,18.8,2,26,1.8s10.8-2,12-4.5c0.3-0.5,0.5-3.3,0.5-7.3
		c-4.3,4-10.8,8-19,8C54.2,97.3,46.4,93.1,40.7,88.6z"/>
	<path fill="#B94520" d="M22.7,80.6c0,0.3,0,0.5,0,1c0.3,1,0.8,2.5,1.5,4.5c0.3,0.8,0.5,1.8,0.8,2.5c1.8,5,4,10.5,4,10.5
		c17,0.5,17,0.5,17,0.5c-4.3-25.8-4.3-25.8-4.3-25.8c-0.5-0.3-6-4.8-12-3c-4.5,1.3-6.3,5-6.8,7.8C22.7,79.3,22.7,80.1,22.7,80.6z"/>
	<path fill="#361B15" d="M38.7,82.6c0,0-4.8-1.3-6-1.3c-1.3-0.3-5.3,1.3-5.3,1.5c0,0.5,3.8,0.8,4.5,0.8c1,0.3,7.3,2.8,7.3,2.8
		C38.7,82.6,38.7,82.6,38.7,82.6z"/>
	<path fill="#B94520" d="M71.7,72.6c-0.8,29-0.8,29-0.8,29c20,0.5,20,0.5,20,0.5s4.3-10.8,6.5-17.8c0.8-1.5,1-3,1.3-4
		c0-0.5,0.3-0.8,0.3-1c0.5-4.3,1-11.5-6.5-13.3s-12.3,5.8-12.5,6.3C71.7,72.6,71.7,72.6,71.7,72.6z"/>
	<path fill="#361B15" d="M80.7,73.1c0,0,4.5-2.5,6.3-2.5c3.8,0.5,6.5,2.5,6.5,2.8c-0.3,0.5-5.3-0.5-6.8-0.3c-1.3,0-6.8,4.3-6.8,3.8
		C79.9,76.6,80.7,73.1,80.7,73.1z"/>
	<path fill="#361B15" d="M85.2,82.1c-2.8,0.5-9.5,6.8-9.5,6.8c3.8,2.5,3.8,2.5,3.8,2.5s5.5-6,6.8-6.3c1.5-0.5,7.3,0.5,7.3,0
		C93.7,84.6,87.4,81.8,85.2,82.1z"/>
	<path fill="#FFFFFF" d="M76.7,102.1c0,0,5.3,0.3,10.8,0.3c14.3,0.5,14.3,0.5,14.3,0.5c1.3,0,0.5-6.5-2.5-9.3
		c-3.3-2.5-28.8,3.8-28.5,4.8C70.7,99.6,68.9,100.8,76.7,102.1z"/>
	<path fill="#FFFFFF" d="M40.4,101.1c0,0-23.3-0.5-24.8-0.5s-0.3-6.5,3-9s28.3,5.3,28,6.3C46.7,98.8,48.4,100.3,40.4,101.1z"/>
	<path fill="#361B15" d="M85.2,78.8c0.3,0.3,6,0,8.3,1.5c0.8,0.8,2.5,2.5,4,4c0.8-1.5,1-3,1.3-4c-1-1-3.3-2.8-4.8-3.3
		C89.9,76.1,84.7,78.6,85.2,78.8z"/>
	<path fill="#361B15" d="M38.7,75.1c-0.3-0.3-2.3-1.3-3.3-1.5s-6,0.5-6,0.8c0,0.5,4.5,0.5,5.3,0.8c0.8,0.5,3.8,2.5,3.8,2.5
		C38.7,75.1,38.7,75.1,38.7,75.1z"/>
	<path fill="#361B15" d="M22.7,80.6c0,0.3,0,0.5,0,1c1.3-0.8,4-2.5,4.5-2.8c0.8-0.3,7,0.3,7,0c0.3-0.3-5.8-2.5-7.3-2.3
		c-0.8,0-2.8,1.3-4,2C22.7,79.3,22.7,80.1,22.7,80.6z"/>
	<path fill="#361B15" d="M24.2,86.1c0.3,0.8,0.5,1.8,0.8,2.5c4.3-1.5,4.3-1.5,4.3-1.5s5.3,0.5,5.3,0.3s-4.3-2.5-5.8-2.5
		C27.7,84.8,25.4,85.6,24.2,86.1z"/>
	<path fill="#CDDDF3" d="M93.9,102.6c2.5,0,2.5,0,2.5,0c0.5-0.5,1-1.5,1-2.5c0-1.8-2-4.5-2.3-4s0.5,3.5,0.3,4.3
		C95.4,100.6,94.7,101.6,93.9,102.6z"/>
	<path fill="#CDDDF3" d="M87.4,102.3c2.3,0,2.3,0,2.3,0c0.5-0.5,1.3-1.5,1.3-2.3c0-1-1.5-3.5-1.8-3.5s0.5,3,0.3,3.3
		S88.2,101.3,87.4,102.3z"/>
	<path fill="#CDDDF3" d="M25.7,100.8c-2.8,0-2.8,0-2.8,0c-0.5-0.8-0.8-1.8-0.8-2.8c0-1.8,2.3-4.3,2.5-3.8s-0.8,3.5-0.8,4
		C24.2,98.8,24.9,99.8,25.7,100.8z"/>
	<path fill="#CDDDF3" d="M31.9,101.1c-2.3-0.3-2.3-0.3-2.3-0.3c-0.5-0.5-1-1.5-1-2.3c0-1,1.5-3.5,2-3.5c0.3,0-1,3-0.5,3.3
		C30.4,98.6,31.2,99.8,31.9,101.1z"/>
	<path fill="#F25B1C" d="M64.4,72.1c0,0.8,0,1.5,0,2.3c0,1.3,0,2.8,0,4.3c0,2.3,0,4.5,0,7c0,1.5,0,3,0,4.5c0,0.3,0,0.3,0,0.3
		c0.3,6,0.8,11.5,1.8,12.3c2,1.8,4.3-0.3,4.3-0.3s1,1,3.5,1.8s3.3-1.3,3.3-1.3l0,0l0,0c0,0,1,0.5,2,0.8c0.3,0,0.5,0,0.8,0
		s0.3,0,0.3,0l0,0c0,0,0,0,0.3,0s0.3,0,0.3,0s0,0,0.3,0s0.3,0,0.5,0s0.3,0,0.3,0c0.5-0.3,0.8-0.5,1.3-0.8c0.3-0.3,0.3-0.5,0.5-0.5
		c1.3-2-0.8-4-2.3-5.5c0-0.5-0.3-1-0.3-1.8c0-1.3,0-3.3,0-5.5s0-4.8,0-7.5c0-1,0.3-2.3,0.3-3.5c0-1.8,0-3.5,0-5.3c0.3-1,0.3-2,0.3-3
		c0.3-7.8,0.5-14,0.5-14c-17,1.8-17,1.8-17,1.8s0,2.8-0.3,6c0,1.5,0,3.3,0,5C64.7,70.1,64.4,71.1,64.4,72.1z"/>
	<path fill="#361B15" d="M72.4,69.8c1.8,0.8,6.3,1.8,8.8,3.5c0.3-1,0.3-2,0.3-3C79.2,69.6,75.4,69.1,72.4,69.8z"/>
	<path fill="#361B15" d="M64.4,74.3c0,1.3,0,2.8,0,4.3c1.3-1,3.3-2.5,4.8-3.3c2.8-1,9-1,8.8-1.3s-3.3-1.8-7.5-1.8
		C67.9,72.6,65.9,73.6,64.4,74.3z"/>
	<path fill="#361B15" d="M64.7,69.1c1.3-1,3.3-2.3,4.8-2.8c3-0.8,9.3,0.8,9.3,0.3c0.3-0.5-7.5-3.3-9.3-3.3c-1.3,0-3.3,0.5-4.8,0.8
		C64.7,65.6,64.7,67.3,64.7,69.1z"/>
	<path fill="#361B15" d="M68.2,80.8c0.5,0.5,5.3-0.8,7.5-0.8c1.3,0,3.8,1.3,5.3,2c0-1,0.3-2.3,0.3-3.5c-1.3-0.5-3-1-4.3-1
		C74.4,77.3,67.9,80.3,68.2,80.8z"/>
	<path fill="#361B15" d="M64.4,85.6c0,1.5,0,3.3,0,4.8c1.8-1.5,4.5-3.8,6.3-4c2.8-0.5,6.5,1.8,7.3,1c0.5-0.5-5-4-7.8-4
		C68.4,83.3,65.9,84.6,64.4,85.6z"/>
	<path fill="#F25B1C" d="M37.4,79.1c0,2.5,0,4.8,0.3,6.8c0,1.8,0,3.5,0.3,5c0,0.5,0,1.3,0,1.8c0.5,5,1.3,8.3,2.3,9
		c2,1.8,4.5-0.3,4.5-0.3s0.8,1,3.5,1.8c2.5,0.8,3-1.3,3-1.3s3.8,2,6,0c2-2,0-4.3-2-6c0-1,0.3-2.8,0.3-5.3c0-2,0-4.5,0.3-7.3
		c0-1.5,0-3,0-4.5c0-1.8,0.3-3.8,0.3-5.5l0,0c0-1.8,0-3.3,0-4.8c0.3-7.3,0.5-13.3,0.3-13.3c-15.3-3.3-15.3-3.3-15.3-3.3
		s-1.5,5-2.5,11.8c0,1.3-0.3,2.8-0.5,4.5c0,1.3-0.3,2.5-0.3,3.8c0,0.5,0,1,0,1.8C37.7,75.6,37.4,77.3,37.4,79.1z"/>
	<path fill="#361B15" d="M50.7,69.8c0.8,0.3,3.3,2.3,5.3,3.5c0-1.8,0-3.3,0-4.8c-1.5-0.5-3.5-1.5-5.3-1.3c-2.8,0.5-4.8,1-5.5,1.8
		C44.4,70.1,49.4,69.3,50.7,69.8z"/>
	<path fill="#361B15" d="M37.9,68.3c1.8-1.3,4-2.8,5.5-2.8c2.3-0.3,8,1.3,7.8,0.3c0-0.8-6-4-8.5-3.8c-1,0-2.8,0.8-4.3,1.8
		C38.4,65.1,38.2,66.6,37.9,68.3z"/>
	<path fill="#361B15" d="M37.4,79.1c1.8-1.5,4.8-4,7-4c3.3-0.3,6.8,1.5,7,0.5s-5.8-4-7.8-3.8c-1.5,0.3-4.3,1-6,2
		C37.7,75.6,37.4,77.3,37.4,79.1z"/>
	<path fill="#361B15" d="M44.7,80.1c0,0.8,1.5-0.3,4.3,0.3c2,0.3,5.5,2.3,6.8,3c0-1.5,0-3,0-4.5c-1.8-0.5-4-1-5.3-1
		C48.4,77.8,44.4,79.3,44.7,80.1z"/>
	<path fill="#361B15" d="M37.7,85.8c0,1.8,0,3.5,0.3,5c1.3-1.5,3.5-3.5,6.5-4s6.8,0,6.5-0.8c0-0.8-4.3-2.5-7.5-2.3
		C41.7,84.1,39.2,84.8,37.7,85.8z"/>
	<path fill="#FFFFFF" d="M64.4,90.1c0,0.3,0,0.3,0,0.3c0.3,6,0.8,11.5,1.8,12.3c2,1.8,4.3-0.3,4.3-0.3l0,0c0.3,0,0.5,0.5,1.8,1
		c0.5,0.3,1,0.5,1.8,0.8c2.5,0.8,3.3-1.3,3.3-1.3l0,0l0,0c2,0.8,2,0.8,2,0.8c0.3,0,0.5,0,0.8,0s0.3,0,0.3,0l0,0c0,0,0,0,0.3,0
		s0.3,0,0.3,0s0,0,0.3,0s0.3,0,0.5,0s0.3,0,0.3,0c0.5-0.3,0.8-0.5,1.3-0.8c0.3-0.3,0.3-0.5,0.5-0.5c1.3-2-0.8-4-2.3-5.5
		c0-0.5-0.3-1-0.3-1.8c0-1.3,0-3.3,0-5.5c-1,1.3-2.3,2.8-2.8,2.5c-1-0.3-1.8-4-2.5-3.3c-0.8,0.5-1.5,4-2,3.5c-0.8-0.8-2-5.3-2.5-3.8
		s-0.5,4.3-1.5,3.8c-1-0.8-1.8-3.8-2-2c-0.5,1.5-1,3.3-1.5,2.5C65.9,92.6,65.2,91.1,64.4,90.1z"/>
	<path fill="#FFFFFF" d="M37.9,92.6c0.5,5,1.3,8.3,2.3,9c2,1.8,4.5-0.3,4.5-0.3s0.8,1,3.5,1.8c2.5,0.8,3-1.3,3-1.3s3.8,2,6,0
		c2-2,0-4.3-2-6c0-1,0.3-2.8,0.3-5.3c-0.5-1.3-1.3-2.3-2-1.5c-1,1-0.8,4-1.5,4s-1.5-4.8-2.5-4c-1.3,1-0.8,5.3-2.3,4.5
		c-1.3-0.8-1.8-5.3-2.8-4c-0.8,1.5,0,4.8-1,4.3c-1-0.8-1.8-4.3-2.5-3c-0.8,1.5-0.3,3.8-1,3.5C39.7,94.1,38.7,93.3,37.9,92.6z"/>
	<path fill="#CDDDF3" d="M77.2,102.8L77.2,102.8L77.2,102.8c0,0,1,0.5,2,0.8c0.3-0.5,0.3-1,0.3-1.5c0.3-0.5,0.3-1.3,0.3-1.8
		c-0.3-1.5-3.3-3.3-3.5-3s1.3,1.3,1.8,3.3c0,0.8,0,1.3-0.3,1.5C77.4,102.6,77.2,102.8,77.2,102.8z"/>
	<path fill="#CDDDF3" d="M70.4,102.3L70.4,102.3c0.3,0,0.5,0.5,1.8,1c0.3-0.5,0.8-1.3,1-2c0.5-1.8-2-3.8-2.3-3.8c0,0,0.8,2,0.5,3
		C71.4,101.3,70.4,102.3,70.4,102.3z"/>
	<path fill="#CDDDF3" d="M51.4,101.8L51.4,101.8L51.4,101.8c0,0,1,0.5,2,0.8c0-0.5,0.3-0.8,0.3-1.3c0-0.8,0-1.3,0-2
		c0-1.5-3-3.3-3.3-3c-0.5,0.3,1.3,1.3,1.8,3.3c0,0.8,0,1.3-0.3,1.5C51.7,101.6,51.4,101.8,51.4,101.8z"/>
	<path fill="#CDDDF3" d="M44.7,101.3L44.7,101.3c0,0,0.5,0.5,1.5,1c0.5-0.5,1-1.3,1.3-2c0.3-1.8-2-3.8-2.3-3.8s0.5,2.3,0.5,3
		C45.4,100.6,44.7,101.3,44.7,101.3z"/>
	<path fill="#F2576E" d="M41.7,7.6c0.5-1.5,6.5-4.5,8.5-2.5c1.8,2,0.5,7.5,0.5,8c-5.5,2-5.5,2-5.5,2S41.4,9.1,41.7,7.6z"/>
	<path fill="#D63E57" d="M49.2,12.6c-0.3-0.3,0.3-4-1-4.3s-3.8,0.8-3.3,2c0.5,1,2.3,3,2.3,3C49.2,12.6,49.2,12.6,49.2,12.6z"/>
	<path fill="#F2576E" d="M79.7,8.1c1.8-1,7.5,1.3,8.3,3.8c1,2.3,0.3,3-1.3,4.3c-1.5,1-6.8,2.5-6.8,2.5c-2-3-2-3-2-3
		S77.7,9.1,79.7,8.1z"/>
	<path fill="#D63E57" d="M79.7,15.8c0,0,0.5-4.5,1.8-5c1.3-0.3,3.5,1.8,3.3,2.5c0,0.8-3.8,3.5-3.8,3.5
		C79.7,15.8,79.7,15.8,79.7,15.8z"/>
	<path fill="#361B15" d="M77.4,15.6c0,0,0.3,0,0.5,0c1,0.5,1,0.5,1,0.5s0.3-5.8,2.3-6.3c1.8-0.8,5.8,2.3,4.8,4s-4.8,3.8-4.8,3.8
		c1.3,0.8,1.3,0.8,1.3,0.8c0.5,0.3,0.5,0.3,0.5,0.3c0.3,0,6.8-1,8.3-5c1-2.8-2.8-5.8-4.8-7.3c-1.8-1.3-5.8-3.5-7.5-1
		C76.9,8.1,77.2,12.1,77.4,15.6z"/>
	<path fill="#271714" d="M77.9,15.6c1,0.5,1,0.5,1,0.5s0.3-5.8,2.3-6.3c1.8-0.8,5.8,2.3,4.8,4s-4.8,3.8-4.8,3.8
		c1.3,0.8,1.3,0.8,1.3,0.8c1.3-0.3,7-2.8,6.5-5.3c-0.5-2.8-7-6.8-9-5.5C78.4,8.6,77.9,13.8,77.9,15.6z"/>
	<path fill="#361B15" d="M38.4,8.1c0.3,4.3,6.5,7,6.8,7c2-0.5,2-0.5,2-0.5l-0.3-0.3c-0.8-0.8-3-3-3.5-4.8c-0.5-2,4-3.8,5.8-2.8
		c1.3,1,0.8,5,0.5,6.3c0,0.3-0.3,0.5-0.3,0.5s0,0,2-0.3c0.8-3,2.3-7,1-10.3c-1.3-2.8-5.5-1.5-7.5-1C42.4,3.1,38.2,5.1,38.4,8.1z"/>
	<path fill="#271714" d="M40.4,8.3c0.8,1.8,4.8,6.8,4.8,6.8c1.8-0.8,1.8-0.8,1.8-0.8c-0.8-0.8-3-3-3.5-4.8c-0.5-2,4-3.8,5.8-2.8
		c1.3,1,0.8,5,0.5,6.3c1.5-0.5,1.5-0.5,1.5-0.5s1.3-6.8-1-8.3C47.7,2.6,39.9,6.8,40.4,8.3z"/>
	<path fill="#F25B1C" d="M32.4,46.1c2,4.3,10.8,8.3,24.3,10.8c13.8,2.5,26.8,0.5,29.3-4.3c1-1.8,1.3-6,1.3-10.8c0-1.8,0-3.3-0.3-5
		c0-0.5,0-1.3,0-2c-0.3-1.3-0.3-2.8-0.5-4c0-1.3-0.3-2.3-0.3-3.3c-0.3-2-0.8-3.5-1-4.8c-0.3-0.8-0.5-1.5-0.5-2.3
		c-2.3-5-7.5-6.5-11.3-7.3c-2.5-0.5-5-1-7.8-1.3c-1.8-0.3-3.5-0.3-5.3-0.3c-9-0.5-17.8,0.8-19.8,4.8c-0.5,1.3-1.3,3-2,5
		c-0.3,0.8-0.8,2-1.3,3c0,0.5-0.3,1-0.5,1.8c-0.5,1.3-1,2.5-1.3,3.8c-0.3,0.5-0.5,1.3-0.8,1.8c-0.5,1.5-0.8,3-1.3,4.5
		C32.4,40.8,31.9,44.6,32.4,46.1z"/>
	<path fill="#B94520" d="M79.9,56.3c-0.3,0-3.3,6-8.8,8.5c-5.5,2.3-14.5,5-15.3,3.8c0-1.3,2.8-3.3,2.8-3.3s-3.5,1.3-6,0.8
		c-2.5-0.8-11.3-10-11.5-13.3C40.9,49.8,79.9,56.3,79.9,56.3z"/>
	<path fill="#FFFFFF" d="M31.7,44.3c0,0-0.5,1.3-1,2.5c-0.5,1-0.8,2.3-0.8,3.3c0.3,1.8,3.3-1.8,3.3-1.8s-0.3,3.8,0.5,5.3
		c0.8,1.8,2.5-3,2.5-3s15.3,12.5,32.5,10c16.3-2.3,17.3-7.3,17.5-7.8c0,0.5-0.8,6.3,1.5,2.8c2-3.5-0.8-8.8-0.8-9
		c0,0,0.3,0.3,0.8,0.8c0.8,0.5,1.8,1,2.8,0.8c-0.5-4-6.3-7.5-11.8-8.3c-5.5-1-20,1.3-20,1.3s-9.3-4.8-16.5-5.8
		c-7-0.8-13,5.5-13.5,7.5C27.9,45.1,31.7,44.3,31.7,44.3z"/>
	<path fill="#CDDDF3" d="M29.9,50.1c0.3,1.8,3.3-1.8,3.3-1.8s-0.3,3.8,0.5,5.3c0.8,1.8,2.5-3,2.5-3s15.3,12.5,32.5,10
		c16.3-2.3,17.3-7.3,17.5-7.8c0,0.5-0.8,6.3,1.5,2.8c2-3.5-0.8-8.8-0.8-9c0,0,0.3,0.3,0.8,0.8c-0.8-0.8-0.8-0.8-0.8-0.8l0,0
		c0,0.3,0.8,4.8,0.3,6c-1-3.8-2.3-4.3-2.3-4.3s0.8,4.8-3.3,7c-4,2-18.3,3.8-23.5,2.8c-5.5-1-20-7.8-21.8-11.3
		c-0.8-1.8-0.8-1.8-0.8-1.8c-1,5.8-1,5.8-1,5.8c-1-5.8-1-5.8-1-5.8s-2,4.3-2.3,3.8s-0.5-1.3-0.8-2C30.2,47.8,29.9,49.1,29.9,50.1z"
		/>
	<path fill="#341F17" d="M64.4,47.1c0,0-2.3,9.3-6.3,9.3c-4,0.3-4.8-11-4.8-11.5s5-2.8,5-2.8C64.4,47.1,64.4,47.1,64.4,47.1z"/>
	<path fill="#FFFFFF" d="M65.4,39.6c0,0,6,3.8,5.8,6.8s-0.8,4.3-4,4.3s-9.3-4.3-9.3-4.3s-8.5,3.5-10.5,0.3c-1.8-3-2.3-3.8-0.3-6
		c2.3-2.5,12.5-3,12.5-3C65.4,39.6,65.4,39.6,65.4,39.6z"/>
	<path fill="#B94520" d="M51.7,39.3c0.3,1.5,8.3,3.3,14.3,2c1.5-2.3,0-24.8-0.3-29.3c-1.8-0.3-3.5-0.3-5.3-0.3
		C58.2,18.6,51.9,37.6,51.7,39.3z"/>
	<path fill="#FFFFFF" d="M50.4,22.3c1.8,0.3,4.8,2.5,4.5,6s-3.8,5.8-7.5,4.5c-3.8-1.5-4-5.5-3-8C45.4,22.6,48.2,22.1,50.4,22.3z"/>
	<path fill="#361B15" d="M45.7,26.6c0.3,0,0.3,0.3,0.5,0.3l0,0c0.3,0.3,0.5,0.3,0.5,0.3c0.3,0.3,0.5,0.3,0.8,0.3
		c0.5,0,1-0.3,1.5-0.5c0.3-0.5,0.5-1,0.5-1.5c0-0.3,0-0.5-0.3-0.8c0-0.3,0-0.5-0.3-0.8c-0.3,0-0.3-0.3-0.5-0.3c0.5,0,0.8,0,1,0
		c2.3,0,4.3,2,4.3,4.3c-0.3,2.3-2,4.3-4.5,4c-2.3,0-4.3-2-4-4.3c0-0.5,0-1,0.3-1.5C45.4,26.3,45.7,26.3,45.7,26.6z"/>
	<path fill="#FFFFFF" d="M73.4,24.6c1.5,0.5,4.5,2.5,4.3,6s-3.5,6-7.3,4.5s-4.3-5.5-3-7.8C68.4,25.1,71.2,24.3,73.4,24.6z"/>
	<path fill="#361B15" d="M68.4,28.8c0.3,0.3,0.5,0.3,0.5,0.5c0.3,0,0.3,0,0.3,0s0.3,0.3,0.5,0.3s0.3,0,0.5,0c0.5,0,1-0.3,1.5-0.5
		s0.5-1,0.5-1.5c0.3-0.3,0-0.5,0-0.8s-0.3-0.5-0.5-0.5c0-0.3-0.3-0.3-0.3-0.5c0.3,0,0.5,0,0.8,0c2.5,0,4.3,2,4.3,4.3
		c0,2.5-2,4.3-4.3,4.3c-2.5,0-4.3-2-4.3-4.3c0-0.8,0.3-1.3,0.3-1.5C68.4,28.6,68.4,28.8,68.4,28.8z"/>
	<path fill="#361B15" d="M66.4,40.6c0.3,1-5,3.5-8,3c-3.3-0.5-7.8-3.5-7-4.8C51.9,38.1,66.2,38.8,66.4,40.6z"/>
	<path fill="#CDDDF3" d="M70.7,44.8c0,0,1.3,3.8-2.3,4.8c-3.5,1.3-10.3-4.3-10.3-4.3s-8,3-10,1c-2.3-2-1-5.8-1-5.8s-2.8,3.8-0.5,6.5
		s11.3-0.5,11.3-0.5s7,5.3,10.8,4.8S71.9,46.8,70.7,44.8z"/>
	<path fill="#F2576E" d="M58.9,51.3c-0.3,0.3,2-1.8,2.5-0.5c0.3,1.3-1.3,3.5-3,4s-4.3-4.3-3-5S58.9,50.3,58.9,51.3z"/>
	<path fill="#361B15" d="M68.7,20.8c0-0.3,0-0.3,0.3-0.5c1-2.3,4.5-5.8,7-3.3c0.3,0.3,0.5,0.8,0.5,1.3l0,0c0.3,1-0.3,2-1.3,2.8
		c-1.3,0.8-3,1-4.5,1.3C69.4,22.8,68.7,21.8,68.7,20.8z"/>
	<path fill="#361B15" d="M49.4,15.6c0.3-0.3,0.5-0.3,0.8-0.3s0.5,0,1,0c1.8,0.8,3.3,2,4,3.5c0.3,0.5,0.5,0.8,0.8,1.3
		c0.3,0.8-0.5,1.5-1.3,1.5c-0.3,0-0.5,0.3-0.8,0c-1.5-0.5-3-1.8-4.3-2.8C48.7,18.1,47.9,16.3,49.4,15.6z"/>
	<path fill="#361B15" d="M77.4,22.8c1-1.3,2.5-1.8,4-1.8c0.3,0,0.3,0,0.3,0s0.3,0,0.5,0.3c0.5,0.8,0,1.8-0.8,2.3
		c-1,0.5-2.5,0.8-3.5,0.5C77.2,24.1,76.9,23.1,77.4,22.8z"/>
	<path fill="#361B15" d="M78.2,23.6c0.3-0.3,0.3-0.3,0.5-0.3c0.3-0.3,0.5-0.5,0.8-0.5c0.3-0.3,1.5-0.8,1.5-0.8c0,0.3,0,0.3,0,0.3
		c-0.3,0-1,0.8-1.3,0.8S78.7,23.6,78.2,23.6C77.9,23.6,77.9,23.6,78.2,23.6L78.2,23.6z M76.7,24.3c0.8,1.8,3,0.5,4,0
		c1.3-0.8,2.5-1.8,1.8-3.3c-0.3-0.5-0.5-0.5-0.8-0.5c-1,0-2.3,0.5-2.8,0.8C77.7,21.8,75.7,22.8,76.7,24.3z"/>
	<path fill="#361B15" d="M42.2,18.3c0.8-0.8,1.5-0.5,2.3,0c0.3,0,0.5,0.3,0.8,0.3c0.8,0.3,1.8,0.8,2,1.8c0,1-1,1.5-2,1.5
		c-0.5-0.3-1-0.5-1.3-0.8c-0.5-0.3-1-0.5-1.5-0.8C41.9,19.8,41.4,18.8,42.2,18.3z"/>
	<path fill="#361B15" d="M56.4,12.8c1,0.5,1.8,1.3,2.3,2c0.5,0.5,1,1,1.3,1.5c0.5,0.3,1,1.3,1.5,1.5c0.8,0.5,2-0.8,2.8-1.3
		c1-0.8,2-1.5,3-2c0.8-0.5,1.5,0.8,0.8,1.3c-1.3,1.3-2.5,2.5-4,3.8c-1,0.8-2,1.5-3.3,1s-2-2-2.8-2.8c-1-1.3-2-2.5-2.5-4
		C55.4,13.1,55.9,12.6,56.4,12.8z"/>
	<path fill="#361B15" d="M81.4,39.3c2,1,4.3,2,5.8,2.5c0-1.8,0-3.3-0.3-5c-1,0.3-2,0.5-3.3,0.3c-2.3,0-7.3-1-7.5-0.8
		S78.2,37.8,81.4,39.3z"/>
	<path fill="#361B15" d="M78.4,33.1c0,0.8,3.3,2,5.8,2c0.8,0,1.8,0,2.8-0.3c-0.3-1.3-0.3-2.8-0.5-4c-1,0.3-2.3,0.8-3.3,1
		C80.4,32.3,78.4,32.3,78.4,33.1z"/>
	<path fill="#361B15" d="M81.7,29.1c1.3,0,3-0.8,4.5-1.5c-0.3-2-0.8-3.5-1-4.8c-1,1.3-2,2.8-2.5,3c-2.3,1.8-4,2-4.8,2.3
		C77.4,28.6,79.2,29.1,81.7,29.1z"/>
	<path fill="#361B15" d="M37.4,24.6c0.3,0,0.5,0.3,0.8,0.3c2.5,1.5,5.8,1.3,5,0.8c-1.8-1.3-3.3-2.8-4.5-4
		C38.4,22.3,37.9,23.6,37.4,24.6z"/>
	<path fill="#361B15" d="M35.7,30.1c2.5,0.8,6.5,0.5,7.3,0c1-1-1-1-3.5-2.3c-1-0.5-1.8-1-2.5-1.5C36.4,27.6,35.9,28.8,35.7,30.1z"/>
	<path fill="#361B15" d="M33.7,36.3c1-0.5,2-1.3,3.5-1.8c3.8-1.3,5.8-0.5,6.5-0.8c1-0.3-1.3-2-4.8-2c-1.5,0-2.8,0-4,0
		C34.4,33.3,34.2,34.8,33.7,36.3z"/>
	<path fill="#361B15" d="M77.4,44.3c2.5-0.8,5.3-0.3,7.3,1.3c1.3,1-0.3,3-1.8,2c-1.5-1.3-3.3-2.3-5.3-2.5
		C77.2,45.1,76.9,44.3,77.4,44.3z"/>
	<path fill="#361B15" d="M77.7,47.3c2,0.8,4.3,1.5,5.5,3.3c0.8,1.5-1,2.8-2,1.5c-1.3-1.3-2.3-2.8-3.8-3.8
		C76.9,48.1,77.2,47.3,77.7,47.3z"/>
	<path fill="#361B15" d="M77.4,51.3c0.8,1.3,1.5,2.5,1.8,4c0.3,1.3-2,1.3-2,0c0.3-1.3,0-2.5-0.3-3.5C76.7,51.3,77.2,51.1,77.4,51.3z
		"/>
	<path fill="#361B15" d="M42.7,40.3c-1.5-1.5-3.8-2.8-6.3-2.5c-1.5,0.3-1.3,2.5,0.3,2.5c2-0.3,3.8-0.3,5.5,0.8
		C42.7,41.3,42.9,40.8,42.7,40.3z"/>
	<path fill="#361B15" d="M40.9,42.8c-1.8-0.8-4-1-5.8-0.3c-1.5,0.8-0.8,2.8,0.8,2.3c1.8-0.5,3.3-1.3,5-1.3
		C41.4,43.6,41.4,42.8,40.9,42.8z"/>
	<path fill="#361B15" d="M39.2,46.1c-1.3,0.5-2.3,1-3.3,2.3c-0.8,0.8,0.8,2,1.5,0.8c0.5-0.8,1.3-1.8,2-2.5
		C39.9,46.3,39.7,45.8,39.2,46.1z"/>
	<path fill="#CDDDF3" d="M60.4,52.3c0,1-1.5,2-2.3,1.8c-0.5,0-2.8-2.3-2.3-2.8c0.8-0.8,2.8,1,2.8,1S60.7,51.1,60.4,52.3z"/>
</g>
</svg>
