<?xml version="1.0" encoding="utf-8"?>
<!-- Generator: Adobe Illustrator 16.0.2, SVG Export Plug-In . SVG Version: 6.00 Build 0)  -->
<!DOCTYPE svg PUBLIC "-//W3C//DTD SVG 1.1//EN" "http://www.w3.org/Graphics/SVG/1.1/DTD/svg11.dtd">
<svg version="1.1" id="Layer_1" xmlns="http://www.w3.org/2000/svg" xmlns:xlink="http://www.w3.org/1999/xlink" x="0px" y="0px"
	 width="100px" height="200px" viewBox="0 0 100 200" enable-background="new 0 0 100 200" xml:space="preserve">
<g>
	<path fill-rule="evenodd" clip-rule="evenodd" fill="#A03A87" d="M75.547,107.161c-0.846-4.746-2.827-8.915-6.295-12.311
		c-0.65-0.637-0.902-1.328-0.889-2.223c0.034-2.639,0.021-5.278,0.005-7.918c-0.004-0.467,0.121-0.988-0.338-1.351
		c-0.224,0.314-0.113,0.671-0.115,1.006c-0.01,2.875-0.002,5.75-0.011,8.624c0,0.285,0.098,0.602-0.145,0.905
		c-1.883-1.405-3.863-2.578-5.927-3.612c-0.182,0.007-0.336-0.074-0.495-0.143c-4.688-1.992-9.633-2.287-14.617-2.05
		c-4.625,0.221-9.151,1.178-13.652,2.228c-1.055,0.246-1.145,0.191-1.149-0.893c-0.012-3.056,0-6.111-0.008-9.167
		c-0.001-0.515,0.076-1.051-0.278-1.503c0.001-7.391,0.005-14.782-0.003-22.172c-0.001-0.325,0.153-0.697-0.168-0.976
		c-0.497-0.266-1.02-0.161-1.532-0.088c-2.785,0.397-5.572,0.778-8.354,1.199c-1.329,0.2-1.507,0.41-1.513,1.756
		c-0.013,2.952-0.006,5.905-0.002,8.856c0.001,0.524-0.021,1.041-0.177,1.543c-0.12,0.688-0.082,1.385-0.082,2.078
		c-0.002,19.995-0.001,39.991-0.001,59.986c0,6.317-0.004,12.637,0.005,18.954c0.001,0.614-0.117,1.262,0.33,1.801
		c2.461,0.113,4.917,0.01,7.372-0.18c5.943-0.454,11.867-1.054,17.661-2.532c7.196-1.836,13.886-4.72,19.61-9.585
		c1.83-1.556,3.347-3.4,4.931-5.185c0.352-0.13,0.525-0.44,0.723-0.724c1.863-2.675,3.23-5.598,4.149-8.711
		C76.289,118.99,76.606,113.11,75.547,107.161z M46.723,106.071c-0.147,2.872-0.408,5.438-1.25,8.124
		c-1.098,3.5-2.528,6.072-5.208,8.631c-1.282,1.225-2.753,2.211-4.3,3.125c-1.401,0.827-3.107,1.556-4.258,2.703
		c0.168-6.902-0.321-13.755,0.013-20.604c0.084-1.732,0.01-3.461,0.099-5.211c0.025-0.504-0.044-2.072,0.282-2.428
		c0.35-0.381,1.798-0.383,2.324-0.487c1.744-0.349,3.422-0.554,5.211-0.733c1.79-0.18,3.652-0.679,5.419-0.729l0.417,0.104
		c0.833,0.785,0.561,2.481,0.811,3.544C46.587,103.397,46.795,104.65,46.723,106.071z"/>
	<path fill-rule="evenodd" clip-rule="evenodd" fill="#998F92" d="M2.425,117.735l0.074-0.065l0.091,0.035
		c0.434,0.363,0.377,0.875,0.377,1.351c0.012,7.251,0.013,14.502,0,21.753c-0.001,0.475,0.057,0.988-0.385,1.346l-0.091,0.044
		l-0.066-0.077C2.425,133.992,2.425,125.863,2.425,117.735z"/>
	<path fill-rule="evenodd" clip-rule="evenodd" fill="#361F26" d="M20.177,68.785c-0.012,9.894-0.031,19.789-0.035,29.683
		c-0.007,17.741-0.005,35.482-0.007,53.226c-2.665-1.232-5.181-2.744-7.76-4.138c-3.278-1.774-6.53-3.599-9.793-5.401
		c0.017-2.322,0.05-4.646,0.048-6.969c-0.004-5.828-0.026-11.654-0.04-17.48c0.003-0.417,0.008-0.834,0.009-1.251
		C2.61,98.433,2.622,80.41,2.635,62.388c0-0.312,0.021-0.624,0.033-0.935c0.165-2.181,0.045-4.365,0.068-6.548
		c0.022-2.012,0.003-4.025,0.005-6.038c0.001-1.19,0.251-1.339,1.329-0.75c1.399,0.768,2.808,1.52,4.203,2.292
		c3.672,2.034,7.395,3.975,11.06,6.023c0.647,0.362,0.949,0.744,0.93,1.534C20.176,61.572,20.328,65.18,20.177,68.785z"/>
	<path fill-rule="evenodd" clip-rule="evenodd" fill="#361F26" d="M69.709,134.212c1.28-2.214,2.694-4.352,3.617-6.762
		c2.941-7.687,3.399-15.511,1.152-23.427c-1.009-3.557-2.922-6.652-5.666-9.177c-0.529-0.486-0.744-0.985-0.74-1.709
		c0.02-3.26-0.022-6.52-0.042-9.779c0.006-3.5,0.013-7.001,0.017-10.502c0.012-11.127,0.023-22.254,0.037-33.38
		c0-0.309,0.039-0.618,0.058-0.928c0.483-0.09,0.882,0.146,1.271,0.364c5.135,2.877,10.339,5.626,15.497,8.463
		c0.467,0.257,0.904,0.527,0.966,1.131c0.07,0.521,0.054,1.042,0.054,1.563c0.002,30.211,0.002,60.422,0.002,90.633
		c0,0.416,0.025,0.836-0.035,1.248c-0.047,0.331-0.033,0.722-0.489,0.816C80.174,139.916,74.941,137.063,69.709,134.212z"/>
	<path fill-rule="evenodd" clip-rule="evenodd" fill="#A03A87" d="M85.407,142.768c0.29-0.371,0.155-0.805,0.156-1.208
		c0.014-24.718,0.018-49.438,0.025-74.156c0.004-6.423,0.016-12.845,0.024-19.268c0.114-0.354,0.411-0.451,0.729-0.497
		c3.265-0.476,6.527-0.963,9.799-1.391c0.24-0.032,0.48,0.085,0.724,0.019c0.484,0.13,0.364,0.53,0.363,0.855
		c-0.014,13.894-0.029,27.787-0.054,41.68c-0.004,1.944-0.082,3.888-0.085,5.832c-0.017,15.179-0.031,30.358-0.017,45.536
		c0.001,0.789-0.135,1.146-0.994,1.254c-3.509,0.44-7.007,0.957-10.51,1.441C85.52,142.872,85.461,142.801,85.407,142.768z"/>
	<path fill-rule="evenodd" clip-rule="evenodd" fill="#361F26" d="M61.833,90.282c-1.384-0.055-2.608-0.733-3.942-1.007
		c-3.955-0.813-7.919-1.1-11.959-0.784c-4.775,0.372-9.434,1.3-14.059,2.474c-0.057,0.015-0.128-0.024-0.24-0.05
		c0-4.048,0-8.104,0-12.16c6.347-0.013,12.264,1.464,17.77,4.734C53.46,85.898,57.684,88.028,61.833,90.282z"/>
	<path fill-rule="evenodd" clip-rule="evenodd" fill="#5E3045" d="M20.177,68.785c-0.01-3.543-0.044-7.086-0.011-10.627
		c0.007-0.74-0.258-1.087-0.886-1.427c-5.119-2.765-10.215-5.574-15.324-8.359c-0.292-0.158-0.613-0.497-0.935-0.329
		c-0.352,0.184-0.161,0.63-0.162,0.957c-0.012,3.786-0.004,7.572-0.014,11.358c-0.001,0.369,0.125,0.771-0.177,1.096
		c-0.006-4.334,0.002-8.667-0.034-13c-0.005-0.615,0.169-0.851,0.772-0.932c3.396-0.453,6.789-0.931,10.18-1.422
		c0.339-0.049,0.615,0.022,0.89,0.171c5.619,3.06,11.236,6.122,16.853,9.187c0.056,0.03,0.09,0.099,0.134,0.15
		c-3.475,0.492-6.947,1.001-10.426,1.463c-0.728,0.096-0.68,0.547-0.68,1.04c0,3.193,0.004,6.386-0.005,9.578
		C20.35,68.057,20.474,68.458,20.177,68.785z"/>
	<path fill-rule="evenodd" clip-rule="evenodd" fill="#5E3045" d="M96.864,46.267c-1.457,0.596-3.031,0.526-4.544,0.806
		c-2.226,0.411-4.504,0.509-6.707,1.063c-1.531-1.077-3.241-1.838-4.872-2.737c-4.187-2.309-8.398-4.57-12.6-6.849
		c2.218-0.544,4.5-0.667,6.742-1.051c1.161-0.198,2.35-0.25,3.5-0.494c0.843-0.178,1.521-0.012,2.255,0.392
		C86.037,40.372,91.453,43.314,96.864,46.267z"/>
	<path fill-rule="evenodd" clip-rule="evenodd" fill="#361F26" d="M44.953,98.562c4.418-0.096,8.635,0.646,12.388,3.136
		c3.385,2.248,5.377,5.491,6.106,9.415c1.307,7.031,0.087,13.569-4.329,19.34c-3.32,4.337-7.8,7.032-12.913,8.672
		c-4.406,1.414-8.987,1.855-13.603,1.964c-0.807,0.019-1.073-0.228-1.06-1.062c0.059-3.887,0.054-7.774,0.071-11.661
		c0.196-0.424,0.623-0.523,0.99-0.711c4.396-2.243,8.047-5.314,10.497-9.655c1.713-3.035,2.604-6.316,2.848-9.811
		c0.212-3.053-0.08-6.014-1.005-8.921C44.869,99.037,44.816,98.795,44.953,98.562z"/>
</g>
</svg>
