<?xml version="1.0" encoding="utf-8"?>
<!-- Generator: Adobe Illustrator 16.0.0, SVG Export Plug-In . SVG Version: 6.00 Build 0)  -->
<!DOCTYPE svg PUBLIC "-//W3C//DTD SVG 1.1//EN" "http://www.w3.org/Graphics/SVG/1.1/DTD/svg11.dtd">
<svg version="1.1" id="Layer_1" xmlns="http://www.w3.org/2000/svg" xmlns:xlink="http://www.w3.org/1999/xlink" x="0px" y="0px"
	 width="296px" height="286px" viewBox="0 0 296 286" enable-background="new 0 0 296 286" xml:space="preserve">
<g>
	<path fill="#F68914" d="M291.4,146.6c-7.3,16-13.5,33.3-22,49c-7.8,14.3-17.5,27.3-32,37c-1.8,1-3.8,2.3-5.5,3.3
		c-10,5-22,7.3-33.8,6.8l0,0c-9.5-0.3-19-2.3-27.8-5.8c-9.5-3.8-18-9.3-24.5-16.5c-5.5-6-14-24.8-15-33.3c-1-9.5,4.3-20.5,11-27.3
		c3.3-3.5,6.8-6.5,10.5-9.5c7-5.3,14.5-10,22.5-13.7c4.8-2.5,9.5-4.5,14.5-6.5c6.5-2.8,13.3-4.3,20-5c15.5-1.5,31,1.8,46,7
		C267.9,136.3,279.9,141.8,291.4,146.6z"/>
	<path fill="#ED4228" d="M204.1,235.6c-1.3,2.5-3.3,4.8-6,7l0,0c-9.5-0.3-19-2.3-27.8-5.8c1-6.3,5.3-13.8,6.3-20
		c1.3-9.3,0.8-18.3-1-27.5c-2.5-12-10.8-30.5-23.3-39c7-5.3,14.5-10,22.5-13.7c1,0.5,2,1.3,2.8,2c11.8,10.2,19.3,27,25,41
		C208.9,194.8,211.6,220.1,204.1,235.6z"/>
	<path fill="#ED4228" d="M268.9,190.3c0,1.8,0.3,3.5,0.5,5.3c-7.8,14.3-17.5,27.3-32,37c-1.8,1-3.8,2.3-5.5,3.3c0-0.3,0-0.5,0-0.8
		c4.5-21.8,5.8-44.5-2.3-65.5c-5-13-7.8-28-15.8-39.5c-1-1.5-2.8-3.3-4.5-5c15.5-1.5,31,1.8,46,7
		C265.6,148.6,267.1,171.8,268.9,190.3z"/>
	<path fill="#ED4228" d="M109.6,223.3c14.5,8.3,36.8,6,49-8.3c16-18.5,13.3-43.8-4.8-57.3c-12.5-9.3-35-10.8-46.5,2
		C92.9,176.6,89.9,212.3,109.6,223.3z"/>
	<path fill="#D22D23" d="M151.9,142.8c-10.3-18.5-39-15.3-56-10.8c-17.3,4.5-24.5,24-7.5,36c12.5,9,34.5,14.5,49.3,7.8
		C149.9,170.1,159.9,156.6,151.9,142.8z"/>
	<path fill="#ED4228" d="M170.4,110.6c7.8-33.3-6.3-57.8-37.3-70.5c-21.8-9-51.3-2.3-68.8,13c-17.3,15-21.3,34.5-12.3,55.3
		c11,25.3,39.8,44,67.3,43c15.5-0.8,35.8-4.5,43.3-19.5C165.6,125.6,168.4,118.3,170.4,110.6z"/>
	<path fill="#FFFFFF" d="M118.4,86.6c2.5,16.5,23,22.5,36.5,15.3c15.5-8.5,11.5-34-3.5-40.8c-11.3-5-24-1-29.8,10
		C118.6,76.8,117.6,82.1,118.4,86.6z"/>
	<path fill="#100F0D" d="M154.1,85.6c9.5-8,3.5-23-9-22c-11,0.8-16,15.5-6.3,22C143.6,88.8,149.4,89.6,154.1,85.6z"/>
	<path fill="#FFFFFF" d="M151.6,75.1c4.3-0.5,5.5-6.3,1.8-8.3c-3-1.8-7-0.5-6.8,3C146.6,72.8,148.4,75.3,151.6,75.1z"/>
	<path fill="#FFFFFF" d="M52.6,88.6c2.5,16.5,23,22.5,36.5,15.3c15.5-8.5,11.5-34-3.5-40.8c-11.3-5-24-1-29.8,10
		C52.9,78.8,52.1,84.1,52.6,88.6z"/>
	<path fill="#100F0D" d="M88.4,87.6c2.3-1.8,3.5-4,4.3-6.3c2.3-7.8-3.5-16.5-13.3-16c-11,1-16,15.8-6.3,22.3
		C77.9,90.6,83.6,91.6,88.4,87.6z"/>
	<path fill="#FFFFFF" d="M85.9,77.1c4.3-0.5,5.5-6.3,1.8-8.5c-2.8-1.5-6.8-0.3-6.8,3.3C81.1,74.8,82.9,77.3,85.9,77.1z"/>
	<path fill="#F68914" d="M63.4,21.3c2,4,6,30.8,10.5,30.3c4.3-0.3,2.8-5.5,3-8.8c0.5-9.5-3.3-22.5-6.8-31.3c-7-17.8-18.8,0-26,9.8
		c-4,5.3-19.8,35.8-1,26.3C52.4,42.8,51.4,18.1,63.4,21.3z"/>
	<path fill="#F68914" d="M144.6,10.8c13.5-10.3,20.3,2.8,29,13c3.8,4.5,9.8,8.3,13,13c4,6,3.5,13.5-6.5,13.3
		c-5.8,0-14-7.3-17.5-11.5c-3-3.5-5.3-15.3-8.8-17.3c-7.5-4-14.3,9.5-17.3,15.3c-2.8,5-13.8,22-16.8,8.5
		C117.4,34.8,137.6,16.3,144.6,10.8z"/>
	<path fill="#D22D23" d="M34.6,135.8c10.3-3.3,23,1,32.8-2.8c14-5.5-3.3-21.8-11.8-21.8c-5.8-0.3-11.5,5-15,9
		C39.6,121.6,33.4,136.3,34.6,135.8z"/>
	<path fill="#D22D23" d="M183.6,135.8c-10.3-3.3-23,1-32.8-2.8c-14-5.5,3.3-21.8,11.8-21.8c5.8-0.3,11.5,5,15,9
		C178.6,121.6,184.9,136.3,183.6,135.8z"/>
	<path fill="#F68914" d="M97.6,123.6c9.3,0.8,17-0.3,24.5-6.8c1.3,14.5-14.8,17.5-23.3,8.8L97.6,123.6z"/>
	<path fill="#D22D23" d="M103.1,183.8c-7.5-0.8-13.3,4.3-16.3,10.8c-3.8,8.3-4.8,17.8-5,26.5c-0.5,10,0.3,19.8,1.8,29.5
		c0.5,3.8,1.3,7.5,2.5,11.3c0.8,2.8,1.5,5.5,3,7.8c1,1.5,2.3,2.8,4.3,2.8c3,0.3,3-4.8,0-4.8c-0.5,0,0.8,0.3,0.3,0c0,0,0.5,0.5,0,0
		c-0.3-0.3,0.8,0.5,0.3,0.3c-0.3-0.3-0.5-0.5-0.5-0.5c-0.3-0.5,0.3,0.5,0,0c0-0.3,0-0.3,0-0.3c-0.3,0-0.3-0.3-0.5-0.5
		c-0.3-0.5-0.5-1-0.8-1.5s0.3,0.3-0.3-0.5c0-0.3-0.3-0.5-0.3-1c-0.3-0.8-0.5-1.5-0.8-2.3c-0.5-1.5-1-3.3-1.3-5c-2-9-3-17.8-3-27
		c-0.3-9.5,0.3-18.8,2.8-27.8c0.3-0.8,0.5-1.8,1-2.8c0.3-1,0.5-1.3,1-2.3c0.3-0.8,0.8-1.5,1.3-2.3c0-0.3,0.3-0.8,0.5-1
		s0.3-0.3,0.5-0.5c0-0.3-0.3,0.3,0-0.3c0.5-0.5,1-1.3,1.8-1.8c0,0,1-0.8,0.5-0.3c0.3-0.3,0.5-0.5,1-0.8c0.3-0.3,0.5-0.5,0.8-0.5
		s0.8-0.3,0.3,0c0-0.3,0.3-0.3,0.5-0.3c0.3-0.3,0.5-0.3,1-0.3c0.3-0.3,1.5-0.3,0.8-0.3c1-0.3,2,0,3,0
		C106.1,188.8,106.1,184.1,103.1,183.8z"/>
	<path fill="#D22D23" d="M151.4,184.1c24.3,21.5,21.3,57.3,14.8,86c-0.3,1-0.5,1.8-0.8,2.8c0,0.5-0.5,1-0.5,1.8c0.3,1.8,2,3,3.8,2
		c1.3-1,2.3-3,2.3-4.5c0.3-1.5-1-2.5-2.3-2.5c-1.5,0-2.3,1-2.5,2.5c0-0.8,0,0-0.3,0c-0.3,0.8-1,1.3,0.3,0.5c1.3,0.5,2.5,1.3,3.8,2
		c-0.3,0.3-0.3,0.5-0.3,0.8c0-0.3,0.3-0.5,0.3-0.8c0.3-0.5,0.3-1,0.5-1.5c0-0.8,0.3-1.8,0.5-2.8c0.5-2,1-4,1.3-6
		c0.8-4,1.5-7.8,2-11.8c1-8,1.5-15.8,1.3-23.8c-0.8-15.3-4.8-30.3-14.8-42.3c-1.8-2.3-3.8-4.3-5.8-6
		C152.6,178.6,149.1,181.8,151.4,184.1z"/>
	<path fill="#D22D23" d="M87.9,159.8c-10.8,3.3-17.3,15-21.3,24.8c-2.3,5.5-4,11.5-5,17.3c-1,5.3-1.5,10.5-0.5,15.8
		c0.5,3,5.3,1.8,4.8-1.3c-0.8-4-0.5-8.8,0.3-13c1-5.8,2.8-11.5,4.8-16.8c2-5,4.5-10,8-14c2.8-3.5,6.3-7,10.3-8.3
		C92.1,163.3,90.9,158.8,87.9,159.8z"/>
	<path fill="#D22D23" d="M147.6,158.8c6.3,7.3,13.8,13.5,21,19.8c4.8,3.8,9.5,7.5,14.5,11c4,2.8,8.3,5.3,12.8,6.8
		c2.8,1,6.3,1.5,8.8-0.5c1-0.8,1.5-2,0.8-3.3c-0.5-1-2.3-1.5-3.3-0.8c-0.3,0-0.5,0.3-0.8,0.3c0.8-0.3-0.3,0.3-0.5,0.3
		c-0.5,0,0.5,0-0.3,0c-0.5,0-1,0-1.3,0c0.5,0-0.5-0.3-0.8-0.3c-0.5,0-0.8-0.3-1.3-0.3c-1-0.5-1.8-0.8-2.5-1c-4.8-2.3-9-5.3-13.3-8.3
		c-9.3-6.5-17.8-14-25.8-22c-1.5-1.8-3.3-3.3-4.8-5C148.9,153.1,145.6,156.6,147.6,158.8z"/>
	<path fill="#D22D23" d="M147.6,152.8c10.8,2,22.3,0.8,32.5-1.8c9.5-2.3,22-6.8,25-17c0.5-1.5,0.8-3.3,0.5-4.8c0-3.3-4.8-3.3-4.8,0
		c0.3,4.3-2,7.3-5.5,10.3c-3.8,3-9.3,5-14,6.2c-5.8,1.5-11.5,2.5-17.3,2.8c-4.8,0.3-10.3,0.3-14.5-0.3c-0.3,0-0.5-0.3-0.8-0.3
		C145.9,147.6,144.6,152.3,147.6,152.8z"/>
	<path fill="#D22D23" d="M82.9,149.1c-5.5,0.8-11,1.8-16.5,2.5c-5.5,0.5-10.8,0.3-16-0.8c-10.5-2.3-20.5-6.5-31.3-6.8c-3,0-3,5,0,5
		c10.5,0,20.3,4.5,30.5,6.5c5.3,1,10.8,1.3,16,0.8c5.8-0.5,11.5-1.8,17.3-2.5c1.3-0.3,2.3-1,2.3-2.5
		C85.1,150.3,84.1,148.8,82.9,149.1z"/>
	<path fill="#D22D23" d="M213.6,178.1c9.5-2.3,7.3,9.8,4.5,15c-3,5.8-12,9-15.8,1.3C199.4,188.1,207.9,179.3,213.6,178.1z"/>
	<path fill="#D22D23" d="M209.6,113.3c9.8-2.3,7.3,9.8,4.8,15c-3.3,5.8-12.3,9-16,1.3C195.6,123.3,203.9,114.6,209.6,113.3z"/>
	<path fill="#D22D23" d="M185.9,271.6c6.8,7.3-4.8,11.3-10.5,11.5c-6.8,0.3-14-6-9.3-13.3C170.1,264.3,181.9,267.1,185.9,271.6z"/>
	<path fill="#D22D23" d="M94.9,266.6c6.8,7.3-5,11.3-10.8,11.5c-6.5,0.3-14-5.8-9-13C78.9,259.6,90.9,262.3,94.9,266.6z"/>
	<path fill="#D22D23" d="M15.9,143.8c9.8-2,7.3,10,4.8,15.2c-3.3,5.8-12.3,9-16,1.3C1.6,154.1,10.1,145.3,15.9,143.8z"/>
	<path fill="#D22D23" d="M59.4,212.8c9.8-2,7.3,10,4.5,15c-3,6-12,9.3-15.8,1.5C45.1,223.1,53.6,214.1,59.4,212.8z"/>
</g>
</svg>
