<?xml version="1.0" encoding="utf-8"?>
<!-- Generator: Adobe Illustrator 16.0.0, SVG Export Plug-In . SVG Version: 6.00 Build 0)  -->
<!DOCTYPE svg PUBLIC "-//W3C//DTD SVG 1.1//EN" "http://www.w3.org/Graphics/SVG/1.1/DTD/svg11.dtd">
<svg version="1.1" id="Layer_1" xmlns="http://www.w3.org/2000/svg" xmlns:xlink="http://www.w3.org/1999/xlink" x="0px" y="0px"
	 width="70px" height="72px" viewBox="0 0 70 72" enable-background="new 0 0 70 72" xml:space="preserve">
<g>
	<path fill="#515254" d="M54.2,61.8c-13.8,10-33,7-43.3-6.5C0.8,41.5,3.9,22,17.7,11.9s33.1-7,43.1,6.8C71,32.5,67.9,51.7,54.2,61.8
		"/>
	<path fill="#FFFFFF" d="M11.9,56.3c-0.3-2.5-0.3-5.8,1-9.3c1.3-4.5,3.5-6.8,4.8-7.5c-0.3-0.5-0.8-1.3-1-1.5s-0.5-0.5-0.5-0.8
		c-1.5-2-2.8-4-4-6c-1.8,1.8-5.8,6-6.5,12.5c1,4,2.8,7.8,5.3,11.5C11.2,55.6,11.7,56.1,11.9,56.3"/>
	<path fill="#FFFFFF" d="M55.7,56.3c5.3-4.5,8.8-9.3,10.5-14.3c0.3-0.3,0.3-0.5,0.3-0.8c0.3-2,0.5-4,0.3-6c-0.8-2-2-3-2.8-3.5
		c-0.5,2.5-1.8,8.5-7,13.2l0,0c-2.5,2.8-6.5,5-8.5,6c-1.5,1-1.5,1-1.5,1c-6.8,2.8-14.2,2.8-16,2.8c-3.5,3-4.5,5.8-4.8,8
		C29.7,63.3,44.9,65.6,55.7,56.3"/>
	<path fill="#FFFFFF" d="M32.9,30.5c5.7,7.7,12.7,16.8,14.5,19.1c1.5-0.8,5.3-3,7.8-5.3c-0.8-2.5-5-12.2-12.5-22.8
		c-0.8-1-1.8-2-2.5-3c-5.8-7.5-9-10.5-10.5-11.8c-3.5,0.5-6.8,2-9.8,3.8c1.8,3,4.5,8,9,14.5C30.2,26.5,31.4,28.5,32.9,30.5"/>
	<path fill="#FFFFFF" d="M24.2,63.3c0-2.5,1-6,5-9.5c-1.5-2-6.3-7.8-10.3-12.8c-1,0.8-3,2.5-4.3,6.5c-1.5,4.5-1,8.5-0.5,11.5
		c3,3,6.8,5.3,10.5,6.8C24.4,65.1,24.2,64.3,24.2,63.3"/>
	<path fill="#FFFFFF" d="M66.2,31.2c-0.8-4.3-2.3-8.3-5-12c-1.5-1.5-3.3-2-4.5-2.5c4.3,6.3,6.5,11.3,7,13
		C64.4,29.7,65.2,30.2,66.2,31.2"/>
	<path fill="#FFFFFF" d="M63.7,50.7c-1.8,2.3-4,4.5-6.8,7c-6.8,5.8-15,7.3-20.8,7.5c-4.5,0.3-8-0.3-9.7-0.8c0,1,0.3,1.5,0.5,2
		c9,2.8,19,1.3,27.2-4.8C58.2,58.8,61.4,55.1,63.7,50.7"/>
	<path fill="#FFFFFF" d="M57.9,15.1c-2-2.3-4.5-4-7-5.3c1.5,1.3,2.8,2.8,4.3,4.5C55.7,14.6,56.7,14.6,57.9,15.1"/>
	<path fill="#FFFFFF" d="M11.2,29.7c-1.3-2.3-2.5-4.5-3.3-6c-2.3,4.8-3.3,9.8-2.8,15C6.9,34,9.9,31,11.2,29.7"/>
	<path fill="#FFFFFF" d="M17.7,36C22.2,42.2,29.5,51,31,53c1.8,0,8.7-0.3,14.7-2.8c-2.3-2.8-8.8-11-14.2-18.8l0,0
		c-1.5-2-2.8-3.8-4-5.5c-4.5-6.5-7.5-11.3-9-14.5c-0.3,0.3-0.5,0.3-0.8,0.5c-3.8,2.8-6.5,6-8.8,9.8C10.2,24.2,13.7,30.5,17.7,36"/>
	<path fill="#FFFFFF" d="M41.7,17.1c0.8,1,1.8,2.3,2.5,3.3c7,9.8,11.3,18.8,12.5,22.3c4.8-5,5.3-11,5.5-12.2c-0.5-1-3-7.3-8-14.3
		c-4-5.5-8-8-10-9c-4-1.3-8-1.5-12.2-1C33.9,8.1,36.9,11.4,41.7,17.1"/>
	<path fill="#C4C2C1" d="M26.9,66.6c-0.8-0.3-1.5-0.5-2.3-0.8v-0.3C25.4,66.1,26.2,66.3,26.9,66.6L26.9,66.6 M63.4,51
		c1.5-3,2.5-6.3,3-9.5c0,0,0,0,0-0.3c-0.5,3.5-1.5,6.5-3,9.5V51 M66.7,35L66.7,35c0-1.3-0.3-2.5-0.5-3.8l0,0
		C66.4,32.5,66.7,33.7,66.7,35 M61.2,18.9h-0.3c0,0,0-0.3-0.3-0.3v-0.3l0,0C60.9,18.6,60.9,18.6,61.2,18.9"/>
	<path fill="#3E3D3F" d="M26.9,66.6c-0.8-0.3-1.5-0.5-2.3-1c-0.3-0.5-0.5-1.5-0.5-2.3c0-1,0.3-2,0.5-3.3c0.8,0,1.5,0,2.3-0.3
		c-0.5,1-0.8,2-0.8,3c1.3,0.3,4.3,0.5,7.8,0.5c6.5,0,15-1.3,21.7-7c5.3-4.5,8.8-9.3,10.5-14.3c0-0.3,0.3-0.3,0.3-0.5
		c-0.5,3.3-1.5,6.5-3,9.5c-1.8,2-3.8,4.5-6.5,6.8c-6.8,5.8-15,7.3-20.8,7.5c-0.7,0-1.5,0-2.2,0c-3.3,0-6-0.5-7.5-0.8
		C26.4,65.6,26.7,66.1,26.9,66.6 M44.2,53c2-1.5,3.8-3,5.3-4.5c1.8-1.3,4-2.8,5.8-4.3c0-0.5-0.3-1.3-0.8-2c0.5-0.8,0.8-1.5,1.3-2
		c0.5,1,0.8,1.8,1,2.5c4.8-5,5.3-11,5.5-12.2c-0.3-0.5-0.8-1.8-2-4c0.3-1,0.5-2.3,0.5-3.3c1.8,3,2.8,5.5,3,6.5
		c0.5,0,1.5,0.5,2.5,1.5c0.3,1.3,0.5,2.5,0.5,3.8c-1-2-2-2.8-2.8-3.3c-0.5,2.5-1.8,8.5-7,13.2l0,0c-2.5,2.8-6.5,5-8.5,6
		c-1.5,1-1.5,1-1.5,1C45.9,52.2,45.2,52.5,44.2,53 M60.9,18.9l-0.3-0.3v-0.3v0.3C60.9,18.6,60.9,18.9,60.9,18.9"/>
	<path fill="#C2C0BE" d="M33.9,63.3c-3.5,0-6.5-0.3-7.8-0.5c0-1,0.3-2,0.8-3c6.3-0.8,12.2-3.3,17.2-6.8c1-0.5,1.8-0.8,2.8-1
		c1.5-1,1.5-1,1.5-1c2-1,6-3.3,8.5-6l0,0c5.3-4.8,6.5-10.7,7-13.2c0.8,0.5,1.8,1.3,2.8,3.3l0,0c0,0.8,0,1.3,0,2c0,1.5,0,2.7-0.3,4.2
		c0,0.3,0,0.3,0,0.3c0,0.3-0.3,0.3-0.3,0.5c-1.8,5-5.3,9.8-10.5,14.3C48.9,62.1,40.4,63.3,33.9,63.3"/>
	<path fill="#C2C0BE" d="M49.4,48.5c1.8-2,3.5-4,5-6.3c0.5,0.8,0.8,1.5,0.8,2C53.4,45.7,51.2,47.2,49.4,48.5"/>
	<path fill="#C2C0BE" d="M24.7,65.8c-3.5-1.5-6.8-3.5-9.5-6c2,0.3,4,0.5,6,0.5c1.3,0,2.5,0,3.5-0.3c-0.3,1.3-0.5,2.3-0.5,3.3
		c0,0.8,0.3,1.8,0.5,2.3V65.8"/>
	<path fill="#C2C0BE" d="M66.2,31.2L66.2,31.2c-1-1-2-1.5-2.5-1.5c-0.3-1-1.3-3.5-3-6.5c0-0.8,0-1.8,0-2.5c0-0.7,0-1.3,0-2l0.3,0.3
		h0.3C63.7,22.7,65.4,26.7,66.2,31.2"/>
	<path fill="#C2C0BE" d="M35.9,67.8c-3.3,0-6.3-0.5-9-1.3l0,0c-0.3-0.5-0.5-1-0.5-2c1.5,0.3,4.3,0.8,7.5,0.8c0.8,0,1.5,0,2.2,0
		c5.8-0.3,14-1.8,20.8-7.5c2.8-2.3,4.8-4.8,6.5-6.8v-0.3C58.4,60.8,47.9,67.8,35.9,67.8"/>
	<path fill="#C2C0BE" d="M56.7,42.7c-0.3-0.8-0.5-1.5-1-2.5c2.3-4.2,4-8.7,4.5-13.7c1.3,2.3,1.8,3.5,2,4
		C61.9,31.7,61.4,37.7,56.7,42.7"/>
</g>
</svg>
