<?xml version="1.0" encoding="utf-8"?>
<!-- Generator: Adobe Illustrator 16.0.0, SVG Export Plug-In . SVG Version: 6.00 Build 0)  -->
<!DOCTYPE svg PUBLIC "-//W3C//DTD SVG 1.1//EN" "http://www.w3.org/Graphics/SVG/1.1/DTD/svg11.dtd">
<svg version="1.1" id="Layer_1" xmlns="http://www.w3.org/2000/svg" xmlns:xlink="http://www.w3.org/1999/xlink" x="0px" y="0px"
	 width="320px" height="200px" viewBox="0 0 320 199" enable-background="new 0 0 320 200" xml:space="preserve">
<g>
	<line fill="none" stroke="#E5E5E4" stroke-miterlimit="10" x1="67" y1="74.9" x2="67" y2="189.9"/>
	<line fill="none" stroke="#E5E5E4" stroke-miterlimit="10" x1="75.8" y1="75.4" x2="59.5" y2="189.2"/>
	<line fill="none" stroke="#E5E5E4" stroke-miterlimit="10" x1="83.5" y1="77.4" x2="51.5" y2="187.4"/>
	<line fill="none" stroke="#E5E5E4" stroke-miterlimit="10" x1="91" y1="80.4" x2="44" y2="184.4"/>
	<line fill="none" stroke="#E5E5E4" stroke-miterlimit="10" x1="98" y1="84.7" x2="37" y2="180.2"/>
	<line fill="none" stroke="#E5E5E4" stroke-miterlimit="10" x1="104.5" y1="89.7" x2="30.5" y2="174.9"/>
	<line fill="none" stroke="#E5E5E4" stroke-miterlimit="10" x1="110" y1="95.9" x2="25" y2="168.9"/>
	<line fill="none" stroke="#E5E5E4" stroke-miterlimit="10" x1="114.8" y1="102.7" x2="20.3" y2="162.2"/>
	<line fill="none" stroke="#E5E5E4" stroke-miterlimit="10" x1="118.5" y1="110.2" x2="16.5" y2="154.4"/>
	<line fill="none" stroke="#E5E5E4" stroke-miterlimit="10" x1="121" y1="118.2" x2="14" y2="146.4"/>
	<line fill="none" stroke="#E5E5E4" stroke-miterlimit="10" x1="122.5" y1="126.4" x2="12.5" y2="138.2"/>
	<line fill="none" stroke="#E5E5E4" stroke-miterlimit="10" x1="122.5" y1="134.9" x2="12.5" y2="129.7"/>
	<line fill="none" stroke="#E5E5E4" stroke-miterlimit="10" x1="121.5" y1="143.2" x2="13.5" y2="121.4"/>
	<line fill="none" stroke="#E5E5E4" stroke-miterlimit="10" x1="119.5" y1="151.4" x2="15.5" y2="113.4"/>
	<line fill="none" stroke="#E5E5E4" stroke-miterlimit="10" x1="116.3" y1="159.2" x2="18.8" y2="105.4"/>
	<line fill="none" stroke="#E5E5E4" stroke-miterlimit="10" x1="112" y1="166.2" x2="23" y2="98.4"/>
	<line fill="none" stroke="#E5E5E4" stroke-miterlimit="10" x1="106.8" y1="172.7" x2="28.3" y2="91.9"/>
	<line fill="none" stroke="#E5E5E4" stroke-miterlimit="10" x1="100.8" y1="178.2" x2="34.3" y2="86.4"/>
	<line fill="none" stroke="#E5E5E4" stroke-miterlimit="10" x1="94" y1="182.7" x2="41.3" y2="81.9"/>
	<line fill="none" stroke="#E5E5E4" stroke-miterlimit="10" x1="86.5" y1="186.2" x2="48.5" y2="78.4"/>
	<line fill="none" stroke="#E5E5E4" stroke-miterlimit="10" x1="77.8" y1="188.7" x2="57.3" y2="75.9"/>
	<line fill="none" stroke="#E5E5E4" stroke-miterlimit="10" x1="252.8" y1="74.9" x2="252.8" y2="189.9"/>
	<line fill="none" stroke="#E5E5E4" stroke-miterlimit="10" x1="261.5" y1="75.4" x2="245.3" y2="189.2"/>
	<line fill="none" stroke="#E5E5E4" stroke-miterlimit="10" x1="269.3" y1="77.4" x2="237.5" y2="187.4"/>
	<line fill="none" stroke="#E5E5E4" stroke-miterlimit="10" x1="277" y1="80.4" x2="230" y2="184.4"/>
	<line fill="none" stroke="#E5E5E4" stroke-miterlimit="10" x1="284" y1="84.7" x2="222.8" y2="180.2"/>
	<line fill="none" stroke="#E5E5E4" stroke-miterlimit="10" x1="290.3" y1="89.7" x2="216.5" y2="174.9"/>
	<line fill="none" stroke="#E5E5E4" stroke-miterlimit="10" x1="296" y1="95.9" x2="210.8" y2="168.9"/>
	<line fill="none" stroke="#E5E5E4" stroke-miterlimit="10" x1="300.5" y1="102.7" x2="206" y2="162.2"/>
	<line fill="none" stroke="#E5E5E4" stroke-miterlimit="10" x1="304.3" y1="110.2" x2="202.5" y2="154.4"/>
	<line fill="none" stroke="#E5E5E4" stroke-miterlimit="10" x1="306.8" y1="118.2" x2="200" y2="146.4"/>
	<line fill="none" stroke="#E5E5E4" stroke-miterlimit="10" x1="308.3" y1="126.4" x2="198.5" y2="138.2"/>
	<line fill="none" stroke="#E5E5E4" stroke-miterlimit="10" x1="308.5" y1="134.9" x2="198.3" y2="129.7"/>
	<line fill="none" stroke="#E5E5E4" stroke-miterlimit="10" x1="307.5" y1="143.2" x2="199.3" y2="121.4"/>
	<line fill="none" stroke="#E5E5E4" stroke-miterlimit="10" x1="305.5" y1="151.4" x2="201.3" y2="113.4"/>
	<line fill="none" stroke="#E5E5E4" stroke-miterlimit="10" x1="302" y1="159.2" x2="204.5" y2="105.4"/>
	<line fill="none" stroke="#E5E5E4" stroke-miterlimit="10" x1="297.8" y1="166.2" x2="209" y2="98.4"/>
	<line fill="none" stroke="#E5E5E4" stroke-miterlimit="10" x1="292.8" y1="172.7" x2="214" y2="91.9"/>
	<line fill="none" stroke="#E5E5E4" stroke-miterlimit="10" x1="286.5" y1="178.2" x2="220.3" y2="86.4"/>
	<line fill="none" stroke="#E5E5E4" stroke-miterlimit="10" x1="279.8" y1="182.7" x2="227" y2="81.9"/>
	<line fill="none" stroke="#E5E5E4" stroke-miterlimit="10" x1="272.3" y1="186.2" x2="234.5" y2="78.4"/>
	<line fill="none" stroke="#E5E5E4" stroke-miterlimit="10" x1="263.8" y1="188.7" x2="243" y2="75.9"/>
	<path fill="#676767" d="M146,112.9c0,0,2.3,27.3-0.3,27.5c-2.3,0.3-2.5-0.8-2.3-4.8s0.5-22.8,0.5-22.8H146z"/>
	<path fill="#60C0C3" d="M153.3,111.4c0,2-1.5,3.5-3.5,3.5c-9,0-9,0-9,0c-2,0-3.5-1.5-3.5-3.5l0,0c0-2,1.5-3.5,3.5-3.5c9,0,9,0,9,0
		C151.8,107.9,153.3,109.4,153.3,111.4L153.3,111.4z"/>
	<path fill="#00A99C" d="M147.3,111.4c0,0.8,0.3,1.5-0.5,1.5c-3.5,0-3.5,0-3.5,0c-0.8,0-2-0.8-2-1.5c0-0.5,0-0.5,0-0.5
		c0-0.8,1.3-1,2-1c3.5,0,3.5,0,3.5,0c0.8,0,0.5,0.3,0.5,1V111.4z"/>
	<path fill="#4E4D4D" d="M231.5,16.9c0,0,9.8,0.5,10.8,1.5c1.3,1,1,3.5-0.5,3.3s-8-0.8-8.8-0.3c-1,0.3-0.8-2,0.3-2.3
		c1,0,5.5,0.8,5.5,0.8s3-1-6.8-2C232,17.9,231.8,17.4,231.5,16.9L231.5,16.9z"/>
	<path fill="#004667" d="M253.5,64.7c-34.8,0-63,29.3-63,65.3c0,36.3,28.3,65.5,63,65.5s62.8-29.3,62.8-65.5
		C316.3,93.9,288.3,64.7,253.5,64.7L253.5,64.7z M253.5,185.4c-29.5,0-53.5-24.8-53.5-55.5c0-30.5,24-55.5,53.5-55.5
		s53.3,25,53.3,55.5C306.8,160.7,283,185.4,253.5,185.4L253.5,185.4z"/>
	<path fill="none" stroke="#E5E5E4" stroke-width="5" stroke-miterlimit="10" d="M253.5,71.4c31,0,56.3,26.3,56.3,58.5
		c0,32.5-25.3,58.5-56.3,58.5s-56.3-26-56.3-58.5C197.3,97.7,222.5,71.4,253.5,71.4L253.5,71.4z"/>
	<path fill="#60C0C3" d="M253.5,128.2c-1.3-0.3-11.8-14-15-19.5c-3-5.8-22.5-70.5-22.5-70.5c-1.3-2.5-1.3-2.5-1.3-2.5
		c-4.8,1.8-4.8,1.8-4.8,1.8c-0.3,3-0.3,3-0.3,3c-1.5,0.5,0.5,2,0.5,2c0,1.8,0,1.8,0,1.8s-90,0.5-91.8,0c-2-0.3-2.3-11-4.5-16.8
		c-2.5-5.8-5.3-7-5.3-7c-3.3,0.8-3.3,0.8-3.3,0.8c1,0.5,11.5,18.5,7.8,23c-3.8,4.8,0.8,5,0.5,6.5c-0.3,1-24.3,38.5-24.3,38.5
		s-22.8,36-26.8,39.5c-4,3.3,0.5,5.8,2.5,6.5c2,0.5,3-2.3,3-2.3c1-0.8,30.5,4.8,31.3,4.8s44.5,8,47.3,5.5s40.5-44.3,45.3-50.3
		c5-6,25.3-28.8,26-29.3c0.5-0.3,7.5,16.3,12.5,34.8c5.3,18.5,20.5,31.3,20.5,31.3s0.3-2.5,0.3,0.5c0,3.3,3.5,3,4.8,1
		S254.8,128.4,253.5,128.2L253.5,128.2z M137,139.9c0,0-54.8-8.3-62.8-9.3c-8.3-1.3-2.8-7.8-2.8-7.8s38.5-61,42-66.5
		c3.5-5.3,3.8,0,3.8,0s20.5,76.3,21.8,80.8C140.5,141.9,137,139.9,137,139.9L137,139.9z M144.5,137.2c-2,0.8-24-87.8-24-87.8
		s85.5-0.8,90.5,0s4.3,3,5,6.5C217,59.2,146.8,136.7,144.5,137.2L144.5,137.2z"/>
	<path fill="#CCCBCB" d="M138.8,139.7c0.5,2,0.5,2,0.5,2c-7.8,6.3-7.8,6.3-7.8,6.3s-3.8-6.8-1.5-12L138.8,139.7z"/>
	<path fill="#CCCBCB" d="M147.8,140.2c-1,2-1,2-1,2c7,7.3,7,7.3,7,7.3s4.3-6.3,2.8-11.8L147.8,140.2z"/>
	<path fill="#4E4D4D" d="M211.5,36.9c0,0-7.8-15.5-5.3-15.5c2.3,0,30.5,0.8,31.8,1.3s0,3.3,0,3.3s-26.3-2-26.3,0.3s2.5,9.8,2.5,9.8
		L211.5,36.9z"/>
	<path fill="#010202" d="M221.3,18.9c0,0-4.3-4.8,1.3-5.8c0,0,8.3,0.8,9.5,3c1.8,3.3-1,6.5-2,6C229,21.9,222.5,19.7,221.3,18.9
		L221.3,18.9z"/>
	<path fill="none" stroke="#FFFFFF" stroke-miterlimit="10" d="M222.8,12.2c1,2,2.8,4.3,1,6.8c-0.8,1-2,1-2.8,1.5"/>
	<path fill="#676767" d="M143.3,134.9c2.8,0,5,2.5,5,5.3c0,3-2.3,5.5-5,5.5s-5-2.5-5-5.5C138.3,137.4,140.5,134.9,143.3,134.9
		L143.3,134.9z"/>
	<path fill="none" stroke="#28285B" stroke-miterlimit="10" d="M61.8,152.7c5,3.5,74,8.5,92.5-0.8c7-3.5,13.5-31-23.5-27.5
		c-37.3,3.5-57.3-8.8-65.8-1.8s-0.3,10.5,2.3,13.8C69.8,139.4,52.8,146.7,61.8,152.7L61.8,152.7z"/>
	
		<path fill="none" stroke="#28285B" stroke-width="3" stroke-linecap="round" stroke-linejoin="round" stroke-miterlimit="10" stroke-dasharray="0,7" d="
		M61.8,152.7c5,3.5,74,8.5,92.5-0.8c7-3.5,13.5-31-23.5-27.5c-37.3,3.5-57.3-8.8-65.8-1.8s-0.3,10.5,2.3,13.8
		C69.8,139.4,52.8,146.7,61.8,152.7L61.8,152.7z"/>
	<path fill="none" stroke="#010202" stroke-miterlimit="10" d="M61.8,152.7c5,3.5,74,8.5,92.5-0.8c7-3.5,13.5-31-23.5-27.5"/>
	<path fill="#60C0C3" d="M56.5,130.4c0,0,9.3-6.5,11.5-3.3c2.3,3.5-0.3,3.5-1.3,4.8s0,2.5,2,4.3c1.8,1.8,2.5,5.8,0.3,8
		c-2.3,2.5-5.8,3.8-5.8,5.5c0,1.5-5,5-6.3,2c-1.3-3.3,1.5-9,6.3-12C67.8,136.4,55.8,134.7,56.5,130.4L56.5,130.4z"/>
	<path fill="#4E4D4D" d="M92.8,14.4c-2.3-1-2.3-1-2.3-1s-0.3,1.3,0.3,2.3c0.8,1.3,1.8,5.5,4.5,6s5.3-0.3,7.3-0.3c2,0.3,9-0.3,11-0.3
		s11.3-3.8,10.8-5.3c-2.3,0.3-2.3,0.3-2.3,0.3s-8.8,4.3-25,4C94.5,20.2,92.8,19.2,92.8,14.4L92.8,14.4z"/>
	<path fill="#4E4D4D" d="M103.5,19.9c0,0-1,2.5,0.8,4.3s3.3,1.5,4,0.5s2.5-5.3,2.5-5.3S106.3,20.7,103.5,19.9L103.5,19.9z
		 M107.8,23.9c-0.3,0.8-1.5,1-2.8-0.3s-0.5-2.8-0.5-2.8c2,0.5,5-0.5,5-0.5S108.3,23.4,107.8,23.9L107.8,23.9z"/>
	<path fill="#010202" d="M89.8,8.2c0,0-4.5-0.8-4.5,1c0.3,2,2.3,3,6,4.5c4,1.3,8.8,5,12.3,6.3s12.5-2.3,17-3.5
		c4.8-1,10.5-1.5,10.5-2.5c0-1.3-2-7.5-16.3-3.3S93.8,8.4,89.8,8.2L89.8,8.2z"/>
	<path fill="#676767" d="M161.8,138.7c0-0.5,0-0.8,0-1c-2,0.5-3.8-0.5-4.3-2.3c-0.8-1.8,0.3-3.8,2-4.5c-0.3-0.3-0.3-0.5-0.5-0.8
		c-1.3,1.3-3.5,1-4.8-0.5c-1-1.3-1-3.5,0.3-4.8c-0.3-0.3-0.5-0.5-0.8-0.5c-0.8,1.8-2.8,2.5-4.5,1.8s-2.5-2.8-1.8-4.8
		c-0.3,0-0.8,0-1,0c0,1.8-1.5,3.3-3.3,3.3c-2,0-3.5-1.5-3.5-3.3c-0.3,0-0.5,0-0.8,0c0.8,2-0.3,4-1.8,4.8c-1.8,0.8-3.8,0-4.5-1.8
		c-0.3,0.3-0.5,0.5-0.8,0.5c1.3,1.3,1.5,3.5,0.3,4.8c-1.3,1.5-3.3,1.8-4.8,0.5c-0.3,0.3-0.3,0.5-0.5,0.8c1.8,0.8,2.8,2.8,2.3,4.5
		c-0.8,1.8-2.5,2.8-4.3,2.3c0,0.5,0,0.8,0,1c1.8,0,3.3,1.3,3.5,3.3c0.3,1.8-1,3.5-3,3.8c0.3,0.5,0.3,0.8,0.5,1
		c1.5-1,3.5-0.3,4.5,1.5c1,1.5,0.5,3.8-1,4.8c0,0.3,0.3,0.5,0.5,0.8c1-1.5,3.3-2,4.8-0.8c1.5,1,1.8,3.3,0.8,4.8
		c0.3,0,0.5,0.3,0.8,0.5c0.5-2,2.3-3,4-2.8c1.8,0.5,3,2.3,2.8,4.3h0.3c0.3,0,0.5,0,0.5,0c-0.3-2,1-3.8,2.8-4.3
		c1.8-0.3,3.8,0.8,4,2.8c0.3-0.3,0.5-0.3,0.8-0.5c-1-1.5-0.5-3.8,1-5c1.5-1,3.5-0.8,4.5,0.8c0.3-0.3,0.5-0.5,0.8-0.8
		c-1.5-1-2.3-3-1.3-4.8s3-2.3,4.5-1.3c0.3-0.5,0.3-0.8,0.5-1c-2-0.3-3.3-2-3-4C158.3,139.7,160,138.4,161.8,138.7L161.8,138.7z
		 M143.3,153.7c-7,0-12.8-6-12.8-13.5s5.8-13.3,12.8-13.3s13,5.8,13,13.3S150.3,153.7,143.3,153.7L143.3,153.7z"/>
	<path fill="none" stroke="#4E4D4D" stroke-width="6" stroke-miterlimit="10" d="M143.3,123.9c8.8,0,15.8,7.3,15.8,16.3
		c0,9.3-7,16.5-15.8,16.5s-15.8-7.3-15.8-16.5C127.5,131.2,134.5,123.9,143.3,123.9L143.3,123.9z"/>
	<path fill="#676767" d="M142.3,168.9c0,0-2-27,0.3-27.3c2.5,0,2.8,0.8,2.5,4.8s-0.5,22.5-0.5,22.5H142.3z"/>
	<path fill="#60C0C3" d="M151.3,170.2c0,2-1.8,3.8-3.8,3.8c-8.8,0-8.8,0-8.8,0c-2,0-3.5-1.8-3.5-3.8l0,0c0-2,1.5-3.3,3.5-3.3
		c8.8,0,8.8,0,8.8,0C149.5,166.9,151.3,168.2,151.3,170.2L151.3,170.2z"/>
	<path fill="#00A99C" d="M146.3,170.9c0,0.8-0.5,1-1.3,1c-3.3,0-3.3,0-3.3,0c-0.8,0-1.5-0.3-1.5-1c0-0.5,0-0.5,0-0.5
		c0-0.8,0.8-1.5,1.5-1.5c3.3,0,3.3,0,3.3,0c0.8,0,1.3,0.8,1.3,1.5V170.9z"/>
	<path fill="#333333" d="M143.3,137.2c1.5,0,3,1.5,3,3c0,1.8-1.5,3-3,3s-3-1.3-3-3C140.3,138.7,141.8,137.2,143.3,137.2L143.3,137.2
		z"/>
	<path fill="#004667" d="M68,67.4c-34.8,0-63,29.3-63,65.5c0,36.3,28.3,65.5,63,65.5s62.8-29.3,62.8-65.5
		C130.8,96.7,102.5,67.4,68,67.4L68,67.4z M68,188.4c-29.5,0-53.5-24.8-53.5-55.5s24-55.5,53.5-55.5s53.3,24.8,53.3,55.5
		S97.3,188.4,68,188.4L68,188.4z"/>
	<path fill="none" stroke="#E5E5E4" stroke-width="5" stroke-miterlimit="10" d="M68,74.4c31,0,56.3,26.3,56.3,58.5
		c0,32.5-25.3,58.5-56.3,58.5c-31.3,0-56.3-26-56.3-58.5C11.8,100.7,36.8,74.4,68,74.4L68,74.4z"/>
</g>
</svg>
