<?xml version="1.0" encoding="utf-8"?>
<!-- Generator: Adobe Illustrator 16.0.0, SVG Export Plug-In . SVG Version: 6.00 Build 0)  -->
<!DOCTYPE svg PUBLIC "-//W3C//DTD SVG 1.1//EN" "http://www.w3.org/Graphics/SVG/1.1/DTD/svg11.dtd">
<svg version="1.1" id="Layer_1" xmlns="http://www.w3.org/2000/svg" xmlns:xlink="http://www.w3.org/1999/xlink" x="0px" y="0px"
	 width="281px" height="165px" viewBox="0 0 281 165" enable-background="new 0 0 281 165" xml:space="preserve">
<g>
	<polygon fill="#5B6173" points="65.5,13 65.5,65 26.5,65 26.5,13 65.5,13 	"/>
	<polygon fill="#535A6B" points="65.5,13 65.5,65 57,65 57,13 65.5,13 	"/>
	<polygon fill="#656D81" points="68.3,20.8 23.5,20.8 23.5,3 68.3,3 68.3,20.8 	"/>
	<polygon fill="#4F5666" points="65.5,20.8 65.5,24.5 26.5,24.5 26.5,20.8 65.5,20.8 	"/>
	<polygon fill="#3F7EC0" points="160.8,72 160.8,158 20.3,158 20.3,72 90.5,18.5 160.8,72 	"/>
	<polygon fill="#B5D9F3" points="174,72 160.8,72 90.5,18.5 20.3,72 7,72 90.5,8.3 174,72 	"/>
	<polygon fill="#2C2F3B" points="63,129 29,129 29,87 63,87 63,129 	"/>
	<polygon fill="#B5D9F3" points="60.5,126.3 31.5,126.3 31.5,89.8 60.5,89.8 60.5,126.3 	"/>
	<polygon fill="#2C2F3B" points="47.3,126.3 44.8,126.3 44.8,89.8 47.3,89.8 47.3,126.3 	"/>
	<polygon fill="#2C2F3B" points="31.5,109.3 31.5,106.8 60.5,106.8 60.5,109.3 31.5,109.3 	"/>
	<polygon fill="#2C2F3B" points="153.3,129 119.3,129 119.3,87 153.3,87 153.3,129 	"/>
	<polygon fill="#B5D9F3" points="150.8,126.3 121.8,126.3 121.8,89.8 150.8,89.8 150.8,126.3 	"/>
	<polygon fill="#2C2F3B" points="137.5,126.3 135,126.3 135,89.8 137.5,89.8 137.5,126.3 	"/>
	<polygon fill="#2C2F3B" points="121.8,109.3 121.8,106.8 151,106.8 151,109.3 121.8,109.3 	"/>
	<polygon fill="#32679F" points="160.8,72 160.8,74.5 90.5,21.8 20.3,74 20.3,72 90.5,18.5 160.8,72 	"/>
	<polygon fill="#2C2F3B" points="109.8,158 71.3,158 71.3,87 109.8,87 109.8,158 	"/>
	<polygon fill="#84291F" points="107.3,158 73.8,158 73.8,89.8 107.3,89.8 107.3,158 	"/>
	<polygon fill="#A43222" points="104.5,111.8 76.5,111.8 76.5,92 104.5,92 104.5,111.8 	"/>
	<polygon fill="#A43222" points="104.5,134 76.5,134 76.5,114 104.5,114 104.5,134 	"/>
	<polygon fill="#A43222" points="104.5,156 76.5,156 76.5,136.3 104.5,136.3 104.5,156 	"/>
	<path fill="#392018" d="M102.5,123.5c0,1.5-1,2.5-2.3,2.5c-1.5,0-2.5-1-2.5-2.5c0-1.3,1-2.5,2.5-2.5
		C101.5,121,102.5,122.3,102.5,123.5"/>
	<polygon fill="#3F7EC0" points="271,158 160.8,158 160.8,72 271,72 271,158 	"/>
	<polygon fill="#B5D9F3" points="160.8,72 277,72 277,65 151.8,65 160.8,72 	"/>
	<polygon fill="#2C2F3B" points="255,158 177,158 177,87 255,87 255,158 	"/>
	<polygon fill="#D4D4D2" points="252.3,89.5 252.3,99.5 179.8,99.5 179.8,89.5 252.3,89.5 	"/>
	<polygon fill="#8D8D8D" points="252.3,98.3 252.3,99.5 179.8,99.5 179.8,98.3 252.3,98.3 	"/>
	<polygon fill="#D4D4D2" points="252.3,99.5 252.3,109.3 179.8,109.3 179.8,99.5 252.3,99.5 	"/>
	<polygon fill="#8D8D8D" points="252.3,108 252.3,109.3 179.8,109.3 179.8,108 252.3,108 	"/>
	<polygon fill="#D4D4D2" points="252.3,109.3 252.3,119 179.8,119 179.8,109.3 252.3,109.3 	"/>
	<polygon fill="#8D8D8D" points="252.3,117.8 252.3,119 179.8,119 179.8,117.8 252.3,117.8 	"/>
	<polygon fill="#D4D4D2" points="252.3,119 252.3,128.8 179.8,128.8 179.8,119 252.3,119 	"/>
	<polygon fill="#8D8D8D" points="252.3,127.8 252.3,128.8 179.8,128.8 179.8,127.8 252.3,127.8 	"/>
	<polygon fill="#D4D4D2" points="252.3,128.8 252.3,138.5 179.8,138.5 179.8,128.8 252.3,128.8 	"/>
	<polygon fill="#8D8D8D" points="252.3,137.5 252.3,138.5 179.8,138.5 179.8,137.5 252.3,137.5 	"/>
	<polygon fill="#D4D4D2" points="252.3,138.5 252.3,148.3 179.8,148.3 179.8,138.5 252.3,138.5 	"/>
	<polygon fill="#8D8D8D" points="252.3,147.3 252.3,148.3 179.8,148.3 179.8,147.3 252.3,147.3 	"/>
	<polygon fill="#D4D4D2" points="252.3,148.3 252.3,158 179.8,158 179.8,148.3 252.3,148.3 	"/>
	<polygon fill="#8D8D8D" points="252.3,157 252.3,158 179.8,158 179.8,157 252.3,157 	"/>
	<polygon fill="#4F5666" points="206,65 179.8,65 179.8,51 206,51 206,65 	"/>
	<polygon fill="#4F5666" points="254.3,65 228,65 228,51 254.3,51 254.3,65 	"/>
	<polygon fill="#32679F" points="271,74.5 160.8,74.5 160.8,72 271,72 271,74.5 	"/>
</g>
</svg>
