<?xml version="1.0" encoding="utf-8"?>
<!-- Generator: Adobe Illustrator 16.0.0, SVG Export Plug-In . SVG Version: 6.00 Build 0)  -->
<!DOCTYPE svg PUBLIC "-//W3C//DTD SVG 1.1//EN" "http://www.w3.org/Graphics/SVG/1.1/DTD/svg11.dtd">
<svg version="1.1" id="Layer_1" xmlns="http://www.w3.org/2000/svg" xmlns:xlink="http://www.w3.org/1999/xlink" x="0px" y="0px"
	 width="140px" height="107px" viewBox="0 0 140 107" enable-background="new 0 0 140 107" xml:space="preserve">
<g>
	<polygon fill="#C8C9C9" points="11.7,80.1 10.5,80.1 10.5,35 11.7,35 	"/>
	<polygon fill="#D2D3D2" points="58,84 56.4,84 56.4,4.4 58,4.4 	"/>
	<path fill="#BABBBC" d="M136.3,65.7c-2.8-3-2.8-3-2.8-3S81,79.8,6.2,77.1c-1,4-1,4-1,4s49.3,6.6,81,1.7
		C117.8,77.6,136.3,65.7,136.3,65.7"/>
	<path fill="#E9EAE9" d="M136.3,65.7c0,0-25.7,15.4-131,15.4c0,0,7,21.3,11,21.3c3.8,0,82,0,94.1,0
		C122.5,102.4,136.3,65.7,136.3,65.7"/>
	<path fill="#BABBBC" d="M6.7,85.2c12,0.3,30.4,0.3,57.6-1c41.6-2.3,60.6-6.4,67.7-8.7c0,0.3-0.3,0.8-0.5,1
		c-7.8,2.5-26.7,6.4-67.2,8.4c-19.2,1-34.2,1.3-45.6,1.3c-4.5,0-8.3,0-11.8,0C7,86,6.7,85.5,6.7,85.2"/>
	<path fill="#BABBBC" d="M9.7,93c-0.3-0.5-0.3-0.8-0.5-1c74.2,1,106.9-4.5,118-6.9c0,0.3-0.3,0.8-0.5,1c-11,2.5-39.6,6.9-99.6,6.9
		C21.7,93,15.7,93,9.7,93"/>
	<path fill="#BABBBC" d="M13.5,100.1c-0.3-0.3-0.3-0.5-0.5-1c62.6,0.8,94.6-3.3,109.4-6c-0.3,0.5-0.5,0.8-1,1
		c-13.7,2.8-42.1,6-94.1,6C23,100.1,18.2,100.1,13.5,100.1"/>
	<path fill="#909396" d="M113.8,80.1c0,2.5,2,4.5,4.5,4.5s4.5-2,4.5-4.5s-2-4.5-4.5-4.5S113.8,77.6,113.8,80.1"/>
	<path fill="#51AEE5" d="M115.3,80.1c0,1.5,1.3,2.8,3,2.8c1.5,0,2.8-1.3,2.8-2.8c0-1.8-1.3-3-2.8-3
		C116.6,77.1,115.3,78.3,115.3,80.1"/>
	<path fill="#909396" d="M93.4,82.8c0,2.5,2,4.5,4.5,4.5s4.5-2,4.5-4.5c0-2.5-2-4.5-4.5-4.5S93.4,80.3,93.4,82.8"/>
	<path fill="#51AEE5" d="M94.9,82.8c0,1.8,1.5,3,3,3s3-1.3,3-3c0-1.5-1.5-2.8-3-2.8S94.9,81.3,94.9,82.8"/>
	<path fill="#909396" d="M71.5,85c0,2.5,2,4.5,4.5,4.5c2.5,0,4.5-2,4.5-4.5c0-2.5-2-4.5-4.5-4.5C73.5,80.6,71.5,82.6,71.5,85"/>
	<path fill="#51AEE5" d="M73,85c0,1.5,1.5,2.8,3,2.8c1.5,0,3-1.3,3-2.8c0-1.8-1.5-3-3-3C74.5,82.1,73,83.3,73,85"/>
	<path fill="#909396" d="M48.4,86.2c0,2.5,2,4.5,4.5,4.5c2.5,0,4.5-2,4.5-4.5c0-2.5-2-4.5-4.5-4.5C50.4,81.8,48.4,83.8,48.4,86.2"/>
	<path fill="#51AEE5" d="M49.9,86.2c0,1.8,1.3,3,3,3c1.5,0,2.8-1.3,2.8-3c0-1.5-1.3-2.8-2.8-2.8C51.1,83.6,49.9,84.7,49.9,86.2"/>
	<path fill="#909396" d="M25.2,87.2c0,2.5,2,4.5,4.5,4.5c2.5,0,4.5-2,4.5-4.5c0-2.5-2-4.5-4.5-4.5C27.2,82.8,25.2,84.7,25.2,87.2"/>
	<path fill="#51AEE5" d="M26.7,87.2c0,1.8,1.5,3,3,3c1.8,0,3-1.3,3-3c0-1.5-1.3-2.8-3-2.8C28.2,84.5,26.7,85.7,26.7,87.2"/>
	<path fill="#4AAAD3" d="M16.2,102.4c3.8,0,82,0,94.1,0l0,0C98.2,102.4,20,102.4,16.2,102.4L16.2,102.4L16.2,102.4 M110.3,102.4
		L110.3,102.4L110.3,102.4 M16.2,102.4L16.2,102.4L16.2,102.4 M110.3,102.4L110.3,102.4L110.3,102.4 M110.3,102.4L110.3,102.4
		L110.3,102.4 M16.2,102.4L16.2,102.4L16.2,102.4 M16.2,102.4L16.2,102.4L16.2,102.4 M16.2,102.4L16.2,102.4L16.2,102.4 M16,102.4
		L16,102.4L16,102.4 M16,102.4L16,102.4L16,102.4 M16,102.4L16,102.4L16,102.4 M16,102.4L16,102.4L16,102.4 M16,102.4L16,102.4
		L16,102.4 M16,102.4L16,102.4L16,102.4 M16,102.4L16,102.4L16,102.4 M16,102.4L16,102.4L16,102.4 M16,102.4L16,102.4L16,102.4
		 M16,102.4L16,102.4L16,102.4 M16,102.4L16,102.4L16,102.4 M16,102.4L16,102.4L16,102.4 M16,102.4L16,102.4L16,102.4 M16,102.4
		L16,102.4L16,102.4 M16,102.4L16,102.4L16,102.4 M16,102.4L16,102.4L16,102.4 M16,102.4L16,102.4L16,102.4 M16,102.4L16,102.4
		L16,102.4 M16,102.4L16,102.4L16,102.4 M16,102.4L16,102.4L16,102.4 M15.7,102.4L15.7,102.4L15.7,102.4 M15.7,102.4L15.7,102.4
		L15.7,102.4 M15.7,102.4L15.7,102.4L15.7,102.4 M15.7,102.4L15.7,102.4L15.7,102.4 M15.7,102.4L15.7,102.4L15.7,102.4 M5.3,81.1
		c0.5-1.8,0.5-1.8,0.5-1.8C5.3,81.1,5.3,81.1,5.3,81.1L5.3,81.1"/>
	<path fill="#9C9D9F" d="M5.3,81.1c7,0,13.7,0,19.9-0.3l0,0C6,78.1,6,78.1,6,78.1c-0.3,1.3-0.3,1.3-0.3,1.3
		C5.3,81.1,5.3,81.1,5.3,81.1L5.3,81.1"/>
	<path fill="#C5C4C3" d="M16.2,102.4c3.8,0,82,0,94.1,0l0,0l0,0l0,0l0,0l0,0l0,0c3.8,0,7.5-3.5,11-8.2l0,0c2-2.3,3.8-5.3,5.5-7.9
		c-0.8,0.8-4.3,5.5-17.4,8.9c5.3-0.5,9.5-1.3,13-2c-0.3,0.5-0.5,0.8-1,1c-5,1-11.8,2-21.2,3c-7.8,1.3-17.9,2.3-30.7,2.3
		c-12,0.5-25.9,0.8-42.3,0.8c-4.3,0-9,0-13.7,0c-0.3-0.3-0.3-0.5-0.5-1c5,0.3,9.8,0.3,14.2,0.3c6,0,11.5-0.3,16.7-0.3
		c-22.6-0.3-26.6-1.8-28.6-6.2c-1.8,0-3.8,0-5.5,0c-0.3-0.5-0.3-0.8-0.5-1c2,0,3.8,0,5.5,0c0-0.3-0.3-0.8-0.3-1.3
		c-0.8-1.8-0.5-3.3,0.3-4.5c-2.8,0-5.5,0-7.8,0c0-0.3,0-0.3,0-0.3c0.6,1.8,1.6,3.8,2.3,6.1l0,0c0.3,0.3,0.3,0.5,0.5,1l0,0
		c2,4.5,4.3,8.7,6,9.4l0,0l0,0l0,0l0,0l0,0l0,0l0,0l0,0l0,0H16l0,0l0,0l0,0l0,0l0,0l0,0l0,0l0,0l0,0l0,0l0,0l0,0l0,0l0,0l0,0l0,0
		l0,0l0,0l0,0l0,0l0,0l0,0l0,0l0,0l0,0l0,0l0,0l0,0l0,0l0,0l0,0l0,0l0,0l0,0l0,0l0,0l0,0l0,0C16,102.4,16,102.4,16.2,102.4
		L16.2,102.4L16.2,102.4L16.2,102.4L16.2,102.4L16.2,102.4L16.2,102.4L16.2,102.4L16.2,102.4L16.2,102.4L16.2,102.4 M15.2,85.5
		c3-3.5,9.8-4.8,10-4.8c-6.3,0.3-13,0.3-19.9,0.3c0,0,0.5,1.8,1.5,4.3l0,0C9.2,85.2,12.2,85.5,15.2,85.5"/>
	<path fill="#9C9D9F" d="M14.7,86.2c0.3-0.3,0.3-0.5,0.5-0.8c-3,0-6,0-8.5-0.3l0,0l0,0l0,0c0,0.3,0,0.5,0.3,0.8c0,0,0,0,0,0.3
		C9.2,86.2,12,86.2,14.7,86.2"/>
	<path fill="#9C9D9F" d="M15.2,93c-0.3-0.3-0.3-0.8-0.5-1c-1.8,0-3.5,0-5.5,0c0.3,0.3,0.3,0.5,0.5,1C11.5,93,13.5,93,15.2,93"/>
	<path fill="#9C9D9F" d="M27.2,100.1c16.4,0,30.4-0.3,42.3-0.8c0,0,0,0-0.3,0c-10.5,0-18.7,0-25.4-0.3c-5.3,0-10.8,0.3-16.7,0.3
		c-4.5,0-9.3,0-14.2-0.3c0.3,0.5,0.3,0.8,0.5,1C18.2,100.1,23,100.1,27.2,100.1 M100.2,97.1c9.5-1,16.2-2,21.2-3
		c0.5-0.3,0.8-0.5,1-1c-3.5,0.8-7.8,1.5-13,2C106.7,96,103.7,96.6,100.2,97.1"/>
	<path fill="#FFFFFF" d="M17.7,84c2.3,0,4.3-1.8,4.3-4s-2-4-4.3-4c-2,0-4,1.8-4,4S15.7,84,17.7,84L17.7,84z M17.7,71.2
		c5,0,9,4,9,8.9c0,4.8-4,8.7-9,8.7c-4.8,0-8.8-4-8.8-8.7C9,75.1,13,71.2,17.7,71.2"/>
	<path fill="#EB1D27" d="M21.2,71.8c-1,5-1,5-1,5c-0.5-0.5-1.5-0.8-2.5-0.8c-0.8,0-1.8,0.3-2.3,0.8c-1-5-1-5-1-5
		c1-0.5,2.3-0.8,3.3-0.8C19,71.2,20.2,71.4,21.2,71.8"/>
	<path fill="#EB1D27" d="M9.7,76.6c5,1,5,1,5,1c-0.5,0.8-1,1.5-1,2.5c0,0.8,0.5,1.8,1,2.5c-5,1-5,1-5,1c-0.5-1.3-0.8-2.3-0.8-3.5
		S9.2,77.6,9.7,76.6"/>
	<path fill="#EB1D27" d="M14.5,88c1-5,1-5,1-5c0.5,0.8,1.5,1,2.3,1c1,0,2-0.3,2.5-1c1,5,1,5,1,5c-1,0.5-2.3,0.8-3.5,0.8
		C16.7,88.7,15.5,88.5,14.5,88"/>
	<path fill="#EB1D27" d="M26,83.6c-5-1-5-1-5-1c0.5-0.8,1-1.8,1-2.5c0-1-0.5-1.8-1-2.5c5-1,5-1,5-1c0.5,1,0.8,2.3,0.8,3.5
		S26.5,82.3,26,83.6"/>
	<path fill="#D2D3D2" d="M58,4.4c0,0,17.7,28.1,0,59.8c35.4,6.4,35.4,6.4,35.4,6.4S105.2,27.2,58,4.4"/>
	<path fill="#C8C9C9" d="M58,4.4c0,0,10.3,10.4,11.3,29.3C70.6,52.5,63,57,76.6,63.4c13.3,6.7,16.9,7.2,16.9,7.2
		C58,64.2,58,64.2,58,64.2C75.8,32.5,58,4.4,58,4.4"/>
	<path fill="#EB1D27" d="M11.7,35c0,0,7.3-0.8,8,4.8c0.8,5.3,10,6.2,10,6.2s-11,5-13,0c-2.3-5-5-4.5-5-4.5C11.7,35,11.7,35,11.7,35"
		/>
</g>
</svg>
