<?xml version="1.0" encoding="utf-8"?>
<!-- Generator: Adobe Illustrator 16.0.0, SVG Export Plug-In . SVG Version: 6.00 Build 0)  -->
<!DOCTYPE svg PUBLIC "-//W3C//DTD SVG 1.1//EN" "http://www.w3.org/Graphics/SVG/1.1/DTD/svg11.dtd">
<svg version="1.1" id="Layer_1" xmlns="http://www.w3.org/2000/svg" xmlns:xlink="http://www.w3.org/1999/xlink" x="0px" y="0px"
	 width="154px" height="110px" viewBox="0 0 154 110" enable-background="new 0 0 154 110" xml:space="preserve">
<g>
	<polygon fill="#957E72" points="74,21.2 75.3,21.2 75.3,3.4 74,3.4 74,21.2 	"/>
	<polygon fill="#957E72" points="34.6,21.2 35.8,21.2 35.8,3.4 34.6,3.4 34.6,21.2 	"/>
	<path fill="#957E72" d="M54.8,6.1c11.5,0,19.2-2,19.2-2c0-0.2,0-0.2,0-0.2s-7.7,2-19.2,2c-11.7,0-18.7-2-18.7-2c0,0.2,0,0.2,0,0.2
		S43.1,6.1,54.8,6.1"/>
	<polygon fill="#F04624" points="72,4.1 73.8,3.9 72.8,7.8 70,4.6 72,4.1 	"/>
	<polygon fill="#CCE213" points="68,4.9 70,4.6 68.5,8.6 66,5.4 68,4.9 	"/>
	<polygon fill="#39AA9B" points="64.3,5.4 66.3,5.1 64.5,9.1 62.3,5.4 64.3,5.4 	"/>
	<polygon fill="#F04624" points="60.3,5.6 62.3,5.4 60.8,9.3 58.5,5.6 60.3,5.6 	"/>
	<polygon fill="#CCE213" points="56.8,5.9 58.8,5.9 56.8,9.6 54.8,5.9 56.8,5.9 	"/>
	<polygon fill="#39AA9B" points="52.8,5.9 54.8,5.9 52.8,9.6 50.8,5.9 52.8,5.9 	"/>
	<polygon fill="#F04624" points="49.1,5.9 51,6.1 48.8,9.6 47.1,5.9 49.1,5.9 	"/>
	<polygon fill="#CCE213" points="45.3,5.4 47.1,5.6 44.8,9.1 43.3,5.1 45.3,5.4 	"/>
	<polygon fill="#39AA9B" points="41.3,4.9 43.3,5.1 41.1,8.6 39.3,4.6 41.3,4.9 	"/>
	<polygon fill="#F04624" points="37.8,4.1 39.6,4.6 36.8,7.8 35.8,3.6 37.8,4.1 	"/>
	<polygon fill="#EB1D27" points="27.8,66.9 14.6,66.9 14.6,48.3 27.8,48.3 27.8,66.9 	"/>
	<polygon fill="#D2D3D2" points="143.4,65.9 143.9,65.9 143.9,53.8 143.4,53.8 143.4,65.9 	"/>
	<polygon fill="#D2D3D2" points="134.7,65.9 135.2,65.9 135.2,53.8 134.7,53.8 134.7,65.9 	"/>
	<polygon fill="#D2D3D2" points="125.9,65.9 126.4,65.9 126.4,53.8 125.9,53.8 125.9,65.9 	"/>
	<polygon fill="#D2D3D2" points="117.2,65.9 117.7,65.9 117.7,53.8 117.2,53.8 117.2,65.9 	"/>
	<polygon fill="#D2D3D2" points="108.4,65.9 108.9,65.9 108.9,53.8 108.4,53.8 108.4,65.9 	"/>
	<polygon fill="#D2D3D2" points="103,66.9 108.7,57.2 143.6,56.2 148.4,63.7 148.9,63.2 143.9,55.7 143.6,55.7 108.4,56.7 
		102.5,66.7 103,66.9 	"/>
	<polygon fill="#D2D3D2" points="106.5,66.2 108.7,61.7 143.6,60.2 146.1,63.7 146.4,63.2 143.9,59.5 108.4,61.2 106,65.9 
		106.5,66.2 	"/>
	<polygon fill="#E9EAE9" points="100.7,81.8 32.8,81.8 32.8,50.3 100.7,50.3 100.7,81.8 	"/>
	<path fill="#2C3991" d="M150.1,62.4c-48.9,3-48.9,3-48.9,3s-2,10.4-18.2,10.9c-16.5,0.7-29.7,0-37.4,0c-7.7,0-11.2-9.4-11.2-9.4
		c-28.2,0-28.2,0-28.2,0s11,39.5,30.2,39.5c19.2,0,50.4,0,71.9,0C129.9,106.4,140.6,86,150.1,62.4"/>
	<path fill="#FFFFFF" d="M16.1,90.7c119.8,0,119.8,0,119.8,0c-1.5,1.7-3,3.7-4.5,5.2C19.9,96,19.9,96,19.9,96
		C18.6,94.5,17.4,92.5,16.1,90.7"/>
	<path fill="#E9EAE9" d="M118.7,75.1c0,3.7,3,6.7,6.7,6.7c3.5,0,6.5-3,6.5-6.7c0-3.5-3-6.5-6.5-6.5
		C121.7,68.6,118.7,71.6,118.7,75.1"/>
	<path fill="#505256" d="M121.7,75.1c0,2,1.7,3.7,3.7,3.7c1.7,0,3.5-1.7,3.5-3.7s-1.7-3.5-3.5-3.5C123.4,71.6,121.7,73.1,121.7,75.1
		"/>
	<path fill="#FFFFFF" d="M27.1,84c2,0,3.7-1.7,3.7-4c0-2-1.7-3.7-3.7-3.7c-2.2,0-4,1.7-4,3.7C23.1,82.3,24.8,84,27.1,84L27.1,84z
		 M27.1,71.6c4.7,0,8.5,3.7,8.5,8.4s-3.7,8.4-8.5,8.4c-4.7,0-8.7-3.7-8.7-8.4S22.3,71.6,27.1,71.6"/>
	<path fill="#EB1D27" d="M30.3,72.4c-1,4.7-1,4.7-1,4.7c-0.7-0.5-1.5-0.7-2.2-0.7c-1,0-1.7,0.2-2.5,0.7c-1-4.7-1-4.7-1-4.7
		c1-0.5,2.2-0.7,3.5-0.7C28.1,71.6,29.3,71.9,30.3,72.4"/>
	<path fill="#EB1D27" d="M19.1,76.8c4.7,1,4.7,1,4.7,1c-0.5,0.5-0.7,1.5-0.7,2.2c0,1,0.2,1.7,0.7,2.5c-4.7,1-4.7,1-4.7,1
		c-0.5-1.2-0.7-2.2-0.7-3.5S18.6,77.8,19.1,76.8"/>
	<path fill="#EB1D27" d="M23.6,88c1-5,1-5,1-5c0.7,0.5,1.5,1,2.5,1c0.7,0,1.5-0.5,2.2-1c1,5,1,5,1,5c-1,0.2-2.2,0.5-3.2,0.5
		C25.8,88.5,24.6,88.3,23.6,88"/>
	<path fill="#EB1D27" d="M34.8,83.5c-4.7-1-4.7-1-4.7-1c0.5-0.7,0.7-1.5,0.7-2.5c0-0.7-0.2-1.7-0.7-2.2c4.7-1,4.7-1,4.7-1
		c0.5,1,0.7,2,0.7,3.2S35.3,82.3,34.8,83.5"/>
	<path fill="#FFFFFF" d="M27.1,84c2,0,3.7-1.7,3.7-4c0-2-1.7-3.7-3.7-3.7c-2.2,0-4,1.7-4,3.7C23.1,82.3,24.8,84,27.1,84L27.1,84z
		 M27.1,71.6c4.7,0,8.5,3.7,8.5,8.4s-3.7,8.4-8.5,8.4c-4.7,0-8.7-3.7-8.7-8.4S22.3,71.6,27.1,71.6"/>
	<path fill="#EB1D27" d="M30.3,72.4c-1,4.7-1,4.7-1,4.7c-0.7-0.5-1.5-0.7-2.2-0.7c-1,0-1.7,0.2-2.5,0.7c-1-4.7-1-4.7-1-4.7
		c1-0.5,2.2-0.7,3.5-0.7C28.1,71.6,29.3,71.9,30.3,72.4"/>
	<path fill="#EB1D27" d="M19.1,76.8c4.7,1,4.7,1,4.7,1c-0.5,0.5-0.7,1.5-0.7,2.2c0,1,0.2,1.7,0.7,2.5c-4.7,1-4.7,1-4.7,1
		c-0.5-1.2-0.7-2.2-0.7-3.5S18.6,77.8,19.1,76.8"/>
	<path fill="#EB1D27" d="M23.6,88c1-5,1-5,1-5c0.7,0.5,1.5,1,2.5,1c0.7,0,1.5-0.5,2.2-1c1,5,1,5,1,5c-1,0.2-2.2,0.5-3.2,0.5
		C25.8,88.5,24.6,88.3,23.6,88"/>
	<path fill="#EB1D27" d="M34.8,83.5c-4.7-1-4.7-1-4.7-1c0.5-0.7,0.7-1.5,0.7-2.5c0-0.7-0.2-1.7-0.7-2.2c4.7-1,4.7-1,4.7-1
		c0.5,1,0.7,2,0.7,3.2S35.3,82.3,34.8,83.5"/>
	<polygon fill="#EB1D27" points="102.7,50.3 31.3,50.3 31.3,46.3 102.7,46.3 102.7,50.3 	"/>
	<polygon fill="#EB1D27" points="81,24.2 31.1,24.2 31.1,20 81,20 81,24.2 	"/>
	<polygon fill="#E9EAE9" points="90.7,46.3 76,24.2 32.8,24.2 32.8,46.3 90.7,46.3 	"/>
	<polygon fill="#51AEE5" points="87.5,63.4 95.7,63.4 95.7,54.5 87.5,54.5 87.5,63.4 	"/>
	<polygon fill="#51AEE5" points="57.5,36.4 65.8,36.4 65.8,27.7 57.5,27.7 57.5,36.4 	"/>
	<polygon fill="#51AEE5" points="46.6,36.4 54.8,36.4 54.8,27.7 46.6,27.7 46.6,36.4 	"/>
	<polygon fill="#51AEE5" points="43.6,36.4 35.3,36.4 35.3,27.7 43.6,27.7 43.6,36.4 	"/>
	<polygon fill="#51AEE5" points="75.3,63.4 83.5,63.4 83.5,54.5 75.3,54.5 75.3,63.4 	"/>
	<polygon fill="#51AEE5" points="63,63.4 71,63.4 71,54.5 63,54.5 63,63.4 	"/>
	<polygon fill="#51AEE5" points="50.5,63.4 58.8,63.4 58.8,54.5 50.5,54.5 50.5,63.4 	"/>
	<polygon fill="#51AEE5" points="46.6,63.4 38.3,63.4 38.3,54.5 46.6,54.5 46.6,63.4 	"/>
	<polygon fill="#51AEE5" points="79.2,35.9 74,27.7 68.8,27.7 68.8,35.9 79.2,35.9 	"/>
	<polygon fill="#E9EAE9" points="14.6,61.5 27.8,61.5 27.8,56 14.6,56 14.6,61.5 	"/>
	<path fill="#3986AA" d="M36.3,106.4c19.2,0,50.4,0,71.9,0c0,0,0,0,0.2,0c-0.2,0-0.2,0-0.2,0C86.7,106.4,55.5,106.4,36.3,106.4
		c-19.2,0-30.2-39.5-30.2-39.5l0,0C6.1,66.9,17.1,106.4,36.3,106.4 M108.4,106.4L108.4,106.4L108.4,106.4 M108.4,106.4L108.4,106.4
		L108.4,106.4 M108.4,106.4L108.4,106.4L108.4,106.4 M108.4,106.4c0,0,0,0,0.3,0C108.4,106.4,108.4,106.4,108.4,106.4 M108.7,106.4
		L108.7,106.4L108.7,106.4 M108.7,106.4L108.7,106.4L108.7,106.4 M108.7,106.4L108.7,106.4L108.7,106.4 M108.7,106.4h0.2H108.7
		 M108.9,106.4L108.9,106.4L108.9,106.4 M108.9,106.4L108.9,106.4L108.9,106.4 M108.9,106.4L108.9,106.4L108.9,106.4 M108.9,106.4
		h0.3H108.9 M109.2,106.4L109.2,106.4L109.2,106.4 M109.2,106.4L109.2,106.4L109.2,106.4 M109.2,106.4L109.2,106.4L109.2,106.4
		 M109.2,106.4h0.2H109.2 M109.4,106.4L109.4,106.4L109.4,106.4 M109.4,106.4L109.4,106.4L109.4,106.4 M109.4,106.4L109.4,106.4
		L109.4,106.4 M109.4,106.4h0.3H109.4 M109.7,106.4L109.7,106.4L109.7,106.4 M6.1,66.9c8.5,0,8.5,0,8.5,0l0,0
		C6.1,66.9,6.1,66.9,6.1,66.9 M27.8,66.9c5,0,5,0,5,0l0,0C27.8,66.9,27.8,66.9,27.8,66.9L27.8,66.9"/>
	<polygon fill="#A01C21" points="14.6,66.9 27.8,66.9 27.8,66.9 14.6,66.9 14.6,66.9 	"/>
	<path fill="#9A9A9B" d="M32.8,66.9c1.5,0,1.5,0,1.5,0l0,0C32.8,66.9,32.8,66.9,32.8,66.9L32.8,66.9"/>
	<path fill="#252A5E" d="M36.3,106.4c19.2,0,50.4,0,71.9,0c0,0,0,0,0.2,0l0,0l0,0l0,0l0,0l0,0l0,0l0,0c0,0,0,0,0.3,0l0,0l0,0l0,0
		l0,0l0,0l0,0l0,0h0.2l0,0l0,0l0,0l0,0l0,0l0,0l0,0h0.3l0,0l0,0l0,0l0,0l0,0l0,0l0,0h0.2l0,0l0,0l0,0l0,0l0,0l0,0l0,0h0.3l0,0l0,0
		c8.7-0.2,15.7-4.2,21.7-10.4c-2.5,0-2.5,0-2.5,0c-6,3.5-14.7,6.7-23,6.9c-7,0.2-20.5,0.5-33.4,0.5c-9,0-18,0-25-0.5
		c-9.2-0.5-16.2-2.7-21.2-6.9c-6.5,0-6.5,0-6.5,0c-1.2-1.5-2.5-3.5-3.7-5.2c5,0,5,0,5,0c-2-2.7-3.5-5.7-5-8.9
		c-4.7-12.9,18-14.9,18.2-14.9c-1.5,0-1.5,0-1.5,0c-5,0-5,0-5,0c-13.2,0-13.2,0-13.2,0c-8.5,0-8.5,0-8.5,0S17.1,106.4,36.3,106.4
		 M132.4,95c0.7-1,1.7-2,2.5-3.2l0,0C134.2,93,133.2,94,132.4,95"/>
	<path fill="#AEABAB" d="M19.9,96c6.5,0,6.5,0,6.5,0c-2-1.5-3.7-3.2-5.2-5.2c-5,0-5,0-5,0C17.4,92.5,18.6,94.5,19.9,96 M128.9,96
		c2.5,0,2.5,0,2.5,0c0.3-0.2,0.5-0.7,1-1c0.7-1,1.7-2,2.5-3.2C133.7,93.2,131.4,94.7,128.9,96"/>
	<path fill="#C1BFBF" d="M32.8,57.5c0-1,2-1.7,5.5-2.5c0-0.5,0-0.5,0-0.5c2,0,2,0,2,0c17.7-3.2,60.4-4.2,60.4-4.2
		c-67.9,0-67.9,0-67.9,0C32.8,57.5,32.8,57.5,32.8,57.5"/>
	<path fill="#3C90CD" d="M38.3,55c0.5-0.2,1.2-0.2,2-0.5c-2,0-2,0-2,0C38.3,55,38.3,55,38.3,55"/>
	<path fill="#C1BFBF" d="M32.8,30.4c0-0.7,1-1.5,2.5-2.2c0-0.5,0-0.5,0-0.5c1.7,0,1.7,0,1.7,0c11-3.2,38.9-3.5,38.9-3.5
		c-43.2,0-43.2,0-43.2,0C32.8,30.4,32.8,30.4,32.8,30.4"/>
	<path fill="#3C90CD" d="M35.3,28.2c0.5-0.2,1.2-0.2,1.7-0.5c-1.7,0-1.7,0-1.7,0C35.3,28.2,35.3,28.2,35.3,28.2"/>
</g>
</svg>
