<?xml version="1.0" encoding="utf-8"?>
<!-- Generator: Adobe Illustrator 16.0.0, SVG Export Plug-In . SVG Version: 6.00 Build 0)  -->
<!DOCTYPE svg PUBLIC "-//W3C//DTD SVG 1.1//EN" "http://www.w3.org/Graphics/SVG/1.1/DTD/svg11.dtd">
<svg version="1.1" id="Layer_1" xmlns="http://www.w3.org/2000/svg" xmlns:xlink="http://www.w3.org/1999/xlink" x="0px" y="0px"
	 width="122px" height="115px" viewBox="0 0 122 115" enable-background="new 0 0 122 115" xml:space="preserve">
<g>
	<path fill="#EADA30" d="M37,15.7c-8.8,1-21.8,10-31,2.8c0.5,5.5,3,10.3,6,14.5c-3-1.5-5.8-3.5-9-3.8c0.8,11.5,3,24.8,11.3,34.2
		c7,8,33.3,21.8,42.8,14.8C37,15.7,37,15.7,37,15.7z"/>
	<path fill="#F68E1E" d="M87,100.4c2,0,3.8-0.3,5.5,0c2,0.5,3.8,1.5,5.8,0.8c0.8-0.3,1.3-1,1-1.8c-1-2.5-3.5-3.3-6-3.5
		c-2.8-0.3-5,0-7,2.3C85.5,98.9,86,100.4,87,100.4L87,100.4z"/>
	<path fill="#F68E1E" d="M81.3,106.7c2.8-1.8,4.8-4,7.3-5.8c3.8-2.5,7.5-3.5,11.5-4.8c3.5-1,2.5-5.8-0.8-6
		c-7.8-0.5-19.5,7.8-18.3,16.5C81.3,106.7,81.3,106.7,81.3,106.7L81.3,106.7z"/>
	<path fill="#F68E1E" d="M78.3,87.7c0.8,2.5,2.3,5,3.8,6.8c1.8,2,4.5,4.8,7.3,4.3c1.3-0.3,2-1.8,1.8-2.8c-0.8-2.3-3.5-3-5.3-4.5
		c-0.8-0.8-1.8-1.5-2.5-2.3c-1-1-1.8-2-2.8-2.8C79.5,85.4,77.8,86.4,78.3,87.7L78.3,87.7z"/>
	<path fill="#F68E1E" d="M38,102.9c1.5,1.3,2.8,1.8,4.5,1.8c2.8,0.3,5.3,0.5,7.8,0.8c0.8,0,1.5-0.5,2-1.3c0.5-0.5,0.5-1,0.3-1.8
		s-1-1.5-1.5-1.8c-2.5-0.5-5-0.5-7.5-0.8c-2.3,0-3.8,0.3-5.5,1.8C37.8,101.9,37.8,102.7,38,102.9L38,102.9z"/>
	<path fill="#F68E1E" d="M54.8,111.9c0.3-0.8,0.8-1.5,1-2.3c0.3-1.3,0-2.8-0.5-4c-0.5-2.3-3-5.5-5.8-4.8c-1,0.3-1.8,1-2,2
		c-0.5,1.8,0.5,3,1.8,4c1.3,1.8,2,3.8,3.8,5.3c0-0.3-0.3-0.5-0.5-0.8c0,0,0.3,0.3,0.3,0.5C53,112.9,54.5,112.9,54.8,111.9
		L54.8,111.9z"/>
	<path fill="#F68E1E" d="M62.5,104.9c-1.5-1.8-3.3-3-5.5-4c-1.8-0.8-4.8-1.8-6.3,0c-0.3,0.3-0.3,0.8-0.3,1c1,1.3,3,1.5,4.5,2
		c2,0.5,3.8,1.8,5.5,3C61.8,107.7,63.3,106.2,62.5,104.9L62.5,104.9z"/>
	<path fill="#F68E1E" d="M53,103.7c0.8-2.8,1.3-5.3,2-8c0.8-2.5,2.3-4.8,3-7.5c0.5-3-3.5-6.3-6-3.3c-3.8,4.5-5.3,12.8-4.3,18.8
		C48.5,106.4,52.3,105.9,53,103.7L53,103.7z"/>
	<path fill="#EADA30" d="M16.3,42.7c-7,26.5,17,46.7,40.8,51.2c30.8,5.8,49-18,55.3-45.7c7.5-33.3-22.8-47.5-50.8-43.5
		C37.8,8.2,22.5,19.2,16.3,42.7z"/>
	<path fill="#FFFFFF" d="M56.5,38.2c2.5,15.8,22,21.5,35,14.5c14.8-8,11-32.5-3.5-39c-10.8-4.8-23-1-28.5,9.8
		C56.8,28.9,56,33.9,56.5,38.2z"/>
	<path fill="#100F0D" d="M90.8,37.2c9.3-7.8,3.5-22-8.5-21.3C71.5,16.7,66.8,31.2,76,37.2C80.8,40.2,86.3,40.9,90.8,37.2z"/>
	<path fill="#FFFFFF" d="M88.5,27.2c3.8-0.5,5.3-6,1.5-8c-2.8-1.8-6.5-0.3-6.5,3C83.8,24.9,85.5,27.4,88.5,27.2z"/>
	<path fill="#F68E1E" d="M106.7,25.8c-1.3,2.5-0.5,5.5,0.3,8.3c0.5,1.5,1.8,2.5,3.3,2.5c2.5,0,5-1,7.5-2c1.3-0.8,2-2.5,1.5-3.8
		c-0.5-1.8-1.5-3-2.8-4.3C115.4,25.5,106.7,25.8,106.7,25.8z"/>
	<path fill="#F68E1E" d="M33,37.2c-8.5,0.3-4,16.3,0.8,19.3c-9.5,0.5-14,1.3-7,11.2c6.5,9,32.5,15.8,39,2c3-7-7.5-12.5-12.5-15.5
		C48,50.9,38.3,36.9,33,37.2z"/>
</g>
</svg>
