<?xml version="1.0" encoding="utf-8"?>
<!-- Generator: Adobe Illustrator 16.0.0, SVG Export Plug-In . SVG Version: 6.00 Build 0)  -->
<!DOCTYPE svg PUBLIC "-//W3C//DTD SVG 1.1//EN" "http://www.w3.org/Graphics/SVG/1.1/DTD/svg11.dtd">
<svg version="1.1" id="Layer_1" xmlns="http://www.w3.org/2000/svg" xmlns:xlink="http://www.w3.org/1999/xlink" x="0px" y="0px"
	 width="242px" height="334px" viewBox="0 0 242 334" enable-background="new 0 0 242 334" xml:space="preserve">
<g>
	<path fill="#FBD5B8" d="M68.4,260.1c-0.3,0-0.3,0-0.3,0c-3.3,0-5.8-2.8-5.5-5.8c0.5-24.3,11.8-38.8,20.8-46.8
		c10-8.5,19.8-11.5,20.3-11.5c3-1,6.3,0.8,7,3.8c1,3.3-0.8,6.3-3.8,7.3c-1.5,0.3-31.8,9.8-33,47.5C73.9,257.6,71.4,260.1,68.4,260.1
		z"/>
	<path fill="#FBD5B8" d="M75.6,262.1c-1.8,4.3-3.3,4-7.3,4s-7.3,0-7.3-4s3.3-9,7.3-9S75.6,258.1,75.6,262.1z"/>
	<path fill="#FBD5B8" d="M63.9,270.4c0,0.8-0.5,1.3-1.3,1.3l0,0c-0.5,0-1-0.5-1-1.3c0-8.3,0-8.3,0-8.3c0-0.8,0.5-1.3,1-1.3l0,0
		c0.8,0,1.3,0.5,1.3,1.3C63.9,270.4,63.9,270.4,63.9,270.4z"/>
	<path fill="#FBD5B8" d="M67.1,273.4c0,0.8-0.5,1.3-1,1.3l0,0c-0.5,0-1-0.5-1-1.3c0-8.3,0-8.3,0-8.3c0-0.8,0.5-1.3,1-1.3l0,0
		c0.5,0,1,0.5,1,1.3C67.1,273.4,67.1,273.4,67.1,273.4z"/>
	<path fill="#FBD5B8" d="M70.6,274.4c0,0.8-0.5,1.3-1,1.3l0,0c-0.8,0-1.3-0.5-1.3-1.3c0-8.3,0-8.3,0-8.3c0-0.8,0.5-1.3,1.3-1.3l0,0
		c0.5,0,1,0.5,1,1.3C70.6,274.4,70.6,274.4,70.6,274.4z"/>
	<path fill="#FBD5B8" d="M74.1,272.9c0,0.5-0.5,1-1.3,1l0,0c-0.5,0-1-0.5-1-1c0-8.5,0-8.5,0-8.5c0-0.8,0.5-1.3,1-1.3l0,0
		c0.8,0,1.3,0.5,1.3,1.3C74.1,272.9,74.1,272.9,74.1,272.9z"/>
	<path fill="#FBD5B8" d="M79.1,262.4c0.3,0,0.5,0.8,0,1.5l0,0c-0.3,0.5-0.8,1-1.3,0.8c-5.3-2.5-5.3-2.5-5.3-2.5
		c-0.5,0-0.5-0.8-0.3-1.5l0,0c0.3-0.5,1-1,1.3-0.8C79.1,262.4,79.1,262.4,79.1,262.4z"/>
	<polygon fill="#21673C" points="74.6,256.1 62.1,256.1 62.1,252.1 74.6,252.1 74.6,256.1 	"/>
	<path fill="#2C9645" d="M75.9,254.6c-14.5-0.5-14.5-0.5-14.5-0.5c0.8-25,12-39.8,21.3-47.8c10.3-8.8,23-13,23.5-13
		c1,15.3,1,15.3,1,15.3c-2-7-2-7-2-7c2,7,2,7,2,7C105.9,208.9,77.1,217.6,75.9,254.6z"/>
	<path fill="#FBD5B8" d="M173.9,260.1c-3.3,0-5.8-2.5-5.8-5.5c-1-37.8-31.5-47.3-32.8-47.5c-3-1-4.8-4.3-4-7.3c1-3,4-4.8,7-3.8
		c0.5,0,10.3,3,20.3,11.5c9,8,20.3,22.5,20.8,46.8C179.6,257.4,177.1,260.1,173.9,260.1L173.9,260.1z"/>
	<path fill="#FBD5B8" d="M166.4,262.1c1.8,4.3,3.3,4,7.3,4s7.3,0,7.3-4s-3.3-9-7.3-9S166.4,258.1,166.4,262.1z"/>
	<path fill="#FBD5B8" d="M178.1,270.4c0,0.8,0.5,1.3,1.3,1.3l0,0c0.5,0,1-0.5,1-1.3c0-8.3,0-8.3,0-8.3c0-0.8-0.5-1.3-1-1.3l0,0
		c-0.8,0-1.3,0.5-1.3,1.3C178.1,270.4,178.1,270.4,178.1,270.4z"/>
	<path fill="#FBD5B8" d="M174.9,273.4c0,0.8,0.5,1.3,1,1.3l0,0c0.8,0,1.3-0.5,1.3-1.3c0-8.3,0-8.3,0-8.3c0-0.8-0.5-1.3-1.3-1.3l0,0
		c-0.5,0-1,0.5-1,1.3C174.9,273.4,174.9,273.4,174.9,273.4z"/>
	<path fill="#FBD5B8" d="M171.4,274.4c0,0.8,0.5,1.3,1,1.3l0,0c0.8,0,1.3-0.5,1.3-1.3c0-8.3,0-8.3,0-8.3c0-0.8-0.5-1.3-1.3-1.3l0,0
		c-0.5,0-1,0.5-1,1.3C171.4,274.4,171.4,274.4,171.4,274.4z"/>
	<path fill="#FBD5B8" d="M167.9,272.9c0,0.5,0.5,1,1.3,1l0,0c0.5,0,1-0.5,1-1c0-8.5,0-8.5,0-8.5c0-0.8-0.5-1.3-1-1.3l0,0
		c-0.8,0-1.3,0.5-1.3,1.3C167.9,272.9,167.9,272.9,167.9,272.9z"/>
	<path fill="#FBD5B8" d="M162.9,262.4c-0.3,0-0.5,0.8,0,1.5l0,0c0.3,0.5,0.8,1,1.3,0.8c5.3-2.5,5.3-2.5,5.3-2.5
		c0.5,0,0.5-0.8,0.3-1.5l0,0c-0.3-0.5-1-1-1.3-0.8C162.9,262.4,162.9,262.4,162.9,262.4z"/>
	<polygon fill="#21673C" points="180.1,256.1 167.6,256.1 167.6,252.1 180.1,252.1 180.1,256.1 	"/>
	<path fill="#2C9645" d="M166.1,254.6c14.5-0.5,14.5-0.5,14.5-0.5c-0.8-25-12-39.8-21.3-47.8c-10-8.8-23-13-23.5-13
		c-1,15.3-1,15.3-1,15.3c2-7,2-7,2-7c-2,7-2,7-2,7C136.1,208.9,164.9,217.6,166.1,254.6z"/>
	<polygon fill="#FBD5B8" points="112.9,314.9 99.4,314.9 99.4,255.1 112.9,255.1 112.9,314.9 	"/>
	<path fill="#EC2539" d="M106.1,305.6c-2.5,0-4.8-0.3-6.8-0.8c0,10,0,10,0,10c13.5,0,13.5,0,13.5,0c0-10,0-10,0-10
		C110.9,305.4,108.6,305.6,106.1,305.6z"/>
	<path fill="#E9EAE8" d="M103.4,305.6c-1.5-0.3-2.8-0.5-4-0.8c0,10,0,10,0,10c4,0,4,0,4,0C103.4,305.6,103.4,305.6,103.4,305.6z"/>
	<path fill="#EC2539" d="M112.9,311.9c-1.8,0.8-4,1-6.5,1c-2.8,0-5.3-0.5-7-1.3c-9,1-12.8,10-10.8,12c2.3,2.5,11.8,3.5,18.3,0.3
		c2.5-1,7,0,7-2.8c0-7.8,0-7.8,0-7.8C113.9,312.6,113.4,312.1,112.9,311.9z"/>
	<path fill="#E9EAE8" d="M92.6,314.4c1.8,0.8,3,1.8,4.3,3c0.5-0.8,1.3-1.3,2-1.8c-1.8-1-3.3-1.8-5-2.3
		C93.4,313.9,93.1,314.1,92.6,314.4z"/>
	<path fill="#FFFFFF" d="M93.9,313.4c1.8,0.5,3.3,1.3,5,2.3c0.5-0.5,1-1,1.8-1.3c-1.3-1-2.8-1.8-4.3-2
		C95.6,312.6,94.6,313.1,93.9,313.4z"/>
	<path fill="#BCBCBC" d="M88.1,321.1c-0.3,1,0,2,0.5,2.5c2.3,2.5,11.8,3.5,18.3,0.3c2.5-1,7,0,7-2.8c0-1.5,0-1.5,0-1.5
		c-2,0-5.5,0.8-9.5,2.5C99.4,324.4,93.1,323.1,88.1,321.1z"/>
	<path fill="#D4D4D3" d="M88.1,321.1c3,1.3,6.3,2,9.5,2.3c-0.8-4-3.3-7-6.5-7.5C89.4,317.6,88.4,319.6,88.1,321.1z"/>
	<path fill="#FFFFFF" d="M95.6,318.6c0.3-0.5,0.8-1,1.3-1.3c-1.3-1.3-2.5-2.3-4.3-3c-0.5,0.5-1,1-1.5,1.5
		C92.9,316.1,94.4,317.1,95.6,318.6z"/>
	<path fill="#FFFFFF" d="M110.9,316.4c0,1-0.8,2-1.8,2s-2-1-2-2s1-2,2-2S110.9,315.4,110.9,316.4z"/>
	<path fill="#FFFFFF" d="M88.1,321.1c0-0.3,0.3-0.3,0.3-0.5C88.4,320.9,88.1,320.9,88.1,321.1z"/>
	<path fill="#E9EAE8" d="M99.4,311.6c-1,0.3-2,0.3-3,0.8c1.5,0.3,3,1,4.3,2c0.8-0.8,1.8-1.3,2.8-1.8
		C101.9,312.6,100.4,312.1,99.4,311.6z"/>
	<path fill="#89CC3C" d="M99.4,255.1c0,42.8,0,42.8,0,42.8c2,0.5,4.3,0.8,6.8,0.8s4.8-0.3,6.8-0.8c0-8.8,0-8.8,0-8.8c0-34,0-34,0-34
		C99.4,255.1,99.4,255.1,99.4,255.1z"/>
	<polygon fill="#FBD5B8" points="142.4,314.9 128.9,314.9 128.9,255.1 142.4,255.1 142.4,314.9 	"/>
	<path fill="#EC2539" d="M135.6,305.6c-2.5,0-4.8-0.3-6.8-0.8c0,10,0,10,0,10c13.5,0,13.5,0,13.5,0c0-10,0-10,0-10
		C140.4,305.4,138.1,305.6,135.6,305.6z"/>
	<path fill="#E9EAE8" d="M138.4,314.9c4,0,4,0,4,0c0-10,0-10,0-10c-1.3,0.3-2.5,0.5-4,0.8C138.4,314.9,138.4,314.9,138.4,314.9z"/>
	<path fill="#EC2539" d="M129.1,311.9c1.8,0.8,4,1,6.5,1c2.8,0,5.3-0.5,7-1.3c9,1,12.8,10,10.8,12c-2.3,2.5-11.8,3.5-18.3,0.3
		c-2.5-1-7,0-7-2.8c0-7.8,0-7.8,0-7.8C128.1,312.6,128.6,312.1,129.1,311.9z"/>
	<path fill="#E9EAE8" d="M149.4,314.4c-1.8,0.8-3,1.8-4.3,3c-0.5-0.8-1.3-1.3-1.8-1.8c1.5-1,3-1.8,4.8-2.3
		C148.6,313.9,148.9,314.1,149.4,314.4z"/>
	<path fill="#FFFFFF" d="M148.1,313.4c-1.8,0.5-3.3,1.3-4.8,2.3c-0.8-0.5-1.3-1-2-1.3c1.3-1,2.8-1.8,4.3-2
		C146.4,312.6,147.4,313.1,148.1,313.4z"/>
	<path fill="#BCBCBC" d="M153.9,321.1c0.3,1,0,2-0.5,2.5c-2.3,2.5-11.8,3.5-18.3,0.3c-2.5-1-7,0-7-2.8c0-1.5,0-1.5,0-1.5
		c2,0,5.5,0.8,9.8,2.5C142.6,324.4,148.9,323.1,153.9,321.1z"/>
	<path fill="#D4D4D3" d="M153.9,321.1c-3,1.3-6.3,2-9.5,2.3c0.8-4,3.3-7,6.5-7.5C152.6,317.6,153.6,319.6,153.9,321.1z"/>
	<path fill="#FFFFFF" d="M146.6,318.6c-0.5-0.5-1-1-1.5-1.3c1.3-1.3,2.5-2.3,4.3-3c0.5,0.5,1,1,1.5,1.5
		C149.1,316.1,147.6,317.1,146.6,318.6z"/>
	<path fill="#FFFFFF" d="M131.1,316.4c0,1,0.8,2,1.8,2c1.3,0,2-1,2-2s-0.8-2-2-2C131.9,314.4,131.1,315.4,131.1,316.4z"/>
	<path fill="#FFFFFF" d="M153.9,321.1c0-0.3-0.3-0.3-0.3-0.5C153.6,320.9,153.9,320.9,153.9,321.1z"/>
	<path fill="#E9EAE8" d="M142.6,311.6c1,0.3,2,0.3,3,0.8c-1.5,0.3-3,1-4.3,2c-0.8-0.8-1.8-1.3-2.8-1.8
		C140.1,312.6,141.6,312.1,142.6,311.6z"/>
	<path fill="#89CC3C" d="M128.9,255.1c0,42.8,0,42.8,0,42.8c2,0.5,4.3,0.8,6.8,0.8s5-0.3,6.8-0.8c0-8.8,0-8.8,0-8.8c0-34,0-34,0-34
		C128.9,255.1,128.9,255.1,128.9,255.1z"/>
	<path fill="#21673C" d="M137.6,191.9c0,2.3-7.5,4.3-16.5,4.3c-9.3,0-16.8-2-16.8-4.3s7.5-4.3,16.8-4.3
		C130.1,187.6,137.6,189.6,137.6,191.9z"/>
	<path fill="#9C206A" d="M146.4,230.6c-0.8-9.5-2.3-24-4.5-29.8c-4.5-11.5-12-9-20.8-9c-9,0-16.5-2.5-21,9
		c-2.3,5.8-3.8,20.3-4.5,29.8c-2,33,7.8,31,25.5,31C138.6,261.6,148.4,263.6,146.4,230.6z"/>
	<path fill="#653195" d="M131.9,195.9c0,2.5-4.8,4.8-11,4.8c-6,0-11-2.3-11-4.8c0-2.8,5-4.8,11-4.8
		C127.1,191.1,131.9,193.1,131.9,195.9z"/>
	<path fill="#FBD5B8" d="M129.4,193.6c0,3.3-3.8,6-8.3,6l0,0c-4.8,0-8.5-2.8-8.5-6c0-8.8,0-8.8,0-8.8c0-3.3,3.8-6,8.5-6l0,0
		c4.5,0,8.3,2.8,8.3,6C129.4,193.6,129.4,193.6,129.4,193.6z"/>
	<path fill="#F7AF9C" d="M129.4,184.9c0-3.3-3.8-6-8.3-6c-4.8,0-8.5,2.8-8.5,6c0,4.8,0,4.8,0,4.8c5.8,0,11.3-0.3,16.8-0.3
		C129.4,184.9,129.4,184.9,129.4,184.9z"/>
	<path fill="#FBD5B8" d="M112.6,189.6c0,4,0,4,0,4c0,3.3,3.8,6,8.5,6c4.5,0,8.3-2.8,8.3-6c0-4.3,0-4.3,0-4.3
		C123.9,189.4,118.4,189.6,112.6,189.6z"/>
	<path fill="#89CC3C" d="M119.4,243.6c-8.8,0-16.8-1.3-24-3.3c0.5,22.8,10,21.3,25.8,21.3s25.3,1.8,25.5-22.3
		C138.6,242.1,129.4,243.6,119.4,243.6z"/>
	<path fill="#653195" d="M119.1,246.4c10,0,19.3-1.3,27.3-3.8c0.3-1,0.3-2.3,0.3-3.3c-8,2.8-17.3,4.3-27.3,4.3
		c-8.8,0-16.8-1.3-24-3.3c0,1.3,0.3,2.3,0.3,3.3C102.6,245.4,110.6,246.4,119.1,246.4z"/>
	<path fill="#2C9645" d="M113.6,231.9c0.3-18.8-9.8-33.3-7.5-41.8c-2.5,1.3-4.5,3.8-6.3,8c-2.3,6-4,21-4.5,31c0,0.3,0,0.5,0,0.8
		C99.4,231.9,107.4,234.6,113.6,231.9z"/>
	<path fill="#2C9645" d="M128.4,231.9c6.3,2.8,14.3,0,18.5-2c-0.3-0.3-0.3-0.5-0.3-0.8c-0.5-10-2.3-25-4.5-31
		c-1.8-4.3-3.8-6.8-6.3-8C138.1,198.6,128.1,213.1,128.4,231.9z"/>
	<path fill="#4ABA4E" d="M106.1,190.1c-1,0.5-2,1.3-3,2.5c1.3,8.5,8,21,7.5,36.5c-4.8,2-10.8,0.8-15.3-0.8c0,0.3,0,0.5,0,0.8
		s0,0.5,0,0.8c4,2,12,4.8,18.3,2C113.9,213.1,103.9,198.6,106.1,190.1z"/>
	<path fill="#4ABA4E" d="M146.6,228.4c-4.3,1.5-10.5,2.8-15.3,0.8c-0.5-15.5,6.3-28,7.5-36.5c-1-1.3-2-2-3-2.5
		c2.3,8.5-7.8,23-7.5,41.8c6.3,2.8,14.3,0,18.5-2c-0.3-0.3-0.3-0.5-0.3-0.8S146.6,228.6,146.6,228.4z"/>
	<path fill="#4ABA4E" d="M112.1,223.6c0,1-1,2-2.3,2c-1,0-2-1-2-2c0-1.3,1-2.3,2-2.3C111.1,221.4,112.1,222.4,112.1,223.6z"/>
	<path fill="#4ABA4E" d="M134.1,223.6c0,1-1,2-2,2c-1.3,0-2-1-2-2c0-1.3,0.8-2.3,2-2.3C133.1,221.4,134.1,222.4,134.1,223.6z"/>
	<path fill="#E9EAE8" d="M123.1,216.6c-3,0-5.5-2.5-5.5-5.8c0-1.5,0.8-3,2-4.3c-3,0.8-5.3,3.5-5.3,6.5c0,3.8,3,6.8,6.8,6.8
		c3,0,5.8-2.3,6.3-5.3C126.4,215.9,124.9,216.6,123.1,216.6z"/>
	<path fill="#5A371D" d="M202.1,90.9c0,40.3-36.5,72.8-81,72.8c-44.8,0-81-32.5-81-72.8s36.3-72.8,81-72.8
		C165.6,18.1,202.1,50.6,202.1,90.9z"/>
	<path fill="#FBCBAA" d="M55.6,131.6c0,5.3-4.5,9.8-10,9.8l0,0c-5.3,0-9.8-4.5-9.8-9.8c0-12,0-12,0-12c0-5.5,4.5-9.8,9.8-9.8l0,0
		c5.5,0,10,4.3,10,9.8C55.6,131.6,55.6,131.6,55.6,131.6z"/>
	<path fill="#FBCBAA" d="M206.1,131.6c0,5.3-4.5,9.8-9.8,9.8l0,0c-5.5,0-10-4.5-10-9.8c0-12,0-12,0-12c0-5.5,4.5-9.8,10-9.8l0,0
		c5.3,0,9.8,4.3,9.8,9.8C206.1,131.6,206.1,131.6,206.1,131.6z"/>
	<path fill="#FBD5B8" d="M39.6,135.4c0-11.8,0-11.8,0-11.8c0-5.5,4.3-9.8,9.3-9.8c2.3,0,4.3,0.8,6,2c-1.5-3.5-5-6-9.3-6
		c-5.3,0-9.8,4.3-9.8,9.8c0,12,0,12,0,12c0,3.5,2,6.5,4.8,8.3C39.9,138.6,39.6,137.1,39.6,135.4z"/>
	<path fill="#FBD5B8" d="M196.4,109.9c-4.3,0-7.8,2.5-9.3,6c1.8-1.3,3.8-2,6-2c5,0,9.3,4.3,9.3,9.8c0,11.8,0,11.8,0,11.8
		c0,1.8-0.3,3.3-1,4.5c2.8-1.8,4.8-4.8,4.8-8.3c0-12,0-12,0-12C206.1,114.1,201.6,109.9,196.4,109.9z"/>
	<path fill="#FBD5B8" d="M189.4,126.9c0,31.8-25.5,57.5-57.3,57.5c-22.3,0-22.3,0-22.3,0c-31.8,0-57.3-25.8-57.3-57.5
		c0-43.3,0-43.3,0-43.3c0-31.8,25.5-57.5,57.3-57.5c22.3,0,22.3,0,22.3,0c31.8,0,57.3,25.8,57.3,57.5
		C189.4,126.9,189.4,126.9,189.4,126.9z"/>
	<path fill="#721327" d="M130.4,154.1c0,5.3-4.3,9.5-9.3,9.5c-5.3,0-9.5-4.3-9.5-9.5s4.3-3.3,9.5-3.3
		C126.1,150.9,130.4,148.9,130.4,154.1z"/>
	<path fill="#FFFFFF" d="M130.4,152.9c-0.5-3.8-4.5-2-9.3-2c-5,0-8.8-1.8-9.5,2c2.8,0.5,6,1,9.5,1
		C124.4,153.9,127.6,153.4,130.4,152.9z"/>
	<path fill="#F46C98" d="M121.1,163.6c3.8,0,7.3-2.5,8.8-6c-2.8-0.5-5.8-0.8-8.8-0.8c-3.3,0-6.3,0.3-9,0.8
		C113.6,161.1,117.1,163.6,121.1,163.6z"/>
	<path fill="none" stroke="#F7AF9C" stroke-width="0.5" stroke-miterlimit="10" d="M130.4,154.1c0,5.3-4.3,9.5-9.3,9.5
		c-5.3,0-9.5-4.3-9.5-9.5s4.3-3.3,9.5-3.3C126.1,150.9,130.4,148.9,130.4,154.1L130.4,154.1z"/>
	<path fill="#FBCBAA" d="M132.1,174.6c-22.3,0-22.3,0-22.3,0c-31.8,0-57.3-25.5-57.3-57.3c0,9.5,0,9.5,0,9.5
		c0,31.8,25.5,57.5,57.3,57.5c22.3,0,22.3,0,22.3,0c31.8,0,57.3-25.8,57.3-57.5c0-9.5,0-9.5,0-9.5
		C189.4,149.1,163.9,174.6,132.1,174.6z"/>
	<path fill="#F7AF9C" d="M128.6,141.9c0.8,1.8-0.3,3.3-2,3.8c-3,0.5-3,0.5-3,0.5c-2,0.3-3.5-1-3.3-3c1-12.8,1-12.8,1-12.8
		c0.3-1.8,1-2,1.8-0.3C128.6,141.9,128.6,141.9,128.6,141.9z"/>
	<path fill="#211C1D" d="M94.1,137.9c0,4.8-2.5-6.3-5.8-6.3s-5.8,11-5.8,6.3c0-5,2.5-9,5.8-9S94.1,132.9,94.1,137.9z"/>
	<path fill="#5A371D" d="M92.6,109.9c0,0-0.3-0.3-0.5-0.3c0-0.3-0.3-0.3-0.5-0.5c-0.3,0-0.3,0-0.5-0.3c-0.3,0-0.5-0.3-0.8-0.3
		s-0.5-0.3-0.8-0.3s-0.5-0.3-0.5-0.3c-0.3,0-0.5,0-0.8,0c0.3,0,0,0,0,0l0,0l0,0l0,0l0,0l0,0c-0.3,0-0.3,0-0.3,0c-0.3,0-0.3,0-0.3,0
		l0,0l0,0h-0.3c0,0,0,0.3-0.3,0.3h-0.3c-0.3,0-0.5,0.3-0.8,0.3s-0.5,0.3-0.8,0.3c-0.3,0.3-0.3,0.3-0.5,0.3c-0.3,0.3-0.5,0.3-0.5,0.5
		c-0.3,0-0.5,0.3-0.5,0.3s0-0.3,0-0.8c0,0,0-0.3,0-0.5c0.3-0.3,0.3-0.5,0.3-0.8c0.3-0.5,0.8-1.3,1.5-1.8c0,0,0.3-0.3,0.5-0.3
		c0.3-0.3,0.3-0.3,0.3-0.3c0.5,0,0.5,0,0.5,0c0.3-0.3,0.3-0.3,0.3-0.3c0.3,0,0.3,0,0.3,0c0.3,0,0.3,0,0.3,0c0.3,0,0.3,0,0.3,0l0,0
		l0,0c0.3,0,0.3,0,0.3,0c0.5,0,1,0,1.3,0.3c0.3,0,0.5,0,0.8,0.3c0.3,0,0.3,0.3,0.5,0.3c0.8,0.5,1,1.3,1.5,1.8c0,0.3,0,0.5,0.3,0.8
		c0,0.3,0,0.5,0,0.5C92.6,109.6,92.6,109.9,92.6,109.9z"/>
	<path fill="#211C1D" d="M160.9,137.9c0,4.8-2.8-6.3-5.8-6.3c-3.3,0-5.8,11-5.8,6.3c0-5,2.5-9,5.8-9
		C158.1,128.9,160.9,132.9,160.9,137.9z"/>
	<path fill="#5A371D" d="M159.4,109.9c0,0-0.3-0.3-0.5-0.3c-0.3-0.3-0.5-0.3-0.5-0.5c-0.3,0-0.5,0-0.8-0.3c-0.3,0-0.3-0.3-0.5-0.3
		s-0.5-0.3-0.8-0.3s-0.5-0.3-0.8-0.3s-0.5,0-0.5,0c0.3,0,0,0,0,0l0,0l0,0l0,0l0,0l0,0c-0.3,0-0.3,0-0.3,0c-0.3,0-0.3,0-0.3,0
		c-0.3,0-0.3,0-0.3,0l0,0l0,0l-0.3,0.3c-0.3,0-0.3,0-0.5,0s-0.5,0.3-0.5,0.3c-0.3,0-0.5,0.3-0.8,0.3c-0.3,0.3-0.5,0.3-0.8,0.3
		c0,0.3-0.3,0.3-0.5,0.5c-0.3,0-0.5,0.3-0.5,0.3s0-0.3,0-0.8c0.3,0,0.3-0.3,0.3-0.5s0-0.5,0.3-0.8c0.3-0.5,0.8-1.3,1.3-1.8
		c0.3,0,0.5-0.3,0.8-0.3c0.3-0.3,0.3-0.3,0.3-0.3c0.3,0,0.3,0,0.3,0c0.5-0.3,0.5-0.3,0.5-0.3h0.3c0.3,0,0.3,0,0.3,0
		c0.3,0,0.3,0,0.3,0l0,0l0,0c0.3,0,0.3,0,0.3,0c0.3,0,0.8,0,1.3,0.3c0.3,0,0.5,0,0.8,0.3c0,0,0.3,0.3,0.5,0.3c0.5,0.5,1,1.3,1.3,1.8
		c0.3,0.3,0.3,0.5,0.3,0.8c0.3,0.3,0.3,0.5,0.3,0.5C159.4,109.6,159.4,109.9,159.4,109.9z"/>
	<path fill="#5A371D" d="M41.6,104.6c3,1.5,32.3-33.3,76.8-8.8c11-13.3,7.3-20.3,7.8-26.3c5.5,13,1.5,27-1.5,28.5
		c13.8,8,59,14.5,69.5,0.5c-0.3-72.5-46.5-74-78-74S41.6,39.6,41.6,104.6z"/>
	<polygon fill="#5A371D" points="185.6,161.6 185.6,86.1 198.4,81.4 185.6,161.6 	"/>
	<polygon fill="#5A371D" points="56.4,161.6 56.4,86.1 43.6,81.4 56.4,161.6 	"/>
	<path fill="#F58692" d="M93.9,150.9c0,2.3-3,4-7,4c-3.8,0-6.8-1.8-6.8-4s3-4,6.8-4C90.9,146.9,93.9,148.6,93.9,150.9z"/>
	<path fill="#F58692" d="M161.9,150.9c0,2.3-3,4-6.8,4c-4,0-7-1.8-7-4s3-4,7-4C158.9,146.9,161.9,148.6,161.9,150.9z"/>
	<path fill="#5A371D" d="M58.6,38.4c-8,10-24.5,8-33.5-6.5s-16-1-16-1C5.6-10.1,83.1,7.9,58.6,38.4z"/>
	<path fill="#EC2539" d="M68.6,32.9c1.8,1.8,1.8,5,0,6.8C56.9,51.4,56.9,51.4,56.9,51.4c-1.8,1.8-4.8,1.8-6.8,0l0,0
		c-1.8-2-1.8-5,0-6.8c11.8-11.8,11.8-11.8,11.8-11.8C63.9,31.1,66.9,31.1,68.6,32.9L68.6,32.9z"/>
	<path fill="#5A371D" d="M183.4,38.4c8,10,24.5,8,33.5-6.5s16-1,16-1C236.4-10.1,158.9,7.9,183.4,38.4z"/>
	<path fill="#EC2539" d="M173.4,32.9c-1.8,1.8-1.8,5,0,6.8c11.8,11.8,11.8,11.8,11.8,11.8c1.8,1.8,4.8,1.8,6.8,0l0,0
		c1.8-2,1.8-5,0-6.8c-11.8-11.8-11.8-11.8-11.8-11.8C178.4,31.1,175.1,31.1,173.4,32.9L173.4,32.9z"/>
	<path fill="#724727" d="M128.4,33.9c0,0,1,0.5,2.3,1.8c0.5,0.5,1.5,1.3,2.3,2c0.8,1,1.8,2,2.5,3.3c1,1,2,2.3,3,3.8
		c0.3,0.8,0.8,1.5,1.3,2.3s0.8,1.5,1.3,2.5c0.8,1.8,1.5,3.5,2.3,5.3c0.3,1,0.8,1.8,1,2.8s0.5,2,0.8,3c0.5,2,0.5,3.8,1,5.8
		c0,0.5,0,1,0,1.5s0,1,0.3,1.5c0,1,0,1.8,0,2.8s0,2-0.3,2.8c0,1,0,1.8,0,2.8c-0.3,1.5-0.5,3.3-1,4.5c0,0.8-0.3,1.5-0.5,2.3
		c0,0.5-0.3,1.3-0.5,1.8c-0.3,1.3-0.8,2-1,3c-0.3,0.8-0.5,1.3-0.8,1.8s-0.3,0.5-0.3,0.5s0-0.3,0-0.5c-0.3-0.5-0.3-1.3-0.3-2
		c0-1,0-2,0-3c0-0.3,0-0.8,0-1s0-0.5,0-1s0-1.3,0-2c-0.3-1.3,0-2.8-0.3-4.5c-0.3-0.8-0.3-1.5-0.3-2.5c0-0.8-0.3-1.5-0.3-2.5
		c-0.3-1.5-0.5-3.3-0.8-5.3c-0.3-0.8-0.5-1.8-0.5-2.5c-0.3-0.5-0.3-1-0.3-1.5c-0.5-1.3-0.5-1.3-0.5-1.3c0-0.8-0.3-1.8-0.5-2.5
		c-0.3-1-0.5-1.8-0.8-2.8c-0.3-0.5-0.3-0.8-0.5-1.3c0-0.5-0.3-0.8-0.3-1.3c-0.3-0.8-0.5-1.8-0.8-2.5s-0.8-1.5-1-2.5
		c-0.3-0.8-0.5-1.5-0.8-2.3c-0.8-1.5-1.3-2.8-1.8-4c-0.5-1.5-1.3-2.5-1.8-3.5c-0.5-1.3-0.8-2-1.3-2.8c-0.3-0.8-0.8-1.5-0.8-1.8
		C128.6,34.1,128.4,33.9,128.4,33.9z"/>
	<path fill="#724727" d="M142.4,32.6c0,0,1.3,0.3,3,1c0.8,0.5,1.8,1,3,1.8c0.5,0.5,1.3,0.8,1.8,1.3c0.8,0.5,1.3,1,2,1.5s1.3,1,2,1.8
		c0.5,0.5,1.3,1.3,2,2c0.5,0.8,1.3,1.5,2,2.3c0.5,0.8,1.3,1.5,1.8,2.5c1.3,1.5,2.5,3.5,3.5,5.5c0.3,0.5,0.5,1,0.8,1.5
		c0.8,1.5,0.8,1.5,0.8,1.5c0.5,1,1,2,1.3,3c0.5,1.3,0.8,2.3,1.3,3.3c0.5,1.8,0.5,1.8,0.5,1.8c0.3,0.8,0.3,0.8,0.3,0.8
		c0,0.8,0,0.8,0,0.8c0.3,1,0.5,2.3,0.8,3.3s0.5,2,0.5,3c0.3,2.3,0.3,4.3,0.5,6.3c0,1.8-0.3,3.5-0.3,5.3c0,0.8,0,1.8-0.3,2.5
		c0,0.8,0,1.3-0.3,2c-0.3,1.3-0.5,2.5-0.8,3.5c0,0.8-0.3,1.5-0.5,2c0,0.5,0,0.8,0,0.8s-0.3-0.3-0.3-0.8s-0.3-1.3-0.3-2
		c-0.3-1-0.3-2.3-0.5-3.5c0-0.8-0.3-1.3-0.3-2c-0.3-0.8-0.3-1.5-0.5-2.3c-0.3-1.8-0.5-3.3-0.8-5.3c-0.5-1.8-0.8-3.5-1.3-5.5
		c-0.3-1.8-1-3.8-1.5-5.8c-0.3-0.8-0.3-0.8-0.3-0.8c-0.3-0.8-0.3-0.8-0.3-0.8c-0.5-1.5-0.5-1.5-0.5-1.5c-0.3-0.8-0.5-1.8-1-2.8
		c-0.3-1-0.8-2-1.3-3c-0.3-0.8-0.5-1.8-1-2.8c-0.5-0.8-1-1.8-1.5-2.8c-0.3-0.8-1-1.8-1.3-2.5c-0.5-0.8-1-1.8-1.5-2.5s-1-1.5-1.5-2.3
		s-1-1.5-1.5-2.3c-0.5-0.5-1-1.3-1.5-1.8c-0.5-0.8-1-1.3-1.5-2c-0.3-0.5-0.8-1-1.3-1.5s-0.8-1-1.3-1.3c-0.3-0.5-0.8-0.8-1-1.3
		c-0.8-0.5-1.3-1.3-1.5-1.5C142.6,32.9,142.4,32.6,142.4,32.6z"/>
	<path fill="#724727" d="M163.9,44.6c0,0,0.8,0.3,2.3,0.8c0.8,0.5,1.8,0.8,2.8,1.5c1,0.5,2,1.3,3.3,2.3c1,0.8,2.3,1.8,3.3,3
		c0.8,0.8,1.3,1.3,1.8,2c0.5,0.5,1,1.3,1.8,2c0.5,0.8,1,1.5,1.5,2.3s1,1.5,1.5,2.3c0.8,1.8,1.8,3.5,2.3,5.3c0.5,0.8,0.8,1.8,1,2.5
		c0.3,0.5,0.5,1,0.5,1.5c0.5,1.3,0.5,1.3,0.5,1.3c0.3,1,0.5,1.8,0.8,2.8c0,0.5,0,0.8,0.3,1.3c0,0.5,0,1,0.3,1.3
		c0.3,1.8,0.5,3.5,0.5,5c0.3,1.8,0.3,3.3,0.3,4.8c0,0.5,0,1.3,0,2c0,0.5-0.3,1-0.3,1.8c0,1-0.3,2-0.3,2.8c-0.3,1-0.3,1.5-0.3,2
		c-0.3,0.5-0.3,0.5-0.3,0.5s0,0-0.3-0.5c0-0.5-0.3-1-0.5-1.8s-0.5-1.8-0.8-2.8c-0.3-0.8-0.3-1.3-0.5-1.8c0-0.8-0.3-1.3-0.5-2
		c-0.3-1.3-0.8-2.8-1-4c-0.5-1.5-1-3-1.5-4.8c-0.3-1.5-1-3-1.5-4.8c-0.5-1.3-0.5-1.3-0.5-1.3c-0.5-1-0.5-1-0.5-1
		c-0.3-1-0.5-1.8-1-2.5c-0.3-0.8-0.5-1.5-1-2.5c-0.3-0.8-0.5-1.5-1-2.3c-0.8-1.5-1.5-3-2.3-4.5c-0.5-0.5-0.8-1.3-1.3-2
		c-0.3-0.8-0.8-1.3-1.3-2c-0.8-1.3-1.5-2.3-2.3-3.5c-0.8-1-1.5-2-2.3-2.8c-0.8-1-1.3-1.5-1.8-2.3c-0.5-0.5-1-1-1.3-1.3
		C163.9,44.6,163.9,44.6,163.9,44.6z"/>
	<path fill="#724727" d="M113.9,27.6c1.5,4.3-5.8,11-16.5,15c-10.5,4.3-20.5,4-22.3-0.3c-1.5-4.5,5.8-11.3,16.5-15.3
		C102.1,23.1,112.1,23.4,113.9,27.6z"/>
</g>
</svg>
