<?xml version="1.0" encoding="utf-8"?>
<!-- Generator: Adobe Illustrator 16.0.0, SVG Export Plug-In . SVG Version: 6.00 Build 0)  -->
<!DOCTYPE svg PUBLIC "-//W3C//DTD SVG 1.1//EN" "http://www.w3.org/Graphics/SVG/1.1/DTD/svg11.dtd">
<svg version="1.1" id="Layer_1" xmlns="http://www.w3.org/2000/svg" xmlns:xlink="http://www.w3.org/1999/xlink" x="0px" y="0px"
	 width="329px" height="340px" viewBox="0 0 329 340" enable-background="new 0 0 329 340" xml:space="preserve">
<g>
	<path fill="#F6AD17" d="M141.9,289.8c-1-4.3-0.5-29.5-10.8-24.5c-5,2.5,0.8,15.8,2,20.3c0.8,2.3,10.5,32.8,15.8,30
		S142.9,294.5,141.9,289.8z"/>
	<path fill="#F6AD17" d="M112.2,312.5c-5.8,6-1.8,5.5,3.5,3.3c5-2,10-3,15.8-2.8c-3.3,1.5-25.5,11-19,17.8c2.5,2.5,18.3-8.8,22-10.5
		c-5,3.5-9.3,11.8-7,17.5c0.3,0.3,0.5,0.5,0.8,0.5c6.3-4.3,8.3-13.5,14-18.8c3-2.8,9.5-5.3,5.8-10.3c-3.3-4.3-13-2.3-17.8-2.5
		C123.4,306.8,117.4,307.3,112.2,312.5z"/>
	<path fill="#F6AD17" d="M84.9,285.5c1.3-4.3,12.8-26.5,1.3-26.5c-5.5,0-6,14.5-6.8,19c-0.5,2.5-5.3,34,0.8,33.8
		C86.2,311.8,83.9,290.3,84.9,285.5z"/>
	<path fill="#F6AD17" d="M48.4,293c-7.8,2.8-4,4,1.8,4.5c5.5,0.5,10.3,1.5,15.3,4.5c-3.5,0-27.8-1.3-24.8,7.5
		c1.3,3.5,20.3,0.3,24.3,0.3c-6,1-13.3,6.3-14,12.5c0.3,0.5,0.5,0.8,0.8,1c7.3-1.3,13.3-8.8,20.8-10.8c4-1.3,10.8-0.5,9.5-6.8
		c-1-5.3-10.8-7.8-14.8-9.8C61.2,292.8,55.4,290.5,48.4,293z"/>
	<path fill="#9E1B22" d="M321.2,165c-5.3-0.8-8.8-24-14.3-30.5c-4.8-5.8-9.5-9.5-14.8-11.5c-5-1.8-10.5-2-17.3-0.8
		c-18.8,3.3-36.5,15.8-50.8,28.3c-5,4-17.8,11.3-28.3,18.5c2-2.5,3.8-5.3,5.5-8c5.3-6.5,10-14,14.3-20.5c3.3-5.3,6-9.8,8.5-12.5
		c14-16.3,31.3-29,53-30.8C311.9,94.5,333.7,135.3,321.2,165z"/>
	<path fill="#9E1B22" d="M306.7,203.3c-5.3-0.8-8.8-24-14.3-30.5c-4.3-5-8.3-8.5-13-10.7c-5.3-2.5-11.5-3-19-1.5
		c-11,1.8-21.5,7-31.5,13.2c-6.8,0.5-13.5,1.5-19.8,2.8c-1.8,0.3-4.3,0.5-7,0.5c2.8-4.5,5.3-8.2,7.5-10.7c0-0.3,0.3-0.3,0.5-0.5
		c1.3-1.5,2.8-3,4-4.5c13.3-13.8,29.3-24.3,48.5-25.8c4.3-0.3,8,0,11.8,0.8c0.3,0,0.5,0,0.8,0.3c15.3,3.5,26.8,15.8,32,30.8l0,0
		C311.2,178.8,311.4,191.8,306.7,203.3z"/>
	<path fill="#DF1937" d="M307.2,167.3L307.2,167.3c-0.5,3-1.5,6-2.8,8.7c-4.8-0.5-8-22.2-13.3-28.2c-5-6.3-10-10-16-11.3
		c-0.3-0.3-0.5-0.3-0.8-0.3c-3.8-0.8-8-0.8-12.8,0c-16,2.8-31.3,12.8-43.8,23.3l0,0c-1.3,1-2.5,2-3.5,3s-2.5,2-4.3,3.3
		c1.3-1.5,2.8-3,4-4.5c-5.3,2.5-12.5,6.5-19.8,9.7c0.5-0.7,1-1.2,1.5-2c2-2.5,3.8-5.3,5.5-8c5.3-8,9.8-15.5,13-19.3
		c0.3-0.5,0.8-1,1.3-1.3c12.8-14.5,28.5-25.8,48-27.3c11.3-1,21,3,28.5,9.8C303.9,133.8,309.9,151.3,307.2,167.3z"/>
	<path fill="#DF1937" d="M278.2,232c-4-2.8,4-22.5,2.8-30c-2.3-13-7.3-19.8-19.3-24.3c-10-3.8-21.5-4.5-32.8-4
		c-6.8,0.5-13.5,1.5-19.8,2.8c-1.8,0.3-4.3,0.5-7,0.5c-3.3,0.3-6.8,0.3-10.5,0.5c6.8-4.5,13.5-8.5,18.5-11.7c1.3-1.5,2.8-3,4-4.5
		c1.5-0.8,2.5-1.3,3.8-1.8l0,0c0.5-0.3,1-0.3,1.5-0.5c18.3-6.3,37.8-8.3,55.5,0.3c1.5,1,3,1.8,4.5,2.8
		C302.7,177.8,299.9,215.8,278.2,232z"/>
	<path fill="#DF1937" d="M203.4,178.3c10-13.7,38-7.3,47.8,4.3c8.3,9.8,8,44.5-6.8,48.8c-2-13.5,8.5-32.3-6-42.5
		c-12-8.5-35,6-42.8-10.3c2.8-0.3,6-0.8,8.8-0.3C203.4,178.3,203.4,178.3,203.4,178.3z"/>
	<path fill="#9E1B22" d="M50.7,219c14.5,33.3,46.5,53.3,83.5,47.8c47.7-7.3,68.5-50.3,79.5-91.8c1.3-5.5,2.8-11.5,3-17
		c0,2.3-51.7,3-58.7-3c-15.5-12.8-23.5-34.5-46.3-37.8c-23-3.5-47.5,18.8-59.5,36.3C38.4,173.3,41.7,197.8,50.7,219z"/>
	<path fill="#9E1B22" d="M45.2,85.5c1.5,17.5-15,18.5-26.3,27.5c-9.8,7.8-21.5,23.5-7.5,33.3c27,19.3,40.5-39.5,39.3-55
		C45.2,85.5,45.2,85.5,45.2,85.5z"/>
	<path fill="#9E1B22" d="M41.4,85.5c11.3,13.3-2,23.5-6,37.3c-3.5,12-4.5,31.8,12.8,32c33,0.5,11-55.8,1-67.8
		C41.4,85.5,41.4,85.5,41.4,85.5z"/>
	<path fill="#F6AD17" d="M9.2,82c9.3,0.5,27.8,6,35.3-1.8c7.3-7.8,4.3-24.5-4.5-29.8c-8.8-5-18-8.8-28-4.8c5.3,5,11,11,16.8,16
		C21.7,67.5,12.4,73,9.2,82z"/>
	<path fill="#9E1B22" d="M57.4,48.3c-4-11.3-25.3-7.5-24.8-22.5c10-4,13.5,1,22.5,4.3c1.5-6,2.8-15.8,8.8-19.5
		c7.3-4.3,10.5,1.3,9.3,10.3c3.8-9.3,12-18.3,22.8-17.8c15.3,0.8,4.5,8.8,0.3,16.8c7.5-2.3,18.3-6.3,25-0.3c8.5,8-2,11.5-10,11.8
		c7.3,1.8,24.8,12.3,9.8,18c-7.3,3-27-11.8-26,7.5c-5-7.5-25.3-9.8-33.8-8.5c-0.5,2.8-2.3,2.5-3.8,4.5
		C57.4,48.3,57.4,48.3,57.4,48.3z"/>
	<path fill="#DF1937" d="M46.4,143.5c-0.3,7-1.5,17.3,6.5,20.5c7,2.8,10.5-3.3,12-10c10,10,17.5,11.3,21.3-3.8
		c9.3,6.3,20.5,16.5,19.3-3.5c8.5,6.3,28.8,10.3,18.5-5.8c10.3,11,31.5-12.3,18.3-16.5c-2-0.8-7,3.8-10,1.8c-3.3-1.8-2.8-6.8-2.8-10
		c-0.3-7,1-15.3,0.8-22.8c0-17.3-3-31-17.3-42c-12-9-26.8-13-41.5-10.8c-17,2.5-31.5,11.3-39,26.3c-3,5.8-4.8,13.8-2.8,19.8
		c3.5,10.5,11.8,7.5,18.8,13.5C58.7,108.8,46.9,132,46.4,143.5z"/>
	<path fill="#FFFFFF" d="M60.9,55.3C49.4,65.5,55.4,84.5,68.2,91c14.8,7.5,32.3-9,29.5-24c-2-11.3-11.8-19-23.3-17.5
		C68.4,50,63.9,52.3,60.9,55.3z"/>
	<path fill="#100F0D" d="M80.4,82c11,3.3,19.5-9.3,12.3-18.5c-6.5-8-20.5-4-20.3,6.8C72.4,75.5,74.9,80.5,80.4,82z"/>
	<path fill="#FFFFFF" d="M87.2,74.8c2.5,2.8,7.8,0.8,7.3-3.3c-0.3-3-3.3-5.3-6-3.5C86.4,69.8,85.2,72.3,87.2,74.8z"/>
	<path fill="#DF1937" d="M151.2,158c8-6.5,18.2-16.3,28.5-17.8c4.3,8-7.5,19-12.5,23.5c4.3-1.8,19.3-14.5,23.5-12.8
		c9.3,3.3-6.8,16.8-9.8,20.5c4.5-3,9.5-6.7,14.5-7.5c0.5,15.2-18,27.7-28,36.5c3-1.5,6.5-2.3,10.3-2c1.5,20-43.2,35.8-59,32.5
		c-16.8-3.3-24.3-25.5-20-40.3c2.5-8.8,7-11.8,15-14.5C127.7,171.8,139.2,167.5,151.2,158z"/>
	<path fill="#9E1B22" d="M155.2,249.8c-7.5-5.5-32.8-6.8-38.5,2c-5.5,9,4.3,22.8,8.8,29.8c8,12.8,19.3,10,25.5-1.3
		C155.2,272.3,163.4,255.8,155.2,249.8z"/>
	<path fill="#9E1B22" d="M105.9,236.3c-7.5-5.5-32.8-7-38.3,2c-5.8,9,4.3,22.8,8.5,29.8c8,12.5,19.5,10,25.5-1.3
		C105.9,258.8,114.2,242,105.9,236.3z"/>
</g>
</svg>
