<?xml version="1.0" encoding="utf-8"?>
<!-- Generator: Adobe Illustrator 16.0.0, SVG Export Plug-In . SVG Version: 6.00 Build 0)  -->
<!DOCTYPE svg PUBLIC "-//W3C//DTD SVG 1.1//EN" "http://www.w3.org/Graphics/SVG/1.1/DTD/svg11.dtd">
<svg version="1.1" id="Layer_1" xmlns="http://www.w3.org/2000/svg" xmlns:xlink="http://www.w3.org/1999/xlink" x="0px" y="0px"
	 width="100px" height="180px" viewBox="0 0 100 180" enable-background="new 0 0 100 180" xml:space="preserve">
<g>
	<path fill="#64B33E" d="M48.3,174.2c0,0-0.2,0-0.5,0.3c-15.9,4.2-36.6-12.2-38.8-36C4.8,94.8,17.7,52.1,45.3,17.2
		c11.9-15.2,33.3-18,44-8.7c0,0.3,0.2,0.3,0.2,0.3c10.9,9.5,10.9,24.7,3,36.2c-19.7,27.2-27.4,59.7-22.9,91.9
		C71.9,153.2,64.5,170,48.3,174.2"/>
	<path fill="#56A438" d="M69.7,136.8c-4.5-32.2,3.2-64.7,22.9-91.9c8-11.5,8-26.7-3-36.2c0,0,7.2,14.2-5.5,31.5
		C64.2,67.3,50.8,93.8,55.3,126c2.2,16.5-5,33.5-21.1,37.7c-0.2,0-0.5,0-0.7,0c-4.5,1.2-9.5,0.7-14.4-1c8,9.2,19.2,14.2,28.9,11.7
		c0.2-0.3,0.5-0.3,0.5-0.3C64.5,170,71.9,153.2,69.7,136.8"/>
	<path fill="#56A438" d="M37.6,174.5c0.2,0,0.2,0,0.2,0H37.6L37.6,174.5"/>
	<path fill="#56A438" d="M27.2,88.8c7-51.4,54.7-83.4,55.2-83.6c-0.5-0.7-0.5-0.7-0.5-0.7c-1.2-0.5-2.5-0.7-4-1
		c-9,3.5-42,20-58.7,75.9c-17.2,56.4,6.7,86.4,13.4,93.6c0.7,0.2,1.5,0.5,2.2,0.7c0.7-0.7,0.7-0.7,0.7-0.7
		c-0.2-0.3-33.6-29.7-14.4-93.1C37.9,24.2,70.9,8.4,78.9,5.2c-9.7,7.2-47.5,37.7-53.7,83.4c-7,52.2,12.2,85.1,12.4,85.9h0.2
		c1.7-1,1.7-1,1.7-1C39.4,173.2,20.5,140.5,27.2,88.8"/>
	<path fill="#56A438" d="M39.6,90.3c4.2-46.9,45-83.9,45.5-84.4c-0.5-0.5-0.5-0.5-0.5-0.5c-0.5-0.2-1-0.5-1.5-0.5
		c-4.2,4-41.5,39.9-45.8,85.4c-4,45.9,5,81.9,5.7,84.6c0.5,0,0.7,0,1.2,0c1-0.3,1-0.3,1-0.3C45.1,174.2,35.4,137.8,39.6,90.3"/>
	<path fill="#56A438" d="M47.1,114.3c-2-23.5,6.7-54.4,20.9-73.4c14.7-19.5,20.1-33,20.1-33.2c-2-0.7-2-0.7-2-0.7
		c0,0.2-5.5,13.5-19.6,32.7C52,58.9,42.8,90.6,45.1,114.5c0.2,4.5,0.2,4.5,0.2,4.5c2,22,4.2,48.9,1.5,54.9c1,0.5,1,0.5,1,0.5
		c0.2-0.3,0.5-0.3,0.5-0.3c0.2,0,0.5,0,0.7-0.3c2.5-7.5,0.2-32.7-1.7-54.9C47.1,114.3,47.1,114.3,47.1,114.3"/>
	<path fill="#56A438" d="M78.7,39.9c-9.2,15.2-19.4,32.5-20.9,45.9c-0.7,8-0.2,17.7,0,28.2c0.7,20.7,1.5,44.2-6.2,58.4
		c1,0.2,1,0.2,1,0.2c0.5,0,1-0.2,1.5-0.5c7.2-14.7,6.5-37.7,5.7-58.2c-0.2-10.5-0.5-20.2,0.2-28c1.2-13.2,11.4-30.2,20.4-45.2
		c6.5-10.7,11.9-20.2,13.7-27c-0.2-0.5-0.5-0.7-0.7-1.2c-1-0.3-1-0.3-1-0.3C91.1,18.9,84.9,29.2,78.7,39.9"/>
	<path fill="#91D34D" d="M55.8,14.9C43.1,26.4,30.4,48.1,27.2,60.6c-3.2,12.5,10.2,8.2,13.7-4.2c3.5-12.2,17.4-34,21.9-38.9
		C65.7,14.4,61,10.4,55.8,14.9"/>
	<path fill="#4F9534" d="M47.8,174.5c0.2-0.3,0.5-0.3,0.5-0.3c16.2-4.2,23.6-21,21.4-37.4c-3.2-22.5-0.2-44.7,8.2-65.4l0,0
		c0,0-14.2,24.2-15.2,46.9c-1.2,22.5,4.2,48.2-25.9,55.9C40.6,175.2,44.3,175.2,47.8,174.5"/>
	<path fill="#91D34D" d="M79.9,15.7c-0.5,0.7-1.5,1-2.2,0.5c-1-0.3-1.2-1.2-0.7-2c0.5-0.7,1.5-1,2.2-0.7
		C79.9,13.9,80.2,14.9,79.9,15.7"/>
	<path fill="#91D34D" d="M79.9,38.6c-0.5,0.7-1.5,1-2.2,0.5c-0.7-0.5-1-1.5-0.7-2.2c0.5-0.7,1.5-1,2.2-0.5
		C80.2,36.9,80.4,37.9,79.9,38.6"/>
	<path fill="#91D34D" d="M62,37.1c-0.2,0.7-1.5,1-2.2,0.7c-0.7-0.5-1-1.5-0.5-2.2c0.5-0.7,1.5-1,2.2-0.5
		C62.2,35.4,62.5,36.4,62,37.1"/>
	<path fill="#91D34D" d="M71.9,63.4c-0.5,0.7-1.5,1-2.2,0.7c-0.7-0.5-1-1.5-0.5-2.2c0.5-0.7,1.5-1,2.2-0.5
		C72.2,61.6,72.4,62.6,71.9,63.4"/>
	<path fill="#91D34D" d="M53,63.1c-0.5,0.7-1.5,1-2.2,0.5c-0.7-0.5-1-1.5-0.5-2.2c0.5-0.7,1.5-1,2.2-0.5
		C53.3,61.4,53.5,62.4,53,63.1"/>
	<path fill="#91D34D" d="M24.2,82.3c-0.5,0.7-1.5,1-2.2,0.5c-0.7-0.5-1-1.5-0.5-2.2c0.5-0.7,1.5-1,2.2-0.5
		C24.4,80.6,24.7,81.6,24.2,82.3"/>
	<path fill="#91D34D" d="M41.1,95.6c-0.5,0.7-1.5,1-2.2,0.5c-0.7-0.5-1-1.5-0.5-2.2c0.2-0.7,1.5-1,2.2-0.5S41.6,94.8,41.1,95.6"/>
	<path fill="#91D34D" d="M54.5,114.8c-0.5,0.7-1.5,1-2.2,0.5s-1-1.5-0.5-2.2s1.5-1,2.2-0.5C54.8,113,55,114,54.5,114.8"/>
	<path fill="#91D34D" d="M31.9,115.5c-0.5,0.7-1.5,1-2.2,0.7c-0.7-0.5-1-1.5-0.5-2.2c0.2-0.7,1.5-1,2.2-0.5
		C32.1,113.8,32.4,114.8,31.9,115.5"/>
	<path fill="#91D34D" d="M17,132.3c-0.5,0.7-1.5,1-2.2,0.5c-0.7-0.5-1-1.5-0.5-2.2s1.5-1,2.2-0.5C17.2,130.5,17.5,131.5,17,132.3"/>
	<path fill="#91D34D" d="M28.7,156c-0.5,0.7-1.5,1-2.5,0.7c-0.7-0.5-1-1.5-0.5-2.2c0.5-0.7,1.5-1,2.2-0.5
		C28.7,154.5,28.9,155.2,28.7,156"/>
	<path fill="#91D34D" d="M42.8,148.5c-0.5,0.7-1.5,1-2.2,0.5c-0.7-0.3-1-1.2-0.5-2s1.5-1,2.2-0.7C43.1,146.7,43.3,147.7,42.8,148.5"
		/>
	<path fill="#91D34D" d="M57.3,154.7c-0.5,0.7-1.5,1-2.2,0.7c-0.7-0.5-1-1.5-0.5-2.2c0.2-0.7,1.5-1,2.2-0.5
		C57.5,153,57.8,154,57.3,154.7"/>
</g>
</svg>
