<?xml version="1.0" encoding="utf-8"?>
<!-- Generator: Adobe Illustrator 16.0.0, SVG Export Plug-In . SVG Version: 6.00 Build 0)  -->
<!DOCTYPE svg PUBLIC "-//W3C//DTD SVG 1.1//EN" "http://www.w3.org/Graphics/SVG/1.1/DTD/svg11.dtd">
<svg version="1.1" id="Layer_1" xmlns="http://www.w3.org/2000/svg" xmlns:xlink="http://www.w3.org/1999/xlink" x="0px" y="0px"
	 width="267px" height="322px" viewBox="0 0 267 322" enable-background="new 0 0 267 322" xml:space="preserve">
<g>
	<path fill="#FFD200" d="M61,154.3c0,0-14,21.5-10.3,29.5c3.3,6.8,7.5,10,8.5,11c0.3,0.3,2.3-0.8,4.8-2c3-1.3,7-2.5,11.5-1.8
		c0,0,4.3-11.5,0.5-17C71.5,167.8,64.3,148.8,61,154.3z"/>
	<path fill="#FEC100" d="M55,180L55,180c-1.8,0-3.3,0-4.8-0.3c0.3-6,4.5-14.8,7.8-20.5c-0.3,0.5-4.8,15-1.3,20.7
		C56.3,180,55.5,180,55,180L55,180z M76.8,175.8c0-0.3,0-0.3,0-0.3S76.8,175.5,76.8,175.8L76.8,175.8z"/>
	<path fill="#FFF797" d="M65,160.8c0,0,7,11.5,8.3,13.5s0.5,4.3-0.3,4.3s-9-11.8-8.5-14.8C65,160.8,64,159,65,160.8z"/>
	<path fill="#FFD200" d="M82,145.3c0,0-2.5,21.7,3.8,26c5.5,3.5,10.3,4.3,11.5,4.3c1,0.3,4.3-6.8,11.8-9.5c0,0-1-10.2-6.5-12.7
		C96.3,150.8,82.3,140,82,145.3z"/>
	<path fill="#FEEAC0" d="M85.8,171.3L85.8,171.3L85.8,171.3z M85.8,171.3c0-0.3,0-0.3-0.3-0.3C85.8,171,85.8,171,85.8,171.3z
		 M85.5,171L85.5,171L85.5,171z"/>
	<path fill="#FEC100" d="M86,171.3h-0.3l0,0l0,0l0,0l0,0c0-0.3,0-0.3-0.3-0.3l0,0l0,0c-4-3-4.3-14-4-20.7c0,0.5,2.5,13.2,8,15.7
		c1,0.5,2.3,0.8,3.3,1C90.5,168.5,88.3,170,86,171.3z M104.8,157c0-1-0.3-2.3-1-3c0.8,0.5,1.3,1.3,2,2.3
		C105.5,156.5,105.3,156.8,104.8,157z"/>
	<path fill="#FFF797" d="M88,148.3c0,0,10.5,5.5,12.3,6.5c2,0.8,2.3,2.8,1.5,3c-0.5,0.3-12.3-4.8-13-7C88,148.3,86.5,147.5,88,148.3
		z"/>
	<path fill="#FFD200" d="M94.3,131.3c0,0,7,20.5,14.5,21.5c6.5,0.8,11.3-1,12.3-1.3c1.3-0.3,1-8.3,6.8-14c0,0-5.3-8.8-11.3-8.3
		c-2.3,0-5.3-0.3-8.5-0.3C100.8,128.5,93,128,94.3,131.3z"/>
	<path fill="#FEEAC0" d="M109,152.8h-0.3c0,0,0,0-0.3,0c0.3,0,0.3,0,0.3,0H109L109,152.8z M108.5,152.8L108.5,152.8L108.5,152.8z"/>
	<path fill="#FEC100" d="M109,152.8h-0.3c0,0,0,0-0.3,0l0,0l0,0c-5-1-9.8-10.8-12.3-16.8c0,0.3,7.5,10.5,13.5,10.5c0,0,0,0,0.3,0
		c1.8-0.3,3.3-0.5,4.8-1.3C113,147.8,111,150.3,109,152.8z M121,134.3c-0.3-2.3-1.3-4.3-3.3-5c1.8,0.3,3.3,1,4.5,2.3
		C122,132.3,121.5,133.3,121,134.3z"/>
	<path fill="#FFF797" d="M101,131.3c0,0,12,0,14,0c2.3,0,3.3,1.8,2.8,2.3s-13.3,1.3-15-0.5S99.3,131.3,101,131.3z"/>
	<path fill="#FFD200" d="M174,2.8c0,0-17.3,12.8-15.8,20.3c1.3,6.5,4.3,10.3,5,11.3c0.3,0.3,1.3,0.3,3,0.3c3-0.3,7.8-0.5,12.3,1.8
		c0,0,6.5-7.8,4.5-13.3C180.3,16.8,178.3-0.7,174,2.8z"/>
	<path fill="#FEEAC0" d="M159.3,27c-0.3-1.3-0.8-2.5-1-4l0,0l0,0C158.5,24.5,159,25.8,159.3,27L159.3,27z M158.3,23c0,0,0,0,0-0.3
		C158.3,23,158.3,23,158.3,23z M158.3,22.8L158.3,22.8L158.3,22.8z M158.3,22.8L158.3,22.8L158.3,22.8z"/>
	<path fill="#FEC100" d="M159.3,27c-0.3-1.3-0.8-2.5-1-4l0,0l0,0c0,0,0,0,0-0.3l0,0l0,0l0,0l0,0c-1-5,7-12.8,12-17
		c-0.3,0.5-7.8,10.8-5.8,16.5c0.3,0.3,0.3,0.5,0.5,1C163,24.3,161,25.5,159.3,27z"/>
	<path fill="#FFF797" d="M176.3,9c0,0,3.5,11.3,4.3,13.3c0.5,2-0.8,3.5-1.3,3.3s-5.3-12-4.3-14.3C176.3,9,175.8,7.3,176.3,9z"/>
	<path fill="#FFD200" d="M106.8,89.3c0,0,3.3,21.3,10.5,23.5c6.5,1.8,11.3,1,12.5,0.8c1,0,2.3-7.8,9-12.5c0,0-4-9.5-9.8-10
		C122,90.3,105.8,84,106.8,89.3z"/>
	<path fill="#FEEAC0" d="M125.5,114L125.5,114L125.5,114L125.5,114z M125.5,114c-2,0-4.8-0.3-7.8-1.3
		C120.8,113.8,123.5,114,125.5,114z M117.8,112.8c0,0,0,0-0.3,0C117.8,112.8,117.8,112.8,117.8,112.8z M117.5,112.8L117.5,112.8
		L117.5,112.8z M117.3,112.8L117.3,112.8c0,0,0,0-0.3-0.3C117.3,112.8,117.3,112.8,117.3,112.8L117.3,112.8z M117,112.5L117,112.5
		L117,112.5z"/>
	<path fill="#FEC100" d="M125.5,114L125.5,114c-2,0-4.8-0.3-7.8-1.3l0,0c0,0,0,0-0.3,0l0,0l0,0c0,0,0,0-0.3,0l0,0c0,0,0,0-0.3-0.3
		l0,0l0,0c-4.8-1.8-7.8-12-9.3-18.5c0.3,0.5,6,12,11.8,12.8c0.8,0,1.5,0,2,0c2.8,0,5-0.8,6.8-2.3c-0.8,3-1.5,6-2,9.5
		C126,114,125.8,114,125.5,114L125.5,114z M131.8,92.8c-0.3-0.5-0.8-1.3-1.5-1.5c0.8,0.3,1.3,0.5,1.8,0.8
		C132,92.3,132,92.5,131.8,92.8z"/>
	<path fill="#FFF797" d="M113.5,90.3c0,0,11.5,2.3,13.8,2.5c2,0.3,2.8,2.3,2.3,2.5c-0.5,0.5-13.3-1-14.5-3
		C113.5,90.3,111.8,90,113.5,90.3z"/>
	<path fill="#FFD200" d="M118,70.3c0,0,14.8,12.8,20.8,10c5.5-2.5,8.3-5.8,9-6.8c0.8-0.5-3-6.8-1.3-13.8c0,0-8-4.3-12.5-1.3
		C129,62,114.3,67.3,118,70.3z"/>
	<path fill="#FEC100" d="M136.8,80.5c-4.5,0-11.3-4.5-15.3-7.5c0.3,0.3,6.3,2.8,11.3,2.8c1.5,0,3-0.3,4.3-1c4-2.5,5-5.8,4.8-9.8
		c-0.3-3.5-3-7-6-7c-0.3,0-0.5,0-0.8,0c1-0.3,2-0.5,3-0.5c2,0,3.8,0.5,5.3,1c0,0.5,0,1,0,1.3C143,66.3,140.3,72.5,136.8,80.5z"/>
	<path fill="#FFF797" d="M123,67.3c0,0,9.3-5.3,11-6.3c1.5-1,3.3-0.3,3,0.3c0,0.5-9.5,7-11.8,6.5S121.8,68,123,67.3z"/>
	<path fill="#FFD200" d="M136.5,24.8c0,0-6,18.3-1.3,23c4.3,4,8.5,5.5,9.5,5.8c1,0.5,5-5.3,12.3-6.5c0,0,1-9-3.5-11.8
		C148.3,31.8,137.8,20.3,136.5,24.8z"/>
	<path fill="#FEEAC0" d="M135.3,47.8l-0.3-0.3L135.3,47.8z M135,47.5L135,47.5L135,47.5z"/>
	<path fill="#FEC100" d="M143.8,53.3c-1.5-0.8-5-2.3-8.5-5.5l0,0l0,0l-0.3-0.3l0,0l0,0c-3-3.5-1.3-12.8,0.3-18.5
		c0,0.5-0.3,12,4.3,15c2,1.3,4,2,6,2c0,0,0,0,0.3,0C144.8,48.3,144.3,50.8,143.8,53.3z"/>
	<path fill="#FFF797" d="M141.3,28.3c0,0,8.5,6.5,10,7.8c1.5,1,1.3,2.8,0.8,3c-0.5,0-10-6.3-10.3-8.5
		C141.3,28.3,140.3,27.3,141.3,28.3z"/>
	<path fill="#AB0634" d="M172.8,219c0,0,6.3,19.8-8.3,32.5S150,261,148,269.8c-2.3,10.5,26.8,2,22.8,13.8c-4,11.5-20.8,14-34.5,6
		s-19-26.5-9.5-43.8c9.8-17.3,0-21.3,0-21.3S172,201.5,172.8,219z"/>
	<path fill="#8F031F" d="M168.5,287.3c0,0-0.3-0.3-0.5-0.3c-0.8-0.5-1.5-0.8-2-1c2-7.5-13.5-5.3-22.3-10.5c-9-5.3,1-17.5,11-23.3
		s10.8-21.3,10.8-21.3c-7.3,3.8-27,4.3-33,4.3c0,0,0,0-0.3,0c10.5-1,25-4.3,36.8-13.3l0,0l0,0l0,0l0,0l0,0l0,0c0.3,0,0.3,0,0.3,0
		c0-0.3,0-0.3,0-0.3l0,0l0,0l0,0l0,0l0,0c0.3,0,0.3,0,0.3,0l0,0l0,0c1-1,2.3-2,3.3-2.8c0,0,1.3,4.3,1.3,10.3
		c0,6.8-1.8,15.5-9.5,22.3C150,264.3,150,261,148,269.8c0,0.5,0,0.8,0,1.3c0,8,22.8,2.3,23,10.3c-0.8-0.5-1.5-0.8-2-0.8
		s-1,0.3-1.3,0.5c-1,0.5-1.5,1.8-1.5,3l0,0l0,0l0,0v0.3c0,0.3,0,0.3,0,0.5l0,0c0.3,1.8,1.3,1.8,1.3,1.8c0.3,0,0.3,0,0.3,0
		c0.3,0.3,0.8,0.3,1,0.5C168.8,287,168.8,287.3,168.5,287.3z"/>
	<path fill="#E6E7E8" d="M167.8,286.5c0,0-1.3,0.3-1.5-1.8c0-1.5,0.3-3,1.5-3.8c1.5-1,3.3,0.3,5.8,1.3
		C179.3,284.5,174.3,289,167.8,286.5z"/>
	<path fill="#81031C" d="M168.8,287c-0.3-0.3-0.8-0.3-1-0.5c0,0,0,0-0.3,0c0,0-1,0-1.3-1.8l0,0l0,0c0.3,1.8,1.3,1.8,1.3,1.8
		c0.3,0,0.3,0,0.3,0C168,286.8,168.5,286.8,168.8,287L168.8,287z M166.3,284.3V284l0,0V284.3z M166.3,284L166.3,284L166.3,284z"/>
	<path fill="#CFD1D3" d="M171.3,287.3c-0.8,0-1.5,0-2.5-0.3c-0.3-0.3-0.8-0.3-1-0.5c0,0,0,0-0.3,0c0,0-1,0-1.3-1.8l0,0
		c0-0.3,0-0.3,0-0.5V284c0,0,0.3,0.8,0.5,1.3c0.3,0.3,2,0.5,3.8,0.5c3.3,0,6.8-0.8,2-4c0.5,0.3,0.8,0.3,1,0.5
		c1.8,0.8,2.5,1.5,2.5,2.5C176,286,174,287.3,171.3,287.3z"/>
	<path fill="#FFFFFF" d="M170.3,283.3c1.3,0.3,2.3,0.3,2.3-0.3c0.3-0.5-0.5-1-1.5-1.3c-1-0.5-1.8-0.5-2,0
		C168.8,282,169.3,282.8,170.3,283.3z"/>
	<path fill="#E6E7E8" d="M159.5,292c0,0-1.5,0-1.5-2.8c0-1.8,0.8-3.8,2.3-4.8c2.3-1.3,4.3,0.8,7.8,2.5
		C175.3,290.5,168.3,296,159.5,292z"/>
	<path fill="#9A052F" d="M161.3,292.8c-0.5-0.3-1.3-0.5-1.8-0.8c0,0-1.5,0-1.5-2.8c0-0.3,0-0.8,0-1l0,0c0,0.5,0,0.8,0,1
		c0,2.8,1.5,2.8,1.5,2.8C160,292.3,160.8,292.5,161.3,292.8L161.3,292.8z"/>
	<path fill="#CFD1D3" d="M165.5,293.5c-1.3,0-2.8-0.3-4.3-0.8c-0.5-0.3-1.3-0.5-1.8-0.8c0,0-1.5,0-1.5-2.8c0-0.3,0-0.5,0-1
		c0,0.3,0.3,1.3,0.8,2c0,0.3,3.8,1.3,6.8,1.3c3.5,0,6.3-1.3,1.3-5.3c0.3,0.3,0.8,0.5,1.3,0.8c2,1,3,2.3,3,3.3
		C171,292,168.8,293.5,165.5,293.5z"/>
	<path fill="#FFFFFF" d="M163.5,287.8c1.5,0.8,2.8,0.8,3,0c0.3-0.5-0.8-1.3-2-2c-1-0.5-2.3-0.5-2.5,0
		C161.5,286.3,162.3,287,163.5,287.8z"/>
	<path fill="#E6E7E8" d="M147.8,294.5c0,0-1.5-0.8-0.3-3.8c0.8-2,2.5-4,4.8-4c3-0.3,4.3,2.8,7,6
		C165.5,300.5,155.3,302.8,147.8,294.5z"/>
	<path fill="#9A052F" d="M147.5,290.8c0-0.5,0.3-0.8,0.5-1l0,0C147.8,290,147.5,290.3,147.5,290.8z M148,289.8L148,289.8L148,289.8z
		"/>
	<path fill="#CFD1D3" d="M157.5,299.8c-2.8,0-6.5-1.8-9.8-5.3c0,0-0.8-0.5-0.8-1.8c0-0.5,0-1.3,0.5-2l0,0c0-0.5,0.3-0.8,0.5-1
		c-0.3,0.3-0.5,1.5-0.3,2.3c0,0.8,7,5.5,10.3,5.5c2,0,2.5-1.5,0.3-5.8c0.5,0.3,0.8,0.8,1,1c1.5,1.8,2,3,2,4.3
		C161.3,298.8,159.8,299.8,157.5,299.8z"/>
	<path fill="#FFFFFF" d="M154.3,291.8c1,1.5,2.5,2,3,1.5s0-2-1-3.3c-1-1-2.3-1.8-2.8-1.3C152.8,289,153,290.3,154.3,291.8z"/>
	<path fill="#AB0634" d="M179.5,149.8c0,0-19.5,4-12.3,15.5c7,11.3,13.8,5,22.8,10c0,0,5.3,4,4,15c0,0,2,1,3.5-2.8
		c1.5-3.5,1-6.5,1-6.5s4.3,2,6,8s3,0,2.5-4.5c-0.8-4.3-3.8-8.3-3.8-8.3s5.5,2.3,6.8,5c1.3,2.5,2.5-1.8,0.8-5
		S198.5,151.5,179.5,149.8z"/>
	<path fill="#E888A0" d="M205.8,191.5c-0.5-0.3-1-1-1.3-2.5c-1.8-6-6-8-6-8l0,0c0,0,4.3,2,6,8C205,190.5,205.3,191.3,205.8,191.5z
		 M194.5,190.3L194.5,190.3c0.3,0,0.3,0,0.3,0S194.8,190.3,194.5,190.3z M194.5,190.3c-0.3,0-0.5,0-0.5,0l0,0
		C194,190.3,194.3,190.3,194.5,190.3z M197.5,187.8c0-0.3,0-0.3,0-0.3c1-2.5,1.3-4.8,1.3-6c0,1.3-0.3,3.5-1.3,6
		C197.5,187.5,197.5,187.5,197.5,187.8z"/>
	<path fill="#9B0320" d="M205.8,191.5L205.8,191.5c-0.5-0.3-0.8-1-1.3-2.5c-1.8-6-6-8-6-8l0,0l0,0c0,0,0.3,0.3,0.3,0.5
		c0,1.3-0.3,3.5-1.3,6c0,0,0,0,0,0.3c-1,2.3-2,2.5-2.8,2.5c0,0,0,0-0.3,0l0,0c-0.3,0-0.5,0-0.5,0c0-1.3,0.3-2.5,0.3-3.5
		c0-8.5-4.3-11.5-4.3-11.5c-0.8-0.3-1.5-0.8-2-1c-0.3-2.3-0.8-4.8-1-7C195.8,171.8,204.3,179.5,205.8,191.5z"/>
	<path fill="#D11242" d="M13.8,110.3c0,0-6.5,59.7,30,68.5c36.5,8.5,77.8-27.7,81.8-59.5c4-32,17.5-45.5,17.8-59.5
		c0.5-26.3,20.8-40,39.5-42.3c18.5-2.3,39.5,2,45.3,15.3s5,27.3,15,31.5c10.3,4.8,29.5,21.3,19.5,49.3c-6.5,18-28.3,28.3-59,21.3
		c-25.8-6-36.8-20-36.8-20s30,48.7,19,83.2s-49.3,37.5-62.5,37.5c0,0-16.3,15-36.8,14.3c0,0-8.8,20-2.5,29.3s20.8,12,19,19.8
		c-2.5,11.5-21.8,17.8-39.8,9c-18.3-9-26.8-21.3-13-41.3c13.8-19.8,10.3-33.5,8-43.3C58.3,223.3-25.8,184.8,13.8,110.3z"/>
	<path fill="#FBB034" d="M185.8,198c3.5-11.3,2.8-23.8,0.3-35.8c-0.3,0-23.5-9-31,4c-7.3,13-2.5,37.8-28.8,40.8c0,0,7.8,14-3,28.5
		C136.5,235.5,174.8,232.5,185.8,198z"/>
	<path fill="#820024" d="M240.8,74.3c0,1.5-2.3,2.5-4.8,2.5c-2.8,0-4.8-1-4.8-2.5s2-2.8,4.8-2.8C238.5,71.5,240.8,72.8,240.8,74.3z"
		/>
	<path fill="#D58299" d="M88.3,249.8c-0.3,0-0.5,0-0.8,0C87.8,249.8,88,249.8,88.3,249.8c15.3,0,28-8.5,33-12.5
		C116.5,241,103.5,249.8,88.3,249.8z"/>
	<path fill="#AE0927" d="M81.5,312c0-0.3,0-0.5-0.3-0.8c-0.5-1-1-2-1.5-3C80,308,80,308,80.3,308c0.3,1.8,1.5,2,1.5,2
		c1,0.8,2,1.3,2.8,1.8C83.5,311.8,82.5,311.8,81.5,312z M98,306.5c-0.5-0.5-1.3-1.3-2-1.8c-1.5-1.3-2.8-2.3-3.8-3.3
		c1-0.8,1.8-1.3,2.3-1.8l0,0l0,0l0,0l0,0l0,0c0,0.3,0,0.5-0.3,0.8c0,0.3,0,0.3,0,0.5s0,0.5,0,0.5c0,2.5,1.5,2.8,1.5,2.8
		c1,0.5,2.3,1,3.3,1.5C98.5,306,98.3,306.3,98,306.5z M94.8,298.8c-0.5-4.5-15-17.3-17.8-24c-2.8-7.5,6.3-28.3,6.3-28.3
		c-1.5-6.3-1.5-6.3-1.5-6.3c3.5,1.3,7.5,2,11.3,2c12,0,24-6.8,28.8-15c6.3-11-8.8-38-8.8-38c4.5,3,13.3,17.8,13.3,17.8
		c0.3,0.3,0.3,0.5,0.3,0.8c1,2,3.8,9,1.8,17.8c-0.5,1.3-1,2.8-1.5,4l0,0c0,0-2.5,4.5-3.3,5.5c0,0.3-0.3,0.3-0.3,0.3l0,0
		c0,0.3-0.3,0.5-0.5,0.8s-0.8,0.8-1.5,1.3c-5,4-17.8,12.5-33,12.5c-0.3,0-0.5,0-0.8,0s-0.5,0-1,0l0,0c0,0-4.8,11-4.8,20.5
		c0,3.3,0.5,6.3,2.3,8.8c5.8,8.8,18.8,11.8,19,18.5c-1.5-1.3-2.8-2-4.3-2c-0.3,0-0.8,0-1.3,0.3C96.3,296.3,95.5,297.3,94.8,298.8z"
		/>
	<path fill="#D15A1F" d="M128.3,225.5c2-8.8-0.8-15.8-1.8-17.8C129.8,214.3,129.8,220.3,128.3,225.5z"/>
	<path fill="#E6E7E8" d="M95.8,304.3c0,0-1.8-0.3-1.5-3.3c0.3-2.3,1.3-4.5,3.3-5.3c2.8-1,4.8,1.3,8.5,3.8
		C113.8,304.5,105,309.8,95.8,304.3z"/>
	<path fill="#9D0823" d="M99,305.8c-1-0.5-2.3-1-3.3-1.5c0,0-1.5-0.3-1.5-2.8c0,2.5,1.5,2.8,1.5,2.8C96.8,304.8,98,305.3,99,305.8
		L99,305.8z M94.3,300.5c0.3-0.3,0.3-0.5,0.3-0.8l0,0C94.5,300,94.5,300.3,94.3,300.5z M94.5,299.8L94.5,299.8L94.5,299.8z"/>
	<path fill="#CFD1D3" d="M103.8,306.5c-1.5,0-3-0.3-4.8-0.8c-1-0.5-2.3-1-3.3-1.5c0,0-1.5-0.3-1.5-2.8c0,0,0-0.3,0-0.5s0-0.3,0-0.5
		c0.3-0.3,0.3-0.5,0.3-0.8c0,0.3,0,1.5,0.5,2.3c0,0.8,5.5,2.3,9.3,2.3c3.3,0,4.8-1.3,0.5-5.8c0.3,0.3,0.8,0.5,1.3,1c2,1.3,3,2.8,3,4
		C109,305.3,106.8,306.5,103.8,306.5z"/>
	<path fill="#FFFFFF" d="M100.8,299.8c1.5,1,3.3,1.3,3.5,0.5c0.3-0.5-0.8-1.8-2-2.5s-2.5-1-3-0.5S99.5,299,100.8,299.8z"/>
	<path fill="#E6E7E8" d="M81.8,310c0,0-2.3-0.5-1.5-4.5c0.8-3,2.3-5.8,5-6.5c3.8-1.3,6.3,2.3,10.8,5.8
		C106,312.5,93.8,318.5,81.8,310z"/>
	<path fill="#BD103C" d="M80.3,305.5c0.3-0.5,0.3-1,0.5-1.5l0,0C80.5,304.5,80.5,305,80.3,305.5z M80.8,304L80.8,304L80.8,304z"/>
	<path fill="#CFD1D3" d="M93.5,314.3c-2.8,0-5.8-0.8-9-2.5c-0.8-0.5-1.8-1-2.8-1.8c0,0-1.3-0.3-1.5-2c0-0.3,0-0.8,0-1
		c0-0.5,0-1,0-1.5l0,0c0.3-0.5,0.3-1,0.5-1.5c0,0.3,0,2,0.3,3c0.3,0.8,8.5,4.3,13.3,4.3c3.5,0,5-1.8,0.3-7.8c0.5,0.5,1,0.8,1.5,1.3
		c2.5,2,3.8,4,3.8,5.5C99.8,312.5,97,314.3,93.5,314.3z"/>
	<path fill="#FFFFFF" d="M89.3,304.8c1.8,1.5,3.8,2,4.3,1c0.5-0.8-0.5-2.3-2.3-3.5c-1.5-1.3-3.3-1.8-4-1
		C86.8,301.8,87.3,303.3,89.3,304.8z"/>
	<path fill="#E6E7E8" d="M63.3,310c0,0-2.3-1.5,0.5-5.5c2-3,5.3-5.3,8.5-4.8c4.5,0.5,5.8,5.5,9,11.5C88.3,324.5,72,325.3,63.3,310z"
		/>
	<path fill="#BD103C" d="M63.8,304.5c0.5-0.5,0.8-1,1.3-1.5l0,0C64.5,303.5,64.3,304,63.8,304.5z M65,303L65,303L65,303z"/>
	<path fill="#CFD1D3" d="M78.3,321.3c-4.3,0-10.5-3.5-15-11.3c0,0-0.8-0.5-0.8-2c0-0.8,0.3-2,1.3-3.5l0,0c0.5-0.5,0.8-1,1.3-1.5
		c-0.3,0.5-1,2.3-1.3,3.5S74,318,78.8,318c2.3,0,3.3-2.3,1.5-9c0.3,0.8,0.5,1.5,1,2.3c1.3,2.3,1.8,4.3,1.8,5.8
		C83,319.8,81,321.3,78.3,321.3z"/>
	<path fill="#FFFFFF" d="M73.8,308c1.3,2.5,3.3,4,4.3,3.3s0.5-3-0.5-5c-1.3-2-3-3.5-4-3.3C72.5,303.5,72.5,305.5,73.8,308z"/>
	<path fill="#D58299" d="M76.8,175.8L76.8,175.8c3.3-1.3,6.3-2.8,9.3-4.5l0,0C83,173,80,174.5,76.8,175.8z M105.8,156.3L105.8,156.3
		c1-1.3,2.3-2.3,3.3-3.5l0,0C108,154,106.8,155,105.8,156.3z M122.3,131.5L122.3,131.5c1.8-4.3,2.8-8.3,3.3-12.3
		C125,123.3,124,127.3,122.3,131.5z"/>
	<path fill="#D56B00" d="M56.8,180L56.8,180c5-0.3,10.3-1.3,15.3-2.8l0,0C67,178.8,61.8,179.8,56.8,180z M73.8,176.8L73.8,176.8
		c1-0.3,2-0.8,3-1l0,0C75.8,176,74.8,176.5,73.8,176.8z M76.8,175.8L76.8,175.8L76.8,175.8L76.8,175.8L76.8,175.8z"/>
	<path fill="#D46300" d="M55,180c0.5,0,1.3,0,1.8,0l0,0C56.3,180,55.5,180,55,180z M76.8,175.8L76.8,175.8L76.8,175.8L76.8,175.8
		L76.8,175.8z"/>
	<path fill="#D57E5B" d="M72,177.3L72,177.3c0.5,0,1.3-0.3,1.8-0.5l0,0C73.3,177,72.5,177.3,72,177.3z"/>
	<path fill="#D56B00" d="M92.8,167L92.8,167c4.3-3,8.5-6.2,12-10l0,0C101.3,160.8,97,164,92.8,167z M105.8,156.3L105.8,156.3
		L105.8,156.3L105.8,156.3L105.8,156.3z"/>
	<path fill="#D46300" d="M86,171.3L86,171.3c2.3-1.3,4.5-2.8,6.8-4.3l0,0C90.5,168.5,88.3,170,86,171.3z M104.8,157L104.8,157
		c0.5-0.3,0.8-0.5,1-0.8l0,0C105.5,156.5,105.3,156.8,104.8,157z"/>
	<path fill="#D56B00" d="M114.8,145.3c2.5-3.5,4.5-7.3,6.3-11l0,0C119.3,138,117.3,141.8,114.8,145.3L114.8,145.3z M122.3,131.5
		L122.3,131.5c0,0,0,0,0-0.3l0,0C122.3,131.5,122.3,131.5,122.3,131.5z"/>
	<path fill="#D46300" d="M109,152.8L109,152.8c2-2.5,4-5,5.8-7.5l0,0C113,147.8,111,150.3,109,152.8z M121,134.3L121,134.3
		c0.5-1,1-2,1.3-2.8l0,0C122,132.3,121.5,133.3,121,134.3z"/>
	<path fill="#AE0927" d="M66.5,185c-31.3,0-63-0.5-52.8-74.7c0,0-0.5,4.3-0.5,10.8c0,17.5,3.8,51.2,30.5,57.7l0,0l0,0
		c3.8,0.8,7.5,1.3,11.3,1.3l0,0l0,0l0,0l0,0c0.5,0,1.3,0,1.8,0c5-0.3,10.3-1.3,15.3-2.8c0.5,0,1.3-0.3,1.8-0.5c1-0.3,2-0.8,3-1l0,0
		l0,0c3.3-1.3,6.3-2.8,9.3-4.5l0,0c2.3-1.3,4.5-2.8,6.8-4.3c4.3-3,8.5-6.2,12-10c0.5-0.3,0.8-0.5,1-0.8l0,0c1-1.3,2.3-2.3,3.3-3.5
		l0,0c2-2.5,4-5,5.8-7.5c2.5-3.5,4.5-7.3,6.3-11c0.5-1,1-2,1.3-2.8l0,0c1.8-4.3,2.8-8.3,3.3-12.3l0,0c4-32,17.5-45.5,17.8-59.5
		c0.5-26.3,20.8-40,39.5-42.3c0,0-26.8,8.3-29.8,27.8c-3,19.8-12,38.5-14.3,46c-2,7.5-7.5,41.3-12.5,52C121.3,154.3,98,185,66.5,185
		z"/>
	<polygon fill="#D58299" points="13.8,110.3 13.8,110.3 13.8,110.3 	"/>
	<path fill="#D58299" d="M60,243c1-8-0.5-14.5-1.8-19.8l0,0l0,0C59.5,228.5,61,235,60,243L60,243L60,243z"/>
	<path fill="#AE0927" d="M60,243c1-8-0.5-14.5-1.8-19.8l0,0c0,0-27-12.5-43.3-36.8c18.8,26.3,45.8,27.8,45.8,27.8
		C67.3,228,60.5,242,60,243z"/>
	<path fill="#AE0927" d="M144.8,196.5c2-10.8-0.8-13-17.3-23c-9.3-5.8-4-18-3.3-18c0.3,0,0.3,0.3,0.3,0.8c-1.5,1.8-1.5,4.5,0,8
		c5,12.3,12,7,20,13.5c0,0,4.8,4.8,1.5,15.5c0,0,0.3,0,0.5,0.3c-0.5,1-1,2-1.5,3H144.8z"/>
	<path fill="#D15A1F" d="M145,196.5c0.5-1,1-2,1.5-3c0.3,0,0.3,0,0.5,0C146,195.3,145,196.3,145,196.5z"/>
	<path fill="#AB0634" d="M159.5,161.8c-3.3,2.8-3.3,2.8-3.3,2.8s-4-0.5-8.8-5.5c-4.8-5-5.3-8.3-5.3-8.3s5,1.8,9.5,3.5
		C155.8,156,159.5,161.8,159.5,161.8z"/>
	<path fill="#D11242" d="M138.5,151c0,0-19.8,0.8-14.8,13.2c5,12.3,12.8,7,20.8,13.5c0,0,4.8,4.8,1.5,15.5c0,0,2,1.5,4-2
		c2-3.3,2.3-6.5,2.3-6.5s3.8,2.8,4.5,9s3,0.5,3-4c0.3-4.3-2.3-8.8-2.3-8.8s5,3,6,6c0.8,2.8,2.8-1.3,1.5-4.8S157,156,138.5,151z"/>
	<path fill="#7C0201" d="M169,222L169,222L169,222z M169,222L169,222L169,222z M169,222L169,222L169,222z M169,222
		c0.3,0,0.3,0,0.3,0S169.3,222,169,222z M169.3,221.8L169.3,221.8L169.3,221.8z M169.3,221.8L169.3,221.8L169.3,221.8z M169.3,221.8
		L169.3,221.8L169.3,221.8z M169.5,221.8L169.5,221.8L169.5,221.8z"/>
	<path fill="#DEB408" d="M172.8,219L172.8,219c5.5-5.3,10-12,12.8-20.5C182.8,207,178.3,213.8,172.8,219z"/>
	<path fill="#7C0201" d="M169.5,221.8c1-1,2.3-2,3.3-2.8l0,0C171.8,219.8,170.5,220.8,169.5,221.8z"/>
	<path fill="#DEB408" d="M185.5,198.5c0,0,0,0,0-0.3C185.5,198.5,185.5,198.5,185.5,198.5z M185.5,198.3c0.3,0,0.3,0,0.3,0
		S185.8,198.3,185.5,198.3z M185.8,198.3L185.8,198.3L185.8,198.3z M185.8,198.3c0-0.3,0-0.3,0-0.3S185.8,198,185.8,198.3z
		 M185.8,198L185.8,198L185.8,198c1.8-5.5,2.5-11,2.5-17C188.3,187,187.5,192.5,185.8,198L185.8,198z"/>
	<path fill="#B60D02" d="M123.5,235.3c-0.3,0-0.3,0-0.3,0c1.3-1.5,2.5-3.5,3.5-5.8l0,0C126,231.5,125,233.3,123.5,235.3z M185.8,198
		c3.5-11.3,2.8-23.8,0.3-35.8c0,0-1.5-0.5-3.8-1.2c-4.3-22-15.5-46.3-15.5-46.3s21.5,34.8,21.5,66.2
		C188.3,187,187.5,192.5,185.8,198z"/>
	<path fill="#DB7C02" d="M126.3,235.5c-2.8-0.3-2.8-0.3-2.8-0.3c1.5-2,2.5-3.8,3.3-5.8C164,226,178.5,206,183,183.3
		c1.3-6.3,0.8-14-0.8-22.2c2.3,0.7,3.8,1.2,3.8,1.2c2.5,12,3.3,24.5-0.3,35.8l0,0l0,0l0,0c0,0,0,0,0,0.3l0,0l0,0l0,0c0,0,0,0-0.3,0
		l0,0c0,0.3,0,0.3,0,0.3l0,0c-2.8,8.5-7.3,15.3-12.8,20.5l0,0c-1,0.8-2.3,1.8-3.3,2.8l0,0l0,0c0,0,0,0-0.3,0l0,0l0,0l0,0l0,0l0,0
		c0,0,0,0,0,0.3c0,0,0,0-0.3,0l0,0l0,0l0,0l0,0l0,0l0,0C154.8,233,136.3,235.3,126.3,235.5z"/>
	<path fill="#970601" d="M123.3,235.3L123.3,235.3c0,0,0.3,0,0.3-0.3c0.8-1,3.3-5.5,3.3-5.5l0,0
		C125.8,231.8,124.5,233.8,123.3,235.3z"/>
	<path fill="#D11242" d="M123.3,235.3c-0.5,0-0.5,0-0.5,0S122.8,235.8,123.3,235.3z"/>
	<path fill="#D11242" d="M174.3,121.5c-7.5-6.8-7.5-6.8-7.5-6.8S169,117.8,174.3,121.5z"/>
	<path fill="#FFFFFF" d="M191.8,54.5c0,7,6,12.8,13.3,12.5c7-0.3,12.8-6.3,12.5-13.5c-0.3-7-6.3-12.8-13.3-12.5
		C197,41.3,191.5,47.3,191.8,54.5z"/>
	<path fill="#231F20" d="M198,54.8c0,4,3.5,7,7.5,6.8c3.8,0,7-3.3,6.8-7.3c0-4-3.5-7-7.3-7C201,47.5,197.8,50.8,198,54.8z"/>
	<path fill="#FFFFFF" d="M196.8,49c0,2,1.5,3.5,3.5,3.3c2,0,3.5-1.5,3.3-3.5c0-2-1.5-3.5-3.5-3.3C198,45.5,196.5,47,196.8,49z"/>
	<path fill="#FFFFFF" d="M207.3,59.8c0,1.3,1,2.3,2.3,2.3c1.3-0.3,2.3-1.3,2.3-2.5c-0.3-1.3-1.3-2.3-2.5-2
		C208,57.5,207,58.5,207.3,59.8z"/>
	<path fill="#AB0634" d="M264.5,106.8c0,0-4.8,2.8-9.5,2.5c-1.5,0-4.5,0-8,0c-7,0-15.5,0-18.8-0.8c-4.5-1.3-11.5-3-14.5-4.5
		c-3.3-1.5-5-1.3-7.8-2.8c-2.8-1.8-6.8,1-3.5,6.5c3.5,5.5,0,11,2.3,11.3c2.5,0.3,4,1.3,8.3-2c4.5-3.3,6.5-3.5,6.5-3.5s4,9.3,5.3,7.8
		c1.5-1.3,7-7.3,7-7.3s4.8,8.5,7.5,8c2.5-0.5,7.3-10,7.3-10s4.8,10.8,6,8.5s5.3-8,5.3-8s1.5,2.8,4,5.3
		C264.5,120.3,264.5,106.8,264.5,106.8z"/>
	<path fill="#EFF2EC" d="M207.3,119.3c0,0,3.5-2,6.8-5.5c3.5-3.5,7-6,1.5-9c-5.8-2.8-12-6.3-12.8,0C202,110.8,203.3,122,207.3,119.3
		z"/>
	<path fill="#9A052F" d="M210.3,117.3L210.3,117.3l0.3-0.3L210.3,117.3z M202.8,105c0-0.3,0-0.3,0-0.3S202.8,104.8,202.8,105z"/>
	<path fill="#D8DBD7" d="M210.3,117.3c0.3-0.3,7-6.5,4.8-9.3c-2.3-3-7.3-3.3-8-3.8c-0.3,0-0.5,0-0.8,0c-1.3,0-3.5,0.5-3.8,2
		c0.3-0.5,0.3-1,0.3-1.3s0-0.3,0-0.3l0,0c0.3-2.8,1.5-3.5,3.3-3.5c2.5,0,6,1.8,9.5,3.5c1.8,1,2.8,2,2.8,3c-0.5,0.5-0.8,1.3-0.8,2.3
		v0.3c-0.8,1-2,2.3-3.5,3.5l0,0c-1.3,1.3-2.5,2.5-3.5,3.3L210.3,117.3z M202.5,106.3L202.5,106.3L202.5,106.3z"/>
	<path fill="#FFFFFF" d="M204.8,113.5c-0.3-1.3,0.3-2.3,0.8-2.5c0.8,0,1.5,1,1.8,2.3s-0.3,2.3-1,2.3
		C205.8,115.8,205,114.8,204.8,113.5z"/>
	<path fill="#EFF2EC" d="M224,122.3c0,0,2.5-2.3,5-6c2.3-3.5,4.8-6.5-0.8-7.8c-5.3-1.5-11.3-3.3-10.8,2C218,116,221,125.3,224,122.3
		z"/>
	<path fill="#9A052F" d="M227,118.8c0.8-0.8,1.3-1.5,2-2.5c0.8-1.3,1.8-2.8,2.3-3.8l0,0c-0.5,1-1.5,2.5-2.3,3.8
		C228.3,117.3,227.8,118,227,118.8z M217.5,110.8L217.5,110.8L217.5,110.8z M217.5,110.8L217.5,110.8L217.5,110.8z M217.5,110.5
		L217.5,110.5v-0.3l0,0V110.5L217.5,110.5z"/>
	<path fill="#D8DBD7" d="M226.3,120c0-0.3,4.8-7,2.3-9c-1.8-1.3-4.3-1.5-6-1.5c-0.3,0-0.3,0-0.5,0s-0.3,0-0.5,0s-0.3,0-0.5,0l0,0
		c-1,0-3.5,1-3.3,2.5c0-0.5-0.3-1-0.3-1.3l0,0l0,0l0,0c0-0.3,0-0.3,0-0.3l0,0v-0.3l0,0V110c0-2.3,1.5-3,3.5-3s4.8,0.8,7.3,1.5
		c1.8,0.3,2.8,1,3,1.8c0,0.3-0.3,0.8-0.3,1c0,0.5,0.3,0.8,0.3,1c-0.5,1.3-1.5,2.8-2.3,4c-0.8,1-1.3,1.8-2,2.5
		C226.8,119.3,226.5,119.5,226.3,120z M217.8,112L217.8,112L217.8,112z"/>
	<path fill="#FFFFFF" d="M220.8,117.8c-0.3-1-0.3-2,0.5-2.3c0.5-0.3,1.3,0.5,1.8,1.5c0.3,1,0.3,2-0.5,2.3
		C222,119.5,221.3,118.8,220.8,117.8z"/>
	<path fill="#EFF2EC" d="M239.3,122c0,0,2-2.5,3.3-6c1.5-3.8,3.3-7-1.8-7.3c-5.3-0.3-10.8-1-9.5,4
		C232.8,117.5,237.3,125.3,239.3,122z"/>
	<path fill="#9A052F" d="M231.5,113.3c0-0.3-0.3-0.3-0.3-0.5s0-0.3,0-0.3l0,0c0,0,0,0,0,0.3S231.5,113,231.5,113.3z"/>
	<path fill="#D8DBD7" d="M240.8,119.8c0.3-0.3,3.3-7.3,0.8-8.5c-1-0.5-2-0.8-3-0.8s-2,0.3-2.8,0.3c-0.8,0.3-1.3,0.5-1.5,0.5l0,0l0,0
		c-0.8,0-3,1.3-2.5,2.8c0-0.3-0.3-0.5-0.3-0.8s-0.3-0.3-0.3-0.5s0-0.3,0-0.3l0,0c0-0.5-0.3-0.8-0.3-1.3c0-2.3,2.5-2.8,5.3-2.8
		c1.5,0,3,0.3,4.5,0.3c2.5,0.3,3.3,1,3.3,2.5c0,1.3-0.8,2.8-1.5,4.8l0,0C242,117.3,241.5,118.5,240.8,119.8z M231.8,114L231.8,114
		L231.8,114z"/>
	<path fill="#FFFFFF" d="M235.5,118.8c-0.5-1-0.5-2,0-2.3s1.3,0.3,1.8,1c0.5,1,0.8,1.8,0.3,2.3C237,120,236.3,119.5,235.5,118.8z"/>
	<path fill="#EFF2EC" d="M252.5,120.5c0,0,1.8-2.3,2.8-5.5s2.3-6.3-2.3-6c-4.5,0-9.3-0.3-7.8,4C246.8,117,251,123.5,252.5,120.5z"/>
	<path fill="#D8DBD7" d="M253.8,118.3c0.3,0,2.3-6.3,0-7.3c-0.5-0.3-1.3-0.5-2-0.5c-1.8,0-3.8,0.8-4,0.8c-0.8,0.3-2.8,1.5-2.3,2.8
		c0-0.5-0.3-0.8-0.3-1l0,0c-0.3-0.5-0.3-1-0.3-1.5c0-2.8,4.3-2.5,8-2.5h0.3c2.3,0,3,0.8,3,2c0,1-0.5,2.5-1,4l0,0
		C254.8,116.3,254.3,117.5,253.8,118.3z M245.5,114L245.5,114L245.5,114z"/>
	<path fill="#FFFFFF" d="M249.3,117.8c-0.5-0.8-0.8-1.5-0.3-1.8s1.3,0,1.8,0.8s0.5,1.5,0.3,1.8C250.5,118.8,249.8,118.5,249.3,117.8
		z"/>
	<path fill="#EFF2EC" d="M265,115.8c0,0,0.5-2.3,0.3-5c0-2.8,0.3-5.3-3.3-4c-3.3,1.3-7.3,2.5-5,5.3
		C259.5,114.8,264.5,118.5,265,115.8z"/>
	<path fill="#9A052F" d="M257.3,112c0,0,0,0-0.3,0c-0.3-0.8-0.5-1.3-0.5-1.5c0,0.3,0.3,0.8,0.5,1.5C257.3,112,257.3,112,257.3,112z"
		/>
	<path fill="#D8DBD7" d="M265.3,113.8c0-0.3,0-5.5-2-5.8H263c-2,0-4,2-4.5,2c-0.3,0.3-1.5,2-0.8,2.5c-0.3,0-0.3-0.3-0.5-0.5
		c0,0,0,0-0.3,0c-0.3-0.8-0.5-1.3-0.5-1.5c0-1.8,3-2.8,5.5-3.8c0.8-0.3,1.3-0.5,1.5-0.5c2,0,1.8,2.3,1.8,4.5
		C265.5,111.8,265.3,112.8,265.3,113.8z M257.8,112.5L257.8,112.5L257.8,112.5z"/>
	<path fill="#FFFFFF" d="M261.5,114.5c-0.5-0.3-0.8-1-0.5-1.3c0-0.3,0.8-0.3,1.5,0c0.5,0.5,0.8,1,0.5,1.5
		C262.8,115,262.3,115,261.5,114.5z"/>
</g>
</svg>
