<?xml version="1.0" encoding="utf-8"?>
<!-- Generator: Adobe Illustrator 16.0.0, SVG Export Plug-In . SVG Version: 6.00 Build 0)  -->
<!DOCTYPE svg PUBLIC "-//W3C//DTD SVG 1.1//EN" "http://www.w3.org/Graphics/SVG/1.1/DTD/svg11.dtd">
<svg version="1.1" id="Layer_1" xmlns="http://www.w3.org/2000/svg" xmlns:xlink="http://www.w3.org/1999/xlink" x="0px" y="0px"
	 width="304px" height="261px" viewBox="0 0 304 261" enable-background="new 0 0 304 261" xml:space="preserve">
<g>
	<path fill="#ADE4E9" d="M204.8,113.1c-12.3,5-27,11.5-36.8,6s-11.8-17.8-6.3-27c13-22,41.8-45.8,61.5-62c14-11.5,30-30,50-22.3
		c16,6,26.3,23,27.3,39.5C303.3,86.8,232.3,101.6,204.8,113.1z"/>
	<path fill="#ADE4E9" d="M79.1,112.6c-19.3,2-39.3,4.5-57.5,8.5c-19.8,4.3-23.3,20.5-16.3,39c6.5,18,13.5,25.8,34.3,24.5
		c24.8-1.5,53.5-20.3,74.3-33c9.5-5.8,45.5-24.5,24-38.2c-6-4-19-1-26-1.5C100.1,110.8,90.8,111.6,79.1,112.6z"/>
	<path fill="#72C2C9" d="M104.6,154.3c-11.5,10.8-23.3,22-33,33.3c-10.8,12.5-5,24.5,8.3,33c13,8.5,21.3,10,34-0.8
		c15.3-13,24.8-38.8,32-57c3.3-8.5,17.5-37.7-3-36.5c-6,0.5-12.8,8.7-17.5,11.7C117.3,143.1,111.6,148.1,104.6,154.3z"/>
	<path fill="#72C2C9" d="M212.8,153.1c14.8,5.8,29.8,11.5,44.5,15.5c15.5,4.3,24-6,26-22c2-15,0-23.2-15.3-30
		c-18.5-8.3-45.8-5.8-65.5-4.3c-8.8,0.8-41.5,0.5-31.5,18.5c3,5,13.3,7.7,18.3,10.7C197.3,146.6,204.1,149.6,212.8,153.1z"/>
	<path fill="#FAB50A" d="M211.3,195.1c1.5,6.5,2.8,13.3,3.3,20c1.5,15.8-0.8,30.5-10.5,38.8c-3.8-2.5-5.5-6.5-6.5-11.5
		c1,4.3-3.8,10-8.3,10.5c-0.5,0-1.3,0-1.8-0.3c-7.8-1.8-3-10.3-4-15.8c-0.5-3-1.3-6-2-9.3c-1.8-6.3-4.3-12.8-6.8-19.3
		c-2-5.5-4-10.8-5.8-16c-0.5-2-1.5-4.5-2.8-7.8c-2.3-6-5.5-14.5-8.5-23.3c-2.5-7.3-4.8-15-6.2-22c-2-10-2.5-18.2,0.7-22.2
		c7.8-9.5,23.8-0.8,29.5,7c0,0,0,0,0,0.3c5.8,7.7,10,16.2,14,25.2c2.3,5.3,4.5,10.8,6.8,16.5c0.3,1,0.5,2,1,3
		C206.1,175.8,209.1,185.1,211.3,195.1z"/>
	<path fill="#231F20" d="M195.8,149.6c-3,3.8-7.8,6.5-12.5,8c-4.8,1.8-10,2.5-15,3.8c-5,1-7.3,1.3-10.5,0c-2.5-7.3-4.8-15-6.2-22
		c10.7-1,25.5-7,30.2-15C187.6,132.1,191.8,140.6,195.8,149.6z"/>
	<path fill="#231F20" d="M211.3,195.1c-2.3,2.3-5,4-7.8,5.3c-7,3.5-19.8,7.8-28.8,8c-2-5.5-4-10.8-5.8-16c-0.5-2-1.5-4.5-2.8-7.8
		c7.5-1.3,16-4,19.3-5c5.5-1.8,11.8-4,16-8c0.8-0.8,1.5-1.5,2-2.5C206.1,175.8,209.1,185.1,211.3,195.1z"/>
	<path fill="#231F20" d="M214.6,215.1c1.5,15.8-0.8,30.5-10.5,38.8c-3.8-2.5-5.5-6.5-6.5-11.5c1,4.3-3.8,10-8.3,10.5
		c-0.5,0-1.3,0-1.8-0.3c-7.8-1.8-3-10.3-4-15.8c-0.5-3-1.3-6-2-9.3c5.8-1,11.8-3.3,16-4.5C203.8,220.8,209.3,218.1,214.6,215.1z"/>
	<path fill="#231F20" d="M160.6,40.3c24,6.8,30,36,27.5,59.8c-2.3,24-33,30-54.7,26.3c-11.3-2-24-6.3-32.3-15.8
		c-9.8-11.3-10-27.8-4.5-41.3C107.1,43.6,136.8,33.6,160.6,40.3z"/>
	<path fill="#FFFFFF" d="M97.1,80.8c2.3,13.8,19.3,18.8,30.5,12.8c13-7.3,9.5-28.5-3-34.3c-9.3-4-20-0.8-24.8,8.5
		C97.3,72.6,96.6,77.1,97.1,80.8z"/>
	<path fill="#100F0D" d="M127.1,79.8c8-6.5,2.8-19.3-7.5-18.5c-9.3,0.8-13.5,13.3-5.3,18.5C118.3,82.6,123.1,83.1,127.1,79.8z"/>
	<path fill="#FFFFFF" d="M125.1,71.1c3.3-0.3,4.5-5.3,1.3-7c-2.3-1.3-5.8-0.3-5.5,2.8C120.8,69.1,122.3,71.3,125.1,71.1z"/>
	<path fill="#FFFFFF" d="M142.8,74.1c2,15,20.5,20.3,32.7,13.8c14-7.8,10.3-30.8-3.3-36.8c-10-4.5-21.7-1-26.7,9
		C142.8,65.3,142.1,70.1,142.8,74.1z"/>
	<path fill="#100F0D" d="M174.8,73.1c8.5-7,3.3-20.8-8-19.8c-10,0.8-14.5,14-5.8,19.8C165.3,76.1,170.6,76.8,174.8,73.1z"/>
	<path fill="#FFFFFF" d="M172.6,63.8c3.8-0.5,5-5.8,1.8-7.8c-2.8-1.5-6.3-0.3-6.3,3C168.3,61.6,169.8,64.1,172.6,63.8z"/>
	<path fill="#F04156" d="M129.8,102.3c8.3,0.8,15-0.5,22-6.3c1.2,13-13.3,15.8-21,7.8L129.8,102.3z"/>
	<path fill="#FAB50A" d="M104.1,40.1c5,0.5,8.5,5.5,10.3,10c0.5,1.8,3.5,1,3-1c-2.3-5.8-6.8-11.3-13.3-12c-1-0.3-1.5,0.8-1.5,1.5
		S103.1,39.8,104.1,40.1z"/>
	<path fill="#FAB50A" d="M156.3,29.1c-4.7,3.3-5.7,9.3-5.7,14.3c0,2,3,2,3,0c0-3.8,0.8-9,4.3-11.5C159.3,30.8,157.8,28.1,156.3,29.1
		z"/>
</g>
</svg>
