<?xml version="1.0" encoding="utf-8"?>
<!-- Generator: Adobe Illustrator 16.0.0, SVG Export Plug-In . SVG Version: 6.00 Build 0)  -->
<!DOCTYPE svg PUBLIC "-//W3C//DTD SVG 1.1//EN" "http://www.w3.org/Graphics/SVG/1.1/DTD/svg11.dtd">
<svg version="1.1" id="Layer_1" xmlns="http://www.w3.org/2000/svg" xmlns:xlink="http://www.w3.org/1999/xlink" x="0px" y="0px"
	 width="198px" height="301px" viewBox="0 0 198 301" enable-background="new 0 0 198 301" xml:space="preserve">
<g>
	<path fill="#F26618" d="M51.9,162.6c-16.3,4.3-34.3,33-15.5,44.8c22,13.8,40.8-19.8,25.3-37.3c-2.5-3-7.5-8.3-11.5-7.5
		C51.9,162.6,51.9,162.6,51.9,162.6z"/>
	<path fill="#F26618" d="M77.1,258.3c-0.3,0-0.5,0-0.8,0.3c-3,0.5-6.3,1-9.3,1.8c-0.8,0-8.8,2.5-8.8,2.5c2.3,2.5,9,1.5,10.8,5.3
		c1.3,2.8-2.5,9.3-4,11.8c1.3,0.8,4.5,0,6.3,0c2.5-0.3,4.8-0.3,7.3,0c0,1.8-1,3.8-1.5,5.5c-0.5,2,0,4.3-0.5,5.8
		c3.5,0.3,8.8-5.5,11-7.8c3.5-3,6.8-6.3,9.8-9.8c2-2.3,4.5-5,5.5-8.3c2.8-9-8.3-8.8-14.3-8.3C84.9,257.6,80.9,257.8,77.1,258.3z"/>
	<path fill="#F0531D" d="M96.4,231.8c-0.8,0.3-6,32,0,31.8c5.5-0.3,4.5-28.3,6.8-31.8C96.4,231.8,96.4,231.8,96.4,231.8z"/>
	<path fill="#F26618" d="M120.9,266.1c-0.3,0-0.5,0-0.8,0.3c-3,1.3-6,2.5-8.8,3.8c-0.8,0.3-8,4.3-8.3,4.3c3,2,9.5-0.5,12,3
		c1.8,2.3-0.8,9.5-1.5,12.3c1.3,0.3,4.3-1,6-1.5c2.3-0.5,4.5-1,7-1.3c0.5,1.8-0.3,4-0.3,5.8c0,2,0.8,4,0.5,5.8
		c3.5-0.5,7.5-7.3,9.3-9.8c2.8-4,5.3-7.5,7.5-11.5c1.5-3,3.3-6,3.8-9.3c1-9.5-9.8-7.3-15.5-5.3C128.4,263.6,124.4,264.6,120.9,266.1
		z"/>
	<path fill="#F0531D" d="M134.1,236.1c-0.5,0.5,0.8,32.8,6.5,31.3c5.5-1.5-1.3-28.8,0.3-32.8C134.1,236.1,134.1,236.1,134.1,236.1z"
		/>
	<path fill="#F6AD17" d="M178.9,210.3c-10.8,33-47.8,34-76.5,31.8c-18.3-1.5-42.5-3.8-55.8-18.3c-12.5-13.8-12.3-33.3-5.3-49
		c2.8-6.5,6.8-11.8,11.3-16.5c5.8-6,12.5-11.2,19.5-16.2c7.3-5.3,18-16.5,12.5-25c-1-1.5-2.5-2.8-4.5-4c15.3-4.5,15.3-4.5,15.3-4.5
		c7.3-0.5,12,0.3,15.3,1.8c8,3.8,5.8,13.3,3,26c-1,5-0.8,9.3,0.5,12.5c2.8,6.2,9,10.2,17.3,14.2c4.8,2.5,9.8,6,14.8,7.5
		c7,2.3,14,0.3,20.8,2.8C182.6,179.6,183.6,196.6,178.9,210.3z"/>
	<path fill="#ED8F14" d="M114.1,148.8c-13.3,4.2-27.5,5.2-41.3,6.2c-7,0.5-13.5,1.5-20.3,3.3c5.8-6,12.5-11.2,19.5-16.2
		c7.3-5.3,18-16.5,12.5-25c8.3-3.8,17-6.8,26-6.8c8,3.8,5.8,13.3,3,26C112.6,141.3,112.9,145.6,114.1,148.8z"/>
	<path fill="#F6AD17" d="M18.4,57.8c-6.3,12.5-10.8,34.3-4.5,47.5c9.3,19.3,36.3,26.8,55.8,29.3c26.8,3.3,62.8,3,77-24.8
		c11.5-22,3.5-51.8-11.8-69.5c-15-17.8-39-29-62.5-26.5C49.4,16.1,28.1,38.3,18.4,57.8z"/>
	<path fill="#F6AD17" d="M165.1,179.3c5.5-5,3-12.8,2-18.8c7.3-1.8,11,4.3,11.3,10.8c2.5-3,5.8-6.8,10-7.5c1.8,4-0.3,7.5-3,11
		c5.8,1,8.8,5.3,8,11.3c-10.8-1.8-16.8,0.8-22.3,12C165.1,179.3,165.1,179.3,165.1,179.3z"/>
	<path fill="#F26618" d="M53.9,86.1c8.3-1.8,15,3.8,17.3,10c2,5.8,2,12.8,9.5,16c3.3,1.3,7.8,1.8,10.8,0c2.8-1.3,3.5-6.3,7.3-2.8
		c3.5,14.3-23.3,21-35.5,21.5c-19,0.8-38.5-1.3-53.8-12.3c-11.5-8.5,2.5-10.3,10.3-13c6.5-2.3,1.8-4.3,4.3-8.3c2.8-4.8,9.3-1,14-1.8
		C44.4,94.3,47.1,87.6,53.9,86.1z"/>
	<path fill="#FFFFFF" d="M81.9,57.8c-12,11-5.5,31,7.8,38c15.5,8,34.3-9.5,31.3-25.3c-2-12-12.3-20.3-24.5-18.8
		C90.1,52.6,85.4,54.8,81.9,57.8z"/>
	<path fill="#100F0D" d="M102.6,86.3c11.8,3.3,20.8-10,13-19.5c-6.8-8.5-21.8-4.5-21.5,7C94.1,79.6,96.6,84.6,102.6,86.3z"/>
	<path fill="#FFFFFF" d="M109.9,78.6c2.5,3,8,0.8,7.8-3.3c-0.3-3.3-3.8-5.8-6.5-3.8C108.9,73.1,107.6,76.1,109.9,78.6z"/>
	<path fill="#FFFFFF" d="M31.9,48.1c-9.5,8.5-4.5,24,6,29.5c12,6.3,26.5-7.5,24.3-19.8c-1.8-9.3-9.8-15.8-19.3-14.5
		C38.1,43.8,34.4,45.6,31.9,48.1z"/>
	<path fill="#100F0D" d="M47.9,70.1c9,2.8,16-7.8,10-15c-5.3-6.8-16.8-3.5-16.8,5.3C41.4,64.8,43.4,68.8,47.9,70.1z"/>
	<path fill="#FFFFFF" d="M53.4,64.1c2,2.5,6.3,0.8,6-2.5c-0.3-2.5-2.8-4.5-4.8-3C52.6,59.8,51.9,62.1,53.4,64.1z"/>
	<path fill="#F6AD17" d="M69.1,14.3c4.3-1.5,11-2,14.3-6c1.5-1.8,1-4.8,4.3-4.3c2,0.3,3.3,3.8,2.8,5.5c4.8-3.5,10.8-5.8,12.3,2.5
		c1.3,7.3-8.8,11-14.3,13C69.1,14.3,69.1,14.3,69.1,14.3z"/>
	<path fill="#F26618" d="M144.6,212.6c-7.5,5.5-16.5,4-23.5-1.5c-5.3-4.3-14.5-12.5-13-20.3c2-10.5,10.5-9.5,18.3-10.5
		c9.3-1,18-8.5,24.8-14.8c3.3-3.3,7.3-7.3,8-0.8c0.5,5.3-4.3,7.5-6.8,11.5c4.5-0.3,8.5-2.3,7.8,4c-0.5,3.8-6,7.8-9,9.8
		c3.3-0.3,6.3-1.8,9.5-1.5C162.4,196.3,150.4,208.3,144.6,212.6z"/>
</g>
</svg>
