<?xml version="1.0" encoding="utf-8"?>
<!-- Generator: Adobe Illustrator 16.0.0, SVG Export Plug-In . SVG Version: 6.00 Build 0)  -->
<!DOCTYPE svg PUBLIC "-//W3C//DTD SVG 1.1//EN" "http://www.w3.org/Graphics/SVG/1.1/DTD/svg11.dtd">
<svg version="1.1" id="Layer_1" xmlns="http://www.w3.org/2000/svg" xmlns:xlink="http://www.w3.org/1999/xlink" x="0px" y="0px"
	 width="313px" height="261px" viewBox="0 0 313 261" enable-background="new 0 0 313 261" xml:space="preserve">
<g>
	<path fill="#F8D31A" d="M144.3,242.3c-1.5,5.7-6,10.5-11.2,13.5c-5.5,2.7-11.5,4-17.5,4.7c-5.7,0.8-11.7,0.8-16.7-2
		c-4-2.5-6.5-8.7-3-12c-5.5,3-13-1.2-14.7-7.2c-1.7-6,1-12.7,5.5-17c4.7-4.5,10.5-6.7,16.5-9C144.3,242.3,144.3,242.3,144.3,242.3z"
		/>
	<path fill="#792A76" d="M56.2,129C40.4,116.2,19.7,110.2,0,112.5c1.5,33.5,8,66.4,19,97.9c1.5,3.7,3,7.5,6.2,9.7
		c4.7,3.2,11.2,1.7,16.5-0.5c10.5-4.5,19.7-12.2,26.5-21.5c3-4.5,6-9.5,10.7-11.7C56.2,129,56.2,129,56.2,129z"/>
	<path fill="#F8D31A" d="M269.6,77.3C256.4,42.1,226.7,13.6,191,1.9c-4.2-1.5-9.2-2.7-13.2-1c-4.2,1.7-7,7.7-3.7,11.2
		c-16.7-8.5-36.7-10-54.4-4.2c1.5,2.5,2.7,5,4,7.7c-15.7-3.2-32.7-2-46.4,6.5c-13.7,8.5-22.7,25-19.7,40.7c0.7,4,2.5,8,5.5,10.7
		c3.5,3.2,8.5,4.5,13.2,5.5c33.2,6.7,66.6,13.5,99.8,20.2C269.6,77.3,269.6,77.3,269.6,77.3z"/>
	<path fill="#A23298" d="M253.9,214.9c-49.9,40.5-135.8,52.7-179.7-4.5C51.9,181.7,40.7,143.7,50.4,108
		c17.2-63.7,87.6-88.7,148-75.9c18.5,4,35.4,12.7,50.4,24c41.9,31.5,56.9,85.7,29.2,132.6C271.8,198.9,263.1,207.4,253.9,214.9z"/>
	<path fill="#B145A5" d="M190.2,46.3c9.2,3,17.2,9.2,20.2,18.2c4.5,12.7-4.2,27.2-16.5,33c-6.2,3-13.5,4-20,2.2
		c-11.5-3-19-14.5-20.7-26.2c-0.7-4-0.7-8.2,0.5-12.2C158.5,45.3,175.7,41.6,190.2,46.3z"/>
	<path fill="#B145A5" d="M123.3,69.3c5.2,1.7,10,5.2,11.7,10.5c2.5,7.2-2.5,15.7-9.5,19c-3.5,1.7-7.7,2.5-11.5,1.5
		c-6.5-1.7-11-8.5-12-15.2c-0.5-2.2-0.5-4.7,0.2-7C105.1,68.8,115.1,66.5,123.3,69.3z"/>
	<path fill="#B145A5" d="M82.1,103.7c3.7,1.3,7,3.7,8.2,7.2c1.7,5.2-1.7,11-6.7,13.2c-2.5,1.2-5.2,1.7-8,1
		c-4.5-1.2-7.5-5.7-8.2-10.5c-0.3-1.7-0.3-3.2,0.2-5C69.4,103.5,76.4,101.7,82.1,103.7z"/>
	<path fill="#F8D31A" d="M175.5,112.2c-4-0.3-8.2,0.7-10.7,4c-1.2,1.2-2,3.2-1.5,5c0.3,1,0.7,1.7,1.5,2.7c2.7,3.5,6.2,6.5,10.2,8.7
		c-7.2-1-14.2,6.2-13.5,13.5s9.5,12.5,16.2,9.7c-1.5,2.7-3,5.5-3.2,8.5s0.7,6.5,3.2,8.2c3.2,2.2,8,1,11-1.5
		c2.7-2.7,4.2-6.5,5.7-10.2c3.5-8.5,10.5-20.2,7-29.7C197.9,122.2,184.5,113,175.5,112.2z"/>
	<path fill="#FFFFFF" d="M260.4,79.8c5.5,5,9.5,11.5,10.7,18.5c4,27.7-31.7,53.7-54.9,35c-13.5-11-17-27.7-11-43.7
		c5-13.7,20.7-23.2,34.9-20.2C247.4,70.8,254.6,74.5,260.4,79.8z"/>
	<path fill="#1D1B19" d="M219.2,110.7c-1.9-6.5-0.2-13.7,4-18.7s11.2-7.7,17.7-7c12.2,1.5,27.2,12,24.7,25.7
		c-1.7,10.5-12.7,20-23.2,19.5C231.4,130,222.2,121,219.2,110.7z"/>
	<path fill="#FFFFFF" d="M240.1,109c3.2-1.6,7.5-1,10.2,1.2c2.5,2.5,3.7,6.2,2.7,9.7c-0.7,3.5-3.7,6.2-7.2,7.2
		C235.6,129.5,231.4,113.2,240.1,109z"/>
	<path fill="#792A76" d="M311.3,119c3,4.2,1.7,10.2-1.5,14c-3.2,4-8,6.2-12.7,8.2c3.2,0.7,5.7,3.2,7.7,6c4.7,5.7,10.7,17.2,2.7,23.2
		c-6.5,4.7-12.2-1-17.7-4.7c-9-6.2-15.2-11.5-13-23.5C278.8,132.5,300.8,104.5,311.3,119z"/>
</g>
</svg>
