<?xml version="1.0" encoding="utf-8"?>
<!-- Generator: Adobe Illustrator 16.0.0, SVG Export Plug-In . SVG Version: 6.00 Build 0)  -->
<!DOCTYPE svg PUBLIC "-//W3C//DTD SVG 1.1//EN" "http://www.w3.org/Graphics/SVG/1.1/DTD/svg11.dtd">
<svg version="1.1" id="Layer_1" xmlns="http://www.w3.org/2000/svg" xmlns:xlink="http://www.w3.org/1999/xlink" x="0px" y="0px"
	 width="370px" height="270px" viewBox="0 0 370 270" enable-background="new 0 0 370 270" xml:space="preserve">
<g>
	<path fill="#4E6DBD" d="M171.2,39.4c-10.2,10.2-15,24.4-18.3,38.1c-1.8,7.7-3.6,16-8.1,22.4c-7.6,11.2-21.9,15.5-35.4,18.9
		c-5.6,1.2-12.2,2.5-16.8-1c-1.3-0.7-2-1.7-2.5-3.2c-0.8-2.5,0.8-5.2,1.8-7.7c8.9-17.5,8.6-38.1,3.1-56.8c-2.3-8-5.6-15.7-6.1-23.9
		c-0.8-8.2,2-17.2,8.9-21.7c4.1-2.7,9.2-3.2,14.2-3.7C130-1,148.3,0.5,165.9,5.2c6.9,1.7,15.3,3.2,21.1,7.7
		c5.9,4.7,11.4,10.2,17.6,15c4.3,3.2,9.9,4.7,7.9,11.7C171.2,39.4,171.2,39.4,171.2,39.4z"/>
	<path fill="#EDEC30" d="M112.4,58.3c1.5,5.7,1.5,11.5,1,17.2c-1.3,11-5.6,21.7-11.4,31.2c8.4-1.5,8.4-1.5,8.4-1.5
		c23.1-4.5,23.1-4.5,23.1-4.5c36.6-6.7,36.6-6.7,36.6-6.7c23.1-4.2,23.1-4.2,23.1-4.2c45-8.5,45-8.5,45-8.5
		c21.1-3.7,21.1-3.7,21.1-3.7c8.6-1.7,8.6-1.7,8.6-1.7c-1.5-3.2-3.1-6.5-5.1-9.7c-1-1.7-2.3-3.5-3.6-5.2c-2.5-3.2-5.3-6.5-8.4-9.5
		c-6.9-9.5-15.5-17.7-25.2-24.2c-1-0.5-1.8-1-2.5-1.5c2,1.5,3.3,4.2,3.3,6.7c-0.5-0.2-1-0.5-1.5-0.7c-6.4-6.7-13.7-12.7-21.6-17.5
		c1.8,2.2,3.1,5,4.1,7.7c-0.5-0.2-1.3-0.7-2-1c-1.5-1.5-3.1-3-4.6-4.2l0,0c-4.6-3.7-9.7-6.5-15.3-8.2c0.8,1.5,1.5,3.2,2.3,5
		c-2.5-0.7-4.8-1.7-7.1-2.5c-3.1-1-6.1-1.7-9.2-2.7c-7.1-2-14.2-3.5-21.4-4.7c-3.8-0.7-7.4-1.2-11.2-1.5c-12.5-1-25.2,0-36.6,5.2
		c-0.5,0.2-1,0.5-1.3,0.7c-1.3,0.7-2.5,1.5-3.3,2.5c-2,2.7-2,6.2-1.5,9.2c1,6.7,4.6,13,7.6,18.9C107.6,45.1,110.7,51.6,112.4,58.3z"
		/>
	<path fill="#F7B713" d="M102,106.7c87.5-141.8,166.1-30.9,166.1-30.9c-1.5-3.2-3.1-6.5-5.1-9.7c-4.3-2.5-8.6-4.7-13.2-7
		c-11.2-5.7-22.6-10.2-34.3-13c-13.2-3-26.7-3.7-40.7-1.7c-13,1.7-27.2,7.2-38.7,13.2c-8.6,4.5-16.5,10.5-22.6,18
		C112.2,86.5,107.9,97.2,102,106.7z"/>
	<path fill="#EDEC30" d="M76.6,193.7c0.8,3.2,2,6.2,4.1,8.7c1.8,2.5,4.3,4.5,7.1,6c0.3,0.2,0.8,0.2,1,0.5c10.4,5,23.1,3.5,34.6,2.7
		c1-0.3,1.8-0.3,2.8-0.3c2-0.2,4.1-0.2,6.1-0.2c8.4-0.2,16.8,0,25.2,0.2c4.8,0.3,9.7,0.3,14.2,0c0.3,0,0.3,0,0.3,0l0,0
		c1.5,0,3.1,0,4.6,0c1.3-0.2,2.5-0.2,3.8-0.5c0.5,0,0.8,0,1.3,0c4.3-0.5,8.4-1.5,12.5-3.2c10.7-4.7,18.6-14.7,21.9-25.7
		c-21.4-7.7-21.4-7.7-21.4-7.7c-26.7-9.7-26.7-9.7-26.7-9.7c-45.8-16.7-45.8-16.7-45.8-16.7c-21.1-7.7-21.1-7.7-21.1-7.7
		c-4.6-1.5-4.6-1.5-4.6-1.5c-1,2.2-1,4.7-0.8,7.2c0,0.5,0,1,0,1.5c0.3,1,0.3,2,0.3,3c0,1.2,0,2.7-0.3,4c-1.5,8.2-7.4,15.5-13.2,21.7
		c-2.3,2.2-4.6,4.7-5.9,7.7C75.6,186.9,75.8,190.4,76.6,193.7z"/>
	<path fill="#4E6DBD" d="M164.1,269.2c3.1-1.5,6.4-2.2,9.4-3.5c2.8-1,5.9-2.5,8.6-4c5.9-2.7,11.2-6.2,16-10.2
		c9.9-8.2,18.3-18.5,24.2-29.7c1.5-3.2,2.8-6.5,4.1-9.7c1.3-3.2,1.8-7,3.1-10.2c0.5-1.2,1.5-2.2,3.1-2c1.3,0.2,2.5,1.2,2.3,2.7
		c-0.3,3.2-1.5,6.7-2.5,10c-1.3,3.2-2.5,6.2-4.1,9.5c-3.1,6-6.6,11.7-10.9,17c-8.4,10.2-19.3,18.7-31.5,24.4
		c-3.3,1.5-6.9,3-10.4,4.2c-3.3,1-7.4,2.5-10.9,2.2C164.1,270,163.8,269.5,164.1,269.2L164.1,269.2z"/>
	<path fill="#4E6DBD" d="M169.2,262c1.8-2.2,4.8-3,7.4-4c2.8-1.2,5.3-2.2,7.9-3.5c5.3-2.5,10.2-5.7,14.8-9.2
		c8.9-7.2,16.5-16.2,21.6-26.4c1.3-2.7,2.5-5.7,3.6-8.7c1-3,1.5-6.2,2.5-9.5c1-3,6.1-2.5,5.9,1c-0.5,6-3.1,12.5-5.6,18
		c-2.5,5.7-5.9,11-9.7,15.7c-7.6,9.7-17.6,17.7-28.7,22.9c-3.1,1.5-6.6,3-9.9,3.7c-2.8,0.7-6.9,2-9.7,0.5
		C168.9,262.5,168.9,262,169.2,262L169.2,262z"/>
	<path fill="#4E6DBD" d="M177.6,254c1.8-1.5,3.8-3.2,5.9-4.5c2.3-1.5,4.3-3,6.6-4.5c4.3-2.7,8.4-6,12.2-9.5
		c7.1-6.2,13-13.7,16.8-22.4c1-2,1.8-4.2,2.3-6.7c0.8-2.5,1-5.2,1.8-7.7c1-3.2,5.9-2.5,6.1,1c0,2.2-0.8,5-1.3,7.5
		c-0.8,2.2-1.5,4.5-2.3,6.5c-1.8,4.7-4.3,9-7.1,13c-5.9,8.7-14,16.2-23.1,21.4c-2.8,1.7-5.3,3.2-8.4,4.5c-1.3,0.5-2.5,1-4.1,1.5
		c-1.5,0.7-3.1,0.7-4.6,1.2C177.6,255.3,176.8,254.5,177.6,254L177.6,254z"/>
	<path fill="#4E6DBD" d="M187.2,249.3c5.3-5.5,10.7-10.7,15-17.2c4.1-6.5,7.1-13.2,9.2-20.7c0.5-2,1-4.2,1.3-6.2
		c0.5-2.2,0.5-4.2,1-6.5c0.5-3.2,5.6-2.2,5.6,0.7c0,4-1,8.2-2,12c-1.3,4-2.5,7.7-4.3,11.5c-3.6,7.2-8.4,13.7-14.5,19.2
		c-3.1,3-6.9,5.7-10.9,7.7C187.2,249.8,187,249.5,187.2,249.3L187.2,249.3z"/>
	<path fill="#4E6DBD" d="M196.6,249.8c1.3-2.2,2.5-4,4.1-6c1.3-2,2.5-4,3.6-6.2c2.3-4,4.3-8.5,6.1-13c1.8-4.5,3.3-9,4.6-13.5
		c0.5-2.2,1-4.7,1.5-7c0.3-1.2,0.3-2.2,0.5-3.5c0.3-0.7,0.5-2.2,0.3-3c-1.8-3.2,3.3-6.2,4.8-3c1.3,2.2,0.8,4.5,0.5,6.7
		c-0.5,2-0.8,4-1.3,6c-1,4-2.3,7.7-3.6,11.5c-2.8,7.5-6.6,14.7-10.9,21.2c-2.5,3.7-5.1,8-8.6,10.7
		C197.4,251.5,196.1,250.8,196.6,249.8L196.6,249.8"/>
	<path fill="#4E6DBD" d="M231.7,202.7c1-0.5,1-1.7,0.8-2.7l0,0h-0.3c0-0.5,0-0.7-0.3-1l0,0c-0.3-0.2-0.3-0.5-0.5-0.5
		c-0.5-1-1-1.7-1.8-2.5c-1.3-1.2-2.5-2.2-4.3-3c-0.3,0-0.5-0.3-0.8-0.3c-1-0.2-1.8-0.5-2.5-0.5c-1.8,0-3.6,0.2-5.1,1.2
		c-1.3,1-2.3,2.2-2.5,3.7c-0.3,1,0,2.2,0.5,3.5c0.5,0.7,1,1,1.8,1.2c1,0,2-0.5,2.5-1.2l0,0c0.3-0.5,0.5-1,0.3-1.7
		c-0.5-1.2,0.5-1.7,1.8-1.7c0.5,0,1,0,1.5,0s0.8,0,1,0.2l0,0c0.3,0,0.5,0,0.5,0c1.3,0.5,2.5,1.2,3.6,2c0.3,0,0.5,0,0.5,0.2
		c0.3,0,0.3,0.2,0.5,0.2h0.3c0.3,0.2,0.5,0.5,1,0.7c0.5,0.5,1,0.7,1,1.2c0.3,0.2,0.3,0.5,0.3,0.5
		C231.5,202.7,231.5,202.7,231.7,202.7"/>
	<path fill="#2F4FA1" d="M193.1,250.3c1.3-1.3,3.1-2.2,4.6-3.5c0.3-0.5,0.8-1,1.3-1.2c0.5-0.5,1-1.2,1.5-1.7
		c1.3-1.2,2.3-2.5,3.6-3.7c6.9-8,12.2-17.2,15.8-27.2c1.8-5,3.1-10.2,4.1-15.5l0,0c0.3-1.7,0.5-3.2,0.8-4.7c-1-0.2-1.8-0.5-2.5-0.5
		c-0.3,0.7-0.3,1.2-0.3,2c-0.3,1-0.3,2-0.5,3c-0.5,3-1,6.2-2,9.2c-1.8,6.7-4.3,13.2-7.9,19.4c-0.8,1.2-1.5,2.7-2.3,4.2
		c-1,1.5-2,3-3.1,4.2c-1.5,2.2-3.1,4.2-4.6,6.2c-2.5,3-5.3,5.7-8.1,8.7c0,0.2-0.3,0.2-0.3,0.5c-0.3,0-0.3,0-0.3,0.3
		C192.6,250.3,192.8,250.5,193.1,250.3z"/>
	<path fill="#2F4FA1" d="M190.3,257.8c0.8-0.5,1.5-0.7,2.3-1.2c4.3-2.7,8.6-6,12.5-9.5c12.7-12,22.4-27.9,26.2-45.1
		c0.3-0.5,0.5-1.2,0.5-2c0-0.2,0.3-0.5,0.3-0.5c0-0.3,0-0.3,0-0.5l0,0c-0.3-0.2-0.3-0.5-0.5-0.5c-0.5-1-1-1.7-1.8-2.5
		c-0.3,1-0.3,2-0.5,2.7c0,0.2,0,0.5,0,0.7c0,0.2-0.3,0.2-0.3,0.5c-0.5,2.7-1,5.2-2,8c-1.5,5.5-3.8,11-6.6,16c-2,4.2-4.6,8.2-7.4,12
		c-5.3,7-11.7,13-18.6,18.5l0,0C193.1,255.5,191.6,256.5,190.3,257.8L190.3,257.8L190.3,257.8"/>
	<path fill="#F49819" d="M95.7,154.3c2.3,7.5,7.9,17.5,9.4,20.4c5.6,11,12.7,20.9,20.9,30.2c2,2.2,4.1,4.2,6.4,6.2
		c13.2-0.2,26.5,0.7,39.4,0.2c3.1,0,5.9,0,8.6-0.5c-0.5-0.7-1-1.5-1.8-2.2c-3.1-3.2-7.6-5-11.7-6.7c-19.3-8.5-34.3-23.7-48.8-38.6
		c-3.3-3.2-17.3-20.9-21.9-18c-0.3,0-0.5,0.3-0.5,0.5C95.7,154.3,95.7,154.3,95.7,154.3z"/>
	<path fill="#EDEC30" d="M1.3,159.8c2.4,5.2,8.4,4.2,13.5,3.7c8.9-0.5,17.8-2.5,26.2-5.7c6.1-2.2,12.2-5.2,17.6-8.5
		c5.3-3.2,10.2-6.7,16-8.5c5.6-2,9.2-4,14-0.5c2.8,2,5.1,4.5,7.1,7c4.1,4.7,7.4,10.2,10.7,15.2c12.5,18.9,31.5,34.7,52.9,44.1
		c4.1,2,8.4,3.5,12.7,4.7c3.3,1.2,6.6,2,9.9,2.7c14.2,3.2,29.3,3.5,43,0c5.1-1.2,9.7-3,14.5-5c11.2-5.5,21.6-13.7,30.3-25.4
		c2.8-3.7,5.3-7.7,8.9-11c2.8-2.2,6.4-4,9.7-5.5c4.3-1.5,8.4-2.5,12.7-3.5c13.2-2.2,27-1.7,40.7-2c1.3,0,2.5,0,3.6-0.7
		c0.8-0.5,1.3-1.7,1.3-2.7s-0.5-2-1-2.7c-1.3-1.5-3.3-2.5-5.3-3c-18.1-5.7-39.7-1-55.7-11.2h-0.3c27-1.7,53.7-3.5,80.4-5.2
		c2-0.2,4.3-0.5,5.1-2c1.8-3.2-3.1-6-6.6-6.5c-17.3-3-34.8-6-52.1-9.2c-5.6-1.2-11.4-2.5-16-5.5c-6.1-4.2-9.7-11-13-17.5
		c-3.3-6-6.4-12-10.9-17.2c-3.3-3.7-6.9-6.7-10.7-9.7c-6.9-5-14.2-9-22.4-11.7c-3.8-1.2-7.6-2.2-11.7-3c-4.8-1.2-9.9-2-15-2.5
		c-7.1-0.5-14.5-0.5-21.6,0.2c-4.8,0.5-9.4,1.2-14,2.2c-17.6,4-29.5,11-43.2,21.7c-15.3,12-25.4,26.7-45,32.9
		c-12.7,3.7-22.6,1-33.6-5.5c-2.3-1.5-4.6-2.7-6.9-4c-9.4-5-19.3-9.5-29.5-11.7c-4.6-1.2-9.9-2-13.5,1.2c-3.1,2.5-3.3,7-3.1,11
		c0.8,9.7,0,19.7,0,29.7c0,2.5,0,5,0,7.7C0.8,142.8-1.3,154.3,1.3,159.8z"/>
	<path fill="#F7B713" d="M1.3,159.8c2.4,5.2,8.4,4.2,13.5,3.7c8.9-0.5,17.8-2.5,26.2-5.7c6.1-2.2,12.2-5.2,17.6-8.5
		c5.3-3.2,10.2-6.7,16-8.5c5.6-2,9.2-4,14-0.5c7.6,5.7,12.7,14.2,17.8,22.2c34.6,52.6,120.1,79.5,163.3,21.2c2.8-3.7,5.3-7.7,8.9-11
		c2.8-2.2,6.4-4,9.7-5.5c4.3-1.5,8.4-2.5,12.7-3.5c-1.8,0-3.8,0-5.9,0c-5.6-0.2-11.4-0.5-16.8,1.7c-4.1,2-7.1,5.2-10.7,8.2
		c-25.2,22.4-63.6,30.2-95.1,17.5c-26.7-11-46-34.4-70.7-49.1c-3.8-2.2-7.9-3.5-11.4-5.7c-10.2-5.2-18.1,0.7-27.2,4.7
		c-5.9,2.7-12,5.2-18.3,7.7c-4.1,1.5-7.9,3-12,4.2c-2.8,0.7-5.1,1.7-7.9,2c-3.6,0.3-7.1,0.5-10.7,0.3c-7.9-0.7-9.9-9.2-11.4-15.7
		c-0.8-3.5-1.5-7-2-10.5c0,2.5,0,5,0,7.7C0.8,142.8-1.3,154.3,1.3,159.8z"/>
	<path fill="#1D1B19" d="M228.9,169.5c2.1,15,0.8,30.2-4.1,44.6c5.1-1.2,9.7-3,14.5-5c7.6-13.2,11.2-28.9,8.6-43.9
		c-2-11.2-6.6-21.4-9.2-32.4c-2.5-11-2.5-23.2,4.3-32.2c3.3-4.5,7.9-7.7,11.2-12.2c2.5-3.2,4.3-7,5.1-11c0.8-3,0.8-6,0.8-9
		c0-2.5-0.3-5-0.8-7.7c-2.5-3.2-5.3-6.5-8.4-9.5c-6.9-9.5-15.5-17.7-25.2-24.2c2.3,9.5,8.4,20.4,11.4,28.7c0.3,0.5,0.3,0.7,0.5,1
		c2.3,6.7,4.3,13.7,2.3,20.4c-0.5,1.5-1,2.7-1.8,4c-2.8,4.7-7.4,8.7-10.7,13.2c-7.6,10.5-8.6,24.4-6.6,37.1
		C222.8,144.3,227.2,156.8,228.9,169.5z"/>
	<path fill="#1D1B19" d="M157.5,211.4c2.2-4.2,9.7,0.3,14.2,0c0.3,0,0.3,0,0.3,0l0,0c3.3,1.2,6.6,2,9.9,2.7c-0.3-1-0.3-2.2-0.3-3.2
		c-0.5-6-0.8-12,0.5-14.5c4.1-7.5,9.4-14.5,12.5-22.2c0-0.3,0.3-0.5,0.3-1c3.3-8.7,3.8-18.5,1.3-27.4c-1.8-7.2-5.6-14-7.6-21.2
		c-2.5-9.7-1.8-20.2,2-29.4c1-2,1.8-3.7,2.8-5.5c4.8-8.5,11.7-16.2,15-25.4c1.8-4,2.5-8.5,2.8-13c0.5-7.2-1-14.7-3.6-21.7
		c-1.8-4.7-4.1-9-6.6-13l0,0c-4.6-3.7-9.7-6.5-15.3-8.2c0.8,1.5,1.5,3.2,2.3,5c-2.5-0.7-4.8-1.7-7.1-2.5c-3.1-1-6.1-1.7-9.2-2.7
		c3.3,6.5,8.4,13.2,10.7,17.5c4.1,8,8.4,16.5,7.1,25.2c0,0.2,0,0.5,0,0.7c-1.5,8-7.1,14.5-11.2,21.4c-3.3,5.7-5.3,12.2-7.4,18.5
		c-0.3,0.7-0.5,1.7-0.8,2.5c-1.8,5.7-3.3,11.5-3.6,17.5c-0.5,7,0.5,13.7,1,20.4c1.3,11,1.3,21.7,0.3,32.7c-1,14.2-4.1,28.4-8.6,42.1
		C158.7,208.4,158.2,209.9,157.5,211.4z"/>
	<path fill="#FFFFFF" d="M208.1,94.5c1.6-6.5,4.6-12.5,10.4-16.7c9.4-7,23.9-9.2,34.6-3.7c14.5,7.5,17.8,26.2,8.9,38.9
		c-9.2,13.2-29.5,22.9-44.5,12.5C207.3,118.4,205.3,105.7,208.1,94.5z"/>
	<path fill="#1D1B19" d="M256.9,95.9c4.6,13.6-7.1,27.9-21.4,25.7c-9.2-1.5-14.8-7.7-16-16.7c-0.8-5.5,1.5-11,5.6-14.7
		c8.1-7.5,22.1-8.2,29.3,1.2C255.4,93,256.4,94.5,256.9,95.9z"/>
	<path fill="#FFFFFF" d="M233.8,90.5c2.8,0.2,6.1,2.7,6.9,6.2c0.5,1.2,0,2.5-0.5,3.5c-1.5,2.5-4.8,3.7-7.9,3
		c-2.8-0.7-4.8-3.5-4.8-6.5C227.2,92,230.5,90.2,233.8,90.5z"/>
	<path fill="#4E6DBD" d="M170.2,193.9c1.2,2.9,5.6,4.5,7.6,2.2c-1,3.2-0.8,7.5,1.8,10c2.5,2.5,7.9,1.5,8.6-1.7
		c-0.5,3.5,3.8,6.7,7.4,5.7c3.1-0.7,5.3-4.2,5.3-7.5c0.3,1.2,1.8,2,3.1,1.7c1.8,0,3.1-1.7,3.6-3.2c0.5-1.7,0.5-3.5,0.3-5.2
		c-0.5-6-1-11.7-1.5-17.7c-0.3-2.7-0.3-5.5,0.5-8.2c0.5-2.5,1.8-5,3.8-7.2c-5.6-9-5.6-9-5.6-9c-3.8,1-7.4,2.7-10.7,4.5
		c-10.2,6-18.1,15.7-22.9,26.4C170.2,187.7,168.9,190.9,170.2,193.9z"/>
	<path fill="#2F4FA1" d="M199.9,198.9c-0.8-2.7-1-5.7-1.3-8.5c0-3,0-6,0.5-9c0.8-6,2.5-12,5.3-17.5c1-1.7,3.8,0,2.8,1.5
		c-2.8,5.2-5.1,10.5-6.1,16.2c-0.5,2.7-1,5.7-1,8.5c-0.3,3,0.3,5.7,0.3,8.7C200.7,199.2,199.9,199.4,199.9,198.9L199.9,198.9"/>
	<path fill="#2F4FA1" d="M188.5,197.9c0.8-6.7,1.8-13.5,4.3-19.9c2.3-6.2,5.9-12.5,10.7-17.2c1-1,2.8,0.5,1.8,1.7
		c-2.3,2.5-4.6,5-6.4,7.7c-1.8,3-3.1,6-4.3,9c-2.5,6-4.6,12.5-5.3,18.7C189.3,198.4,188.5,198.4,188.5,197.9L188.5,197.9"/>
	<path fill="#2F4FA1" d="M178.6,192.2c1.5-3.2,2.5-6.5,4.1-9.7c1.5-3,3.6-6,5.3-8.7c3.8-5.5,8.6-11,14.2-14.7
		c1.3-0.7,3.1,1.2,1.8,2.5c-2.5,2-5.3,4-7.6,6.2c-2.3,2.5-4.6,5-6.4,7.7c-2,2.7-3.8,5.5-5.6,8.2c-1.8,2.7-3.8,5.7-5.3,8.7
		C178.8,192.7,178.6,192.4,178.6,192.2L178.6,192.2"/>
	<path fill="#1D1B19" d="M197.9,160.5c-0.3,0.5-1.5,2.7-0.8,3.2c0.8,0.7,2,0.7,3.1,0.2c-0.5,1-0.3,2.2,0.5,3c0.8,0.7,2,1,3.1,0.5
		c-0.5,1,0.3,2,1,2.5c0.8,0.2,1.3,0.2,2,0c0.5-2.5,1.8-5,3.8-7.2c-5.6-9-5.6-9-5.6-9c-3.8,1-7.4,2.7-10.7,4.5
		C194.4,159.8,195.1,160.8,197.9,160.5"/>
	<path fill="#EC9312" d="M205.5,108.9c0,0-14.8,43.1,15.5,67.6C221.1,176.5,199.4,153.3,205.5,108.9"/>
	<path fill="#4E6DBD" d="M1.3,159.8c2.4,5.2,8.4,4.2,13.5,3.7c8.9-0.5,17.8-2.5,26.2-5.7v-0.3c1.5-2.7,2.8-5.7,3.8-8.7
		c4.8-13.7,6.1-28.9,3.3-43.1c-0.5-2.2-0.8-4.5-1.3-6.7c-9.4-5-19.3-9.5-29.5-11.7c-4.6-1.2-9.9-2-13.5,1.2c-3.1,2.5-3.3,7-3.1,11
		c0.8,9.7,0,19.7,0,29.7c0,2.5,0,5,0,7.7C0.8,142.8-1.3,154.3,1.3,159.8z"/>
	<path fill="#3152A4" d="M0.8,136.8c0-2.7,0-5.2,0-7.7c0.5,3.5,1.3,7,2,10.5c1.5,6.5,3.6,15,11.4,15.7c3.6,0.2,7.1,0,10.7-0.3
		c2.8-0.2,5.1-1.2,7.9-2c4.1-1.2,7.9-2.7,12-4.2c-1,3-2.3,6-3.8,8.7v0.3c-8.4,3.2-17.3,5.2-26.2,5.7c-5.1,0.5-10.7,1.2-13.5-3.7
		C-1.3,154.3,0.8,142.8,0.8,136.8z"/>
	<path fill="#E94C1D" d="M262.3,142.8c0,0,17.8,10,52.9,10c0,0,26.5,0.7,30.8,5.5c0.5,0,0.5,0,0.5,0c0-1-0.5-2-1-2.7
		c-1.3-1.5-3.3-2.5-5.3-3c-18.1-5.7-39.7-1-55.7-11.2C262.3,142.8,262.3,142.8,262.3,142.8z"/>
	<path fill="#1D1B19" d="M88.8,208.9c5.2-10.2,23.1,3.5,34.6,2.7c0.5-6.5,0-13-0.5-19.2c-1-15-1.3-29.7-0.8-44.6
		c0-1.2,0-2.2,0.3-3.5c0.3-8.5,0.8-17,3.3-24.9c1.8-6.5,4.6-12.7,7.9-18.7c5.6-10.2,12.2-20.2,16.3-31.2
		c7.9-22.4,3.8-48.6-10.7-67.6c-12.5-1-25.2,0-36.6,5.2c-0.5,0.2-1,0.5-1.3,0.7c3.3,7.7,9.4,15.2,13.5,21.9
		c5.6,9.2,10.4,18.9,10.9,29.7c0.8,16.2-8.1,30.7-15.3,45.6c-2.8,5.5-5.3,11.2-6.9,17.2c-1.5,6-2.3,11.7-2.5,17.7
		c-1,13.7,0.3,27.7-3.1,41.1c-2.3,9-6.1,17.2-8.6,26.2C89,207.9,89,208.4,88.8,208.9z"/>
</g>
</svg>
