<?xml version="1.0" encoding="utf-8"?>
<!-- Generator: Adobe Illustrator 16.0.0, SVG Export Plug-In . SVG Version: 6.00 Build 0)  -->
<!DOCTYPE svg PUBLIC "-//W3C//DTD SVG 1.1//EN" "http://www.w3.org/Graphics/SVG/1.1/DTD/svg11.dtd">
<svg version="1.1" id="Layer_1" xmlns="http://www.w3.org/2000/svg" xmlns:xlink="http://www.w3.org/1999/xlink" x="0px" y="0px"
	 width="99px" height="139px" viewBox="0 0 99 139" enable-background="new 0 0 99 139" xml:space="preserve">
<g>
	<path fill="#E79020" d="M25.8,85.9c0,0-4.5,9-19.3,11.3c3.3,1.3,12,0.5,18.5-7.8C28.1,87.7,25.8,85.9,25.8,85.9z"/>
	<path fill="#AF571E" d="M12.3,96.2c0,0,2.5-3.5,0.5-4c-2-0.8-2.5,1.8-2.5,1.8s-1.5-4.5-2.5-3c-0.8,1.5-0.3,3.3-0.3,3.3
		s-4.8-3.3-4.5-1.5c0.3,2,2.3,3.5,2.3,3.5s-4,1.3-3.3,2.8c1,1.5,4.8-0.3,4.8-0.3s-1.5,3.8,0,3.8c1.8,0,3-3.3,3-3.3s3,3,4,1.5
		C15.1,98.9,12.3,96.2,12.3,96.2z"/>
	<path fill="#8B441C" d="M10.1,95.9c0.3-0.5,1.8-3,2-2.3c0,0.8-1,2.8-1,2.8s3.3,2.8,2,2.8s-3.3-1.8-3.3-1.8s-1.8,4.3-2.3,3.8
		c-0.5-0.8,0.5-3.8,0.5-3.8s-3.8,2-4,1.3s3-2.5,3-2.5s-3-2.3-2.3-2.3c0.8-0.3,4,1.5,4,1.5s-1.5-3.3-0.3-3
		C9.6,92.7,10.1,95.9,10.1,95.9z"/>
	<path fill="#E79020" d="M54.8,122.2c0.3,1,0.3,2,0.5,3.3c0.5,2.3,1,4.8,1.5,6.8s0.8,3.5,1,4c1.3-0.8,4-1.8,5.8-2.3
		c-0.3-1-0.5-2.5-0.8-4s-0.5-3.5-0.8-5c0-1.3-0.3-2.3-0.3-3l0,0c0-0.8,1-3.8,2-6.8s2-6,2-6c-7.5-4.3-7.5-4.3-7.5-4.3s-0.8,2.8-1.5,6
		c-0.8,2.3-1.5,4.8-2,6.5c0,0.3,0,0.5,0,0.8c-0.3,0.5-0.3,0.8-0.3,1C54.3,119.4,54.6,120.7,54.8,122.2z"/>
	<path fill="#AF571E" d="M54.8,117.4c1.5,0.3,4.3-0.5,4.8-1.3c0.5-1.3-1.8-5.3-1.8-5.3c-0.3,0-0.5,0-1,0
		C56.1,113.2,55.3,115.7,54.8,117.4z"/>
	<path fill="#341F17" d="M57.8,136.2c0.5,0.8,6.3,0.8,6.3,0.8s-0.3-1.3-0.5-3C61.8,134.4,59.1,135.4,57.8,136.2z"/>
	<path fill="#AF571E" d="M59.1,118.9c0.3,1,1.8,2.5,2.8,3l0,0c0-0.8,1-3.8,2-6.8C62.3,115.9,59.1,117.7,59.1,118.9z"/>
	<path fill="#AF571E" d="M55.3,125.4c0.5,2.3,1,4.8,1.5,6.8c0.8-1,2.3-2.8,2-4C58.3,126.7,56.6,125.7,55.3,125.4z"/>
	<path fill="#CB6E1C" d="M56.6,121.4c0.3-0.3,1.3-0.8,2-0.8s1.5,3,1.3,3.5c-0.5,0.5-3,0-3.5-0.3C56.1,123.4,56.1,122.2,56.6,121.4z"
		/>
	<path fill="#AF571E" d="M54.8,122.2c0.8-0.8,1.8-2.3,1.8-2.8s-1.3-1-1.8-1.3c-0.3,0.5-0.3,0.8-0.3,1
		C54.3,119.4,54.6,120.7,54.8,122.2z"/>
	<path fill="#AF571E" d="M60.8,127.7c0,0.8,1.3,2,2,2.3c-0.3-1.5-0.5-3.5-0.8-5C61.6,125.7,60.6,126.9,60.8,127.7z"/>
	<path fill="#E79020" d="M26.6,117.7c0,1.5,0,4.3,0.3,6.8c0.3,3.8,0.8,7.5,1.3,9c3-1,7.3-1.8,10-2c-0.5-1.5-1-3.3-1.8-5
		c-0.8-2.5-1.8-5-2.3-6.5c-0.3-1.3-0.5-2-0.5-2.3c0.3-0.3,1.5-0.5,3-1.3c2.5-1,6-3,9-7.3c0-0.3,0.3-0.3,0.3-0.5
		c5-7.5,0.3-13.8-2.3-15.8c0,0-11-6-12,1.8c-1.3,7.8,1.3,14.5,1.3,14.5s-5.3,5.5-6,7C26.6,116.4,26.6,116.9,26.6,117.7z"/>
	<path fill="#AF571E" d="M26.6,117.7c0,1.5,0,4.3,0.3,6.8c1.3,0,1.8-0.5,2-0.8c1-0.5,0.5-3,0.3-4.3
		C28.8,118.4,27.3,117.9,26.6,117.7z"/>
	<path fill="#AF571E" d="M36.6,116.4c2.5-1,6-3,9-7.3c-1.3-0.5-3.3-1.3-4.3-1c-1.5,0.5-3.8,1.5-4.5,2.3
		C36.3,111.2,36.1,114.9,36.6,116.4z"/>
	<path fill="#341F17" d="M28.1,133.4c0,0.5,0.3,0.8,0.3,0.8c1,1,11,1.3,11,1.3s-0.5-1.8-1.3-4C35.3,131.7,31.1,132.4,28.1,133.4z"/>
	<path fill="#CB6E1C" d="M31.6,121.7c-0.3,1.5,1.3,4,1.8,4c0.5,0.3,1.8,1,3,0.8c-0.8-2.5-1.8-5-2.3-6.5
		C33.6,120.2,31.8,120.9,31.6,121.7z"/>
	<path fill="#F7C020" d="M22.3,100.7c0,0.5,0,0.8,0,1.3l0,0c0.3,1.3,0.3,2.3,0.5,3l0,0c0,0.3,0.3,0.5,0.3,0.8
		c0.3,0.8,1.5,1.8,3.3,2.5c0.8,0.5,1.8,1,2.8,1.3c1.8,0.5,3.5,1,5.5,1.5c7.3,1.8,17,2.5,25,1.3c1.8-0.3,3.3-1,4.5-1.5
		c3.8-2,4.8-5,5.5-7c0.3-0.5,0.5-2.3,1.3-4.5c0.8-3.3,1.8-7.5,2.8-12.8c0.3-1,0.5-2,0.8-3.3c0.8-4,1.8-8.5,2.5-13.3
		c0.3-2,0.5-4.3,1-6.5c1-6.5,1.5-12.8,1.8-18c-1.8-13.5-3.8-14.5-3.8-14.5c-8.8,3-8.8,3-8.8,3s-0.5,2-1,5.5c0,0,0,0.3-0.3,0.5
		c-0.3,2.3-0.8,4.8-1.3,7.5c-0.3,0.3-0.3,0.5-0.3,0.5c-1.5,8-3.8,18.3-6.3,26.5c-0.8,2.8-1.8,5.3-2.5,7.5c-0.8,2-1.8,3.8-2.5,5
		c-4.8-0.8-11-2.3-16.3-3s-9.8-1-11.3,0.5c-0.3,0.3-0.8,0.8-1,1.3c-0.5,1-1,2.5-1.3,4c-0.3,1-0.5,2.3-0.8,3.5
		C22.3,95.7,22.3,98.4,22.3,100.7z"/>
	<path fill="#F7C647" d="M23.3,89.7c1.3-2,4.3-4.3,7.8-4c9,1.8,14.8,3.3,22.8,4.5c8.8-5.8,11-42.5,11-42.5c-0.3-0.3-0.3-0.3-0.3-0.3
		c-0.3,0.3-0.3,0.5-0.3,0.5c-1.5,8-3.8,18.3-6.3,26.5c-0.8,2.8-1.8,5.3-2.5,7.5c-0.8,2-1.8,3.8-2.5,5c-4.8-0.8-11-2.3-16.3-3
		s-9.8-1-11.3,0.5c-0.3,0.3-0.8,0.8-1,1.3C24.1,86.7,23.6,88.2,23.3,89.7z"/>
	<path fill="#FFFFFF" d="M29.3,109.7c0.8,0,1.5,0.3,2.3,0.5c1,0.3,2,0.5,3.3,0.8c7.3,1.8,17,2.5,25,1.5c2-0.5,3.3-1,4.5-1.8
		c-3-2.5-3-2.5-3-2.5c-2-1.8-2-1.8-2-1.8c0,0.3-5.8,3.5-22.3-3.5C32.6,105.9,30.3,108.2,29.3,109.7z"/>
	<path fill="#CDDDF3" d="M31.6,110.2c1,0.3,2,0.5,3.3,0.8c7.3,1.8,17,2.5,25,1.5c2-0.5,3.3-1,4.5-1.8c-3-2.5-3-2.5-3-2.5
		c-1,0.8-4,2.5-12.5,1.5c-11.3-1.3-14.3-4.3-14.3-4.3C31.6,110.2,31.6,110.2,31.6,110.2z"/>
	<path fill="#AF571E" d="M36.6,96.4c0.8-0.3,1.8-2,4.3-0.8c2.8,1.3,5,4.3,4.5,5c-0.3,1-3,3-4.5,2.8c-1.8-0.3-5-3-5-3
		C36.6,96.4,36.6,96.4,36.6,96.4z"/>
	<path fill="#E79020" d="M66.1,39.4c2,5.8,7.5,21,11.8,24c1-6.5,1.5-12.8,1.8-18c-1.8-13.5-3.8-14.5-3.8-14.5c-8.8,3-8.8,3-8.8,3
		S66.6,35.9,66.1,39.4z"/>
	<path fill="#AF571E" d="M64.3,47.9c1.3-0.3,3-1.3,4-2.5c0.8-0.8,1.3-2,1.3-3c-0.3-2-2-2.5-3.3-2.5c-0.3,0-0.3,0-0.5,0
		C65.6,42.2,65.1,44.9,64.3,47.9z"/>
	<path fill="#AF571E" d="M71.8,52.4c1,0.8,0.8,5.5-1.8,6c-2.3,0.3-3.5-0.5-3-2.8S70.8,51.2,71.8,52.4z"/>
	<path fill="#AF571E" d="M75.6,61.2c0.5,0.5-0.3,3.5-1.5,4.8c-1.5,1.5-2.5,0.5-2.5-1.5S74.3,60.4,75.6,61.2z"/>
	<path fill="#AF571E" d="M64.6,62.7c0.5,0,1.8,0,2.3,2c0.5,2.3-1.3,4.5-3.3,3.8C61.8,67.4,62.8,62.2,64.6,62.7z"/>
	<path fill="#CB6E1C" d="M68.8,77.7c0.3,1.3,1.5,4,3.5,5c0.5,0.3,1.3,0.5,2,0.5c0.8-4,1.8-8.5,2.5-13.3c-0.5,0-2,0-3.8,1
		C70.3,72.7,68.6,76.7,68.8,77.7z"/>
	<path fill="#AF571E" d="M55.6,81.9c0.5,1,1.3,2.3,1.8,2.5c1,0.8,5.5-0.3,6.8-2c1-1.5,2.3-9.3-0.3-10c-2-0.5-4.8,1.3-5.8,2
		C57.3,77.2,56.3,79.7,55.6,81.9z"/>
	<path fill="#AF571E" d="M63.3,92.9c0.3,1.3,3.3,5.3,4.8,5.8c0.5,0.3,1.5,0.5,2.8,0.5c0.8-3.3,1.8-7.5,2.8-12.8
		c-0.8-0.3-2-0.5-3.5,0C67.8,87.4,63.3,91.7,63.3,92.9z"/>
	<path fill="#AF571E" d="M53.3,89.7c1,1.5-0.8,4.5-2.3,5.8c-1.3,1.5-6.8-0.5-7.5-2.5c-0.8-2.3-0.5-3.5,0-4.3
		C44.1,87.7,51.8,87.4,53.3,89.7z"/>
	<path fill="#CB6E1C" d="M60.1,96.9c0.5,0.5-0.3,5.3-2.3,6.3c-2.3,1-7.5,1-7.8-0.3c-0.3-1.5,1-5,3-6S58.6,95.7,60.1,96.9z"/>
	<path fill="#CB6E1C" d="M24.6,85.7c0.5,1.5,1.5,3,2.5,3.5c2,1,5.5-0.3,7.5-1.5c1.3-0.8,2-2.5,2.3-3.8c-5.3-0.8-9.8-1-11.3,0.5
		C25.3,84.7,24.8,85.2,24.6,85.7z"/>
	<path fill="#F7C020" d="M56.6,3.4c0,0,0.3,0.5,0.8,1c1,1.3,2.8,3,4.3,4.3c1.8,1,4.8,2.5,6.5,3c0.5,0.3,0.8,0.5,0.8,0.5
		c1.3-1.3,1.3-1.3,1.3-1.3c-0.3,0-4-5-8.5-6.5C56.8,2.9,56.6,3.4,56.6,3.4z"/>
	<path fill="#CB6E1C" d="M57.3,4.4c1,1.3,2.8,3,4.3,4.3c1.8,1,4.8,2.5,6.5,3c0.3-0.3,0.3-0.3,0.3-0.3c-0.5-0.5-1.3-2.8-4.5-4.5
		C61.6,5.7,58.8,4.9,57.3,4.4z"/>
	<path fill="#F7C020" d="M97.3,6.7c0,0-0.3,0.3-1,1c-1,1-3,2.5-4.8,3.3c-2,1-5.3,1.8-6.8,2.3c-0.8,0-1,0.3-1,0.3c-1-1.5-1-1.5-1-1.5
		c0.3,0,4.8-4.3,9.5-5.3C97.1,5.9,97.3,6.7,97.3,6.7z"/>
	<path fill="#CB6E1C" d="M96.3,7.7c-1,1-3,2.5-4.8,3.3c-2,1-5.3,1.8-6.8,2.3c-0.3-0.5-0.3-0.5-0.3-0.5c0.5-0.3,1.5-2.5,5-3.8
		C92.1,7.9,95.1,7.7,96.3,7.7z"/>
	<path fill="#F7C020" d="M60.8,30.9c0.5,2,1.8,3.3,3.5,4c0.5,0.3,1,0.5,1.5,0.5c1.8,0.5,3.5,0.8,5,0.8c1,2.5,2.8,6.3,6,12.5
		c1.5,1.3,4.3,0.5,11.5-0.5c-1.3-1.8-3.3-6.8-4.5-11.5c2.8,0.8,5.8,1,7.5-1.3c1.5-2.3,1-8.5-0.5-14.3c-0.5-1.3-0.8-2.5-1.3-3.8
		c-2.5-6.3-4.8-7.3-6.5-7.5c-0.3-0.3-0.5-0.3-0.8-0.3c0.3-0.3,0.3-0.5,0.5-0.8c0.5-0.8,1.8-0.8,2.8-1.3c0.3-0.3,0.8-0.8,1-1.3
		c1-1.5-1-2.5-2.8-2.3c-1.3,0.3-1.5,1.3-2,2.3c0,0.3,0,0.5-0.3,1s-1,1.3-1.8,2c-1-0.3-1.8-0.3-1.8-0.3s3-2,3-3.3
		c-0.3-1-4.3,0.8-8.3,2.5c-0.3-0.5-1-1.3-1-1.8c-0.3-0.3-0.3-0.8-0.3-1c-0.3-1-0.5-2-1.5-2.5c-1.5-0.5-3.8,0.3-3.3,2
		c0.3,0.8,1,1.3,1.5,1.5c0.8,0.5,1.5,0.8,2,1.5c0,0.3,0.3,0.5,0.3,0.8c-0.5,0.3-0.8,0.5-1.3,0.8c-3.3,1.5-4.8,6.3-6,9.3
		c-0.5,1.8-1,3.5-1.5,5.3c-0.3,0.8-0.3,1.5-0.5,2s-0.3,0.8-0.3,1.3C60.8,28.4,60.6,29.7,60.8,30.9z"/>
	<path fill="#E79020" d="M73.8,26.2c0,0,0.5,3.5-3.5,3.8c-4,0-4.5-4.8-3-6.5C68.6,21.7,73.8,26.2,73.8,26.2z"/>
	<path fill="#CB6E1C" d="M74.6,51.2c-0.3,5,2.5,7,4.5,7c-2.5-2.8-3-6.5-0.5-8.8c-1.8,4,1,7.3,4.5,7.8c0.5,0.3,1.3,0.3,1.8,0.3
		c0.8-0.3,1.3-0.3,1.8-0.3c2.5-0.8,4.5-2.5,4.8-5.3c0-4.3-4.5-4.8-7.5-4.8C83.8,47.2,74.8,46.4,74.6,51.2z"/>
	<path fill="#FFFFFF" d="M71.3,21.4c1.3,0.3,3.3,1.8,3,4c-0.5,2.5-2.8,4-5.3,3c-2.5-1.3-2.8-4-1.8-5.5
		C68.1,21.4,69.8,20.9,71.3,21.4z"/>
	<path fill="#341F17" d="M68.1,23.9c0,0.3,0,0.3,0.3,0.3c0,0.3,0,0.3,0,0.3s0.3,0,0.5,0c0,0.3,0.3,0.3,0.3,0.3c0.5,0,0.8-0.3,1-0.5
		c0.3,0,0.5-0.5,0.5-0.8s0-0.5,0-0.5c0-0.3-0.3-0.5-0.3-0.5c-0.3-0.3-0.3-0.3-0.3-0.3c0.3,0,0.3,0,0.5,0c1.8,0,2.8,1.5,2.8,3
		c-0.3,1.5-1.5,2.8-3.3,2.8c-1.5-0.3-2.8-1.5-2.5-3.3c0-0.3,0-0.5,0.3-1C67.8,23.9,67.8,23.9,68.1,23.9z"/>
	<path fill="#FFFFFF" d="M86.3,21.9c1,0.3,3.3,2,2.8,4.3c-0.3,2.5-2.8,4-5.3,3c-2.5-1.3-2.5-4-1.8-5.8
		C82.8,21.9,84.8,21.7,86.3,21.9z"/>
	<path fill="#341F17" d="M82.8,24.7l0.3,0.3l0,0c0.3,0.3,0.3,0.3,0.5,0.3h0.3c0.5,0.3,0.8,0,1.3-0.3c0.3-0.3,0.3-0.5,0.5-1
		c0,0-0.3-0.3-0.3-0.5s0-0.3-0.3-0.5c0,0,0,0-0.3-0.3c0.3,0,0.5,0,0.8,0c1.5,0.3,2.8,1.5,2.8,3.3c-0.3,1.5-1.8,2.8-3.3,2.8
		c-1.8-0.3-2.8-1.8-2.8-3.3c0-0.3,0.3-0.8,0.3-1L82.8,24.7z"/>
	<path fill="#E79020" d="M81.1,24.4c0.5,6,2.8,12.3,2.8,12.3c1,0.3,2.3,0.5,3.5,0.5c1.5,0,3-0.5,3.8-1.8c0.8-0.8,1-2.3,1-3.8
		c0.3-3-0.3-6.8-1.3-10.5c-2-1.5-4-2.8-5.5-3C82.6,17.4,80.8,18.7,81.1,24.4z"/>
	<path fill="#FFFFFF" d="M86.6,21.7c1.3,0.3,3.3,1.8,3,4.3c-0.5,2.3-2.8,3.8-5.3,2.8c-2.8-1-2.8-3.8-1.8-5.5
		C83.1,21.7,85.1,21.4,86.6,21.7z"/>
	<path fill="#341F17" d="M83.3,24.4c0,0,0,0.3,0.3,0.3l0,0l0.3,0.3c0.3,0,0.3,0,0.5,0s0.8,0,1-0.3s0.5-0.8,0.5-1s0-0.3,0-0.5
		c-0.3-0.3-0.3-0.3-0.3-0.5c-0.3,0-0.3-0.3-0.3-0.3s0.3,0,0.5,0c1.8,0.3,2.8,1.5,2.8,3c-0.3,1.8-1.5,3-3.3,2.8c-1.5,0-2.8-1.5-2.5-3
		c0-0.5,0-0.8,0.3-1C83.1,24.2,83.1,24.2,83.3,24.4z"/>
	<path fill="#AF571E" d="M80.6,50.9c0,0,2.8,3.5,4.3,3.8c0,1,0,2,0,2.8c0.8-0.3,1.3-0.3,1.8-0.3c-0.8-2.5-0.8-2.5-0.8-2.5
		s1.5-0.8,2-4c0-0.3-1.5,2.5-2.8,2.5C83.6,53.4,80.6,50.9,80.6,50.9z"/>
	<path fill="#CB6E1C" d="M87.3,37.2c1.5,0,3-0.5,4-1.8c0.5-0.8,0.8-2.3,1-3.8c-0.8-0.5-2-0.8-3.8,0.5C87.1,33.4,86.8,35.7,87.3,37.2
		z"/>
	<path fill="#CB6E1C" d="M83.8,31.4c0,0.8,0.5,1.3,1.3,1.5c0.8,0,1.3-0.5,1.5-1.3c0-0.8-0.5-1.3-1.3-1.3
		C84.6,30.2,84.1,30.7,83.8,31.4z"/>
	<path fill="#CB6E1C" d="M65.8,35.4c1.8,0.5,3.5,0.8,5,0.8c0,0,0-3.8-2.5-3.3C66.8,33.2,66.1,34.4,65.8,35.4z"/>
	<path fill="#CB6E1C" d="M60.8,30.9c0.5,2,1.8,3.3,3.5,4c1.3-1.3,2.3-2.8,1.5-4.5c-1.5-3-3.8-3.3-4.8-3
		C60.8,28.4,60.6,29.7,60.8,30.9z"/>
	<path fill="#CB6E1C" d="M73.6,17.7c0,0-2.3-0.5-3.3,0c-1,0.3-4,2.8-3.3,2.8c0.5,0,2.8-1,2.8-1s3.8,0.3,3.3-0.3s-1-0.8-1-0.8
		S73.8,17.9,73.6,17.7z"/>
	<path fill="#CB6E1C" d="M82.8,18.4c0,0,2.3,0,3.3,0.5c1,0.3,3.5,2.5,3,2.5s-2.8-1.3-2.8-1.3s-3.8-0.3-3.3-0.5s1.3-0.5,1.3-0.5
		S82.6,18.7,82.8,18.4z"/>
	<path fill="#CB6E1C" d="M81.8,6.4c0.8,0,1.8-0.8,2.8-0.3s1.3,0.8,1,1.5c0.3-0.3,0.8-0.8,1-1.3c1-1.5-1-2.5-2.8-2.3
		C82.6,4.4,82.3,5.4,81.8,6.4z"/>
	<path fill="#CB6E1C" d="M66.8,5.2c0.3,0.8,1,1.3,1.5,1.5c0-0.8,0.3-1.5,1-1.8s1.5,0.3,2.3,0.8c-0.3-1-0.5-2-1.5-2.5
		C68.6,2.7,66.3,3.4,66.8,5.2z"/>
	<path fill="#AF571E" d="M76.6,51.9c0.3-1,1.3-1.5,1.8-2.3c-0.3,1,0,2.3,0.5,3.3c1,2.3,3.3,3.3,5.8,3.3c3,0,7-1.5,6.5-5.3
		c0-0.3,0-0.5,0.3-0.3c1.8,4.3-3.8,7-7.3,7.3c-2,0-4.3-0.8-5.5-2.5c-0.8-0.8-1-1.5-1.3-2.5c-0.3,0.8-0.3,1.3,0,2
		c0.3,1.3,1.3,2.3,2.3,2.8c0.3,0.3,0,0.8-0.3,0.8c-1.5-0.5-2.3-1.8-3-3C76.1,54.4,76.1,53.2,76.6,51.9z"/>
	<path fill="#F7C020" d="M17.8,122.9c0.3,4,0.8,8.3,1.3,9.8c2-0.8,5-1.3,7.5-1.8c1,0,1.8-0.3,2.5-0.3c-0.5-1.8-1.5-4.5-2.5-7
		c-0.8-2.3-1.5-4.3-1.8-5.5c-0.3-0.8-0.3-1-0.3-1c0.3-0.5,2.8-1,6-3c1.3-0.8,2.5-1.8,4-3.3c0.8-0.8,1.5-1.8,2.3-3
		c0.5-0.8,1-1.5,1.3-2.3c2.8-6.5-1.3-11.8-3.5-13.5c0,0-0.8-0.5-2-1c-3-1.3-8.5-2.8-10,2c0,0.3,0,0.5,0,0.8
		c-0.5,2.5-0.5,4.8-0.3,6.8c0,0.5,0,0.8,0,1.3l0,0c0.3,1,0.3,2.3,0.5,3l0,0c0.5,2.3,1,3.5,1,3.5s-0.8,0.8-1.8,1.8
		c-1,1.3-2.5,3-3.5,4.3c-0.3,0.3-0.5,0.8-0.8,1l0,0C17.6,116.2,17.6,119.4,17.8,122.9z"/>
	<path fill="#F7C647" d="M23.1,116.2c0.3,1,2.5,11,3.5,14.8c1,0,1.8-0.3,2.5-0.3c-0.5-1.8-1.5-4.5-2.5-7c-0.8-2.3-1.5-4.3-1.8-5.5
		c-0.3-0.8-0.3-1-0.3-1c0.3-0.5,2.8-1,6-3c1.3-0.8,2.5-1.8,4-3.3c0.8-0.8,1.5-1.8,2.3-3c0.5-0.8,1-1.5,1.3-2.3
		c2.8-6.5-1.3-11.8-3.5-13.5c0,0-0.8-0.5-2-1c1.3,1.3,3.5,3.8,3.8,7.8c0.3,5.3-1,8.3-3.3,10.3C31.1,111.4,23.6,115.2,23.1,116.2z"/>
	<path fill="#341F17" d="M19.1,132.7c0,0.5,0.3,0.8,0.3,0.8c1,1,11,1.3,11,1.3s-0.5-1.8-1.3-4C26.3,130.9,22.1,131.7,19.1,132.7z"/>
	<path fill="#AF571E" d="M29.8,113.7c0.3,0.3,0.5,0.3,0.8,0.5c2-1.3,4.3-3.3,6.3-6.3c0.5-0.8,1-1.5,1.3-2.3c-0.8-0.3-2-0.8-3.3-0.5
		c-2.3,0-4.5,3-4.8,3.3C30.1,108.9,29.6,113.2,29.8,113.7z"/>
	<path fill="#AF571E" d="M22.3,100.7c0,0.5,0,0.8,0,1.3l0,0c0.3,1.3,0.3,2.3,0.5,3l0,0c0.5,2.3,1,3.5,1,3.5c0.5,0,1.5,0,2.5-0.3
		c0.8,0,1.5-0.3,1.5-0.8c0-0.8-0.8-3.3-1.5-4.5C25.6,101.9,23.1,101.2,22.3,100.7L22.3,100.7z"/>
	<path fill="#CB6E1C" d="M33.3,98.9c0.3-0.8-0.3-2.8-1.3-3.3c-0.8-0.5-2.8,0.8-3,1.5c-0.3,0.5,0,2.3,0.8,3
		C30.6,100.7,33.1,99.9,33.3,98.9z"/>
	<path fill="#AF571E" d="M24.8,90.4c-0.5,0.3-2,2.5-1.5,3.3c0.8,0.5,2.8,1.8,3.8,1.5c1-0.5,1.8-2.8,1.5-3.3S25.3,90.2,24.8,90.4z"/>
	<path fill="#AF571E" d="M17.8,122.9c0.8-0.8,2.3-2,2.5-3.5s-1.3-3.3-2.5-4l0,0C17.6,116.2,17.6,119.4,17.8,122.9z"/>
	<path fill="#CB6E1C" d="M18.6,114.4c1.3,0.5,3.5,0.8,4.3,0.5s3.3-2,3.3-3.3c0-0.8-3-1.3-4-1.5C21.1,111.4,19.6,113.2,18.6,114.4z"
		/>
	<path fill="#AF571E" d="M22.3,122.2c0.5,0.8,3.3,1.5,4.3,1.5c-0.8-2.3-1.5-4.3-1.8-5.5C23.8,118.9,21.6,121.2,22.3,122.2z"/>
	<path fill="#F7C020" d="M75.1,115.2c-0.3,0.8-1,4-1.5,7.5c-0.5,3.3-1,6.5-1.3,8.8c-1.8-0.8-4.8-1.8-5.5-1.5
		c1.3-13.5,1.3-13.5,1.3-13.5s-0.3-0.3-0.5-0.5c-1-0.8-3.3-2.5-5.5-4.5c-2.8-2.3-5.8-5-6.5-6.8c-0.3-0.3-0.5-0.5-0.5-1
		c-0.3-2,0.5-6,0.8-7.3c0.3,0,0.3-0.3,0.3-0.3c0.5-2.3,1.3-5,3-6c0.8-0.5,2-0.3,3.5,0.5c3.5,2.3,3,8.8,2.3,12.5
		c0.3,0.5,0.8,1,1.3,1.3c1.5,1.8,3.3,3.5,4.8,4.8c0.3,0.3,0.5,0.5,0.8,0.8c1,1.3,2,2.3,2.5,3s1,1.3,1,1.8
		C75.1,114.7,75.1,114.9,75.1,115.2z"/>
	<path fill="#CB6E1C" d="M57.6,103.2c-0.5,0.3-1.5,0.5-2.5,0.5c-0.3-2,0.5-6,0.8-7.3l0.3-0.3c1.5-0.3,3,0,4,0.8
		C60.6,97.4,59.8,102.2,57.6,103.2z"/>
	<path fill="#341F17" d="M66.8,129.9c0,0,4.3,4.8,4.8,3.8c0.3-0.3,0.5-1,0.8-2.3C70.6,130.7,67.6,129.7,66.8,129.9z"/>
	<path fill="#AF571E" d="M65.1,107.9c0.5,1.5,1.5,2.3,3,2.3c0.5,0,1.8-0.5,2.8-1c-1.5-1.3-3.3-3-4.8-4.8
		C65.6,105.4,64.8,107.2,65.1,107.9z"/>
	<path fill="#AF571E" d="M62.1,111.4c2.3,2,4.5,3.8,5.5,4.5c0.3-1,0.5-3,0-3.5c-0.8-0.8-2-1.3-3.8-1.5
		C63.1,110.9,62.6,111.2,62.1,111.4z"/>
	<path fill="#AF571E" d="M71.8,121.4c0.3,0.5,1,1.3,1.8,1.3c0.5-3.5,1.3-6.8,1.5-7.5c0-0.3,0-0.5,0-0.5c-1.3,0.8-3,2-3.5,2.8
		S71.3,120.7,71.8,121.4z"/>
	<path fill="#CB6E1C" d="M70.1,114.4c1,0.5,3-0.8,4-1.5c-0.5-0.8-1.5-1.8-2.5-3c-1,0.5-2.3,0.8-2.5,1.3
		C68.6,111.9,68.8,113.9,70.1,114.4z"/>
</g>
</svg>
