<?xml version="1.0" encoding="utf-8"?>
<!-- Generator: Adobe Illustrator 16.0.0, SVG Export Plug-In . SVG Version: 6.00 Build 0)  -->
<!DOCTYPE svg PUBLIC "-//W3C//DTD SVG 1.1//EN" "http://www.w3.org/Graphics/SVG/1.1/DTD/svg11.dtd">
<svg version="1.1" id="Layer_1" xmlns="http://www.w3.org/2000/svg" xmlns:xlink="http://www.w3.org/1999/xlink" x="0px" y="0px"
	 width="480px" height="360px" viewBox="0 0 480 360" enable-background="new 0 0 480 360" xml:space="preserve">
<g>
	<polygon fill="#E0EFEC" points="0,361 480,361 480,1 0,1 0,361 	"/>
	<polygon fill="#C4E6DD" points="13.25,293 0,293 0,1.5 13.25,1.5 13.25,293 	"/>
	<polygon fill="#C4E6DD" points="27.5,293 40.75,293 40.75,1.5 27.5,1.5 27.5,293 	"/>
	<polygon fill="#C4E6DD" points="55,293 68.25,293 68.25,1.5 55,1.5 55,293 	"/>
	<polygon fill="#C4E6DD" points="82.25,293 95.5,293 95.5,1.5 82.25,1.5 82.25,293 	"/>
	<polygon fill="#C4E6DD" points="109.75,293 123,293 123,1.5 109.75,1.5 109.75,293 	"/>
	<polygon fill="#C4E6DD" points="137.25,293 150.5,293 150.5,1.5 137.25,1.5 137.25,293 	"/>
	<polygon fill="#C4E6DD" points="164.75,293 178,293 178,1.5 164.75,1.5 164.75,293 	"/>
	<polygon fill="#C4E6DD" points="192.25,293 205.5,293 205.5,1.5 192.25,1.5 192.25,293 	"/>
	<polygon fill="#C4E6DD" points="219.75,293 233,293 233,1.5 219.75,1.5 219.75,293 	"/>
	<polygon fill="#C4E6DD" points="247,293 260.25,293 260.25,1.5 247,1.5 247,293 	"/>
	<polygon fill="#C4E6DD" points="274.5,293 287.75,293 287.75,1.5 274.5,1.5 274.5,293 	"/>
	<polygon fill="#C4E6DD" points="302,293 315.25,293 315.25,1.5 302,1.5 302,293 	"/>
	<polygon fill="#C4E6DD" points="329.5,293 342.75,293 342.75,1.5 329.5,1.5 329.5,293 	"/>
	<polygon fill="#C4E6DD" points="357,293 370.25,293 370.25,1.5 357,1.5 357,293 	"/>
	<polygon fill="#C4E6DD" points="384.5,293 397.75,293 397.75,1.5 384.5,1.5 384.5,293 	"/>
	<polygon fill="#C4E6DD" points="411.75,293 425,293 425,1.5 411.75,1.5 411.75,293 	"/>
	<polygon fill="#C4E6DD" points="439.25,293 452.5,293 452.5,1.5 439.25,1.5 439.25,293 	"/>
	<polygon fill="#C4E6DD" points="480,293 466.75,293 466.75,1.5 480,1.5 480,293 	"/>
	<polygon fill="#4F3322" points="149,180.5 330.75,180.5 330.75,168.75 149,168.75 149,180.5 	"/>
	<g>
		<defs>
			<path id="SVGID_1_" d="M324.75,185.75h-9.5v-5.25h9.5V185.75 M302,185.75h-14.25v-5.25H302V185.75 M274.5,185.75h-14.25v-5.25
				h14.25V185.75 M247,185.75h-14v-5.25h14V185.75 M219.75,185.75H205.5v-5.25h14.25V185.75 M192.25,185.75H178v-5.25h14.25V185.75
				 M164.75,185.75h-1v-5.25h1V185.75"/>
		</defs>
		<clipPath id="SVGID_2_">
			<use xlink:href="#SVGID_1_"  overflow="visible"/>
		</clipPath>
		<polygon clip-path="url(#SVGID_2_)" fill="#B7C2BF" points="163.75,185.75 324.75,185.75 324.75,180.5 163.75,180.5 
			163.75,185.75 		"/>
	</g>
	<polygon fill="#A0BBB4" points="164.75,185.75 178,185.75 178,180.5 164.75,180.5 164.75,185.75 	"/>
	<polygon fill="#A0BBB4" points="192.25,185.75 205.5,185.75 205.5,180.5 192.25,180.5 192.25,185.75 	"/>
	<polygon fill="#A0BBB4" points="219.75,185.75 233,185.75 233,180.5 219.75,180.5 219.75,185.75 	"/>
	<polygon fill="#A0BBB4" points="247,185.75 260.25,185.75 260.25,180.5 247,180.5 247,185.75 	"/>
	<polygon fill="#A0BBB4" points="274.5,185.75 287.75,185.75 287.75,180.5 274.5,180.5 274.5,185.75 	"/>
	<polygon fill="#A0BBB4" points="302,185.75 315.25,185.75 315.25,180.5 302,180.5 302,185.75 	"/>
	<polygon fill="#402A1D" points="163.75,180.5 324.75,180.5 324.75,174.75 163.75,174.75 163.75,180.5 	"/>
	<polygon fill="#F5F5F5" points="316.25,172 163.75,172 163.75,65.75 316.25,65.75 316.25,172 	"/>
	<polygon fill="#4F3322" points="316.25,172 316.25,169.25 167.25,169.25 167.25,68.5 312.5,68.5 312.5,172 316.25,172 
		316.25,169.25 316.25,172 319.75,172 319.75,63 160,63 160,174.75 319.75,174.75 319.75,172 316.25,172 	"/>
	<polygon fill="#4F3322" points="235.75,168.75 243,168.75 243,65.75 235.75,65.75 235.75,168.75 	"/>
	<polygon fill="#4F3322" points="162,123.5 316.25,123.5 316.25,118 162,118 162,123.5 	"/>
	<polygon fill="#4F3322" points="136.25,56.25 346,56.25 346,54 136.25,54 136.25,56.25 	"/>
	<path fill="#4F3322" d="M139.75,55.25c0,1.5-1.5,2.75-3.5,2.75s-3.75-1.25-3.75-2.75s1.75-2.75,3.75-2.75
		S139.75,53.75,139.75,55.25"/>
	<path fill="#4F3322" d="M349.5,55.25c0,1.5-1.5,2.75-3.5,2.75c-2.25,0-3.75-1.25-3.75-2.75s1.5-2.75,3.75-2.75
		C348,52.5,349.5,53.75,349.5,55.25"/>
	<path fill="#F3CD24" d="M144.5,58.25c0,134.25,0,134.25,0,134.25s62-24.75,62-134.25C144.5,58.25,144.5,58.25,144.5,58.25"/>
	<path fill="#F3CD24" d="M334.25,58.25c0,134.25,0,134.25,0,134.25S272,167.75,272,58.25C334.25,58.25,334.25,58.25,334.25,58.25"/>
	<path fill="#4F3322" d="M146.75,52c0,9.75,0,9.75,0,9.75c0,0.5,0.75,1,1.5,1s1.5-0.5,1.5-1c0-9.75,0-9.75,0-9.75
		c0-0.75-0.75-1.25-1.5-1.25S146.75,51.25,146.75,52"/>
	<path fill="#4F3322" d="M171,52c0,9.75,0,9.75,0,9.75c0,0.5,0.5,1,1.5,1c0.75,0,1.5-0.5,1.5-1c0-9.75,0-9.75,0-9.75
		c0-0.75-0.75-1.25-1.5-1.25C171.5,50.75,171,51.25,171,52"/>
	<path fill="#4F3322" d="M194.75,52c0,9.75,0,9.75,0,9.75c0,0.5,0.5,1,1.5,1c0.75,0,1.5-0.5,1.5-1c0-9.75,0-9.75,0-9.75
		c0-0.75-0.75-1.25-1.5-1.25C195.25,50.75,194.75,51.25,194.75,52"/>
	<path fill="#4F3322" d="M280.5,52c0,9.75,0,9.75,0,9.75c0,0.5,0.75,1,1.5,1c1,0,1.5-0.5,1.5-1c0-9.75,0-9.75,0-9.75
		c0-0.75-0.5-1.25-1.5-1.25C281.25,50.75,280.5,51.25,280.5,52"/>
	<path fill="#4F3322" d="M304.75,52c0,9.75,0,9.75,0,9.75c0,0.5,0.75,1,1.5,1s1.5-0.5,1.5-1c0-9.75,0-9.75,0-9.75
		c0-0.75-0.75-1.25-1.5-1.25S304.75,51.25,304.75,52"/>
	<path fill="#4F3322" d="M328.5,52c0,9.75,0,9.75,0,9.75c0,0.5,0.75,1,1.5,1s1.5-0.5,1.5-1c0-9.75,0-9.75,0-9.75
		c0-0.75-0.75-1.25-1.5-1.25S328.5,51.25,328.5,52"/>
	<polygon fill="#A5D3DE" points="0,360.25 480,360.25 480,292.5 0,292.5 0,360.25 	"/>
	<polygon fill="#83AAB5" points="178.75,304.25 30.25,304.25 33.25,294.5 175,294.5 178.75,304.25 	"/>
	<polygon fill="#83AAB5" points="452,304.25 303.75,304.25 306.75,294.5 448.5,294.5 452,304.25 	"/>
	<path fill="#449F8B" d="M437.25,274.5c-0.5,4-5,7.25-10.5,7.25c-99.5,0.5-99.5,0.5-99.5,0.5c-5.25,0-9.75-3.25-10-7.25
		c-6.5-81.25-6.5-81.25-6.5-81.25c-0.25-4,3.75-7,9-7c116.5,0,116.5,0,116.5,0c5.25,0,9.25,3,8.75,7
		C437.25,274.5,437.25,274.5,437.25,274.5"/>
	<path fill="#674429" d="M329.5,296.75c0,1.25-1.25,2.25-3,2.25c-9.75,0-9.75,0-9.75,0c-1.75,0-3-1-3-2.25c0-8.5,0-8.5,0-8.5
		c0-1.25,1.25-2.25,3-2.25c9.75,0,9.75,0,9.75,0c1.75,0,3,1,3,2.25C329.5,296.75,329.5,296.75,329.5,296.75"/>
	<path fill="#674429" d="M442.25,296.75c0,1.25-1.5,2.25-3,2.25c-10,0-10,0-10,0c-1.5,0-3-1-3-2.25c0-8.5,0-8.5,0-8.5
		c0-1.25,1.5-2.25,3-2.25c10,0,10,0,10,0c1.5,0,3,1,3,2.25C442.25,296.75,442.25,296.75,442.25,296.75"/>
	<path fill="#5CC7AF" d="M468.75,242.25c0-8.75-9.5-16-21.25-16c-12,0-21.5,7.25-21.5,16c0,2.5,0.75,5,2,7
		c-100.25,0-100.25,0-100.25,0c1.5-2,2.25-4.5,2.25-7c0-8.75-9.75-16-21.5-16s-21.5,7.25-21.5,16c0,6.75,5.25,12.25,13,14.75
		c0,26.75,0,26.75,0,26.75c0,4,4.25,7.25,9.5,7.25c133.25,0,133.25,0,133.25,0c5.25,0,9.75-3.25,9.75-7.25c0-25.75,0-25.75,0-25.75
		C461.75,256.25,468.75,250,468.75,242.25"/>
	<path fill="#254844" d="M308.75,247.75c-4,0-7-2.5-7-5.5c0-2.75,3-5.25,7-5.25c3.75,0,7,2.5,7,5.25
		C315.75,245.25,312.5,247.75,308.75,247.75"/>
	<path fill="#254844" d="M448,247c-3.75,0-7-2.25-7-5.25c0-2.75,3.25-5.25,7-5.25c4,0,7,2.5,7,5.25C455,244.75,452,247,448,247"/>
	<polygon fill="#969797" points="323.25,269.25 323.25,276.75 323.25,269.25 	"/>
	<polygon fill="#969797" points="433,269.25 433,276.75 433,269.25 	"/>
	<path fill="#3D897E" d="M363.75,219c0,1.5-1.5,2.75-3.5,2.75s-3.5-1.25-3.5-2.75s1.5-2.75,3.5-2.75S363.75,217.5,363.75,219"/>
	<path fill="#3D897E" d="M344.25,232.75c0,1.5-1.5,2.75-3.5,2.75s-3.5-1.25-3.5-2.75s1.5-2.75,3.5-2.75S344.25,231.25,344.25,232.75
		"/>
	<path fill="#3D897E" d="M344.25,205.25c0,1.5-1.5,2.75-3.5,2.75s-3.5-1.25-3.5-2.75c0-1.25,1.5-2.5,3.5-2.5
		S344.25,204,344.25,205.25"/>
	<path fill="#3D897E" d="M418.75,232.75c0,1.5-1.75,2.75-3.75,2.75c-1.75,0-3.5-1.25-3.5-2.75s1.75-2.75,3.5-2.75
		C417,230,418.75,231.25,418.75,232.75"/>
	<path fill="#3D897E" d="M418.75,205.25c0,1.5-1.75,2.75-3.75,2.75c-1.75,0-3.5-1.25-3.5-2.75c0-1.25,1.75-2.5,3.5-2.5
		C417,202.75,418.75,204,418.75,205.25"/>
	<path fill="#3D897E" d="M401,219c0,1.5-1.75,2.75-3.75,2.75s-3.5-1.25-3.5-2.75s1.5-2.75,3.5-2.75S401,217.5,401,219"/>
	<path fill="#3D897E" d="M381.5,232.75c0,1.5-1.5,2.75-3.5,2.75s-3.75-1.25-3.75-2.75S376,230,378,230S381.5,231.25,381.5,232.75"/>
	<path fill="#3D897E" d="M381.5,205.25c0,1.5-1.5,2.75-3.5,2.75s-3.75-1.25-3.75-2.75c0-1.25,1.75-2.5,3.75-2.5
		S381.5,204,381.5,205.25"/>
	<path fill="#60435D" d="M246.25,240.5c-0.5-2,0-4.25,0-6.5c0-5.75,0-5.75,0-5.75c-6.75,0-6.75,0-6.75,0c-6.75,0-6.75,0-6.75,0l0,0
		c0,2,0.5,10.25,0,12.25c-0.5,7-13.25,8-13,15c6.75,0,13.25,0,19.75,0s13,0,19.75,0C259.5,248.5,246.75,247.5,246.25,240.5"/>
	<path fill="#EE2A39" d="M270.5,225.75c0.25,1.25-0.75,2.5-2.75,2.5c-55.5,0-55.5,0-55.5,0c-1.75,0-3-1.25-2.75-2.5
		c5-18.75,5-18.75,5-18.75c0.25-1.5,2.25-2.5,4-2.5c41.25,0,41.25,0,41.25,0c2,0,3.75,1,4.25,2.5
		C270.5,225.75,270.5,225.75,270.5,225.75"/>
	<path fill="#EE2A39" d="M270.5,225.75c0.25,1.25-0.75,2.5-2.75,2.5c-55.5,0-55.5,0-55.5,0c-1.75,0-3-1.25-2.75-2.5
		c5-18.75,5-18.75,5-18.75c0.25-1.5,2.25-2.5,4-2.5c41.25,0,41.25,0,41.25,0c2,0,3.75,1,4.25,2.5
		C270.5,225.75,270.5,225.75,270.5,225.75"/>
	<path fill="#6ECDB5" d="M442.75,252.75c0-2.5-2.75-4.5-6-4.5c-117.5,0-117.5,0-117.5,0c-3.25,0-6,2-6,4.5c0,11.75,0,11.75,0,11.75
		c0,0.25,0,0.25,0,0.25l0,0c0,4.5,0,4.5,0,4.5c6,0,6,0,6,0c117.5,0,117.5,0,117.5,0c6,0,6,0,6,0c0-4.5,0-4.5,0-4.5l0,0
		c0-0.25,0-0.25,0-0.25C442.75,252.75,442.75,252.75,442.75,252.75"/>
	<path fill="#49A493" d="M442.75,269.25H433H442.75v-4.5l0,0v-0.25v-1.25V269.25L442.75,269.25z M313.25,264.75L313.25,264.75v-0.25
		V264.75L313.25,264.75z"/>
	<path fill="#7A7B7C" d="M323.25,269.25L323.25,269.25L323.25,269.25z"/>
	<path fill="#7A7B7C" d="M433,269.25L433,269.25L433,269.25z"/>
	<polygon fill="#53B49D" points="442.75,269.25 313.25,269.25 313.25,264.75 313.25,264.75 313.25,264.5 313.25,263.25 
		442.75,263.25 442.75,264.5 442.75,264.75 442.75,264.75 442.75,269.25 	"/>
	<path fill="#B7C2BF" d="M246.25,234.25L246.25,234.25c0-0.25,0-0.25,0-0.25c0-5.75,0-5.75,0-5.75l0,0
		C246.25,234.25,246.25,234.25,246.25,234.25 M233,234.25L233,234.25c0-2.75,0-2.75,0-2.75C233,232.25,233,233.25,233,234.25"/>
	<path fill="#4E384B" d="M246.25,234.25c-13.25,0-13.25,0-13.25,0c0-1,0-2,0-2.75c0-3.25,0-3.25,0-3.25c13.25,0,13.25,0,13.25,0
		c0,5.75,0,5.75,0,5.75S246.25,234,246.25,234.25"/>
	<polygon fill="#C9272F" points="246.25,228.25 233,228.25 233,228.25 246.25,228.25 246.25,228.25 	"/>
	<path fill="#449F8B" d="M163.25,274.5c-0.25,4-5,7.25-10.25,7.25c-99.5,0.5-99.5,0.5-99.5,0.5c-5.25,0-9.75-3.25-10.25-7.25
		C37,193.75,37,193.75,37,193.75c-0.25-4,3.75-7,9-7c116.25,0,116.25,0,116.25,0c5.5,0,9.5,3,9,7
		C163.25,274.5,163.25,274.5,163.25,274.5"/>
	<path fill="#674429" d="M55.75,296.75c0,1.25-1.5,2.25-3,2.25C43,299,43,299,43,299c-1.75,0-3-1-3-2.25c0-8.5,0-8.5,0-8.5
		c0-1.25,1.25-2.25,3-2.25c9.75,0,9.75,0,9.75,0c1.5,0,3,1,3,2.25C55.75,296.75,55.75,296.75,55.75,296.75"/>
	<path fill="#674429" d="M168.25,296.75c0,1.25-1.25,2.25-3,2.25c-9.75,0-9.75,0-9.75,0c-1.5,0-3-1-3-2.25c0-8.5,0-8.5,0-8.5
		c0-1.25,1.5-2.25,3-2.25c9.75,0,9.75,0,9.75,0c1.75,0,3,1,3,2.25C168.25,296.75,168.25,296.75,168.25,296.75"/>
	<path fill="#5CC7AF" d="M195,242.25c0-8.75-9.5-16-21.5-16c-11.75,0-21.5,7.25-21.5,16c0,2.5,1,5,2.25,7
		c-100.25,0-100.25,0-100.25,0c1.25-2,2.25-4.5,2.25-7c0-8.75-9.75-16-21.5-16c-12,0-21.5,7.25-21.5,16C13.25,249,18.5,254.5,26,257
		c0,26.75,0,26.75,0,26.75c0,4,4.5,7.25,9.75,7.25C169,291,169,291,169,291c5.25,0,9.5-3.25,9.5-7.25c0-25.75,0-25.75,0-25.75
		C188,256.25,195,250,195,242.25"/>
	<path fill="#254844" d="M35,247.75c-4,0-7.25-2.5-7.25-5.5C27.75,239.5,31,237,35,237c3.75,0,7,2.5,7,5.25
		C42,245.25,38.75,247.75,35,247.75"/>
	<path fill="#254844" d="M174.25,247c-4,0-7-2.25-7-5.25c0-2.75,3-5.25,7-5.25c3.75,0,7,2.5,7,5.25
		C181.25,244.75,178,247,174.25,247"/>
	<polygon fill="#969797" points="49.5,269.25 49.5,276.75 49.5,269.25 	"/>
	<polygon fill="#969797" points="159.25,269.25 159.25,276.75 159.25,269.25 	"/>
	<path fill="#3D897E" d="M90,219c0,1.5-1.5,2.75-3.5,2.75s-3.75-1.25-3.75-2.75s1.75-2.75,3.75-2.75S90,217.5,90,219"/>
	<path fill="#3D897E" d="M70.5,232.75c0,1.5-1.5,2.75-3.5,2.75s-3.75-1.25-3.75-2.75S65,230,67,230S70.5,231.25,70.5,232.75"/>
	<path fill="#3D897E" d="M70.5,205.25c0,1.5-1.5,2.75-3.5,2.75s-3.75-1.25-3.75-2.75c0-1.25,1.75-2.5,3.75-2.5S70.5,204,70.5,205.25
		"/>
	<path fill="#3D897E" d="M145,232.75c0,1.5-1.75,2.75-3.75,2.75s-3.5-1.25-3.5-2.75s1.5-2.75,3.5-2.75S145,231.25,145,232.75"/>
	<path fill="#3D897E" d="M145,205.25c0,1.5-1.75,2.75-3.75,2.75s-3.5-1.25-3.5-2.75c0-1.25,1.5-2.5,3.5-2.5S145,204,145,205.25"/>
	<path fill="#3D897E" d="M127.25,219c0,1.5-1.75,2.75-3.75,2.75S120,220.5,120,219s1.5-2.75,3.5-2.75S127.25,217.5,127.25,219"/>
	<path fill="#3D897E" d="M107.75,232.75c0,1.5-1.75,2.75-3.75,2.75s-3.5-1.25-3.5-2.75S102,230,104,230S107.75,231.25,107.75,232.75
		"/>
	<path fill="#3D897E" d="M107.75,205.25c0,1.5-1.75,2.75-3.75,2.75s-3.5-1.25-3.5-2.75c0-1.25,1.5-2.5,3.5-2.5
		S107.75,204,107.75,205.25"/>
	<path fill="#6ECDB5" d="M169,252.75c0-2.5-2.75-4.5-6.25-4.5c-117.25,0-117.25,0-117.25,0c-3.5,0-6.25,2-6.25,4.5
		c0,11.75,0,11.75,0,11.75c0,0.25,0,0.25,0,0.25l0,0c0,4.5,0,4.5,0,4.5c6.25,0,6.25,0,6.25,0c117.25,0,117.25,0,117.25,0
		c6.25,0,6.25,0,6.25,0c0-4.5,0-4.5,0-4.5l0,0c0-0.25,0-0.25,0-0.25C169,252.75,169,252.75,169,252.75"/>
	<polygon fill="#49A493" points="169,269.25 159.25,269.25 169,269.25 169,264.75 169,264.75 169,264.5 169,263.25 169,269.25 	"/>
	<path fill="#7A7B7C" d="M49.5,269.25L49.5,269.25L49.5,269.25z"/>
	<path fill="#7A7B7C" d="M159.25,269.25L159.25,269.25L159.25,269.25z"/>
	<polygon fill="#49A493" points="39.25,264.75 39.25,264.75 39.25,264.5 39.25,264.75 	"/>
	<polygon fill="#53B49D" points="169,269.25 39.25,269.25 39.25,264.75 39.25,264.75 39.25,264.5 39.25,263.25 169,263.25 
		169,264.5 169,264.75 169,264.75 169,269.25 	"/>
	<polygon fill="#674429" points="194.5,296.75 285.5,296.75 285.5,258.75 194.5,258.75 194.5,296.75 	"/>
	<polygon fill="#674429" points="197.75,301.5 282.25,301.5 282.25,296.75 197.75,296.75 197.75,301.5 	"/>
	<polygon fill="#4F3322" points="199.25,277.75 280.75,277.75 280.75,262 199.25,262 199.25,277.75 	"/>
	<path fill="#F5F5F5" d="M243,269.75c0,1.25-1.25,2.5-3,2.5s-3-1.25-3-2.5s1.25-2.25,3-2.25S243,268.5,243,269.75"/>
	<polygon fill="#3B281B" points="199.25,279.25 280.75,279.25 280.75,277.75 199.25,277.75 199.25,279.25 	"/>
	<polygon fill="#3B281B" points="197.75,298.25 282.25,298.25 282.25,296.75 197.75,296.75 197.75,298.25 	"/>
	<polygon fill="#4F3322" points="287,258.75 193,258.75 193,255.5 287,255.5 287,258.75 	"/>
	<path fill="#F8F8F8" d="M52,105.25C52,95.25,62.75,87,76.25,87c13.25,0,24.25,8.25,24.25,18.25s-11,18.25-24.25,18.25
		C62.75,123.5,52,115.25,52,105.25"/>
	<path fill="#525759" d="M76.25,125.5c-2.75,0-5.5-0.25-8-1c0-2,0-2,0-2c2.5,0.5,5,1,8,1c2,0,4.25-0.25,6-0.75c0,2.25,0,2.25,0,2.25
		C80.5,125.25,78.25,125.5,76.25,125.5 M95.5,119.25c0-3,0-3,0-3c3.25-3,5-7,5-11s-1.75-7.75-5-11c0-3,0-3,0-3
		c4.75,3.5,7.75,8.5,7.75,14S100.25,115.75,95.5,119.25 M55,117.75c-3.75-3.5-5.75-7.75-5.75-12.5s2-9,5.75-12.5
		c0,3.75,0,3.75,0,3.75c-2,2.75-3,5.5-3,8.75s1,6.25,3,8.75C55,117.75,55,117.75,55,117.75 M68.25,88c0-2,0-2,0-2
		c2.5-0.75,5.25-1,8-1c2,0,4.25,0.25,6,0.5c0,2.25,0,2.25,0,2.25c-1.75-0.5-4-0.75-6-0.75C73.25,87,70.75,87.5,68.25,88"/>
	<path fill="#475454" d="M68.25,124.5c-5.5-1.25-10-3.5-13.25-6.75c0-3.75,0-3.75,0-3.75c2.75,4,7.5,7,13.25,8.5
		C68.25,124.5,68.25,124.5,68.25,124.5 M55,96.5c0-3.75,0-3.75,0-3.75c3.25-3.25,7.75-5.5,13.25-6.75c0,2,0,2,0,2
		C62.5,89.5,57.75,92.75,55,96.5"/>
	<path fill="#475454" d="M82.25,125c0-2.25,0-2.25,0-2.25c5.5-1,10-3.25,13.25-6.5c0,3,0,3,0,3C92,122,87.5,124,82.25,125
		 M95.5,94.25c-3.25-3-7.75-5.5-13.25-6.5c0-2.25,0-2.25,0-2.25c5.25,1,9.75,3,13.25,5.75C95.5,94.25,95.5,94.25,95.5,94.25"/>
	<path fill="#5A5B5D" d="M76.25,123.5c-3,0-5.5-0.5-8-1C62.5,121,57.75,118,55,114c-2-2.5-3-5.5-3-8.75s1-6,3-8.75
		c2.75-3.75,7.5-7,13.25-8.5c2.5-0.5,5-1,8-1c2,0,4.25,0.25,6,0.75c5.5,1,10,3.5,13.25,6.5c3.25,3.25,5,7,5,11s-1.75,8-5,11
		c-3.25,3.25-7.75,5.5-13.25,6.5C80.5,123.25,78.25,123.5,76.25,123.5 M76.25,87.25c-13.25,0-24,8-24,18s10.75,18,24,18s24-8,24-18
		S89.5,87.25,76.25,87.25"/>
	<path fill="#5A5B5D" d="M76.5,119.5H76l-1-12.75l1.5-1l1,0.75L76.5,119.5L76.5,119.5z M77.5,105.75L77,105.5l0.5-0.25v0.25V105.75
		L77.5,105.75z M75,105.5l0.25-0.75L75.5,105L75,105.5L75,105.5z M75.75,104.5l-0.5-0.25l0.25-0.5H77l0,0L75.75,104.5L75.75,104.5z"
		/>
	<path fill="#5A5B5D" d="M74.75,106.75l-0.75-0.5l1-0.75h-0.25l0.25,1.25H74.75L74.75,106.75z M77.5,105.25l-0.5-1.5l14-10L91.25,94
		L77.5,105.25L77.5,105.25z"/>
	<path fill="#242322" d="M75,106.75l-0.25-1.25H75l0.5-0.5l1,0.75L75,106.75L75,106.75z M77,105.5l-1.25-1l1.25-0.75l0.5,1.5
		L77,105.5L77,105.5z"/>
	<path fill="#5A5B5D" d="M79.75,108l-2.25-1.5l0,0v-0.75L78,106l2,2H79.75L79.75,108z M75.25,104.75l-14.5-11V93.5l14.5,10.75
		V104.75L75.25,104.75z"/>
	<path fill="#242322" d="M77.5,106.5l-1-0.75l0.5-0.25l0,0l0.5,0.25V106.5L77.5,106.5z M75.5,105l-0.25-0.25v-0.5l0.5,0.25l0,0
		L75.5,105L75.5,105z"/>
	<polygon fill="#161514" points="76.5,105.75 75.5,105 75.75,104.5 75.75,104.5 77,105.5 77,105.5 76.5,105.75 	"/>
	<polygon fill="#5A5B5D" points="75.75,90 76.5,90 76.5,87.75 75.75,87.75 75.75,90 	"/>
	<polygon fill="#5A5B5D" points="75.75,122.5 76.5,122.5 76.5,120.5 75.75,120.5 75.75,122.5 	"/>
	<polygon fill="#5A5B5D" points="53,105.5 56,105.5 56,105 53,105 53,105.5 	"/>
	<polygon fill="#5A5B5D" points="96.5,105.5 99.5,105.5 99.5,105 96.5,105 96.5,105.5 	"/>
</g>
</svg>
