<?xml version="1.0" encoding="utf-8"?>
<!-- Generator: Adobe Illustrator 16.0.0, SVG Export Plug-In . SVG Version: 6.00 Build 0)  -->
<!DOCTYPE svg PUBLIC "-//W3C//DTD SVG 1.1//EN" "http://www.w3.org/Graphics/SVG/1.1/DTD/svg11.dtd">
<svg version="1.1" id="Layer_1" xmlns="http://www.w3.org/2000/svg" xmlns:xlink="http://www.w3.org/1999/xlink" x="0px" y="0px"
	 width="128px" height="100px" viewBox="0 0 128 100" enable-background="new 0 0 128 100" xml:space="preserve">
<g>
	<path fill="#E79020" d="M73.3,66.1c0,0,1.3,16.5,4.3,17.5s11.8-1.5,11.8-1.5s0.3,5.5,2,6c0.3,0,0.8,0,1,0.3c0.8,0,1.3-0.3,1.8-0.3
		c1-0.3,1.8-0.5,2.8-1c0.5-0.5,1.3-1,1.8-1.5c0.5-0.8,1-1.3,1.3-2c1.5-2.8,0.8-12-1-13c-2-0.8-13.5,1.5-13.5,1.5
		c-1.3-10-1.3-10-1.3-10C73.3,66.1,73.3,66.1,73.3,66.1z"/>
	<path fill="#AF571E" d="M92.3,88.4c0.8,0,1.3-0.3,1.8-0.3c0.3-0.5,0.3-1,0.5-1.5c0.3-1.3,0-2.3-0.5-3.3c-0.3-0.5-0.5-0.3-0.8,0.3
		c-0.3,0.8-0.3,1.8-0.3,2.8C92.8,87.1,92.6,87.6,92.3,88.4z"/>
	<path fill="#AF571E" d="M96.8,87.1c0.5-0.5,1.3-1,1.8-1.5c0.5-1.3,0.5-2.8,0.3-4c-0.3-0.5-1-0.5-1.3,0c0,1.5,0,2.8-0.3,4
		C97.3,86.1,97.1,86.6,96.8,87.1z"/>
	<path fill="#E79020" d="M43.8,94.6c0.5,0.8,2.5,1.5,4.5,1.8c0.5,0,1,0.3,1.3,0.3c1.5,0,3,0,4.3-0.3c0.5,0,0.8-0.3,1.3-0.3
		c0.8-0.3,1.5-0.8,1.5-1c0-1.5-6-10.5-6-10.5s0,0,5-1.8c5-2.5,2.5-7.5,2.5-7.5c-1.5-11.5-17-10.5-17.8-10c-0.5,0.8,2,11.5,2,11.5
		s-4-1.3-5.5,0C35.6,78.1,41.1,90.6,43.8,94.6z"/>
	<path fill="#AF571E" d="M51.6,91.6c0,1,0.8,1.8,1.3,2.5c0.3,0.8,0.8,1.5,1,2.3c0.5,0,0.8-0.3,1.3-0.3c-0.3-0.8-0.8-1.8-1-2.5
		c-0.5-0.8-1.3-2-2.3-2.3C51.6,91.4,51.6,91.4,51.6,91.6z"/>
	<path fill="#AF571E" d="M46.6,91.9c0,1,0.8,2,1.3,3c0.3,0.5,0.5,1,0.5,1.5c0.5,0,1,0.3,1.3,0.3c-0.3-1-0.5-1.8-1-2.5
		c-0.3-1-0.8-2-1.5-2.5C46.8,91.6,46.6,91.6,46.6,91.9z"/>
	<path fill="#CB6E1C" d="M2.3,24.1c0.3,2,5.5,2.5,5.5,2.5s-5.8,3-3.5,4.5c1.5,1,3.8,0.3,5-0.5c0.5-0.3,1-0.5,1-0.5s0,6.3,3,5
		c2.8-1.5,1.3-5.5,1.3-5.5c0.3,0,4,4,5.8,2.5c1.5-1.5-2.3-5.3-2.3-5.3s6.5,0.8,6-2c-0.8-3-6.5-2.3-6.5-2.3l0,0
		c0.3-0.3,2.5-3.8,1-6.5c-1.3-2.8-5,4.5-5,4.3c0-0.5-4.5-6.5-6-4c-1.3,2.3,1.8,6.3,1.8,6.3S2.1,22.1,2.3,24.1z"/>
	<path fill="#F7C020" d="M13.3,24.1c0.5-0.5,1.3,0,1,0.5c-0.5,2.5-3.3,8.5-2.5,12.3c1.3,7.3,6.5,11.5,8.3,11.5
		c-0.5,2.3-0.5,2.3-0.5,2.3s-6.5-1.8-9.3-9C7.6,34.6,10.1,28.9,13.3,24.1z"/>
	<path fill="#E79020" d="M2.3,24.1c0.3,2,5.5,2.5,5.5,2.5s-5.8,3-3.5,4.5c1.5,1,3.8,0.3,5-0.5c-1,0.3-3.8,0.8-4-0.5
		c-0.3-1.5,5-4.3,5-4.3s-4.5-1.3-4.3-2c0-0.8,5.5,0,5.5,0s-2.3-5.3-1.8-5.5c0.5-0.5,3.3,2.8,4.3,4.3c0.3-0.8,2.8-4.5,3.5-4.3
		s0,4,0,4.3c0.3-0.3,2.5-3.8,1-6.5c-1.3-2.8-5,4.5-5,4.3c0-0.5-4.5-6.5-6-4c-1.3,2.3,1.8,6.3,1.8,6.3S2.1,22.1,2.3,24.1z"/>
	<path fill="#F7C020" d="M16.3,59.4c0.5,4,1.3,7.8,4,10.8c3.3,4,9.5,7,22.8,7.8c15.8,1.3,30.5-5,38.5-8.8c3.8-2,5.8-3.3,5.8-3.3
		c1.8-18.5,1.8-18.5,1.8-18.5s-18.5-10.5-26-11.8c-7.8-1.5-29.3,2-34.3,4C21.8,42.1,14.8,50.6,16.3,59.4z"/>
	<path fill="#E79020" d="M20.3,70.1c3.3,4,9.5,7,22.8,7.8c15.8,1.3,30.5-5,38.5-8.8c0.5-3.8,0.5-3.8,0.5-3.8c-6-6-6-6-6-6
		s-16.5,8.8-25,9c-2-6-9-14.5-9-14.5c0.3,1-2.5,15.5-10.3,18.5C27.6,74.1,23.6,72.6,20.3,70.1z"/>
	<path fill="#F7C020" d="M54.1,57.1c0,0.8,0,1.3,0,2c2.5,12.5,7.3,35.8,9.3,36.3c0.8,0.5,2.5,1,4.5,1.3c0.5,0,1,0,1.5,0
		c1.5,0,3,0,4.5,0c0.5,0,1,0,1.5-0.3c1.8-0.3,3.3-1,2.8-2c-0.5-2.5-9.8-38-9.8-38c-0.8-3.8-4-6.3-8-5.8
		C56.8,50.9,54.3,53.9,54.1,57.1z"/>
	<path fill="#E79020" d="M71.1,91.4c0.5,1,1.5,1.8,2,2.8c0.3,0.8,0.5,1.5,0.8,2.5c0.5,0,1,0,1.5-0.3c0-1-0.3-2-0.8-2.8
		c-0.5-1.3-1.5-2.8-3-3C71.3,90.6,71.1,90.9,71.1,91.4z"/>
	<path fill="#E79020" d="M66.6,91.1c0.3,1.3,1,2,1.3,3.3c0.3,0.8,0.3,1.5,0,2.3c0.5,0,1,0,1.5,0c0.3-0.8,0.3-1.8,0-2.5
		c-0.3-1.3-0.8-3-2-3.5C66.8,90.4,66.3,90.9,66.6,91.1z"/>
	<path fill="#CB6E1C" d="M52.6,53.9c0,0-4.5,3.3-3.3,7.8s13.8-1,13.8-1s-4,5-0.3,8.5c3.7,3.5,12.7-5.8,12.7-5.8s-0.8,8,3.5,9.8
		c4.3,2,8.3-7.3,8.3-7.3s0.8,8.3,5.3,8.8s6.3-8,6.3-8s4.8,7,7.8,6c3-1.3,2.5-8.8,2.5-8.8s4,2.5,8,0.3c3.8-2.3-2.5-9.3-2.5-9.5
		c0,0.3,6.3,3.3,8.8-0.8c2.5-4.3-8.8-11.8-8.8-11.8s11.8-2.8,12-6.8c0-3.8-12-4.3-12-4.3s9.3-7.5,6.8-11.5c-3.5-5.5-13,0.8-13.3,1
		l0,0c0,0,3.8-10.8,0.8-12.8s-13.3,7.3-13.3,7.3s3-7.3-1.3-11s-11.3,8.5-11.3,8.5s-1.3-7.8-6.3-10c-4.8-2.5-7.8,11.3-7.8,11.3
		s-6.2-8.5-10.2-6.5c-4,2.3,1,13,1,13s-9.8-2-12,1.8c-2,4,7.8,9.5,7.8,9.5s-10.8,0-11,3s7,7.3,7.8,7.5l0,0c0,0-9.5-0.5-9.8,4.3
		C42.3,51.4,52.6,53.9,52.6,53.9z"/>
	<path fill="#F7C020" d="M59.3,53.4c1,3.8,41,12.5,45.5,9.5c1.3-1,2.3-6,2.8-12.3c0.8-10,0.8-22.8-0.5-24.5
		c-0.5-1.3-6.5-2.8-13.8-4.5c-2.3-0.5-4.8-0.8-7-1.3c-8.8-1.8-16.8-2.8-17.8-2c-1.5,1-5.7,15.5-8,25.5
		C59.6,48.6,59.1,52.6,59.3,53.4z"/>
	<path fill="#E79020" d="M80.8,32.9c0,0,0.8,3.8-3.5,5c-3.8,1.5-8.8-1.8-7.5-5.8c0.8-2.8,2.8-4.3,2.8-4.3
		C80.8,32.9,80.8,32.9,80.8,32.9z"/>
	<path fill="#E79020" d="M94.6,34.6c0,0-1.8,2.8-0.5,6.3c1,3.3,4.8,3.5,6.5,3s3.8-2.8,3.5-5.8S94.6,34.6,94.6,34.6z"/>
	<path fill="#CB6E1C" d="M78.8,43.9c0,0,1,1,12.8,3.5c0.5-1.8,1.5-19.8,1.8-25.8c-2.3-0.5-4.8-0.8-7-1.3
		C83.8,26.4,78.8,43.9,78.8,43.9z"/>
	<path fill="#341F17" d="M80.3,52.1L80.3,52.1c0.3,2,1,3.8,2.3,4.3c1.8,0.5,3-0.8,4-2.3c1.3-2.3,2-4.8,2-4.8
		c-3.5-5.3-3.5-5.3-3.5-5.3c-4.5,2.5-4.5,2.5-4.5,2.5S80.1,49.6,80.3,52.1z"/>
	<path fill="#FFFFFF" d="M100.3,32.4c1.5,0.3,4.3,2.5,3.8,5.8c-0.3,3.3-3.5,5.3-7,3.8c-3.5-1.3-3.5-5-2.5-7.3S98.3,31.9,100.3,32.4z
		"/>
	<path fill="#341F17" d="M95.6,36.1c0.3,0,0.3,0.3,0.5,0.3c0,0.3,0,0.3,0,0.3c0.3,0,0.5,0,0.5,0c0.3,0.3,0.5,0.3,0.5,0.3
		c0.5,0,1-0.3,1.5-0.5c0.3-0.3,0.5-0.8,0.5-1.3c0.3-0.3,0-0.5,0-0.8s-0.3-0.5-0.3-0.5c-0.3-0.3-0.3-0.3-0.5-0.5c0.3,0,0.8,0,1,0
		c2,0.3,3.8,2,3.5,4.3c0,2.3-2,3.8-4,3.8c-2.3-0.3-4-2.3-3.8-4.3c0-0.5,0.3-1,0.3-1.5C95.6,35.9,95.6,35.9,95.6,36.1z"/>
	<path fill="#FFFFFF" d="M76.8,27.1c1.5,0.3,4.3,2.5,4,5.8c-0.5,3.3-3.8,5.3-7.3,3.8c-3.3-1.3-3.5-5-2.3-7.3
		C72.1,27.1,74.8,26.6,76.8,27.1z"/>
	<path fill="#FFFFFF" d="M90.8,49.6c0,0-0.8,2.5-1,2c-0.5-0.3-0.3-2.3-0.3-2.3C90.8,49.6,90.8,49.6,90.8,49.6z"/>
	<path fill="#FFFFFF" d="M88.8,49.4c0,0-0.5,2.5-1,2.3c-0.3-0.3,0-2.5,0-2.5C88.8,49.4,88.8,49.4,88.8,49.4z"/>
	<path fill="#FFFFFF" d="M87.1,48.1c0,0-0.5,2.5-1,2.3c-0.3-0.3,0-2.5,0-2.5C87.1,48.1,87.1,48.1,87.1,48.1z"/>
	<path fill="#FFFFFF" d="M77.8,46.6c0,0-0.5,2.5,0,2.5c0.5-0.3,1.3-2.3,1.3-2.3C77.8,46.6,77.8,46.6,77.8,46.6z"/>
	<path fill="#FFFFFF" d="M79.8,47.1c0,0-0.8,2.5-0.3,2.5c0.5-0.3,1.3-2.3,1.3-2.3C79.8,47.1,79.8,47.1,79.8,47.1z"/>
	<path fill="#FFFFFF" d="M82.3,46.6c0,0-0.8,2.5-0.3,2.5s1.3-2,1.3-2C82.3,46.6,82.3,46.6,82.3,46.6z"/>
	<path fill="#341F17" d="M72.3,30.9l0.3,0.3c0.3,0.3,0.3,0.3,0.3,0.3s0.3,0,0.5,0c0,0.3,0.3,0.3,0.5,0.3c0.5,0,1-0.3,1.3-0.5
		c0.5-0.3,0.8-0.8,0.8-1.3c0-0.3,0-0.5-0.3-0.8c0-0.3,0-0.5-0.3-0.8c0,0-0.3,0-0.3-0.3c0.3,0,0.5,0,0.8,0c2.3,0.3,3.8,2,3.8,4.3
		c-0.3,2.3-2,3.8-4.3,3.8c-2.3-0.3-3.8-2.3-3.8-4.3c0-0.5,0.3-1,0.5-1.5C72.1,30.6,72.1,30.6,72.3,30.9z"/>
	<path fill="#FFFFFF" d="M77.8,47.9c3.8,2,6.8-1.3,6.8-1.3s1,3,3.8,4c1.8,0.8,5.5,0.5,5.3-3.3c0,0,0-0.3,0-0.5
		c-0.5-3.3-4.3-4.8-7.3-5.5c-4.3-1-7.3-0.3-8.8,0.5c0,0.3-0.3,0.3-0.3,0.3C76.3,42.9,74.1,45.9,77.8,47.9z"/>
	<path fill="#EAE9EB" d="M77.8,47.9c3.8,2,6.8-1.3,6.8-1.3s1,3,3.8,4c1.8,0.8,5.5,0.5,5.3-3.3c0,0,0-0.3,0-0.5c-0.5,1-1.5,2.5-4,1.8
		c-3-1-4.5-4.5-4.5-4.5s-5.5,5.3-7.5,1.5c-0.5-1-0.3-2.5,0-3.8c0,0.3-0.3,0.3-0.3,0.3C76.3,42.9,74.1,45.9,77.8,47.9z"/>
	<path fill="#341F17" d="M89.1,44.6c0.3,1-2.3,2.3-4.3,1.8c-2.3-0.5-3.5-2.8-3-3.5C82.1,42.6,88.8,43.6,89.1,44.6z"/>
	<path fill="#EE463F" d="M80.3,52.1L80.3,52.1c0.3,2,1,3.8,2.3,4.3c1.8,0.5,3-0.8,4-2.3c0-0.3,0-0.3,0-0.3c-0.3-1.5-2.8-0.5-2.8-0.8
		C83.3,51.9,80.6,51.1,80.3,52.1z"/>
	<path fill="#E79020" d="M44.6,34.6c-0.3,3,7,7.3,7.8,7.5l0,0c0.5,0.5-2.8-4.8-2.3-6.3c0.8-1.5,3.3-2,11.5-2.3
		c-2.5-1.5-9.5-7.3-8.8-9.3c1-2,10.5-0.3,10.5-0.3s-2.8-7.5-2.5-11s4.7,0.3,9.5,4c0.3-0.5,4-8.3,6-9s6.5,9.8,6.5,10
		c0,0.5,7-9.5,8.8-8.5c1.8,0.8,1.3,6.5,1,10.3c0.3-0.5,11.5-7.3,13.5-7s2,7.8,2,7.8s3.8-10.8,0.8-12.8s-13.3,7.3-13.3,7.3
		s3-7.3-1.3-11s-11.3,8.5-11.3,8.5s-1.3-7.8-6.3-10c-4.8-2.5-7.8,11.3-7.8,11.3s-6.2-8.5-10.2-6.5c-4,2.3,1,13,1,13s-9.8-2-12,1.8
		c-2,4,7.8,9.5,7.8,9.5S44.8,31.6,44.6,34.6z"/>
	<path fill="#EE2F34" d="M64.1,40.4c-0.3,1,1.7,2.5,4.5,3.3s5.3,0.5,5.5-0.5c0.3-1.3-1.8-2.8-4.5-3.5S64.3,39.1,64.1,40.4z"/>
	<path fill="#EE2F34" d="M97.3,47.9c-0.3,1,1.8,2.5,4.5,3.3s5.3,0.5,5.8-0.5c0.3-1.3-1.8-2.8-4.5-3.5S97.8,46.6,97.3,47.9z"/>
	<path fill="#E79020" d="M59.3,53.4c1,3.8,41,12.5,45.5,9.5c1.3-1,2.3-6,2.8-12.3l0,0c0,0-2.8,10-5.5,9.8c-4.3-0.3-39.5-5.5-40.5-9
		c-0.5-2-0.8-5-1-7.5C59.6,48.6,59.1,52.6,59.3,53.4z"/>
	<path fill="#E79020" d="M72.6,24.4c0.3,0,0.8-0.3,1-0.3c0.8-0.3,1.5-0.5,2.3-0.5s1.8,0,2.5,0.3c0.5,0,2.5,0.5,2.3,1.3
		c0,0-0.3,0-0.5,0.3l-0.3-0.3c-0.8,0-1.3-0.3-1.8-0.3c0.3,0,0.5,0.3,0.8,0.3c0.3,0.3,0.8,0.5,0.8,0.8c0.3,0.3,0.3,0.5,0.3,0.5
		c-0.3,0.3-0.3,0.3-0.5,0c-2-0.3-4-1-6-1.3c-0.3,0-0.5,0-0.5,0C72.3,25.1,72.3,24.6,72.6,24.4L72.6,24.4z"/>
	<path fill="#E79020" d="M104.3,31.1c0-0.3-0.3-0.5-0.5-0.8c-0.5-0.5-1.3-1-1.8-1.5c-0.8-0.3-1.8-0.8-2.5-0.8
		c-0.5-0.3-2.5-0.5-2.5,0c0,0.3,0.3,0.5,0.3,0.5c0.3,0,0.3,0,0.5,0c0.5,0.3,1,0.3,1.8,0.5c-0.5,0-0.8,0-1,0c-0.5,0-0.8,0.3-1.3,0.3
		c0,0.3-0.3,0.3-0.3,0.5c0.3,0,0.3,0,0.5,0.3c2,0.3,4,0.8,6,1.5c0.3,0,0.3,0,0.5,0C104.3,31.9,104.6,31.4,104.3,31.1L104.3,31.1z"/>
	<path fill="#F2576E" d="M73.6,11.4c0.8-1,5.8-1.5,6.8,0.3c0.8,2-1.5,5.8-1.5,6c-4.8,0-4.8,0-4.8,0S72.8,12.4,73.6,11.4z"/>
	<path fill="#D63E57" d="M77.6,16.9c0-0.3,1.3-2.8,0.5-3.3c-1-0.5-3-0.5-3,0.5c0.3,0.8,1,2.8,1,2.8C77.6,16.9,77.6,16.9,77.6,16.9z"
		/>
	<path fill="#F7C020" d="M70.8,10.9c-0.8,3.3,3,6.8,3.3,6.8c1.5,0.3,1.5,0.3,1.5,0.3v-0.3c-0.3-0.8-1.5-3-1.3-4.5
		c0-1.5,3.8-1.5,4.8-0.5c0.8,1-0.8,4-1.3,4.8c0,0.3-0.3,0.3-0.3,0.3s0,0,1.5,0.5c1.5-2.3,3.5-4.8,3.3-7.3c0-2.3-3.5-2.8-5.3-2.8
		S71.6,8.6,70.8,10.9z"/>
	<path fill="#E79020" d="M72.6,11.6c0,1.3,1.5,6,1.5,6c1.5,0,1.5,0,1.5,0c-0.3-0.8-1.5-3-1.3-4.5c0-1.5,3.8-1.5,4.8-0.5
		c0.8,1-0.8,4-1.3,4.8c1.3,0,1.3,0,1.3,0s2.8-4.5,1.5-6.3C79.1,9.4,72.3,10.4,72.6,11.6z"/>
	<path fill="#F2576E" d="M102.6,15.4c1-0.8,6.8,0.3,7.3,2.8c0.3,2.3-3.8,5.5-3.8,5.8c-5-1.5-5-1.5-5-1.5S101.3,16.4,102.6,15.4z"/>
	<path fill="#D63E57" d="M105.1,22.9c0-0.5,2.3-2.8,1.5-3.5c-0.8-1-3-1.5-3.3-0.5s0,3.5,0,3.5C105.1,22.9,105.1,22.9,105.1,22.9z"/>
	<path fill="#F7C020" d="M99.8,13.9c-1.8,3.3,1,8.3,1.3,8.5c1.5,0.8,1.5,0.8,1.5,0.8v-0.3c0-1-0.5-3.8,0-5.3c0.8-1.8,5-0.5,5.5,1
		s-2,4-3,4.8c0,0.3-0.3,0.3-0.3,0.3s0,0,1.3,0.8c2.5-1.8,5.5-3.8,6.3-6.5c0.5-2.5-3-4-4.8-4.8C105.6,12.6,101.3,11.6,99.8,13.9z"/>
	<path fill="#E79020" d="M101.3,15.4c-0.5,1.5-0.3,7-0.3,7c1.5,0.5,1.5,0.5,1.5,0.5c0-1-0.5-3.8,0-5.3c0.8-1.8,5-0.5,5.5,1
		s-2,4-3,4.8c1.5,0.3,1.5,0.3,1.5,0.3s4.5-3.8,3.5-6.3C109.3,15.1,101.8,13.9,101.3,15.4z"/>
	<path fill="#CB6E1C" d="M107.6,24.9c0.3-0.5,3.3-1.5,2.5-2.3c-0.8-1-3.3,0-3.3,0s-0.5-2.5-1.3-2.3c-1,0.3-1,1-1,1s-1.8-3-2.8-2
		c-0.8,1-0.5,1.8-0.5,1.8s-2.5-3-2.8-1.8c-0.5,1.5,0.5,2.8,0.5,2.8C107.6,24.9,107.6,24.9,107.6,24.9z"/>
	<path fill="#CB6E1C" d="M80.1,18.1c0,0,2.3-2.5,1-3s-2.3,1.5-2.3,1.5c0-0.3-0.3-2.5-1-2.3c-1,0.5-1,2-1,2s-1.8-2.5-2.3-1.8
		s-0.3,2-0.3,2s-1.3-2.5-1.8-1s1.3,2,1.3,2C80.1,18.1,80.1,18.1,80.1,18.1z"/>
	<path fill="#F7C020" d="M28.1,95.1c0.5,0.8,1.8,1,3.3,1.3c0.5,0.3,1.3,0.3,1.8,0.3c1,0.3,2.3,0.3,3.3,0.3c0.5,0,1.3,0,1.8-0.3
		c0.5,0,1,0,1.5,0c0.5-0.3,0.8-0.3,1-0.5c0.3,0,0.3,0,0.3,0c1.3-1-1.3-3.8-5.5-15.5c8.5,0.3,10.3-6,10-12.5c-0.3-6.8-3-14-3.3-14.3
		l-0.3-0.3c-6.8-8.8-17.5-3.8-19.8,0.3c-2.5,4,3.8,19.3,3.8,19.3s-6,0.5-6.5,2.3C18.8,77.4,26.1,93.1,28.1,95.1z"/>
	<path fill="#E79020" d="M33.6,90.4c0.5,1.5,1.5,2.8,2,4c0,0.3,0,0.5,0.3,0.5c0.3,0.8,0.3,1.3,0.5,2c0.5,0,1.3,0,1.8-0.3
		c0-0.3,0-0.5-0.3-0.8c0-0.8-0.5-1.8-0.8-2.5c-0.5-1.5-1.3-2.8-2.5-3.8C34.1,89.4,33.6,90.1,33.6,90.4z"/>
	<path fill="#E79020" d="M28.8,91.6c0.5,1,1.5,2,2,3c0.3,0.8,0.5,1.3,0.5,1.8c0.5,0.3,1.3,0.3,1.8,0.3c-0.3-2.3-1.5-5-3.3-6
		C29.3,90.6,28.6,90.9,28.8,91.6z"/>
	<path fill="#AF571E" d="M31.6,78.1c0,0.3,7,13,8,18.5c0.5-0.3,0.8-0.3,1-0.5c0.3,0,0.3,0,0.3,0c1.3-1-1.3-3.8-5.5-15.5
		c8.5,0.3,10.3-6,10-12.5c-0.3-6.8-3-14-3.3-14.3l-0.3-0.3c1.3,6,3,18.5-0.5,22.3C37.1,80.4,31.6,78.1,31.6,78.1z"/>
</g>
</svg>
