<?xml version="1.0" encoding="utf-8"?>
<!-- Generator: Adobe Illustrator 16.0.0, SVG Export Plug-In . SVG Version: 6.00 Build 0)  -->
<!DOCTYPE svg PUBLIC "-//W3C//DTD SVG 1.1//EN" "http://www.w3.org/Graphics/SVG/1.1/DTD/svg11.dtd">
<svg version="1.1" id="Layer_1" xmlns="http://www.w3.org/2000/svg" xmlns:xlink="http://www.w3.org/1999/xlink" x="0px" y="0px"
	 width="344px" height="311px" viewBox="0 0 344 311" enable-background="new 0 0 344 311" xml:space="preserve">
<g>
	<path fill="#EE5C6F" d="M219.7,284.3c0.1,0.6,0.5,1,0.8,1.5c1.5,1.7,3.8,3,6.3,3.5c4.8,0.7,14.5-2.5,8.5-8c-2-1.7-5-2.5-7.5-2.2
		S219.2,280.8,219.7,284.3z"/>
	<path fill="#F37888" d="M127.5,191.1c0,0,0,0,0,0.3c-1,5-2,10-4.3,14.7c-0.8,2-2,4-3.3,5.7c0,0.3,0,0.3,0,0.3c-0.5,0.3-0.8,0.7-1,1
		l0,0c-1.3,1.7-3,3.2-4.5,4.5c-4.3,3.5-9,6-14,7.7c-15.5,5.2-33.2,3.2-47.2-5c-14-8.5-24-23-26.8-39.2c-0.8-4.2-1-8.7-4-12
		c-3-3.5-8.5-4.2-12-1.5c-1.8,1.5-3,3.7-5.3,4c-3,0.5-4.8-2.5-5.3-6c0-1,0-2,0.3-3c1.8-10.7,10-20,20.2-23c10.3-3,22.3,0.3,29.8,8
		c3.5,3.7,6,8.5,8.8,13c2.8,4.2,6,8.5,10.5,10.7c2.5,1.2,5,2,7.5,2c3.8,0.3,7.5-0.7,10.7-3c5.3-3.5,8.3-10.2,7.5-16.5
		c23.8,14.5,23.8,14.5,23.8,14.5c4.3,1.2,7.3,5.2,8.5,9.5C128.5,182.3,128,186.8,127.5,191.1z"/>
	<path fill="#F6A0B0" d="M123.2,206.1c-1.9,1-2,4-3.3,5.7c0,0.3,0,0.3,0,0.3c-0.5,0.3-0.8,0.7-1,1l0,0c-1.3,1.7-3,3.2-4.5,4.5
		c-4.3,3.5-9,6-14,7.7c-15.5,5.2-33.2,3.2-47.2-5c-14-8.5-24-23-26.8-39.2c-0.8-4.2-1-8.7-4-12c-3-3.5-8.5-4.2-12-1.5
		c-1.8,1.5-3,3.7-5.3,4c-3,0.5-4.8-2.5-5.3-6c1.8-0.5,2.5-2,5.5-5.5c4-4.7,11.3-6.2,17-3.7c6.8,3,11,9.2,14.3,15.7
		c3.3,6.5,5.5,13.5,9.8,19.2c7,10,19,15.5,31,17.5c12,2,24.2,0.8,36.5-0.5C117,208.1,120.5,207.6,123.2,206.1z"/>
	<path fill="#F37888" d="M163.7,215.6L163.7,215.6c-0.3,1.5-0.3,3-0.5,4.5c-0.5,6.2-2,12.2-4.3,18.2c-6.5,16.2-19.8,30-36.5,35.7
		c-6.8,2.2-14,3.5-20.5,7c-6.3,3.5-11.3,10.7-9.3,17.7c0.8,1.7,1.8,3.5,1.8,5.5c0,1.7-1,3.2-2.3,4.5c-1.5,1.2-3.8,2.2-6,2.2
		c-7.7,0.3-14.2-5.7-18.2-12.5c-6.3-10.7-7.8-24.2-4-36c3.8-12,12.5-22.2,23.5-27.7c10.5-5.2,24.3-7.2,30-17c0.3-0.3,0.5-0.7,0.8-1
		c0.5-1.2,1-2.2,1.3-3.5c0.3-0.5,0.5-1,0.5-1.5c1.8-7.2,1.5-15.2,6.3-20.5c1.3,0,1.3,0,1.3,0c32.2-4.7,32.2-4.7,32.2-4.7
		c1.8,5,2.8,10.2,3.5,15.5c0,0,0,0,0,0.3c0,1.2,0.3,2.7,0.3,4.2c0.3,1,0.3,2.2,0.3,3.5C163.7,211.8,163.7,213.8,163.7,215.6z"/>
	<path fill="#F6A0B0" d="M163.7,215.6L163.7,215.6c-0.3,1.5-0.3,3-0.5,4.5c-0.5,6.2-2,12.2-4.3,18.2c-6.5,16.2-19.8,30-36.5,35.7
		c-6.8,2.2-14,3.5-20.5,7c-6.3,3.5-11.3,10.7-9.3,17.7c0.8,1.7,1.8,3.5,1.8,5.5c0,1.7-1,3.2-2.3,4.5c-4.8-5.7-4.8-14.7-1-21.2
		c3.8-6.7,10.3-11.2,17-14.7s14-6,20.5-9.7c15.2-8.5,25.7-24,29.5-41c1-4.5,0.3-13.7,5.3-15.5c0.3,1,0.3,2.2,0.3,3.5
		C163.7,211.8,163.7,213.8,163.7,215.6z"/>
	<path fill="#F37888" d="M256.2,301c0.1-1.6-3-1.2-4.3-2.2c-3.3-2.5-5.5-6.2-8.5-9c-4.8-4.5-11.3-7-17.7-6.7
		c-4.5,0.3-8.5,1.7-12.8,2.7c-7.5,2-15.3,2.7-22.5,1.2c-7.5-1.5-14.8-5.5-19-12c-5-7.2-5.5-16.5-6-25.5c-0.5-9.7-1-19.7-1.5-29.5
		c-0.3-1.5-0.3-3-0.3-4.5l0,0c-0.3-1.7-0.3-3.5-0.3-5.2c0-0.7,0-1.5-0.3-2c0-2,0-4,0-6c0-0.3,0-0.3,0-0.3c0-2.5,0.3-5,0.8-7.5
		c0.5-2.7,1.5-5.2,3.5-7.5c5.2-6.2,17-9.7,24.8-7c2.5,0.7,4.3,2,6,3.7c5,4.7,7.5,12.5,9,19.2c0,0.8,0.3,1.2,0.3,2
		c0.5,2.2,1,4.2,1.3,6.5c1.3,7.7,2,16,2.3,24c0,8,0.3,17.2,6.3,22.5c7.3,6.7,19.5,3.7,28.2,8.7c5.5,3.2,8.8,9.2,10,15.2
		C257,288.3,256.5,294.8,256.2,301z"/>
	<path fill="#F6A0B0" d="M252,298.8c-2.1-3.5-5.5-6.2-8.5-9c-4.8-4.5-11.3-7-17.7-6.7c-4.5,0.3-8.5,1.7-12.8,2.7
		c-7.5,2-15.3,2.7-22.5,1.2c-7.5-1.5-14.8-5.5-19-12c-5-7.2-5.5-16.5-6-25.5c-0.5-9.7-1-19.7-1.5-29.5c-0.3-1.5-0.3-3-0.3-4.5l0,0
		c-0.3-1.7-0.3-3.5-0.3-5.2c0-0.7,0-1.5-0.3-2c0-2,0-4,0-6c0-0.3,0-0.3,0-0.3c0-2.5,0.3-5,0.8-7.5c1-1.2,2.5-2,4.3-2
		c7,0,4.5,13.2,4.5,18c0.5,16,2.3,32.2,7.5,47.2c2.8,8,7.3,16.5,15.3,19.5c6.5,2.2,13.5,0.7,20.3,0.7
		C230.2,278,244.5,286.3,252,298.8z"/>
	<path fill="#F37888" d="M344,150.1c0,1-0.3,1.7-0.8,2.5c-2,3-8.3-0.3-11.3,0.2c-5.3,0.7-10,4.7-12.3,9.7c-1,2.5-1.5,5.2-2.3,7.7
		c-2.3,9-8.5,16.5-14.8,23.5c-8.3,9-17.8,17.2-29.5,21.5c-15,5.5-39.3,5.7-53.7-1.7c-2-1-4-2.2-5.8-3.5c-1.3-0.7-2.3-1.5-3.5-2.5
		c-1-0.8-1.8-1.5-2.8-2.5c-4.3-4.2-7-9.5-8.5-16.5c-0.3-1-0.5-2.2-0.5-3.5c0-0.5-0.3-0.8-0.3-1.2c-1.5-16.7,13.3-27.5,29.8-22
		c1.3,0.5,2.5,1,3.8,1.5c6.2,3.2,11.5,8.2,18.2,9.7c1.3,0.2,2.8,0.5,4,0.5c7.5,0.3,15-3.7,21.3-8.5c7.5-6,14-13.2,21.5-19.2
		c7.8-6,16.8-10.7,26.5-10.5C327.7,135.6,344.2,142.6,344,150.1z"/>
	<path fill="#F6A0B0" d="M344,150.1c-0.9,0.3-0.3,1.7-0.8,2.5c-2,3-8.3-0.3-11.3,0.2c-5.3,0.7-10,4.7-12.3,9.7
		c-1,2.5-1.5,5.2-2.3,7.7c-2.3,9-8.5,16.5-14.8,23.5c-8.3,9-17.8,17.2-29.5,21.5c-15,5.5-39.3,5.7-53.7-1.7c-2-1-4-2.2-5.8-3.5
		c-1.3-0.7-2.3-1.5-3.5-2.5c-0.3-1.5-0.5-3-1-4.2c-3.5-10-5-19,7.3-10.2c9,6.5,17.2,10.2,28.7,10.7c20,0.7,40.5-9.5,51.3-26.7
		c4.3-7,7.3-15,12.3-21.5c5.3-6.5,13.8-11.2,21.5-8.7c3.3,1,6,3.2,9.5,3.7C341,150.9,342.5,150.6,344,150.1z"/>
	<path fill="#EE5C6F" d="M170.2,2.7c-4.7-1.6-9.5-1-14.5,0.5c-3.5,1.2-11,8-13.5,8c-14.5,13.5-29.7,25.7-43.7,40
		C93,56.7,87,64.4,89,72.4c2.5,8.7,12.5,10.7,20.8,11.2c9,0.5,18,0.7,26.8,1c29,0.7,59.5,0,85-15.2C247.5,53.7,184.2,7.5,170.2,2.7z
		"/>
	<path fill="#EE5C6F" d="M254,173.6c-2.4,0-2.8,4-4,5.7c-7,9.7-14,19.7-24.5,25.7c-3.8,2.2-7.8,3.7-11.8,5c-2.3-1.5-4.5-3.2-6.3-5
		c0.5,2.2,1,4.2,1.3,6.5c-2,0.5-3.8,0.8-5.8,1.2c-13,3-26,6.2-39,7.2c-0.3,0-0.5,0-0.8,0c-7,0.5-14,0.5-21.3-0.2
		c-3.7-0.5-7.2-1.2-11-2.2l0,0c-3.8-1.2-7.8-2.5-11.5-4.2c0,0-0.3,0-0.5-0.3l0,0c-1.5-0.7-3-1.5-4.5-2.2c-15.3-8-28-20.5-36.2-35.5
		c-0.5-0.5-0.8-1.2-1.3-2c3.8,0.3,7.5-0.7,10.7-3c5.3-3.5,8.3-10.2,7.5-16.5c23.8,14.5,23.8,14.5,23.8,14.5c4.3,1.2,7.3,5.2,8.5,9.5
		c1,4.5,0.5,9,0,13.2c0,0,0,0,0,0.3c32.2-4.7,32.2-4.7,32.2-4.7c1.8,5,2.8,10.2,3.5,15.5c0-5.2,0.8-10.7,4.3-15
		c5.2-6.2,17-9.7,24.8-7c2.5,0.7,4.3,2,6,3.7c-1.5-16.7,13.3-27.5,29.8-22c1.3,0.5,2.5,1,3.8,1.5c6.2,3.2,11.5,8.2,18.2,9.7
		C251.2,173.4,252.7,173.6,254,173.6z"/>
	<path fill="#F37888" d="M203.5,39.7c1,1.6,1.8,3.2,2.5,5c12,22,21,45.5,29.7,68.9c7,19.7,12.3,45,0.5,63.9
		c-11.5,18.7-47,18.7-66.7,21.5c-25.8,3.2-75-0.5-84.7-31c-4-12.7-1-29,2.5-41.5c7.8-29.5,18-59,32-85.9
		c9.3-17.7,21.2-43.5,45.5-40.5C175,1.5,183,7.5,188.7,16C193.7,23.7,198.7,31.7,203.5,39.7z"/>
	<path fill="#F6A0B0" d="M136,22c-2.2,4.8-4.3,10.5-1.3,14.5c2,3,6,4.2,9.7,4.2c6,0,12.3-2.2,16.3-6.7c4.3-4.5,6-11,4.5-17
		c-0.5-2-1.5-3.7-3-5c-1.3-1-2.8-1.5-4.3-1.7C147,7.7,140.5,12.2,136,22z"/>
	<path fill="#F6A0B0" d="M129.2,43c-1.2-0.3-2.5,0.5-3.3,1.5c-0.8,1-0.8,2.5-1,3.7c-0.3,1.5-0.3,3.2,0.8,4.2
		c0.5,0.7,1.5,1.2,2.5,1.2c3.3,0.3,6.5-3,5.8-6.2c-0.5-3.2-4.8-5.2-7.8-3.7C127,42,127.2,42.5,129.2,43z"/>
	<path fill="#EE5C6F" d="M309,181.8c0.5,0.2,1.3,0.3,2,0.3c3-0.5,5.8-2.2,7.5-4.5c3.8-4.5,6.3-17-3.3-13.7c-3.3,1-5.8,3.5-7,6.5
		C307,173.1,305,180.3,309,181.8z"/>
	<path fill="#EE5C6F" d="M282,210.8c0.5,0.5,1.3,0.7,1.8,1c2.8,1,6,0.7,8.8-0.3c5.3-2.2,13.5-12,3.5-13.7c-3.3-0.5-6.5,0.5-9.3,2.5
		C284.5,202.1,279.2,207.6,282,210.8z"/>
	<path fill="#EE5C6F" d="M237.5,216.8c0.1,0.7,0.5,1.2,0.8,1.7c2,2.5,4.8,3.7,7.8,4.2c5.8,0.7,17.8-3.5,10-10c-2.5-2.2-6-3-9.3-2.5
		C244,210.6,236.7,212.8,237.5,216.8z"/>
	<path fill="#EE5C6F" d="M67.7,225.6c0.1,0.7,0.5,1.2,0.8,1.7c2,2.2,4.8,3.7,7.8,4.2c5.7,0.7,17.7-3.5,10-10c-2.5-2.2-6-3-9.2-2.7
		C74.2,219.3,67,221.6,67.7,225.6z"/>
	<path fill="#EE5C6F" d="M36,203.6c-0.5,0.7-0.5,1.2-0.5,2c-0.3,3,0.8,6,2.8,8.2c3.5,4.5,15.3,9.7,14-0.2c-0.3-3.2-2.3-6.2-5-8.2
		C45,203.6,38.2,200.3,36,203.6z"/>
	<path fill="#EE5C6F" d="M22,166.9c-0.3,0.2-0.8,0.7-1,1.2c-1,2-1,4.5-0.3,6.7c1,4.2,8,11.5,10,4c0.8-2.5,0.3-5.2-1-7.5
		C28.5,169.6,24.7,165.1,22,166.9z"/>
	<path fill="#EE5C6F" d="M182.2,287c0.1,0.7,0.5,1.2,1,1.7c1.8,2.2,4.5,3.7,7.3,4.2c5.8,1,17.5-3,10-9.5c-2.3-2.2-5.8-3-8.8-2.7
		S181.7,283,182.2,287z"/>
	<path fill="#EE5C6F" d="M165.2,242c-0.5,0.1-1.3,0.5-1.8,1c-2,2-3.3,4.7-3.5,7.7c-0.5,5.5,4.3,17,10.3,9.2c2-2.5,2.5-6,2-9
		C171.7,248,169.2,241,165.2,242z"/>
	<path fill="#EE5C6F" d="M155,246.5c-0.6-0.3-1-0.5-1.8-0.5c-2.3,0-4.8,1-6.8,2.7c-3.5,3.2-7.3,13,1,11.7c2.8-0.5,5.3-2.2,6.8-4.5
		C155.5,254,158,248,155,246.5z"/>
	<path fill="#EE5C6F" d="M131.2,269.8c-0.4-0.6-1-0.8-1.5-1c-2.5-1-5-1-7.5,0c-4.8,1.5-12,9.7-3.5,11.5c2.8,0.5,5.8-0.3,8-1.7
		C128.7,277,133.2,272.5,131.2,269.8z"/>
	<path fill="#EE5C6F" d="M104,280.3c-0.3-0.2-0.8-0.3-1.3-0.3c-2.3-0.2-4.5,0.8-6.3,2c-3.3,2.7-7,11.2,0.5,10.5
		c2.3-0.5,4.5-1.7,6-3.7C104.2,287,106.7,282,104,280.3z"/>
	<path fill="#FFFFFF" d="M222.7,175.1c-3.1-5.4-7.3-10-13.5-12.2c-10-4-23.5-2.2-31.5,5.2c-10.8,10.2-8.8,27.7,2.3,37
		c11.5,9.7,32,13,42.3,0.2C229.5,196.3,228,184.3,222.7,175.1z"/>
	<path fill="#1D1B19" d="M188.5,186.8c-1.9,13.1,13.5,23,25.3,17.5c7.8-3.7,11-10.7,10-19c-0.8-5-4.3-9.5-8.8-11.7
		c-9-4.7-21.5-1.7-25.5,8.5C189,183.6,188.7,185.1,188.5,186.8z"/>
	<path fill="#FFFFFF" d="M207.5,176.1c-2.5,1.1-4.8,3.7-4.5,7.2c0,1,0.5,2,1.3,2.7c2,2,5.3,2.2,7.8,0.7c2.3-1.2,3.5-4.2,2.8-7
		C213.5,175.6,210.2,174.9,207.5,176.1z"/>
	<path fill="#FFFFFF" d="M150.5,187.1c-2.6-4.4-6.3-8.2-11.3-10.2c-8.5-3.2-19.7-2-26.5,4.2c-9,8.7-7.5,23.5,2,31.2
		c9.5,8,26.5,11,35.5,0C156,205.1,155,194.8,150.5,187.1z"/>
	<path fill="#1D1B19" d="M121.7,196.8c0,11.3,11.3,19.5,21.2,14.7c6.3-3,9.3-9,8.3-16c-0.5-4.2-3.5-7.7-7.3-9.7
		c-7.7-4-18-1.5-21.2,7C122.2,194.1,121.7,195.6,121.7,196.8z"/>
	<path fill="#FFFFFF" d="M137.7,187.8c-2.3,1-4,3.2-4,6.2c0,0.8,0.5,1.7,1.3,2.2c1.8,1.5,4.5,2,6.2,0.7c2-1.2,3-3.7,2.5-6
		C142.7,187.6,140,186.8,137.7,187.8z"/>
</g>
</svg>
