<?xml version="1.0" encoding="utf-8"?>
<!-- Generator: Adobe Illustrator 16.0.0, SVG Export Plug-In . SVG Version: 6.00 Build 0)  -->
<!DOCTYPE svg PUBLIC "-//W3C//DTD SVG 1.1//EN" "http://www.w3.org/Graphics/SVG/1.1/DTD/svg11.dtd">
<svg version="1.1" id="Layer_1" xmlns="http://www.w3.org/2000/svg" xmlns:xlink="http://www.w3.org/1999/xlink" x="0px" y="0px"
	 width="193px" height="222px" viewBox="0 0 193 222" enable-background="new 0 0 193 222" xml:space="preserve">
<g>
	<path fill="#64B33E" d="M104.3,38.8c0,0-5.5-35.8-55-33.8C49.3,5.1,53.5,44.8,104.3,38.8z"/>
	<path fill="#56A438" d="M104.3,38.8c-55-33.8-55-33.8-55-33.8S53.5,44.8,104.3,38.8z"/>
	<path fill="#EE7516" d="M189.3,131.3c0,47.8-41.3,86.3-92,86.3c-51,0-92.3-38.5-92.3-86.3c0-47.7,41.3-86.5,92.3-86.5
		C148,44.8,189.3,83.6,189.3,131.3z"/>
	<path fill="#F3AC62" d="M95,66.1c6.8,11.8-3.3,30.3-22.5,41.8C53.3,119.3,32,119.1,25,107.6c-6.8-11.5,3.3-30.3,22.8-41.5
		C67,54.6,88.3,54.6,95,66.1z"/>
	<path fill="#E7611A" d="M167.5,75.6c3.8,9.3,5.8,19.5,5.8,30c0,47.7-41.3,86.2-92.3,86.2c-28.3,0-53.5-11.8-70.3-30.8
		c13,33,46.8,56.5,86.5,56.5c50.8,0,92-38.5,92-86.3C189.3,110.1,181,90.6,167.5,75.6z"/>
	<path fill="#D7571E" d="M171.8,80.6c6.8,12,10.8,25.8,10.8,40.5c0,47.8-41.3,86.5-92.3,86.5c-30.5,0-57.8-14-74.5-35.8
		c15.5,27.3,46.3,45.8,81.5,45.8c50.8,0,92-38.5,92-86.3C189.3,112.3,182.8,94.8,171.8,80.6z"/>
	<path fill="#5F352A" d="M96.3,7.6c5.8-1.5,5.8-1.5,5.8-1.5s7.5,21.8,2,42c-2,0-2,0-2,0S107.3,24.1,96.3,7.6z"/>
	<path fill="#5F352A" d="M107.5,48.1c0,0.8-2,1.3-4.5,1.3s-4.5-0.5-4.5-1.3c0-0.5,2-1,4.5-1S107.5,47.6,107.5,48.1z"/>
	<path fill="#4B2923" d="M102,6.1c-2.5,0.5-2.5,0.5-2.5,0.5s9,22.3,3.5,41.5c1,0,1,0,1,0C109.5,27.8,102,6.1,102,6.1z"/>
</g>
</svg>
