<?xml version="1.0" encoding="utf-8"?>
<!-- Generator: Adobe Illustrator 16.0.4, SVG Export Plug-In . SVG Version: 6.00 Build 0)  -->
<!DOCTYPE svg PUBLIC "-//W3C//DTD SVG 1.0//EN" "http://www.w3.org/TR/2001/REC-SVG-20010904/DTD/svg10.dtd">
<svg version="1.0" id="Layer_1" xmlns="http://www.w3.org/2000/svg" xmlns:xlink="http://www.w3.org/1999/xlink" x="0px" y="0px"
	 width="100px" height="200px" viewBox="0 0 100 200" enable-background="new 0 0 100 200" xml:space="preserve">
<path fill="#00A138" d="M48.885,66.68c-10.767,0-19.788,4.365-24.735,10.185l5.82,7.081c4.656-4.656,11.252-7.178,17.848-7.178
	c7.954,0,14.356,3.104,14.356,9.118c0,5.917-6.306,8.536-14.55,8.536H34.626v9.991h12.998c9.894,0,15.616,2.717,15.616,9.118
	c0,6.014-5.528,9.895-14.744,9.895c-6.887,0-14.938-3.008-19.109-7.857l-6.111,7.469c4.365,5.82,14.065,10.477,25.608,10.477
	c14.938,0,25.607-7.857,25.607-18.818c0-9.991-8.729-15.132-15.034-15.714c6.692-1.164,14.064-6.208,14.064-14.841
	C73.522,73.276,62.853,66.68,48.885,66.68z"/>
</svg>
