<?xml version="1.0" encoding="utf-8"?>
<!-- Generator: Adobe Illustrator 16.0.0, SVG Export Plug-In . SVG Version: 6.00 Build 0)  -->
<!DOCTYPE svg PUBLIC "-//W3C//DTD SVG 1.1//EN" "http://www.w3.org/Graphics/SVG/1.1/DTD/svg11.dtd">
<svg version="1.1" id="Layer_1" xmlns="http://www.w3.org/2000/svg" xmlns:xlink="http://www.w3.org/1999/xlink" x="0px" y="0px"
	 width="342px" height="225px" viewBox="0 0 342 225" enable-background="new 0 0 342 225" xml:space="preserve">
<g>
	<path fill="#41343A" d="M53.3,174.9c-5.3,7.5-7,25.5-5.5,35.5c2.8-2,6.3-3.5,8.5-7.3c0.8,4.8,3,9.8,8.3,10
		c6-9.8,15.3-26.5,22.8-32.5C53.3,174.9,53.3,174.9,53.3,174.9z"/>
	<path fill="#41343A" d="M181.3,186.4c-2.8,9,1,26.3,5.8,35.3c1.8-2.5,4.8-5.3,5.8-9.3c2.3,4,5.8,8.3,10.8,6.8
		c3-11.3,6.5-29.8,11.8-38C181.3,186.4,181.3,186.4,181.3,186.4z"/>
	<path fill="#41343A" d="M281.3,173.7c3.5,8,2.3,26-0.5,35.5c-1.8-2.3-4.8-4-6-8c-1.3,4.5-3.8,9.3-8.3,8.8c-3.8-10.3-9-28-14.5-34.8
		C281.3,173.7,281.3,173.7,281.3,173.7z"/>
	<path fill="#DFDFDC" d="M83.8,34.7c-24.8-10.3-44.8,7-41.3,32c-26-8.3-29.5,35.5-18.3,49c-11,15.3-12,37.5,8.3,45.8
		c-9.5,10,2,22.3,11.5,26.5c12.8,6,22.3-2.3,34-1.5c9.8,0.8,20.5,11,31.5,12.8c13.8,2,21.5-3.8,32.3-11c7.3,14.8,54.5,15.8,56-4.3
		c7.5,7.8,22.3,9,32.3,8.5c14.3-0.5,18-8.8,29.8-13.3c11.5-4.3,23.3,2.5,34.3-6.5c9.5-8,13.3-24.3,3-33.5c-0.3-0.5-0.3-0.3,0,0.3
		c25.5,8.3,11.3-29.3,9.5-38c-0.8-4.8,1.5-10.5,0.8-15.8c-2-12-9.3-13.3-15-22.3c-12.3-19.3-6.5-38.3-37.8-33.3
		c-4.3-17.3-37-36.5-50.3-17c-13.5-10-39,3.8-39.8,19.8c-3-11.5-22.5-8-27,1.5c-13.8-14.5-45-12.3-53.8,5.8
		C83.8,34.7,83.8,34.7,83.8,34.7z"/>
	<path fill="#F797A7" d="M225.8,57.2c0.8,13,15.5,14.8,23.5,6.3c0.8,9,11.8,10.3,18.8,7.8c3.8,11,8.3,13.5,8.5,25.5
		c0.3,10-2.3,20.3-5.3,29.3c-5.8,17.3-21.5,33-41.8,31.5c-30-2.3-54.8-63-45.8-88.8c16.8,14.5,31.3,0.5,43-8.5
		C225.8,57.2,225.8,57.2,225.8,57.2z"/>
	<path fill="#FFFFFF" d="M193.3,107.2c-8.8-6.8-5.8-20.3,3-25.8c9.8-6.3,23,4.3,22.3,15c-0.8,8-7.3,14-15.3,13.8
		C199,110.2,195.8,108.9,193.3,107.2z"/>
	<path fill="#100F0D" d="M205.3,86.9c7.5-2.8,14.3,5.5,9.8,12.3c-4,6-14,4.3-14.5-3.5C200,91.9,201.5,88.4,205.3,86.9z"/>
	<path fill="#FFFFFF" d="M210.5,91.7c1.5-2.3,5.3-1,5.3,1.8c0,2.3-2,4-4,2.8C210.3,95.2,209.3,93.4,210.5,91.7z"/>
	<path fill="#FFFFFF" d="M243.3,104.7c-9.5-7.3-6.3-22,3-28c10.8-6.8,25.3,4.5,24.3,16.3c-0.8,8.8-7.5,15.5-16.5,15.3
		C249.3,107.9,245.8,106.7,243.3,104.7z"/>
	<path fill="#100F0D" d="M256.3,82.7c8.3-3.3,15.5,5.8,10.8,13.3c-4.5,6.8-15.5,4.5-16-3.8C250.5,88.2,252,84.4,256.3,82.7z"/>
	<path fill="#FFFFFF" d="M262,87.9c1.5-2.5,5.8-1.3,5.8,1.8c0,2.5-2.3,4.5-4.3,3.3C261.8,91.7,260.5,89.7,262,87.9z"/>
	<path fill="#DFDFDC" d="M283.3,56.4c9.8-9.8,48-22.8,56.5-4.3c8,17.5-35.8,19.5-46.5,19.5C283.3,56.4,283.3,56.4,283.3,56.4z"/>
	<path fill="#F797A7" d="M288.8,62.9c5.8-7.8,45-21,41.3-4.5c-14,2.8-30.5,3.3-43.3,6.5C288.8,62.9,288.8,62.9,288.8,62.9z"/>
	<path fill="#FFFFFF" d="M178.8,64.7c-9.5-9.8-46.8-22.8-55-4.3c-7.8,17.5,35,19.5,45.3,19.5C178.8,64.7,178.8,64.7,178.8,64.7z"/>
	<path fill="#F797A7" d="M173.3,71.2c-5.3-7.8-43.8-21-40-4.5c13.8,3,29.8,3.3,42.3,6.8C173.3,71.2,173.3,71.2,173.3,71.2z"/>
	<path fill="#41343A" d="M219.3,144.2c11.5,6.8,43.5-1.8,23.8-12.5C235,127.2,211.8,139.7,219.3,144.2z"/>
	<path fill="#DFDFDC" d="M52.8,53.4C51,32.4,8,35.9,21.3,54.2C5,43.9-1.5,66.2,6.3,77.4c7,10.5,25,10.8,36.5,11.5
		C52.8,53.4,52.8,53.4,52.8,53.4z"/>
	<path fill="#FFFFFF" d="M36.8,100.2c0.8-6.5,3.5-10.5,7.5-15.5c2.3-2.8-0.5-7-4-5.3c-7.3,4.3-11.8,14.3-8,22
		C33.3,103.9,36.5,102.2,36.8,100.2L36.8,100.2z"/>
	<path fill="#FFFFFF" d="M56,62.9c0.8-1.5,2-2.5,3.3-3.5c1.8-1.3,3.8-2,4.5-4c0.5-0.8,0.3-1.5-0.5-2c-4.8-2.3-9.5,4-11.3,7.8
		C51.3,63.7,54.8,64.7,56,62.9L56,62.9z"/>
	<path fill="#FFFFFF" d="M61.3,71.4c-3,0.3-5,1.3-6.8,3.8c-1.5,3-1.8,7.3,0,10c1.5,2.8,4.8,1.3,5-1.3c0.5-3.3-0.5-6.8,2.8-9.3
		C63.5,73.7,63.3,71.2,61.3,71.4L61.3,71.4z"/>
	<path fill="#FFFFFF" d="M49.5,103.7c-5,2.8-10.8,10.8-6.3,16c0.8,0.8,2,0.3,2.3-0.8c0.8-2,0.3-4.5,0.8-6.8c0.5-2.8,2.3-5.3,4.3-7
		C51.5,104.4,50.3,103.2,49.5,103.7L49.5,103.7z"/>
	<path fill="#FFFFFF" d="M85,80.7c-6.8,2.5-12.3,9.3-14.8,16c-3,8.3,1.8,18.8,11.3,19.3c3.3,0.3,4.5-3.8,2.5-5.8
		c-1.5-2-4.5-3.5-5.5-6c-0.8-2.3-0.5-4.5,0-6.8c1.5-5.5,5-10.3,8-15.3C86.8,81.4,86,80.2,85,80.7L85,80.7z"/>
	<path fill="#FFFFFF" d="M98.3,117.4c-2.5,3-3.5,7.3-2.5,11c0.8,2.5,4.3,2.5,4.8,0c1-3,0.3-6.3,1-9.3
		C101.8,117.4,99.5,115.7,98.3,117.4L98.3,117.4z"/>
	<path fill="#FFFFFF" d="M72.5,127.4c-7,1-8.5,12.3-3.5,16.3c0.8,0.5,2,0.3,2-0.8c0-2.5-0.5-4.8-0.3-7c0-2.8,1.8-4.5,2.8-6.8
		C73.8,128.4,73.5,127.4,72.5,127.4L72.5,127.4z"/>
	<path fill="#FFFFFF" d="M190,45.9c-2.5,3.3,0,8,3,10c4,2.5,9.8,2.5,13.8,0.3c1.8-0.8,2-2.8,1.3-4.3c-1-2.3-5-2-7-2
		c-1.8-0.3-3.8-0.3-5.5-1.3c-1.8-0.8-2.8-2.3-4.5-3.3C190.5,45.4,190.3,45.4,190,45.9L190,45.9z"/>
	<path fill="#FFFFFF" d="M219.3,30.9c-3.8-1-7.3,0.5-10,3.3c-2.3,2.3,1,5.3,3.3,3.3c2-1.8,4.3-3.5,6.8-4.5
		C220.3,32.7,220.3,31.2,219.3,30.9L219.3,30.9z"/>
	<path fill="#FFFFFF" d="M195.3,24.9c-1.8-0.3-3.3-0.8-5,0c-1.5,0.8-3,2.8-2.3,4.8c0.3,0.3,0.8,0.8,1.3,0.8c1.5-0.3,2-1.5,3-2
		c0.5-0.3,1.8-0.5,3-0.8S196.5,25.2,195.3,24.9L195.3,24.9z"/>
	<path fill="#FFFFFF" d="M230.8,46.2c0-1.8,0.3-4,1.5-5.5c1.5-1.8,3.8-2.3,5.8-3.5c2.5-1.3,1.3-4.8-1.3-4.8c-3.8-0.3-7.3,2-9.5,5.3
		c-1.8,3-1.5,6.5,0,9.5C228.3,48.9,230.8,47.9,230.8,46.2L230.8,46.2z"/>
	<path fill="#FFFFFF" d="M240.8,51.9c3,1.5,5,1.8,8.3,1.5c3-0.5,6-2.8,7.3-5.5c1-2-1.3-4.8-3.5-3.3c-3.3,2.3-6.8,4.5-11,4
		C240,48.7,239.5,51.2,240.8,51.9L240.8,51.9z"/>
	<path fill="#FFFFFF" d="M293.3,91.4c-0.3,0.3-1.5,2.3-1.8,3.5c-0.8,2.5-1.3,5.3-2,8c-1,3.3-5,12.3,0.3,13.8c2.3,0.8,4.5-2,5.8-3.8
		c1.8-2.3,2-6.3,2.3-9s0-5.5-0.5-8.3c-0.3-1-0.5-2-0.8-2.8c-0.3-0.5-1.3-1.8-1.3-1.5C295,90.4,293.5,90.4,293.3,91.4L293.3,91.4z"/>
	<path fill="#FFFFFF" d="M297.5,122.4c-2.3,1.5-4.3,3-6.3,4.8c-2.8,1.8-5.3,3.3-7,6.3c-0.8,1.3,0.3,2.5,1.5,2.5
		c3.8,0.5,6.8-1,9.8-3.3c2.5-2.3,4.3-4.5,5-7.8C301,123.2,299,121.4,297.5,122.4L297.5,122.4z"/>
</g>
</svg>
