<?xml version="1.0" encoding="utf-8"?>
<!-- Generator: Adobe Illustrator 16.0.0, SVG Export Plug-In . SVG Version: 6.00 Build 0)  -->
<!DOCTYPE svg PUBLIC "-//W3C//DTD SVG 1.1//EN" "http://www.w3.org/Graphics/SVG/1.1/DTD/svg11.dtd">
<svg version="1.1" id="Layer_1" xmlns="http://www.w3.org/2000/svg" xmlns:xlink="http://www.w3.org/1999/xlink" x="0px" y="0px"
	 width="184px" height="206px" viewBox="0 0 184 206" enable-background="new 0 0 184 206" xml:space="preserve">
<g>
	<path fill="#EE2722" d="M172.3,77.3c-20-50-62-42-79.8-42c-18.3,0-59.8-8-80,42c-24.8,61.8,24.8,123.5,80,123.5
		C154.3,200.8,197.3,139,172.3,77.3z"/>
	<path fill="#64B33E" d="M106.8,38.8c0,0,7.5-5.5,15.5-5.3c0,0-21-7.3-32.3-3c0,0-0.3,0-0.5,0c-1.8-3.3-5.5-6-12.3-7.8
		c0,0,2.8,2,3.8,6.8c-5.3,0-11.3,0.3-21.5,2.3c0,0,9.3,1.8,13.8,6c0,0-9.5,4-14.8,11c0,0,13.5-3.5,23.5-4.3c0,0,9.3,4.8,10.3,14
		c0,0,8-6.8,7.8-12.8c0,0,6.8-0.3,15.5,4C115.5,49.8,114.3,42.5,106.8,38.8z"/>
	<path fill="#64B33E" d="M88.3,36.5c0,0,1.3,1.8,6,0.8c0,0,1.3-17,12.5-30.5c0,0-1.3-3.8-9.3-3.8C97.5,3,91.5,18,88.3,36.5z"/>
	<path fill="#56A438" d="M91.5,37.5c0.8,0,1.5,0,2.8-0.3c0,0,1.3-17,12.5-30.5c0,0-0.8-1.8-3.5-2.8C103.3,4,92.5,19,91.5,37.5z"/>
	<path fill="#DD2624" d="M172.3,77.3c-9.3-23.3-23.5-34-37.5-38.8l0,0C159.3,55.8,186,183,49.3,187.8l0,0c13,8.3,27.8,13,43.3,13
		C154.3,200.8,197.3,139,172.3,77.3z"/>
	<path fill="#D21E26" d="M87,200.8c1.8,0,3.8,0,5.5,0c61.8,0,104.8-61.8,79.8-123.5C172.3,77.3,189.3,171.5,87,200.8z"/>
	<path fill="#F46F73" d="M54.3,87.3c-9.5,13-23.3,19-30.8,13.5c-7.8-5.5-6.3-20.5,3-33.3c9.3-13,23-19.3,30.8-13.8
		C64.8,59.3,63.5,74.3,54.3,87.3z"/>
</g>
</svg>
