<?xml version="1.0" encoding="utf-8"?>
<!-- Generator: Adobe Illustrator 16.0.0, SVG Export Plug-In . SVG Version: 6.00 Build 0)  -->
<!DOCTYPE svg PUBLIC "-//W3C//DTD SVG 1.1//EN" "http://www.w3.org/Graphics/SVG/1.1/DTD/svg11.dtd">
<svg version="1.1" id="Layer_1" xmlns="http://www.w3.org/2000/svg" xmlns:xlink="http://www.w3.org/1999/xlink" x="0px" y="0px"
	 width="246px" height="374px" viewBox="0 0 246 374" enable-background="new 0 0 246 374" xml:space="preserve">
<g>
	<path fill="#5A8F2F" d="M101.7,355.5c-5-5.8-16-14.5-20.5-15.3c9-3,18.8-2.8,27.3,0.8c-2.3-9.3-1-14.5,5.3-19.3
		c0.5,5.5,4.3,12,4.5,17.5c4.5-10.5,12.2-19,23.2-21.3c-5,8-3.8,12.3-5.3,20.3c-0.8,1-0.8,1-0.3,0c5.5-8.8,14-13.5,24.5-13.8
		c-4.8,6-5.8,10.8-9,17.8c-0.8,1.3-0.8,1.3-0.3,0c7.5-5.5,17-8.8,27-10c-5.8,6.3-9.3,12-12,19.5
		C101.7,355.5,101.7,355.5,101.7,355.5z"/>
	<path fill="#945D2B" d="M170.9,315.5c0.8,12.3,1,24.5,2,36.8c0.3,2.3,0.5,4.8,1.8,6.5c3.5,4.3,12.5,4.8,16.5,1
		c4.8-4.5,2.8-11.5,3-17.8c0.3-18.3-0.3-36.5-0.8-55c-0.3-7.8,2.3-34.5-6.5-39C171.7,240.2,169.4,281.2,170.9,315.5z"/>
	<path fill="#5A8F2F" d="M216.2,181.2c-7-26.3-14.3-52.5-21.8-78.8c-1.3-4.5-4.3-17.3-12-8.5c-9.3,10-13.3,28.3-18,40.3
		c-16.3,42.3-27.8,86-41.5,129c-2,6-5.3,19,4.7,21.3c6,1.3,11.8,2.8,18,3.3c12.5,1.5,25.8-0.3,38.3,0c14.8,0.5,48.8,2.5,53.3-14
		c3-11-5.3-29.3-8-40.5c-3.3-14.3-6.8-28.3-10.5-42.3C217.9,187.7,216.9,184.5,216.2,181.2z"/>
	<path fill="#71B83E" d="M129.4,225.5c-1.3,4.8-2.5,9.3-3.5,14c-0.5,1.5-0.8,3.3,0.3,4.3c1,0.8,2.5,0.5,3.8,0.3
		c7.5-2,14.8-5.3,21-9.8c1-0.8,2.3-1.5,3.5-1.8c1.8-0.3,3.5,1.3,5,2.3c4.8,3.5,11,5,17,4.5c8.8-0.8,16.8-6,25.5-5.8
		c9,0,19.3,7,27.8,0.8c10.5-7.5,0-17.5-2.5-26c-2.3-7-4.8-30-10.5-34c-13.3-8.5-36.8,3.3-50,4.5c-7.3,0.5-16-1-21.3,4.3
		c-1.5,1.5-2.5,3.5-3.3,5.5C137.2,199.5,132.7,214,129.4,225.5z"/>
	<path fill="#9FD851" d="M139.4,189.5c2,2.3,5.8,1.3,8.3-0.3c2.5-1.8,4.8-4,7.8-4.3c4.5-0.5,8,3.3,12.5,4.3c8,1.8,15-7,23.5-8
		c5-0.5,9.8,2,14.5,3.5c5,1.3,11,1.3,14-3c2.3-3.5,1.3-8,0.3-12c-4.8-18.5-9.3-37.3-14.5-55.5c-3.8-12.5-10-33.8-25-20.3
		C156.9,115.7,144.4,159,139.4,189.5z"/>
	<path fill="#945D2B" d="M69.2,297.5c0.8,16,1.3,31.8,2.5,47.8c0.3,2.8,0.5,6,2.3,8.3c4.5,5.8,16,6.3,21.2,1.3
		c6.3-5.5,3.8-14.8,3.8-22.8c0.5-23.8-0.3-47.5-0.8-71.3c-0.3-10.3,3-44.8-8.3-50.5C69.9,200,67.2,253.2,69.2,297.5z"/>
	<path fill="#5A8F2F" d="M127.7,123.7c-9-34-18.5-68.3-28.2-102.3c-1.8-5.8-5.5-22-15.5-11c-12,13.3-17.2,36.8-23.2,52.3
		c-21,54.8-36,111.5-53.8,167c-2.8,8-7,24.5,6,27.5c7.8,1.8,15.3,3.5,23.3,4.5c16.3,1.8,33.3-0.5,49.7,0c19,0.5,63,3,68.7-18.3
		c4-14.5-6.8-38-10.3-52.5c-4.3-18.3-8.8-36.5-13.5-54.5C129.7,132.2,128.7,128,127.7,123.7z"/>
	<path fill="#71B83E" d="M15.4,181c-1.8,6-3.3,12-5,18c-0.5,2-0.8,4.3,0.8,5.5c1.3,1.3,3.3,0.8,4.8,0.5c9.8-2.5,19-7,27.3-12.8
		c1.3-1,2.8-2,4.3-2.3c2.5-0.3,4.8,1.5,6.8,3c6.3,4.5,14,6.5,21.8,5.8c11.5-1,21.7-7.8,33.2-7.5c11.8,0,25,9,36,1
		c13.5-9.8,0-22.5-3.5-33.8c-2.8-9-6-39-13.5-43.8c-17-11-47.5,4-64.5,5.5c-9.8,1-21-1.3-27.8,5.8c-1.8,2-3,4.5-4.3,7
		C25.2,147.2,19.4,166,15.4,181z"/>
	<path fill="#9FD851" d="M28.2,134.2c2.5,2.8,7.5,1.8,10.8-0.3c3.3-2.3,6.3-5.3,10-5.8c5.8-0.5,10.5,4.5,16,5.8
		c10.8,2.3,19.7-9.3,30.5-10.3c6.5-0.5,12.8,2.5,19,4.3c6.3,2,14.2,1.8,18-3.8c3-4.5,1.8-10.5,0.3-15.8c-6.3-23.8-11.7-48-18.7-71.5
		c-5-16.3-13-44-32.3-26.3C50.7,38.7,34.7,94.7,28.2,134.2z"/>
	<path fill="#AAD821" d="M44.4,370c-5-5.5-15.8-14.3-20.3-15c9-3,18.8-3,27.3,0.8c-2.5-9.3-1-14.5,5-19.3c0.8,5.5,4.3,12,4.5,17.3
		c4.8-10.3,12.5-18.8,23.5-21c-5.2,7.8-4,12-5.5,20.3c-0.8,1-0.8,1,0,0c5.5-8.8,14-13.5,24.2-13.8c-4.8,6-5.5,10.8-8.8,17.8
		c-0.8,1-0.8,1-0.3,0c7.5-5.5,17-8.8,27-10c-5.8,6.3-9.3,12-12,19.5C44.4,370,44.4,370,44.4,370z"/>
	<path fill="#AAD821" d="M148.4,364.7c-5-5.8-16-14.5-20.5-15.3c9-3,18.8-3,27.3,0.8c-2.3-9.3-1-14.5,5.3-19.3
		c0.5,5.5,4.3,12,4.5,17.3c4.5-10.3,12.3-18.8,23.3-21c-5,7.8-3.8,12-5.3,20.3c-0.8,1-0.8,1-0.3,0c5.8-8.8,14.3-13.5,24.5-13.8
		c-4.8,6-5.8,10.8-9,17.8c-0.5,1.3-0.8,1,0,0c7.3-5.5,16.8-8.8,26.8-10c-5.8,6.3-9.3,12-12,19.5
		C148.4,364.7,148.4,364.7,148.4,364.7z"/>
	<polygon fill="#5A2E1A" points="241.4,323.7 55.4,323.7 55.4,315 241.4,315 241.4,323.7 	"/>
	<polygon fill="#5A2E1A" points="241.4,351 55.4,351 55.4,342.2 241.4,342.2 241.4,351 	"/>
	<polygon fill="#7A482C" points="89.9,370 62.9,370 62.9,309.5 76.4,295.7 89.9,309.5 89.9,370 	"/>
	<polygon fill="#7A482C" points="137.9,370 110.9,370 110.9,309.5 124.4,295.7 137.9,309.5 137.9,370 	"/>
	<polygon fill="#7A482C" points="185.9,370 158.9,370 158.9,309.5 172.4,295.7 185.9,309.5 185.9,370 	"/>
	<polygon fill="#7A482C" points="233.9,370 206.9,370 206.9,309.5 220.4,295.7 233.9,309.5 233.9,370 	"/>
	<path fill="#5A2E1A" d="M225.4,321.5c0,2.8-2.3,5-5,5s-5.3-2.3-5.3-5s2.5-5,5.3-5S225.4,318.7,225.4,321.5z"/>
	<path fill="#5A2E1A" d="M225.4,349.2c0,3-2.3,5.3-5,5.3s-5.3-2.3-5.3-5.3c0-2.8,2.5-5,5.3-5S225.4,346.5,225.4,349.2z"/>
	<path fill="#5A2E1A" d="M177.4,321.5c0,2.8-2.3,5-5,5s-5.3-2.3-5.3-5s2.5-5,5.3-5S177.4,318.7,177.4,321.5z"/>
	<path fill="#5A2E1A" d="M177.4,349.2c0,3-2.3,5.3-5,5.3s-5.3-2.3-5.3-5.3c0-2.8,2.5-5,5.3-5S177.4,346.5,177.4,349.2z"/>
	<path fill="#5A2E1A" d="M129.4,321.5c0,2.8-2.3,5-5,5c-2.7,0-5.2-2.3-5.2-5s2.5-5,5.2-5C127.2,316.5,129.4,318.7,129.4,321.5z"/>
	<path fill="#5A2E1A" d="M129.4,349.2c0,3-2.3,5.3-5,5.3c-2.7,0-5.2-2.3-5.2-5.3c0-2.8,2.5-5,5.2-5
		C127.2,344.2,129.4,346.5,129.4,349.2z"/>
	<path fill="#5A2E1A" d="M81.4,321.5c0,2.8-2.2,5-5,5s-5.3-2.3-5.3-5s2.5-5,5.3-5S81.4,318.7,81.4,321.5z"/>
	<path fill="#5A2E1A" d="M81.4,349.2c0,3-2.2,5.3-5,5.3s-5.3-2.3-5.3-5.3c0-2.8,2.5-5,5.3-5S81.4,346.5,81.4,349.2z"/>
</g>
</svg>
