<?xml version="1.0" encoding="utf-8"?>
<!-- Generator: Adobe Illustrator 16.0.0, SVG Export Plug-In . SVG Version: 6.00 Build 0)  -->
<!DOCTYPE svg PUBLIC "-//W3C//DTD SVG 1.1//EN" "http://www.w3.org/Graphics/SVG/1.1/DTD/svg11.dtd">
<svg version="1.1" id="Layer_1" xmlns="http://www.w3.org/2000/svg" xmlns:xlink="http://www.w3.org/1999/xlink" x="0px" y="0px"
	 width="200px" height="200px" viewBox="0 -0.6 200 200" enable-background="new 0 -0.6 200 200" xml:space="preserve">
<g>
	<path fill="#569030" d="M107.3,14c-1.3,2.7-3.2,4.8-5.1,6.8c-5.3,5.9-10.4,12-15.2,18.6c-1.6,2.3-3.3,4.8-4.3,7.9
		c-1.1,3.6-0.8,7.5-1.6,11.2c-0.8,3.6-3.7,9.3-6.5,10.9c-3.1,1.6-7.3-1.8-9.7-4.1c-6.1-5.7-10.8-15.5-11.3-25.5
		c-0.3-4.5,0.5-8.7,2.1-12.7c0.9-2.5,2.1-4.6,3.5-6.6c3.6-5.4,8.3-9.1,13.1-12C80.8,3,90.3-0.5,99.8,0c3.1,0.2,6.7,1.1,8.3,4.8l0,0
		C109.1,7.7,108.5,11.3,107.3,14"/>
	<path fill="#477C2F" d="M107.3,14c-1.2,2.8-3.2,4.8-5.1,6.8c-5.3,5.9-10.4,12-15.2,18.6c-1.6,2.3-3.3,4.8-4.3,7.9
		c-1.1,3.6-0.8,7.5-1.6,11.2c-0.8,3.6-3.7,9.3-6.5,10.9c-3.1,1.6-7.3-1.8-9.7-4.1c-6.1-5.7-10.8-15.5-11.3-25.5
		c-0.3-4.5,0.5-8.7,2.1-12.7c-0.3,2.3-0.3,4.6,0,7.1c0.7,5.7,3.3,11.6,7.5,13.6c2.9,1.3,6.1,0.5,8.8-1.2c2.8-1.6,5.2-4.3,7.6-6.8
		c4.1-4.3,8.3-8.4,12.8-12c4.1-3.2,8.8-7.5,11.9-12.3c1.9-3,3.3-6.6,3.7-10.5C109.1,7.7,108.5,11.3,107.3,14z"/>
	<path fill="#A2B720" d="M76,9.7c-1.1-0.7-2.1,0.9-2.5,2.1c-0.5,1.6,0,3.2,1.1,4.3c1.1,0.9,2.4,0.9,3.5,0c1.2-1.1,2-3.6,1.7-5.4
		c-0.1-2.3-1.7-3.6-3.3-2.9c-1.5,0.7-2.4,2.9-2.4,4.8c-0.1,2.1,1.1,4.3,2.8,3.6c1.3-0.7,2.3-3.2,1.5-5c-1.1-2.5-4-1.1-3.6,1.6
		c0.1,1.2,0.9,2.1,1.9,2.1c1,0,1.6-0.7,1.9-1.8c0.5-2-1.7-3.2-2.4-1.4c0.5-1.2,1.7,1.3,0.9,1.4c-0.3,0-0.4,0-0.7,0
		c-0.1,0-0.4-0.7-0.4-0.4v0.2c0,0,0.8,0,0.7,0.2c0,0,0-0.4,0-0.5c0-0.2,0.1-0.5,0.3-0.9c0-0.4,0.1-0.5,0.4-0.7c0-0.2,0.3,0,0.1-0.2
		c-0.1,0,0,0,0,0.2s0,0.4,0,0.4c0,0.4-0.1,0.9-0.3,1.3c-0.1,0.4-0.3,1.1-0.8,1.1c-0.3,0.2-0.7,0-0.9-0.2c-0.4-0.5-0.4-1.1-0.3-1.6
		c0.1-0.9,0.7-0.9,1.1-1.6C76.2,10.2,76.2,9.9,76,9.7L76,9.7"/>
	<path fill="#A2B720" d="M82.8,7.7c0,0,0,0.2-0.1,0.2c0.1,0,0.3,0,0.3-0.2c-0.5,0-0.7,1.1-0.5,1.8c0.1,0.5,0.4,1.2,0.8,1.4
		c1.3,0.9,2.7-0.7,2.4-2.5C85.4,6.8,84,6.2,83,7.1c-0.8,0.5-0.9,2-0.3,2.9c0.7,0.7,1.9,0.7,2.3-0.4c0.2-0.6,0-1.3-0.2-1.7
		c-0.4-0.5-0.9-0.7-1.3-0.4c-0.1,0.2-0.3,0.2,0,0c0.3,0,0.5,0.2,0.7,0.5c0.1,0.4,0.1,0.7,0.1,1.1c0-0.2,0-0.2,0,0c0,0,0,0-0.1,0.2
		c0,0-0.1,0.2,0,0c0,0,0,0-0.1,0h0.1c-0.1,0-0.1,0-0.1,0c0.1,0,0.3,0.2,0,0c0.3,0.2-0.1-0.2,0.1,0c-0.1,0-0.1,0-0.3-0.2
		c0.1,0.2,0.1,0.2,0,0l0,0c0-0.2,0-0.2,0,0c0-0.2,0-0.2,0,0c0-0.2,0-0.2,0,0c-0.1,0-0.1,0-0.3,0c-0.3-0.4-0.1-1.1-0.4-1.2
		c0,0.2,0.1,0.2,0.1,0.4c0,0,0,0,0.1-0.2C83.4,7.7,83,7.4,82.8,7.7L82.8,7.7"/>
	<path fill="#A2B720" d="M82,15.4L82,15.4c0,0,0,0-0.1,0l0,0c0,0,0,0-0.1,0h0.1c-0.1,0-0.1,0-0.1,0l0,0l-0.1-0.2l0,0l0,0
		c0,0,0,0,0.1,0.2c-0.1-0.2-0.1-0.2-0.1-0.2l0,0c0,0,0,0,0-0.2c0,0,0,0,0,0.2c0-0.2,0-0.2,0-0.4c0,0.2,0,0.2,0,0.2
		c0-0.2,0-0.2,0-0.2l0,0c0-0.2,0-0.2,0-0.2l0,0c0-0.2,0.1-0.2,0.1-0.2l0,0c0,0,0-0.2,0.1-0.2h-0.1c0.1,0,0.1,0,0.3,0H82
		c0.1,0,0.1,0,0.3,0c0,0,0,0-0.1,0c0.1,0,0.1,0,0.3,0l0,0c0,0,0,0,0.1,0l0,0c0,0,0,0.2,0.1,0.2c-0.1,0-0.1,0-0.1,0s0.1,0,0.1,0.2
		v-0.2c0,0.2,0,0.2,0,0.4c0-0.2,0-0.2,0-0.2c0,0.2,0,0.2,0,0.4v-0.2c0,0.2,0,0.2,0,0.4l0,0v0.2l0,0c-0.1,0-0.1,0.2-0.1,0.2l0,0
		l-0.1,0.2l0,0h-0.1l0,0c0.1,0,0.3-0.2,0.3-0.2c0.1-0.2,0.3-0.4,0.3-0.5c0.1-0.4,0-0.7-0.1-1.1c-0.1-0.2-0.4-0.4-0.7-0.4
		c-0.3,0-0.7,0.2-0.8,0.5c0,0.2-0.1,0.4-0.1,0.7c0,0.2,0.1,0.4,0.1,0.5c0.1,0.2,0.3,0.4,0.4,0.5c0.4,0.4,1.1,0.4,1.3-0.4
		c0-0.2,0.1-0.5,0-0.9c0-0.2-0.1-0.4-0.4-0.5c-0.5,0-0.6,0-0.7,0c-0.3,0-0.4,0.2-0.7,0.4c0,0.4,0,0.5,0.1,0.9l0.1,0.2
		C81.7,15.4,81.8,15.4,82,15.4L82,15.4"/>
	<path fill="#569030" d="M190.4,72c-0.7,3.4-3.3,5.7-6,6.2c-2.5,0.5-5.2-0.4-7.7-1.1c-2.5-0.9-5.1-1.6-7.7-2.3
		c-3.9-1.1-8.1-2-11.7,0.2c-3.5,2-5.7,6.2-8.7,9.5c-4,4.5-7.5,4.1-10,0.7c-1.5-2-2.5-4.8-3.2-8.4c-1.7-9.3,0.3-20,5.6-26.4
		c0.4-0.5,0.8-1.1,1.2-1.4c1.9-2,4.1-3.4,6.5-3.9c2.3-0.5,4.7-0.2,6.9,0.2c11.2,2,22.8,5.5,31.1,15.9c0.8,0.9,1.5,2,2.1,3
		C190,66.4,190.9,69.3,190.4,72"/>
	<path fill="#A2B720" d="M144.6,50.6c-0.9-0.2-1.5,1.4-1.2,2.5c0.3,1.4,1.7,1.6,2.5,0.9c1.1-1.1,0.9-3.4-0.1-4.3
		c-1.3-1.1-3.1,0.4-2.9,2.3c0,1.1,0.5,2,1.3,2.1c0.8,0.4,1.5,0,2-0.9c0.3-0.7,0.1-1.4-0.3-2c-0.5-0.4-1.1-0.4-1.5,0.2
		c0.1,0,0.1-0.2,0.3-0.2h0.1c-0.1,0,0,0,0,0c0.1,0,0.1,0,0.1,0c-0.1,0-0.1,0,0,0c0.1,0,0.1,0,0,0l0,0c-0.1-0.2,0.1,0.4,0,0
		c0,0,0.1,0.4,0,0.2c0.1,0.2,0.1,0.4,0.1,0.7c0-0.4-0.1,0,0-0.2l-0.1,0.2c-0.1,0-0.1,0,0,0l0,0c0,0-0.3,0-0.1,0c0.1,0-0.1,0-0.1-0.2
		c0,0.2,0,0.2,0,0v0.2l0,0l0,0l0,0l0,0l0,0l0,0c0-0.2,0.1-0.2,0-0.2c0,0.2,0,0.4,0,0.2c0,0-0.1,0,0,0h-0.1c0.1,0,0,0,0,0
		c0.1,0,0,0,0,0c0,0.2-0.1,0,0,0c0,0.2,0,0,0,0s0,0,0-0.2c0,0,0-0.2,0.1-0.4C145.2,51.4,145.1,50.6,144.6,50.6L144.6,50.6"/>
	<path fill="#A2B720" d="M150.9,49.1L150.9,49.1c0,0,0.1,0.2,0.3,0.2c-0.1-0.2-0.4-0.4-0.5-0.4c-0.1-0.2-0.4-0.2-0.5-0.2
		c-0.3,0-0.5,0.2-0.7,0.4c0,0.4-0.1,0.5-0.3,0.9c0,0.2-0.1,0.4-0.1,0.7c0,0.2,0.1,0.4,0.1,0.5c0.3,0.7,0.9,0.9,1.5,0.7
		c0.5-0.2,0.8-0.7,0.8-1.6c0-0.7-0.3-1.4-0.9-1.6c-0.4,0-0.8,0.2-1.1,0.7c-0.1,0.5,0,1.3,0.4,1.4c0.1,0.2,0,0.2,0,0
		c0,0-0.1,0-0.1-0.2l0.1,0.2c0,0,0,0-0.1,0c0.1,0,0.1,0,0-0.2v-0.2l0,0c0-0.2,0-0.2,0.1-0.4c0-0.2,0.1-0.4,0.3-0.4
		c-0.1,0,0.1,0,0.1,0c0.1,0,0.1,0,0,0c0.1,0,0.1,0,0.1,0c0.1,0.2,0.1,0.2,0,0c0.1,0.4,0.3,0.5,0.3,0.9c0-0.4,0-0.7,0-1.1
		c-0.1,0.2-0.3,0.5-0.4,0.9c0.3-0.2,0.8-0.4,0.9-0.9c-0.1,0.2-0.1,0.2-0.1,0.4l0,0C151.3,49.8,151.1,49.3,150.9,49.1L150.9,49.1"/>
	<path fill="#A2B720" d="M148.7,55.4c-0.7,0.2-0.9,1.4-0.4,2c0.3,0.4,0.5,0.5,0.9,0.4c0.4,0,0.7-0.5,0.7-0.9c0,0,0,0.2-0.1,0.4
		c0.4-0.5,0.4-1.4,0-1.8c-0.3-0.4-0.5-0.5-0.8-0.5c-0.1,0-0.3,0-0.5,0.2c-0.1,0.2-0.1,0.4-0.3,0.5c-0.1,0.2-0.1,0.5-0.1,0.9
		s0.3,0.5,0.5,0.7c0.1,0.2,0.4,0.2,0.7,0c0.3-0.2,0.4-0.4,0.4-0.7l0,0v0.2l0,0l-0.1,0.2l0,0l-0.1,0.2l0,0h-0.1l0,0
		c-0.1,0-0.1,0-0.3,0.2h0.1C149,57,149,57,148.8,57c0,0,0.1,0,0.1,0.2c-0.1-0.2-0.1-0.2-0.3-0.2c0.1,0,0.1,0,0.1,0s-0.1,0-0.1-0.2
		V57c0-0.2-0.1-0.2-0.1-0.4c0,0.2,0,0.2,0,0.2c0-0.2,0-0.2,0-0.4c0,0.2,0,0.2,0,0.2c0-0.2,0-0.2,0-0.4v0.2c0-0.2,0-0.2,0-0.4l0,0
		v-0.2c0,0.2,0,0.2,0,0.4c-0.1,0.2-0.1,0.2-0.1,0.4c0-0.2,0.1-0.2,0.1-0.4c0,0,0,0.2-0.1,0.2c0.1-0.2,0.1-0.2,0.1-0.4
		c0,0.2,0,0.2,0,0.2s0-0.2,0.1-0.2c-0.1,0-0.1,0-0.1,0c0,0.2,0.1-0.2,0.1,0c-0.1,0,0.1-0.2,0,0c0.1,0,0.1,0,0.1-0.2l0,0
		c0,0.2,0.1,0.2,0.1,0.2c-0.1-0.2,0.1,0,0,0c0.1,0,0.1,0,0.1,0s0,0,0,0.2c0,0,0.1,0,0,0h0.1l0,0c0,0,0,0,0,0.2c0,0,0-0.2,0,0
		c0,0.2,0,0,0,0c-0.1,0.2-0.1,0.2-0.1,0.2c0.1-0.2,0.1-0.2,0,0c0.1,0-0.1,0.2,0,0c0.3-0.2,0.3-0.5,0.1-0.9
		C149.3,55.4,149,55.2,148.7,55.4L148.7,55.4"/>
	<path fill="#477C2F" d="M190.4,72c-0.7,3.4-3.3,5.7-6,6.2c-2.5,0.5-5.2-0.4-7.7-1.1c-2.5-0.9-5.1-1.6-7.7-2.3
		c-3.9-1.1-8.1-2-11.7,0.2c-3.5,2-5.7,6.2-8.7,9.5c-4,4.5-7.5,4.1-10,0.7c-1.5-2-2.5-4.8-3.2-8.4c-1.7-9.3,0.3-20,5.6-26.4
		c0.4-0.5,0.8-1.1,1.2-1.4c-1.1,2.9-1.5,6.4-0.4,9.3c0.8,2.1,2.3,3.7,3.7,5c3.6,3,7.7,4.8,12,5c2.9,0,5.9-0.7,8.8-0.7
		c3.6-0.2,7.1,0.5,10.5,2.1c2.1,1.1,4.3,2.5,6.4,3.2c1.3,0.4,2.7,0.5,3.7-0.4c1.5-1.1,2-3.4,2-5.5c0-1.1,0-2-0.1-2.9
		C190,66.4,190.9,69.3,190.4,72z"/>
	<path fill="#D6E218" d="M75.3,150.1c2.8,1.4,5.6,2.9,8.5,3.7c9.6,3.4,19.9,3.2,29.9,3.2c7.2-0.2,13.1-1.8,19.9-4.1
		c7.5-2.7,14.8-4.6,20-13.2c3.3-5.4,4.7-13.7,1.6-19.5c-1.5-2.5-3.5-4.3-5.5-5.7c-13.9-10.3-29.9-14.8-45.7-17.8
		c-15.8-2.9-31.8-4.3-47.3-9.5C53,86,49,84.3,45.2,86c-8,3.2-12,18.6-7.3,27.5C47,130.8,60.9,142.4,75.3,150.1"/>
	<path fill="#619F30" d="M198.2,133.5c-5.9,15-17.2,24.8-28.6,32.5c-2.3,1.4-4.7,3-7.2,3.6c-3.2,0.7-6.7,0-9.7-1.8
		c-7.5-4.1-12.5-14.5-13.4-25.2c-0.3-3.9,0.1-7.7,1.2-10.3c1.6-4.8,5.2-7.1,10.7-4.5c3.2,1.6,6.3,4.1,9.5,5.4
		c0.8,0.2,1.6,0.4,2.3,0.4c4.5,0.5,8.7-2.5,12.5-5.7c2.5-2,5.1-3.9,7.5-6.1c2.5-2.1,5.1-4.3,8-5c0.9-0.4,1.7-0.4,2.7-0.2
		c2.1,0.2,4.1,1.4,5.2,3.7C200.9,124.2,199.8,129.4,198.2,133.5z"/>
	<path fill="#A2B720" d="M160.5,155.3c-0.3-1.1-0.9-1.8-1.9-1.6c-1.1,0.2-1.9,1.4-1.9,2.9c0,1.6,0.5,3.2,1.5,4.3
		c1.1,1.4,2.5,1.1,3.6-0.4c0.9-1.3,1.3-3,0.9-4.8c-0.4-1.4-1.5-2.7-2.7-2.5c-2.8,0.2-3.2,6.1-0.3,6.2c1.3,0,1.7-2.5,0.7-3.4
		c-0.3-0.2-0.3,0,0,0.2c0.1,0.2,0,0.4,0,0c0,0.2,0,0.2,0,0.4c-0.1,0.2-0.3,0.2-0.4,0.2s-0.1,0,0.1,0c0,0.2,0.1,0,0.1,0.5
		c-0.1,0.4-0.3,0.7-0.5,0.9c0,0.2,0,0.2-0.1,0.2c-0.3,0.2-0.1,0.2,0.3,0.2l-0.5-0.5c-0.1-0.4-0.4-0.9-0.4-1.4c0-0.4,0.5-1.1,0.8-0.7
		C160.1,156.2,160.5,155.8,160.5,155.3L160.5,155.3"/>
	<path fill="#A2B720" d="M167,157.4c-0.1-0.2-0.1-0.4-0.3-0.5l0,0h-0.1c-0.1-0.2-0.1-0.2-0.3-0.2c-0.3,0-0.5,0-0.8,0.2
		c-0.7,0.4-0.8,1.6-0.4,2.3c0.5,0.9,1.5,1.1,2.1,0.2c0.5-0.7,0.7-2.3-0.1-3c-0.7-0.5-1.6,0.4-1.3,1.4c0,0.2,0.1,0.4,0.1,0.5
		c0.1,0,0-0.2,0-0.4v0.2V158c0,0.2,0,0.2,0.1,0c-0.1,0-0.1,0-0.1,0s0.3-0.2,0.1-0.2c0.1,0,0.1,0,0,0c0.1,0,0.1,0,0.1,0
		c-0.1,0-0.1,0,0,0l0,0c0,0.2,0.1,0,0,0c0,0,0,0.2,0,0c0,0,0,0,0,0.2c0,0,0,0,0,0.2c0-0.2,0-0.2,0,0l0,0c0,0.2,0,0.2,0,0
		c0.1-0.2,0,0.2,0.1,0c0-0.2-0.1,0,0,0c0,0,0,0,0-0.2c0,0.2,0,0.2,0,0h0.1c-0.1,0-0.1,0,0,0l0,0C166.7,158.3,167.1,157.8,167,157.4
		L167,157.4"/>
	<path fill="#A2B720" d="M156.3,148.2c-0.4-0.2-0.9-0.2-1.2,0.4c-0.4,0.5-0.4,1.1-0.4,1.8c0.1,0.4,0.4,0.7,0.7,0.9
		c0.7,0.4,1.6-0.2,2-0.9c0.4-0.5,0.7-1.4,0.4-2.1c-0.3-0.4-0.7-0.7-0.9-0.9c-1.5-0.7-3.1,1.1-2.7,3.2c0,0.4,0.4,0.9,0.8,1.1
		c0.9,0.2,2-0.2,2.5-1.4c0.5-1.4,0-3-1.1-3.6c-0.9-0.4-2,0.2-2.3,1.4c-0.3,0.9,0.1,1.8,0.7,2.3c0.5,0.5,1.3,0.5,1.9,0
		c0.6-0.5,0.8-1.4,0.4-2.3c-0.3-0.7-1.2-1.1-1.7-0.5c-0.1,0,0,0,0.1,0c0.1-0.2,0.3-0.2,0.4-0.2c0.1,0.2,0.1,0.2,0.3,0.2
		c0.3,0.5,0.3,0.5,0.3,0.4c0,0.2,0.1,0.5,0.1,0.7c0,0.5-0.3,0.9-0.5,1.1c-0.1,0.2-0.1,0.2,0,0c0.1,0-0.4,0.2-0.1,0.2
		c0.1,0-0.1-0.2-0.1-0.2c0.1,0.2-0.3,0-0.1,0c0,0,0.1,0.2,0,0c-0.1,0-0.1-0.2-0.1-0.2c-0.1-0.2-0.1-0.2,0,0
		c-0.1-0.2-0.1-0.4-0.1-0.5c0-0.2,0-0.4,0-0.2c0-0.2,0-0.2,0-0.2c0,0.2,0,0.2,0,0c0.1,0,0.1-0.2,0,0c0,0,0,0,0.1,0
		c0.1-0.2-0.1,0-0.1,0s0.1-0.2,0,0l0,0c0.1,0,0.1,0,0.1,0c-0.1,0-0.3,0-0.3,0c0.4,0.4,0.8,0.7,1.1,1.1c0-0.2,0-0.2,0,0.2
		c0-0.2,0-0.2,0,0.2c0.1-0.4-0.1,0.4,0,0c0.1-0.2-0.1,0.2,0,0c0.1,0,0,0-0.1,0.2c0.1-0.2,0.1-0.2,0.1-0.2c0.3-0.2-0.1,0.2,0,0
		c0.1,0,0.1,0-0.1,0c0.1,0,0.1,0,0.1,0c-0.1,0-0.1,0,0,0c-0.1,0-0.1,0-0.3-0.2l0.1,0.2c-0.1-0.4-0.1-0.9-0.3-1.3l0,0l0,0l0,0
		c-0.1,0.2-0.1,0.2,0,0c-0.1,0.2-0.1,0.2-0.1,0.2c0.1-0.2,0.1-0.2,0,0c-0.1,0-0.1,0,0,0c-0.1,0-0.1,0-0.3,0c0.3,0.2,0.5,0.4,0.8,0.5
		c0,0.2,0,0,0,0c0,0.2,0,0,0,0c0-0.2,0-0.4,0.1-0.4c-0.1,0,0,0,0,0C156.5,148.7,156.5,148.3,156.3,148.2L156.3,148.2"/>
	<path fill="#A2B720" d="M152.7,156.4c0.1,0.9,1.2,1.4,1.7,0.7c0.5-0.5,0.5-1.8,0.1-2.5c-0.3-0.4-0.7-0.7-0.9-0.5
		c-0.4,0.2-0.7,0.5-0.9,0.9c-0.3,0.4-0.4,1.1-0.3,1.6c0.1,0.5,0.5,1.1,0.9,1.2c0.4,0.2,0.8,0,1.2-0.2c0.3-0.2,0.4-0.5,0.4-0.7
		c0.1-0.4,0.1-0.7,0-0.9c-0.1-0.5-0.7-0.9-1.2-0.7c-0.1,0,0.3,0,0.1,0c0,0,0.1,0,0,0c0-0.2-0.1-0.2,0.1,0c0,0,0.1,0.2,0,0
		c0.1,0.4,0.1,0.5,0.3,0.9c0-0.4,0,0.2,0,0V156c0,0.2,0,0.2,0,0.2s0.1-0.4,0-0.2c0,0.2,0.1,0,0.1-0.2c-0.4,0.2-0.7,0.2-1.1,0.2
		c0,0.2,0.1,0.2,0.1,0.2c-0.1,0-0.1-0.2-0.1-0.2l0,0l0,0c0.1,0.2,0-0.2,0,0s0,0.2,0,0c0,0.2,0,0.2,0,0.2c0-0.2,0.1-0.2,0.1-0.4
		c0.1,0,0.3-0.2,0.1-0.2c0.1,0-0.1,0,0,0c0,0,0,0-0.1,0l0,0C153.3,155.3,152.7,155.6,152.7,156.4L152.7,156.4"/>
	<path fill="#569030" d="M198.2,133.5c-5.9,15-17.2,24.8-28.6,32.5c-2.3,1.4-4.7,3-7.2,3.6c-3.2,0.7-6.7,0-9.7-1.8
		c-7.5-4.1-12.5-14.5-13.4-25.2c-0.3-3.9,0.1-7.7,1.2-10.3c1.6-4.8,5.2-7.1,10.7-4.5c3.2,1.6,6.3,4.1,9.5,5.4c-3.9,2-7.3,5.4-9.5,10
		c-3.1,6.6-2.8,16.2,1.6,21.1c4.4,4.9,11.1,3.7,16-0.2c2.9-2.3,5.3-5.4,8-8.2c2.9-3,5.9-6.2,8.5-9.6c3.6-4.6,7.6-9.5,9.9-15.7
		c0.9-2.9,1.6-6.2,0.9-9.5c-0.4-1.8-1.3-3.4-2.5-4.5c2.1,0.2,4.1,1.4,5.2,3.7C200.9,124.2,199.8,129.4,198.2,133.5z"/>
	<path fill="#619F30" d="M123.5,189.5c-0.8,4.7-4.5,7.3-8.1,8.6c-12.7,4.6-26.2,0-38.6-6.1c-2.5-1.3-5.1-2.7-7.2-4.8
		c-2.7-2.7-4.7-6.8-5.9-11.1c-2.9-10.7-0.7-23,4.9-31.4c2-3,4.4-5.4,6.7-6.2c4-1.8,7.7,0.4,10.1,7.9c1.3,4.6,2.1,9.6,4,13.9
		c0.3,0.7,0.5,1.4,0.9,2l0.1,0.2l0,0c2.9,4.8,7.6,7,12.1,8.6c2.8,1.2,5.7,2.3,8.7,3.4c1.5,0.4,2.8,0.9,4.3,1.6
		c1.5,0.7,2.9,1.6,4.3,2.9C122.4,181.3,124.2,185.4,123.5,189.5z"/>
	<path fill="#A2B720" d="M68.4,163.7c-2-0.7-3.5,2-2.5,4.3c0.9,2.7,3.6,2.5,4.8,0.5c0.8-1.1,1.1-2.5,0.9-3.9
		c-0.3-1.1-0.8-2.3-1.7-2.7c-1.2-0.4-2.3,0.9-2.8,2.1c-0.7,1.2-0.8,3,0,4.3c0.8,1.2,2.3,1.4,3.1,0.4c0.8-1.1,0.8-2.9,0.7-4.3
		c-0.1-0.7-0.7-1.3-1.2-1.3c-1.3,0-2.4,0.7-3.2,2.1c-0.3,0.5-0.3,1.3,0,1.8c0.7,1.3,1.6,1.8,2.7,1.4c1.5-0.2,1.2-3.6-0.3-3.4
		c-0.3,0-0.3,0-0.1,0.2c0,0.5,0,1.3,0,1.8c0.3-0.4,0.5-0.5,0.9-0.4c-0.4-0.5-0.8-0.9-1.3-1.4c0,0.2,0,1.1,0,1.1
		c0.1-0.2,0.3-0.4,0.4-0.4c0.3,0,0.3,0,0.4,0.2c0,0.2,0,0.2,0,0.2c0-0.2,0-0.2,0-0.4c0.1-0.2,0.4-0.7,0.4-0.9c0,0-0.3-0.2-0.3,0
		c0,0,0.1,0.4,0.1,0.2c0,0.4,0,0.4,0,0.7c-0.3,0.9-1.1,1.8-1.9,1.1c-0.9-1.1,0.4-2.1,0.9-2.7C68.6,164.2,68.6,163.9,68.4,163.7
		L68.4,163.7"/>
	<path fill="#A2B720" d="M73.4,169.6c-0.1,0.5,0.1,1.2,0.5,1.6c0.1,0.2,0.4,0.4,0.7,0.2c0.4-0.4,0.7-0.7,0.7-1.2
		c0.1-0.7-0.1-1.6-0.7-1.8c-0.4-0.2-0.8,0-1.2,0.5s-0.4,1.4,0,2c0.5,0.5,1.2,0.5,1.5-0.2c0.1-0.4,0.1-0.7,0.1-1.1
		c-0.1-0.4-0.4-0.7-0.7-0.7c0.4,0.2,0.7,0.5,0.5,1.1c0,0,0,0,0,0.2c0,0,0,0-0.1,0.2c0.1-0.2-0.1,0.2,0,0c-0.3,0.2-0.4,0.2-0.7,0
		c0,0-0.1,0-0.1-0.2c0-0.2,0-0.2,0,0c0-0.2,0-0.4,0-0.2c0,0.2,0,0,0,0l0,0c0,0.2,0,0.2,0,0c0,0-0.1,0.4,0,0c0.1,0,0.4,0,0.5-0.2
		c0.1,0.2,0,0,0,0c-0.1,0-0.1,0,0,0c-0.1,0-0.1,0-0.1,0c0-0.2,0-0.2,0-0.2l0,0c0,0-0.1,0-0.1-0.2c0.1,0.2,0.1,0.2,0,0
		C74.1,168.7,73.4,168.8,73.4,169.6L73.4,169.6"/>
	<path fill="#A2B720" d="M70.6,174.6c-1.1-0.9-2.3,0.5-2.3,2c0.1,2,2,3,3.1,1.8c1.1-1.2,0.9-3.7-0.4-4.5c-1.3-0.9-3.1,0.7-2.4,2.7
		c0.7,2.1,2.7,2,3.1-0.2c0.5-1.4-0.1-3.6-1.3-4.1c-1.3-0.5-2.7,0.7-2.9,2.5c-0.4,2,0.7,3.7,2.3,3.7c2-0.2,2.7-3.7,0.9-5
		c-2-1.2-3.6,2.9-1.7,4.3c1.5,1.1,2.7-2,1.2-2.9c0.3,0,0.5,0.9,0.4,1.3c-0.3,0-0.7,0.2-0.9,0.4c0-0.2-0.1-0.2-0.3-0.4
		c-0.1-0.4,0-0.9,0.3-0.9c0.1,0,0,0.2,0.1,0.2v-0.2v-0.2c0,0,0.1,0-0.1,0c0,0,0.1,0,0,0c0.1,0.2,0.1,0.2,0.1,0.4c0-0.2,0,0.2,0,0.2
		v-0.2c0.3,0,0.8-0.4,0.8,0c0.1,0.4-0.1,0.7-0.3,0.9c0.1-0.2,0-0.2,0-0.2c0,0.2-0.1,0.4,0,0.4c-0.1,0-0.3-0.2-0.4-0.2
		c-0.4-0.5,0.3-1.1,0.7-1.1C70.8,175.3,70.9,174.7,70.6,174.6L70.6,174.6"/>
	<path fill="#569030" d="M123.5,189.5c-0.8,4.7-4.5,7.3-8.1,8.6c-12.7,4.6-26.2,0-38.6-6.1c-2.5-1.3-5.1-2.7-7.2-4.8
		c-2.7-2.7-4.7-6.8-5.9-11.1c-2.9-10.7-0.7-23,4.9-31.4c2-3,4.4-5.4,6.7-6.2c4-1.8,7.7,0.4,10.1,7.9c1.3,4.6,2.1,9.6,4,13.9
		c-2.1-3-5.3-4.6-8.4-5.4c-3.3-0.7-6.8-0.7-10,0.9s-5.9,5-6.8,9.3c-1.1,5,0.3,10.3,2.9,14.3c2.5,3.9,6,6.4,9.6,8.2
		c10.4,5.5,22,6.8,33,3.7c3.1-0.7,6.4-2.3,7.5-6.2c0.9-3,0-6.6-1.6-9.1c1.5,0.7,2.9,1.6,4.3,2.9
		C122.4,181.3,124.2,185.4,123.5,189.5z"/>
	<path fill="#619F30" d="M43.4,71.2c-0.5,3.2-0.9,6.6-0.7,10c0.1,2.7,0.8,5.2,2.4,7.1c7.5,33.5,7.5,33.5,7.5,33.5
		c-5.7-3-11.5-6.1-16.3-10.9c-4.9-4.8-8.9-11.6-10-19.6c-0.5-5.4,0.1-10.5,0.1-15.9c-0.1-5.4-0.9-11.1-4-14.5
		c-5.3-5.7-14.4-2-19.3-8.4c-1.7-2.1-2.7-5.2-2.9-8.4c0-0.5-0.1-1.1-0.1-1.6c0-0.2,0-0.5,0-0.7c0-1.6,0.1-3.2,0.3-4.8
		c1.2-8.2,5.5-15.3,10.9-19.4c6.7-5.2,14.7-6.2,22.3-5c6.1,0.9,12.3,3,17.1,8c4.8,5,8.1,13.2,7.5,21.2c-0.8,8.4-5.3,15-10.1,20.2
		c-1.2,1.2-2.4,2.5-3.2,4.1C44.1,67.7,43.7,69.5,43.4,71.2z"/>
	<path fill="#FFFFFF" d="M42.5,27.4c-1.1-2.5-2.7-4.6-4.8-5.9c-3.6-1.8-8.3-1.1-11.2,2.5c-3.9,5-3.1,13.2,0.8,17.7
		c4.1,4.5,11.3,6.2,15.1,0C44.7,37.5,44.3,31.8,42.5,27.4"/>
	<path fill="#1D1B19" d="M27.4,33.8c-0.4,6.4,4.7,11.1,8.9,8.4c2.7-1.8,3.9-5,3.5-9.1c-0.3-2.3-1.5-4.3-3.1-5.5
		c-3.2-2.1-7.6-0.7-9.1,4.1C27.5,32.4,27.4,33.1,27.4,33.8"/>
	<path fill="#FFFFFF" d="M34,28.8c-0.9,0.5-1.6,1.8-1.6,3.4c0,0.5,0.1,1.1,0.5,1.4c0.7,0.9,1.9,1.1,2.7,0.4c0.8-0.7,1.2-2.1,0.9-3.4
		C36.2,28.6,35,28.2,34,28.8"/>
	<path fill="#A2B720" d="M51.8,29.7c-0.8-1.3-2.1-0.4-2.5,1.1c-0.4,1.6-0.1,3.7,0.9,4.6c1.2,0.9,2.7-0.5,3.1-2.1
		c0.4-1.6,0-3.6-0.9-4.8c-0.5-0.5-1.2-0.5-1.7,0c-0.8,1.3-1.2,3-0.8,4.5c0.3,0.9,1.2,1.8,1.9,1.1c0.4-0.4,0.8-0.7,1.1-1.4
		c0.7-1.1-0.4-2.7-1.3-2.3c-0.4,0.2-0.7,0.5-1.1,0.9c0.7,0.2,1.3,0.5,1.9,0.9c-0.1-0.4-0.1-0.9,0.1-1.3c-0.5,0-1.1,0-1.7,0
		c0.3,0.4,0.5,0.7,0.5,1.3c0,0.2,0,0.4-0.1,0.5c0,0,0,0,0,0.2c-0.1,0-0.1,0.2-0.1,0c0.1,0,0.3,0,0.3,0.2c0-0.2,0-0.2,0-0.4
		s-0.1-0.5-0.1-0.7c-0.1-0.7,0.3-0.9,0.5-1.4c-0.1,0.2-0.3,0.4-0.4,0.5c0.1-0.2,0.3-0.2,0.3-0.2C51.9,30.9,51.9,30.2,51.8,29.7
		L51.8,29.7"/>
	<path fill="#A2B720" d="M53.1,38.6L53.1,38.6c0,0,0-0.2,0.1-0.2c-0.1,0-0.1,0,0-0.2c0,0.2,0,0.2,0,0l0,0c0.1,0,0.1,0,0,0
		c-0.1,0.2,0.1,0,0,0c0.1,0,0.1,0,0.1,0l0,0h0.1l0,0c0,0,0.1,0,0.1,0.2c0,0,0,0,0-0.2c0,0.2,0.1,0.2,0.1,0.2l0,0v0.2l0,0l0.1,0.2
		l0,0V39c0,0,0,0,0-0.2c0,0.2,0,0.2,0,0.4c0,0,0,0,0-0.2c0,0.2-0.1,0.2-0.1,0.4c0-0.2,0.1-0.2,0.1-0.4c0,0,0,0.2-0.1,0.2h0.1
		c-0.1,0-0.1,0.2-0.1,0.2l0,0c0,0-0.1,0-0.1,0.2c0-0.2,0.1-0.2,0.3-0.4c-0.1,0.2-0.1,0.2-0.3,0.2h0.1c-0.1,0-0.1,0.2-0.3,0.2l0,0
		c0.3-0.2,0.4-0.4,0.5-0.5c0.1-0.2,0.1-0.5,0.1-0.7c-0.1-0.5-0.4-0.9-0.8-0.9c-0.5,0-1.1,0.5-1.1,1.4c0,0.4,0.1,0.9,0.5,1.2
		c0.4,0.4,1.1,0.2,1.3-0.5c0.1-0.4,0.1-1.1-0.1-1.4c-0.3-0.2-0.4-0.2-0.5,0C53.3,38.1,53.1,38.2,53.1,38.6L53.1,38.6"/>
	<path fill="#A2B720" d="M48.9,39.8c-0.3,0-0.5,0.2-0.7,0.4c-0.1,0.2-0.3,0.4-0.4,0.7c-0.1,0.7,0.3,1.4,0.8,1.6
		c0.4,0.2,0.9-0.2,1.2-0.7c0.3-0.7,0.1-1.4-0.1-2c-0.1-0.2-0.4-0.4-0.5-0.4c-0.3,0.2-0.4,0.2-0.7,0.4c-0.1,0.2-0.3,0.4-0.5,0.7
		c-0.3,0.4-0.3,1.1,0,1.4c0.4,0.4,0.9,0.5,1.2,0c0.1-0.2,0.3-0.4,0.5-0.7c-0.4,0-0.7,0.2-0.9,0.2c-0.1,0-0.1-0.2-0.3-0.2
		c0.1,0,0.1,0,0-0.2v0.2c0,0,0,0,0-0.2c0,0.2,0.1-0.2,0,0c0,0,0,0,0.1-0.2c0,0,0-0.2,0,0c0-0.2,0.1-0.2,0-0.2h0.1c-0.1,0-0.1,0,0,0
		c0,0,0,0,0.1,0c0,0,0,0-0.1,0c0,0,0,0,0.1,0c-0.1,0-0.1,0,0,0.2c0-0.2,0-0.2,0,0c0,0.2,0.1,0.2,0.1,0.4l0,0l0,0c0-0.2,0,0,0-0.2
		l0,0c0,0,0.1,0,0.1-0.2l0,0l0,0C49.4,40.6,49.3,39.8,48.9,39.8L48.9,39.8"/>
	<path fill="#569030" d="M52.6,121.9c-5.7-3-11.5-6.1-16.3-10.9c-4.9-4.8-8.9-11.6-10-19.6c-0.5-5.4,0.1-10.5,0.1-15.9
		c-0.1-5.4-0.9-11.1-4-14.5C17.1,55.2,8,58.9,3.1,52.5c-1.7-2.1-2.7-5.2-2.9-8.4c0.4,0.4,0.9,0.7,1.3,1.1c5.3,3.7,11.3,5.2,17.4,5
		c3.3,0,6.9-0.5,9.6,2.3c2.7,2.9,3.1,8,3.3,12.7c0.1,4.3,0.3,8.7,0.5,13c0.1,2.9,0.3,5.9,1.3,8.4c1.1,2.3,3.3,4.1,5.3,3
		c2-1.1,2.7-4.5,3.3-7.1c0.1-0.4,0.3-0.9,0.4-1.2c0.1,2.7,0.8,5.2,2.4,7.1C52.6,121.9,52.6,121.9,52.6,121.9z"/>
	<path fill="#A2B720" d="M67.6,51.8c-8,5.7-13.8,13.2-19.2,22.7c-4.5,8-6.3,12.3-4.9,23c2.4,19.8,12.5,36.8,25.8,45.7
		c17.9,12,35.6,14.8,55.3,10.7c14.2-3,31.4-13.6,35.9-33.4c0.1-0.5,0.3-1.3,0.4-1.8c1.1-5.4,0.9-11.1,0.3-16.4
		c-2.4-18.9-12.4-35-24.4-45.3C116.3,39.3,88.9,36.6,67.6,51.8z"/>
	<path fill="#8F9C24" d="M141.9,69.6c-0.5-11.8-15.9-23.4-23-14.8c-9.2,11.2,6.7,22.7,13.5,24.6c1.9,0.5,3.9,0.5,5.6-0.4
		C140.7,77.5,142.2,73.4,141.9,69.6"/>
	<path fill="#D6E218" d="M142.8,67.1c-0.8-11.7-15.9-23.4-23-14.8c-9.2,11.4,6.7,22.7,13.5,24.6c1.9,0.5,3.9,0.7,5.6-0.4
		C141.6,75,143.1,70.9,142.8,67.1z"/>
	<path fill="#8F9C24" d="M100.4,45.2c-6-8.4-23.4-4.1-24.7,8.6c-1.6,16.6,16.2,11.4,22.2,7.1c1.7-1.3,3.3-2.9,4.1-5.2
		C103.2,52.3,102.4,48.1,100.4,45.2"/>
	<path fill="#D6E218" d="M100,42.5c-6-8.6-23.4-4.1-24.7,8.6c-1.6,16.6,16,11.4,22.2,7.1c1.7-1.3,3.2-2.9,4.1-5.2
		C102.8,49.7,102,45.4,100,42.5z"/>
	<path fill="#8F9C24" d="M135.4,123.3c-4.7-9.8-22.3-10.5-25.5,1.6c-4.1,15.7,13.9,15.7,20.6,13c1.9-0.7,3.6-1.8,4.8-3.7
		C137,131.2,136.8,126.7,135.4,123.3"/>
	<path fill="#D6E218" d="M135.4,120.7c-4.6-10.1-22.3-10.5-25.5,1.6c-4.1,15.7,13.9,15.7,20.6,13c1.9-0.7,3.6-1.8,4.8-3.9
		C137,128.3,136.8,123.9,135.4,120.7z"/>
	<path fill="#8F9C24" d="M96.1,121.4C94.3,106.8,74,95,65.8,106.9c-10.4,15.7,10.7,27.1,19.4,28.4c2.4,0.4,4.9,0.2,6.9-1.4
		C95.3,131.4,96.7,126,96.1,121.4"/>
	<path fill="#D6E218" d="M97.1,118.2c-1.7-14.7-22.3-26.4-30.3-14.5c-10.4,15.7,10.7,27.1,19.4,28.4c2.4,0.4,4.9,0.2,6.9-1.4
		C96.3,128.2,97.6,122.8,97.1,118.2z"/>
	<path fill="#8F9C24" d="M121.2,91.9C119.1,75.8,96.5,62.6,87.7,76c-11.6,17.5,11.9,30.2,21.5,31.4c2.7,0.4,5.3,0.2,7.7-1.6
		C120.3,103,121.9,97.1,121.2,91.9"/>
	<path fill="#D6E218" d="M122.3,88.4c-2.1-16.1-24.7-29.3-33.6-15.9c-11.5,17.5,11.9,30.2,21.6,31.4c2.5,0.4,5.3,0.2,7.6-1.6
		C121.4,99.4,123,93.6,122.3,88.4z"/>
	<path fill="#8F9C24" d="M75.7,72.1C69.2,62,49.1,65.4,47,79.8c-2.7,18.7,17.9,14.5,25.1,10c1.9-1.3,3.7-2.9,4.8-5.5
		C78.5,80.5,77.8,75.5,75.7,72.1"/>
	<path fill="#D6E218" d="M75.3,69.1c-6.7-10-26.6-7-28.7,7.5c-2.7,18.7,17.9,14.6,25.1,10.2c1.9-1.3,3.7-3,4.8-5.5
		C78.1,77.5,77.4,72.3,75.3,69.1z"/>
	<path fill="#8F9C24" d="M156.3,103c-1.7-13.2-20.2-23.9-27.4-12.8c-9.5,14.1,9.6,24.4,17.5,25.3c2.1,0.4,4.4,0.2,6.3-1.2
		C155.5,112.1,156.9,107.3,156.3,103"/>
	<path fill="#D6E218" d="M157.1,100c-1.6-13.1-20.2-23.7-27.4-12.8c-9.3,14.3,9.7,24.4,17.5,25.5c2.1,0.4,4.4,0.2,6.3-1.3
		C156.3,109.1,157.7,104.3,157.1,100z"/>
	<path fill="#569030" d="M90.5,162.4c0,0,0,0-0.1-0.2L90.5,162.4L90.5,162.4L90.5,162.4"/>
	<path fill="#48772D" d="M27.8,47.9c-0.9,0.2-1.9,0.7-2.8,0.9c-0.9,0.2-1.7,0.4-2.7,0.4c-1.7,0.4-3.5,0.5-5.2,0.5
		c-5.7,0-11.5-1.8-16-6.6c-0.4-0.4-0.7-0.9-1.1-1.2c0-1.6,0.1-3.2,0.3-4.8c2.5,4.5,6.4,7.3,10.4,8.7c2.7,0.9,5.5,1.2,8.3,1.4
		c1.5,0,2.9,0,4.4,0c1.6,0,2.9,0,4.4,0.4C28,47.5,28,47.9,27.8,47.9"/>
	<path fill="#48772D" d="M9.6,33.8c-0.5,0.2-0.4,1.1-0.1,1.4c0.1,0.4,0.5,0.2,0.8,0.2c0.3-0.2,0.4-0.5,0.5-0.7
		c0.1-0.2,0.1-0.5,0-0.7c-0.1-0.4-0.3-0.5-0.4-0.5c-0.4-0.2-0.7-0.2-1.1,0c-0.3,0-0.5,0.5-0.5,1.1c0,0.2,0,0.4,0.1,0.5
		c0,0.2,0.3,0.4,0.4,0.5c0.1,0,0.3,0,0.4,0c0.4,0,0.8-0.4,0.8-0.9c0.1-0.5-0.1-1.1-0.5-1.2c-0.1,0-0.3,0-0.3,0c-0.1,0-0.3,0-0.4,0
		c0.3,0.5,0.5,1.2,0.8,1.8c0,0,0.1,0,0.1-0.2c-0.1,0.2-0.1,0.2-0.1,0.2h0.1h-0.1c0,0,0,0,0.1,0c0,0,0.3-0.2,0.1-0.2
		c-0.3-0.2-0.5-0.4-0.8-0.5c-0.1-0.2-0.1-0.2,0-0.4H9.4c0.1,0,0.1,0,0.1,0c-0.1,0-0.1,0,0,0c0,0,0,0-0.1,0c0,0,0,0,0.1,0
		c0,0,0,0-0.1,0c0.1,0,0.3,0,0.4,0c0,0,0,0,0.1,0c-0.1,0-0.1,0,0,0c-0.1,0,0,0.2,0,0c0,0.2,0,0.2,0,0c0,0.2-0.1-0.2,0,0
		C9.9,34,9.7,33.8,9.6,33.8L9.6,33.8"/>
	<path fill="#48772D" d="M5.5,27.7c-0.1-0.2-0.4-0.4-0.5-0.2S4.7,27.9,4.7,28c0,0.5,0.3,0.9,0.7,0.9c0.3,0,0.5-0.2,0.7-0.5
		c0-0.2,0.1-0.4,0.1-0.4c0-0.4,0-0.7-0.1-1.1c-0.3-0.4-0.5-0.4-0.9-0.4c-0.3,0.2-0.5,0.5-0.5,0.9c-0.1,0.4-0.1,0.5,0,0.9
		c0,0.5,0.2,0.7,0.5,0.7c0.1,0,0.4-0.2,0.5-0.2c0-0.2,0.1-0.4,0.3-0.5l0,0c-0.1,0-0.1,0.2-0.1,0.2s0-0.2,0.1-0.2c0-0.2,0-0.4,0-0.5
		c0,0,0,0,0-0.2c0,0.2,0,0.2,0,0.4c0,0,0,0,0-0.2C6,28,6,28,6,28.2l0,0c-0.1,0-0.1,0.2-0.1,0.2s0,0,0-0.2c0,0.2,0,0.2-0.1,0.4
		c0.1-0.2,0.1-0.2,0.1-0.2c-0.1,0.2-0.1,0.2-0.1,0.2l0,0c-0.1,0-0.1,0-0.1,0.2c0,0,0,0,0-0.2c-0.1,0.2-0.1,0.2-0.3,0.2h0.1
		c-0.1,0-0.1,0-0.3-0.2c0,0,0,0.2,0.1,0.2c-0.3-0.4-0.4-0.5-0.5-0.7v0.2v-0.2v0.2c0-0.2,0-0.2,0-0.2l0,0c0,0,0-0.2,0.1-0.2
		c-0.1,0-0.1,0-0.1,0c0.1,0,0.1,0,0.1-0.2c0,0.2,0,0.2,0,0.2c0-0.2,0-0.2,0.1-0.2l0,0c0,0,0,0,0.1,0c-0.1,0-0.1,0-0.1,0
		c0.1,0,0.1,0,0.1-0.2c0,0.2-0.1,0.2-0.1,0.2h0.1l0,0c0,0,0,0,0.1,0l0,0C5.3,27.5,5.3,27.5,5.5,27.7c0,0,0,0,0,0.2s0,0.2,0,0.2
		C5.5,27.9,5.5,27.7,5.5,27.7L5.5,27.7"/>
</g>
</svg>
