<?xml version="1.0" encoding="UTF-8" standalone="no"?>
<!-- Generator: Adobe Illustrator 15.0.0, SVG Export Plug-In . SVG Version: 6.00 Build 0)  -->

<svg
   xmlns:dc="http://purl.org/dc/elements/1.1/"
   xmlns:cc="http://creativecommons.org/ns#"
   xmlns:rdf="http://www.w3.org/1999/02/22-rdf-syntax-ns#"
   xmlns:svg="http://www.w3.org/2000/svg"
   xmlns="http://www.w3.org/2000/svg"
   xmlns:sodipodi="http://sodipodi.sourceforge.net/DTD/sodipodi-0.dtd"
   xmlns:inkscape="http://www.inkscape.org/namespaces/inkscape"
   version="1.1"
   id="Layer_1"
   x="0px"
   y="0px"
   width="76px"
   height="66px"
   viewBox="0 0 76 66"
   enable-background="new 0 0 76 66"
   xml:space="preserve"
   sodipodi:docname="Speaker_bird.svg"
   inkscape:version="0.92.1 r15371"><metadata
     id="metadata72"><rdf:RDF><cc:Work
         rdf:about=""><dc:format>image/svg+xml</dc:format><dc:type
           rdf:resource="http://purl.org/dc/dcmitype/StillImage" /><dc:title></dc:title></cc:Work></rdf:RDF></metadata><defs
     id="defs70" /><sodipodi:namedview
     pagecolor="#ffffff"
     bordercolor="#666666"
     borderopacity="1"
     objecttolerance="10"
     gridtolerance="10"
     guidetolerance="10"
     inkscape:pageopacity="0"
     inkscape:pageshadow="2"
     inkscape:window-width="1115"
     inkscape:window-height="1008"
     id="namedview68"
     showgrid="true"
     inkscape:snap-bbox="true"
     inkscape:snap-object-midpoints="false"
     inkscape:snap-center="false"
     inkscape:zoom="11.313709"
     inkscape:cx="41.586926"
     inkscape:cy="38.595039"
     inkscape:window-x="0"
     inkscape:window-y="0"
     inkscape:window-maximized="0"
     inkscape:current-layer="Layer_1"><inkscape:grid
       type="xygrid"
       id="grid167" /></sodipodi:namedview><g
     id="g229"><rect
       id="rect47"
       height="14"
       width="8"
       fill="#64A01F"
       y="23"
       x="16" /><polygon
       id="polygon49"
       points="17,36 23,36 23,32.821 23,26.799 23,24 17,24 "
       fill="#FFFFFF" /><polygon
       id="polygon51"
       points="25,37 25,23 36,12 36,48 "
       fill="#64A01F" /><polygon
       id="polygon53"
       points="26,36.586 26,23.414 35,14.414 35,45.586 "
       fill="#FFFFFF" /><path
       id="path55"
       d="M36.182,35.343l1.172-1.042c1.422-1.266,2.238-3.07,2.238-4.952c0-1.751-0.682-3.406-1.92-4.658l-1.09-1.104  l3.393-3.395l1.104,1.114c2.138,2.16,3.313,5.016,3.313,8.042c0,3.246-1.399,6.355-3.844,8.531l-1.158,1.033L36.182,35.343z"
       fill="#64A01F" /><path
       id="path57"
       d="M40.368,22.011l-0.396-0.4l-1.979,1.98l0.392,0.396c1.424,1.44,2.208,3.345,2.208,5.361  c0,2.167-0.938,4.244-2.573,5.699l-0.42,0.374l1.871,2.082l0.416-0.371c2.229-1.985,3.508-4.823,3.508-7.784  C43.393,26.586,42.318,23.981,40.368,22.011z"
       fill="#FFFFFF" /><path
       id="path59"
       d="M40.26,39.882l1.164-1.044c2.709-2.417,4.262-5.876,4.262-9.489c0-3.377-1.313-6.56-3.703-8.963  l-1.096-1.104l3.396-3.394l1.104,1.11c3.288,3.31,5.102,7.695,5.102,12.351c0,4.976-2.135,9.737-5.857,13.064l-1.16,1.039  L40.26,39.882z"
       fill="#64A01F" /><path
       id="path61"
       d="M44.676,17.703l-0.396-0.399l-1.979,1.98l0.395,0.396c2.574,2.592,3.994,6.025,3.994,9.668  c0,3.896-1.674,7.628-4.596,10.234l-0.418,0.375l1.871,2.083l0.416-0.373c3.514-3.14,5.523-7.629,5.523-12.319  C49.486,24.96,47.777,20.824,44.676,17.703z"
       fill="#FFFFFF" /><path
       style="fill:#64a01f;fill-opacity:1"
       id="path63"
       d="M44.611,44.725l1.162-1.043c4.084-3.654,6.425-8.879,6.425-14.333c0-5.113-1.993-9.931-5.61-13.565  l-1.098-1.105l3.394-3.392l1.103,1.106C54.51,16.936,57,22.957,57,29.349c0,6.815-2.923,13.342-8.02,17.907l-1.16,1.038  L44.611,44.725z"
       fill="#64A01F" /><path
       fill="#FFFFFF"
       id="path65"
       d="M49.277,13.099l-0.396-0.397l-1.98,1.979l0.396,0.397c3.806,3.823,5.902,8.892,5.902,14.271  c0,5.738-2.462,11.233-6.757,15.077l-0.418,0.375l1.873,2.083l0.416-0.373C53.198,42.136,56,35.88,56,29.349  C56,23.223,53.611,17.452,49.277,13.099z" /></g><g
     style="fill:#64a01f;fill-opacity:1"
     id="g104"
     transform="matrix(0.03432343,0,0,0.03514143,54.614172,42.869492)" /><g
     style="fill:#64a01f;fill-opacity:1"
     id="g106"
     transform="matrix(0.03432343,0,0,0.03514143,54.614172,42.869492)" /><g
     style="fill:#64a01f;fill-opacity:1"
     id="g108"
     transform="matrix(0.03432343,0,0,0.03514143,54.614172,42.869492)" /><g
     style="fill:#64a01f;fill-opacity:1"
     id="g110"
     transform="matrix(0.03432343,0,0,0.03514143,54.614172,42.869492)" /><g
     style="fill:#64a01f;fill-opacity:1"
     id="g112"
     transform="matrix(0.03432343,0,0,0.03514143,54.614172,42.869492)" /><g
     style="fill:#64a01f;fill-opacity:1"
     id="g114"
     transform="matrix(0.03432343,0,0,0.03514143,54.614172,42.869492)" /><g
     style="fill:#64a01f;fill-opacity:1"
     id="g116"
     transform="matrix(0.03432343,0,0,0.03514143,54.614172,42.869492)" /><g
     style="fill:#64a01f;fill-opacity:1"
     id="g118"
     transform="matrix(0.03432343,0,0,0.03514143,54.614172,42.869492)" /><g
     style="fill:#64a01f;fill-opacity:1"
     id="g120"
     transform="matrix(0.03432343,0,0,0.03514143,54.614172,42.869492)" /><g
     style="fill:#64a01f;fill-opacity:1"
     id="g122"
     transform="matrix(0.03432343,0,0,0.03514143,54.614172,42.869492)" /><g
     style="fill:#64a01f;fill-opacity:1"
     id="g124"
     transform="matrix(0.03432343,0,0,0.03514143,54.614172,42.869492)" /><g
     style="fill:#64a01f;fill-opacity:1"
     id="g126"
     transform="matrix(0.03432343,0,0,0.03514143,54.614172,42.869492)" /><g
     style="fill:#64a01f;fill-opacity:1"
     id="g128"
     transform="matrix(0.03432343,0,0,0.03514143,54.614172,42.869492)" /><g
     style="fill:#64a01f;fill-opacity:1"
     id="g130"
     transform="matrix(0.03432343,0,0,0.03514143,54.614172,42.869492)" /><g
     style="fill:#64a01f;fill-opacity:1"
     id="g132"
     transform="matrix(0.03432343,0,0,0.03514143,54.614172,42.869492)" /><g
     id="g65"
     transform="matrix(0.0396087,0,0,0.03190745,56.239504,20.762376)" /><g
     id="g67"
     transform="matrix(0.0396087,0,0,0.03190745,56.239504,20.762376)" /><g
     id="g69"
     transform="matrix(0.0396087,0,0,0.03190745,56.239504,20.762376)" /><g
     id="g71"
     transform="matrix(0.0396087,0,0,0.03190745,56.239504,20.762376)" /><g
     id="g73"
     transform="matrix(0.0396087,0,0,0.03190745,56.239504,20.762376)" /><g
     id="g75"
     transform="matrix(0.0396087,0,0,0.03190745,56.239504,20.762376)" /><g
     id="g77"
     transform="matrix(0.0396087,0,0,0.03190745,56.239504,20.762376)" /><g
     id="g79"
     transform="matrix(0.0396087,0,0,0.03190745,56.239504,20.762376)" /><g
     id="g81"
     transform="matrix(0.0396087,0,0,0.03190745,56.239504,20.762376)" /><g
     id="g83"
     transform="matrix(0.0396087,0,0,0.03190745,56.239504,20.762376)" /><g
     id="g85"
     transform="matrix(0.0396087,0,0,0.03190745,56.239504,20.762376)" /><g
     id="g87"
     transform="matrix(0.0396087,0,0,0.03190745,56.239504,20.762376)" /><g
     id="g89"
     transform="matrix(0.0396087,0,0,0.03190745,56.239504,20.762376)" /><g
     id="g91"
     transform="matrix(0.0396087,0,0,0.03190745,56.239504,20.762376)" /><g
     id="g93"
     transform="matrix(0.0396087,0,0,0.03190745,56.239504,20.762376)" /><g
     id="g2305"
     transform="translate(31.830749,-5.2959028)"><path
       inkscape:connector-curvature="0"
       id="path2281"
       d="m 18.168028,44.985583 c -0.954571,0 -1.878128,0.140442 -2.732422,0.410157 -0.854293,0.269714 -1.639035,0.66828 -2.310547,1.18164 -0.477668,0.365201 -0.875301,0.771537 -1.189453,1.208985 -0.0044,0.01198 -0.0099,0.02362 -0.01563,0.03516 -0.166487,0.335578 -0.246054,0.771195 -0.240234,1.201172 0.0058,0.429976 0.09613,0.854732 0.271484,1.173828 0.273783,0.498234 0.708654,0.708657 1.291016,0.623047 0.650732,-0.09578 1.171795,0.05592 1.546875,0.451172 0.293374,0.309133 0.45863,0.718752 0.550781,1.154297 0.09215,0.435544 0.111328,0.89586 0.111328,1.30664 0,0.178916 -0.12331,0.324219 -0.273437,0.324219 -0.150127,0 -0.271485,-0.145303 -0.271485,-0.324219 0,-0.685613 -0.05447,-1.529759 -0.478515,-1.976562 -0.253225,-0.266833 -0.629681,-0.364849 -1.119141,-0.292969 -0.391271,0.05763 -0.747816,0.0057 -1.054687,-0.148438 -0.306872,-0.154136 -0.563002,-0.410792 -0.75586,-0.761718 -0.163685,-0.297855 -0.272722,-0.652252 -0.326172,-1.025391 -0.04666,0.24525 -0.07031,0.494608 -0.07031,0.746094 0,0.235125 -0.114385,0.558117 -0.287109,1.046875 -0.318808,0.90215 -0.800782,2.265183 -0.800782,3.785156 0,0.75302 0.20761,1.486775 0.603516,2.167969 0.395906,0.681194 0.978847,1.309925 1.732422,1.853515 0.774914,0.55902 1.680458,0.991473 2.666015,1.285157 0.985558,0.293684 2.051299,0.449218 3.152344,0.449218 1.101045,0 2.16874,-0.155534 3.154297,-0.449218 0.985557,-0.293684 1.889147,-0.726137 2.664062,-1.285157 0.753575,-0.54359 1.33847,-1.172321 1.734376,-1.853515 0.395905,-0.681194 0.603515,-1.414949 0.603515,-2.167969 0,-1.519973 -0.482008,-2.883005 -0.800781,-3.785156 -0.172725,-0.488798 -0.28711,-0.81175 -0.28711,-1.046875 10e-7,-0.251446 -0.02366,-0.500845 -0.07031,-0.746094 -0.05349,0.373138 -0.162486,0.727536 -0.326172,1.025391 -0.192858,0.350926 -0.448979,0.607592 -0.755859,0.761718 -0.306881,0.154127 -0.66345,0.206025 -1.054688,0.148438 -0.489561,-0.07192 -0.865881,0.02613 -1.11914,0.292969 -0.424079,0.446843 -0.478516,1.290948 -0.478516,1.976562 0,0.178915 -0.123311,0.324219 -0.273437,0.324219 -0.150127,0 -0.271485,-0.145304 -0.271485,-0.324219 0,-0.410781 0.01917,-0.871101 0.111328,-1.30664 0.09216,-0.43554 0.257391,-0.845184 0.550781,-1.154297 0.375079,-0.395207 0.896007,-0.546862 1.546876,-0.451172 0.582329,0.08577 1.015245,-0.124813 1.289062,-0.623047 0.17536,-0.319096 0.267618,-0.743852 0.273438,-1.173828 0.0058,-0.429977 -0.07375,-0.863641 -0.240235,-1.199219 -0.0058,-0.01154 -0.01122,-0.02512 -0.01563,-0.03711 -0.314153,-0.437448 -0.711785,-0.843783 -1.189453,-1.208985 -0.671528,-0.51338 -1.456249,-0.911921 -2.310547,-1.18164 -0.854298,-0.26972 -1.779804,-0.410157 -2.734375,-0.410157 z"
       style="opacity:1;fill:#ffffff;fill-opacity:1;stroke:none;stroke-width:0.33399999;stroke-linecap:round;stroke-linejoin:round;stroke-miterlimit:4;stroke-dasharray:none;stroke-opacity:1;paint-order:normal" /><g
       transform="matrix(0.03398078,0,0,0.04049695,9.4701718,42.555013)"
       id="g2180"><g
         id="g2121"><path
           inkscape:connector-curvature="0"
           d="M 487.187,210.204 C 483.821,202.212 480.006,193.152 480,190.566 480,150.734 456.225,113.545 413.055,85.851 370.985,58.863 315.208,44 256,44 196.792,44 141.015,58.863 98.945,85.852 55.775,113.546 32,150.734 32,190.566 31.995,193.152 28.179,202.212 24.813,210.204 14.932,233.666 0,269.122 0,309.887 0,352.892 27.167,393.019 76.495,422.877 124.567,451.975 188.317,468 256,468 323.683,468 387.433,451.975 435.505,422.877 484.833,393.019 512,352.892 512,309.887 512,269.122 497.068,233.666 487.187,210.204 Z M 427.22,409.188 C 381.611,436.796 320.804,452 256,452 191.196,452 130.389,436.796 84.78,409.188 40.427,382.342 16,347.076 16,309.887 16,272.354 30.177,238.691 39.559,216.414 44.642,204.345 48,196.372 48,190.566 c 0,-6.21 0.707,-12.359 2.08,-18.415 1.573,9.214 4.771,17.967 9.588,25.322 11.351,17.331 30.284,25.313 53.313,22.467 14.404,-1.775 25.488,0.661 32.94,7.25 C 158.4,238.223 160,259.07 160,276 c 0,4.418 3.582,8 8,8 4.418,0 8,-3.582 8,-8 0,-20.287 -2.214,-45.53 -19.481,-60.797 -11.038,-9.76 -26.349,-13.508 -45.499,-11.143 -17.138,2.114 -29.91,-3.051 -37.967,-15.354 -10.321,-15.759 -10.745,-42.063 -0.946,-58.636 0.169,-0.285 0.311,-0.578 0.441,-0.874 9.245,-10.802 20.98,-20.861 35.037,-29.879 C 147.108,73.964 199.817,60 256,60 c 56.183,0 108.892,13.964 148.416,39.318 14.057,9.018 25.792,19.077 35.037,29.879 0.13,0.296 0.272,0.589 0.441,0.874 9.799,16.573 9.375,42.877 -0.946,58.636 -8.058,12.303 -20.83,17.472 -37.967,15.354 -19.154,-2.363 -34.461,1.384 -45.499,11.143 C 338.214,230.47 336,255.713 336,276 c 0,4.418 3.582,8 8,8 4.418,0 8,-3.582 8,-8 0,-16.93 1.6,-37.777 14.08,-48.811 7.453,-6.589 18.533,-9.026 32.94,-7.25 23.027,2.844 41.962,-5.136 53.313,-22.467 4.817,-7.355 8.014,-16.108 9.588,-25.322 1.373,6.056 2.08,12.206 2.08,18.415 0,5.806 3.358,13.778 8.441,25.848 9.381,22.277 23.558,55.941 23.558,93.474 0,37.189 -24.427,72.455 -68.78,99.301 z"
           id="path2113"
           style="fill:#64a01f;fill-opacity:1;stroke:#64a01f;stroke-width:9.08452225;stroke-miterlimit:4;stroke-dasharray:none;stroke-opacity:1" /><path
           inkscape:connector-curvature="0"
           d="m 128,236 c -9.271,0 -16,10.094 -16,24 0,13.906 6.729,24 16,24 9.271,0 16,-10.094 16,-24 0,-13.906 -6.729,-24 -16,-24 z"
           id="path2115"
           style="fill:#64a01f;fill-opacity:1;stroke:#64a01f;stroke-width:9.08452225;stroke-miterlimit:4;stroke-dasharray:none;stroke-opacity:1" /><path
           inkscape:connector-curvature="0"
           d="m 384,236 c -9.271,0 -16,10.094 -16,24 0,13.906 6.729,24 16,24 9.271,0 16,-10.094 16,-24 0,-13.906 -6.729,-24 -16,-24 z"
           id="path2117"
           style="fill:#64a01f;fill-opacity:1;stroke:#64a01f;stroke-width:9.08452225;stroke-miterlimit:4;stroke-dasharray:none;stroke-opacity:1" /><path
           inkscape:connector-curvature="0"
           d="m 344,316 h -8.43 C 333.316,294.562 322.107,273.182 303.425,255.034 287.298,239.37 267.354,228 256,228 c -11.354,0 -31.298,11.37 -47.424,27.034 -18.682,18.148 -29.891,39.527 -32.145,60.966 H 168 c -4.418,0 -8,3.582 -8,8 0,4.418 3.582,8 8,8 h 17.517 c 11.969,47.992 55.693,48 70.483,48 14.79,0 58.514,-0.008 70.483,-48 H 344 c 4.418,0 8,-3.582 8,-8 0,-4.418 -3.582,-8 -8,-8 z M 219.724,266.511 C 235.154,251.522 251.298,244 256,244 c 4.702,0 20.846,7.522 36.276,22.511 9.291,9.026 24.222,26.738 27.192,49.489 H 296 c -18.2,0 -26.073,6.772 -31.822,11.717 -3.7,3.183 -5.134,4.283 -8.178,4.283 -3.044,0 -4.478,-1.101 -8.178,-4.283 C 242.073,322.772 234.2,316 216,316 h -23.468 c 2.97,-22.751 17.901,-40.464 27.192,-49.489 z M 256,364 c -21.964,0 -45.07,-4.046 -53.876,-32 H 216 c 12.265,0 16.697,3.812 21.389,7.848 4.223,3.631 9.479,8.152 18.611,8.152 9.132,0 14.388,-4.521 18.611,-8.152 C 279.303,335.812 283.735,332 296,332 h 13.876 C 301.07,359.954 277.964,364 256,364 Z"
           id="path2119"
           style="fill:#64a01f;fill-opacity:1;stroke:#64a01f;stroke-width:9.08452225;stroke-miterlimit:4;stroke-dasharray:none;stroke-opacity:1" /></g><g
         id="g2123" /><g
         id="g2125" /><g
         id="g2127" /><g
         id="g2129" /><g
         id="g2131" /><g
         id="g2133" /><g
         id="g2135" /><g
         id="g2137" /><g
         id="g2139" /><g
         id="g2141" /><g
         id="g2143" /><g
         id="g2145" /><g
         id="g2147" /><g
         id="g2149" /><g
         id="g2151" /></g></g></svg>