<?xml version="1.0" encoding="UTF-8" standalone="no"?>
<!-- Generator: Adobe Illustrator 15.0.0, SVG Export Plug-In . SVG Version: 6.00 Build 0)  -->

<svg
   xmlns:dc="http://purl.org/dc/elements/1.1/"
   xmlns:cc="http://creativecommons.org/ns#"
   xmlns:rdf="http://www.w3.org/1999/02/22-rdf-syntax-ns#"
   xmlns:svg="http://www.w3.org/2000/svg"
   xmlns="http://www.w3.org/2000/svg"
   xmlns:sodipodi="http://sodipodi.sourceforge.net/DTD/sodipodi-0.dtd"
   xmlns:inkscape="http://www.inkscape.org/namespaces/inkscape"
   version="1.1"
   id="Layer_1"
   x="0px"
   y="0px"
   width="76px"
   height="66px"
   viewBox="0 0 76 66"
   enable-background="new 0 0 76 66"
   xml:space="preserve"
   sodipodi:docname="Speaker_chicken.svg"
   inkscape:version="0.92.1 r15371"><metadata
     id="metadata72"><rdf:RDF><cc:Work
         rdf:about=""><dc:format>image/svg+xml</dc:format><dc:type
           rdf:resource="http://purl.org/dc/dcmitype/StillImage" /><dc:title /></cc:Work></rdf:RDF></metadata><defs
     id="defs70" /><sodipodi:namedview
     pagecolor="#ffffff"
     bordercolor="#666666"
     borderopacity="1"
     objecttolerance="10"
     gridtolerance="10"
     guidetolerance="10"
     inkscape:pageopacity="0"
     inkscape:pageshadow="2"
     inkscape:window-width="1115"
     inkscape:window-height="1008"
     id="namedview68"
     showgrid="true"
     inkscape:snap-bbox="true"
     inkscape:snap-object-midpoints="false"
     inkscape:snap-center="false"
     inkscape:zoom="9.4906988"
     inkscape:cx="33.935453"
     inkscape:cy="25.493383"
     inkscape:window-x="0"
     inkscape:window-y="0"
     inkscape:window-maximized="0"
     inkscape:current-layer="Layer_1"><inkscape:grid
       type="xygrid"
       id="grid167" /></sodipodi:namedview><g
     id="g229"><rect
       id="rect47"
       height="14"
       width="8"
       fill="#64A01F"
       y="23"
       x="16" /><polygon
       id="polygon49"
       points="17,36 23,36 23,32.821 23,26.799 23,24 17,24 "
       fill="#FFFFFF" /><polygon
       id="polygon51"
       points="25,37 25,23 36,12 36,48 "
       fill="#64A01F" /><polygon
       id="polygon53"
       points="26,36.586 26,23.414 35,14.414 35,45.586 "
       fill="#FFFFFF" /><path
       id="path55"
       d="M36.182,35.343l1.172-1.042c1.422-1.266,2.238-3.07,2.238-4.952c0-1.751-0.682-3.406-1.92-4.658l-1.09-1.104  l3.393-3.395l1.104,1.114c2.138,2.16,3.313,5.016,3.313,8.042c0,3.246-1.399,6.355-3.844,8.531l-1.158,1.033L36.182,35.343z"
       fill="#64A01F" /><path
       id="path57"
       d="M40.368,22.011l-0.396-0.4l-1.979,1.98l0.392,0.396c1.424,1.44,2.208,3.345,2.208,5.361  c0,2.167-0.938,4.244-2.573,5.699l-0.42,0.374l1.871,2.082l0.416-0.371c2.229-1.985,3.508-4.823,3.508-7.784  C43.393,26.586,42.318,23.981,40.368,22.011z"
       fill="#FFFFFF" /><path
       id="path59"
       d="M40.26,39.882l1.164-1.044c2.709-2.417,4.262-5.876,4.262-9.489c0-3.377-1.313-6.56-3.703-8.963  l-1.096-1.104l3.396-3.394l1.104,1.11c3.288,3.31,5.102,7.695,5.102,12.351c0,4.976-2.135,9.737-5.857,13.064l-1.16,1.039  L40.26,39.882z"
       fill="#64A01F" /><path
       id="path61"
       d="M44.676,17.703l-0.396-0.399l-1.979,1.98l0.395,0.396c2.574,2.592,3.994,6.025,3.994,9.668  c0,3.896-1.674,7.628-4.596,10.234l-0.418,0.375l1.871,2.083l0.416-0.373c3.514-3.14,5.523-7.629,5.523-12.319  C49.486,24.96,47.777,20.824,44.676,17.703z"
       fill="#FFFFFF" /><path
       style="fill:#64a01f;fill-opacity:1"
       id="path63"
       d="M44.611,44.725l1.162-1.043c4.084-3.654,6.425-8.879,6.425-14.333c0-5.113-1.993-9.931-5.61-13.565  l-1.098-1.105l3.394-3.392l1.103,1.106C54.51,16.936,57,22.957,57,29.349c0,6.815-2.923,13.342-8.02,17.907l-1.16,1.038  L44.611,44.725z"
       fill="#64A01F" /><path
       fill="#FFFFFF"
       id="path65"
       d="M49.277,13.099l-0.396-0.397l-1.98,1.979l0.396,0.397c3.806,3.823,5.902,8.892,5.902,14.271  c0,5.738-2.462,11.233-6.757,15.077l-0.418,0.375l1.873,2.083l0.416-0.373C53.198,42.136,56,35.88,56,29.349  C56,23.223,53.611,17.452,49.277,13.099z" /></g><g
     style="fill:#64a01f;fill-opacity:1"
     id="g104"
     transform="matrix(0.03432343,0,0,0.03514143,54.614172,42.869492)" /><g
     style="fill:#64a01f;fill-opacity:1"
     id="g106"
     transform="matrix(0.03432343,0,0,0.03514143,54.614172,42.869492)" /><g
     style="fill:#64a01f;fill-opacity:1"
     id="g108"
     transform="matrix(0.03432343,0,0,0.03514143,54.614172,42.869492)" /><g
     style="fill:#64a01f;fill-opacity:1"
     id="g110"
     transform="matrix(0.03432343,0,0,0.03514143,54.614172,42.869492)" /><g
     style="fill:#64a01f;fill-opacity:1"
     id="g112"
     transform="matrix(0.03432343,0,0,0.03514143,54.614172,42.869492)" /><g
     style="fill:#64a01f;fill-opacity:1"
     id="g114"
     transform="matrix(0.03432343,0,0,0.03514143,54.614172,42.869492)" /><g
     style="fill:#64a01f;fill-opacity:1"
     id="g116"
     transform="matrix(0.03432343,0,0,0.03514143,54.614172,42.869492)" /><g
     style="fill:#64a01f;fill-opacity:1"
     id="g118"
     transform="matrix(0.03432343,0,0,0.03514143,54.614172,42.869492)" /><g
     style="fill:#64a01f;fill-opacity:1"
     id="g120"
     transform="matrix(0.03432343,0,0,0.03514143,54.614172,42.869492)" /><g
     style="fill:#64a01f;fill-opacity:1"
     id="g122"
     transform="matrix(0.03432343,0,0,0.03514143,54.614172,42.869492)" /><g
     style="fill:#64a01f;fill-opacity:1"
     id="g124"
     transform="matrix(0.03432343,0,0,0.03514143,54.614172,42.869492)" /><g
     style="fill:#64a01f;fill-opacity:1"
     id="g126"
     transform="matrix(0.03432343,0,0,0.03514143,54.614172,42.869492)" /><g
     style="fill:#64a01f;fill-opacity:1"
     id="g128"
     transform="matrix(0.03432343,0,0,0.03514143,54.614172,42.869492)" /><g
     style="fill:#64a01f;fill-opacity:1"
     id="g130"
     transform="matrix(0.03432343,0,0,0.03514143,54.614172,42.869492)" /><g
     style="fill:#64a01f;fill-opacity:1"
     id="g132"
     transform="matrix(0.03432343,0,0,0.03514143,54.614172,42.869492)" /><g
     id="g65"
     transform="matrix(0.0396087,0,0,0.03190745,56.239504,20.762376)" /><g
     id="g67"
     transform="matrix(0.0396087,0,0,0.03190745,56.239504,20.762376)" /><g
     id="g69"
     transform="matrix(0.0396087,0,0,0.03190745,56.239504,20.762376)" /><g
     id="g71"
     transform="matrix(0.0396087,0,0,0.03190745,56.239504,20.762376)" /><g
     id="g73"
     transform="matrix(0.0396087,0,0,0.03190745,56.239504,20.762376)" /><g
     id="g75"
     transform="matrix(0.0396087,0,0,0.03190745,56.239504,20.762376)" /><g
     id="g77"
     transform="matrix(0.0396087,0,0,0.03190745,56.239504,20.762376)" /><g
     id="g79"
     transform="matrix(0.0396087,0,0,0.03190745,56.239504,20.762376)" /><g
     id="g81"
     transform="matrix(0.0396087,0,0,0.03190745,56.239504,20.762376)" /><g
     id="g83"
     transform="matrix(0.0396087,0,0,0.03190745,56.239504,20.762376)" /><g
     id="g85"
     transform="matrix(0.0396087,0,0,0.03190745,56.239504,20.762376)" /><g
     id="g87"
     transform="matrix(0.0396087,0,0,0.03190745,56.239504,20.762376)" /><g
     id="g89"
     transform="matrix(0.0396087,0,0,0.03190745,56.239504,20.762376)" /><g
     id="g91"
     transform="matrix(0.0396087,0,0,0.03190745,56.239504,20.762376)" /><g
     id="g93"
     transform="matrix(0.0396087,0,0,0.03190745,56.239504,20.762376)" /><g
     id="g1961"
     transform="translate(-4.8806178,-28.689946)"><path
       inkscape:connector-curvature="0"
       id="path1904"
       d="m 53.238281,69.529296 c 0.129935,0.297116 0.383196,0.746606 0.853516,1.226563 0.07848,0.08004 0.109188,0.196832 0.08008,0.306641 -0.02907,0.109809 -0.113788,0.194956 -0.220704,0.222656 -0.253211,0.06561 -0.497604,0.151484 -0.738281,0.246094 -0.07346,0.02889 -0.14638,0.06021 -0.21875,0.0918 -0.19369,0.08447 -0.382659,0.178874 -0.566406,0.28125 -0.04595,0.02568 -0.09325,0.04738 -0.138672,0.07422 -0.6936,0.408567 -1.303137,0.945691 -1.810547,1.576172 -0.0802,0.09969 -0.157852,0.202394 -0.232422,0.306641 -0.09277,0.129611 -0.179772,0.263934 -0.263672,0.40039 -0.0588,0.09562 -0.117735,0.190643 -0.171874,0.289063 -0.08155,0.14847 -0.155693,0.301817 -0.226563,0.457031 -0.04756,0.103798 -0.09824,0.206515 -0.140625,0.3125 -0.100668,0.253019 -0.190459,0.511854 -0.261719,0.779297 -0.24246,0.910052 -0.553529,1.787221 -0.923828,2.607422 -0.08602,0.190569 -0.16059,0.439669 -0.212891,0.724609 -0.0025,0.01355 -0.0054,0.02535 -0.0078,0.03906 -0.01817,0.104992 -0.02997,0.219642 -0.04102,0.333984 -0.005,0.05034 -0.01223,0.09853 -0.01563,0.150391 -0.0075,0.118028 -0.0074,0.242052 -0.0059,0.367187 7e-4,0.05597 -7.47e-4,0.110849 0.002,0.167969 0.0057,0.121195 0.01964,0.247458 0.03516,0.373047 0.0085,0.0682 0.01566,0.135918 0.02734,0.205078 0.0193,0.115393 0.04744,0.232246 0.07617,0.349609 0.0219,0.08847 0.04457,0.176525 0.07227,0.265625 0.0319,0.103587 0.0711,0.206732 0.111328,0.310547 0.03811,0.09757 0.07906,0.195719 0.125,0.292969 0.04809,0.102289 0.102856,0.203435 0.160156,0.304687 0.06111,0.107649 0.127139,0.21446 0.199219,0.320313 0.289759,0.42584 0.689232,0.867524 1.263672,1.267578 0.03134,0.02184 0.0657,0.04118 0.09766,0.0625 0.180743,0.120571 0.378231,0.235686 0.591797,0.345703 0.04892,0.02521 0.09836,0.04999 0.148437,0.07422 0.506255,0.244838 1.104101,0.454153 1.808594,0.609375 0.06626,0.01455 0.131689,0.02954 0.199219,0.04297 0.333946,0.06666 0.692473,0.121839 1.074219,0.162109 0.506591,0.05311 1.037336,0.08398 1.601562,0.08398 0.564227,0 1.094971,-0.03087 1.601562,-0.08398 0.382424,-0.04034 0.741714,-0.09529 1.076172,-0.162109 0.06531,-0.01301 0.12923,-0.02697 0.19336,-0.04102 0.706499,-0.155319 1.307093,-0.365956 1.814453,-0.611328 0.05008,-0.02423 0.09952,-0.04901 0.148437,-0.07422 0.213565,-0.110017 0.411054,-0.225132 0.591797,-0.345703 0.03196,-0.02132 0.06632,-0.04066 0.09766,-0.0625 0.571869,-0.398265 0.970248,-0.837624 1.259765,-1.261719 0.07676,-0.112364 0.146548,-0.225464 0.210938,-0.339843 0.05138,-0.09154 0.100671,-0.183001 0.144531,-0.275391 0.04874,-0.102187 0.09079,-0.206035 0.130859,-0.308594 0.04277,-0.11034 0.08381,-0.220018 0.117188,-0.330078 0.02168,-0.07083 0.04058,-0.140497 0.05859,-0.210937 0.03469,-0.137128 0.06606,-0.273736 0.08789,-0.408203 0.0073,-0.04472 0.01158,-0.08849 0.01758,-0.132813 0.02025,-0.151174 0.03687,-0.302349 0.04297,-0.447266 0.0011,-0.02583 0.0013,-0.05057 0.002,-0.07617 0.0041,-0.156479 0.0021,-0.309371 -0.0078,-0.455079 -0.0011,-0.0154 -0.0027,-0.02965 -0.0039,-0.04492 -0.01139,-0.146456 -0.02788,-0.287952 -0.05078,-0.419922 -0.0023,-0.01305 -0.0054,-0.02421 -0.0078,-0.03711 C 63.041454,79.1467 62.966879,78.8976 62.880859,78.707031 62.69571,78.29693 62.525373,77.873112 62.371093,77.4375 62.2168,77.001879 62.078262,76.554635 61.957031,76.099609 61.884478,75.827325 61.790513,75.563953 61.6875,75.30664 c -0.03943,-0.09794 -0.087,-0.192992 -0.13086,-0.289062 -0.06963,-0.153102 -0.140693,-0.304606 -0.220703,-0.451172 -0.06215,-0.113691 -0.128926,-0.224032 -0.197266,-0.333984 -0.07528,-0.121077 -0.154028,-0.239824 -0.236328,-0.355469 -0.07878,-0.110786 -0.15903,-0.220505 -0.24414,-0.326172 -0.506899,-0.629045 -1.116204,-1.164413 -1.808594,-1.572266 -0.04542,-0.02684 -0.09272,-0.04854 -0.138672,-0.07422 -0.183747,-0.102376 -0.372715,-0.19678 -0.566406,-0.28125 -0.07237,-0.0316 -0.14529,-0.06291 -0.21875,-0.0918 -0.240676,-0.09461 -0.48507,-0.180484 -0.738281,-0.246094 -0.05293,-0.01371 -0.100832,-0.04222 -0.138672,-0.08008 -0.03864,-0.03866 -0.06734,-0.0871 -0.08203,-0.142578 -0.02914,-0.109809 0.0017,-0.226601 0.08008,-0.306641 0.470556,-0.480131 0.721729,-0.929866 0.851562,-1.226563 -0.396393,0.0061 -0.935479,0.06471 -1.355469,0.257813 -0.140004,0.06436 -0.267541,0.142624 -0.371093,0.240234 -0.200715,0.189121 -0.296875,0.429965 -0.296875,0.736329 0,0.174117 -0.13797,0.316406 -0.306641,0.316406 -0.168671,0 -0.304688,-0.142288 -0.304688,-0.316406 10e-7,-0.306364 -0.09811,-0.547208 -0.298828,-0.736329 -0.414208,-0.390456 -1.198205,-0.489846 -1.726562,-0.498047 z"
       style="opacity:1;fill:#ffffff;fill-opacity:1;stroke:#ffffff;stroke-width:0.89999998;stroke-linecap:round;stroke-linejoin:round;stroke-miterlimit:4;stroke-dasharray:none;stroke-opacity:1;paint-order:normal" /><path
       inkscape:connector-curvature="0"
       id="path1902"
       d="m 53.099609,68.90039 c -0.179599,0.0024 -0.296808,0.012 -0.314453,0.01367 -0.08582,0.0082 -0.165017,0.05385 -0.216797,0.125 -0.05167,0.07111 -0.07098,0.16263 -0.05469,0.25 0.0061,0.03249 0.138555,0.706897 0.804688,1.529297 -0.321789,0.108591 -0.631515,0.244533 -0.931641,0.396484 -0.09132,0.04633 -0.178082,0.101952 -0.267578,0.152344 -0.20859,0.117192 -0.411905,0.241805 -0.607422,0.378906 -0.04363,0.03063 -0.09167,0.05232 -0.134765,0.08398 -0.0098,0.0072 -0.0088,0.02116 -0.01758,0.0293 -0.448562,0.332391 -0.857086,0.712982 -1.220704,1.140625 -0.0074,0.0072 -0.01859,0.0056 -0.02539,0.01367 -0.05826,0.06902 -0.108317,0.145582 -0.164063,0.216796 -0.08988,0.11475 -0.178424,0.229355 -0.261718,0.34961 -0.08224,0.11878 -0.157032,0.241753 -0.232422,0.365234 -0.07555,0.123756 -0.152118,0.246432 -0.220703,0.375 -0.0753,0.140897 -0.14071,0.286244 -0.207032,0.431641 -0.053,0.116601 -0.110938,0.229762 -0.158203,0.349609 -0.107808,0.271923 -0.202181,0.547944 -0.277343,0.830078 -0.233469,0.87617 -0.53082,1.721387 -0.886719,2.509766 -0.06516,0.144304 -0.122974,0.303972 -0.171875,0.474609 -0.01372,0.04811 -0.02103,0.100854 -0.0332,0.150391 -0.03129,0.12637 -0.06078,0.253815 -0.08203,0.390625 -0.0091,0.05877 -0.01444,0.119755 -0.02148,0.179687 -0.01552,0.130976 -0.02967,0.262618 -0.03516,0.400391 -0.0032,0.0796 0.0016,0.159756 0.002,0.240234 5.28e-4,0.117219 -5.58e-4,0.233149 0.0078,0.353516 0.0015,0.02162 1.66e-4,0.04283 0.002,0.06445 0.0043,0.05361 0.01758,0.104922 0.02344,0.158203 0.01696,0.154032 0.03742,0.308197 0.06836,0.464844 0.01906,0.09639 0.04421,0.190341 0.06836,0.285156 0.03352,0.132234 0.07073,0.264293 0.115234,0.396485 0.03106,0.09182 0.06563,0.1817 0.101563,0.271484 0.05123,0.128563 0.107219,0.255955 0.169921,0.382812 0.04625,0.09336 0.09477,0.184974 0.146485,0.275391 0.02878,0.05035 0.04931,0.102495 0.08008,0.152344 0.0411,0.06659 0.09833,0.13554 0.144531,0.203125 0.03307,0.04832 0.05901,0.101214 0.09375,0.148437 0.0082,0.01109 0.02007,0.01574 0.0293,0.02539 0.302069,0.405143 0.695167,0.815115 1.222656,1.193359 0.0032,0.0025 0.0026,0.0074 0.0059,0.0098 0.008,0.0057 0.01738,0.01 0.02539,0.01563 0.02226,0.01573 0.0476,0.03127 0.07031,0.04687 0.209319,0.143862 0.432798,0.275631 0.666016,0.398437 0.05303,0.02791 0.107151,0.05487 0.162109,0.08203 0.278647,0.137788 0.568273,0.264126 0.878906,0.373047 0.0029,0.001 0.0049,0.0029 0.0078,0.0039 h 0.002 c 0.330622,0.115466 0.684635,0.210297 1.050781,0.292969 0.06845,0.01551 0.136709,0.03044 0.207031,0.04492 0.38982,0.08004 0.796783,0.14551 1.22461,0.189453 0.04241,0.0044 0.08789,0.0057 0.130859,0.0098 0.47915,0.04476 0.975055,0.07227 1.5,0.07227 0.525176,0 1.022614,-0.02747 1.501953,-0.07227 0.04296,-0.004 0.08846,-0.0054 0.130859,-0.0098 0.428621,-0.04403 0.836094,-0.109189 1.226563,-0.189453 0.06842,-0.01412 0.134523,-0.02984 0.201172,-0.04492 0.717198,-0.161747 1.36748,-0.384668 1.947265,-0.671875 0.05175,-0.02563 0.102309,-0.05182 0.152344,-0.07813 0.233587,-0.122793 0.458324,-0.254549 0.667969,-0.398438 0.02384,-0.01636 0.05088,-0.03233 0.07422,-0.04883 0.008,-0.0057 0.01743,-0.0099 0.02539,-0.01563 0.0033,-0.0024 0.0027,-0.0073 0.0059,-0.0098 0.52761,-0.378332 0.920563,-0.788126 1.222656,-1.193359 0.0091,-0.0096 0.02123,-0.01442 0.0293,-0.02539 0.03704,-0.05036 0.06446,-0.106604 0.09961,-0.158203 0.04372,-0.06427 0.09761,-0.129999 0.136719,-0.193359 0.02999,-0.04859 0.05002,-0.09937 0.07813,-0.148438 0.05383,-0.09392 0.102465,-0.190008 0.150391,-0.287109 0.05916,-0.120147 0.115189,-0.239645 0.164062,-0.361328 0.03826,-0.09484 0.07461,-0.189985 0.107422,-0.28711 0.04581,-0.136222 0.08498,-0.271959 0.119141,-0.408203 0.02255,-0.08952 0.04449,-0.178612 0.0625,-0.269531 0.03022,-0.152683 0.05144,-0.302897 0.06836,-0.453125 0.0065,-0.05783 0.02071,-0.113663 0.02539,-0.171875 0.0017,-0.02162 4.25e-4,-0.04283 0.002,-0.06445 0.0088,-0.127066 0.0077,-0.249517 0.0078,-0.373047 1.8e-5,-0.07325 0.0029,-0.146235 0,-0.21875 -0.0052,-0.133027 -0.01859,-0.259995 -0.0332,-0.386719 -0.0075,-0.0658 -0.01152,-0.132853 -0.02148,-0.197265 -0.0212,-0.136154 -0.05088,-0.262868 -0.08203,-0.388672 -0.01217,-0.04954 -0.01948,-0.102279 -0.0332,-0.150391 -0.0489,-0.170637 -0.10672,-0.330305 -0.171875,-0.474609 -0.355899,-0.788378 -0.655203,-1.633596 -0.888672,-2.509766 -0.07374,-0.27679 -0.166304,-0.547454 -0.271484,-0.814453 -0.05433,-0.138615 -0.11967,-0.270023 -0.18164,-0.404297 -0.06069,-0.131078 -0.117529,-0.263245 -0.185547,-0.390625 -0.07476,-0.14026 -0.159158,-0.273681 -0.242188,-0.408203 -0.06623,-0.107326 -0.131689,-0.214614 -0.203125,-0.318359 -0.08887,-0.128976 -0.18288,-0.252332 -0.279297,-0.375 -0.05337,-0.06794 -0.100592,-0.141096 -0.15625,-0.207031 C 61.01829,73.005672 61.00738,73.00715 61,73 c -0.363795,-0.427851 -0.773839,-0.808122 -1.222657,-1.140625 -0.0087,-0.0081 -0.0078,-0.02212 -0.01758,-0.0293 -0.04045,-0.02973 -0.08603,-0.04932 -0.126953,-0.07813 -0.200553,-0.14099 -0.408717,-0.270621 -0.623047,-0.390625 -0.08678,-0.04871 -0.171276,-0.101594 -0.259765,-0.146485 -0.300069,-0.151911 -0.607965,-0.287916 -0.929688,-0.396484 0.666133,-0.8224 0.798688,-1.496807 0.804688,-1.529297 0.01626,-0.08737 -0.0029,-0.17885 -0.05469,-0.25 -0.05182,-0.07114 -0.130978,-0.1168 -0.216797,-0.125 -0.03529,-0.0033 -0.469544,-0.04257 -1.001953,0.01953 -0.532408,0.0621 -1.163113,0.225419 -1.589844,0.626953 -0.0721,0.06776 -0.136839,0.140277 -0.193359,0.216797 -0.05652,-0.07656 -0.119306,-0.149036 -0.191406,-0.216797 -0.320049,-0.301151 -0.75576,-0.467928 -1.177735,-0.558593 -0.421974,-0.09067 -0.83021,-0.105219 -1.099609,-0.101563 z m 0.138672,0.628906 c 0.528357,0.0082 1.312354,0.107591 1.726562,0.498047 0.200713,0.189121 0.298829,0.429965 0.298828,0.736329 0,0.174118 0.136017,0.316406 0.304688,0.316406 0.168671,0 0.306641,-0.142289 0.306641,-0.316406 0,-0.306364 0.09616,-0.547208 0.296875,-0.736329 0.103552,-0.09761 0.231089,-0.175872 0.371093,-0.240234 0.41999,-0.193106 0.959076,-0.251738 1.355469,-0.257813 -0.129833,0.296697 -0.381006,0.746432 -0.851562,1.226563 -0.07837,0.08004 -0.109216,0.196832 -0.08008,0.306641 0.01469,0.05548 0.04339,0.103919 0.08203,0.142578 0.03784,0.03786 0.08574,0.06637 0.138672,0.08008 0.253211,0.06561 0.497605,0.151488 0.738281,0.246094 0.07346,0.02889 0.146377,0.0602 0.21875,0.0918 0.193691,0.08447 0.382659,0.178874 0.566406,0.28125 0.04595,0.02568 0.09325,0.04738 0.138672,0.07422 0.69239,0.407853 1.301695,0.943221 1.808594,1.572266 0.08511,0.105667 0.165361,0.215386 0.24414,0.326172 0.0823,0.115645 0.161049,0.234392 0.236328,0.355469 0.06834,0.109952 0.135115,0.220293 0.197266,0.333984 0.08001,0.146566 0.151069,0.29807 0.220703,0.451172 0.04386,0.09607 0.09143,0.191117 0.13086,0.289062 0.103013,0.257313 0.196978,0.520685 0.269531,0.792969 0.121231,0.455026 0.259769,0.90227 0.414062,1.337891 0.15428,0.435612 0.324617,0.85943 0.509766,1.269531 0.08602,0.190569 0.160595,0.439669 0.212891,0.724609 0.0024,0.0129 0.0055,0.02406 0.0078,0.03711 0.0229,0.13197 0.03939,0.273466 0.05078,0.419922 0.0012,0.01527 0.0028,0.02952 0.0039,0.04492 0.0099,0.145708 0.01193,0.2986 0.0078,0.455079 -6.45e-4,0.0256 -8.4e-4,0.05034 -0.002,0.07617 -0.0061,0.144917 -0.02272,0.296092 -0.04297,0.447266 -0.006,0.04432 -0.01025,0.08809 -0.01758,0.132813 -0.02183,0.134467 -0.0532,0.271075 -0.08789,0.408203 -0.01801,0.07044 -0.03691,0.140104 -0.05859,0.210937 -0.03338,0.11006 -0.07442,0.219738 -0.117188,0.330078 -0.04007,0.102559 -0.08212,0.206407 -0.130859,0.308594 -0.04386,0.09239 -0.09315,0.18385 -0.144531,0.275391 -0.06439,0.114379 -0.134178,0.227479 -0.210938,0.339843 -0.289517,0.424095 -0.687896,0.863454 -1.259765,1.261719 -0.03134,0.02184 -0.0657,0.04118 -0.09766,0.0625 -0.180743,0.120571 -0.378232,0.235686 -0.591797,0.345703 -0.04892,0.02521 -0.09836,0.04999 -0.148437,0.07422 -0.50736,0.245372 -1.107954,0.456009 -1.814453,0.611328 -0.06413,0.01405 -0.128045,0.02801 -0.19336,0.04102 -0.334458,0.06682 -0.693748,0.121772 -1.076172,0.162109 -0.506591,0.05311 -1.037335,0.08398 -1.601562,0.08398 -0.564226,0 -1.094971,-0.03087 -1.601562,-0.08398 -0.381746,-0.04027 -0.740273,-0.09545 -1.074219,-0.162109 -0.06753,-0.01343 -0.132956,-0.02842 -0.199219,-0.04297 -0.704493,-0.155222 -1.302339,-0.364537 -1.808594,-0.609375 -0.05008,-0.02423 -0.09952,-0.04901 -0.148437,-0.07422 -0.213566,-0.110017 -0.411054,-0.225132 -0.591797,-0.345703 -0.03196,-0.02132 -0.06632,-0.04066 -0.09766,-0.0625 -0.57444,-0.400054 -0.973913,-0.841738 -1.263672,-1.267578 -0.07208,-0.105853 -0.138113,-0.212664 -0.199219,-0.320313 -0.0573,-0.101252 -0.112068,-0.202398 -0.160156,-0.304687 -0.04594,-0.09725 -0.08689,-0.195398 -0.125,-0.292969 -0.04023,-0.103815 -0.07943,-0.20696 -0.111328,-0.310547 -0.0277,-0.0891 -0.05037,-0.177152 -0.07227,-0.265625 -0.02873,-0.117363 -0.05687,-0.234216 -0.07617,-0.349609 -0.01168,-0.06916 -0.01884,-0.136883 -0.02734,-0.205078 -0.01552,-0.125589 -0.02945,-0.251852 -0.03516,-0.373047 -0.0027,-0.05712 -0.0013,-0.112002 -0.002,-0.167969 -0.0015,-0.125135 -0.0016,-0.249159 0.0059,-0.367187 0.0034,-0.05186 0.01059,-0.100052 0.01563,-0.150391 0.01105,-0.114342 0.02285,-0.228992 0.04102,-0.333984 0.0024,-0.01371 0.0053,-0.02551 0.0078,-0.03906 0.0523,-0.28494 0.126866,-0.53404 0.212891,-0.724609 0.370299,-0.820201 0.681368,-1.69737 0.923828,-2.607422 0.07126,-0.267443 0.161051,-0.526278 0.261719,-0.779297 0.04239,-0.105985 0.09306,-0.208702 0.140625,-0.3125 0.07087,-0.155214 0.145017,-0.308561 0.226563,-0.457031 0.05414,-0.09842 0.113076,-0.193443 0.171874,-0.289063 0.0839,-0.136456 0.170906,-0.270779 0.263672,-0.40039 0.07457,-0.104247 0.152226,-0.206953 0.232422,-0.306641 0.50741,-0.630481 1.116947,-1.167605 1.810547,-1.576172 0.04542,-0.02684 0.09272,-0.04854 0.138672,-0.07422 0.183747,-0.102376 0.372716,-0.196779 0.566406,-0.28125 0.07237,-0.03159 0.145288,-0.06291 0.21875,-0.0918 0.240677,-0.09461 0.48507,-0.180479 0.738281,-0.246094 0.106916,-0.0277 0.191634,-0.112847 0.220704,-0.222656 0.02911,-0.109809 -0.0016,-0.226601 -0.08008,-0.306641 -0.47032,-0.479957 -0.723581,-0.929447 -0.853516,-1.226563 z"
       style="opacity:1;fill:#ffffff;fill-opacity:1;stroke:none;stroke-width:0.89999998;stroke-linecap:round;stroke-linejoin:round;stroke-miterlimit:4;stroke-dasharray:none;stroke-opacity:1;paint-order:normal" /><path
       inkscape:connector-curvature="0"
       id="path1758-6"
       d="m 53.099609,68.900393 c -0.179599,0.0024 -0.296808,0.012 -0.314453,0.01367 -0.08582,0.0082 -0.165017,0.05385 -0.216797,0.125 -0.05167,0.07111 -0.07098,0.16263 -0.05469,0.25 0.0061,0.03249 0.138554,0.706897 0.804687,1.529297 -0.321789,0.108591 -0.631514,0.244533 -0.93164,0.396484 -0.09132,0.04633 -0.178083,0.101952 -0.267579,0.152344 -0.20859,0.117192 -0.411904,0.241805 -0.607421,0.378906 -0.04363,0.03063 -0.09167,0.05232 -0.134766,0.08398 -0.0098,0.0072 -0.0088,0.02116 -0.01758,0.0293 -0.448562,0.332391 -0.857086,0.712982 -1.220703,1.140625 -0.0074,0.0072 -0.01859,0.0056 -0.02539,0.01367 -0.05826,0.06902 -0.108316,0.145583 -0.164062,0.216797 -0.08988,0.11475 -0.178425,0.229355 -0.261719,0.34961 -0.08224,0.11878 -0.157032,0.241753 -0.232422,0.365234 -0.07555,0.123756 -0.152118,0.246432 -0.220703,0.375 -0.0753,0.140897 -0.140709,0.286244 -0.207031,0.431641 -0.053,0.116601 -0.110939,0.229762 -0.158204,0.349609 -0.107808,0.271923 -0.202181,0.547944 -0.277343,0.830078 -0.233469,0.87617 -0.53082,1.721387 -0.886719,2.509766 -0.06516,0.144304 -0.122974,0.303972 -0.171875,0.474609 -0.01372,0.04811 -0.02103,0.100854 -0.0332,0.150391 -0.03129,0.12637 -0.06078,0.253815 -0.08203,0.390625 -0.0091,0.05877 -0.01444,0.119755 -0.02148,0.179687 -0.01552,0.130976 -0.02967,0.262618 -0.03516,0.400391 -0.0032,0.0796 0.0016,0.159756 0.002,0.240234 5.28e-4,0.117219 -5.7e-4,0.233149 0.0078,0.353516 0.0015,0.02162 2.13e-4,0.04283 0.002,0.06445 0.0043,0.05361 0.01758,0.104922 0.02344,0.158203 0.01696,0.154032 0.03742,0.308197 0.06836,0.464844 0.01906,0.09639 0.04421,0.190341 0.06836,0.285156 0.03352,0.132234 0.07073,0.264293 0.115234,0.396485 0.03106,0.09182 0.06563,0.1817 0.101563,0.271484 0.05123,0.128563 0.107219,0.255955 0.169922,0.382813 0.04625,0.09336 0.09477,0.184973 0.146484,0.27539 0.02878,0.05035 0.04931,0.102495 0.08008,0.152344 0.0411,0.06659 0.09833,0.13554 0.144532,0.203125 0.03307,0.04832 0.05901,0.101214 0.09375,0.148437 0.0082,0.01109 0.02007,0.01574 0.0293,0.02539 0.302069,0.405143 0.695168,0.815115 1.222657,1.193359 0.0032,0.0025 0.0026,0.0074 0.0059,0.0098 0.008,0.0057 0.01738,0.01 0.02539,0.01563 0.02226,0.01573 0.0476,0.03127 0.07031,0.04687 0.209319,0.143862 0.432799,0.275631 0.666016,0.398438 0.05303,0.02791 0.107151,0.05487 0.162109,0.08203 0.278647,0.137788 0.568273,0.264126 0.878906,0.373047 0.0029,10e-4 0.0049,0.0029 0.0078,0.0039 0,0 0.002,0 0.002,0 0.330622,0.115466 0.684635,0.210297 1.050781,0.292969 0.06845,0.01551 0.136709,0.03044 0.207031,0.04492 0.38982,0.08004 0.796783,0.145511 1.22461,0.189454 0.04241,0.0044 0.08789,0.0057 0.130859,0.0098 0.47915,0.04476 0.975055,0.07227 1.5,0.07227 0.525176,0 1.022614,-0.02747 1.501953,-0.07227 0.04296,-0.004 0.08846,-0.0054 0.13086,-0.0098 0.42862,-0.04403 0.836093,-0.109189 1.226562,-0.189454 0.06842,-0.01412 0.134523,-0.02984 0.201172,-0.04492 0.717198,-0.161747 1.367481,-0.384668 1.947266,-0.671875 0.05175,-0.02563 0.102309,-0.05183 0.152344,-0.07813 0.233587,-0.122793 0.458323,-0.254549 0.667968,-0.398438 0.02384,-0.01636 0.05088,-0.03233 0.07422,-0.04883 0.008,-0.0057 0.01743,-0.0099 0.02539,-0.01563 0.0033,-0.0024 0.0027,-0.0073 0.0059,-0.0098 0.52761,-0.378332 0.920563,-0.788126 1.222656,-1.193359 0.0091,-0.0096 0.02123,-0.01442 0.0293,-0.02539 0.03704,-0.05036 0.06446,-0.106604 0.09961,-0.158203 0.04372,-0.06427 0.09761,-0.129999 0.136718,-0.193359 0.02999,-0.04859 0.05003,-0.09937 0.07813,-0.148438 0.05383,-0.09392 0.102465,-0.190008 0.150391,-0.287109 0.05916,-0.120147 0.115189,-0.239645 0.164062,-0.361328 0.03826,-0.09484 0.07461,-0.189985 0.107422,-0.287109 0.04581,-0.136222 0.08498,-0.27196 0.119141,-0.408204 0.02255,-0.08952 0.04449,-0.178612 0.0625,-0.269531 0.03022,-0.152683 0.05144,-0.302897 0.06836,-0.453125 0.0065,-0.05783 0.02071,-0.113663 0.02539,-0.171875 0.0017,-0.02162 4.72e-4,-0.04283 0.002,-0.06445 0.0088,-0.127066 0.0077,-0.249517 0.0078,-0.373047 1.8e-5,-0.07325 0.0029,-0.146235 0,-0.21875 -0.0052,-0.133027 -0.01859,-0.259995 -0.0332,-0.386719 -0.0075,-0.0658 -0.01152,-0.132853 -0.02148,-0.197265 -0.0212,-0.136154 -0.05088,-0.262868 -0.08203,-0.388672 -0.01217,-0.04954 -0.01948,-0.102279 -0.0332,-0.150391 -0.0489,-0.170637 -0.10672,-0.330305 -0.171875,-0.474609 -0.355899,-0.788378 -0.655203,-1.633596 -0.888672,-2.509766 -0.07374,-0.27679 -0.166305,-0.547454 -0.271485,-0.814453 -0.05433,-0.138615 -0.11967,-0.270023 -0.18164,-0.404297 -0.06069,-0.131078 -0.117529,-0.263245 -0.185547,-0.390625 -0.07476,-0.14026 -0.159158,-0.273681 -0.242188,-0.408203 -0.06623,-0.107326 -0.131689,-0.214614 -0.203125,-0.318359 -0.08887,-0.128976 -0.18288,-0.252332 -0.279297,-0.375 -0.05337,-0.06794 -0.100592,-0.141096 -0.15625,-0.207032 -0.0071,-0.008 -0.01827,-0.0065 -0.02565,-0.01365 -0.363795,-0.427851 -0.773838,-0.808122 -1.222656,-1.140625 -0.0087,-0.0081 -0.0078,-0.02212 -0.01758,-0.0293 -0.04045,-0.02973 -0.08603,-0.04932 -0.126954,-0.07813 -0.200553,-0.14099 -0.408716,-0.270621 -0.623046,-0.390625 -0.08678,-0.04871 -0.171277,-0.101594 -0.259766,-0.146485 -0.300069,-0.151911 -0.607965,-0.287916 -0.929688,-0.396484 0.666133,-0.8224 0.798688,-1.496807 0.804688,-1.529297 0.01626,-0.08737 -0.0029,-0.17885 -0.05469,-0.25 -0.05182,-0.07114 -0.130977,-0.1168 -0.216796,-0.125 -0.03529,-0.0033 -0.469545,-0.04257 -1.001954,0.01953 -0.532408,0.0621 -1.163112,0.225419 -1.589843,0.626954 -0.0721,0.06776 -0.13684,0.140276 -0.19336,0.216796 -0.05652,-0.07656 -0.119306,-0.149036 -0.191406,-0.216796 -0.640097,-0.602302 -1.738546,-0.66747 -2.277344,-0.660157 z m 0.138672,0.628907 c 0.528357,0.0082 1.312355,0.10759 1.726563,0.498046 0.200713,0.189121 0.298828,0.429965 0.298828,0.736328 0,0.174118 0.136016,0.316407 0.304687,0.316407 0.168671,0 0.306641,-0.142289 0.306641,-0.316407 0,-0.306363 0.09616,-0.547207 0.296875,-0.736328 0.103552,-0.09761 0.23109,-0.175872 0.371094,-0.240234 0.41999,-0.193106 0.959075,-0.251738 1.355468,-0.257812 -0.129833,0.296697 -0.381006,0.746431 -0.851562,1.226562 -0.07837,0.08004 -0.109218,0.196832 -0.08008,0.306641 0.01469,0.05548 0.04339,0.103919 0.08203,0.142578 0.03784,0.03786 0.08574,0.06637 0.138672,0.08008 0.253211,0.06561 0.497605,0.151488 0.738281,0.246094 0.07346,0.02889 0.146377,0.0602 0.21875,0.0918 0.193691,0.08447 0.382659,0.178874 0.566406,0.28125 0.04595,0.02568 0.09325,0.04738 0.138672,0.07422 0.69239,0.407853 1.301695,0.943221 1.808594,1.572266 0.08511,0.105667 0.165362,0.215386 0.244141,0.326172 0.0823,0.115645 0.161049,0.234391 0.236328,0.355468 0.06834,0.109952 0.135114,0.220294 0.197265,0.333985 0.08001,0.146566 0.151069,0.29807 0.220703,0.451172 0.04386,0.09607 0.09143,0.191117 0.13086,0.289062 0.103013,0.257313 0.196978,0.520685 0.269531,0.792969 0.121231,0.455026 0.25977,0.90227 0.414063,1.337891 0.15428,0.435612 0.324616,0.85943 0.509765,1.269531 0.08602,0.190569 0.160595,0.439669 0.212891,0.724609 0.0024,0.0129 0.0055,0.02406 0.0078,0.03711 0.0229,0.13197 0.03939,0.273465 0.05078,0.419921 0.0012,0.01527 0.0028,0.02952 0.0039,0.04492 0.0099,0.145708 0.01192,0.2986 0.0078,0.455078 -6.45e-4,0.0256 -8.87e-4,0.05034 -0.002,0.07617 -0.0061,0.144917 -0.02272,0.296092 -0.04297,0.447266 -0.006,0.04432 -0.01025,0.08809 -0.01758,0.132812 -0.02183,0.134468 -0.0532,0.271076 -0.08789,0.408204 -0.01801,0.07044 -0.03691,0.140104 -0.05859,0.210937 -0.03338,0.11006 -0.07442,0.219738 -0.117188,0.330078 -0.04007,0.102559 -0.08212,0.206407 -0.130859,0.308594 -0.04386,0.09239 -0.09315,0.18385 -0.144531,0.275391 -0.06439,0.114379 -0.134178,0.227479 -0.210938,0.339843 -0.289517,0.424095 -0.687895,0.863454 -1.259765,1.261719 -0.03134,0.02184 -0.0657,0.04118 -0.09766,0.0625 -0.180743,0.120571 -0.378231,0.235686 -0.591796,0.345703 -0.04892,0.02521 -0.09836,0.04999 -0.148438,0.07422 -0.50736,0.245372 -1.107954,0.456009 -1.814453,0.611328 -0.06413,0.01405 -0.128044,0.02801 -0.193359,0.04102 -0.334458,0.06682 -0.693749,0.121772 -1.076172,0.162109 -0.506592,0.05311 -1.037336,0.08398 -1.601563,0.08398 -0.564226,0 -1.09497,-0.03087 -1.601562,-0.08398 -0.381745,-0.04027 -0.740273,-0.09545 -1.074219,-0.162109 -0.06753,-0.01343 -0.132956,-0.02842 -0.199219,-0.04297 -0.704493,-0.155222 -1.302338,-0.364537 -1.808593,-0.609375 -0.05008,-0.02423 -0.09952,-0.04901 -0.148438,-0.07422 -0.213566,-0.110017 -0.411054,-0.225132 -0.591797,-0.345703 -0.03196,-0.02132 -0.06632,-0.04066 -0.09766,-0.0625 -0.57444,-0.400054 -0.973913,-0.841738 -1.263672,-1.267578 -0.07208,-0.105853 -0.138113,-0.212663 -0.199219,-0.320312 -0.0573,-0.101252 -0.112068,-0.202399 -0.160156,-0.304688 -0.04594,-0.09725 -0.08689,-0.195398 -0.125,-0.292969 -0.04023,-0.103815 -0.07943,-0.20696 -0.111328,-0.310547 -0.0277,-0.0891 -0.05037,-0.177152 -0.07227,-0.265625 -0.02873,-0.117363 -0.05687,-0.234216 -0.07617,-0.349609 -0.01168,-0.06916 -0.01884,-0.136883 -0.02734,-0.205078 -0.01552,-0.125589 -0.02945,-0.251852 -0.03516,-0.373047 -0.0027,-0.05712 -0.0013,-0.112002 -0.002,-0.167969 -0.0015,-0.125135 -0.0016,-0.249159 0.0059,-0.367187 0.0034,-0.05186 0.0106,-0.100052 0.01563,-0.150391 0.01105,-0.114342 0.02285,-0.228992 0.04102,-0.333984 0.0024,-0.01371 0.0053,-0.02551 0.0078,-0.03906 0.0523,-0.28494 0.126865,-0.53404 0.21289,-0.724609 0.370299,-0.820201 0.681368,-1.69737 0.923828,-2.607422 0.07126,-0.267443 0.161051,-0.526278 0.261719,-0.779297 0.04239,-0.105985 0.09306,-0.208702 0.140625,-0.3125 0.07087,-0.155214 0.145018,-0.308561 0.226563,-0.457031 0.05414,-0.09842 0.113076,-0.193443 0.171875,-0.289063 0.0839,-0.136456 0.170906,-0.270779 0.263672,-0.40039 0.07457,-0.104247 0.152226,-0.206953 0.232422,-0.306641 0.50741,-0.630481 1.116946,-1.167605 1.810546,-1.576172 0.04542,-0.02684 0.09272,-0.04854 0.138672,-0.07422 0.183747,-0.102376 0.372716,-0.19678 0.566406,-0.28125 0.07237,-0.03159 0.145288,-0.06291 0.21875,-0.0918 0.240677,-0.09461 0.48507,-0.180479 0.738282,-0.246094 0.106915,-0.0277 0.191633,-0.112847 0.220703,-0.222656 0.02911,-0.109809 -0.0016,-0.226601 -0.08008,-0.306641 -0.470319,-0.479957 -0.723581,-0.929446 -0.853516,-1.226562 z"
       style="fill:#64a01f;fill-opacity:1;stroke:#64a01f;stroke-width:0.234;stroke-miterlimit:4;stroke-dasharray:none;stroke-opacity:1" /><g
       style="fill:#64a01f;fill-opacity:1;stroke:#64a01f;stroke-width:9.72535038;stroke-miterlimit:4;stroke-dasharray:none;stroke-opacity:1"
       transform="matrix(0.03380186,0,0,0.03489328,47.193393,68.898955)"
       id="g1843"><g
         style="fill:#64a01f;fill-opacity:1;stroke:#64a01f;stroke-width:9.72535038;stroke-miterlimit:4;stroke-dasharray:none;stroke-opacity:1"
         id="g1750"><g
           style="fill:#64a01f;fill-opacity:1;stroke:#64a01f;stroke-width:9.72535038;stroke-miterlimit:4;stroke-dasharray:none;stroke-opacity:1"
           id="g1748"><circle
             style="fill:#64a01f;fill-opacity:1;stroke:#64a01f;stroke-width:6.81356903;stroke-miterlimit:4;stroke-dasharray:none;stroke-opacity:1"
             cx="159.468"
             cy="239.479"
             r="21.587999"
             id="circle1746" /></g></g><g
         style="fill:#64a01f;fill-opacity:1;stroke:#64a01f;stroke-width:9.72535038;stroke-miterlimit:4;stroke-dasharray:none;stroke-opacity:1"
         id="g1756"><g
           style="fill:#64a01f;fill-opacity:1;stroke:#64a01f;stroke-width:9.72535038;stroke-miterlimit:4;stroke-dasharray:none;stroke-opacity:1"
           id="g1754"><circle
             style="fill:#64a01f;fill-opacity:1;stroke:#64a01f;stroke-width:6.81356903;stroke-miterlimit:4;stroke-dasharray:none;stroke-opacity:1"
             cx="336.06601"
             cy="239.479"
             r="21.587999"
             id="circle1752" /></g></g><g
         style="fill:#64a01f;fill-opacity:1;stroke:#64a01f;stroke-width:9.72535038;stroke-miterlimit:4;stroke-dasharray:none;stroke-opacity:1"
         id="g1762"><g
           style="fill:#64a01f;fill-opacity:1;stroke:#64a01f;stroke-width:9.72535038;stroke-miterlimit:4;stroke-dasharray:none;stroke-opacity:1"
           id="g1760" /></g><g
         style="fill:#64a01f;fill-opacity:1;stroke:#64a01f;stroke-width:9.72535038;stroke-miterlimit:4;stroke-dasharray:none;stroke-opacity:1"
         id="g1768"><g
           style="fill:#64a01f;fill-opacity:1;stroke:#64a01f;stroke-width:9.72535038;stroke-miterlimit:4;stroke-dasharray:none;stroke-opacity:1"
           id="g1766"><path
             style="fill:#64a01f;fill-opacity:1;stroke:#64a01f;stroke-width:9.72535038;stroke-miterlimit:4;stroke-dasharray:none;stroke-opacity:1"
             inkscape:connector-curvature="0"
             d="m 480.441,273.446 c -10.529,-22.594 -19.37,-46.781 -26.277,-71.891 -8.416,-30.603 -23.973,-59.523 -44.982,-83.633 -3.278,-3.763 -8.987,-4.153 -12.747,-0.876 -3.76,3.278 -4.153,8.985 -0.875,12.747 19.238,22.078 33.48,48.55 41.183,76.555 7.173,26.081 16.366,51.224 27.321,74.73 10.48,22.49 15.943,71.848 -11.969,115.65 -23.477,36.842 -77.982,80.759 -204.326,80.759 -70.598,0 -126.128,-13.658 -165.05,-40.598 -4.107,-2.841 -9.732,-1.815 -12.571,2.287 -2.839,4.102 -1.815,9.73 2.287,12.571 42.002,29.069 100.992,43.809 175.334,43.809 134.536,0 193.657,-48.463 219.564,-89.118 29.798,-46.761 27.684,-101.719 13.108,-132.992 z"
             id="path1764" /></g></g><g
         style="fill:#64a01f;fill-opacity:1;stroke:#64a01f;stroke-width:9.72535038;stroke-miterlimit:4;stroke-dasharray:none;stroke-opacity:1"
         id="g1774"><g
           style="fill:#64a01f;fill-opacity:1;stroke:#64a01f;stroke-width:9.72535038;stroke-miterlimit:4;stroke-dasharray:none;stroke-opacity:1"
           id="g1772"><path
             style="fill:#64a01f;fill-opacity:1;stroke:#64a01f;stroke-width:6.81356903;stroke-miterlimit:4;stroke-dasharray:none;stroke-opacity:1"
             inkscape:connector-curvature="0"
             d="m 316.506,315.607 c 0,-0.023 -0.005,-0.046 -0.005,-0.069 -0.301,-31.634 -31.081,-57.337 -68.732,-57.337 -37.626,0 -68.384,25.664 -68.731,57.266 -0.002,0.03 -0.005,0.059 -0.007,0.089 -0.007,0.148 -0.01,0.33 -0.01,0.451 0,31.875 30.839,57.805 68.747,57.805 37.906,0 68.745,-25.932 68.745,-57.805 0.001,-0.098 -0.002,-0.272 -0.007,-0.4 z m -68.737,40.135 c -22.467,0 -41.566,-11.524 -48.189,-27.428 0.025,0.005 0.051,0.01 0.076,0.016 1.628,0.372 3.28,0.717 4.946,1.049 0.423,0.084 0.847,0.166 1.273,0.248 1.592,0.306 3.196,0.599 4.819,0.868 0.107,0.018 0.214,0.038 0.321,0.056 1.708,0.281 3.438,0.536 5.177,0.776 0.449,0.063 0.899,0.122 1.352,0.182 1.674,0.22 3.359,0.429 5.059,0.612 0.095,0.01 0.191,0.023 0.286,0.033 1.772,0.189 3.563,0.35 5.362,0.498 0.474,0.039 0.947,0.076 1.422,0.112 1.744,0.133 3.495,0.252 5.26,0.345 0.084,0.005 0.166,0.011 0.25,0.015 1.825,0.095 3.663,0.161 5.506,0.215 0.492,0.015 0.983,0.026 1.476,0.038 1.817,0.041 3.639,0.069 5.47,0.071 0.046,0 0.09,0.002 0.135,0.002 0.044,0 0.089,-0.002 0.135,-0.002 1.832,-0.002 3.653,-0.03 5.468,-0.071 0.49,-0.011 0.98,-0.023 1.47,-0.038 1.84,-0.053 3.673,-0.12 5.493,-0.215 0.122,-0.007 0.243,-0.015 0.365,-0.021 1.728,-0.092 3.443,-0.209 5.15,-0.339 0.475,-0.036 0.949,-0.072 1.422,-0.112 1.79,-0.148 3.571,-0.309 5.335,-0.497 0.161,-0.016 0.321,-0.038 0.482,-0.056 1.641,-0.178 3.269,-0.378 4.885,-0.59 0.447,-0.059 0.893,-0.118 1.337,-0.179 1.731,-0.24 3.451,-0.493 5.151,-0.773 0.187,-0.031 0.373,-0.066 0.561,-0.097 1.554,-0.26 3.091,-0.539 4.617,-0.832 0.416,-0.079 0.83,-0.159 1.243,-0.242 1.661,-0.33 3.306,-0.676 4.929,-1.046 0.048,-0.011 0.097,-0.02 0.145,-0.031 -6.625,15.911 -25.722,27.433 -48.189,27.433 z m 49.466,-46.36 c -1.615,0.431 -3.252,0.842 -4.918,1.227 -0.128,0.03 -0.253,0.063 -0.381,0.09 -1.716,0.393 -3.466,0.756 -5.233,1.102 -0.309,0.061 -0.617,0.122 -0.927,0.181 -1.731,0.327 -3.484,0.633 -5.256,0.914 -0.314,0.049 -0.631,0.097 -0.945,0.145 -1.832,0.281 -3.681,0.543 -5.554,0.774 -0.132,0.016 -0.266,0.03 -0.4,0.046 -1.853,0.225 -3.726,0.423 -5.615,0.599 -0.219,0.02 -0.434,0.043 -0.654,0.062 -1.897,0.169 -3.814,0.311 -5.745,0.431 -0.339,0.021 -0.679,0.043 -1.019,0.061 -1.919,0.11 -3.851,0.197 -5.796,0.258 -0.291,0.01 -0.582,0.015 -0.873,0.023 -2.037,0.056 -4.084,0.09 -6.148,0.09 -2.062,0 -4.11,-0.034 -6.147,-0.09 -0.291,-0.008 -0.582,-0.013 -0.873,-0.023 -1.947,-0.061 -3.879,-0.148 -5.796,-0.258 -0.34,-0.02 -0.679,-0.041 -1.019,-0.061 -1.93,-0.12 -3.847,-0.261 -5.745,-0.431 -0.219,-0.02 -0.434,-0.043 -0.653,-0.062 -1.891,-0.176 -3.765,-0.373 -5.618,-0.599 -0.132,-0.016 -0.265,-0.03 -0.395,-0.046 -1.874,-0.232 -3.726,-0.493 -5.559,-0.774 -0.312,-0.048 -0.626,-0.095 -0.939,-0.145 -1.777,-0.281 -3.532,-0.587 -5.266,-0.916 -0.306,-0.058 -0.608,-0.118 -0.912,-0.178 -1.772,-0.345 -3.527,-0.71 -5.248,-1.105 -0.118,-0.028 -0.233,-0.058 -0.352,-0.084 -1.68,-0.388 -3.333,-0.804 -4.962,-1.238 -0.15,-0.039 -0.301,-0.077 -0.451,-0.118 4.104,-18.696 24.966,-32.985 49.933,-32.985 24.965,0 45.829,14.288 49.938,32.985 -0.157,0.043 -0.316,0.082 -0.472,0.125 z"
             id="path1770" /></g></g><g
         style="fill:#64a01f;fill-opacity:1;stroke:#64a01f;stroke-width:9.72535038;stroke-miterlimit:4;stroke-dasharray:none;stroke-opacity:1"
         id="g1776" /><g
         style="fill:#64a01f;fill-opacity:1;stroke:#64a01f;stroke-width:9.72535038;stroke-miterlimit:4;stroke-dasharray:none;stroke-opacity:1"
         id="g1778" /><g
         style="fill:#64a01f;fill-opacity:1;stroke:#64a01f;stroke-width:9.72535038;stroke-miterlimit:4;stroke-dasharray:none;stroke-opacity:1"
         id="g1780" /><g
         style="fill:#64a01f;fill-opacity:1;stroke:#64a01f;stroke-width:9.72535038;stroke-miterlimit:4;stroke-dasharray:none;stroke-opacity:1"
         id="g1782" /><g
         style="fill:#64a01f;fill-opacity:1;stroke:#64a01f;stroke-width:9.72535038;stroke-miterlimit:4;stroke-dasharray:none;stroke-opacity:1"
         id="g1784" /><g
         style="fill:#64a01f;fill-opacity:1;stroke:#64a01f;stroke-width:9.72535038;stroke-miterlimit:4;stroke-dasharray:none;stroke-opacity:1"
         id="g1786" /><g
         style="fill:#64a01f;fill-opacity:1;stroke:#64a01f;stroke-width:9.72535038;stroke-miterlimit:4;stroke-dasharray:none;stroke-opacity:1"
         id="g1788" /><g
         style="fill:#64a01f;fill-opacity:1;stroke:#64a01f;stroke-width:9.72535038;stroke-miterlimit:4;stroke-dasharray:none;stroke-opacity:1"
         id="g1790" /><g
         style="fill:#64a01f;fill-opacity:1;stroke:#64a01f;stroke-width:9.72535038;stroke-miterlimit:4;stroke-dasharray:none;stroke-opacity:1"
         id="g1792" /><g
         style="fill:#64a01f;fill-opacity:1;stroke:#64a01f;stroke-width:9.72535038;stroke-miterlimit:4;stroke-dasharray:none;stroke-opacity:1"
         id="g1794" /><g
         style="fill:#64a01f;fill-opacity:1;stroke:#64a01f;stroke-width:9.72535038;stroke-miterlimit:4;stroke-dasharray:none;stroke-opacity:1"
         id="g1796" /><g
         style="fill:#64a01f;fill-opacity:1;stroke:#64a01f;stroke-width:9.72535038;stroke-miterlimit:4;stroke-dasharray:none;stroke-opacity:1"
         id="g1798" /><g
         style="fill:#64a01f;fill-opacity:1;stroke:#64a01f;stroke-width:9.72535038;stroke-miterlimit:4;stroke-dasharray:none;stroke-opacity:1"
         id="g1800" /><g
         style="fill:#64a01f;fill-opacity:1;stroke:#64a01f;stroke-width:9.72535038;stroke-miterlimit:4;stroke-dasharray:none;stroke-opacity:1"
         id="g1802" /><g
         style="fill:#64a01f;fill-opacity:1;stroke:#64a01f;stroke-width:9.72535038;stroke-miterlimit:4;stroke-dasharray:none;stroke-opacity:1"
         id="g1804" /></g></g></svg>