<?xml version="1.0" encoding="UTF-8" standalone="no"?>
<!-- Generator: Adobe Illustrator 15.0.0, SVG Export Plug-In . SVG Version: 6.00 Build 0)  -->

<svg
   xmlns:dc="http://purl.org/dc/elements/1.1/"
   xmlns:cc="http://creativecommons.org/ns#"
   xmlns:rdf="http://www.w3.org/1999/02/22-rdf-syntax-ns#"
   xmlns:svg="http://www.w3.org/2000/svg"
   xmlns="http://www.w3.org/2000/svg"
   xmlns:sodipodi="http://sodipodi.sourceforge.net/DTD/sodipodi-0.dtd"
   xmlns:inkscape="http://www.inkscape.org/namespaces/inkscape"
   version="1.1"
   id="Layer_1"
   x="0px"
   y="0px"
   width="76px"
   height="66px"
   viewBox="0 0 76 66"
   enable-background="new 0 0 76 66"
   xml:space="preserve"
   sodipodi:docname="Foward_green.svg"
   inkscape:version="0.92.1 r15371"><metadata
     id="metadata146"><rdf:RDF><cc:Work
         rdf:about=""><dc:format>image/svg+xml</dc:format><dc:type
           rdf:resource="http://purl.org/dc/dcmitype/StillImage" /><dc:title /></cc:Work></rdf:RDF></metadata><defs
     id="defs144" /><sodipodi:namedview
     pagecolor="#ffffff"
     bordercolor="#666666"
     borderopacity="1"
     objecttolerance="10"
     gridtolerance="10"
     guidetolerance="10"
     inkscape:pageopacity="0"
     inkscape:pageshadow="2"
     inkscape:window-width="1185"
     inkscape:window-height="857"
     id="namedview142"
     showgrid="false"
     inkscape:snap-others="true"
     inkscape:snap-nodes="false"
     inkscape:snap-center="true"
     inkscape:zoom="16.47"
     inkscape:cx="38"
     inkscape:cy="33"
     inkscape:window-x="730"
     inkscape:window-y="147"
     inkscape:window-maximized="0"
     inkscape:current-layer="Layer_1"
     showguides="true"
     inkscape:guide-bbox="true" /><path
     style="fill:#008000"
     inkscape:connector-curvature="0"
     id="path119"
     d="m 25.184655,29 c 0,-2.209 -1.791,-4 -4,-4 h -1 c -2.209,0 -4,1.791 -4,4 v 8 c 0,2.209 1.791,4 4,4 h 1 c 2.209,0 4,-1.791 4,-4 z" /><path
     style="fill:#ffffff"
     inkscape:connector-curvature="0"
     id="path121"
     d="m 24.184655,29 c 0,-1.657 -1.343,-3 -3,-3 h -1 c -1.657,0 -3,1.343 -3,3 v 8 c 0,1.657 1.343,3 3,3 h 1 c 1.657,0 3,-1.343 3,-3 z" /><path
     style="fill:#008000"
     inkscape:connector-curvature="0"
     id="path125"
     d="m 35,29 c 0,-2.209 -1.791,-4 -4,-4 h -1 c -2.209,0 -4,1.791 -4,4 v 8 c 0,2.209 1.791,4 4,4 h 1 c 2.209,0 4,-1.791 4,-4 z" /><path
     style="fill:#ffffff"
     inkscape:connector-curvature="0"
     id="path127"
     d="m 34,29 c 0,-1.657 -1.343,-3 -3,-3 h -1 c -1.657,0 -3,1.343 -3,3 v 8 c 0,1.657 1.343,3 3,3 h 1 c 1.657,0 3,-1.343 3,-3 z" /><g
     id="g133"
     style="fill:#008000"><path
       d="m 36.137,28.31 c 0,-0.876 0.26,-1.688 0.924,-2.288 0.779,-0.703 1.837,-1.037 2.996,-0.916 l 2.586,0.48 c 0.54,0.056 1.004,-0.063 1.295,-0.325 0.184,-0.165 0.27,-0.376 0.27,-0.626 0,-0.043 -0.27,-4.227 -0.27,-4.227 -0.016,-0.109 -0.025,-0.275 -0.025,-0.439 0,-1.674 1.173,-3.631 4.479,-3.631 3.572,0 12.592,10.471 15.348,13.774 0.726,0.676 1.121,1.569 1.121,2.528 0,0.957 -0.396,1.851 -1.115,2.522 -1.971,2.44 -11.338,13.778 -15.355,13.778 -1.434,0 -2.554,-0.325 -3.33,-0.971 -0.756,-0.627 -1.154,-1.522 -1.154,-2.597 v 0 c 0,-0.185 0.013,-0.373 0.035,-0.562 l 0.246,-3.979 c 0.012,-0.104 0.014,-0.146 0.014,-0.188 0,-0.25 -0.094,-0.46 -0.275,-0.626 -0.292,-0.262 -0.77,-0.381 -1.309,-0.322 l -2.612,0.479 C 38.847,40.291 37.843,39.957 37.064,39.257 36.398,38.662 36.138,37.85 36.138,36.973 V 28.31 Z"
       id="path131"
       inkscape:connector-curvature="0"
       style="fill:#008000" /></g><g
     id="g137"
     transform="translate(0.001125,-0.003)"><path
       d="m 63.013,34.479 c 1.129,-1.011 1.129,-2.664 0,-3.674 0,0 -11.221,-13.467 -14.623,-13.467 -2.549,0 -3.66,1.354 -3.457,3.008 l 0.252,4.037 c 0.166,1.379 -1.034,2.367 -2.672,2.197 L 39.9,26.1 c -1.638,-0.17 -2.764,0.654 -2.764,2.041 v 9 c 0,1.387 1.126,2.212 2.764,2.042 l 2.612,-0.479 c 1.638,-0.17 2.838,0.817 2.672,2.196 l -0.252,4.037 c -0.203,1.654 0.674,3.009 3.457,3.009 3.778,-10e-4 14.624,-13.467 14.624,-13.467 z"
       id="path135"
       inkscape:connector-curvature="0"
       style="fill:#ffffff" /></g></svg>