<?xml version="1.0" encoding="UTF-8" standalone="no"?>
<!-- Generator: Adobe Illustrator 15.0.0, SVG Export Plug-In . SVG Version: 6.00 Build 0)  -->

<svg
   xmlns:dc="http://purl.org/dc/elements/1.1/"
   xmlns:cc="http://creativecommons.org/ns#"
   xmlns:rdf="http://www.w3.org/1999/02/22-rdf-syntax-ns#"
   xmlns:svg="http://www.w3.org/2000/svg"
   xmlns="http://www.w3.org/2000/svg"
   xmlns:xlink="http://www.w3.org/1999/xlink"
   xmlns:sodipodi="http://sodipodi.sourceforge.net/DTD/sodipodi-0.dtd"
   xmlns:inkscape="http://www.inkscape.org/namespaces/inkscape"
   version="1.1"
   id="Layer_1"
   x="0px"
   y="0px"
   width="76px"
   height="66px"
   viewBox="0 0 76 66"
   enable-background="new 0 0 76 66"
   xml:space="preserve"
   sodipodi:docname="blueCmd_green.svg"
   inkscape:version="0.92.1 r15371"><metadata
     id="metadata286"><rdf:RDF><cc:Work
         rdf:about=""><dc:format>image/svg+xml</dc:format><dc:type
           rdf:resource="http://purl.org/dc/dcmitype/StillImage" /><dc:title></dc:title></cc:Work></rdf:RDF></metadata><defs
     id="defs284"><linearGradient
       inkscape:collect="always"
       id="linearGradient380"><stop
         style="stop-color:#80ff80;stop-opacity:1;"
         offset="0"
         id="stop376" /><stop
         style="stop-color:#80ff80;stop-opacity:0;"
         offset="1"
         id="stop378" /></linearGradient><linearGradient
       inkscape:collect="always"
       id="linearGradient364"><stop
         style="stop-color:#80ff80;stop-opacity:1;"
         offset="0"
         id="stop360" /><stop
         style="stop-color:#80ff80;stop-opacity:0;"
         offset="1"
         id="stop362" /></linearGradient><linearGradient
       gradientTransform="translate(1.8333333,-617)"
       y2="556.4203"
       x2="37.9858"
       y1="608.7764"
       x1="37.9858"
       gradientUnits="userSpaceOnUse"
       id="SVGID_1_"><stop
         id="stop259"
         style="stop-color:#7AFFFF"
         offset="0.1273" /><stop
         id="stop261"
         style="stop-color:#7AFFFF;stop-opacity:0.16"
         offset="0.2667" /><stop
         id="stop263"
         style="stop-color:#7AFFFF;stop-opacity:0"
         offset="0.5394" /></linearGradient><linearGradient
       gradientTransform="translate(2.261,-589.845)"
       y2="569.2393"
       x2="37.3102"
       y1="544.9385"
       x1="42.7861"
       gradientUnits="userSpaceOnUse"
       id="SVGID_2_"><stop
         id="stop268"
         style="stop-color:#7AFFFF"
         offset="0" /><stop
         id="stop270"
         style="stop-color:#7AFFFF;stop-opacity:0.17"
         offset="1" /></linearGradient><linearGradient
       inkscape:collect="always"
       xlink:href="#linearGradient364"
       id="linearGradient366"
       x1="60.666668"
       y1="-39.166668"
       x2="59"
       y2="-2.5"
       gradientUnits="userSpaceOnUse"
       gradientTransform="translate(-2.166667,45)" /><linearGradient
       inkscape:collect="always"
       xlink:href="#linearGradient380"
       id="linearGradient382"
       x1="43"
       y1="-11.833333"
       x2="51.166668"
       y2="-37.666668"
       gradientUnits="userSpaceOnUse"
       gradientTransform="translate(-1.6666667,71.833333)" /></defs><sodipodi:namedview
     pagecolor="#ffffff"
     bordercolor="#666666"
     borderopacity="1"
     objecttolerance="10"
     gridtolerance="10"
     guidetolerance="10"
     inkscape:pageopacity="0"
     inkscape:pageshadow="2"
     inkscape:window-width="997"
     inkscape:window-height="822"
     id="namedview282"
     showgrid="false"
     inkscape:zoom="6"
     inkscape:cx="38"
     inkscape:cy="39.063395"
     inkscape:window-x="843"
     inkscape:window-y="18"
     inkscape:window-maximized="0"
     inkscape:current-layer="Layer_1" /><path
     d="M 9.727,65.15 C 5.078,65.15 1,61.312 1,56.938 c 0,0 0.013,-5.81 0.013,-9.332 0,-1.348 0.13,-2.725 1.092,-2.725 0.555,0 1.033,0.544 1.58,1.36 0.712,1.062 1.736,1.622 3.13,1.71 0.083,0.005 0.163,0.008 0.242,0.008 1.003,0 1.587,-0.41 2.375,-1.217 1.233,-1.264 1.289,-3.469 1.352,-13.67 C 10.721,22.878 10.665,20.675 9.432,19.41 8.644,18.603 8.06,18.193 7.057,18.193 c -0.078,0 -0.159,0.003 -0.242,0.008 -1.393,0.086 -2.416,0.645 -3.129,1.708 -0.547,0.817 -1.025,1.362 -1.58,1.362 -0.962,0 -1.092,-1.378 -1.092,-2.726 C 1.013,15.025 1,9.214 1,9.214 1,4.838 5.078,1 9.727,1 h 47.546 c 4.435,0 8.041,3.684 8.041,8.213 0,0 0.104,9.542 0.104,9.749 0,3.01 0.921,3.01 1.812,3.01 0.979,0 1.312,-0.513 1.772,-1.224 0.522,-0.804 1.177,-1.804 2.92,-1.804 3.011,0 3.021,4.752 3.039,11.946 l 0.009,2.285 -0.009,2.084 c -0.019,7.195 -0.028,11.948 -3.039,11.948 -1.743,0 -2.396,-1.001 -2.92,-1.807 -0.462,-0.711 -0.796,-1.226 -1.772,-1.226 -0.891,0 -1.812,0 -1.812,3.015 0,0.207 -0.104,9.752 -0.104,9.752 0,4.522 -3.606,8.209 -8.041,8.209 z"
     id="path251"
     inkscape:connector-curvature="0"
     style="fill:#00aa00" /><path
     style="fill:#008000"
     inkscape:connector-curvature="0"
     id="path253"
     d="m 57.273,1.5 c 4.166,0 7.541,3.454 7.541,7.713 0,0 0.104,9.542 0.104,9.749 0,3.113 0.979,3.51 2.312,3.51 2.566,0 1.824,-3.027 4.691,-3.027 2.762,0 2.5,5.62 2.549,13.531 0,0.035 0,0.066 0,0.1 0,0.034 0,0.064 0,0.101 -0.049,7.909 0.213,13.532 -2.549,13.532 -2.867,0 -2.125,-3.029 -4.691,-3.029 -1.332,0 -2.312,0.399 -2.312,3.512 0,0.207 -0.104,9.748 -0.104,9.748 0,4.263 -3.375,7.713 -7.541,7.713 H 28.018 9.834 9.727 c -4.164,0 -8.227,-3.45 -8.227,-7.713 0,0 0.013,-5.811 0.013,-9.332 0,-1.685 0.255,-2.226 0.592,-2.226 0.365,0 0.826,0.634 1.165,1.14 0.586,0.873 1.588,1.81 3.514,1.932 0.094,0.006 0.185,0.009 0.273,0.009 1.241,0 1.944,-0.562 2.732,-1.367 1.385,-1.42 1.43,-3.54 1.494,-14.017 C 11.219,22.6 11.174,20.481 9.789,19.062 9,18.253 8.298,17.693 7.056,17.693 c -0.088,0 -0.179,0.003 -0.273,0.009 -1.926,0.119 -2.928,1.055 -3.514,1.928 -0.339,0.507 -0.8,1.141 -1.165,1.141 -0.337,0 -0.592,-0.542 -0.592,-2.226 C 1.512,15.024 1.499,9.213 1.499,9.213 1.5,4.954 5.562,1.5 9.727,1.5 h 0.107 18.184 29.255 m 0,-1 H 28.018 9.834 9.727 C 4.812,0.5 0.5,4.571 0.5,9.213 c 0,0.002 0.013,5.812 0.013,9.332 0,0.965 0,3.226 1.592,3.226 0.863,0 1.483,-0.818 1.996,-1.584 0.395,-0.589 1.11,-1.385 2.744,-1.486 0.073,-0.004 0.143,-0.007 0.211,-0.007 0.835,0 1.297,0.329 2.018,1.067 1.097,1.125 1.148,3.288 1.209,13.321 C 10.221,43.105 10.17,45.27 9.073,46.394 8.354,47.128 7.892,47.457 7.056,47.457 6.987,47.457 6.917,47.455 6.844,47.45 5.21,47.35 4.496,46.553 4.1,45.963 3.587,45.197 2.968,44.381 2.105,44.381 c -0.305,0 -1.05,0.115 -1.379,1.188 -0.144,0.472 -0.213,1.138 -0.213,2.037 0,3.521 -0.013,9.33 -0.013,9.33 0,4.646 4.312,8.717 9.227,8.717 h 0.107 18.184 29.255 c 4.711,0 8.541,-3.908 8.541,-8.715 0.004,-0.379 0.104,-9.537 0.104,-9.746 0,-2.514 0.552,-2.514 1.312,-2.514 0.672,0 0.873,0.256 1.354,0.997 0.525,0.81 1.322,2.033 3.339,2.033 3.509,0 3.521,-4.951 3.539,-12.446 0.002,-0.674 0.004,-1.367 0.009,-2.08 v -0.106 -0.1 c -0.005,-0.719 -0.007,-1.413 -0.009,-2.086 -0.021,-7.494 -0.03,-12.445 -3.539,-12.445 -2.017,0 -2.812,1.222 -3.339,2.031 -0.48,0.74 -0.684,0.996 -1.354,0.996 -0.76,0 -1.312,0 -1.312,-2.51 0,-0.21 -0.103,-9.37 -0.104,-9.76 0,-4.793 -3.832,-8.702 -8.541,-8.702 z" /><path
     inkscape:connector-curvature="0"
     style="opacity:0.2;fill:url(#linearGradient382);fill-opacity:1"
     id="path266"
     d="m 9.893666,63.492333 c -3.797,0 -7.2549997,-3.203 -7.2549997,-6.722 0,0 0.013,-5.812 0.013,-9.332 0,-0.184 0.004,-0.342 0.008,-0.485 0.973,1.427 2.396,2.208 4.2319997,2.319 0.115,0.008 0.227,0.011 0.333,0.011 1.663,0 2.601,-0.82 3.419,-1.658 1.7,-1.739 1.713,-3.976 1.778,-14.709 -0.065,-10.749 -0.078,-12.984 -1.778,-14.724 -0.819,-0.838 -1.756,-1.659 -3.419,-1.659 -0.106,0 -0.218,0.004 -0.333,0.01 -1.8379997,0.113 -3.2599997,0.895 -4.2319997,2.32 -0.004,-0.143 -0.008,-0.303 -0.008,-0.485 0,-3.521 -0.013,-9.332 -0.013,-9.332 0,-3.5159997 3.4579997,-6.7189997 7.2549997,-6.7189997 h 47.546 c 3.623,0 6.572,3.016 6.572,6.7189997 0.032,3.298 0.104,9.558 0.106,9.749 0,3.157 0.979,4.504 3.276,4.504 1.769,0 2.479,-1.093 3,-1.893 0.476,-0.732 0.737,-1.135 1.692,-1.135 1.545,0 1.554,5.079 1.567,10.454 0,0.675 0.011,2.283 0.011,2.283 -0.008,0.71 -0.011,1.409 -0.011,2.085 -0.016,5.374 -0.022,10.453 -1.567,10.453 -0.955,0 -1.219,-0.404 -1.692,-1.135 -0.521,-0.803 -1.231,-1.895 -3,-1.895 -2.299,0 -3.276,1.348 -3.276,4.506 -0.002,0.188 -0.074,6.449 -0.106,9.734 0,3.719 -2.949,6.732 -6.572,6.732 h -47.546 z"
     enable-background="new    " /><path
     inkscape:connector-curvature="0"
     style="opacity:0.75;fill:url(#linearGradient366);fill-opacity:1"
     id="path273"
     d="m 2.5863327,19.185003 c 0.973,-1.426 2.395,-2.207 4.232,-2.32 0.115,-0.006 0.227,-0.01 0.333,-0.01 1.6630003,0 2.6010003,0.82 3.4190003,1.659 1.607,1.645 1.707,6.122 1.768,15.422997 18.04,4.051 26.213,-1.793 45.277,-1.793 11.387,0 8.021,0.692 15.975,1.907 0.004,-0.244 0.004,-0.478 0.006,-0.723 0,0 -0.01,-1.608 -0.01,-2.283 -0.016,-5.375 -0.023,-10.453997 -1.568,-10.453997 -0.955,0 -1.219,0.402 -1.693,1.135 -0.521,0.8 -1.23,1.893 -3,1.893 -2.299,0 -3.275,-1.347 -3.275,-4.504 -0.002,-0.191 -0.074,-6.451 -0.105,-9.749 0,-3.703 -2.949,-6.719 -6.572,-6.719 h -47.552 c -3.7970003,0 -7.2550003,3.203 -7.2550003,6.719 0,0 0.013,5.811 0.013,9.332 -0.001,0.185 0.003,0.345 0.007,0.487 z"
     enable-background="new    " /><path
     style="opacity:0.9;fill:#ffffff"
     inkscape:connector-curvature="0"
     id="path275"
     d="m 9.826333,4.03 h 47.546 c 3.623,0 6.572,3.014 6.572,6.719 0.032,3.296 0.104,9.558 0.106,9.75 0,3.154 0.979,4.504 3.276,4.504 1.769,0 2.479,-1.096 3,-1.895 0.476,-0.731 0.737,-1.135 1.692,-1.135 1.545,0 1.554,5.077 1.567,10.453 0,0.393 0.003,1.102 0.005,1.625 0,-0.252 0,-0.491 0.006,-0.743 0,0 -0.011,-1.608 -0.011,-2.283 -0.016,-5.375 -0.022,-10.454 -1.567,-10.454 -0.955,0 -1.219,0.402 -1.692,1.135 -0.521,0.8 -1.231,1.893 -3,1.893 -2.299,0 -3.276,-1.347 -3.276,-4.504 -0.002,-0.191 -0.074,-6.451 -0.106,-9.749 0,-3.703 -2.949,-6.719 -6.572,-6.719 h -47.546 c -3.797,0 -7.255,3.203 -7.255,6.719 0,0 10e-4,0.528 0.002,1.355 0.031,-3.497 3.473,-6.671 7.253,-6.671 z"
     enable-background="new    " /><path
     style="opacity:0.9;fill:#ffffff"
     inkscape:connector-curvature="0"
     id="path277"
     d="m 2.6506663,48.842333 c 0,-0.183 0.004,-0.343 0.008,-0.485 0.973,1.427 2.396,2.207 4.232,2.319 0.115,0.009 0.227,0.013 0.333,0.013 1.663,0 2.601,-0.818 3.4189997,-1.66 1.7,-1.737 1.713,-3.977 1.778,-14.711 -0.002,-0.237 -0.003,-0.471 -0.005,-0.7 -0.062,10.13 -0.111,12.308 -1.773,14.01 -0.8179997,0.835 -1.7549997,1.655 -3.4179997,1.655 -0.106,0 -0.218,-0.003 -0.333,-0.011 -1.836,-0.111 -3.26,-0.895 -4.232,-2.319 -0.004,0.144 -0.008,0.304 -0.008,0.485 0,3.521 -0.013,9.332 -0.013,9.332 0,0.017 0.002,0.03 0.002,0.049 0.005,-1.927 0.01,-5.513 0.01,-7.977 z"
     enable-background="new    " /></svg>