<?xml version="1.0" encoding="utf-8"?>
<!-- Generator: Adobe Illustrator 16.0.0, SVG Export Plug-In . SVG Version: 6.00 Build 0)  -->
<!DOCTYPE svg PUBLIC "-//W3C//DTD SVG 1.1//EN" "http://www.w3.org/Graphics/SVG/1.1/DTD/svg11.dtd">
<svg version="1.1" id="Layer_1" xmlns="http://www.w3.org/2000/svg" xmlns:xlink="http://www.w3.org/1999/xlink" x="0px" y="0px"
	 width="202px" height="219px" viewBox="0 0 202 219" enable-background="new 0 0 202 219" xml:space="preserve">
<g>
	<path fill="#64B33E" d="M102.8,42.1c0,0-4.5-43.2-46.6-41C56.2,1.2,60,49.6,102.8,42.1"/>
	<path fill="#56A438" d="M102.8,42.1c-46.6-41-46.6-41-46.6-41S60,49.6,102.8,42.1"/>
	<path fill="#4B2923" d="M121.2,12.2c-6.7-3.5-6.7-3.5-6.7-3.5s-15.9,25.5-14.9,53c2.7,0.7,2.7,0.7,2.7,0.7S102.5,30.1,121.2,12.2"
		/>
	<path fill="#5F352A" d="M114.5,8.7c3,1.5,3,1.5,3,1.5s-17.9,25.5-16.4,52c-1.5-0.5-1.5-0.5-1.5-0.5C98.6,34.1,114.5,8.7,114.5,8.7"
		/>
	<path fill="#EE2722" d="M187.7,74.4c-13.7-34.2-43.1-31.2-63.5-24.2c-13.9,4.7-28.9,4.7-42.8,0c-20.2-7-49.8-10-63.5,24.2
		c-25.2,63.2,15.9,158.1,77,135.1c5.2-1.7,11-1.7,15.9,0C171.8,232.5,213.1,137.6,187.7,74.4z"/>
	<path fill="#DD2624" d="M187.7,74.4c-5.4-13.5-13.2-21.2-21.9-25.2c1.5,2.7,3.7,5.2,4,8.7c5.7,41-25.4,117.4-80.2,135.6
		c-16.4,5.5-37.9,11.2-56-4.5c14.9,19.7,36.6,30,61.3,20.5c5.2-1.7,11-1.7,15.9,0C171.8,232.5,213.1,137.6,187.7,74.4z"/>
	<path fill="#D21E26" d="M187.7,74.4c-0.4-1-0.7-2-1.2-3c0,1,14.7,107.7-72.2,139.4C173.3,228.7,212.4,136.3,187.7,74.4z"/>
	<path fill="#F46F73" d="M66.2,63.9c9.6,5.4,27.4-4.5,31.4,7.2c4.2,13.2-46.1,28.2-60.3,16c-7.5-6.5-8.2-17.7,3.7-25
		C53.2,54.9,57.7,59.1,66.2,63.9z"/>
</g>
</svg>
