<?xml version="1.0" encoding="utf-8"?>
<!-- Generator: Adobe Illustrator 16.0.0, SVG Export Plug-In . SVG Version: 6.00 Build 0)  -->
<!DOCTYPE svg PUBLIC "-//W3C//DTD SVG 1.1//EN" "http://www.w3.org/Graphics/SVG/1.1/DTD/svg11.dtd">
<svg version="1.1" id="Layer_1" xmlns="http://www.w3.org/2000/svg" xmlns:xlink="http://www.w3.org/1999/xlink" x="0px" y="0px"
	 width="480px" height="360px" viewBox="0 0 480 360" enable-background="new 0 0 480 360" xml:space="preserve">
<g>
	<polygon fill="#C7E7EC" points="0,360 480,360 480,0 0,0 0,360 	"/>
	<polygon fill="#B1E1E7" points="14.5,360 0,360 0,0 14.5,0 14.5,360 	"/>
	<polygon fill="#B1E1E7" points="47.75,360 33.25,360 33.25,0 47.75,0 47.75,360 	"/>
	<polygon fill="#B1E1E7" points="66.5,360 81,360 81,0 66.5,0 66.5,360 	"/>
	<polygon fill="#B1E1E7" points="99.75,360 114.25,360 114.25,0 99.75,0 99.75,360 	"/>
	<polygon fill="#B1E1E7" points="133,360 147.5,360 147.5,0 133,0 133,360 	"/>
	<polygon fill="#B1E1E7" points="180.75,360 166.25,360 166.25,0 180.75,0 180.75,360 	"/>
	<polygon fill="#B1E1E7" points="214,360 199.5,360 199.5,0 214,0 214,360 	"/>
	<polygon fill="#B1E1E7" points="247.25,360 232.75,360 232.75,0 247.25,0 247.25,360 	"/>
	<polygon fill="#B1E1E7" points="280.5,360 266,360 266,0 280.5,0 280.5,360 	"/>
	<polygon fill="#B1E1E7" points="313.75,360 299.25,360 299.25,0 313.75,0 313.75,360 	"/>
	<polygon fill="#B1E1E7" points="347,360 332.5,360 332.5,0 347,0 347,360 	"/>
	<polygon fill="#B1E1E7" points="380.25,360 365.75,360 365.75,0 380.25,0 380.25,360 	"/>
	<polygon fill="#B1E1E7" points="413.5,360 399,360 399,0 413.5,0 413.5,360 	"/>
	<polygon fill="#B1E1E7" points="446.75,360 432.25,360 432.25,0 446.75,0 446.75,360 	"/>
	<polygon fill="#B1E1E7" points="480,360 465.5,360 465.5,0 480,0 480,360 	"/>
	<polygon fill="#86BCCC" points="480,360 0,360 0,250.25 480,250.25 480,360 	"/>
	<path fill="#69A3AF" d="M341,259.5c0,3.5-27.75,6.5-62,6.5c-34,0-61.75-3-61.75-6.5S245,253,279,253C313.25,253,341,256,341,259.5"
		/>
	<polygon fill="#7EBAE8" points="48.25,152 151.25,152 151.25,23 48.25,23 48.25,152 	"/>
	<path fill="#EAEBF7" d="M145.5,54.5c-0.5,0-0.5,0-0.5,0c0.75-0.75,1.25-1.5,1.25-2.75c0-2.5-3-4.75-6.5-4.75s-3.5,0-3.5,0
		c0-2.25-2.5-4-5.75-4c-3,0-5.5,1.75-5.5,4c-3.5,0-3.5,0-3.5,0c-3.75,0-6.5,2.25-6.5,4.75c0,1.25,0.5,2,1.25,2.75
		c-1.5,0-1.5,0-1.5,0c-4.25,0-7.75,2.75-7.75,6c0,3,3.5,5.75,7.75,5.75c30.75,0,30.75,0,30.75,0c4.25,0,7.75-2.75,7.75-5.75
		C153.25,57.25,149.75,54.5,145.5,54.5"/>
	<path fill="#EAEBF7" d="M90,113.5c-0.5,0-0.5,0-0.5,0c0.75-0.75,1.25-2,1.25-3c0-3-3-5.25-7-5.25s-4,0-4,0
		c0-2.75-2.75-4.75-6.25-4.75s-6.25,2-6.25,4.75c-4,0-4,0-4,0c-4,0-7,2.25-7,5.25c0,1,0.5,2.25,1.25,3c-1.75,0-1.75,0-1.75,0
		c-4.75,0-8.5,3-8.5,6.5s3.75,6.5,8.5,6.5c34.25,0,34.25,0,34.25,0c4.75,0,8.5-3,8.5-6.5S94.75,113.5,90,113.5"/>
	<path fill="#FBC21A" d="M48.25,69.75c2,0.25,4,0.25,6.25,0.25c33.5,0,61-20.5,61-45.75c0-0.5,0-1,0-1.25c-67.25,0-67.25,0-67.25,0
		C48.25,69.75,48.25,69.75,48.25,69.75"/>
	<polygon fill="#9CCFF0" points="129.25,93.5 115.75,93.5 151.25,67 151.25,77 129.25,93.5 	"/>
	<polygon fill="#FBD63C" points="48.25,37 48.25,26.75 53.25,23 66.75,23 48.25,37 	"/>
	<polygon fill="#FBD63C" points="48.25,56 48.25,46 78.75,23 92.25,23 48.25,56 	"/>
	<path fill="#9CCFF0" d="M107,93.5c-43.25,0-43.25,0-43.25,0C107,61,107,61,107,61c0.5,3,3.75,5.25,7.75,5.25
		c28.75,0,28.75,0,28.75,0C107,93.5,107,93.5,107,93.5 M151.25,56.75c-1.25-1.25-3.5-2.25-5.75-2.25c-0.5,0-0.5,0-0.5,0
		c0.75-0.75,1.25-1.5,1.25-2.75c0-2.5-3-4.75-6.5-4.75s-3.5,0-3.5,0c0-2-2.25-3.75-5-4c20-15.25,20-15.25,20-15.25
		C151.25,56.75,151.25,56.75,151.25,56.75 M116.25,54.5c-0.5,0-0.5,0-0.5,0c0.25,0,0.25,0,0.25,0H116.25"/>
	<path fill="#F1F1F9" d="M143.5,66.25c-28.75,0-28.75,0-28.75,0c-4,0-7.25-2.25-7.75-5.25c8.75-6.5,8.75-6.5,8.75-6.5
		c0.5,0,0.5,0,0.5,0H116C131.25,43,131.25,43,131.25,43c2.75,0.25,5,2,5,4c3.5,0,3.5,0,3.5,0c3.5,0,6.5,2.25,6.5,4.75
		c0,1.25-0.5,2-1.25,2.75c0.5,0,0.5,0,0.5,0c2.25,0,4.5,1,5.75,2.25l0,0c0,3.5,0,3.5,0,3.5C143.5,66.25,143.5,66.25,143.5,66.25"/>
	<path fill="#9CCFF0" d="M49.75,93.5c-1.5,0-1.5,0-1.5,0c0-23.75,0-23.75,0-23.75c2,0.25,4,0.25,6.25,0.25c33.5,0,61-20.5,61-45.75
		c0-0.5,0-1,0-1.25c28.25,0,28.25,0,28.25,0C49.75,93.5,49.75,93.5,49.75,93.5"/>
	<path fill="#FBD63C" d="M54.5,70c-2.25,0-4.25,0-6.25-0.25c0-7.5,0-7.5,0-7.5C100.5,23,100.5,23,100.5,23c15,0,15,0,15,0
		c0,0.25,0,0.75,0,1.25C115.5,49.5,88,70,54.5,70"/>
	<path fill="#FFFFFF" d="M52.25,149h95V26h-95V149L52.25,149z M155.5,155.25H44V19.75h111.5V155.25L155.5,155.25z"/>
	<path fill="#69A3AF" d="M473,264.75c0,3.5-30,6.5-66.75,6.5s-66.75-3-66.75-6.5s30-6.5,66.75-6.5S473,261.25,473,264.75"/>
	<polygon fill="#338688" points="458.5,229 354,229 354,196.25 458.5,196.25 458.5,229 	"/>
	<path fill="#FFFFFF" d="M357.75,259.5H455v-159h-97.25V259.5L357.75,259.5z M462,264.75H350.5V95.25H462V264.75L462,264.75z"/>
	<polygon fill="#FFFFFF" points="458.5,231.75 354,231.75 354,226.5 458.5,226.5 458.5,231.75 	"/>
	<polygon fill="#FFFFFF" points="458.5,199 354,199 354,193.75 458.5,193.75 458.5,199 	"/>
	<polygon fill="#FFFFFF" points="458.5,166.25 354,166.25 354,161 458.5,161 458.5,166.25 	"/>
	<polygon fill="#FFFFFF" points="458.5,133.5 354,133.5 354,128.25 458.5,128.25 458.5,133.5 	"/>
	<polygon fill="#3DAEAC" points="363.75,128.25 357.75,128.25 357.75,103 363.75,103 363.75,128.25 	"/>
	<polygon fill="#AEE2BD" points="363.75,107.5 357.75,107.5 357.75,105.75 363.75,105.75 363.75,107.5 	"/>
	<polygon fill="#AEE2BD" points="363.75,125.5 357.75,125.5 357.75,123.75 363.75,123.75 363.75,125.5 	"/>
	<polygon fill="#F58617" points="380.5,128.25 374.25,128.25 374.25,103 380.5,103 380.5,128.25 	"/>
	<polygon fill="#FBC21A" points="380.5,107.5 374.25,107.5 374.25,105.75 380.5,105.75 380.5,107.5 	"/>
	<polygon fill="#FBC21A" points="380.5,125.5 374.25,125.5 374.25,123.75 380.5,123.75 380.5,125.5 	"/>
	<polygon fill="#F364A4" points="369,128.25 363.75,128.25 363.75,103 369,103 369,128.25 	"/>
	<path fill="#FBC936" d="M367.75,115.5c0,3-0.75,5.5-1.25,5.5c-0.75,0-1.5-2.5-1.5-5.5c0-2.75,0.75-5.25,1.5-5.25
		C367,110.25,367.75,112.75,367.75,115.5"/>
	<polygon fill="#37868C" points="374.25,128.25 369,128.25 369,103 374.25,103 374.25,128.25 	"/>
	<path fill="#3DAEAC" d="M373,115.5c0,3-0.5,5.5-1.25,5.5s-1.5-2.5-1.5-5.5c0-2.75,0.75-5.25,1.5-5.25S373,112.75,373,115.5"/>
	<polygon fill="#3DAEAC" points="438.5,193.75 432.25,193.75 432.25,168.5 438.5,168.5 438.5,193.75 	"/>
	<polygon fill="#AEE2BD" points="438.5,173 432.25,173 432.25,171.25 438.5,171.25 438.5,173 	"/>
	<polygon fill="#AEE2BD" points="438.5,191 432.25,191 432.25,189.25 438.5,189.25 438.5,191 	"/>
	<polygon fill="#F58617" points="455,193.75 449,193.75 449,168.5 455,168.5 455,193.75 	"/>
	<polygon fill="#FBC21A" points="455,173 449,173 449,171.25 455,171.25 455,173 	"/>
	<polygon fill="#FBC21A" points="455,191 449,191 449,189.25 455,189.25 455,191 	"/>
	<polygon fill="#F364A4" points="443.75,193.75 438.5,193.75 438.5,168.5 443.75,168.5 443.75,193.75 	"/>
	<path fill="#FBC936" d="M442.5,181c0,3-0.75,5.25-1.5,5.25s-1.25-2.25-1.25-5.25c0-2.75,0.5-5.25,1.25-5.25S442.5,178.25,442.5,181
		"/>
	<polygon fill="#37868C" points="449,193.75 443.75,193.75 443.75,168.5 449,168.5 449,193.75 	"/>
	<path fill="#3DAEAC" d="M447.75,181c0,3-0.75,5.25-1.5,5.25S445,184,445,181c0-2.75,0.5-5.25,1.25-5.25S447.75,178.25,447.75,181"
		/>
	<polygon fill="#3DAEAC" points="412.75,148 412.75,143.5 446.25,143.5 446.25,148 412.75,148 	"/>
	<polygon fill="#AEE2BD" points="440.25,148 440.25,143.5 442.75,143.5 442.75,148 440.25,148 	"/>
	<polygon fill="#AEE2BD" points="416.5,148 416.5,143.5 418.75,143.5 418.75,148 416.5,148 	"/>
	<polygon fill="#F58617" points="412.75,160.5 412.75,156 446.25,156 446.25,160.5 412.75,160.5 	"/>
	<polygon fill="#FBC21A" points="440.25,160.5 440.25,156 442.75,156 442.75,160.5 440.25,160.5 	"/>
	<polygon fill="#FBC21A" points="416.5,160.5 416.5,156 418.75,156 418.75,160.5 416.5,160.5 	"/>
	<polygon fill="#F364A4" points="412.75,152 412.75,148 446.25,148 446.25,152 412.75,152 	"/>
	<path fill="#FBC936" d="M429.5,151c-3.75,0-7-0.5-7-1s3.25-1,7-1c4,0,7,0.5,7,1S433.5,151,429.5,151"/>
	<polygon fill="#37868C" points="412.75,156 412.75,152 446.25,152 446.25,156 412.75,156 	"/>
	<path fill="#3DAEAC" d="M429.5,155c-3.75,0-7-0.5-7-1s3.25-1,7-1c4,0,7,0.5,7,1S433.5,155,429.5,155"/>
	<polygon fill="#AEE2BD" points="403,193.75 360.25,193.75 360.25,175.25 403,175.25 403,193.75 	"/>
	<polygon fill="#3DAEAC" points="404,177.25 359,177.25 359,173 404,173 404,177.25 	"/>
	<path fill="#338688" d="M388,179.5c0,0.5-0.5,1-1.25,1c-10.25,0-10.25,0-10.25,0c-0.75,0-1.5-0.5-1.5-1s0.75-1,1.5-1
		c10.25,0,10.25,0,10.25,0C387.5,178.5,388,179,388,179.5"/>
	<path fill="#FFFFFF" d="M377.5,212c0,1-1.25,1.75-2.5,1.75s-2.5-0.75-2.5-1.75s1.25-1.75,2.5-1.75S377.5,211,377.5,212"/>
	<path fill="#FFFFFF" d="M435.5,204.5c0,1-1,1.75-2.25,1.75s-2.5-0.75-2.5-1.75s1.25-1.75,2.5-1.75S435.5,203.5,435.5,204.5"/>
	<path fill="#FFFFFF" d="M435.5,220.75c0,1-1,1.75-2.25,1.75s-2.5-0.75-2.5-1.75s1.25-1.75,2.5-1.75S435.5,219.75,435.5,220.75"/>
	<polygon fill="#FFFFFF" points="405,229.5 411,229.5 411,196.25 405,196.25 405,229.5 	"/>
	<polygon fill="#FFFFFF" points="408,214.25 458.5,214.25 458.5,209.75 408,209.75 408,214.25 	"/>
	<polygon fill="#DE2E24" points="449.25,252.75 420,252.75 420,256.25 449.25,256.25 449.25,252.75 	"/>
	<polygon fill="#399E9C" points="380.25,253.5 410.5,253.5 410.5,256.25 380.25,256.25 380.25,253.5 	"/>
	<path fill="#3DAEAC" d="M371.75,241.5c0,6.75,0,6.75,0,6.75c-4,0-4,0-4,0c-3,0-5.5,1.75-5.5,4c0,4,0,4,0,4c5.5,0,5.5,0,5.5,0
		c4,0,4,0,4,0c4.25,0,4.25,0,4.25,0c12.5,0,12.5,0,12.5,0c0-14.75,0-14.75,0-14.75C371.75,241.5,371.75,241.5,371.75,241.5"/>
	<path fill="#307979" d="M389.5,241.5c0,0.5-0.5,0.5-0.75,0.5c-17,0-17,0-17,0c-0.5,0-0.75,0-0.75-0.5c0-0.25,0.25-0.25,0.75-0.25
		c17,0,17,0,17,0C389,241.25,389.5,241.25,389.5,241.5"/>
	<path fill="#FBC936" d="M365,251c0,0.25-0.5,0.5-0.75,0.5c-0.5,0-1-0.25-1-0.5c0-0.5,0.5-0.75,1-0.75
		C364.5,250.25,365,250.5,365,251"/>
	<path fill="#307979" d="M372,252.5c-2.75,0-5.25,1.75-5.25,3.75c1,0,1,0,1,0c4,0,4,0,4,0c4.25,0,4.25,0,4.25,0
		c1.25,0,1.25,0,1.25,0C377.25,254.25,374.75,252.5,372,252.5"/>
	<path fill="#FBC21A" d="M376,256.25c0,1.75-1.75,3-4,3s-4-1.25-4-3s1.75-3,4-3S376,254.5,376,256.25"/>
	<path fill="#F58617" d="M374.25,256.25c0,1-1,1.75-2.25,1.75s-2.25-0.75-2.25-1.75s1-1.5,2.25-1.5S374.25,255.25,374.25,256.25"/>
	<path fill="#307979" d="M363.75,257.25c-2.75,0-2.75,0-2.75,0c-0.5,0-1-0.5-1-1s0.5-1,1-1c2.75,0,2.75,0,2.75,0
		c0.75,0,1.25,0.5,1.25,1S364.5,257.25,363.75,257.25"/>
	<path fill="#307979" d="M412,257.25c-2.75,0-2.75,0-2.75,0c-0.75,0-1.25-0.5-1.25-1s0.5-1,1.25-1c2.75,0,2.75,0,2.75,0
		c0.5,0,1.25,0.5,1.25,1S412.5,257.25,412,257.25"/>
	<polygon fill="#ADDDD7" points="382.25,248.25 373.5,248.25 373.5,242.5 382.25,242.5 382.25,248.25 	"/>
	<path fill="#FBC936" d="M382.25,249.25c0,0,0,0-0.25,0c-2,0-2,0-2,0c-0.25,0-0.25,0-0.25,0c0-0.25,0-0.25,0.25-0.25c2,0,2,0,2,0
		C382.25,249,382.25,249,382.25,249.25"/>
	<polygon fill="#F03B31" points="450.5,253.5 392,253.5 392,237 450.5,237 450.5,253.5 	"/>
	<path fill="#307979" d="M400.25,252.5c-2.75,0-5,1.75-5,3.75c0.75,0,0.75,0,0.75,0c4,0,4,0,4,0c4.25,0,4.25,0,4.25,0
		c1.25,0,1.25,0,1.25,0C405.5,254.25,403,252.5,400.25,252.5"/>
	<path fill="#FBC21A" d="M404.25,256.25c0,1.75-2,3-4.25,3s-4-1.25-4-3s1.75-3,4-3S404.25,254.5,404.25,256.25"/>
	<path fill="#F58617" d="M402.25,256.25c0,1-1,1.75-2.25,1.75c-1,0-2-0.75-2-1.75s1-1.5,2-1.5
		C401.25,254.75,402.25,255.25,402.25,256.25"/>
	<path fill="#DE2E24" d="M451.75,236.75c0,0.25-0.25,0.5-0.5,0.5c-60,0-60,0-60,0c-0.25,0-0.5-0.25-0.5-0.5s0.25-0.5,0.5-0.5
		c60,0,60,0,60,0C451.5,236.25,451.75,236.5,451.75,236.75"/>
	<path fill="#971D1F" d="M442.25,252.5c-2.75,0-5.25,1.75-5.25,3.75c1,0,1,0,1,0c4,0,4,0,4,0c4.25,0,4.25,0,4.25,0c1,0,1,0,1,0
		C447.25,254.25,445,252.5,442.25,252.5"/>
	<path fill="#FBC21A" d="M446.25,256.25c0,1.75-1.75,3-4,3s-4-1.25-4-3s1.75-3,4-3S446.25,254.5,446.25,256.25"/>
	<path fill="#F58617" d="M444.5,256.25c0,1-1,1.75-2.25,1.75s-2.25-0.75-2.25-1.75s1-1.5,2.25-1.5S444.5,255.25,444.5,256.25"/>
	<path fill="#971D1F" d="M427.75,252.5c-2.75,0-5.25,1.75-5.25,3.75c1,0,1,0,1,0c4,0,4,0,4,0c4.25,0,4.25,0,4.25,0c1,0,1,0,1,0
		C432.75,254.25,430.5,252.5,427.75,252.5"/>
	<path fill="#FBC21A" d="M431.75,256.25c0,1.75-1.75,3-4,3s-4-1.25-4-3s1.75-3,4-3S431.75,254.5,431.75,256.25"/>
	<path fill="#F58617" d="M430,256.25c0,1-1,1.75-2.25,1.75s-2.25-0.75-2.25-1.75s1-1.5,2.25-1.5S430,255.25,430,256.25"/>
	<polygon fill="#8FD12D" points="429.5,120 430,120 430,105.75 429.5,105.75 429.5,120 	"/>
	<path fill="#2E7774" d="M425.5,113.25c-0.25,1,0,2,0.75,2.5c1,0.75,2.25,1,3.5,0.75c0.25-1,0-1.75-1-2.5
		C428,113.25,426.5,113,425.5,113.25"/>
	<path fill="#2E7774" d="M425.5,109.75c-0.25,1,0,2,0.75,2.5c1,0.75,2.25,1,3.5,0.75c0.25-0.75,0-1.75-1-2.5
		C428,109.75,426.5,109.5,425.5,109.75"/>
	<path fill="#2E7774" d="M425.5,105.75c-0.25,1,0,2,0.75,2.5c1,0.75,2.25,1,3.5,0.75c0.25-1,0-1.75-1-2.5
		C428,105.75,426.5,105.5,425.5,105.75"/>
	<path fill="#2E7774" d="M434.25,115c-1.25-0.25-2.5,0-3.5,0.75c-0.75,0.75-1.25,1.5-0.75,2.5c1,0.25,2.25,0,3.25-0.75
		S434.5,116,434.25,115"/>
	<path fill="#2E7774" d="M434.25,111.5c-1.25-0.25-2.5,0-3.5,0.75c-0.75,0.5-1.25,1.5-0.75,2.5c1,0.25,2.25,0,3.25-0.75
		S434.5,112.25,434.25,111.5"/>
	<path fill="#2E7774" d="M434,107.75c-1.25-0.25-2.5,0-3.5,0.75c-0.75,0.5-1.25,1.5-0.75,2.5c1,0.25,2.25,0,3.25-0.75
		S434.25,108.75,434,107.75"/>
	<path fill="#2E7774" d="M429.75,102c-1,0.25-1.75,1.25-1.75,2.25s0.75,1.75,1.75,2.25c1-0.5,1.75-1.25,1.75-2.25
		S430.75,102.25,429.75,102"/>
	<polygon fill="#FBC21A" points="435,119.75 423.25,119.75 424.5,128.25 435,128.25 436.5,119.75 435,119.75 	"/>
	<path fill="#F58617" d="M437.5,120c0,0.5-0.5,1-1,1c-13.5,0-13.5,0-13.5,0c-0.5,0-0.75-0.5-0.75-1s0.25-1,0.75-1
		c13.5,0,13.5,0,13.5,0C437,119,437.5,119.5,437.5,120"/>
	<polygon fill="#2E7774" points="373.75,161 372.5,161 372.5,148.5 373.75,148.5 373.75,161 	"/>
	<polygon fill="#1E4543" points="374.5,161 368.75,161 368.75,160 374.5,160 374.5,161 	"/>
	<polygon fill="#1E4543" points="374.5,156 372,156 372,155.25 374.5,155.25 374.5,156 	"/>
	<polygon fill="#1E4543" points="374.5,154.75 372,154.75 372,154 374.5,154 374.5,154.75 	"/>
	<polygon fill="#1E4543" points="374.5,150.25 372,150.25 372,149.25 374.5,149.25 374.5,150.25 	"/>
	<polygon fill="#2E7774" points="377,161 378.25,161 378.25,148.5 377,148.5 377,161 	"/>
	<polygon fill="#1E4543" points="376.5,161 382,161 382,160 376.5,160 376.5,161 	"/>
	<polygon fill="#1E4543" points="376.5,156 379,156 379,155.25 376.5,155.25 376.5,156 	"/>
	<polygon fill="#1E4543" points="376.5,154.75 379,154.75 379,154 376.5,154 376.5,154.75 	"/>
	<polygon fill="#1E4543" points="376.5,150.25 379,150.25 379,149.25 376.5,149.25 376.5,150.25 	"/>
	<polygon fill="#2E7774" points="377.75,138 373.25,138 373.25,135 377.75,135 377.75,138 	"/>
	<polygon fill="#1E4543" points="378,139.75 372.75,139.75 372.75,137.5 378,137.5 378,139.75 	"/>
	<polygon fill="#2E7774" points="380.5,149.25 370.25,149.25 370.25,138.75 380.5,138.75 380.5,149.25 	"/>
	<polygon fill="#F79918" points="379.5,143.75 371.25,143.75 371.25,139.5 379.5,139.5 379.5,143.75 	"/>
	<polygon fill="#4BBCC3" points="379.5,146.25 371.25,146.25 371.25,144.75 379.5,144.75 379.5,146.25 	"/>
	<polygon fill="#4BBCC3" points="379.5,148.5 371.25,148.5 371.25,147 379.5,147 379.5,148.5 	"/>
	<path fill="#F36660" d="M375,136c0,0.25-0.25,0.5-0.75,0.5c-0.25,0-0.5-0.25-0.5-0.5s0.25-0.5,0.5-0.5
		C374.75,135.5,375,135.75,375,136"/>
	<path fill="#F36660" d="M377.25,136c0,0.25-0.25,0.5-0.75,0.5c-0.25,0-0.5-0.25-0.5-0.5s0.25-0.5,0.5-0.5
		C377,135.5,377.25,135.75,377.25,136"/>
	<path fill="#F36660" d="M376.5,137c0,0.25,0,0.25-0.25,0.25c-1.75,0-1.75,0-1.75,0s-0.25,0-0.25-0.25h0.25c1.75,0,1.75,0,1.75,0
		C376.5,137,376.5,137,376.5,137"/>
	<polygon fill="#2E7774" points="367.75,151.25 366.5,151.25 366.5,139.75 370.25,139.75 370.25,140.75 367.75,140.75 
		367.75,151.25 	"/>
	<polygon fill="#1E4543" points="368.25,147.5 366,147.5 366,143.25 368.25,143.25 368.25,147.5 	"/>
	<path fill="#2E7774" d="M369.75,153c-1.25,0-1.25,0-1.25,0c0-0.5-0.75-1-1.5-1s-1.25,0.5-1.25,1c-1.25,0-1.25,0-1.25,0
		c0-1,1.25-2,2.5-2C368.5,151,369.75,152,369.75,153"/>
	<polygon fill="#1E4543" points="368.25,150.75 365.75,150.75 365.75,150 368.25,150 368.25,150.75 	"/>
	<polygon fill="#1E4543" points="368.25,149.75 365.75,149.75 365.75,148.75 368.25,148.75 368.25,149.75 	"/>
	<polygon fill="#1E4543" points="370.25,141.25 369,141.25 369,139.25 370.25,139.25 370.25,141.25 	"/>
	<polygon fill="#2E7774" points="383.25,151.25 384.25,151.25 384.25,139.75 380.5,139.75 380.5,140.75 383.25,140.75 
		383.25,151.25 	"/>
	<polygon fill="#1E4543" points="382.5,147.5 385,147.5 385,143.25 382.5,143.25 382.5,147.5 	"/>
	<path fill="#2E7774" d="M381.25,153c1,0,1,0,1,0c0-0.5,0.75-1,1.5-1s1.5,0.5,1.5,1c1,0,1,0,1,0c0-1-1-2-2.5-2
		S381.25,152,381.25,153"/>
	<polygon fill="#1E4543" points="382.5,150.75 385,150.75 385,150 382.5,150 382.5,150.75 	"/>
	<polygon fill="#1E4543" points="382.5,149.75 385,149.75 385,148.75 382.5,148.75 382.5,149.75 	"/>
	<polygon fill="#1E4543" points="380.5,141.25 381.75,141.25 381.75,139.25 380.5,139.25 380.5,141.25 	"/>
	<path fill="#389998" d="M400,88.75c-7.5,0-13.75-4.75-13.75-10.25c0-1.25,1.5-2.25,3-2.25c1.75,0,3,1,3,2.25
		c0,3,3.5,5.75,7.75,5.75s7.5-2.75,7.5-5.75c0-26,0-26,0-26c0-1.25,1.5-2.25,3-2.25c1.75,0,3,1,3,2.25c0,26,0,26,0,26
		C413.5,84,407.5,88.75,400,88.75"/>
	<path fill="#389998" d="M398.5,18.25c-16.25-3.75-16.25-3.75-16.25-3.75c-0.5-0.25-1-0.25-1.25,0s-0.5,0.75-0.25,1
		C386,27.75,386,27.75,386,27.75c0,0.25,0.5,0.5,0.75,0.5c0.5,0.25,1,0,1.25-0.25c11-8.25,11-8.25,11-8.25
		c0.25-0.25,0.5-0.5,0.25-0.75C399.25,18.75,399,18.5,398.5,18.25"/>
	<path fill="#46C1B9" d="M396.75,20.25c-10.5-2.5-10.5-2.5-10.5-2.5c-0.5,0-0.75,0-1,0c0,0.25-0.25,0.5,0,0.75c3.25,8,3.25,8,3.25,8
		c0.25,0,0.5,0.25,0.75,0.25s0.5,0,0.75,0c7-5.5,7-5.5,7-5.5c0.25,0,0.25-0.25,0.25-0.5S397,20.25,396.75,20.25"/>
	<path fill="#389998" d="M422.75,18.25C439,14.5,439,14.5,439,14.5c0.5-0.25,1-0.25,1.25,0s0.5,0.75,0.25,1
		c-5.25,12.25-5.25,12.25-5.25,12.25c-0.25,0.25-0.5,0.5-1,0.5c-0.25,0.25-0.75,0-1-0.25c-11-8.25-11-8.25-11-8.25
		c-0.25-0.25-0.5-0.5-0.25-0.75C422,18.75,422.25,18.5,422.75,18.25"/>
	<path fill="#46C1B9" d="M435.75,17.75c0,0-0.5,0-0.75,0c-10.5,2.5-10.5,2.5-10.5,2.5c-0.25,0-0.5,0.25-0.5,0.5
		c-0.25,0.25,0,0.5,0.25,0.5c7,5.5,7,5.5,7,5.5c0.25,0,0.5,0,0.75,0s0.5-0.25,0.5-0.25c3.5-8,3.5-8,3.5-8
		C436.25,18.25,436,18,435.75,17.75"/>
	<path fill="#FFFFFF" d="M438.5,39.75c0,11.5-12.5,21-28,21c-15.25,0-28-9.5-28-21c0-11.75,12.75-21,28-21
		C426,18.75,438.5,28,438.5,39.75"/>
	<path fill="#3DAEAC" d="M438.5,39.75c-3,0-3,0-3,0c0,5-2.75,9.75-7.25,13.25c-4.5,3.25-10.75,5.5-17.75,5.5
		c-6.75,0-13-2.25-17.5-5.5c-4.5-3.5-7.5-8.25-7.5-13.25c0-5.25,3-10,7.5-13.25c4.5-3.5,10.75-5.5,17.5-5.5c7,0,13.25,2,17.75,5.5
		c4.5,3.25,7.25,8,7.25,13.25C438.5,39.75,438.5,39.75,438.5,39.75c3,0,3,0,3,0c0-6.5-3.25-12.25-9-16.5
		c-5.5-4.25-13.25-6.75-22-6.75c-8.5,0-16.25,2.5-21.75,6.75c-5.75,4.25-9.25,10-9.25,16.5C379.5,46,383,52,388.75,56
		c5.5,4.25,13.25,7,21.75,7c8.75,0,16.5-2.75,22-7c5.75-4,9-10,9-16.25C438.5,39.75,438.5,39.75,438.5,39.75"/>
	<path fill="#30797C" d="M409.75,22.25c0,3.75,0,3.75,0,3.75c0,0.5,0.25,0.75,0.75,0.75s1-0.25,1-0.75c0-3.75,0-3.75,0-3.75
		c0-0.25-0.5-0.5-1-0.5S409.75,22,409.75,22.25"/>
	<path fill="#30797C" d="M409.75,53.25c0,3.75,0,3.75,0,3.75c0,0.25,0.25,0.75,0.75,0.75s1-0.5,1-0.75c0-3.75,0-3.75,0-3.75
		c0-0.25-0.5-0.75-1-0.75S409.75,53,409.75,53.25"/>
	<path fill="#30797C" d="M433.75,39c-5,0-5,0-5,0c-0.5,0-1,0.25-1,0.75c0,0.25,0.5,0.5,1,0.5c5,0,5,0,5,0c0.5,0,0.75-0.25,0.75-0.5
		C434.5,39.25,434.25,39,433.75,39"/>
	<path fill="#30797C" d="M392.5,39c-5,0-5,0-5,0c-0.5,0-1,0.25-1,0.75c0,0.25,0.5,0.5,1,0.5c5,0,5,0,5,0c0.5,0,1-0.25,1-0.5
		C393.5,39.25,393,39,392.5,39"/>
	<path fill="#B3651E" d="M421.25,25.75c-11.5,13.5-11.5,13.5-11.5,13.5c-0.25,0.25,0,0.75,0.5,1c0.25,0.25,0.75,0,1-0.25
		c11.5-13.5,11.5-13.5,11.5-13.5c0.25-0.5,0-0.75-0.25-1C422,25.25,421.5,25.5,421.25,25.75"/>
	<path fill="#F58617" d="M409.75,29.25c0,10.5,0,10.5,0,10.5c0,0.25,0.25,0.5,0.75,0.5s1-0.25,1-0.5c0-10.5,0-10.5,0-10.5
		c0-0.5-0.5-0.75-1-0.75S409.75,28.75,409.75,29.25"/>
	<path fill="#4BC2B7" d="M394.25,82.25c-1.25-1-2-2.25-2-3.75c0-1.25-1.25-2.25-3-2.25c-1.5,0-3,1-3,2.25c0,2.5,1.5,5,3.5,6.75
		C394.25,82.25,394.25,82.25,394.25,82.25"/>
	<polygon fill="#FFFFFF" points="161,156.75 38.5,156.75 38.5,148.25 161,148.25 161,156.75 	"/>
	<polygon fill="#FFFFFF" points="151.25,95.75 48.75,95.75 48.75,91.25 151.25,91.25 151.25,95.75 	"/>
	<path fill="#327F7B" d="M318.5,185.25c0-16.5-17.75-29.5-39.5-29.5s-39.25,13-39.25,29.5c0,52,0,52,0,52c78.75,0,78.75,0,78.75,0
		C318.5,185.25,318.5,185.25,318.5,185.25"/>
	<path fill="#379591" d="M244,234c70.25,0,70.25,0,70.25,0c0-48.75,0-48.75,0-48.75c0-14.75-15.75-26.5-35.25-26.5
		c-19.25,0-35,11.75-35,26.5C244,234,244,234,244,234"/>
	<polygon fill="#3AA29F" points="315.5,254.75 242.75,254.75 242.75,243.25 315.5,243.25 315.5,254.75 	"/>
	<polygon fill="#3AA29F" points="313,237.5 245.25,237.5 245.25,226 313,226 313,237.5 	"/>
	<polygon fill="#3DAEAC" points="319.25,245.75 239,245.75 239,236.25 319.25,236.25 319.25,245.75 	"/>
	<path fill="#3DAEAC" d="M318,193.25c-5.25,0-9.5,3.25-9.5,7c0,59.25,0,59.25,0,59.25c18.75,0,18.75,0,18.75,0
		c0-59.25,0-59.25,0-59.25C327.25,196.5,323,193.25,318,193.25"/>
	<path fill="#3DAEAC" d="M240.25,193.25c-5.25,0-9.25,3.25-9.25,7c0,59.25,0,59.25,0,59.25c18.5,0,18.5,0,18.5,0
		c0-59.25,0-59.25,0-59.25C249.5,196.5,245.5,193.25,240.25,193.25"/>
	<path fill="#3DAEAC" d="M263.25,176.25c0,1-1,1.75-2.25,1.75c-1.5,0-2.5-0.75-2.5-1.75s1-2,2.5-2
		C262.25,174.25,263.25,175.25,263.25,176.25"/>
	<path fill="#3DAEAC" d="M263.25,193c0,1-1,1.75-2.25,1.75c-1.5,0-2.5-0.75-2.5-1.75s1-1.75,2.5-1.75
		C262.25,191.25,263.25,192,263.25,193"/>
	<path fill="#3DAEAC" d="M263.25,209.75c0,1-1,1.75-2.25,1.75c-1.5,0-2.5-0.75-2.5-1.75s1-1.75,2.5-1.75
		C262.25,208,263.25,208.75,263.25,209.75"/>
	<path fill="#3DAEAC" d="M299.75,176.25c0,1-1,1.75-2.5,1.75c-1.25,0-2.25-0.75-2.25-1.75s1-2,2.25-2
		C298.75,174.25,299.75,175.25,299.75,176.25"/>
	<path fill="#3DAEAC" d="M299.75,193c0,1-1,1.75-2.5,1.75C296,194.75,295,194,295,193s1-1.75,2.25-1.75
		C298.75,191.25,299.75,192,299.75,193"/>
	<path fill="#3DAEAC" d="M299.75,209.75c0,1-1,1.75-2.5,1.75c-1.25,0-2.25-0.75-2.25-1.75s1-1.75,2.25-1.75
		C298.75,208,299.75,208.75,299.75,209.75"/>
	<path fill="#3AA29F" d="M245,231.5c0,2-2.25,3.5-4.75,3.5s-4.75-1.5-4.75-3.5c0-29,0-29,0-29c0-1.75,2.25-3.5,4.75-3.5
		s4.75,1.75,4.75,3.5C245,231.5,245,231.5,245,231.5"/>
	<path fill="#3AA29F" d="M323.25,231.5c0,2-2.25,3.5-4.75,3.5c-2.75,0-4.75-1.5-4.75-3.5c0-29,0-29,0-29c0-1.75,2-3.5,4.75-3.5
		c2.5,0,4.75,1.75,4.75,3.5C323.25,231.5,323.25,231.5,323.25,231.5"/>
	<path fill="#3AA29F" d="M418,300.25c0,12-79.75,21.75-178,21.75s-178-9.75-178-21.75c0-12.25,79.75-22,178-22S418,288,418,300.25"
		/>
	<path fill="#40BDAF" d="M388.5,300.25C388.5,308.5,322,315,240,315s-148.5-6.5-148.5-14.75s66.5-15,148.5-15
		S388.5,292,388.5,300.25"/>
	<path fill="#51C4B6" d="M353.5,300.25c0,4.5-50.75,8.25-113.5,8.25s-113.5-3.75-113.5-8.25c0-4.75,50.75-8.5,113.5-8.5
		S353.5,295.5,353.5,300.25"/>
	<polygon fill="#F58617" points="32.25,231.75 32.25,138.25 103,138.25 103,153.5 106,153.5 106,136 29.25,136 29.25,231.75 
		32.25,231.75 	"/>
	<path fill="#3DAEAC" d="M66.75,215c0,3.75-4,7-9.25,7c-31,0-31,0-31,0c-5,0-9.25-3.25-9.25-7c0-4,4.25-7,9.25-7c31,0,31,0,31,0
		C62.75,208,66.75,211,66.75,215"/>
	<polygon fill="#F36042" points="204,258.25 21.5,258.25 21.5,222 204,222 204,258.25 	"/>
	<polygon fill="#F68881" points="81,258.25 47.75,258.25 47.75,222 81,222 81,258.25 	"/>
	<path fill="#F8A131" d="M312.75,60C312,60,312,60,312,60c0,5.5-2,10.25-5,13.75c-1.5,2-3.5,3.25-5.5,4.25s-4.25,1.5-6.5,1.5
		s-4.5-0.5-6.5-1.5c-3.25-1.5-5.75-4-7.75-7c-1.75-3.25-3-7-3-11c0-5.5,2-12.25,5.25-17.5c1.5-2.5,3.5-5,5.5-6.5
		c1-0.75,2-1.5,3.25-1.75c1-0.5,2-0.75,3.25-0.75c1,0,2.25,0.25,3.25,0.75c2,0.5,3.75,2,5.5,3.75c2.5,2.75,4.5,6.5,6,10.25
		c1.5,4,2.25,8.25,2.25,11.75C312.75,60,312.75,60,312.75,60c0.5,0,0.5,0,0.5,0c0-5.75-2-12.5-5.25-17.75c-1.5-2.75-3.5-5.25-5.75-7
		c-1-0.75-2.25-1.5-3.5-2s-2.5-0.75-3.75-0.75c-1.5,0-2.75,0.25-4,0.75c-2,1-4,2.5-5.75,4.25c-2.5,3-4.75,6.75-6.25,10.75
		c-1.5,3.75-2.25,8-2.25,11.75c0,5.5,2,10.75,5.25,14.25c1.5,2,3.5,3.5,5.75,4.5s4.75,1.75,7.25,1.75s5-0.75,7.25-1.75
		c3.25-1.5,6-4.25,8-7.5c1.75-3.25,3-7,3-11.25C312.75,60,312.75,60,312.75,60"/>
	<path fill="#33485C" d="M296.5,34.5c0,0.75-0.75,1.25-1.5,1.25c-1,0-1.5-0.5-1.5-1.25c0-0.5,0.5-1,1.5-1
		C295.75,33.5,296.5,34,296.5,34.5"/>
	<polygon fill="#FFFFFF" points="322,88.25 267.75,88.25 267.75,47.5 322,47.5 322,88.25 	"/>
	<polygon fill="#33485C" points="322,88.25 322,86 270.75,86 270.75,49.75 319,49.75 319,88.25 322,88.25 322,86 322,88.25 
		325,88.25 325,45.25 264.75,45.25 264.75,90.5 325,90.5 325,88.25 322,88.25 	"/>
	<path fill="#FBC21A" d="M312.5,68c0,7.25-7.75,13.25-17.5,13.25s-17.75-6-17.75-13.25s8-13.25,17.75-13.25S312.5,60.75,312.5,68"/>
	<path fill="#33485C" d="M288.75,62.5c0,1-0.75,1.75-1.25,1.75c-0.75,0-1.5-0.75-1.5-1.75c0-1.25,0.75-2,1.5-2
		C288,60.5,288.75,61.25,288.75,62.5"/>
	<path fill="#33485C" d="M303.75,62.5c0,1-0.5,1.75-1.25,1.75s-1.25-0.75-1.25-1.75c0-1.25,0.5-2,1.25-2S303.75,61.25,303.75,62.5"
		/>
	<path fill="#33485C" d="M304,67.25c0,2-1,3.5-2.75,4.75c-1.5,1.25-3.75,2-6.25,2s-4.75-0.75-6.5-2c-1.5-1.25-2.5-2.75-2.5-4.75
		c0-0.5-0.75-1-1.25-1c-0.75,0-1.25,0.5-1.25,1c0,4.75,5,8.5,11.5,8.5c6.25,0,11.5-3.75,11.5-8.5c0-0.5-0.75-1-1.25-1
		C304.5,66.25,304,66.75,304,67.25"/>
	<path fill="#F8A131" d="M234.25,98c-0.5,0-0.5,0-0.5,0c0,5.5-2,10.25-5.25,13.75c-1.5,1.75-3.25,3.25-5.25,4.25
		c-2.25,1-4.25,1.5-6.75,1.5c-2.25,0-4.5-0.5-6.5-1.5c-3-1.5-5.75-4-7.5-7c-2-3.25-3-7-3-11c0-5.5,2-12.25,5-17.5
		c1.75-2.5,3.5-5,5.5-6.5c1.25-0.75,2.25-1.5,3.25-2c1-0.25,2.25-0.5,3.25-0.5c1.25,0,2.25,0.25,3.25,0.5c2,0.75,3.75,2.25,5.5,4
		c2.5,2.75,4.5,6.5,6,10.25c1.5,4,2.5,8.25,2.5,11.75C234.25,98,234.25,98,234.25,98c0.5,0,0.5,0,0.5,0c0-5.75-2-12.5-5-17.75
		C228,77.5,226,75,224,73.25c-1.25-0.75-2.25-1.5-3.5-2s-2.5-0.75-4-0.75c-1.25,0-2.5,0.25-3.75,0.75c-2.25,1-4,2.5-5.75,4.25
		c-2.75,3-4.75,6.75-6.25,10.75c-1.5,3.75-2.5,8-2.5,11.75c0,5.5,2,10.75,5.25,14.25c1.75,2,3.75,3.5,5.75,4.5
		c2.25,1,4.75,1.75,7.25,1.75c2.75,0,5-0.75,7.25-1.75c3.25-1.5,6-4.25,8-7.5s3-7,3-11.25C234.25,98,234.25,98,234.25,98"/>
	<polygon fill="#FFFFFF" points="244.5,128.25 190,128.25 190,87.5 244.5,87.5 244.5,128.25 	"/>
	<polygon fill="#33485C" points="244.5,128.25 244.5,126 193,126 193,89.75 241.5,89.75 241.5,128.25 244.5,128.25 244.5,126 
		244.5,128.25 247.5,128.25 247.5,85.25 187,85.25 187,130.5 247.5,130.5 247.5,128.25 244.5,128.25 	"/>
	<path fill="#33485C" d="M218,72.5c0,0.75-0.5,1.25-1.5,1.25c-0.75,0-1.5-0.5-1.5-1.25c0-0.5,0.75-1,1.5-1
		C217.5,71.5,218,72,218,72.5"/>
	<path fill="#F03B31" d="M226,94.25c0.5,0,1.25,0,1.75,0C231.5,94.5,236,97,236.5,102c0,1.75,0,1.75,0,1.75
		c-0.5,4.75-5.25,10.5-19.25,17.75c-14-7.25-18.75-13-19.25-17.75c0-1.75,0-1.75,0-1.75c0.5-5,5-7.5,8.75-7.75c0.5,0,1,0,1.75,0
		c4.25,0,6.25,1.25,8.75,3.5C219.5,95.5,221.75,94.25,226,94.25"/>
	<path fill="#69A3AF" d="M466,338.5c0,1.5-11.75,2.75-26,2.75s-25.75-1.25-25.75-2.75c0-1.75,11.5-3,25.75-3S466,336.75,466,338.5"
		/>
	<path fill="#FFFFFF" d="M463.5,320.5c0,9.75-10.5,17.5-23.5,17.5s-23.5-7.75-23.5-17.5s10.5-17.75,23.5-17.75
		S463.5,310.75,463.5,320.5"/>
	<path fill="#14292B" d="M459.75,315.5c-3.75,4.75-3.75,4.75-3.75,4.75c-8.5,0-8.5,0-8.5,0c-3.25-4.25-3.25-4.25-3.25-4.25
		c4.5-5.5,4.5-5.5,4.5-5.5c0,0.25,0,0.25,0,0.25c7.5,0,7.5,0,7.5,0C459.75,315.5,459.75,315.5,459.75,315.5L459.75,315.5z
		 M456,330.25c-7.25,0-7.25,0-7.25,0l0,0c-4.5-5.25-4.5-5.25-4.5-5.25c3.25-4.5,3.25-4.5,3.25-4.5c8.5,0,8.5,0,8.5,0
		c3.75,4.75,3.75,4.75,3.75,4.75l0,0L456,330.25z M445,335c-10,0-10,0-10,0c-3.25-4.25-3.25-4.25-3.25-4.25c4.5-5.5,4.5-5.5,4.5-5.5
		l0,0c7.5,0,7.5,0,7.5,0c0.25,0,0.25,0,0.25,0c4.5,5.5,4.5,5.5,4.5,5.5L445,335z M431.25,330.25c-7.25,0-7.25,0-7.25,0
		c-3.75-5-3.75-5-3.75-5l0,0c3.75-4.75,3.75-4.75,3.75-4.75c8.5,0,8.5,0,8.5,0c3.5,4.5,3.5,4.5,3.5,4.5c-4.5,5.25-4.5,5.25-4.5,5.25
		H431.25z M424,310.75c7.25,0,7.25,0,7.25,0c0.25-0.25,0.25-0.25,0.25-0.25c4.5,5.5,4.5,5.5,4.5,5.5c-3.5,4.25-3.5,4.25-3.5,4.25
		c-8.5,0-8.5,0-8.5,0c-3.75-4.75-3.75-4.75-3.75-4.75l0,0L424,310.75z M435,305.75c10,0,10,0,10,0c3.5,4.5,3.5,4.5,3.5,4.5
		c-4.5,5.25-4.5,5.25-4.5,5.25c-0.25,0-0.25,0-0.25,0c-7.5,0-7.5,0-7.5,0l0,0c-4.5-5.25-4.5-5.25-4.5-5.25L435,305.75z M456.5,310.5
		c1.25-1.75,1.25-1.75,1.25-1.75c-3-2.5-6.75-4.25-11-5.25c-1.5,2-1.5,2-1.5,2c-10.25,0-10.25,0-10.25,0c-1.5-2-1.5-2-1.5-2
		c-4.5,1-8.25,2.75-11.25,5.25c1.25,1.75,1.25,1.75,1.25,1.75c-3.75,5-3.75,5-3.75,5c-2.25,0-2.25,0-2.25,0c-0.5,1.5-1,3.25-1,5
		s0.5,3.25,1,4.75c2.25,0,2.25,0,2.25,0c3.75,5,3.75,5,3.75,5c-1.25,1.75-1.25,1.75-1.25,1.75c3,2.5,6.75,4.5,11.25,5.25
		c1.5-1.75,1.5-1.75,1.5-1.75c10.25,0,10.25,0,10.25,0c1.5,1.75,1.5,1.75,1.5,1.75c4.25-0.75,8-2.75,11-5.25
		c-1.25-1.75-1.25-1.75-1.25-1.75c3.75-5,3.75-5,3.75-5c2.25,0,2.25,0,2.25,0c0.75-1.5,1-3,1-4.75s-0.25-3.5-1-5
		c-2.25,0-2.25,0-2.25,0C456.5,310.5,456.5,310.5,456.5,310.5"/>
	<path fill="#69A3AF" d="M91,343.5c0,2.5-17.5,4.5-39,4.5c-21.75,0-39-2-39-4.5s17.25-4.5,39-4.5C73.5,339,91,341,91,343.5"/>
	<polygon fill="#FBC936" points="45,341.75 24.25,341.75 24.25,326 45,326 45,341.75 	"/>
	<path fill="#F58617" d="M26,340.25c17.25,0,17.25,0,17.25,0c0-12.75,0-12.75,0-12.75c-17.25,0-17.25,0-17.25,0V340.25z M45,343
		c-20.75,0-20.75,0-20.75,0c-1,0-1.75-0.5-1.75-1.25c0-15.75,0-15.75,0-15.75c0-0.75,0.75-1.25,1.75-1.25c20.75,0,20.75,0,20.75,0
		c1,0,1.75,0.5,1.75,1.25c0,15.75,0,15.75,0,15.75C46.75,342.5,46,343,45,343"/>
	<path fill="#FFFFFF" d="M33.25,335.5h2.5l-1.25-4.75L33.25,335.5L33.25,335.5z M33.25,336.25l-0.5,1.75H31.5l2.25-8.25h1.75l2,8.25
		h-1.25L36,336.25H33.25L33.25,336.25z"/>
	<polygon fill="#5EA1DD" points="62.75,323.25 42,323.25 42,307.75 62.75,307.75 62.75,323.25 	"/>
	<path fill="#3B76BD" d="M43.75,322c17,0,17,0,17,0c0-12.75,0-12.75,0-12.75c-17,0-17,0-17,0V322z M62.75,324.75
		c-20.75,0-20.75,0-20.75,0c-1,0-2-0.75-2-1.5c0-15.5,0-15.5,0-15.5c0-0.75,1-1.25,2-1.25c20.75,0,20.75,0,20.75,0
		c1,0,1.75,0.5,1.75,1.25c0,15.5,0,15.5,0,15.5C64.5,324,63.75,324.75,62.75,324.75"/>
	<path fill="#FFFFFF" d="M52,319c0.75,0,1.25-0.5,1.25-1.25s0-0.75,0-0.75c0-1-0.5-1.25-1.5-1.25c-1.25,0-1.25,0-1.25,0
		c0,3.25,0,3.25,0,3.25H52z M51.5,315c1,0,1.5-0.25,1.5-1.25c0-0.5,0-0.5,0-0.5c0-0.75-0.25-1-1.25-1c-1.25,0-1.25,0-1.25,0
		c0,2.75,0,2.75,0,2.75H51.5z M51.75,311.5c1.75,0,2.5,0.5,2.5,1.75c0,0.5,0,0.5,0,0.5c0,0.75-0.25,1.25-1.25,1.5
		c1,0.25,1.5,1,1.5,1.75s0,0.75,0,0.75c0,1.25-0.75,2-2.5,2c-2.75,0-2.75,0-2.75,0c0-8.25,0-8.25,0-8.25
		C51.75,311.5,51.75,311.5,51.75,311.5"/>
	<polygon fill="#E02030" points="79,341.75 58.25,341.75 58.25,326 79,326 79,341.75 	"/>
	<path fill="#B01C32" d="M60,340.25c17,0,17,0,17,0c0-12.75,0-12.75,0-12.75c-17,0-17,0-17,0V340.25z M79,343
		c-20.75,0-20.75,0-20.75,0c-1,0-2-0.5-2-1.25c0-15.75,0-15.75,0-15.75c0-0.75,1-1.25,2-1.25c20.75,0,20.75,0,20.75,0
		c1,0,1.75,0.5,1.75,1.25c0,15.75,0,15.75,0,15.75C80.75,342.5,80,343,79,343"/>
	<path fill="#FFFFFF" d="M71,331.75c0,0.75,0,0.75,0,0.75c-1.25,0-1.25,0-1.25,0c0-0.75,0-0.75,0-0.75c0-0.75-0.25-1.25-1.25-1.25
		c-0.75,0-1.25,0.5-1.25,1.25c0,4.25,0,4.25,0,4.25c0,0.75,0.5,1.25,1.25,1.25c1,0,1.25-0.5,1.25-1.25c0-1,0-1,0-1
		c1.25,0,1.25,0,1.25,0c0,1,0,1,0,1c0,1.25-0.75,2-2.5,2s-2.5-0.75-2.5-2c0-4.25,0-4.25,0-4.25c0-1.25,0.75-2.25,2.5-2.25
		S71,330.5,71,331.75"/>
	<polygon fill="#FFFFFF" points="204,266 21.5,266 21.5,243.25 204,243.25 204,266 	"/>
	<polygon fill="#FFFFFF" points="203.5,199 22.25,199 22.25,189 203.5,189 203.5,199 	"/>
	<path fill="#FFFFFF" d="M26.5,271.25c0-90.75,0-90.75,0-90.75c0-2-2.25-3.75-5-3.75s-5.25,1.75-5.25,3.75c0,90.75,0,90.75,0,90.75
		c0,2,2.5,3.75,5.25,3.75S26.5,273.25,26.5,271.25"/>
	<path fill="#FFFFFF" d="M209.25,271.25c0-90.75,0-90.75,0-90.75c0-2-2.5-3.75-5.25-3.75s-5,1.75-5,3.75c0,90.75,0,90.75,0,90.75
		c0,2,2.25,3.75,5,3.75S209.25,273.25,209.25,271.25"/>
	<path fill="#FFFFFF" d="M35.25,194.75c0,54.25,0,54.25,0,54.25c0,1,1.25,1.75,2.5,1.75S40,250,40,249c0-54.25,0-54.25,0-54.25
		c0-1-1-1.75-2.25-1.75S35.25,193.75,35.25,194.75"/>
	<path fill="#FFFFFF" d="M52,194.75C52,249,52,249,52,249c0,1,1,1.75,2.5,1.75c1.25,0,2.25-0.75,2.25-1.75c0-54.25,0-54.25,0-54.25
		c0-1-1-1.75-2.25-1.75C53,193,52,193.75,52,194.75"/>
	<path fill="#FFFFFF" d="M68.75,194.75c0,54.25,0,54.25,0,54.25c0,1,1,1.75,2.25,1.75c1.5,0,2.5-0.75,2.5-1.75
		c0-54.25,0-54.25,0-54.25c0-1-1-1.75-2.5-1.75C69.75,193,68.75,193.75,68.75,194.75"/>
	<path fill="#FFFFFF" d="M85.25,194.75c0,54.25,0,54.25,0,54.25c0,1,1.25,1.75,2.5,1.75s2.5-0.75,2.5-1.75c0-54.25,0-54.25,0-54.25
		c0-1-1.25-1.75-2.5-1.75S85.25,193.75,85.25,194.75"/>
	<path fill="#FFFFFF" d="M102,194.75c0,54.25,0,54.25,0,54.25c0,1,1,1.75,2.5,1.75c1.25,0,2.25-0.75,2.25-1.75
		c0-54.25,0-54.25,0-54.25c0-1-1-1.75-2.25-1.75C103,193,102,193.75,102,194.75"/>
	<path fill="#FFFFFF" d="M118.75,194.75c0,54.25,0,54.25,0,54.25c0,1,1,1.75,2.25,1.75c1.5,0,2.5-0.75,2.5-1.75
		c0-54.25,0-54.25,0-54.25c0-1-1-1.75-2.5-1.75C119.75,193,118.75,193.75,118.75,194.75"/>
	<path fill="#FFFFFF" d="M135.25,194.75c0,54.25,0,54.25,0,54.25c0,1,1.25,1.75,2.5,1.75s2.5-0.75,2.5-1.75c0-54.25,0-54.25,0-54.25
		c0-1-1.25-1.75-2.5-1.75S135.25,193.75,135.25,194.75"/>
	<path fill="#FFFFFF" d="M152,194.75c0,54.25,0,54.25,0,54.25c0,1,1,1.75,2.5,1.75c1.25,0,2.25-0.75,2.25-1.75
		c0-54.25,0-54.25,0-54.25c0-1-1-1.75-2.25-1.75C153,193,152,193.75,152,194.75"/>
	<path fill="#FFFFFF" d="M168.75,194.75c0,54.25,0,54.25,0,54.25c0,1,1,1.75,2.5,1.75c1.25,0,2.25-0.75,2.25-1.75
		c0-54.25,0-54.25,0-54.25c0-1-1-1.75-2.25-1.75C169.75,193,168.75,193.75,168.75,194.75"/>
	<path fill="#FFFFFF" d="M185.5,194.75c0,54.25,0,54.25,0,54.25c0,1,1,1.75,2.25,1.75c1.5,0,2.5-0.75,2.5-1.75
		c0-54.25,0-54.25,0-54.25c0-1-1-1.75-2.5-1.75C186.5,193,185.5,193.75,185.5,194.75"/>
	<polygon fill="#3DAEAC" points="82.25,261.5 30.75,261.5 30.75,248.25 82.25,248.25 82.25,261.5 	"/>
	<polygon fill="#3DAEAC" points="138.5,261.5 87,261.5 87,248.25 138.5,248.25 138.5,261.5 	"/>
	<polygon fill="#3DAEAC" points="194.75,261.5 143.25,261.5 143.25,248.25 194.75,248.25 194.75,261.5 	"/>
	<path fill="#FFFFFF" d="M58.75,254.5c0,1-1,2-2.25,2s-2.5-1-2.5-2c0-0.75,1.25-1.75,2.5-1.75S58.75,253.75,58.75,254.5"/>
	<path fill="#FFFFFF" d="M115.25,254.5c0,1-1.25,2-2.5,2s-2.5-1-2.5-2c0-0.75,1.25-1.75,2.5-1.75S115.25,253.75,115.25,254.5"/>
	<path fill="#FFFFFF" d="M171.5,254.5c0,1-1.25,2-2.5,2s-2.25-1-2.25-2c0-0.75,1-1.75,2.25-1.75S171.5,253.75,171.5,254.5"/>
	<polygon fill="#F58617" points="90.25,164.5 91.5,164.5 91.5,153.25 90.25,153.25 90.25,164.5 	"/>
	<polygon fill="#F58617" points="103.75,164.5 105,164.5 105,153.25 103.75,153.25 103.75,164.5 	"/>
	<polygon fill="#F58617" points="117.25,164.5 118.5,164.5 118.5,153.25 117.25,153.25 117.25,164.5 	"/>
	<polygon fill="#3DAEAC" points="91,162.75 92.75,165.75 96.75,166 94,168.25 94.5,171.25 91,169.75 87.25,171.25 88,168.25 85,166 
		89,165.75 91,162.75 	"/>
	<polygon fill="#3DAEAC" points="118,163.25 119.75,166 123.75,166.5 121,168.75 121.5,171.75 118,170.25 114.25,171.75 115,168.75 
		112,166.5 116,166 118,163.25 	"/>
	<polygon fill="#3DAEAC" points="104.5,159.75 106.25,162.5 110.25,163 107.5,165.25 108,168.25 104.5,166.75 100.75,168.25 
		101.5,165.25 98.5,163 102.5,162.5 104.5,159.75 	"/>
	<path fill="#991A1F" d="M88.25,154.5c32.25,0,32.25,0,32.25,0c1,0,1.5-0.5,1.5-1.25c0-0.5-0.5-1-1.5-1c-32.25,0-32.25,0-32.25,0
		c-0.75,0-1.5,0.5-1.5,1C86.75,154,87.5,154.5,88.25,154.5"/>
</g>
</svg>
