<?xml version="1.0" encoding="utf-8"?>
<!-- Generator: Adobe Illustrator 16.0.0, SVG Export Plug-In . SVG Version: 6.00 Build 0)  -->
<!DOCTYPE svg PUBLIC "-//W3C//DTD SVG 1.1//EN" "http://www.w3.org/Graphics/SVG/1.1/DTD/svg11.dtd">
<svg version="1.1" id="Layer_1" xmlns="http://www.w3.org/2000/svg" xmlns:xlink="http://www.w3.org/1999/xlink" x="0px" y="0px"
	 width="59px" height="59px" viewBox="0 0 59 58" enable-background="new 0 0 59 58" xml:space="preserve">
<g>
	<path fill="#FFFFFF" d="M55.4,21.6c3.7,13.3-4,27.1-17.3,30.9c-13,3.7-26.9-4-30.6-17c-4-13.3,3.7-27.1,17-30.9
		C37.9,0.8,51.7,8.5,55.4,21.6"/>
	<path fill="#D0D910" d="M37.3,4.3c-4.3-1.1-8.5-1.1-12.8,0.3c-4.5,1.3-8.2,3.7-11.2,6.9c0.8,1.1,1.6,2.4,2.4,3.7
		c1.6,3.2,2.4,6.9,2.9,10.6c0.3,2.4,0.8,4.5,1.6,7.2c0,0.3,0,0.3,0,0.3c1.9,6.1,8.2,9.3,14.4,7.7l0,0c6.1-1.9,9.8-8,8.2-14.1
		c-0.3-0.5-0.3-0.5-0.3-0.5c-0.5-2.4-1.6-4.5-2.4-6.7c-1.3-3.5-2.9-6.9-2.9-10.6C37.3,7.2,37.1,5.6,37.3,4.3"/>
	<path fill="#D0D910" d="M40,5.1c0,1.1,0,2.4,0,3.7c0.3,3.5,1.3,6.4,2.9,9.8c0.8,2.1,1.6,4.3,2.4,6.7l0,0c0,0.5,0,0.5,0,0.5
		c2.1,7.7-2.1,15.7-9.8,17.8l0,0c-7.7,2.1-15.7-2.4-17.8-10.1C17.4,33,17.4,33,17.4,33c-0.5-2.1-1.1-4.5-1.3-6.7
		c-0.5-3.7-1.1-6.9-2.7-9.8c-0.8-1.1-1.3-2.1-1.9-2.9c-4.5,5.9-6.4,13.8-4,21.8c3.7,13,17.6,20.8,30.6,17
		c13.3-3.7,21-17.6,17.3-30.9C53,13.6,47.2,7.7,40,5.1"/>
	<path fill="#DDE739" d="M34.9,53.2c1.1-0.3,2.1-0.5,3.2-0.8l0,0l0,0c1.9-0.5,3.5-1.1,5.1-1.9C40.5,51.9,37.9,52.7,34.9,53.2"/>
	<path fill="#DDE739" d="M25.6,52.7c-2.4-0.5-4.5-1.3-6.7-2.7C21.1,51.4,23.5,52.2,25.6,52.7"/>
	<path fill="#ECECEC" d="M25.9,52.7c-0.3,0-0.3,0-0.3,0c-2.1-0.5-4.5-1.3-6.7-2.7l0,0C21.1,51.4,23.2,52.2,25.9,52.7 M31.5,44.2
		c-1.6,0-3.2-0.3-4.5-0.8c1.6-0.5,3.2-1.1,4.8-1.9c1.1,0,1.9-0.3,2.9-0.5l0,0c4.5-1.3,7.7-5.1,8.5-9.6c0.8-1.3,1.9-2.9,2.4-4.3
		c1.6,7.2-2.9,14.4-10.1,16.5l0,0C34.1,43.9,32.8,44.2,31.5,44.2"/>
	<path fill="#B8BF1A" d="M31.8,41.5c4.5-2.4,8.5-5.9,11.4-10.1c-0.8,4.5-4,8.2-8.5,9.6l0,0C33.6,41.2,32.8,41.5,31.8,41.5"/>
	<path fill="#DDE739" d="M51.2,43.6c2.4-2.9,4-6.4,4.8-10.1C55.2,37.3,53.6,40.7,51.2,43.6 M56.2,25c-0.3-1.1-0.5-2.1-0.8-3.5
		c-0.3-1.1-0.8-2.1-1.3-3.5C55.2,20.2,55.7,22.6,56.2,25"/>
	<path fill="#DDE739" d="M56.2,25c-0.3-1.1-0.5-2.1-0.8-3.5c-0.3-1.3-0.8-2.4-1.3-3.7c0,0.3,0,0.3,0,0.3c0.5,1.3,1.1,2.4,1.3,3.5
		C55.7,22.9,56,23.9,56.2,25L56.2,25"/>
	<path fill="#B8BF1A" d="M31.5,53.5c-1.9,0-4-0.3-5.6-0.8c-2.7-0.5-4.8-1.3-6.9-2.7c-2.4-1.3-4.5-3.2-6.4-5.3
		c1.3,0.3,2.9,0.3,4.3,0.3c3.7,0,6.9-0.5,10.1-1.6c1.3,0.5,2.9,0.8,4.5,0.8c1.3,0,2.7-0.3,4-0.5l0,0c7.2-2.1,11.7-9.3,10.1-16.5
		c2.1-4.3,3.2-9,3.2-14.1c0-0.8,0-1.6,0-2.4c2.1,2.1,4,4.5,5.3,7.2c0.5,1.3,1.1,2.4,1.3,3.7c0.3,1.3,0.5,2.4,0.8,3.5
		c0,1.1,0.3,2.4,0.3,3.5c0,1.6-0.3,3.5-0.5,5.1c-0.8,3.7-2.4,7.2-4.8,10.1c-2.1,2.9-4.8,5.1-8,6.9c-1.6,0.8-3.2,1.3-5.1,1.9l0,0l0,0
		c-1.1,0.3-2.1,0.5-3.2,0.8C33.6,53.2,32.6,53.5,31.5,53.5"/>
</g>
</svg>
