<?xml version="1.0" encoding="utf-8"?>
<!-- Generator: Adobe Illustrator 16.0.0, SVG Export Plug-In . SVG Version: 6.00 Build 0)  -->
<!DOCTYPE svg PUBLIC "-//W3C//DTD SVG 1.1//EN" "http://www.w3.org/Graphics/SVG/1.1/DTD/svg11.dtd">
<svg version="1.1" id="Layer_1" xmlns="http://www.w3.org/2000/svg" xmlns:xlink="http://www.w3.org/1999/xlink" x="0px" y="0px"
	 width="72px" height="72px" viewBox="0 0 72 72" enable-background="new 0 0 72 72" xml:space="preserve">
<g>
	<path fill="#F5F5F5" d="M37.3,66.4C20.7,66.4,7.4,53,7.4,36.5S20.7,6.4,37.3,6.4c16.5,0,30.1,13.6,30.1,30.1S53.8,66.4,37.3,66.4"
		/>
	<path fill="#2C2A2A" d="M51.6,28.4c-11.4,5.4-11.4,5.4-11.4,5.4c-12.8-6.4-12.8-6.4-12.8-6.4c1.2-11.1,1.2-11.1,1.2-11.1
		c11.6-5.2,11.6-5.2,11.6-5.2C50.8,17,50.8,17,50.8,17C51.6,28.4,51.6,28.4,51.6,28.4 M29.1,55.8c-12.3-7.7-12.3-7.7-12.3-7.7
		C17,35,17,35,17,35c9.9-6.7,9.9-6.7,9.9-6.7c12.8,6.4,12.8,6.4,12.8,6.4c0.7,14.8,0.7,14.8,0.7,14.8C29.1,55.8,29.1,55.8,29.1,55.8
		 M39.7,10.6c-11.6,5.2-11.6,5.2-11.6,5.2c-9.1,0-9.1,0-9.1,0c0.7-3.5,0.7-3.5,0.7-3.5c-0.5,0.2-0.7,0.5-1.2,0.7
		c-0.2,3.2-0.2,3.2-0.2,3.2c-6.4,9.9-6.4,9.9-6.4,9.9c-3.7,3.7-3.7,3.7-3.7,3.7c-0.2,0.5-0.2,1-0.2,1.5c3.7-4.2,3.7-4.2,3.7-4.2
		C16,35,16,35,16,35c-0.2,12.8-0.2,12.8-0.2,12.8c-3,3.5-3,3.5-3,3.5c-2.7-2-2.7-2-2.7-2c0.5,0.5,0.7,1.2,1.2,2
		c0.7,0.5,0.7,0.5,0.7,0.5c-0.2,0.5-0.2,0.5-0.2,0.5c0.2,0.5,0.5,0.7,0.7,1c0-0.2,0-0.5,0-0.7c7.7,8.4,7.7,8.4,7.7,8.4
		c2,1.5,4.2,2.7,6.4,3.5c4.4,0.7,4.4,0.7,4.4,0.7c7.2,1.2,7.2,1.2,7.2,1.2c1.2,0,2.5,0,3.5-0.2c-10.6-2-10.6-2-10.6-2
		c-1.5-7.7-1.5-7.7-1.5-7.7C41,50.3,41,50.3,41,50.3c12.1,2.2,12.1,2.2,12.1,2.2c0,8.1,0,8.1,0,8.1c-7.9,4.7-7.9,4.7-7.9,4.7
		c4.2-1.2,8.1-3.2,11.4-5.9C54,60.2,54,60.2,54,60.2c0-8.1,0-8.1,0-8.1c5.7-12.3,5.7-12.3,5.7-12.3c5.9-2.5,5.9-2.5,5.9-2.5
		c1.2,3.7,1.2,3.7,1.2,3.7c0.2-1.5,0.5-3,0.5-4.4c0-3.2-0.5-6.4-1.5-9.1c-0.2,8.9-0.2,8.9-0.2,8.9c-5.9,2.5-5.9,2.5-5.9,2.5
		c-7.2-10.1-7.2-10.1-7.2-10.1c-0.7-11.4-0.7-11.4-0.7-11.4C58,16,58,16,58,16c5.2,5.2,5.2,5.2,5.2,5.2c-0.7-1.2-1.7-2.5-2.5-3.5
		c-2-2-2-2-2-2c0-0.2,0-0.2,0-0.2c-4.9-4.9-11.4-8.1-18.5-8.9C39.7,10.6,39.7,10.6,39.7,10.6"/>
	<path fill="#C4C2C1" d="M37.3,66.4L37.3,66.4L37.3,66.4 M37.3,66.4L37.3,66.4L37.3,66.4 M37.3,66.4L37.3,66.4L37.3,66.4 M37.3,66.4
		H37C37.3,66.4,37.3,66.4,37.3,66.4 M37,66.4L37,66.4L37,66.4 M37,66.4L37,66.4L37,66.4 M37,66.4L37,66.4L37,66.4 M37,66.4L37,66.4
		L37,66.4 M37,66.4L37,66.4L37,66.4 M36.8,66.4L36.8,66.4L36.8,66.4 M36.8,66.4L36.8,66.4L36.8,66.4 M67.4,36.5L67.4,36.5L67.4,36.5
		L67.4,36.5 M67.4,36.5L67.4,36.5L67.4,36.5L67.4,36.5 M67.4,36.3L67.4,36.3L67.4,36.3L67.4,36.3 M67.4,36.3L67.4,36.3L67.4,36.3
		 M67.4,36.3L67.4,36.3L67.4,36.3 M67.4,36.3L67.4,36.3L67.4,36.3 M67.4,36.3L67.4,36.3L67.4,36.3 M67.4,36L67.4,36L67.4,36
		 M67.4,36L67.4,36L67.4,36 M67.4,36L67.4,36L67.4,36 M67.4,36L67.4,36L67.4,36"/>
	<path fill="#B9B8B7" d="M37.3,66.4L37.3,66.4L37.3,66.4L37.3,66.4L37.3,66.4L37.3,66.4L37.3,66.4L37.3,66.4L37.3,66.4H37l0,0l0,0
		l0,0l0,0l0,0l0,0l0,0l0,0l0,0c0,0,0,0-0.2,0l0,0l0,0l0,0l0,0c-8.4,0-15.8-3.7-21.2-9.1c0.5,0,0.7,0,1.2,0c3.5,3.7,3.5,3.7,3.5,3.7
		c2,1.5,4.2,2.7,6.4,3.5c4.2,0.7,4.2,0.7,4.2,0.7c7.4,1.2,7.4,1.2,7.4,1.2c1.2,0,2.5,0,3.5-0.2c-10.6-2-10.6-2-10.6-2
		c-1.5-7.7-1.5-7.7-1.5-7.7c3.2-1.7,3.2-1.7,3.2-1.7c3.2-1,5.9-2.5,8.6-4.2c11.6,2,11.6,2,11.6,2c0,8.1,0,8.1,0,8.1
		c-7.9,4.7-7.9,4.7-7.9,4.7c4.2-1.2,8.1-3.2,11.4-5.9C54,60.2,54,60.2,54,60.2c0-8.1,0-8.1,0-8.1c5.7-12.3,5.7-12.3,5.7-12.3
		c5.9-2.5,5.9-2.5,5.9-2.5c1.2,3.7,1.2,3.7,1.2,3.7c0.2-1.5,0.5-3,0.5-4.4C67.4,53,53.8,66.4,37.3,66.4 M59.7,38.7
		C56,33.5,56,33.5,56,33.5c2.2-4.9,3.5-10.4,3.7-15.8c3.5,3.5,3.5,3.5,3.5,3.5l0,0c-0.7-1.2-1.7-2.5-2.5-3.5c-1-1-1-1-1-1v-0.2l0,0
		c4.7,5.2,7.4,12.1,7.7,19.5l0,0l0,0l0,0l0,0l0,0l0,0l0,0c0,0.2,0,0.2,0,0.2l0,0l0,0l0,0l0,0l0,0l0,0l0,0l0,0c0-3.2-0.5-6.2-1.5-8.9
		c-0.2,8.9-0.2,8.9-0.2,8.9C59.7,38.7,59.7,38.7,59.7,38.7 M67.4,36.5L67.4,36.5L67.4,36.5 M67.4,36.5L67.4,36.5L67.4,36.5
		 M67.4,36.5L67.4,36.5L67.4,36.5L67.4,36.5 M67.4,36.5v-0.2C67.4,36.3,67.4,36.3,67.4,36.5L67.4,36.5 M67.4,36.3L67.4,36.3
		L67.4,36.3L67.4,36.3"/>
	<path fill="#232121" d="M38.2,66.4c-7.2-1.2-7.2-1.2-7.2-1.2c-4.4-0.7-4.4-0.7-4.4-0.7c-2.2-0.7-4.4-2-6.4-3.5
		c-3.5-3.7-3.5-3.7-3.5-3.7c0.7,0,1.5,0,2.2,0c4.9,0,9.6-0.7,13.8-2.5c-3.2,1.7-3.2,1.7-3.2,1.7c1.5,7.7,1.5,7.7,1.5,7.7
		c10.6,2,10.6,2,10.6,2C40.7,66.4,39.5,66.4,38.2,66.4 M45.2,65.4c7.9-4.7,7.9-4.7,7.9-4.7c0-8.1,0-8.1,0-8.1c-11.6-2-11.6-2-11.6-2
		c6.4-4.2,11.4-10.1,14.6-17c3.7,5.2,3.7,5.2,3.7,5.2c5.9-2.5,5.9-2.5,5.9-2.5c0.2-8.9,0.2-8.9,0.2-8.9c1,2.7,1.5,5.7,1.5,8.9l0,0
		l0,0l0,0l0,0c0,0.2,0,0.2,0,0.2l0,0l0,0l0,0l0,0l0,0l0,0l0,0l0,0l0,0l0,0l0,0l0,0l0,0l0,0l0,0l0,0c0,1.5-0.2,3-0.5,4.4
		c-1.2-3.7-1.2-3.7-1.2-3.7c-5.9,2.5-5.9,2.5-5.9,2.5C54,52.1,54,52.1,54,52.1c0,8.1,0,8.1,0,8.1c2.5-0.7,2.5-0.7,2.5-0.7
		C53.3,62.2,49.4,64.2,45.2,65.4 M63.2,21.2c-3.5-3.5-3.5-3.5-3.5-3.5c0-0.5,0-0.7,0-1c1,1,1,1,1,1C61.4,18.7,62.4,20,63.2,21.2"/>
</g>
</svg>
