<?xml version="1.0" encoding="utf-8"?>
<!-- Generator: Adobe Illustrator 16.0.0, SVG Export Plug-In . SVG Version: 6.00 Build 0)  -->
<!DOCTYPE svg PUBLIC "-//W3C//DTD SVG 1.1//EN" "http://www.w3.org/Graphics/SVG/1.1/DTD/svg11.dtd">
<svg version="1.1" id="Layer_1" xmlns="http://www.w3.org/2000/svg" xmlns:xlink="http://www.w3.org/1999/xlink" x="0px" y="0px"
	 width="156px" height="211px" viewBox="0 0 156 211" enable-background="new 0 0 156 211" xml:space="preserve">
<g>
	<path fill="#387C33" d="M129.3,45.8c0-1.2,1.2-2.5,2.5-2.7c1.7-0.2,3.2-1.2,4.5-2.5c1.2-1.7,1.7-3.7,1.5-5.7
		c-0.2-1.2,0.2-2.5,1.5-3.2c0.5-0.5,1.2-1,1.7-1.5c2-2.2,2.5-5.2,1.2-7.5c-0.2-0.7-0.2-1.7,0-2.7c0.7-2.2,0.5-4.7-1.2-6.5l-0.2-0.2
		c-1.2-0.7-1.7-2-1.7-3.5c0-1.7-0.7-3.2-2-4.2c-2.2-1.7-5.7-1.2-8.5,1c0,0,0,0-0.2,0c-1,1-2.2,1.2-3,0.5c-0.2-0.2-0.5-0.5-0.7-0.7
		c-2.2-1.2-5.7-0.7-8.2,1.5c-1,1-1.7,2-2.5,3.2c-0.5,1.2-2,2.2-3.2,2.2c-2,0.2-4.2,1.5-6,3.5c-1.2,1.7-2,3.7-2,5.5
		c0,1.2-0.7,2.7-2.2,3.7c-1.2,0.5-2.2,1.5-3,2.7c-2,2.5-2.2,5.5-1.2,7.5c0.7,1.2,0.2,2.7-0.7,4c0,0.2-0.2,0.2-0.5,0.5
		C93.5,43,93.2,46,94.2,48c0.7,1,0.5,2.5-0.5,3.7c-0.2,0.7-0.7,1.2-1,2c-1.2,3,1,11.2,0.2,17.5c6.5-5.7,13.2-6.7,14.9-9.2
		c0.5-0.5,0.7-1,1-1.7c0.7-1.2,2-2,3.2-2c2.2,0,4.5-1.2,6-3.5c0-0.2,0.2-0.5,0.2-0.7c0.7-1,2-2,3.2-1.7c2.2,0.2,4.7-1,6.2-3.2
		C128.6,48,129.1,47,129.3,45.8"/>
	<path fill="#2D602A" d="M128.3,19.3c-21.4,23-38.1,50.4-48.8,80.1c1.2,0.5,2.5,0.7,3.7,1.2C92.5,71,107.7,43.3,128.3,19.3"/>
	<path fill="#56A438" d="M131.6,70.7c0.5-1.2,2-2.2,3.2-2.2c1.7,0,3.5-0.5,4.7-1.7c1.7-1.2,2.7-3.2,2.7-5c0-1.2,1-2.5,2.2-3
		c0.7-0.2,1.5-0.7,2-1c2.5-2,3.5-4.7,3-7c-0.2-1,0-2,0.5-3c1.2-2,1.5-4.5,0.2-6.5L150,41c-1-1-1.2-2.5-1-4c0.2-1.5,0-3-1-4.2
		c-1.7-2.2-5.5-2.5-8.7-1c0,0.3,0,0.3,0,0.3c-1.2,0.5-2.5,0.5-3.2-0.3c0-0.2-0.2-0.5-0.5-0.7c-2-1.7-5.2-2-8.2-0.2
		c-1.2,0.5-2.2,1.5-3,2.5c-1,1.2-2.5,2-4,1.7c-2-0.2-4.5,0.5-6.5,2c-1.7,1.5-2.7,3.2-3,5c-0.5,1.2-1.5,2.7-3,3.2
		c-1.2,0.2-2.5,1-3.7,2c-2.2,2-3.2,5-2.7,7.2c0.5,1.2-0.2,2.7-1.5,3.7c-0.2,0-0.5,0.2-0.5,0.5c-2.2,2-3,4.7-2.5,7
		c0.5,1.2,0,2.7-1.2,3.7c-0.5,0.5-1,1-1.5,1.5c-1.7,2.7-1.5,11.2-3.5,17.2c7.5-4.2,14.4-4,16.7-6c0.5-0.5,1-1,1.2-1.5
		c1-1,2.2-1.7,3.5-1.5c2.2,0.5,4.7-0.2,6.7-2c0.2-0.3,0.2-0.5,0.5-0.7c0.7-1,2.2-1.5,3.5-1c2.2,0.5,4.7,0,6.7-1.7
		C130.6,72.7,131.3,71.7,131.6,70.7"/>
	<path fill="#449C39" d="M149.5,50.8c-0.2-1,0-2,0.5-3c1.2-2,1.5-4.5,0.2-6.5L150,41c-0.2-0.2-0.5-0.5-0.5-0.7
		c-0.2,0-1.2,8.5-3.7,10.2c-0.7,0.5-1.5,0.7-2.2,1c-1.2,0.5-2,1.7-2,3c-0.2,2-1,3.7-2.7,5.2c-1.5,1.2-3.2,1.7-4.7,1.7
		s-2.7,0.7-3.2,2c-0.5,1.2-1,2.2-2,3c-2,1.7-4.7,2.5-7,1.7c-1.2-0.5-2.5,0.3-3.5,1.2c0,0.2-0.2,0.2-0.5,0.5c-1.7,2-4.2,2.7-6.5,2.2
		c-1.2-0.2-2.7,0.2-3.5,1.5c-0.5,0.5-0.7,1-1.5,1.5c-2,1.5-3.7,2.5-10.2,5.5c-0.2,3-4.5,5-5.5,7.5c7.5-4.2,14.4-4,16.7-6
		c0.5-0.5,1-1,1.2-1.5c1-1,2.2-1.7,3.5-1.5c2.2,0.5,4.7-0.2,6.7-2c0.2-0.3,0.2-0.5,0.5-0.7c0.7-1,2.2-1.5,3.5-1
		c2.2,0.5,4.7,0,6.7-1.7c1-1,1.7-2,2-3c0.5-1.2,2-2.2,3.2-2.2c1.7,0,3.5-0.5,4.7-1.7c1.7-1.2,2.7-3.2,2.7-5c0-1.2,1-2.5,2.2-3
		c0.7-0.2,1.5-0.7,2-1C149,55.8,150,53,149.5,50.8"/>
	<path fill="#387C33" d="M136.5,44.5C110.4,62.7,88.3,86,71.6,113.2c1.2,0.5,2.2,1.2,3.5,1.7C90.3,87.7,111.2,63.7,136.5,44.5"/>
	<path fill="#56A438" d="M65.6,44c0,2.5,1.5,4.7,3.7,5.7c1,0.5,1.5,2,1.5,3.2c0,0.2,0,0.5,0,0.7c0,2.5,1.2,5,3.2,6
		c1,0.7,1.5,2,1.2,3.5c0,0.5,0,1.2,0,2c0.2,2.7,5.5,7.2,7.7,15.5c2.7-5.5,9.2-11.5,9.7-14.7c0.2-0.7,0.2-1.5,0.2-2.2
		c-0.2-1.5,0.5-2.7,1.7-3.5c1.7-1,3.2-3.5,3.2-6.5c0-0.2,0-0.5,0-0.7c-0.2-1.5,0.2-3,1.5-3.7c2-1.2,3.5-4,3.2-7c0-1.5-0.5-3-1-4
		c-0.7-1.2-0.7-3,0-4.2c1-1.5,1.5-3.5,1.2-5.7c-0.2-2.5-1.5-4.7-3-5.7c-1.2-1-2-2.5-1.7-4c0.2-1.2,0.2-2.5-0.2-4c-1-3-3.5-5.2-6-5.2
		c-0.5,0-0.7,0-1,0.2c-1,0-2.2-0.7-2.5-2c0-0.3,0-0.3,0-0.3c-1-3.2-4-5.5-6.7-5.2c-1.7,0.3-3,1.2-4,2.5c-0.7,1.2-2,2-3.5,2.2
		c0,0-0.2,0-0.5,0c-2.2,0.5-4,2.5-4.5,4.7c-0.2,1-0.7,2-1.5,2.5c-2.2,1.2-3.5,4-3,7c0,0.7,0.5,1.5,0.7,2.2c0.5,1,0.2,2.5-0.5,3.5
		c-1.2,1.2-2,3.2-1.7,5.5c0,1.7,1,3.5,2,4.5c1,1,1.5,2.5,0.7,3.7C65.6,41.5,65.4,42.8,65.6,44"/>
	<path fill="#449C39" d="M98,53.8c0-0.2,0-0.5,0-0.7c-0.2-1.5,0.2-3,1.5-3.7c2-1.2,3.5-4,3.2-7c0-1.5-0.5-3-1-4
		c-0.7-1.2-0.7-3,0-4.2c1-1.5,1.5-3.5,1.2-5.7c-0.2-2.5-1.5-4.7-3-5.7c-1.2-1-1.5,13.7-1.5,15.2c0.2,3.2-1.2,6-3.2,7.2
		c-1,0.5-1.7,2-1.5,3.5c0,0.2,0,0.5,0,0.7c0,3-1.2,5.5-3.2,6.7c-1.2,0.7-2,2-1.7,3.5c0,0.7,0,1.5-0.2,2.2c-0.2,2.7-2,4.7-5,9.7
		c1,1.7-1.2,6.7-0.5,9.2c2.7-5.5,9.2-11.5,9.7-14.7c0.2-0.7,0.2-1.5,0.2-2.2c-0.2-1.5,0.5-2.7,1.7-3.5C96.5,59.2,98,56.8,98,53.8"/>
	<path fill="#449C39" d="M86.8,5.1c0.2,0,0.5,0,0.5,0c-0.7-1.2-2-2.2-3.2-2.7c0,0.2,0.2,0.5,0.2,0.7l0,0C84.8,4.3,85.8,5.3,86.8,5.1
		"/>
	<path fill="#449C39" d="M66.1,46.5c0,0.2,0.2,0.2,0.2,0.5C66.4,46.8,66.4,46.8,66.1,46.5"/>
	<path fill="#387C33" d="M81.6,18.3c5.5,30.7,4.7,62.4-2.7,93.1c-1.2-0.2-2.5-0.5-3.7-0.7C83.5,80.7,85.8,49.3,81.6,18.3"/>
	<path fill="#D61C2D" d="M125.8,157.3c11.4-30.4-10.2-53.9-43.3-65.9c-33.3-12-65.7-7.5-77.1,22.7C-4,139.6,6.9,167.3,30.1,183
		c8.2,5.7,5.5,21-5.5,24.7c15.9,2.7,23.1-12.7,41.8-13C92.5,194.3,116.9,181,125.8,157.3"/>
	<path fill="#C61D2B" d="M30.1,183c8.2,5.7,5.5,21-5.5,24.7c15.9,2.7,23.1-12.7,41.8-13c26.1-0.5,50.5-13.7,59.5-37.4
		c6.5-17.2,2.5-32.2-8.5-44.2c5.5,26.2-27.1,75.9-99.5,59.4C21.4,176.6,25.6,180,30.1,183"/>
	<path fill="#B31A32" d="M125.8,157.3c2.7-7,3.5-13.5,3-19.7c-0.5,1.7-14.7,45.2-68.4,57.7l0,0c2-0.2,4-0.5,6-0.5
		C92.5,194.3,116.9,181,125.8,157.3"/>
	<path fill="#F46F73" d="M34.8,115.7c-6.5,7.7-14.7,11.2-18.9,8c-4-3-2.2-12,4-19.5c6.2-7.7,14.7-11.2,18.7-8
		C42.7,99.4,41,108.2,34.8,115.7"/>
</g>
</svg>
