<?xml version="1.0" encoding="utf-8"?>
<!-- Generator: Adobe Illustrator 16.0.0, SVG Export Plug-In . SVG Version: 6.00 Build 0)  -->
<!DOCTYPE svg PUBLIC "-//W3C//DTD SVG 1.1//EN" "http://www.w3.org/Graphics/SVG/1.1/DTD/svg11.dtd">
<svg version="1.1" id="Layer_1" xmlns="http://www.w3.org/2000/svg" xmlns:xlink="http://www.w3.org/1999/xlink" x="0px" y="0px"
	 width="240px" height="159px" viewBox="180.1 342.5 240 159" enable-background="new 180.1 342.5 240 159" xml:space="preserve">
<g>
	<path fill="#F0F0EF" d="M321.5,345.9c34.5,0,63,26.8,65.3,60.8c15.8,3.8,27.5,17.8,27.5,34.5c0,19.8-16,35.8-35.8,35.8
		c-1,0-2,0-3-0.3c-8.3,8.3-19.8,13.5-32.5,13.5c-6.8,0-13.3-1.5-19.3-4.3c-8,7-18.8,11.3-30.3,11.3c-16,0-30-8-38.3-20.3
		c-14-0.3-26.5-6.8-34.5-17c-3,1.3-6.5,1.8-9.8,1.8c-16.5,0-30-13.3-30-29.8s13.5-30,30-30c3.3,0,6.8,0.8,9.8,1.8
		c8.3-10.3,21-17,35.3-17c1.5,0,3,0.3,4.5,0.3C270.3,362.9,293.8,345.9,321.5,345.9"/>
	<path fill="#F8F8F8" d="M264.5,419.9c1.3-8.3,7.8-15.3,15.8-17c8-1.7,17,2,21.8,8.8c-6.3-3-13-3-19.8-1.8
		C275.5,411.1,269.3,414.9,264.5,419.9"/>
	<path fill="#DBDAD8" d="M337.8,460.9c-3.5,7.5-12,12.5-20.3,11.8c-8.3-0.7-15.8-6.8-18-14.8c5,4.8,11.5,6.8,18.3,7.5
		C324.6,466.1,331.8,464.4,337.8,460.9"/>
	<path fill="#DBDAD8" d="M270.8,457.9c-2.5,5.3-8.5,8.5-14,8c-5.8-0.3-11-4.8-12.8-10.3c3.5,3.3,8,4.8,12.8,5.3
		C261.6,461.4,266.5,460.1,270.8,457.9"/>
	<path fill="#F8F8F8" d="M289.5,354.1c9.5-5.3,20.3-8.3,32-8.3c34.5,0,63,26.8,65.3,60.8c9.5,2.3,17.3,8,22.3,16
		c-7.8-7.8-19.5-11.5-30.3-9c0.5-23.8-14.5-46.5-35.8-56.5C326.5,349.1,307,348.4,289.5,354.1"/>
	<path fill="#F8F8F8" d="M186.3,414.9c5.3-7.8,14.5-13,24.8-13c3.3,0,6.8,0.8,9.8,1.8c8.3-10.3,21-17,35.3-17c1,0,2.3,0.3,3.3,0.3
		c10,4,18.8,11.5,24,21c-6.5-9-18.5-11-29.5-9.8c-11,1-21,6.5-30,13c-2-4-6.5-4.8-11-5.3C203.3,405.1,193.5,408.6,186.3,414.9"/>
	<path fill="#DBDAD8" d="M223,462.4c11.8,4,24.5,3.5,36.5-0.3c4.5,11.5,15.8,20,28,21c12,1.3,23.8-4.3,30.3-14.5
		c8,9.5,21,14.5,33.5,12.8c12.3-1.8,24.8-9,29.8-20.5c-1,5.5-3,10.8-5.3,15.8h-0.3c-8.3,8.3-19.8,13.5-32.5,13.5
		c-6.8,0-13.3-1.5-19.3-4.3c-8,7-18.8,11.3-30.3,11.3c-16,0-30-8-38.3-20.3C242.5,476.6,231,471.1,223,462.4"/>
</g>
</svg>
