<?xml version="1.0" encoding="utf-8"?>
<!-- Generator: Adobe Illustrator 16.0.0, SVG Export Plug-In . SVG Version: 6.00 Build 0)  -->
<!DOCTYPE svg PUBLIC "-//W3C//DTD SVG 1.1//EN" "http://www.w3.org/Graphics/SVG/1.1/DTD/svg11.dtd">
<svg version="1.1" id="Layer_1" xmlns="http://www.w3.org/2000/svg" xmlns:xlink="http://www.w3.org/1999/xlink" x="0px" y="0px"
	 width="248px" height="207px" viewBox="0 0 248 207" enable-background="new 0 0 248 207" xml:space="preserve">
<g>
	<path fill="#B86228" d="M163.9,31.7c-0.3,5.5-1.3,10.8-2,16c-0.5,4.5-1.3,11-6,13.3c-1.5,1-3.5,0.5-4.5-1c-2.5-4.3-0.8-10.5,0-15
		c1.3-5.8,2.5-11.3,6.5-15.8C159.9,26.9,164.1,28.7,163.9,31.7L163.9,31.7z"/>
	<path fill="#B86228" d="M179.1,60.7c-4.3,2.3-10.3,0.5-14.8,0.3c-5.3-0.3-12.8,1.5-17.3-1.3c-3.5-2-4-6.8-1.3-9.5
		c4.8-4.8,14.3-2.8,20.3-2c5,0.8,13.5,2.5,14.8,8.3C181.1,58.2,180.9,59.9,179.1,60.7L179.1,60.7z"/>
	<path fill="#B86228" d="M25.1,78.2c5.5,6.3,9.3,13.3,12.8,20.8c3.5,7.2,8,16.7,6.5,25c-0.8,3.8-5.5,3.3-7.5,1
		c-2-3-3.3-6.8-4.5-10.3c-1.5-3.8-3-7.8-4.8-11.5c-3-7-6.8-13.8-8.8-21.3C17.9,78.4,22.6,75.4,25.1,78.2L25.1,78.2z"/>
	<path fill="#B86228" d="M13.1,122.7c4,3.3,6,9.5,8,14.3s5.8,10.5,4.3,15.8c-0.8,2.8-3.8,4-6.3,2.8c-4.8-2.8-6.3-9.5-7.8-14.3
		c-1.8-5.3-3.8-12.3-1.8-17.8C10.1,121.9,11.9,121.4,13.1,122.7L13.1,122.7z"/>
	<path fill="#B86228" d="M15.6,87.7c5.5,7.5,8.3,16.8,11.8,25.2c2,4.5,3.5,9.3,5,14c1.5,4.5,3.3,9.3,2.8,14c-0.3,3.3-4.8,6.3-7.3,3
		c-5.8-7.3-7.8-18-10.8-26.8s-7-18.5-7.5-27.7C9.4,85.7,13.9,85.2,15.6,87.7L15.6,87.7z"/>
	<path fill="#B86228" d="M5.9,124.4c3.3-0.8,6.5-1.8,9.8-2.5s6.5-1.3,10-1.8c6.8-0.8,14.3-2.5,21-1.5c5.3,0.8,5.5,8.5,1.5,10.8
		c-5.5,3-13.3,3-19.5,3.3c-3.5,0-6.8-0.3-10.3-0.5c-3.8-0.3-7.8-1-11.5-1.3C3.4,130.7,2.1,125.4,5.9,124.4L5.9,124.4z"/>
	<path fill="#B86228" d="M10.9,154.7c5.5-9,17.5-10,27-8.5c9.8,1.3,20.5,5,27.8,11.5c3.3,2.8,0.8,9-3.5,8.8
		c-8.8-0.8-17-4.8-25.3-6.8c-3.8-1-7.8-1.5-11.5-1.3c-4.5,0.3-7.8,1.3-11.3,1.5C11.4,160.2,9.6,156.7,10.9,154.7L10.9,154.7z"/>
	<path fill="#B86228" d="M32.6,178.7c5-6.3,14-8.8,21.3-11c6.8-2,17.5-6.8,23.8-1.8c1.3,1,2,3.5,1.5,5c-2.8,7.5-13.5,8.3-20.3,9.8
		c-7.5,1.8-15.3,5-23.3,5.3C31.6,185.9,30.4,181.4,32.6,178.7L32.6,178.7z"/>
	<path fill="#B86228" d="M49.4,189.2c0.3-0.5,0.5-1,0.8-1.5c0,0.3,0,0.5-0.3,1c0-1,0.3-1.8,0.8-2.5c0.8-1.5,2.5-2.8,4-3.8
		c3-2.3,6.3-4.5,9.5-6.5c5.5-3.3,18-11.8,24-6c7.3,7-11.5,13.5-15.5,15.5c-3.8,1.5-7.3,3.3-11,5c-1.5,0.8-3.3,1.8-5,2.3
		c-1,0.5-2,0.8-3.3,0.3c1.5,0.5-0.3,0.3-1,0C50.6,192.9,48.9,191.2,49.4,189.2L49.4,189.2z"/>
	<path fill="#B86228" d="M71.1,190.2c5-7.5,12.3-13.3,20.5-17c3.8-2,8.3-3.5,12.5-4.3c3.8-0.5,11.8-1.8,14,2.8
		c4,9-11.3,10-16.8,11.5c-8.8,2.8-16.3,8.3-23.8,13.3C73.6,198.9,68.6,193.9,71.1,190.2L71.1,190.2z"/>
	<path fill="#B86228" d="M97.4,191.9c2.8-3,5.3-5.8,8.3-8.5c3.5-3,6.3-6.8,10.5-8.3c4-1.5,7.3,2.8,6.5,6.3c-1.3,4.8-5.3,7.5-9,10.3
		c-3.5,2.8-7.3,4.5-11.3,6.8S94.4,195.4,97.4,191.9L97.4,191.9z"/>
	<path fill="#B86228" d="M116.9,195.2c0.5-2.5-0.5-5.5-1-8c-0.8-3-2.3-6-3.8-8.8c-3-5.5-7.5-9.3-11.5-14c-3.5-4.5-0.3-10.5,5.5-9.5
		c8.8,1.8,14.3,12.3,17.5,19.8c3.3,8,4,16.8-2,23.3C119.6,200.2,116.4,197.9,116.9,195.2L116.9,195.2z"/>
	<path fill="#B86228" d="M139.4,198.9c-7.3-9.8-15.5-19-25-26.3c-4.8-3.5-10-6.5-15.3-9c-4.3-2-13-6.5-7.5-12
		c4.3-4.3,12.8,0.3,16.8,2.8c5.8,3,11,7.3,15.7,11.5c9.3,8.3,17.8,18.5,21.5,30.5C146.6,200.2,141.6,201.7,139.4,198.9L139.4,198.9z
		"/>
	<path fill="#B86228" d="M138.1,199.7c-0.3-7.3,1.3-14.3,2-21.3c0.3-3.5-0.3-6.8-0.5-10.3c-0.3-3.8,0-8.8,5-9c9.5-0.5,8.8,14,8,19.8
		c-1.3,7.8-4,14.5-6.3,21.8C145.1,205.4,138.1,204.4,138.1,199.7L138.1,199.7z"/>
	<path fill="#B86228" d="M159.4,193.9c2.3-7.5,5-14.3,8.5-21.5c1.5-3.5,3.5-6.8,5.5-10c1.8-2.8,3.5-5.3,6.8-6c0.8,0,1.8,0,2.3,0.8
		c4.8,5.5-0.3,15-3,20.5c-4,7.3-8.8,13.3-14.3,19.8C162.9,200.2,158.1,197.2,159.4,193.9L159.4,193.9z"/>
	<path fill="#B86228" d="M177.9,185.2c-0.3-1-1-2.3-1.3-3.5c-0.3-1.5-0.3-3-0.5-4.8c-0.8-3.3-1.3-6.5-2.3-9.8
		c-1.3-4.5-6.8-16.3,2-16.5c7.3-0.3,10,10,10.8,15.5c0.5,3.5,1,7.3,0.5,10.8c-0.3,1.8-0.5,3.3-1,4.8c-0.5,2.3-1.8,3.3-3,5
		C181.6,189.4,178.1,187.9,177.9,185.2L177.9,185.2z"/>
	<path fill="#B86228" d="M188.6,180.9c-3-6.3-5.3-12.8-8-19.3c-1.8-3.5-10.3-16.5-2.3-18.5c8-1.8,11.5,9.8,13.5,15.3
		c2.8,6.8,4.3,14.5,3,21.8C194.4,182.9,189.6,183.7,188.6,180.9L188.6,180.9z"/>
	<path fill="#B86228" d="M234.6,141.4c-1.5,5-10,6.5-14.5,8c-5.8,2-12.8,6-19,4.3c-2.8-0.8-4.5-4.3-2.8-6.8c4-6.3,13.3-7.5,20-9.3
		C221.1,137.2,236.9,134.7,234.6,141.4L234.6,141.4z"/>
	<path fill="#D17D39" d="M60.4,54.2c-0.8,3.8-2.5,7.3-4,10.5c-1.5,4-2.8,8-5.3,11.5c-2.8,3.5-9.3,3-9.3-2.5c0.3-8,6-19.5,13.8-23.3
		C58.1,49.2,61.1,51.2,60.4,54.2L60.4,54.2z"/>
	<path fill="#D17D39" d="M149.9,48.2c5.8-1,9.8,1,14.3,4.5c4,3,9.3,9.5,7,15c-0.8,2-2.5,3-4.8,2.5c-4-1-6.3-5.3-9-8
		c-2.8-3.3-6-6-8.8-9.3C147.4,51.4,147.6,48.7,149.9,48.2L149.9,48.2z"/>
	<path fill="#D17D39" d="M182.9,188.2c-3.8,2.5-8.5,0.3-12.5-0.8c-5-1.8-9.8-4.3-14.5-6.8c-4.3-2.3-8.5-5-12.8-7.5
		c-4.8-2.8-9.3-5.3-13-9.3c-3-3,0-6.8,3.5-6.3c9.8,1.3,18.3,8.3,26.5,13.3c4.3,2.5,8.5,5,12.8,7.3c3.5,1.8,9,3.5,10.8,7.3
		C183.9,186.4,183.9,187.4,182.9,188.2L182.9,188.2z"/>
	<path fill="#D17D39" d="M162.1,201.9c-4.3-0.8-7.5-3.3-11-5.8c-4-2.5-7.5-5.8-11.3-8.8s-7.8-5.8-11.8-8.5s-8.2-5.3-11.5-8.8
		c-2-2.5-0.8-7.5,3-7c9.7,1.3,17.5,8.3,24.5,14.3c3.8,3.3,7.3,6.5,10.8,9.8s7.8,6.8,10,11.3C165.9,200.4,164.1,202.4,162.1,201.9
		L162.1,201.9z"/>
	<path fill="#D17D39" d="M114.6,195.9c6.8-7.3,14.5-13.8,21.7-20.5c7-6.5,15.8-15.8,25.5-17c2.5-0.5,4.8,1.8,3.5,4.3
		c-2.3,4.3-6.3,8-9.5,11.5c-3.8,3.8-7.8,7.3-11.5,11c-7.5,6.8-16.3,14.3-26.2,16.8C114.6,202.7,112.1,198.4,114.6,195.9L114.6,195.9
		z"/>
	<path fill="#D17D39" d="M132.9,203.4c-5.5-1-11-6.3-15.7-9c-5.3-3.5-11-6.3-16.5-9.5c-10.8-6-25-12.3-30.3-24
		c-1.3-3,0.8-7.5,4.8-6.3c6.3,2.3,11.3,5.8,16.8,9.3c5.3,3.8,10.8,7,16.5,10.5c5.3,3.3,10.8,6.5,16,10.3c4.8,3.5,11.8,7.8,13.5,13.8
		C138.6,201.7,135.9,203.9,132.9,203.4L132.9,203.4z"/>
	<path fill="#D17D39" d="M102.1,198.2c-8.8-2.3-16-10-22.3-16c-3.5-3.3-7-6-10.5-9s-8.5-5.5-10.8-10c-1-2-0.3-5.3,2.3-5.8
		c9.8-1.8,19,8.5,25,15c3.5,3.5,6.8,7.3,10,11.3c3,3.5,6.5,7,8.8,11.3C105.6,196.7,104.1,198.7,102.1,198.2L102.1,198.2z"/>
	<path fill="#D17D39" d="M81.6,195.4c-3.8,1.3-7.8-2.5-10.5-4.5c-4.5-3.5-8.8-6.5-13-10c-3.8-3.3-7.5-6.5-11.5-9.5
		c-4-3.3-8.3-6.5-10.3-11.5c-1-2.5,1.5-5.8,4-5.5c5,0.8,8.8,3.5,12.5,6.5c4.5,3.3,8.5,7,12.5,10.8c4,3.5,7.8,7.5,11.5,11.5
		c2.8,2.8,7,6.8,6.3,11C82.9,194.7,82.4,195.2,81.6,195.4L81.6,195.4z"/>
	<path fill="#D17D39" d="M41.4,182.7c-3-7.3-6-14.5-9.8-21.5c-3.5-7-8.5-14-10.5-21.8c-1-3.3,2.8-6,5.8-4.3c7.5,4,12,12.3,15.3,19.8
		c3.8,8.8,6.3,17.3,7.3,26.8C49.9,186.4,42.9,186.7,41.4,182.7L41.4,182.7z"/>
	<path fill="#D17D39" d="M18.9,168.2c-1.3-7.5,4-15.8,6.5-22.5c1.3-4,2.5-8.3,3.5-12.5c0.8-3.8,1.3-7.8,3-11.5
		c1.3-2.3,5.3-3,7.3-0.8c5.8,7.3,2.8,17.8-0.5,25.8c-1.8,4.5-3.8,9-6.3,13.5c-2,3.8-4.3,8-8,10.3C22.4,171.4,19.4,170.7,18.9,168.2
		L18.9,168.2z"/>
	<path fill="#D17D39" d="M8.6,107.7c6.3,3.5,12.5,7,18.8,10.3c6.5,3.8,14.8,7,19.5,13c2.5,3,0.3,7.3-4,6.8
		c-7.5-1.5-14.8-6.5-21-10.3c-6.8-4-13.5-8.5-18.3-14.8C1.4,109.7,5.9,106.2,8.6,107.7L8.6,107.7z"/>
	<path fill="#D17D39" d="M7.4,136.4c4.3-2.3,9.5-0.8,14,0.5c4.8,1.5,9.5,3.5,14.3,5.5s9.3,4,14,6s9.8,4.3,14,7.8c2,1.8,1,6-1.8,6.5
		c-10,1.8-20-4-28.8-8c-4.5-2-9-4.3-13.5-6c-4.8-2-10.5-3-13.5-7.3C4.9,139.9,5.9,137.4,7.4,136.4L7.4,136.4z"/>
	<path fill="#D17D39" d="M28.1,170.4c2.8-3.3,8.3-4.5,12.3-5.8c5.3-1.5,10.3-2.8,15.5-3.8c7.8-1.5,22.8-4,26.8,5.3
		c0.5,1.3-0.3,3-1,3.8c-3,2.8-7.5,2.8-11.3,2.8c-4.5,0-9.3,0.3-13.8,1c-5,0.8-9.8,1.8-14.5,2.8c-4.3,1-9.3,2-13.3,0
		C26.4,175.4,26.6,172.4,28.1,170.4L28.1,170.4z"/>
	<path fill="#D17D39" d="M55.9,181.9c1.3-5.8,9.8-9.3,14.5-11.3c5.5-2.3,13.3-6.8,19.3-3.8c1.8,0.8,2.8,3.3,2,5.3
		c-2,6-10,7.5-15.5,9.3c-2.8,0.8-5.5,1.8-8.5,2.8c-3,1.3-5.5,2.8-9,2.3C56.4,186.2,55.6,183.7,55.9,181.9L55.9,181.9z"/>
	<path fill="#D17D39" d="M82.1,187.7c2.3-7.3,6.8-14,10.8-20.5c2.8-4.5,8.5-17.3,15.5-13.3c7.5,4.5-1,15.5-4,20
		c-4.5,6.8-9.5,13.8-16.3,18.3C85.1,194.2,81.1,190.9,82.1,187.7L82.1,187.7z"/>
	<path fill="#D17D39" d="M107.6,192.2c0.5,1.5-1-1.3-1-1.3c-0.5-1-0.8-1.8-1-2.8c-1-2-2.3-4-3.5-6c-3-4.3-6.8-7.8-10.5-11.3
		c-4-3.8-8.3-7.3-12.3-10.8c-4-3.3-6.8-6.5-9.3-11c-2.5-4.3,2.3-8,6.3-6.3c2,0.8,4.3,1.5,6,2.8c2.5,1.8,5,3.8,7.3,5.8
		c4.5,3.8,8.8,7.8,12.8,12.3c3.8,4,7.3,8.8,10,13.8c2.5,5,3.3,9.5,2.5,14.8C114.1,196.2,108.6,195.4,107.6,192.2L107.6,192.2z"/>
	<path fill="#D17D39" d="M115.1,185.2c-1-2.5,0-5.8,0-8.5c0.3-3.8,0.5-7.5,0.3-11.3c0-3.5-0.8-7-1.8-10.5c-1-4-2.8-7.5-0.8-11.5
		c0.8-1.8,2.8-2.5,4.8-2.8c10.7-0.5,12,17.5,12,24.8c0,4.5-1,10.3-3,14.3c-2,3.3-4.7,8-9,7.5C116.4,187.2,115.6,186.4,115.1,185.2
		L115.1,185.2z"/>
	<path fill="#D17D39" d="M127.9,186.2c-1.8-7.8-2-15.5-2.3-23.5c-0.3-4-1-7.5-1.8-11.3c-1-4-3-7.5-3.2-11.8c-0.3-4,4.2-6,7.5-4.3
		c8.3,4.3,10,16.3,10.5,24.5c0.5,9-1.3,17.8-3.5,26.3C134.4,189.9,128.6,189.9,127.9,186.2L127.9,186.2z"/>
	<path fill="#D17D39" d="M151.4,189.2c-3-1.5-3.8-7-4.5-10c-1-4.3-2.5-8.8-4.5-12.8c-1.8-4-3.8-8-6.3-11.5c-2.3-3.3-5-6.3-7.3-9.8
		c-2.5-4.3,1.8-8.5,6-7.8c10.8,2,16.8,15.8,19.8,25c1.8,5.3,2.8,10.8,3.3,16.3C158.1,182.2,157.4,192.2,151.4,189.2L151.4,189.2z"/>
	<path fill="#D17D39" d="M170.6,179.9c-1-4.8-2.3-9.8-3.5-14.5c-1.3-4.5-4.8-10.3-3.5-14.8c0.8-2.3,2.8-3.3,5-2.8
		c5.5,1,8,8.5,9.3,13.3c1.8,6.5,1,12.8-1.5,18.8C175.4,182.4,171.1,183.4,170.6,179.9L170.6,179.9z"/>
	<path fill="#D17D39" d="M197.6,178.7c-3.3-6.3-5.3-13-7.8-19.8c-1-3.3-2.3-6.3-3.5-9.3c-1.3-3.3-3.3-6.5-3-10s3.5-5.5,6.8-4
		c6,3.3,8.3,12.8,10.3,18.8c2.5,7.3,4.3,14.8,4.5,22.5C205.1,180.7,199.4,182.2,197.6,178.7L197.6,178.7z"/>
	<path fill="#D17D39" d="M242.4,105.4c0.8-0.5-0.8,0.8-1,1c-0.5,0.5-1.3,1-1.8,1.5c-1.3,1.3-2.5,2.3-3.8,3.5c-2.5,2.5-5.3,5-8,7.3
		c-6,4.8-16.5,10.3-23.5,4.5c-1.8-1.3-1.8-4.3,0-5.5c2.8-2.5,7-3,10.5-4.5c3-1.3,5.8-3.3,8.5-5.3c2.5-2,5-4,7.5-5.7
		c1.5-1,3.3-1.8,4.8-2.5c1-0.3,2-0.5,2.8-0.5c0.3,0,2.8-0.3,1.3,0C243.4,98.7,245.9,103.4,242.4,105.4L242.4,105.4z"/>
	<path fill="#D17D39" d="M212.4,164.9c0-4.3-0.8-8.5-0.5-12.8c0.5-5.3,0.8-10.3,0.5-15.5c0-4.3-0.5-8.5-1.5-12.5
		c-1.3-4.5-3-11,3.5-11.8c4.8-0.8,8,5.3,9.5,9c1.8,4.8,1.8,10.3,1.8,15.3c-0.3,5.3-1.3,10.8-2.3,16c-0.8,2.5-1.3,5-2.3,7.3
		c-0.8,2-2,3.8-2.8,5.8C217.1,168.7,212.4,168.4,212.4,164.9L212.4,164.9z"/>
	<path fill="#D17D39" d="M230.4,145.2c-6.5-4.5-9.5-14.5-12-21.5c-2.3-6.5-7-18.5-0.3-23.5c3.5-2.8,7.3,2,8.3,4.8
		c1.8,4,2.8,8.2,3.5,12.5c1,4.3,2,8.5,3.3,12.5c1,4,3,8.3,2.8,12.3C235.6,144.7,232.9,146.9,230.4,145.2L230.4,145.2z"/>
	<path fill="#D17D39" d="M228.6,155.9c-10,0.8-19.5-2.3-28.8-6c-4.5-1.5-9.3-3.3-13.8-4.5c-5-1.3-10.3-1.5-15.5-2.3
		c-6.3-1.3-5.3-10.3,0-12c10.5-3,21.5,1.5,30.8,5.5c9.5,4,18.5,8.5,28.5,11C234.6,148.7,233.1,155.4,228.6,155.9L228.6,155.9z"/>
	<path fill="#D17D39" d="M208.1,163.9c-6.8,2-13.8,1.3-20.8,0.8c-3.8-0.5-7.5-0.8-11.3-1c-4,0-7.8,0.3-11.3-1.5
		c-3-1.5-3.8-6.5-1-8.8c5.8-5,15.3-3.3,22.5-2.3s14.8,2.8,21.8,4.8C212.1,157.2,212.1,162.9,208.1,163.9L208.1,163.9z"/>
	<path fill="#D17D39" d="M191.4,174.2c-7.8,0.3-14.5-2.3-21.5-5.5c-3.3-1.5-6.8-3.3-10.3-4.5c-3.3-1.5-7-2-10.5-3.5
		c-5.8-2.5-4.8-10.3,1.5-10.8c7.5-1,15.3,3.8,21.8,7c6.5,3.5,13,7.8,20,10.8C195.9,168.9,195.6,174.2,191.4,174.2L191.4,174.2z"/>
	<path fill="#D17D39" d="M159.6,172.7c-2-5-0.8-11-0.8-16.3c0-3-0.3-6.3-0.5-9.3c-0.5-3-1.3-6.3-0.3-9.3c1.3-3,4.5-4.8,7.5-3
		c6.3,3.8,6.5,13.8,6.3,20.3s-1.3,16.3-8.3,19C162.4,174.7,160.4,173.9,159.6,172.7L159.6,172.7z"/>
	<path fill="#D17D39" d="M143.6,177.9c-1.3-6.5-0.8-13,0.3-19.5c0.8-5.8,2.3-15.8,9.3-17.3c2-0.5,4.3,0.3,5.3,2.3
		c2.5,5-0.8,11.8-2,17c-1.5,6.3-2.5,12.8-6,18.3C148.6,181.2,144.1,181.2,143.6,177.9L143.6,177.9z"/>
	<path fill="#D17D39" d="M95.9,180.9c-2.8-0.5-5.3-2.8-7.5-4.5c-3-2.5-6-4.8-9-7.5c-5-4.5-12.5-9.3-14.3-16.3c-1-3.3,2-5.8,5.3-5.3
		c6.8,1.3,12.5,8.5,17.3,13.3c2.3,2.5,4.5,5,6.8,7.8c2,2.8,4.8,5.5,5.3,8.8C100.1,179.7,98.4,181.4,95.9,180.9L95.9,180.9z"/>
	<path fill="#D17D39" d="M68.4,177.7c-2.5-4.3-3.3-9.3-4.3-13.8c-1.3-5.5-3.5-10.5-2.8-16.3c0.5-4.3,7.5-5.8,10-2.5
		c3.5,4.3,4.3,9.8,5,15.3c0.8,5.8,1.3,11.8-1.5,17.3C73.6,180.2,69.6,179.9,68.4,177.7L68.4,177.7z"/>
	<path fill="#D17D39" d="M27.4,151.9c1.8-4.5,5.8-7.5,9.5-10.5c3.8-2.8,9.3-6.3,14.3-5.8c3,0,5.5,3.3,3.5,6
		c-2.3,3.8-6.5,5.8-10.3,7.8c-4,2-8.3,5.3-12.5,6.8C29.4,157.2,26.4,154.4,27.4,151.9L27.4,151.9z"/>
	<path fill="#D17D39" d="M20.6,130.2c0.3-5.5,4.5-10.8,7.8-15c3.5-5,7-9.8,12-13.5c4.5-3.5,9.3,2.8,7,7c-2.5,5-6.3,9.3-10,13.5
		c-3.3,4-7.5,9.8-13,10.8C22.6,133.4,20.4,132.2,20.6,130.2L20.6,130.2z"/>
	<path fill="#D17D39" d="M63.1,37.2c0.5,3,0.3,5.8-0.3,8.8c-0.5,2.8-1.3,6.3-4,7.8c-1.8,0.8-3.3,0.3-4.3-1.3c-2-2.8-0.8-6,0.3-8.8
		c1.3-2.8,2.3-5.3,4.3-7.8C60.1,34.7,62.9,35.4,63.1,37.2L63.1,37.2z"/>
	<path fill="#D17D39" d="M45.6,50.4c-0.8,5-1.5,10.3-1.5,15.3s0,11.5-3.5,15.3c-1.8,1.8-4.5,1.3-5.8-0.5c-2.8-5-1.5-12.3-0.8-17.5
		c0.8-5.8,2.3-11,6.5-15.3C42.9,45.4,46.1,47.7,45.6,50.4L45.6,50.4z"/>
	<path fill="#D17D39" d="M17.1,101.9c0.3-4.8,4-8.5,7-11.8c3.5-4,8.3-7.8,14-8c3.3,0,6,4.3,4,7c-2.8,3.8-6.5,6.3-10,9.3
		c-3.3,2.8-6.8,6.5-11.5,7C18.9,105.7,16.9,103.7,17.1,101.9L17.1,101.9z"/>
	<path fill="#D17D39" d="M24.4,76.9c4-3.8,10-3.3,15-1.8c5,1.3,12.3,3.5,15.5,7.5c3,3.5,1.3,8.8-3.8,9s-9.5-3-13.8-5
		c-4.5-1.8-9.5-3-13-6.5C23.4,79.4,23.4,77.7,24.4,76.9L24.4,76.9z"/>
	<path fill="#D17D39" d="M64.1,72.7c-3.5,0.5-7.3,0.3-11,0.3c-4.5,0-8.8,0.3-13.3,0c-5.3,0-21,0.8-21-7.5s16.5-4.8,21-4.5
		c8,0.5,18,0.5,25.3,4.8C67.9,67.2,67.6,71.9,64.1,72.7L64.1,72.7z"/>
	<path fill="#D17D39" d="M48.6,42.7c4.5,1.5,8.8,5.8,12.5,8.8c4.5,3.5,10,7.5,12.5,12.8c2,4.3-2.3,9.3-6.5,6.8c1.5,0,3.3,0,4.8,0
		c-1.3,0.8-3.5,0.8-4.8,0c-4.8-2.8-8.5-7.5-12.3-11.3c-3.8-3.3-9.3-7.5-10.5-12.5C43.6,44.4,46.1,42.2,48.6,42.7L48.6,42.7z"/>
	<path fill="#D17D39" d="M169.6,61.7c-2.8-0.5-5-2.5-7-4.3c-2.8-2.5-5.3-5-8.3-7c-5.3-3.8-12.5-5.5-16-11c-0.8-1.5-0.3-3.8,1.3-4.3
		c7.5-3.5,15.3,2.5,20.8,7.3c4.5,4,12.3,11.8,10.8,18.5C170.9,61.4,170.1,61.7,169.6,61.7L169.6,61.7z"/>
	<path fill="#D17D39" d="M170.1,42.9c1.3,7.3-3.3,14.8-6.8,20.8c-2,3.5-4.5,6.5-6.5,9.8c-2.3,3.3-5.5,6.5-9.8,5.5
		c-4-1.3-3.8-6.3-2.3-9.3c1.8-3.5,4.8-6.8,7.3-9.8s4.8-6,7-9s3.8-6.5,6.5-9C166.9,40.4,169.9,40.9,170.1,42.9L170.1,42.9z"/>
	<path fill="#D17D39" d="M173.1,39.9c7.3,2.8,12.8,11.5,17,17.8c4.5,6.5,11,15,10.5,23.3c0,3-3.8,6-6.5,3.8
		c-6.3-4.8-9.5-13.3-13.3-19.8c-3.8-6.8-10.3-14.5-11.3-22.3C169.4,40.9,171.4,39.4,173.1,39.9L173.1,39.9z"/>
	<path fill="#D17D39" d="M183.9,64.4c1-3.8,3-6.5,5.8-9.3c3.5-3.5,6.5-8,12-7.3c2,0.5,3.3,2.3,3.8,3.8c1.8,5.3-3.8,9-7.3,12
		c-3.5,2.5-6.8,4.5-11.3,5C184.9,68.9,183.1,66.2,183.9,64.4L183.9,64.4z"/>
	<path fill="#D17D39" d="M222.4,67.2c2.3,3.3,3,7.5,3.5,11.5c1,4.8,1.3,9.8,0.8,14.8c-0.3,6-3.5,22.7-13,20c-1-0.3-1.8-1-2-1.8
		c-0.8-3.5,1.5-6.7,3-9.7c1.5-3.5,2-7.3,2.3-10.8c0.8-7.5-0.8-17.8,3.8-24C221.1,66.7,221.9,66.7,222.4,67.2L222.4,67.2z"/>
	<path fill="#D17D39" d="M239.9,91.2c3,7.3-8.3,14.5-13.3,17.7c-3.8,2.5-7.8,4.5-11.8,6.8c-4,2-9.3,5.8-13.8,2.8
		c-4.8-3.5-1.3-9.3,2.5-11.8c4-2.5,8.5-4.5,13-6.2c4-1.5,7.8-3.3,11.5-5.5c3.3-2,6-5.3,10-5C239.1,89.9,239.6,90.4,239.9,91.2
		L239.9,91.2z"/>
	<path fill="#D17D39" d="M237.4,123.7c-1.3,6.5-12.5,8-18,9.3c-6.5,1-21.5,6.5-22.3-4.3c-0.8-9.3,16.5-10,22.3-10.5
		c3.8-0.5,8.3-1.3,12-0.3C233.4,118.7,238.1,120.2,237.4,123.7L237.4,123.7z"/>
	<path fill="#B86228" d="M30.4,143.7c-3.3-5.8,3-13.8,6-18.3c4.3-6.5,7.8-14.5,14.3-19.3c5-4,11.3,2.5,10,7.8c-1,4-3.5,7.3-5.5,10.8
		c-2.5,3.5-5,7-7.5,10.5s-5.3,7-9,9C36.1,145.2,32.1,146.7,30.4,143.7L30.4,143.7z"/>
	<path fill="#B86228" d="M131.6,174.4c-3.8-0.8-7.3-2.8-10.7-4c-4-1.5-8-2.8-12.3-4c-4-1.3-8.3-2.5-12.3-4c-4-1.8-7.3-4.3-10.5-7
		c-3.3-2.5,0.3-7,3.5-6.3c4.3,1,8.3,1.8,12.5,3c4,1.3,8.3,2.8,12.3,4.3c7.8,2.5,17,5.8,22,12.5C138.1,171.7,134.6,175.4,131.6,174.4
		L131.6,174.4z"/>
	<path fill="#B86228" d="M124.6,155.2c4.3-3.5,8.5-6.8,12.5-10.5c2.5-2.8,9.8-10.8,13.3-4.5c3.3,5.5-3.5,10.8-7.3,14
		c-4.8,3.8-9.8,6.5-15.3,8.8C122.9,165.2,121.1,157.7,124.6,155.2L124.6,155.2z"/>
	<path fill="#B86228" d="M117.4,148.4c0.8-2.3,1-4.3,2-6.3s2.3-4,3.8-5.8c3-3.5,6.2-7.3,10.7-8.3c4.8-1.3,10.5,4.5,7,9.3
		c-2.3,3.3-5.8,5.3-8.5,8c-1.5,1.3-3,2.8-4.5,3.8c-1.8,1.3-3.5,2-5.2,3C119.9,153.7,116.4,151.2,117.4,148.4L117.4,148.4z"/>
	<path fill="#B86228" d="M205.9,64.2c2.3,3.3,3.8,5.8,5,9.5c1.3,4.5,1.8,9.3,2,14s0,9.8-0.8,14.5c-0.5,3.5-1.8,9-5.5,10.7
		c-2,0.8-4,0.5-5.3-1.5c-1.8-2.5-1-6.7-0.8-9.7c0.5-4.3,0.8-8.5,1-12.8c0.3-7-0.5-15.5-1.3-21.5C199.9,64.7,203.4,61.4,205.9,64.2
		L205.9,64.2z"/>
	<path fill="#B86228" d="M225.6,89.9c-2.3,4.8-5.3,9.3-9,13c-3.8,3.5-8.8,7.7-14,8.5c-6.8,1.5-10.5-7-4.8-11c3.8-2.8,8.3-4,12-6.3
		c3.8-2.5,7-5.5,10.3-8.5C223.4,82.9,227.1,86.4,225.6,89.9L225.6,89.9z"/>
	<path fill="#B86228" d="M203.9,156.2c-2.5-1.3-4.3-4-6-6c-2-2.5-4.3-4.8-6.5-7c-2.3-2.5-4.5-4.8-6.8-7c-2.5-2.3-5.8-5-6.3-8.5
		c-0.3-3,1.3-6,4.8-6c6.8-0.3,13,8,17,12.8c4.3,5,10.8,12.5,9.5,19.5C208.9,156.4,206.1,156.9,203.9,156.2L203.9,156.2z"/>
	<path fill="#B86228" d="M227.6,114.7c-3.5,3.5-7.8,5.8-12.3,7.5c-5,1.8-10.3,4-15.5,3.8c-4,0-6.5-5.3-3.5-8.3
		c3.8-3.3,8.8-4.5,13.3-5.8c4.8-1,9.8-2.3,14.5-3.5C227.6,107.7,230.4,111.9,227.6,114.7L227.6,114.7z"/>
	<path fill="#B86228" d="M215.9,142.2c-0.8,0-0.8,0,0-0.3c-0.8,0.3-1.5,0.5-2.3,0.5c-1.3,0.3-2.5,0.3-3.8,0
		c-3.3-0.3-6.5-0.3-9.8-0.3c-3.3,0.3-6.5,0-9.5,0c-3.8,0-7.5,0-10.8-2.3c-3.3-2-4.3-8,0-10c3.8-1.5,6.8-1.5,10.8-1.3
		s8.3,0.5,12.3,1.3c3.3,0.5,6.3,1.3,9.5,2.5c1.5,0.5,3,1.5,4.3,2.8c0.5,0.5,1,1,1.3,1.8c-0.3-1.3,0.3,0.5,0.5,1
		C220.1,139.9,218.6,142.7,215.9,142.2L215.9,142.2z"/>
	<path fill="#B86228" d="M45.1,163.9c2-5,5.3-9.5,7.5-14.3c2-4,5-14.3,11.8-10.3c10.8,6.5-6.8,25.5-13.8,28.5
		C48.1,169.2,43.9,167.2,45.1,163.9L45.1,163.9z"/>
	<path fill="#B86228" d="M47.1,104.4c-3.5,3.7-8,6.7-12.5,9.2c-2,1.3-4,2.5-5.8,4c-2.3,1.8-4.5,2.5-7,3.8c-2.5,1.5-6.8-1-5.5-4.3
		c1-2.8,1.8-5,3.8-6.8c2.3-2,5-3,7.5-4.3c5.5-2.2,11.3-4.2,16.8-6.2C47.1,98.9,48.9,102.7,47.1,104.4L47.1,104.4z"/>
	<path fill="#B86228" d="M46.1,67.9c0.8,6.5,0.3,13.5,0.5,20c0.3,4,1.8,15.5-5,15.5c-6.5,0-5.8-11.5-5.5-15.5c0-6.8,0-15,3.8-20.8
		C41.4,65.2,45.6,64.9,46.1,67.9L46.1,67.9z"/>
	<path fill="#B86228" d="M28.4,91.4c4.8,1.3,8.8,3.5,13.3,5.5c5,2.3,10.5,4.3,14.5,7.8c2,1.7,1,5.5-1.5,6c-5.8,1.3-11-0.5-16-2.8
		c-2.5-1-5-2.5-7.5-3.7c-2.8-1.8-4.8-3.5-6.8-6C22.1,95.2,24.1,90.2,28.4,91.4L28.4,91.4z"/>
	<path fill="#B86228" d="M28.4,119.9c7-0.3,13,1,19.8,3.5c6,2.3,14.3,4,18.3,9.5c1.3,1.8,0.3,4.3-1.3,5.3c-6,3.5-13.3-0.3-19-2.5
		c-6.3-2.8-12.5-5.8-18.8-7.8C22.9,126.7,23.9,120.2,28.4,119.9L28.4,119.9z"/>
	<path fill="#B86228" d="M37.9,143.2c7.3,1.3,14.5,3.3,21.8,4c3.5,0.5,7,0.8,10.5,0.8c4,0,8-1,11.8,1.3c3.3,2,3.8,6.5,1,9.3
		c-5.3,6-18,3.3-25,1.8c-8.3-1.8-16.3-4.8-23-10C31.4,147.4,33.4,142.2,37.9,143.2L37.9,143.2z"/>
	<path fill="#B86228" d="M70.4,167.4c1.5-4.3,4.3-7.5,6.8-11c3-4.3,5-8.8,10-10.8c2.3-1,5.5,1,6,3.5c1.5,5.8-2.8,10.5-6.5,14.5
		c-3.3,3.8-7,6.8-11.8,8.3C72.4,172.9,69.6,170.2,70.4,167.4L70.4,167.4z"/>
	<path fill="#B86228" d="M105.9,171.4c-0.8-1-3-2-4.3-2.8c-1.8-1-3.8-2-5.5-3c-4.5-2.3-8.5-3.8-12-7.3c-3.8-3.5,0-8,4.3-7.5
		c5.5,0.8,10.3,3.5,15,6.5c4.5,3,7.5,6.3,8.8,11.3C113.1,172.7,107.9,174.4,105.9,171.4L105.9,171.4z"/>
	<path fill="#B86228" d="M118.9,164.9c-2-5.5-4.8-10.3-8.8-14.3c-3.8-4-10-6.3-12.5-11c-1.3-2.5-0.3-6.3,2.8-6.8
		c7.5-1.8,14.5,5,19,10.3c4.7,6,7.5,12.8,8.2,20.5C128.1,168.9,120.4,169.4,118.9,164.9L118.9,164.9z"/>
	<path fill="#B86228" d="M128.4,151.7c0.3-4.5-0.5-9.3-1.5-13.8c-1.3-4.8-4.2-9-4.7-14c-0.3-4.3,4.7-6.3,8-4.5
		c5.5,3,7.8,9.5,8.8,15.3c1.3,6.3,0.3,12.3-2,18C135.4,157.2,128.1,156.9,128.4,151.7L128.4,151.7z"/>
	<path fill="#B86228" d="M133.6,164.9c0.5-5,2.3-9,4-13.5c1-2.5,2-4.8,2.8-7.5c0.5-2,0-4,0.3-6c0.8-6.3,7.5-8,11.3-3
		c4.3,5.3,1.3,12.8-1.3,18.3c-2.5,5.3-6.3,10-10.3,14.5C138.1,169.9,133.4,168.2,133.6,164.9L133.6,164.9z"/>
	<path fill="#B86228" d="M153.9,166.4c-0.8-1-1.8-1.3-2.3-2.8c-0.5-1-0.8-2.3-1.3-3.5c-1-2.5-1.5-5.3-2-7.8s-1-5-1.5-7.3
		c-0.3-0.5-0.3-1-0.5-1.5c0.5,1.3-0.3-0.3-0.3-0.5c-0.8-1-1.3-2-1.5-3c-0.5-3.3,1-6.5,4.3-7.5c9-2.3,11.3,8.3,12,14.5
		c0.5,3.3-0.3,6.8-0.8,10c0,1.5-0.5,3-0.8,4.5c-0.5,1.8-1.3,2.8-2,4.3C156.9,167.2,154.9,167.4,153.9,166.4L153.9,166.4z"/>
	<path fill="#B86228" d="M161.4,160.4c0.5-3.8,1.8-7.5,2.8-11.3c1.3-4,1.8-8.5,3-12.5c2.3-6.5,12.8-5.8,12.5,1.8
		c-0.3,9-6,21.3-14.3,25.3C163.1,164.7,160.9,162.9,161.4,160.4L161.4,160.4z"/>
	<path fill="#B86228" d="M183.1,161.4c-0.5-0.3-2.8-1.5-0.5-0.5c-1.5-0.8-2.3-1.3-3.3-2.3c-1.5-2-3-4-4.5-6s-3-3.8-5-5.3
		c-1.8-1.5-3.8-1.8-5-4.3c-1.3-3-1-7.5,2.5-9c6.5-3,12,2.3,15.8,7.3c2,2.5,3.5,5,5,7.8c1.5,3.5,1.8,6.3,1,10
		C188.6,161.4,185.1,162.9,183.1,161.4L183.1,161.4z"/>
	<path fill="#EE9153" d="M230.1,124.9c0,1.3,0.5,2,0,3.5c-0.8,1.5-1.5,3-2.8,4.5c-2,2.3-4.5,5.8-8,6.5c-3,0.5-5.8-1.8-4.8-5
		c0.8-3.3,4-5.3,6.5-7.3c1.3-0.8,2.5-1.5,3.8-2.3c0.5-0.3,1-0.8,1.8-1c0,0,2.5-0.3,1.8,0C228.9,123.7,229.9,124.2,230.1,124.9
		L230.1,124.9z"/>
	<path fill="#EE9153" d="M213.6,154.4c-2,2.5-5.5,2.8-8.5,3c-3.3,0.5-7.5,1-9.5-2.3c-0.5-0.8-0.5-1.5,0-2.3c2-3,5.5-2.8,8.5-2.5
		c3,0,6.3-0.5,9,0.8C214.4,151.9,214.4,153.7,213.6,154.4L213.6,154.4z"/>
	<path fill="#EE9153" d="M15.4,124.2c-1,1,0.5-0.8,0.5-0.8c0.8-0.5,1.3-1,2.3-1.3c2-0.8,4.3,0,6,1c3.3,1.8,5.5,5,6,8.5
		c0.5,2.5-2,5-4.5,3.5c-2-1.3-4-2.8-5.8-4.3c-0.8-0.8-1.8-1.5-2.8-2c-1-1-1.3-2-2-3C14.6,125.4,14.9,124.7,15.4,124.2L15.4,124.2z"
		/>
	<path fill="#EE9153" d="M151.6,177.7c-4-0.5-7.5-2.8-11.3-3.8c-4-1.5-8-2.3-12-4.3c-1-0.5-1.8-2-1.8-3.3c0-0.8,0-1.3,0.5-2
		c0.8-1,2-2,3.3-1.8c7.8,0.8,20.8,5.3,22.5,13.8C153.1,177.4,152.4,177.9,151.6,177.7L151.6,177.7z"/>
	<path fill="#EE9153" d="M122.1,184.7c-0.3-0.5-1-1-1.3-1.3c-0.5-0.8-0.8-1.5-1-2.5c-0.5-1.8-0.8-3.8-0.5-5.8c0.5-4.8,7-4.8,7.5,0
		c0.3,1.8,0,3.5-0.3,5.3c-0.3,0.8-0.5,1.8-0.8,2.5c-0.5,0.5-1.3,1.3-1.5,1.8C123.9,185.4,122.4,185.4,122.1,184.7L122.1,184.7z"/>
	<path fill="#EE9153" d="M106.4,173.2c0,2.3-0.8,3.8-2,5.5c-0.8,0.8-1.8,1.3-3,1.8c-1,0.5-2.3,0.3-3.5-0.3c-1-0.5-1.3-1.8-1-2.8
		c0-0.5,0-0.8,0.3-1.3c0.3,0,0.3-0.3,0.5-0.5c-0.3,0.3-0.3,0.3,0,0s0.5-0.8,0.8-1s0.3-0.3,0,0.3c0.3-0.5,0.5-0.8,0.8-1
		c0-0.3,0.5-0.8,0,0c0,0,0.3-0.8,0,0.3c0-0.3,0-0.5,0-0.8c0.3-0.3,0.3-0.3,0,0.3c0,0,0-0.3,0-0.5c0-2,1.8-3.5,3.8-3.5
		C104.6,169.7,106.4,171.2,106.4,173.2L106.4,173.2z"/>
	<path fill="#F8AC66" d="M97.6,104.4c12.3,2,25.3-0.8,35.7-8.3c16-11.5,22.8-36.3,16-54.5c-3.5-9.8-8.8-18.8-17.5-24.5
		c-3.8-2.5-7.8-4.8-12.2-6.8c-12-5.3-26.3-7.8-38-2.5c-5.5,2.5-9.8,7.5-13.3,12.3c-0.8,1.3-1.5,2.5-2.3,3.8
		c-10.3,18.5-10.3,44.8,2.3,62.3C75.4,96.7,86.1,102.7,97.6,104.4z"/>
	<path fill="#F79955" d="M119.1,74.2c3.5-6.3,9.2-9.8,14.5-13.8c-0.8,2.3-1.5,4.3-2.5,6.3c-7.3,16.3-21.7,18-37.5,16.8
		c-11.3-1-20-10.3-25-20.5C85.9,61.7,103.6,66.4,119.1,74.2z"/>
	<path fill="#FAC589" d="M119.1,74.2c-15.5-7.8-33.3-12.5-50.5-11.3c-1.3-2.5-2.3-5-3-7.5c-2.8-10-3-21.5,0.5-31.5
		c0.8-1.3,1.5-2.5,2.3-3.8c3.5-4.8,7.8-9.8,13.3-12.3c11.8-5.3,26-2.8,38,2.5c6,6,11,14,13,19.5c3.5,9.8,3.8,20.8,1,30.5
		C128.4,64.4,122.6,67.9,119.1,74.2z"/>
	<path fill="#FBD5B0" d="M89.6,28.2c-7,1.5-13.3-5-8.8-12c3-4,13.3-6.8,16.8-1.8C101.4,19.9,94.6,27.2,89.6,28.2z"/>
	<path fill="#F8AC66" d="M116.1,91.7c0.5,9,4.5,18,8,26.7c2.3,5.8,5.5,10.8,9.8,14.8c16.8,16.8,40.8,22.5,61.3,9.3
		c10.5-7,18-19.3,18.8-32c1.3-13.2-4-25-12.3-33.7c-8.5-8.8-20-14.8-32-17.5c-15.5-3.3-34.3-0.8-45.8,11c-3,3.3-5.2,6.5-6.5,10
		C116.1,83.9,115.9,87.9,116.1,91.7z"/>
	<path fill="#F79955" d="M116.1,91.7c0.5,9,4.5,18,8,26.7c2.3,5.8,5.5,10.8,9.8,14.8c2-3.8,3-9.3,2.8-13.3
		c-0.5-8.8-3.3-22.7-11.3-28C121.1,88.9,118.1,89.4,116.1,91.7z"/>
	<path fill="#FAC589" d="M169.6,59.2c12,2.8,23.5,8.8,32,17.5c7.3,11.5,8.3,27,0,38.7c-11.3,16.3-36,13-51.5,5.8
		c-5.8-2.5-10.8-6-15.3-10.3c-2.5-11.2-8.3-24.2-17-31.5c1.3-3.3,3.3-6.3,6-9.3C135.4,58.4,154.1,55.9,169.6,59.2z"/>
	<path fill="#FBD5B0" d="M157.1,76.4c-13.3,7.3-21.8-11-6.5-13C159.1,62.4,166.1,71.7,157.1,76.4z"/>
	<path fill="#F8AC66" d="M76.9,163.4c12.3,1.8,25.3-1,35.8-8.5c16-11.3,22.7-36.3,16.2-54.5c-3.8-9.5-9-18.5-17.7-24.5
		c-3.5-2.3-7.8-4.5-12.3-6.5c-12-5.3-26.3-8-37.8-2.5c-5.5,2.5-10,7.3-13.3,12.3c-0.8,1-1.5,2.3-2.3,3.5
		c-10.3,18.8-10.3,44.7,2,62.5C54.9,155.4,65.4,161.4,76.9,163.4z"/>
	<path fill="#FAC589" d="M88.4,68.9c-0.5-0.3-1-0.3-1.5-0.5c-0.3,0-0.5,0-0.8,0C88.4,68.9,88.4,68.9,88.4,68.9z"/>
	<path fill="#FAC589" d="M45.1,114.2c3.5,13,13.8,26.8,27.8,28c15.8,1.3,30.5-0.5,37.8-16.5c5-11.5,5.5-25.2,1.3-36.7
		c-2-5.8-7-13.8-13-19.5c-12-5.3-26.3-8-37.8-2.5c-5.5,2.5-10,7.3-13.3,12.3c-0.8,1-1.5,2.3-2.3,3.5
		C42.1,92.7,42.1,104.2,45.1,114.2z"/>
	<path fill="#FBD5B0" d="M68.9,86.9c-7,1.5-13.3-5-8.5-11.8c2.8-4.3,13.3-7,16.8-2C80.9,78.7,73.9,85.9,68.9,86.9z"/>
</g>
</svg>
