<?xml version="1.0" encoding="utf-8"?>
<!-- Generator: Adobe Illustrator 16.0.0, SVG Export Plug-In . SVG Version: 6.00 Build 0)  -->
<!DOCTYPE svg PUBLIC "-//W3C//DTD SVG 1.1//EN" "http://www.w3.org/Graphics/SVG/1.1/DTD/svg11.dtd">
<svg version="1.1" id="Layer_1" xmlns="http://www.w3.org/2000/svg" xmlns:xlink="http://www.w3.org/1999/xlink" x="0px" y="0px"
	 width="59px" height="124px" viewBox="0 0 59 124" enable-background="new 0 0 59 124" xml:space="preserve">
<g>
	<path fill="#761E14" d="M22.5,32.3c0,0-16,11.2-18-1.5c-1.7-12.7,11.6-12.9,17.5-7c0,0-14-13.9,0-18.9
		c14.3-4.7,11.1,15.4,11.1,15.4s7.4-18.2,15.8-10c8.6,8-0.5,25.6-13,17.2c-13.3,3.7-13.3,3.7-13.3,3.7"/>
	<path fill="#4B823D" d="M37.8,119.2c0-0.2-0.5-61.5-5.7-79.4c1.7-0.2,1.7-0.2,1.7-0.2c4.9,17.9,5.4,79.4,5.4,79.7
		C37.8,119.2,37.8,119.2,37.8,119.2"/>
	<path fill="#EE4524" d="M22.3,32.3c0,0-7.4,3.2-8.9-1.5c-1.2-4.5,2.2-10,8.6-7.2c0,0-2.5-7.2,3.7-9c6.9-2,7.4,6,7.4,6
		s5.9-6.7,9.4-0.7c3,5-3.2,10.2-6.6,8C22.3,32.3,22.3,32.3,22.3,32.3"/>
	<path fill="#4B823D" d="M22.3,32.3c0,0,2.2,9.7,11.6,7.2c0,0,4.4-2,2-11.7C35.8,27.9,26.4,27.4,22.3,32.3"/>
	<path fill="#4B823D" d="M35.8,58.7c0,0,5.4-17.7,16.5-15.9C52.3,42.8,48.8,58.5,35.8,58.7"/>
	<path fill="#4B823D" d="M36.5,75.7c0,0-5.2-12.9-17.5-11.7C19.1,64,22.3,78.4,36.5,75.7"/>
	<path fill="#4B823D" d="M37,92.1c0,0,5.9-18.4,15.3-17.9C52.3,74.2,59.4,89.9,37,92.1"/>
</g>
</svg>
