<?xml version="1.0" encoding="utf-8"?>
<!-- Generator: Adobe Illustrator 16.0.0, SVG Export Plug-In . SVG Version: 6.00 Build 0)  -->
<!DOCTYPE svg PUBLIC "-//W3C//DTD SVG 1.1//EN" "http://www.w3.org/Graphics/SVG/1.1/DTD/svg11.dtd">
<svg version="1.1" id="Layer_1" xmlns="http://www.w3.org/2000/svg" xmlns:xlink="http://www.w3.org/1999/xlink" x="0px" y="0px"
	 width="259px" height="271px" viewBox="0 0 259 271" enable-background="new 0 0 259 271" xml:space="preserve">
<g>
	<path fill="#61A932" d="M121.5,204.4c8.3-2-21-73.3-37-77.8c-11.3-2.8-23.5,5.3-23.8,16.8c-0.8,20,22,38.3,26,56.8
		c-12.3,5-26,2.8-38.5,9c6,4,15,0.5,20.5,4.8c-4.8,1.8-5.5,4.5-8,7c3.8-0.3,8,1,12,0.3c-3,1.8-4.8,5-7.5,7
		C79.5,232.9,106.8,207.9,121.5,204.4z"/>
	<path fill="#74C42C" d="M83.5,128.2c10.8,14,8.8,33.5,13.8,49.5c5.5,17.5,22,27.8,39.8,30.3c24,3.5,58-1.5,77-17.8
		c17.3-15,25-47.5,12.5-67.3c-8.8-13.8-30.5-29.5-45.5-34.8c0.5,0.5,1.3,0.8,1.8,1.3C83.5,128.2,83.5,128.2,83.5,128.2z"/>
	<path fill="#74C42C" d="M66.3,122.7c-11,14.5-23.8,28-36.3,41.8c-4,4.5-4.3,7.3-9.8,7.5c-4.5,0.3-11-5-14.3-0.3
		c5.3,4.8,11.3,5.5,17,8.8c-2.3,6.5-7.3,11.8-6,19.3c6.5,1.3,6.8-8.3,9.5-12.3c0.5,4,0.3,12.8,4.3,15.3c7.3,4.5,4.5-7,4.3-10.8
		c1,3.3,6.3,7.3,11,7c2.3-4-3.8-8-5.5-11.5c6.5-10,16.5-20.3,25-28.8c8-8.3,19.5-14.8,27-23.5C66.3,122.7,66.3,122.7,66.3,122.7z"/>
	<path fill="#9BD421" d="M48,111.7c22.3,29.5,67,32,99.3,20.3c29.3-10.8,51.5-35,38.3-66.8C176,42.7,152.8,21.7,128,18.4
		c-13.3-2-28.3,2.8-41,5.8c-20.5,4.8-36.5,15.3-44.8,34.8c-7,17-5.8,36.8,5,51.8C47.5,110.9,47.8,111.2,48,111.7z"/>
	<path fill="#9BD421" d="M157.8,40.7c-1-9.3,5.3-19,13.3-23.5c10-5.5,19.5-4,28,2.8c8.8,7,12.5,12.8,10.8,24.8
		c-2.8,19.8-21,29-39.5,30C157.8,40.7,157.8,40.7,157.8,40.7z"/>
	<path fill="#9BD421" d="M81.5,27.7c0-19.8-23.3-26.3-38.3-18.5c-8,4-16.5,11-16.8,20.5c0,10.8,9,23.8,18.8,27.8
		C81.5,27.7,81.5,27.7,81.5,27.7z"/>
	<path fill="#B9DF36" d="M159.3,110.7c6.5,0.5,11.5-4.3,13-10.3c1.8-8.8-8.5-10.3-14.3-6C152.5,98.7,149.8,109.9,159.3,110.7z"/>
	<path fill="#B9DF36" d="M55,101.4c6.5,0.5,11.8-4.3,13-10.5c2-8.5-8.5-10-14-5.8C48.5,89.2,45.8,100.7,55,101.4z"/>
	<path fill="#49752C" d="M73,110.2c5,7.3,20,10.3,28,11c8.5,1,23.3,0.5,30.3-4.8c-8,8.5-18,14.5-30.5,12.5
		c-8.3-1.3-16.5-13.8-22.8-14C73,110.2,73,110.2,73,110.2z"/>
	<path fill="#9BD421" d="M134.3,131.7c0,21.8-3,44-7.5,65.3c-1.5,7.3-1.5,11.8-7.8,16c-3.8,2.5-11,4.3-10.3,9.5
		c4.3,1.8,11.8,0,16.3-1c-1,3.8-1,9,0.3,13c4.3-2.3,4.3-8,7-12c2.3,3,4.8,10.5,8.8,12c0.8-5-1.5-9.5-2-14.3c4,3.8,7,10,13.3,8.5
		c-5.3-9.5-8.3-14-6.8-25.5c1.3-9,3.3-18.8,5.3-27.8c1.5-7.5,16.5-53,12-54.8C134.3,131.7,134.3,131.7,134.3,131.7z"/>
	<path fill="#9BD421" d="M201.8,235.7c0.3-1.8,0.5-3,0.3-3.8c-1.5-13.8-11.3-22.5-12.3-36c-1.3-13.5,0.5-28.8,7-41
		c7-13.5,23.5-31.8,40.8-27.5c25,6.3,17.8,33.8,11.5,52.3c-4,12-10.3,21.8-18.8,31.3c-2.5,2.8-6.3,5.3-8.8,8.5c-4,5.3-2.8,2.5-1.5,8
		c1,4.8,14.3,35.8,4.8,35.5c-2,0-4-3.8-4.8-5.3c0.8,9.8-10.8,11.3-10.3,0c-1.8,3.8-5.3,12.5-10.5,7.8
		C195,261.9,200.5,244.4,201.8,235.7z"/>
	<path fill="#FFFFFF" d="M40,46.9c0,0,12.3,3.5,25.8,1.8c7.5-1.3,9-32.8-9.5-34.3C37,12.7,33.5,40.2,40,46.9z"/>
	<path fill="#2D1916" d="M44.3,46.9c0,0,9.8,2.8,20.5,1.3c6.3-1,7.5-26.3-7.5-27.5C41.8,19.4,39,41.4,44.3,46.9z"/>
	<path fill="#FFFFFF" d="M62.3,30.2c-0.3,2-2,3.5-4.3,3.3s-3.8-2-3.8-4c0.3-2,2.3-3.5,4.3-3.5C60.8,26.2,62.5,27.9,62.3,30.2z"/>
	<path fill="#FFFFFF" d="M170,53.4c0,0,12.3,3.5,25.5,1.5c7.8-1,9.3-32.8-9.5-34.3C166.8,19.2,163.5,46.4,170,53.4z"/>
	<path fill="#2D1916" d="M174.3,53.2c0,0,9.8,3,20.5,1.3c6.3-0.8,7.3-26-7.5-27.3C171.8,25.9,169,47.7,174.3,53.2z"/>
	<path fill="#FFFFFF" d="M192.3,36.4c-0.3,2-2.3,3.5-4.3,3.5c-2.3-0.3-4-2-3.8-4c0.3-2.3,2-3.8,4.3-3.5S192.3,34.4,192.3,36.4z"/>
	<path fill="#74C42C" d="M204.5,207.2v-0.3c0-1-0.8-1.8-1.8-1.8c-0.8,0-1.8,0.8-1.8,1.8c0,0.8,0,1.3,0,2c0,1,1,1.8,1.8,1.8
		c1,0,1.8-0.8,1.8-1.8v-0.3c0-1-0.8-1.8-1.8-1.8c-0.8,0-1.8,0.8-1.8,1.8v0.3c0,1,1,1.8,1.8,1.8c1,0,1.8-0.8,1.8-1.8c0-0.8,0-1.3,0-2
		c0-1-0.8-1.8-1.8-1.8c-0.8,0-1.8,0.8-1.8,1.8v0.3c0,1,1,1.8,1.8,1.8C203.8,208.9,204.5,208.2,204.5,207.2L204.5,207.2z"/>
	<path fill="#74C42C" d="M206.8,194.7c0,1,0,2,0,2.8c0,1,0.8,1.8,1.8,1.8c0.8,0,1.8-0.8,1.8-1.8c0-0.8,0-1.8,0-2.8s-1-1.8-1.8-1.8
		C207.5,192.9,206.8,193.7,206.8,194.7L206.8,194.7z"/>
</g>
</svg>
