<?xml version="1.0" encoding="utf-8"?>
<!-- Generator: Adobe Illustrator 16.0.0, SVG Export Plug-In . SVG Version: 6.00 Build 0)  -->
<!DOCTYPE svg PUBLIC "-//W3C//DTD SVG 1.1//EN" "http://www.w3.org/Graphics/SVG/1.1/DTD/svg11.dtd">
<svg version="1.1" id="Layer_1" xmlns="http://www.w3.org/2000/svg" xmlns:xlink="http://www.w3.org/1999/xlink" x="0px" y="0px"
	 width="259px" height="207px" viewBox="0 0 259 207" enable-background="new 0 0 259 207" xml:space="preserve">
<g>
	<path fill="#121210" d="M90.3,56.5c15.8-44.8,84.2-61,112-18c10.5,16,15.3,36.5,5,53.8c-16.5,28.5-48,38.2-79.2,25.7
		C100.3,106.7,78.8,89,90.3,56.5z"/>
	<path fill="#121210" d="M50.6,46.2c1.3-0.5,2-2,1.3-3.3c-0.8-1-2-1.3-3.3-1.3c-3.3,0.3-6.5,2-8.5,4.5c1.3,0.5,2.5,0.8,3.5,1
		c-0.5-1.8-1.5-3.3-2.3-4.8c-1-1.5-2-3-2-4.8c-0.3-2.8-4.3-2.8-4.3,0c0.3,4.3,3.3,7,4.5,10.8c0.5,1.3,2.5,2.3,3.5,0.8
		c1-1.3,2.3-2.3,3.8-2.8c0.5-0.3,0.8-0.3,1.3-0.3c0-0.3,0.8-0.3,0.5-0.3c0.3,0,0.5,0,0.8,0s0.3,0-0.3,0c-0.5-0.3-1-0.8-1.3-1.3
		c0-0.5,0-0.8,0-1.3c0.3-0.3,1-1,0.5-0.8C46.1,44,48.1,47.5,50.6,46.2z"/>
	<path fill="#121210" d="M32.6,78.5c-6.5-3-13,4.3-17.8,7.8c0.8,0.3,1.8,0.3,2.5,0.5c-2.3-2.5-5-5-6.3-8c-0.8-2.8-4.8-1.5-4,1
		c1.5,4,4.5,7,7.3,10c0.8,0.5,2,0.8,2.8,0.3c2.3-1.8,4.5-3.8,7-5.5c1.5-1,4.5-3.3,6.5-2.3c1,0.3,2.3,0.3,2.8-0.8S33.6,79,32.6,78.5z
		"/>
	<path fill="#121210" d="M27.1,120c-5.3,2.8-9.3,8-12,13c0.8-0.3,1.3-0.8,2-1c-0.5,0-0.8,0-1.3,0c0.5,0,0.8,0.3,1.3,0.3
		c-2.5-1-6-2.5-7.3-4.8c-1.3-2.5-5-0.3-3.5,2c1,2,3,3.5,5,4.5c1,0.8,2,1.3,3,1.8s1.8,0.5,2.8,0.5c0.8,0,1.5-0.5,1.8-1
		c2.3-4.8,5.8-9.3,10.5-11.8C31.6,122.2,29.6,118.7,27.1,120z"/>
	<path fill="#121210" d="M234.1,109.7c4.5,4.5,7,11.3,7.3,17.8c0,1.3,1.3,2.3,2.5,2c4.5-1.3,8.8-2.8,11.5-6.8c1.5-2.3-2.3-4.3-3.8-2
		c-2,3-5.5,3.8-8.8,4.5c0.8,0.8,1.8,1.5,2.8,2.3c-0.3-7.5-3.3-15.3-8.5-20.8C235.1,105,232.1,108,234.1,109.7z"/>
	<path fill="#121210" d="M207.8,150.7c2.8,4.3,2.8,9.5,2.3,14.3c-0.3,1.3,0.5,2.5,2,2.5c2.3,0,4.5,0,6.8,0c2.5,0,2.5-4,0-4
		c-2.3,0-4.5,0-6.8,0c0.5,0.8,1.3,1.8,2,2.5c0.8-5.8,0.8-12.3-2.5-17.3C210.1,146.5,206.3,148.5,207.8,150.7z"/>
	<path fill="#121210" d="M173.1,170.5c2.5,8,2,17,2,25.3c0,1,1,2,2.3,2c2.5,0,5.5-1,7.8-1c2.8,0,2.8-4.3,0-4.3s-5.3,1-7.8,1.3
		c0.5,0.5,1.3,1.3,2,2c0-8.8,0.5-18-2.3-26.3C176.1,166.7,172.1,168,173.1,170.5z"/>
	<path fill="#BB1C2B" d="M140.6,59c15-15.8,32.5-29,52.5-39.8c34.8,21.8,58.3,43,51.5,83.8c-6.5,37-40.8,70.7-83.3,80.5
		c-15.8,3.8-51,9.3-63.7-2.3c-5.8-5.3-6-22.8-6.5-29.8C89.1,111.7,113.3,87.7,140.6,59z"/>
	<path fill="#BB1C2B" d="M179.1,12.5c-32.3,14.3-57,67.8-72.5,97.2c-6.3,12.3-10.5,25-19.5,36c-30,36-69-2.5-70-37.3
		c-0.8-23.7,18-55,33-72.2c0.3-0.3,0.5-0.8,0.8-1c9.8-10.8,21.8-18.8,34.8-24C115.3-0.8,150.8,1,179.1,12.5z"/>
	<path fill="#121210" d="M83.6,86c20.7-6.3,19-32.8-3.8-32.3C52.8,54.2,50.1,95.7,83.6,86z"/>
	<path fill="#121210" d="M161.8,121.7c18.3-5.5,16.8-28.7-3.3-28.2C135.1,94,132.6,130.5,161.8,121.7z"/>
	<path fill="#121210" d="M201.3,67.2c18.5-5.5,17-28.8-3-28.3C174.6,39.5,172.3,75.7,201.3,67.2z"/>
	<path fill="#91191F" d="M116.8,82.2c0.5,9.3,4.8,17.8,4.5,26.7c0,0-23.8-5-25.8-7.2C87.6,92.7,108.1,85,116.8,82.2z"/>
	<path fill="#121210" d="M215.1,134.5c23.3-7,21.3-36.2-4-35.7C181.3,99.5,178.3,145.5,215.1,134.5z"/>
	<path fill="#121210" d="M77.3,44c-15.5,4.8-24-0.8-26.5-8.8c9.8-10.8,21.8-18.8,34.8-24C98.1,18.7,95.6,38.7,77.3,44z"/>
	<path fill="#121210" d="M126.8,36.7c15.5-4.5,14.2-24.3-2.5-23.8C104.3,13.5,102.1,44.2,126.8,36.7z"/>
	<path fill="#121210" d="M128.3,110.7c14,8.5,22.2,22.3,23.7,38.5c1.5,18-7,28.8-22,38.8c-19,12.3-39.5,19.5-61,11.3
		c-19.3-7.8-36-18.8-42.3-39.5c-4-14-6.5-35.5,5.5-46.5C57.8,89.5,100.6,94,128.3,110.7z"/>
	<path fill="#FFFFFF" d="M37.8,131.2c-2.8,16.3,14.5,28.3,29.3,25.5c17.3-3.3,21.3-28.3,9.5-39.3c-9-8.3-22.3-8.5-31,0.3
		C41.1,122,38.6,126.7,37.8,131.2z"/>
	<path fill="#100F0D" d="M71.6,141.2c11.5-4.5,10.5-20.5-1.5-23.5c-10.8-2.5-20,9.8-12.8,18.8C60.8,141,65.8,143.5,71.6,141.2z"/>
	<path fill="#FFFFFF" d="M72.6,130.7c4,0.8,7-4.3,4.3-7.3c-2.3-2.5-6.5-2.5-7.5,0.8C68.6,127,69.3,130,72.6,130.7z"/>
	<path fill="#FFFFFF" d="M91.3,140.7c-3,17.3,15.5,30.3,31.8,27.3c18.5-3.3,22.7-30.5,10-42.3c-9.7-8.8-24-9-33.5,0.3
		C94.8,130.7,92.1,135.7,91.3,140.7z"/>
	<path fill="#100F0D" d="M127.6,151.5c12.2-5,11.2-22-1.5-25.3c-11.5-3-21.5,10.5-13.8,20C116.1,151.2,121.6,153.7,127.6,151.5z"/>
	<path fill="#FFFFFF" d="M128.6,140c4.5,1,7.7-4.5,4.7-7.8c-2.5-2.8-7-2.8-8,1C124.6,136,125.3,139.2,128.6,140z"/>
	<path fill="#F04156" d="M66.3,167.2c9.3,4,17.3,5.3,27,1.3c-3.5,15-20.7,13-26.2,1.3L66.3,167.2z"/>
</g>
</svg>
