<?xml version="1.0" encoding="utf-8"?>
<!-- Generator: Adobe Illustrator 16.0.0, SVG Export Plug-In . SVG Version: 6.00 Build 0)  -->
<!DOCTYPE svg PUBLIC "-//W3C//DTD SVG 1.1//EN" "http://www.w3.org/Graphics/SVG/1.1/DTD/svg11.dtd">
<svg version="1.1" id="Layer_1" xmlns="http://www.w3.org/2000/svg" xmlns:xlink="http://www.w3.org/1999/xlink" x="0px" y="0px"
	 width="125px" height="106px" viewBox="0 0 125 106" enable-background="new 0 0 125 106" xml:space="preserve">
<g>
	<path fill="#F35C70" d="M21.2,44.8c-2.8-2.8-6.8-2-11.8-3.8c-6.8,6.5-2.8,31.3,4.3,36.3c4-3.3,8.8-6.8,12.5-10.3
		C21.2,44.8,21.2,44.8,21.2,44.8z"/>
	<path fill="#F68194" d="M108.7,36.8c1.8-1.3,1.5-4,3.5-5.5c1.5-1,2-0.3,2,1.5c1.8-0.8,3.5-1.5,5-2c-1.8-2.3,0.3-4,2.5-4.5
		c-0.8-1.3-1.8-2.8-2.5-4.3c-2.3,2.5-5.3,4.8-7.8,6.8c-1.8,1.5-3.5,3-5.3,4.5c-1,1-1.5,2-1.3,3.5c-0.3-2-0.3-0.5,0,0.5
		c0.3-0.8,0.3-1.5,0.5-2.3l0,0c-2,2,1,5,3,3.3c0-0.3,0.3-0.3,0.3-0.3c-0.8,0.3-1.5,0.5-2.3,0.8c1.3,0.3,0.5,0,0.5,0
		c1.5,0.3,2.5-0.5,3.5-1.3c1.8-1.5,3-3,4.5-4.5c1.8-1.5,3.3-3,5-4.8c0.5-0.5,1.3-1.3,2-1.8c0.3-0.3,0.8-0.8,0.3-0.5
		c1.8-1.3,1.5-5-1.3-4.8c-3,0.3-5.8,1.5-7.3,4.3c-1.8,2.8-1,6.3,1,8.8c1.5,2.3,5.5,1.8,5.5-1.5c0-5-3.5-9-8.8-7.8
		c-4.5,1-9.8,7.8-6,11.8C106.2,38.1,107.7,37.6,108.7,36.8z"/>
	<path fill="#F797A7" d="M48.5,25.6C36,33.1,36,33.1,36,33.1c-9,5.3-9,5.3-9,5.3c-0.5-6.3-3.8-10.5-4-17.3
		c-0.3-5.8-0.3-11.8,0.8-17.3c0-0.3,0-0.5,0-0.8C35,1.8,40.7,20.3,48.5,25.6z"/>
	<path fill="#F35C70" d="M36,33.1c-9,5.3-9,5.3-9,5.3c-0.5-6.3-3.8-10.5-4-17.3c-0.3-5.8-0.3-11.8,0.8-17.3
		C28,9.6,35.5,22.8,36,33.1z"/>
	<path fill="#F35C70" d="M39.2,77.1c-2.8,6.8-8.3,17.5-0.8,21.5c10.8,5.5,11.3-11.3,17.3-13.3C39.2,77.1,39.2,77.1,39.2,77.1z"/>
	<path fill="#F35C70" d="M76.7,87.8c4,6.3,9.5,17,17,13c10.8-5.3-2.8-15.8-0.8-21.8C76.7,87.8,76.7,87.8,76.7,87.8z"/>
	<path fill="#F797A7" d="M101.5,85.8c-29,19.3-77.7,15.8-82.2-34.3C15.7,14.1,63.7,5.3,85,13.1c15.3,5.5,26.3,18,28.8,37.8
		C116.2,69.6,110.7,79.6,101.5,85.8z"/>
	<path fill="#FFFFFF" d="M39.5,47.6c8.8,3.3,17.5-5.5,17.8-14.3c0.3-10.3-13.5-15.3-21-9.5c-5.5,4.5-7.3,12-3.3,18
		C34.7,44.8,37.2,46.6,39.5,47.6z"/>
	<path fill="#100F0D" d="M49,29.1c-1-7-10.3-8-13.3-1.3c-2.8,5.8,3.3,12.3,9,9C47.7,35.3,49.7,32.6,49,29.1z"/>
	<path fill="#FFFFFF" d="M43.2,27.6c1-2.3-1.5-4.5-3.5-3.3c-1.8,1.3-2.3,3.5-0.5,4.5C40.7,29.3,42.5,29.3,43.2,27.6z"/>
</g>
</svg>
