<?xml version="1.0" encoding="utf-8"?>
<!-- Generator: Adobe Illustrator 16.0.0, SVG Export Plug-In . SVG Version: 6.00 Build 0)  -->
<!DOCTYPE svg PUBLIC "-//W3C//DTD SVG 1.1//EN" "http://www.w3.org/Graphics/SVG/1.1/DTD/svg11.dtd">
<svg version="1.1" id="Layer_1" xmlns="http://www.w3.org/2000/svg" xmlns:xlink="http://www.w3.org/1999/xlink" x="0px" y="0px"
	 width="118px" height="114px" viewBox="0 0 118.5 114" enable-background="new 0 0 118.5 114" xml:space="preserve">
<g>
	<path fill="#8D5FD3" d="M11.9,57.2c0,26.8,21.5,48.5,48.3,48.5s48.5-21.8,48.5-48.3c0-26.8-21.8-48.5-48.3-48.5
		C33.7,8.9,11.9,30.4,11.9,57.2z"/>
	<path fill="#AA87DE" d="M34.9,98.4L34.9,98.4c2.5,1.5,5.5,3,8.5,4.3c1.8,0,3.8,0,5.8-0.3c13.8,0,24-1,32-1.5c1-0.5,2-1.3,3.3-1.8
		c-19,0-35,3.5-51.3-1.8C33.7,97.7,34.2,97.9,34.9,98.4L34.9,98.4L34.9,98.4 M20.7,82.4c14.5,8.8,26.3,14.5,55.8,9.3
		c3.8-0.8,7-1.5,10-2c-1.8-1-3.5-2-5.5-3C64.7,78.4,41.7,80.9,20.7,82.4 M16.2,77.2c11.3,1.8,22.8,2.5,32.5,1c20.3-3,39.3-1,53.5,3
		c0.3-0.3,0.5-0.5,0.5-0.8c-1.3-2.5-2.8-4-5-5.5c-4.3-2.8-10.8-3.5-18-4.8c-16.5,1.3-30.5,0.3-46.3-3.5c-6.5-1.5-14.3-2.3-21-2.3
		C13.2,68.9,14.4,73.2,16.2,77.2 M11.9,58.2c2,0,3.8,0,6-0.3c14-0.3,23.8,5.3,44.5,8c-3-1.3-6.3-2.8-9.5-4.8c-2-1.3-3.8-2.5-5.5-4
		c-1.5-1.3-3-3-4.5-5c-2-0.3-4.3-0.8-6.5-1.3c-7.5-2-16.3-2.5-23.8-2.5c-0.3,2.3-0.5,4.3-0.8,6.5v0.3l0,0c0,0.3,0,0.3,0,0.5l0,0
		c0,0.3,0,0.3,0,0.3l0,0l0,0l0,0c0,0.3,0,0.3,0,0.3l0,0l0,0c0,0.3,0,0.3,0,0.3l0,0l0,0c0,0.3,0,0.3,0,0.3l0,0l0,0l0,0
		c0,0.3,0,0.3,0,0.3l0,0l0,0l0,0c0,0.3,0,0.3,0,0.3l0,0l0,0c0,0.3,0,0.3,0,0.5C11.9,57.7,11.9,57.9,11.9,58.2L11.9,58.2 M14.4,42.2
		c2,0,4,0,6.5,0c6.5-0.3,12,1,18.3,2.5c-1.3-3.3-2.3-7-2.5-10.5c-0.3,0-0.5,0-0.5,0c-7.8,0.8-14.8,1.5-19.5,2.3
		C15.7,38.2,14.9,40.2,14.4,42.2 M21.2,28.9c4.8,0,10.5,0.3,15.3,1c0-3.8,0.5-7.3,2-10.5c-3,0-6,0.3-8.8,0.5
		C26.4,22.7,23.4,25.7,21.2,28.9 M46.4,10.9L46.4,10.9L46.4,10.9L46.4,10.9"/>
	<path fill="#7137C8" d="M12.7,48.4L12.7,48.4c0.5-2,1-4.3,1.8-6.3l0,0C13.7,44.2,13.2,46.4,12.7,48.4 M42.9,52.2
		c14.3,2.8,27.5,3.3,43.5,1.8c7.3-0.5,15.3,0.3,22.3,1.3c-0.3-2.8-0.5-5.8-1.3-8.5c-10,1.3-18.8,5.5-37,3.8
		c-14-1.3-23.3-3.8-31.3-5.8C40.2,47.4,41.4,49.9,42.9,52.2"/>
	<path fill="#7137C8" d="M12.7,48.4c7.5,0,16.3,0.5,23.8,2.5c2.3,0.5,4.5,1,6.5,1.3c-1.5-2.3-2.8-4.8-3.8-7.5
		c-6.3-1.5-11.8-2.8-18.5-2.5c-2.3,0-4.3,0-6.3,0C13.7,44.2,13.2,46.4,12.7,48.4"/>
	<path fill="#7137C8" d="M62.4,65.9c5.8,2,11,3.3,16,4c0.5,0,0.8,0.3,1.3,0.3c1.3,0,2.5-0.3,3.8-0.3c7.8-0.8,16,0,23,1.3
		c1-2.8,1.5-5.8,2-9c-12,0.5-20.5,6-41,4.3C65.7,66.2,64.2,65.9,62.4,65.9"/>
	<path fill="#7137C8" d="M12.4,64.4c6.8,0,14.5,0.8,21,2.3c15.8,3.8,29.8,4.8,46.3,3.5c-0.5,0-0.8-0.3-1.3-0.3c-5-0.8-10.3-2-16-4
		c-20.8-2.8-30.5-8.3-44.5-8c-2.3,0.3-4,0.3-6,0.3C11.9,60.2,12.2,62.4,12.4,64.4"/>
	<path fill="#7137C8" d="M33.2,97.4c16.3,5.3,32.3,1.8,51.3,1.8c3-1.8,5.8-3.8,8.3-6.3c-1.8-1-3.8-2-6.3-3.5c-3,0.8-6.3,1.5-10,2.3
		c-29.5,5.3-41.3-0.5-55.8-9.3c-0.5,0-1,0-1.5,0C22.7,88.4,27.4,93.4,33.2,97.4"/>
	<path fill="#F9AA72" d="M43.4,102.7c5.3,1.8,11,3,16.8,3C54.4,105.7,48.7,104.4,43.4,102.7L43.4,102.7"/>
	<path fill="#7137C8" d="M43.4,102.7c5.5,0,11,3,16.8,3c7.5,0,14.8-1.8,21-4.8c-8,0.5-18.3,1.5-32,1.5
		C47.2,102.7,45.2,102.7,43.4,102.7z"/>
	<path fill="#7137C8" d="M16.7,36.4L16.7,36.4c1.3-2.5,2.8-5,4.5-7.5l0,0c-0.8,1-1.5,2-2,3C18.2,33.4,17.4,34.9,16.7,36.4
		 M36.7,34.2c13.3-1,17,3.5,32,6c14,2.5,25-2.3,35.8-2.5c-0.5-1.3-1-2.3-1.5-3.3c-1.3-0.3-2.3-0.3-3.5-0.5c-4.8,1.5-10.5,2.8-16.5,3
		c-14.3,0.5-32.5-1.5-41.8-5.5c-1.5-0.5-3-1-4.8-1.5C36.4,31.4,36.4,32.9,36.7,34.2L36.7,34.2"/>
	<path fill="#7137C8" d="M16.7,36.4c4.8-0.8,11.8-1.5,19.5-2.3c0,0,0.3,0,0.5,0c-0.3-1.3-0.3-2.8-0.3-4.3c-4.8-0.8-10.5-1-15.3-1
		C19.4,31.4,17.9,33.9,16.7,36.4"/>
	<path fill="#7137C8" d="M29.7,19.9L29.7,19.9c4.8-4,10.5-7,16.8-9l0,0C40.2,12.9,34.4,15.9,29.7,19.9L29.7,19.9 M38.4,19.4
		c12.3,0,26.5,2.5,46,10.3c5.5,2.3,10.5,3.5,15,4.3c1-0.3,1.8-0.8,2.8-1c-4-6.8-9.8-12.5-16.5-16.8c-1-0.8-2.3-1.3-3.5-2
		c-11.8-3.8-21.3-4.5-35.8-3.3C42.4,12.7,39.9,15.9,38.4,19.4"/>
	<path fill="#8D5FD3" d="M46.4,10.9L46.4,10.9L46.4,10.9L46.4,10.9L46.4,10.9c-6.3,2-12,5-16.8,9c2.8-0.3,5.8-0.5,8.8-0.5
		C39.9,15.9,42.4,12.7,46.4,10.9"/>
	<path fill="#7137C8" d="M46.4,10.9L46.4,10.9c-6.3,2-12,5-16.8,9l0,0C34.4,15.9,40.2,12.9,46.4,10.9"/>
	<path fill="#FFFFFF" d="M102.4,33.4c0,0.3,0.3,0.5,0.5,1l0,0C102.7,33.9,102.4,33.7,102.4,33.4"/>
	<path fill="#8D5FD3" d="M102.2,32.9c-1,0.3-1.8,0.8-2.8,1l0,0l0,0c1.3,0.3,2.3,0.3,3.5,0.5c-0.3-0.5-0.5-0.8-0.5-1
		C102.2,33.4,102.2,33.2,102.2,32.9"/>
	<path fill="#7137C8" d="M102.2,32.9c-1,0.3-1.8,0.8-2.8,1l0,0C100.4,33.7,101.2,33.2,102.2,32.9L102.2,32.9"/>
	<path fill="#7137C8" d="M17.9,80.7c0.5,1,2,1.3,2.8,1.8c21-1.5,44-4,60.3,4.3c2,1,3.8,2,5.5,2.8c5-1,9-2.3,12.5-3.3
		c1-1,1.8-2.3,2.5-3.5c0.3-0.5,0.5-1,0.8-1.5c-14.3-4-33.3-6-53.5-3c-9.8,1.5-21.3,0.8-32.5-1C16.7,78.4,17.4,79.7,17.9,80.7z"/>
	<path fill="#7137C8" d="M19.2,82.4c0.5,0,1,0,1.5,0c-0.8-0.5-1.8-1.3-2.8-1.8C18.4,81.2,18.7,81.9,19.2,82.4 M86.4,89.4
		c2.5,1.5,4.5,2.5,6.3,3.5c2.3-2,4.5-4.3,6.3-6.8C95.4,87.2,91.4,88.4,86.4,89.4"/>
</g>
</svg>
