<?xml version="1.0" encoding="utf-8"?>
<!-- Generator: Adobe Illustrator 16.0.0, SVG Export Plug-In . SVG Version: 6.00 Build 0)  -->
<!DOCTYPE svg PUBLIC "-//W3C//DTD SVG 1.1//EN" "http://www.w3.org/Graphics/SVG/1.1/DTD/svg11.dtd">
<svg version="1.1" id="Layer_1" xmlns="http://www.w3.org/2000/svg" xmlns:xlink="http://www.w3.org/1999/xlink" x="0px" y="0px"
	 width="88px" height="73px" viewBox="0 0 88.5 73.5" enable-background="new 0 0 88.5 73.5" xml:space="preserve">
<g>
	<path fill="#1B2547" d="M65.9,5c0,2.3-2,4.3-4.3,4.3s-4-2-4-4.3s1.8-4,4-4S65.9,2.8,65.9,5z"/>
	<path fill="#E2B4C4" d="M74.6,15c-2.5,0-4.5,1.8-4.5,4.3c0,2.3,2,4.3,4.5,4.3c2.3,0,4.3-2,4.3-4.3C78.9,16.8,76.9,15,74.6,15z"/>
	<path fill="#D74121" d="M82.1,46c-2.5,0-4.5,2-4.5,4.5c0,2.3,2,4.3,4.5,4.3c2.3,0,4.3-2,4.3-4.3C86.4,48,84.4,46,82.1,46z"/>
	<path fill="#A1D956" d="M5.6,63.5c-2.5,0-4.3,2-4.3,4.5c0,2.3,1.8,4.3,4.3,4.3s4.3-2,4.3-4.3C9.9,65.5,8.1,63.5,5.6,63.5z"/>
	<path fill="#F9B729" d="M8.1,6c-2.3,0-4.3,1.8-4.3,4.3s2,4.3,4.3,4.3c2.5,0,4.5-1.8,4.5-4.3S10.6,6,8.1,6z"/>
	<path fill="#BEB190" d="M39.1,10.3c-17,0-31,14-31,31c0,17.3,14,31,31,31c17.3,0,31-13.8,31-31C70.1,24.3,56.4,10.3,39.1,10.3z"/>
	<path fill="#F9E2D1" d="M44.1,21.3c-7.3-0.6-14-2.5-21.3-3c-1.5,0-3,0-4.3,0c-3.5,3-6.3,6.8-8,11c2,0,4.3-0.5,6.3-0.8
		c5.8-1,11.5-1.3,17-0.8c7.5,0.5,14.8,2.3,22,2.3c3.8,0,7.8-0.5,11.5-1.8c-1.5-3-3.3-5.8-5.5-8.3C55.9,21.3,50.1,21.8,44.1,21.3z"/>
	<path fill="#F58714" d="M49.1,38.3C41.9,38,34.9,36,27.9,34.8c-6.3-0.8-12.8-1.5-19-0.3c-0.5,2-0.8,4.5-0.8,6.8
		c0,2.8,0.5,5.3,1,7.8c1.8-1,3.5-2.5,5-3.8c2.5-2.3,5-4.5,8.3-5.5c4.5-1.5,9.3,0,13.8,1.5c6.5,2,13,4.3,19.5,5.3
		c4.8,0.8,9.5,1,14,0.3c0.5-1.8,0.5-3.5,0.5-5.5c0-1.8,0-3.5-0.3-5C63.1,38,56.1,38.5,49.1,38.3z"/>
	<path fill="#F9E2D1" d="M36.6,54.8C35.9,54,34.9,54,33.9,54c-3.3,0-6.5,0.8-9.5,2c-1,0.5-1.5,2.3-0.8,3l0,0c0.8,0.5,1.3,0.8,2,1
		c2.8,0.8,5.5,1,8.3,0.8c0.8,0,1.5,0,2.3-0.5c0.8-0.3,1.3-1,1.5-2C38.1,56.8,37.4,55.5,36.6,54.8z"/>
	<path fill="#CD5629" d="M28.1,46c-6.3,0.5-12.3,2.8-18.3,5.5c0.5,1.5,1.3,2.8,1.8,4.3c4-1.3,7.8-2.5,11.5-3.8
		c4.8-1.8,9.5-2.5,14.3-1.3c3.8,1.3,7,3,10.5,5c4.8,2.8,10.5,4.3,16.3,4.3c1.3-2,2.5-4,3.5-6.3c-6.8-1.5-13.3-3.3-20-5
		C41.1,47.3,34.6,45.5,28.1,46z"/>
	<path fill="#F9E2D1" d="M45.1,61.5c-3.7,0.4-7.3,2.3-11,2.8c-4.3,0.8-8.8-1-13.3-1.8c-1.5-0.3-3-0.3-4.5-0.3
		c5.5,6.3,13.8,10,22.8,10c7,0,13.5-2.3,18.8-6.3C53.9,63.5,49.6,61,45.1,61.5z"/>
	<polyline fill="#151A2C" points="39.1,72.3 39.1,72.3 39.1,72.3 39.1,72.3 39.1,72.3 39.1,72.3 	"/>
	<polyline fill="#A5956F" points="39.1,72.3 39.1,72.3 39.1,72.3 39.1,72.3 	"/>
	<polyline fill="#A5956F" points="39.4,72.3 39.4,72.3 39.4,72.3 	"/>
	<path fill="#151A2C" d="M39.1,72.3L39.1,72.3L39.1,72.3L39.1,72.3 M39.1,72.3c-0.3,0-0.3,0-0.3,0l0,0
		C38.9,72.3,38.9,72.3,39.1,72.3"/>
	<path fill="#A5956F" d="M39.1,72.3L39.1,72.3L39.1,72.3c-0.3,0-0.3,0-0.3,0C39.1,72.3,39.1,72.3,39.1,72.3"/>
	<polyline fill="#A5956F" points="39.4,72.3 39.4,72.3 39.4,72.3 	"/>
	<polyline fill="#151A2C" points="38.9,72.3 38.9,72.3 38.9,72.3 38.9,72.3 	"/>
	<polyline fill="#A5956F" points="38.9,72.3 38.9,72.3 38.9,72.3 38.9,72.3 	"/>
	<polyline fill="#A5956F" points="39.4,72.3 39.6,72.3 39.4,72.3 	"/>
	<polyline fill="#151A2C" points="38.9,72.3 38.9,72.3 38.9,72.3 38.9,72.3 	"/>
	<polyline fill="#A5956F" points="38.9,72.3 38.9,72.3 38.9,72.3 38.9,72.3 	"/>
	<polyline fill="#A5956F" points="39.6,72.3 39.6,72.3 39.6,72.3 	"/>
	<path fill="#151A2C" d="M38.9,72.3c-0.3,0-0.3,0-0.3,0l0,0H38.9"/>
	<polyline fill="#A5956F" points="38.6,72.3 38.6,72.3 38.6,72.3 38.6,72.3 	"/>
	<polyline fill="#151A2C" points="38.6,72.3 38.6,72.3 38.6,72.3 38.6,72.3 	"/>
	<polyline fill="#A5956F" points="38.6,72.3 38.6,72.3 38.6,72.3 38.6,72.3 	"/>
	<polyline fill="#A5956F" points="39.9,72.3 39.9,72.3 39.9,72.3 	"/>
	<polyline fill="#151A2C" points="38.6,72.3 38.6,72.3 38.6,72.3 38.6,72.3 	"/>
	<path fill="#A5956F" d="M38.6,72.3L38.6,72.3c0,0,0,0-0.3,0C38.6,72.3,38.6,72.3,38.6,72.3"/>
	<polyline fill="#A5956F" points="39.9,72.3 39.9,72.3 39.9,72.3 	"/>
	<path fill="#A5956F" d="M39.9,72.3h0.3H39.9 M38.4,72.3L38.4,72.3L38.4,72.3"/>
	<polyline fill="#A5956F" points="40.1,72.3 40.1,72.3 40.1,72.3 	"/>
	<path fill="#A5956F" d="M40.1,72.3L40.1,72.3L40.1,72.3 M38.1,72.3L38.1,72.3L38.1,72.3"/>
	<polyline fill="#A5956F" points="40.4,72.3 40.4,72.3 40.4,72.3 	"/>
	<polyline fill="#A5956F" points="40.4,72.3 40.4,72.3 40.4,72.3 	"/>
	<polyline fill="#A5956F" points="40.6,72.3 40.6,72.3 40.6,72.3 	"/>
	<path fill="#A5956F" d="M40.6,72.3L40.6,72.3L40.6,72.3L40.6,72.3 M40.9,72.3L40.9,72.3L40.9,72.3 M40.9,72.3L40.9,72.3L40.9,72.3
		 M40.9,72.3c0.3,0,0.3,0,0.3,0S41.1,72.3,40.9,72.3 M41.1,72.3c6.3-0.5,12-2.8,16.8-6.3c-2.5-1.5-5-3-7.8-4c1.5-1,3-2,4.5-3.3
		c2.8,0.8,5.8,1.3,8.5,1.3c0.3,0,0.5,0,1,0c1.3-2,2.5-4,3.5-6.3c-2.5-0.5-5-1.3-7.5-1.8c0.8-1.5,1.8-3,2.3-4.8c0.5,0,0.8,0,1.3,0
		c2,0,4,0,6-0.5C67.1,60.8,55.6,71.3,41.1,72.3 M69.6,46.8L69.6,46.8L69.6,46.8 M69.6,46.8L69.6,46.8L69.6,46.8 M69.6,46.8
		c0-0.3,0.3-0.3,0.3-0.3S69.6,46.5,69.6,46.8 M69.9,46.5L69.9,46.5L69.9,46.5 M69.9,46.5L69.9,46.5L69.9,46.5 M69.9,46.3L69.9,46.3
		L69.9,46.3 M69.9,46.3L69.9,46.3L69.9,46.3 M69.9,46L69.9,46L69.9,46 M69.9,46L69.9,46L69.9,46 M69.9,46L69.9,46L69.9,46
		 M69.9,45.8L69.9,45.8L69.9,45.8 M70.1,39.8c0-1.3-0.3-2.5-0.3-3.5c-2,0.3-3.8,0.8-5.5,1c0-0.3,0-0.5,0-0.8c0-2.5-0.3-5-0.8-7.3
		c1.3-0.3,2.5-0.5,3.8-1C68.9,31.8,69.9,35.8,70.1,39.8 M59.6,20.5c-1.3-2.3-3-4.3-4.8-6c2.5,1.5,4.8,3.3,6.8,5.5
		C61.1,20.3,60.4,20.3,59.6,20.5"/>
	<path fill="#D8BEA0" d="M63.6,29.3c-1-3.3-2.3-6.3-4-8.8c0.8-0.3,1.5-0.3,2-0.5c2.5,2.5,4.3,5.3,5.8,8.3
		C66.1,28.8,64.9,29,63.6,29.3"/>
	<path fill="#D7711B" d="M63.6,47.3c-0.5,0-0.8,0-1.3,0c1.3-3,2-6.5,2-10c1.8-0.3,3.5-0.8,5.5-1c0,1,0.3,2.3,0.3,3.5
		c0,0.5,0,1,0,1.5c0,1.5,0,3-0.3,4.5l0,0V46l0,0l0,0l0,0l0,0l0,0c0,0.3,0,0.3,0,0.3l0,0l0,0l0,0c0,0.3,0,0.3,0,0.3l0,0l0,0
		c0,0,0,0-0.3,0l0,0c0,0,0,0,0,0.3l0,0l0,0l0,0l0,0l0,0C67.6,47.3,65.6,47.3,63.6,47.3z"/>
	<path fill="#B14A21" d="M63.1,60c-2.8,0-5.8-0.5-8.5-1.3c2-2,4-4.3,5.5-6.8c2.5,0.5,5,1.3,7.5,1.8c-1,2.3-2.3,4.3-3.5,6.3
		C63.6,60,63.4,60,63.1,60"/>
	<path fill="#A5956F" d="M19.1,62.3c-0.8,0-1.5,0-2.3,0c-0.3,0-0.3,0-0.5,0c-1.5-1.8-2.8-3.5-4-5.5C14.4,59,16.6,60.8,19.1,62.3"/>
	<path fill="#D8BEA0" d="M39.1,72.3L39.1,72.3L39.1,72.3L39.1,72.3L39.1,72.3c0,0,0,0-0.3,0l0,0l0,0l0,0l0,0l0,0l0,0l0,0l0,0h-0.3
		l0,0l0,0l0,0l0,0l0,0l0,0c0,0,0,0-0.3,0l0,0l0,0c0,0,0,0-0.3,0l0,0c-8.5-0.3-16.3-4-21.8-10c0.3,0,0.3,0,0.5,0c0.8,0,1.5,0,2.3,0
		c4.5,2.8,9.8,4.3,15.3,4.3c5.8,0,11.3-1.8,15.8-4.5c2.8,1,5.3,2.5,7.8,4c-4.8,3.5-10.5,5.8-16.8,6.3l0,0c0,0,0,0-0.3,0l0,0l0,0l0,0
		l0,0c0,0,0,0-0.3,0l0,0l0,0l0,0l0,0l0,0l0,0l0,0l0,0c-0.3,0-0.3,0-0.3,0l0,0l0,0l0,0l0,0l0,0l0,0l0,0l0,0l0,0c0,0,0,0-0.3,0l0,0
		l0,0l0,0l0,0l0,0l0,0l0,0l0,0l0,0h-0.3l0,0l0,0l0,0l0,0l0,0l0,0l0,0l0,0l0,0h-0.3l0,0l0,0l0,0l0,0l0,0l0,0l0,0l0,0l0,0h-0.3l0,0
		l0,0l0,0l0,0l0,0l0,0l0,0l0,0l0,0H39.1L39.1,72.3z"/>
	<path fill="#F9E2D1" d="M36.9,13.8c0-0.3,0-0.3,0-0.3c0.3-0.3,0.3-0.3,0.3-0.3c1.3-0.3,2.5-0.3,3.8-0.3c1-0.3,1.8-0.3,2.8-0.3
		c0.5,0,1,0,1.8,0c0,0.3,0,0.3,0,0.3c1.5,0.5,6.3,2.5,4.5,4.8c-2,2.3-7.5,0.8-9.8-0.5c-0.8-0.3-1.5-0.8-2.3-1.5
		c-0.3-0.3-0.5-0.8-0.8-1C37.1,14.5,36.9,14,36.9,13.8L36.9,13.8z"/>
</g>
</svg>
