<?xml version="1.0" encoding="utf-8"?>
<!-- Generator: Adobe Illustrator 16.0.4, SVG Export Plug-In . SVG Version: 6.00 Build 0)  -->
<!DOCTYPE svg PUBLIC "-//W3C//DTD SVG 1.0//EN" "http://www.w3.org/TR/2001/REC-SVG-20010904/DTD/svg10.dtd">
<svg version="1.0" id="Layer_1" xmlns="http://www.w3.org/2000/svg" xmlns:xlink="http://www.w3.org/1999/xlink" x="0px" y="0px"
	 width="100px" height="200px" viewBox="0 0 100 200" enable-background="new 0 0 100 200" xml:space="preserve">
<path fill="#00A138" d="M62.076,123.426c-13.095,0-21.437-10.088-21.437-23.377c0-13.386,8.342-23.377,21.437-23.377
	c12.998,0,21.438,9.991,21.438,23.377C83.514,113.338,75.074,123.426,62.076,123.426z M62.076,66.583
	c-17.363,0-30.167,11.349-32.688,27.548H19.009V67.65H7.659v64.699h11.35v-28.228h10.184c1.843,17.267,14.841,29.392,32.883,29.392
	c19.4,0,33.077-14.162,33.077-33.465C95.153,80.746,81.477,66.583,62.076,66.583z"/>
</svg>
