<?xml version="1.0" encoding="utf-8"?>
<!-- Generator: Adobe Illustrator 16.0.4, SVG Export Plug-In . SVG Version: 6.00 Build 0)  -->
<!DOCTYPE svg PUBLIC "-//W3C//DTD SVG 1.0//EN" "http://www.w3.org/TR/2001/REC-SVG-20010904/DTD/svg10.dtd">
<svg version="1.0" id="Layer_1" xmlns="http://www.w3.org/2000/svg" xmlns:xlink="http://www.w3.org/1999/xlink" x="0px" y="0px"
	 width="100px" height="200px" viewBox="0 0 100 200" enable-background="new 0 0 100 200" xml:space="preserve">
<path fill="#00A138" d="M45.15,66.583c-13.095,0-21.146,6.79-25.996,14.55l9.7,4.947c3.104-5.335,9.312-9.409,16.296-9.409
	c10.961,0,19.497,7.178,21.729,17.751H32.541v9.991h34.532c-1.746,11.252-10.573,19.013-21.922,19.013
	c-6.984,0-13.192-3.978-16.296-9.409l-9.7,4.947c4.947,7.76,12.901,14.55,25.996,14.55c19.109,0,33.95-13.58,33.95-33.465
	C79.101,80.164,64.26,66.583,45.15,66.583z"/>
</svg>
