<?xml version="1.0" encoding="utf-8"?>
<!-- Generator: Adobe Illustrator 16.0.0, SVG Export Plug-In . SVG Version: 6.00 Build 0)  -->
<!DOCTYPE svg PUBLIC "-//W3C//DTD SVG 1.1//EN" "http://www.w3.org/Graphics/SVG/1.1/DTD/svg11.dtd">
<svg version="1.1" id="Layer_1" xmlns="http://www.w3.org/2000/svg" xmlns:xlink="http://www.w3.org/1999/xlink" x="0px" y="0px"
	 width="302px" height="258px" viewBox="0 0 302 258" enable-background="new 0 0 302 258" xml:space="preserve">
<g>
	<path fill="#302F2F" d="M227.8,53.6c0,0-1.5-29.3-4-34c0,0-5.5-7.3-11.5-10.3c-3,11.3-3,11.3-3,11.3s7.3,1.5,8,6.8
		c3,28.3,3,28.3,3,28.3C227.8,53.6,227.8,53.6,227.8,53.6z"/>
	<polygon fill="#464547" points="235,52.6 212.5,53.6 218.5,109.8 233.8,109.8 235,52.6 	"/>
	<path fill="#E91F2B" d="M35,209.6c18.5,12.8,49.3,10.5,70.5,11.5c11.5,0.5,23.3,1.3,35,1.8c37.8,1.8,76.5,2.5,113-3.5
		c7-1,19.5-3.8,24-9.8c3.5-4.3,3.5-16.3,3.8-23c0.5-11.5,2-23.5,0.3-34.8c-2.3-14.3-1-26.5-14.8-34.2c-20.3-11.5-52-12-75.3-13.8
		c-6.8-0.5-13.8-0.8-20.5-1c-4.3,0-8.3-0.3-12.5-0.3c-2,0-4.5,0-7,0.3c0,0.5,0,1.3-0.3,1.8c0,0.5-0.3,0.8-0.5,1
		c-3.3,6-14,6-19.5,6.3c-6.3,0.3-12.5,1.5-18.8,2.5c-9.3,1.8-18.5,3-28,0.5c-9.8-2.5-20.8-6.3-27.8-14c-1-1-1.8-2-2.3-3
		c-3,0.5-5.8,1-8.5,2c-12,3.8-14.3,14.3-14.8,25.8c0,5.3,0,10.7,0,15.7v0.3c-0.5,13,0.8,26.5-1.5,39.3
		C28.3,190.1,25.5,203.1,35,209.6z"/>
	<path fill="#9E1B22" d="M36.5,209.6c21.8,12.8,58,10.5,83.5,11.5c13.5,0.5,27.3,1.3,41.3,1.8c1.8-8.5,0-19,0-24.3
		c-0.3-21-13.5-37-31.5-51.5s-42.8-19.2-66-22.5c-12.3-1.5-22.5-1.3-31.8,1c-0.3,5.3,0,10.7-0.3,15.7v0.3c-0.8,13,0.8,26.5-1.5,39.3
		C28.3,190.1,25,203.1,36.5,209.6z"/>
	<path fill="#291B1C" d="M56.3,98.6c-0.8-8-0.3-16.3-0.8-22.3c-0.3-4.8-2.3-18.8,7-12.8c5.3,3.3,6.3,16.3,7,21.5l0,0
		c2.5,15.3,4.3,20.8,20.8,23c5.8,0.8,13.8-1,19.3,1c7.3,2.5,8,8.5,1.5,12.5c-9.8,5.8-38.8,4.5-47.5-3.5
		C58.5,113.6,56.8,106.3,56.3,98.6z"/>
	<path fill="#291B1C" d="M95.5,83.8L95.5,83.8c-3.3-7.3,3-14,6-20.5c3.8-7.5,15-16.8,12.3-2C112.5,67.3,103.3,84.6,95.5,83.8z"/>
	<path fill="#291B1C" d="M113.3,80.3c0,0,0,0,0.5,0.5c0.3,0.3,0.8,0.8,1.3,1.5c0.5,0.5,1,1.3,1.8,2c0.5,0.8,1.3,1.8,1.8,2.5
		c0.8,0.8,1.3,1.8,2,2.5c0.3,0.3,0.5,0.8,0.8,1c0.3,0.5,0.5,0.8,0.8,1.3c0.8,1.3,1.3,2,1.3,2c10.8-6.8,10.8-6.8,10.8-6.8
		s-0.5-1-1.5-2.5c-0.3-0.3-0.5-0.8-0.8-1.3c-0.5-0.3-0.8-0.8-1-1.3c-0.8-1-1.3-1.8-2-2.8s-1.5-1.8-2.3-2.8c-0.8-0.8-1.3-1.5-1.8-2.3
		c-0.8-0.8-1.3-1.3-1.5-1.5c-0.3-0.5-0.5-0.8-0.5-0.8C113.3,80.3,113.3,80.3,113.3,80.3z"/>
	<path fill="#291B1C" d="M104.3,70.8c0,0,0.8,0.8,1.8,1.8s2.3,2.3,3.5,3.8c1.3,1.3,2.5,2.5,3.5,3.8c0.8,1,1.5,1.8,1.5,1.8
		c4.8-4.3,4.8-4.3,4.8-4.3s-0.5-0.8-1.5-1.8c-1-1.3-2.3-2.5-3.5-4c-1.5-1.3-2.8-2.8-3.8-3.8s-1.8-1.8-1.8-1.8
		C104.3,70.8,104.3,70.8,104.3,70.8z"/>
	<path fill="#211C1D" d="M135.5,69.6c-1.5,1.8-8,6.3-10.3,10.5c-2.3,4.8-2,10.5-2.5,15.8c-1,12.3,3.8,22.5,16.8,27
		c7.8,2.8,15.8,1.5,22.3-3.8c6.3-5,5.3-8.3,1.8-15.5c-2.5-5.5-23-36.8-27.3-34.8C135.5,69.6,135.5,69.6,135.5,69.6z"/>
	<path fill="#9E1B22" d="M52,74.6c0-10-8.3-39,3.5-45c6.3-3.3,15.5-0.8,22-0.3c8.5,0.8,17.5,2.8,25.3,6c11.3,4.5,18,13,23.8,23.3
		c6.3,11,14,20.5,19.5,31.5c2,3.8,5.5,8.5,5.5,12.8c0,1-0.3,2-0.8,2.8c-3.3,6-14,6-19.5,6.3c-15.8,0.8-31,7-46.8,3
		c-9.3-2.5-20.5-5.8-27.3-13.3c0-0.3-0.3-0.5-0.5-0.8C50.5,93.1,52,83.8,52,74.6L52,74.6z M30.8,134.8c0,2.5,0,4.8,0.5,6.8
		c2,14.8,11.3,17.3,28.8,22c30,8.3,71.3,8.8,100.5-3.3c5-2,9.5-3.5,14.3-4.8c-3.8-52.7-3.8-52.7-3.8-52.7c-0.3-1.3-0.3-1.3-0.3-1.3
		c-20.5-32.5-37.8-77.5-81-82.3c-8-0.8-16,0.5-24,0c-6.8-0.3-15.5-2.5-21.5,1c-11.3,7-8.3,24.8-9.8,35.8
		C31,81.8,30.8,109.3,30.8,134.8z"/>
	<path fill="#9E1B22" d="M247,141.3c-0.5,4.8-1.8,15.5-5.3,7c-2-4.8-1.5-14.8-1.3-20c0-4.5,0.8-9,4.3-6
		C248.8,126.1,247.8,136.1,247,141.3z"/>
	<path fill="#9E1B22" d="M261.3,141.3c-0.5,4.8-2,15.5-5.5,7c-1.8-4.8-1.3-14.8-1.3-20c0-4.5,1-9,4.3-6
		C263,126.1,261.8,136.1,261.3,141.3z"/>
	<path fill="#9E1B22" d="M234.5,141.3c-0.5,4.8-2,15.5-5.5,7c-1.8-4.8-1.3-14.8-1.3-20c0-4.5,1-9,4.3-6
		C236.3,126.1,235,136.1,234.5,141.3z"/>
	<path fill="#464547" d="M112.5,114.3c1.3,3.3,11.3,14.8,13.8,18c7.5,10,11.3,22.7,19,32.7c4.5,5.8,7.5,5,14.3,1.3
		c7.5-3.8,7.3-6.5,6.5-14c-1-9.3-4.3-17.8-6.5-26.5c-1.5-5.8-1.3-14.8-5.5-19.3c-0.8-0.8-1.7-1.5-2.8-2c0,0.5-0.3,0.8-0.5,1
		c-3.3,6-14,6-19.5,6.3C125,112.1,118.8,113.3,112.5,114.3z"/>
	<path fill="#E91F2B" d="M127,168.1c3.5,5.8,4.5,12.8,7,19c2.8,6.8,4.5,12,8.8,4c4.8-9.8-1.3-25.3-6-33.8
		c-11.3-20.5-32.8-37.2-54.5-45.7c-16-6.3-78.5-18.8-72.3,14c12,0.5,25.5-5.5,38-3.8c13.8,2.3,27.8,7.8,40.8,13.7
		C104,142.3,118.8,153.8,127,168.1z"/>
	<path fill="#9E1B22" d="M217.3,161.8c-15,5.8-27.3,18.8-31.8,34c-2,5.8-5.3,13.3,1.5,16.8c6.3,3.3,16.5-3.3,19-8.8
		c4.8-10,5.5-19.3,15.8-26c7.8-5.3,20.3-7.8,29.3-7.8c6-0.3,11.3,2.8,16.8,3.3c9.8,1,4.3-4.3-0.3-7.5
		C253.5,155.1,233.3,155.8,217.3,161.8z"/>
	<path fill="#9E1B22" d="M271,160.3c15,17.3,28-3.3,24.3-19c-2.5-12-16.8-31.2-26.5-13.5C263,138.3,263,151.1,271,160.3z"/>
	<path fill="#E7DE44" d="M284.3,162.1c-7.8-1.5-11.3-16.3-10.8-24.3c0.8-11,11.8-15.2,20.3-7c6.8,6.7,7,21,0,27.5
		C290,161.6,287,162.8,284.3,162.1z"/>
	<path fill="#211C1D" d="M91,37.6c8.8,0,17.8,0.3,26.3,0.8c5.5,0.5,14,2.3,18.5,1.8c6.8-0.8,7.5-4,5-7.8c-1-1.8-3.8-6.3-7-9.5
		c-0.3-1.3-1.3-2-2.8-3c-3-1.8-8-3.3-10.8-4.3c-6.8-2.8-14.5-4-22.3-5c-18.5-2.5-53.3-9-65.8,5.8c-0.5,0.8-0.8,1.3-1.3,2
		C15.3,43.3,73.5,37.6,91,37.6z"/>
	<path fill="#211C1D" d="M196.3,228.6c4,0,8.3,0.3,12.3,0c4.5,0,10.5,1,13-4c4.3-8.3-8.8-6.8-13-7.3c-9.5-0.8-19-0.8-28.3-1
		c-21-0.8-41.5-3.8-62.3-4.8c-6.3-0.3-20.8-1.5-19.5,8.3c1.3,11,21.5,7,28.5,6.8C150.3,225.1,173,227.3,196.3,228.6z"/>
	<path fill="#291B1C" d="M11.3,195.8c0,29.8,24,53.8,53.8,53.8s53.8-24,53.8-53.8c0-29.5-24-53.8-53.8-53.8S11.3,166.3,11.3,195.8z"
		/>
	<path fill="#291B1C" d="M21.3,214.3c0,0,0-0.3-0.3-0.8c0-0.3-0.3-0.5-0.3-0.8s-0.3-0.5-0.3-0.8c0,0-0.3-0.3-0.3-0.5
		c0-0.5-0.3-0.8-0.5-1.3c0-0.5-0.3-1-0.3-1.5c-0.3-0.5-0.3-0.8-0.3-1c-0.3-0.3-0.3-0.5-0.3-0.8c-0.3-0.5-0.3-1.3-0.5-1.8
		c0-0.5-0.3-1.3-0.3-1.8c0,0,0-0.3,0-0.5v-0.3c-0.3-0.3-0.3-0.8-0.3-1c-0.3-1-0.3-2-0.3-3c0-0.3,0-0.8,0-1.3c0-0.3,0-0.5,0-0.8
		c0-0.5,0-1,0-1c-12.8,0-12.8,0-12.8,0s0,0.5,0,1.3c0,0.3,0,0.5,0,1s0,1,0,1.5c0,1.3,0.3,2.5,0.5,4c0,0.3,0,0.8,0,1s0,0.3,0,0.5
		c0.3,0.3,0.3,0.5,0.3,0.5c0,0.8,0.3,1.5,0.3,2.3c0.3,0.8,0.5,1.5,0.5,2.3c0.3,0.3,0.3,0.8,0.3,1c0.3,0.5,0.3,0.8,0.3,1
		c0.3,0.8,0.5,1.5,0.8,2s0.3,1.3,0.5,1.8c0,0.3,0.3,0.5,0.3,0.8c0.3,0.3,0.3,0.5,0.3,0.8c0.3,0.3,0.3,0.8,0.5,1c0.3,0.8,0.3,1,0.3,1
		C21.3,214.3,21.3,214.3,21.3,214.3z"/>
	<path fill="#291B1C" d="M28.8,226.3c0,0,0,0-0.3,0c0-0.3,0-0.3-0.3-0.5s-0.8-0.8-1-1.5c-0.3-0.3-0.5-0.5-0.8-1
		c-0.3-0.3-0.5-0.8-1-1c-0.5-1-1-1.8-1.5-2.5c-0.3-0.5-0.5-1-0.8-1.5s-0.5-0.8-0.8-1.3c0-0.3,0-0.5-0.3-0.8c0,0-0.3-0.3-0.3-0.5
		c-0.3-0.5-0.3-0.8-0.5-1.3c-0.3-0.3-0.3-0.5-0.5-0.8c0-0.5,0-0.8-0.3-0.8c0-0.5-0.3-0.8-0.3-0.8c-6,2.3-6,2.3-6,2.3
		s0.3,0.3,0.3,0.8c0.3,0.3,0.3,0.5,0.5,0.8c0,0.3,0.3,0.8,0.5,1.3c0,0.3,0.3,0.8,0.5,1.3c0,0.3,0.3,0.5,0.3,0.5
		c0.3,0.3,0.3,0.5,0.5,0.8c0.3,0.5,0.5,1,0.8,1.5s0.5,1,0.8,1.5c0.5,1,1.3,2,1.8,3c0.3,0.5,0.8,0.8,1,1.3s0.5,0.8,0.8,1.3
		c0.5,0.5,1,1.3,1.3,1.5s0.5,0.5,0.5,0.5v0.3C28.8,226.3,28.8,226.3,28.8,226.3z"/>
	<path fill="#291B1C" d="M43.5,238.1c0,0-0.3,0-0.8-0.3s-1.3-0.8-2-1.3c-0.3,0-0.8-0.5-1.3-0.8c0,0-0.3-0.3-0.5-0.3
		c-0.3-0.3-0.5-0.3-0.8-0.5c-0.5-0.3-1-0.8-1.3-1c-0.5-0.3-1-0.8-1.5-1c-1.8-1.5-3.5-3.3-4.8-4.5c-0.3-0.3-0.8-0.5-1-0.8
		c0-0.5-0.3-0.5-0.5-0.8c-0.3-0.5-0.5-0.8-0.5-0.8c-9.8,8.3-9.8,8.3-9.8,8.3s0.3,0.3,0.8,0.8c0,0.3,0.3,0.5,0.8,1
		c0.3,0.3,0.5,0.8,1,1c1.5,1.8,3.8,3.8,6,5.5c0.8,0.5,1.3,1,1.8,1.5c0.8,0.5,1.3,0.8,1.8,1.3c0.3,0.3,0.8,0.5,1,0.5
		c0.3,0.3,0.5,0.5,0.8,0.5c0.5,0.5,1,0.8,1.5,1c1,0.5,1.8,1,2.5,1.5c0.5,0.3,0.8,0.3,0.8,0.3C43.5,238.1,43.5,238.1,43.5,238.1z"/>
	<path fill="#291B1C" d="M56.8,242.6c0,0-0.3,0-0.8,0c0-0.3-0.5-0.3-0.8-0.3s-0.5-0.3-1-0.3c-0.3,0-0.8-0.3-1.3-0.3
		c-0.3-0.3-0.8-0.3-1.3-0.5c-0.3,0-0.5,0-0.8,0c-0.3-0.3-0.5-0.3-0.8-0.3c-0.5-0.3-0.8-0.5-1.3-0.5c-0.5-0.3-1-0.5-1.5-0.5
		c-0.5-0.3-1-0.5-1.5-0.8c-0.8-0.3-1.5-0.8-2.3-1c-0.3-0.3-0.8-0.5-1-0.5l-0.3-0.3c-0.3,0-0.3,0-0.5-0.3s-0.5-0.3-0.5-0.3
		c-3.3,5.5-3.3,5.5-3.3,5.5s0.3,0.3,0.8,0.5c0.3,0,0.3,0,0.5,0.3h0.3c0.5,0.3,0.8,0.5,1.3,0.8c0.8,0.3,1.5,0.8,2.5,1.3
		c0.5,0.3,1,0.3,1.5,0.5c0.8,0.3,1.3,0.5,1.8,0.8c0.5,0,1,0.3,1.5,0.5c0.5,0,0.8,0.3,1,0.3s0.5,0.3,0.8,0.3c0.5,0,1,0.3,1.5,0.5
		c0.5,0,1,0,1.3,0.3c0.5,0,1,0.3,1.3,0.3s0.8,0,1,0.3c0.5,0,0.8,0,0.8,0C56.8,242.6,56.8,242.6,56.8,242.6z"/>
	<path fill="#291B1C" d="M75.5,242.1c0,0-0.3,0-0.8,0.3c-0.5,0-1.3,0.3-2,0.5c-0.5,0-1,0-1.5,0c-0.5,0.3-1,0.3-1.5,0.3
		c-1.3,0-2.3,0.3-3.5,0.3s-2.5,0-3.5,0c-0.5,0-1-0.3-1.5-0.3s-1,0-1.5,0c-1-0.3-1.8-0.3-2.3-0.3c-0.5-0.3-0.8-0.3-0.8-0.3
		c-2.3,12.5-2.3,12.5-2.3,12.5s0.5,0.3,1,0.3c0.8,0,1.8,0.3,2.8,0.3c0.5,0.3,1.3,0.3,1.8,0.3c0.8,0,1.5,0.3,2.3,0.3
		c1.3,0,2.8,0,4.3,0s3-0.3,4.5-0.3c0.5,0,1.3-0.3,2-0.3c0.5,0,1.3-0.3,1.8-0.3c1-0.3,2-0.5,2.8-0.5c0.5-0.3,1-0.3,1-0.3
		C75.5,242.1,75.5,242.1,75.5,242.1z"/>
	<path fill="#291B1C" d="M88.8,237.1c0,0-0.3,0-0.8,0.3c-0.3,0.3-0.8,0.5-1.5,0.8c-1.5,0.8-3.3,1.8-5.3,2.5
		c-1.8,0.5-3.8,1.3-5.3,1.5c-0.8,0.3-1.5,0.3-1.8,0.3c-0.5,0.3-0.8,0.3-0.8,0.3c1,6.3,1,6.3,1,6.3s0.3,0,0.8-0.3
		c0.5,0,1.3-0.3,2.3-0.3c1.5-0.5,3.8-1.3,6-2s4.3-1.8,5.8-2.5c1-0.3,1.5-0.8,2-1s0.8-0.3,0.8-0.3C88.8,237.1,88.8,237.1,88.8,237.1z
		"/>
	<path fill="#291B1C" d="M102.8,224.6c0,0-0.3,0.3-0.5,0.5c0,0.3-0.3,0.5-0.5,0.8c-0.3,0.5-0.5,0.8-0.8,1c-1.3,1.5-2.8,3-4.8,4.8
		c-1.8,1.5-3.5,2.8-5,3.8c-0.8,0.5-1.5,1-1.8,1.3c-0.5,0.3-0.8,0.5-0.8,0.5c6.3,11,6.3,11,6.3,11s0.5-0.3,1-0.5
		c0.5-0.5,1.3-1,2.3-1.5c2-1.3,4.3-3,6.5-5s4.5-4.3,5.8-6c0.5-0.3,0.8-0.8,1-1c0.3-0.5,0.5-0.8,0.8-1c0.5-0.5,0.8-0.8,0.8-0.8
		C102.8,224.6,102.8,224.6,102.8,224.6z"/>
	<path fill="#291B1C" d="M109.5,212.1v0.3c0,0,0,0.3-0.3,0.5c0,0.5-0.3,1-0.5,1.8c-0.3,0.3-0.5,0.8-0.8,1c0,0.5-0.3,1-0.5,1.3
		c-0.3,0.5-0.5,1-0.8,1.5c0,0-0.3,0.3-0.3,0.5c-0.3,0.3-0.3,0.5-0.5,0.8c-0.5,0.8-1,1.8-1.5,2.5c-0.3,0.5-0.5,0.8-0.8,1.3
		c-0.3,0.3-0.5,0.5-0.8,1c-0.5,0.5-0.8,1-1,1.5c-0.3,0-0.3,0.3-0.5,0.3c0,0.3,0,0.3,0,0.3c4.8,4,4.8,4,4.8,4s0.3,0,0.3-0.3l0.3-0.3
		c0.5-0.5,0.8-1,1.5-1.8c0.3-0.3,0.5-0.8,0.8-1.3c0.3-0.3,0.5-0.8,0.8-1.3c0.8-0.8,1.3-1.8,2-2.8c0-0.3,0.3-0.5,0.3-0.8
		c0.3-0.3,0.3-0.5,0.5-0.8c0.3-0.5,0.5-1,0.8-1.5s0.5-1,0.8-1.5c0-0.5,0.3-1,0.5-1.3c0.3-0.8,0.5-1.5,0.8-2c0-0.3,0.3-0.5,0.3-0.5
		c0-0.3,0-0.3,0-0.3C109.5,212.1,109.5,212.1,109.5,212.1z"/>
	<path fill="#291B1C" d="M112.3,193.6c0,0,0,0.3,0,0.8c0.3,0.3,0.3,0.8,0.3,1s0,0.3,0,0.5s0,0.5,0,0.8c-0.3,0.8-0.3,2-0.3,3
		c0,0.3,0,0.5,0,0.8s0,0.3,0,0.5s-0.3,0.3-0.3,0.5c0,0.5,0,1,0,1.8c-0.3,0.5-0.3,1-0.5,1.8c0,0.3,0,0.5,0,0.8
		c-0.3,0.3-0.3,0.5-0.3,0.8c-0.3,0.8-0.3,1.3-0.5,1.8c0,0.5-0.3,0.8-0.3,1.3c0,0.3-0.3,0.5-0.3,0.8c0,0,0,0.3-0.3,0.5
		c0,0.3,0,0.5-0.3,0.8c0,0.5-0.3,0.8-0.3,0.8c12,4.5,12,4.5,12,4.5s0.3-0.5,0.3-1c0.3-0.3,0.3-0.8,0.5-1.3c0-0.3,0.3-0.3,0.3-0.5
		s0-0.5,0.3-1c0-0.5,0.3-1,0.5-1.8c0-0.5,0.3-1.3,0.5-1.8c0-0.5,0-0.8,0.3-1.3c0-0.3,0-0.5,0-1c0.3-0.8,0.3-1.5,0.5-2.3
		c0-0.8,0.3-1.5,0.3-2.3c0,0,0-0.3,0-0.5s0-0.3,0.3-0.5c0-0.3,0-0.8,0-1c0-1.5,0-2.8,0.3-4c0-0.3,0-0.5,0-0.8s0-0.5,0-0.8
		c-0.3-0.3-0.3-0.8-0.3-1c0-0.8,0-1.3,0-1.3C112.3,193.6,112.3,193.6,112.3,193.6z"/>
	<path fill="#291B1C" d="M109.5,179.8c0,0,0.3,0.3,0.3,0.5s0.3,0.5,0.3,0.8c0.3,0.5,0.3,0.8,0.3,1c0.5,1.5,1,3.5,1.5,5.5
		c0.3,2,0.5,4,0.5,5.5c0,0.5,0,0.8,0,1.3c0,0.3,0.3,0.5,0.3,0.8c0,0.5,0,0.8,0,0.8c6.3,0,6.3,0,6.3,0s0-0.5,0-1c0-0.3,0-0.5,0-0.8
		c0-0.5,0-0.8,0-1.3s-0.3-1-0.3-1.5s0-1,0-1.5c-0.3-0.5-0.3-1-0.3-1.5c0-0.3,0-0.5,0-0.5c-0.3-0.5-0.3-0.5-0.3-0.5
		c0-0.3,0-0.5,0-0.8c-0.5-2.3-1-4.5-1.5-6.3c-0.3-0.5-0.3-0.8-0.5-1.3c0-0.3,0-0.5-0.3-0.8c0-0.5-0.3-0.8-0.3-0.8
		C109.5,179.8,109.5,179.8,109.5,179.8z"/>
	<path fill="#291B1C" d="M99.8,163.8c0,0,0,0,0.3,0c0,0.3,0.3,0.3,0.3,0.5c0.5,0.5,1,1,1.5,1.5c1,1.5,2.5,3.5,3.8,5.5
		c0.3,0.5,0.5,1,0.8,1.5c0.3,0.3,0.5,0.5,0.5,0.8c0.3,0.3,0.3,0.5,0.5,0.8c0,0.3,0.3,0.5,0.3,0.8c0.3,0.3,0.3,0.5,0.3,0.5
		c0.3,0.5,0.5,1,0.8,1.5c0,0,0.3,0.3,0.3,0.5s0,0.3,0.3,0.5c0,0.3,0.3,0.8,0.3,1s0.3,0.3,0.3,0.5v0.3c12-4.5,12-4.5,12-4.5
		s0,0,0-0.3c0,0-0.3-0.3-0.3-0.8c-0.3-0.3-0.3-0.5-0.5-1c0-0.3-0.3-0.5-0.3-0.8c-0.3-0.3-0.3-0.5-0.3-0.8c-0.3-0.5-0.5-1-0.8-1.5
		s-0.5-0.8-0.5-1c-0.3-0.3-0.3-0.5-0.5-1c-0.3-0.3-0.3-0.5-0.5-0.8c-0.3-0.5-0.3-0.8-0.5-1c-0.5-0.8-0.8-1.3-1.3-2
		c-1.5-2.5-3.3-5-4.8-6.8c-0.8-0.8-1.3-1.5-1.8-2c-0.3-0.3-0.3-0.5-0.5-0.5c0-0.3-0.3-0.3-0.3-0.3C99.8,163.8,99.8,163.8,99.8,163.8
		z"/>
	<path fill="#291B1C" d="M88.8,154.8c0,0,0.3,0.3,0.5,0.5c0.3,0,0.5,0.3,0.8,0.3c0.3,0.3,0.5,0.5,1,0.8s1.3,0.8,2,1.5
		c0.5,0.3,0.8,0.5,1.3,0.8c0.3,0.3,0.3,0.3,0.5,0.5s0.5,0.3,0.8,0.5c0.8,0.8,1.5,1.3,2.3,2c0.3,0.3,0.5,0.8,1,1
		c0.3,0.3,0.5,0.5,0.8,0.8c0.3,0.5,0.5,0.8,0.8,1c0.3,0,0.3,0.3,0.5,0.5s0.5,0.5,0.5,0.5c4.8-4,4.8-4,4.8-4s0-0.3-0.5-0.8
		c0-0.3-0.3-0.3-0.5-0.8c-0.3-0.3-0.5-0.5-0.8-0.8c-0.5-0.3-0.8-0.8-1-1c-0.5-0.3-0.8-0.8-1.3-1c-0.8-0.8-1.8-1.5-2.5-2.3
		c-0.3-0.3-0.5-0.5-0.8-0.8c-0.3,0-0.5-0.3-0.5-0.5c-0.5-0.3-1-0.8-1.5-1c-0.8-0.5-1.8-1.3-2.5-1.8c-0.3-0.3-0.5-0.3-1-0.5
		c-0.3-0.3-0.5-0.5-0.8-0.5c-0.3-0.3-0.5-0.5-0.5-0.5C88.8,154.8,88.8,154.8,88.8,154.8z"/>
	<path fill="#291B1C" d="M71,148.8c0,0,0.3,0.3,0.8,0.3s1.3,0.3,2,0.3c0.3,0,0.5,0.3,0.8,0.3s0.5,0,0.8,0c0.5,0.3,1,0.3,1.5,0.5
		c0.5,0,1.3,0.3,1.8,0.5c0.3,0,0.5,0,0.8,0.3c0.3,0,0.5,0,0.8,0.3c1.3,0.3,2.3,0.8,3.3,1.3c0.5,0.3,1,0.3,1.5,0.5
		c0.3,0.3,0.5,0.3,0.8,0.3c0.3,0.3,0.5,0.3,0.5,0.5c0.5,0.3,0.8,0.3,1.3,0.5c0,0,0.3,0.3,0.5,0.3c0,0,0.3,0,0.3,0.3
		c0.5,0.3,0.8,0.3,0.8,0.3c6.3-11,6.3-11,6.3-11s-0.3-0.3-0.8-0.5c-0.3,0-0.3-0.3-0.5-0.3s-0.5-0.3-0.5-0.3c-0.5-0.3-1-0.5-1.5-0.8
		c-0.3,0-0.5-0.3-0.8-0.3c-0.3-0.3-0.5-0.3-0.8-0.5c-0.8-0.3-1.3-0.5-2-0.8c-1.3-0.5-2.8-1.3-4-1.8c-0.5,0-0.8,0-1.3-0.3
		c-0.3,0-0.5-0.3-1-0.3c-0.8-0.3-1.3-0.5-2-0.8c-0.8,0-1.5-0.3-2-0.3c-0.3-0.3-0.8-0.3-1-0.3s-0.5-0.3-0.8-0.3
		c-1.3-0.3-2-0.3-2.8-0.5c-0.8,0-1,0-1,0C71,148.8,71,148.8,71,148.8z"/>
	<path fill="#291B1C" d="M56.8,149.3c0,0,0.3,0,0.8-0.3c0.3,0,0.5,0,0.8,0s0.8,0,1-0.3c1.5,0,3.8-0.3,5.8-0.3c0.5,0,1,0,1.5,0
		s1,0,1.5,0s1,0.3,1.3,0.3s0.5,0,0.8,0s0.3,0,0.5,0c0.8,0.3,1.5,0.3,2,0.3c0.3,0.3,0.5,0.3,0.5,0.3c1.3-6.3,1.3-6.3,1.3-6.3
		s-0.5-0.3-1-0.3s-1-0.3-2-0.3c-0.3,0-0.5,0-0.8,0c0-0.3-0.3-0.3-0.5-0.3c-0.5,0-1.3,0-1.8,0s-1,0-1.5,0c-0.8,0-1.3-0.3-1.8-0.3
		c-2.5,0.3-4.8,0.3-6.5,0.5c-0.3,0-0.8,0-1,0.3c-0.5,0-0.8,0-1,0c-0.5,0.3-0.8,0.3-0.8,0.3C56.8,149.3,56.8,149.3,56.8,149.3z"/>
	<path fill="#291B1C" d="M39.3,156.1c0,0,0.3,0,0.8-0.3c0.5-0.5,1-0.8,1.8-1.3c0.3,0,0.5-0.3,0.8-0.3c0.3-0.3,0.5-0.3,0.5-0.5
		c0.5,0,1-0.3,1.5-0.5c1-0.5,2-1,3.3-1.5c0.5-0.3,1-0.5,1.5-0.5c0.8-0.3,1.3-0.5,1.8-0.8c0.5,0,1-0.3,1.5-0.3
		c0.3-0.3,0.5-0.3,0.8-0.3s0.5-0.3,0.8-0.3c0.8-0.3,1.5-0.3,2-0.5c0.5,0,0.8,0,0.8,0c-2.3-12.5-2.3-12.5-2.3-12.5s-0.3,0-1,0
		c-0.5,0.3-1.5,0.5-2.5,0.8c-0.3,0-0.8,0-1,0c-0.3,0.3-0.5,0.3-0.8,0.3c-0.8,0.3-1.3,0.5-2,0.8s-1.5,0.5-2,0.5
		c-0.8,0.3-1.5,0.5-2.3,1c-1.3,0.5-2.8,1-4,1.8c-0.5,0.3-1.3,0.5-1.8,0.8c-0.3,0.3-0.5,0.3-1,0.5c-0.3,0.3-0.5,0.3-0.8,0.5
		c-0.8,0.5-1.8,1-2.3,1.3c-0.5,0.5-0.8,0.5-0.8,0.5C39.3,156.1,39.3,156.1,39.3,156.1z"/>
	<path fill="#291B1C" d="M28.8,165.6c0,0,0.3-0.3,0.5-0.5c0.3-0.5,0.8-1,1.3-1.5s1-1.3,1.8-1.8c0.5-0.5,0.8-0.8,1-1
		c0.5-0.5,0.8-0.8,1.3-1c0.5-0.5,0.8-0.8,1.3-1c0.3-0.5,0.8-0.8,1-1c0.5-0.3,1-0.5,1.3-0.8s0.3-0.3,0.5-0.5c0.3,0,0.3-0.3,0.5-0.3
		c0.8-0.5,1.3-0.8,1.5-1c0.5-0.3,0.8-0.3,0.8-0.3c-3.3-5.5-3.3-5.5-3.3-5.5s-0.3,0-0.8,0.3s-1,0.8-1.8,1.3c-0.3,0-0.3,0.3-0.5,0.3
		c-0.3,0.3-0.5,0.3-0.8,0.5s-0.8,0.5-1.3,1c-0.3,0.3-0.8,0.5-1.3,1c-0.5,0.3-1,0.5-1.3,1c-0.5,0.5-1,0.8-1.5,1.3
		c-0.3,0.3-0.8,0.8-1.3,1c0,0.3-0.3,0.5-0.5,0.5c0,0.3-0.3,0.3-0.3,0.3c0,0.3-0.3,0.3-0.3,0.5c-0.3,0.3-0.8,0.5-1,1
		c-0.5,0.5-1,1-1.3,1.5c-0.5,0.3-0.8,0.5-0.8,0.5C28.8,165.6,28.8,165.6,28.8,165.6z"/>
	<path fill="#291B1C" d="M19.8,182.1v-0.3c0-0.3,0.3-0.5,0.3-0.8c0,0,0.3-0.5,0.3-0.8c0.3-0.3,0.3-0.8,0.5-1.3
		c0-0.3,0.3-0.8,0.5-1.3v-0.3c0.3-0.3,0.3-0.3,0.3-0.5c0.3-0.3,0.3-0.5,0.3-0.8c0.5-1,1-2,1.8-3c1-2,2.3-4,3.5-5.5
		c0.5-0.8,1-1.3,1.3-1.8c0-0.3,0.3-0.3,0.3-0.5c0.3,0,0.3,0,0.3,0c-9.8-8.3-9.8-8.3-9.8-8.3s0,0-0.3,0.3c0,0-0.3,0.3-0.5,0.5
		c-0.3,0.5-1,1.3-1.5,2.3c-1.5,1.8-3,4.3-4.5,6.8c-1.5,2.8-2.8,5.5-3.5,7.5c-0.3,0.5-0.3,1-0.5,1.5S8,176.8,8,177.3
		c-0.3,0.3-0.3,0.5-0.3,0.8c-0.3,0-0.3,0.3-0.3,0.3C19.8,182.1,19.8,182.1,19.8,182.1z"/>
	<path fill="#291B1C" d="M17.8,195.8c0,0,0-1,0-2.5c0-0.3,0-0.8,0-1.3c0-0.3,0-0.3,0-0.5s0.3-0.5,0.3-0.8c0-1,0.3-2,0.3-3
		c0.3-0.5,0.3-1,0.5-1.5c0-0.5,0-1,0.3-1.5c0-0.3,0-0.5,0-0.8c0.3-0.3,0.3-0.3,0.3-0.5c0.3-0.5,0.3-1,0.5-1.3c0-0.3,0-0.3,0-0.5
		s0.3-0.3,0.3-0.5s0.3-0.5,0.3-0.8c0-0.5,0.3-0.8,0.3-0.8c-6-2-6-2-6-2s-0.3,0.3-0.3,0.8c-0.3,0.3-0.3,0.5-0.3,0.8
		c-0.3,0.3-0.3,0.5-0.3,0.5c0,0.3-0.3,0.5-0.3,0.8s-0.3,0.8-0.3,1.3c-0.3,0.3-0.3,0.5-0.3,0.8s-0.3,0.5-0.3,0.8c0,0.5-0.3,1-0.3,1.8
		c-0.3,0.5-0.3,1-0.5,1.8c-0.3,1-0.3,2.3-0.5,3.3c0,0.3,0,0.5,0,0.8s0,0.5,0,0.8c0,0.5,0,1-0.3,1.5c0,1.8,0,2.8,0,2.8
		C17.8,195.8,17.8,195.8,17.8,195.8z"/>
	<path fill="#565759" d="M27.3,195.8c0,21,17,37.8,37.8,37.8c21,0,37.8-16.8,37.8-37.8c0-20.8-16.8-37.8-37.8-37.8
		C44.3,158.1,27.3,175.1,27.3,195.8z"/>
	<path fill="#291B1C" d="M214,216.1c0,18.5,15,33.5,33.8,33.5c18.5,0,33.8-15,33.8-33.5c0-18.8-15.3-33.8-33.8-33.8
		C229,182.3,214,197.3,214,216.1z"/>
	<path fill="#291B1C" d="M225,231.3L225,231.3c0-0.3-0.3-0.3-0.3-0.5c-0.3-0.3-0.3-0.5-0.5-0.8c0-0.3-0.3-0.5-0.5-0.8
		c-0.8-1.5-1.5-3.3-2.3-5.3c-0.5-2-0.8-4-1-5.5c0-0.5,0-0.8,0-1c0-0.5,0-0.8,0-1c-0.3-0.3-0.3-0.5-0.3-0.5c-12.8,0-12.8,0-12.8,0
		s0.3,0.3,0.3,1c0,0.3,0,0.8,0,1c0,0.5,0,1,0,1.8c0.3,2.3,0.8,5,1.8,8c0.8,2.8,2,5.5,3,7.5c0.5,0.5,0.8,1,1,1.5
		c0.3,0.3,0.3,0.5,0.5,1c0.3,0.3,0.3,0.3,0.5,0.5c0,0.3,0,0.3,0,0.3C225,231.3,225,231.3,225,231.3z"/>
	<path fill="#291B1C" d="M234,239.6c0,0-0.3,0-0.5-0.3c-0.3,0-0.3-0.3-0.5-0.3c-0.3-0.3-0.5-0.5-0.8-0.5c-1.3-0.8-2.5-2-3.8-3.3
		s-2.5-2.5-3.3-3.8l-0.3-0.3c0-0.3-0.3-0.3-0.3-0.5s-0.3-0.3-0.3-0.5c-0.3-0.3-0.3-0.3-0.3-0.5H224c-5.5,3.3-5.5,3.3-5.5,3.3h0.3
		c0,0.3,0,0.5,0.3,0.5c0,0.3,0.3,0.5,0.5,0.8c0,0.3,0.3,0.3,0.3,0.5s0.3,0.3,0.3,0.5c1,1.3,2.5,3,4,4.5s3.3,3,4.5,4
		c0.3,0.3,0.8,0.3,1,0.5s0.5,0.3,0.8,0.5s0.5,0.3,0.5,0.3C234,239.6,234,239.6,234,239.6z"/>
	<path fill="#291B1C" d="M249.8,243.3c0,0-0.3,0-0.8,0c-0.3,0-0.5,0-0.8,0s-0.3,0-0.5,0s-0.5,0-0.5,0c-1.5,0-3.8-0.3-5.8-0.8
		s-3.8-1-5.3-1.8c0,0-0.3-0.3-0.5-0.3c0,0-0.3-0.3-0.5-0.3s-0.5-0.3-0.5-0.3c-0.5-0.3-0.8-0.5-0.8-0.5c-6.3,11-6.3,11-6.3,11
		s0.3,0.3,0.8,0.8c0.3,0,0.8,0.3,1,0.5c0.3,0,0.5,0.3,0.8,0.3s0.5,0.3,0.8,0.3c2,1,4.8,2,7.8,2.8s6,1,8.3,1c0.3,0,0.5,0,0.8,0
		s0.5,0,0.8,0c0.5,0,0.8,0,1.3,0s1-0.3,1-0.3C249.8,243.3,249.8,243.3,249.8,243.3z"/>
	<path fill="#291B1C" d="M261.3,239.6c0,0,0,0.3-0.5,0.5c0,0-0.3,0-0.5,0.3c-0.3,0-0.5,0.3-0.8,0.3c-1.3,0.8-3,1.3-4.8,1.8
		c-1.5,0.5-3.3,0.8-4.8,1c-0.3,0-0.5,0-0.8,0s-0.5,0-0.8,0c-0.5,0-0.8,0-0.8,0c0.3,6.3,0.3,6.3,0.3,6.3s0.3,0,0.8,0
		c0.3,0,0.5,0,0.8,0s0.8,0,1,0c1.8-0.3,4-0.5,6-1s4.3-1.5,5.8-2.3c0.3,0,0.5-0.3,1-0.5c0.3,0,0.5-0.3,0.8-0.3
		c0.3-0.3,0.5-0.5,0.5-0.5C261.3,239.6,261.3,239.6,261.3,239.6z"/>
	<path fill="#291B1C" d="M272.3,227.8c0,0,0,0.3-0.3,0.8c0,0-0.3,0.3-0.3,0.5c-0.3,0.5-0.5,0.8-0.8,1c-0.8,1.3-1.8,3-3.3,4.5
		s-3,2.8-4.3,3.8c-0.5,0.5-1.3,0.8-1.5,1c-0.3,0-0.5,0.3-0.5,0.3h-0.3c6.5,11,6.5,11,6.5,11s0,0,0.3,0c0,0,0.3-0.3,0.5-0.5
		c0.8-0.3,1.5-0.8,2.5-1.5c1.8-1.3,4-3.3,6-5.3c2-2.3,3.8-4.8,5-6.8c0.3-0.5,0.5-0.8,0.8-1.3c0.3-0.3,0.5-0.8,0.5-1
		c0.5-0.5,0.5-1,0.5-1C272.3,227.8,272.3,227.8,272.3,227.8z"/>
	<path fill="#291B1C" d="M275,216.1c0,0,0,0.3,0,0.5s0,0.5,0,0.8s0,0.5,0,1c-0.3,1.3-0.5,3-1,4.8c-0.3,1.5-1,3.3-1.5,4.5
		c-0.3,0.3-0.3,0.5-0.5,0.8c0,0.3-0.3,0.5-0.3,0.8c-0.3,0.3-0.3,0.5-0.3,0.5c5.5,3,5.5,3,5.5,3s0-0.3,0.3-0.5s0.3-0.5,0.5-0.8
		s0.3-0.8,0.5-1c0.8-1.5,1.5-3.5,2-5.8c0.5-2,1-4.3,1-5.8c0-0.5,0-1,0-1.3s0-0.5,0.3-0.8c0-0.5,0-0.8,0-0.8
		C275,216.1,275,216.1,275,216.1z"/>
	<path fill="#291B1C" d="M270.3,200.6c0,0,0,0,0.3,0.3c0,0,0,0.3,0.3,0.3c0,0.3,0.3,0.5,0.3,0.8c0.3,0.3,0.5,0.5,0.5,1
		c0.8,1.3,1.8,3.3,2.3,5c0.8,2,1,4,1.3,5.5c0,0.5,0,0.8,0,1.3c0,0.3,0,0.5,0,0.8c0,0.5,0,0.8,0,0.8c12.8,0,12.8,0,12.8,0s0-0.5,0-1
		s0-0.8,0-1.3s0-1-0.3-1.5c0-2.3-0.5-5.3-1.5-8.3c-1-2.8-2.3-5.5-3.3-7.5c-0.3-0.5-0.5-1-0.8-1.3c-0.3-0.5-0.5-0.8-0.8-1
		c0-0.3-0.3-0.5-0.3-0.8c-0.3,0-0.3-0.3-0.3-0.3C270.3,200.6,270.3,200.6,270.3,200.6z"/>
	<path fill="#291B1C" d="M261.3,192.3c0,0,0.3,0,0.8,0.3c0,0.3,0.3,0.3,0.5,0.5c0.3,0,0.5,0.3,0.8,0.5c1,0.8,2.5,1.8,3.8,3
		s2.3,2.8,3,3.8c0.3,0.3,0.3,0.3,0.3,0.5c0.3,0,0.3,0.3,0.3,0.3c0.3,0.3,0.3,0.5,0.5,0.5c0,0.3,0.3,0.5,0.3,0.5l0,0
		c5.5-3,5.5-3,5.5-3v-0.3c-0.3-0.3-0.3-0.3-0.3-0.5c-0.3-0.3-0.5-0.5-0.5-0.8c-0.3,0-0.3-0.3-0.3-0.5c-0.3,0-0.3-0.3-0.5-0.5
		c-0.8-1.3-2.3-3-3.8-4.5s-3.3-3-4.8-3.8c-0.3-0.3-0.5-0.5-0.8-0.8c-0.3,0-0.5-0.3-0.8-0.5c-0.5-0.3-0.8-0.3-0.8-0.3
		C261.3,192.3,261.3,192.3,261.3,192.3z"/>
	<path fill="#291B1C" d="M245.8,188.8c0,0,0.3,0,0.5-0.3c0.3,0,0.5,0,1,0c0,0,0.3,0,0.5,0c0,0,0.3,0,0.5,0c1.5,0,3.5,0.3,5.5,0.8
		s4,1.3,5.3,1.8c0.3,0.3,0.5,0.3,0.5,0.3c0.3,0.3,0.5,0.3,0.5,0.3c0.3,0.3,0.5,0.3,0.8,0.5c0.5,0,0.5,0.3,0.5,0.3
		c6.5-11,6.5-11,6.5-11s-0.3-0.3-1-0.5c-0.3-0.3-0.5-0.5-1-0.5c-0.3-0.3-0.5-0.3-0.5-0.5c-0.3,0-0.5-0.3-0.8-0.3c-2.3-1-5-2-8-2.8
		c-2.8-0.5-5.8-0.8-8-1c-0.3,0-0.5,0-0.8,0s-0.5,0-0.8,0c-0.5,0-1,0.3-1.3,0.3c-0.8,0-1,0-1,0C245.8,188.8,245.8,188.8,245.8,188.8z
		"/>
	<path fill="#291B1C" d="M234,192.3c0,0,0.3,0,0.5-0.3s0.5-0.3,0.8-0.5c0.3,0,0.5-0.3,0.8-0.3c1.3-0.5,2.8-1.3,4.5-1.8
		s3.5-0.8,4.8-0.8c0.5,0,0.8,0,1-0.3c0.3,0,0.5,0,0.8,0s0.5,0,0.5,0c0-6.3,0-6.3,0-6.3s-0.3,0-0.8,0c-0.3,0-0.5,0-0.8,0
		c-0.5,0-0.8,0-1.3,0c-1.5,0.3-3.8,0.5-5.8,1.3c-2.3,0.5-4.3,1.3-5.8,2c-0.3,0-0.8,0.3-1,0.5c-0.3,0-0.5,0.3-0.8,0.3
		c-0.5,0.3-0.8,0.5-0.8,0.5C234,192.3,234,192.3,234,192.3z"/>
	<path fill="#291B1C" d="M223,204.1c0,0,0.3-0.3,0.5-0.5c0-0.3,0-0.5,0.3-0.8s0.3-0.5,0.5-1c0.8-1.3,2-3,3.5-4.5
		c1.3-1.5,3-2.8,4.3-3.8c0.5-0.3,1-0.8,1.5-1c0,0,0.3,0,0.5-0.3l0,0c-6.3-11-6.3-11-6.3-11h-0.3c-0.3,0.3-0.5,0.3-0.8,0.5
		c-0.5,0.3-1.3,0.8-2.3,1.5c-1.8,1.3-4.3,3.3-6.3,5.5c-2,2-3.8,4.5-5,6.5c-0.3,0.5-0.5,1-0.8,1.3c-0.3,0.5-0.3,0.8-0.5,1
		c-0.3,0.8-0.5,1-0.5,1C223,204.1,223,204.1,223,204.1z"/>
	<path fill="#291B1C" d="M220.3,216.1c0,0,0-0.3,0.3-0.8c0-0.3,0-0.5,0-0.8s0-0.5,0-0.8c0-1.5,0.3-3.3,0.8-4.8
		c0.5-1.8,1-3.5,1.8-4.8c0-0.3,0.3-0.5,0.3-0.8c0.3-0.3,0.3-0.5,0.5-0.5c0-0.5,0.3-0.5,0.3-0.5c-5.5-3.3-5.5-3.3-5.5-3.3
		s-0.3,0.3-0.5,0.8c0,0-0.3,0.3-0.3,0.8c-0.3,0.3-0.5,0.5-0.5,1c-0.8,1.3-1.5,3.5-2.3,5.5c-0.5,2.3-0.8,4.3-1,6c0,0.3,0,0.8,0,1
		c0,0.5,0,0.8,0,1c0,0.5,0,0.8,0,0.8C220.3,216.1,220.3,216.1,220.3,216.1z"/>
	<path fill="#565759" d="M225,216.1c0,12.5,10.3,22.5,22.8,22.5s22.5-10,22.5-22.5s-10-22.8-22.5-22.8S225,203.6,225,216.1z"/>
	<path fill="#343434" d="M32.3,16.3c5.3,1.5,11.8,2,15.3,2.3c22.3,2.8,45,3.8,67.3,5c4.8,0.3,10.8-0.3,15.3-3c0.3,0,0.5-0.3,0.8-0.5
		c0.3,0,0.3,0,0.3-0.3c-3-1.8-8-3.3-10.8-4.3c-6.8-2.8-14.5-4-22.3-5C79.5,8.1,44.8,1.6,32.3,16.3z"/>
</g>
</svg>
