<?xml version="1.0" encoding="UTF-8" standalone="no"?>
<!-- Generator: Adobe Illustrator 15.0.0, SVG Export Plug-In . SVG Version: 6.00 Build 0)  -->

<svg
   xmlns:dc="http://purl.org/dc/elements/1.1/"
   xmlns:cc="http://creativecommons.org/ns#"
   xmlns:rdf="http://www.w3.org/1999/02/22-rdf-syntax-ns#"
   xmlns:svg="http://www.w3.org/2000/svg"
   xmlns="http://www.w3.org/2000/svg"
   xmlns:sodipodi="http://sodipodi.sourceforge.net/DTD/sodipodi-0.dtd"
   xmlns:inkscape="http://www.inkscape.org/namespaces/inkscape"
   version="1.1"
   id="Layer_1"
   x="0px"
   y="0px"
   width="76px"
   height="66px"
   viewBox="0 0 76 66"
   enable-background="new 0 0 76 66"
   xml:space="preserve"
   sodipodi:docname="Speaker_duck.svg"
   inkscape:version="0.92.1 r15371"><metadata
     id="metadata72"><rdf:RDF><cc:Work
         rdf:about=""><dc:format>image/svg+xml</dc:format><dc:type
           rdf:resource="http://purl.org/dc/dcmitype/StillImage" /><dc:title></dc:title></cc:Work></rdf:RDF></metadata><defs
     id="defs70" /><sodipodi:namedview
     pagecolor="#ffffff"
     bordercolor="#666666"
     borderopacity="1"
     objecttolerance="10"
     gridtolerance="10"
     guidetolerance="10"
     inkscape:pageopacity="0"
     inkscape:pageshadow="2"
     inkscape:window-width="1115"
     inkscape:window-height="1008"
     id="namedview68"
     showgrid="true"
     inkscape:snap-bbox="true"
     inkscape:snap-object-midpoints="false"
     inkscape:snap-center="false"
     inkscape:zoom="8"
     inkscape:cx="41.878879"
     inkscape:cy="29.777449"
     inkscape:window-x="0"
     inkscape:window-y="0"
     inkscape:window-maximized="0"
     inkscape:current-layer="Layer_1"><inkscape:grid
       type="xygrid"
       id="grid167" /></sodipodi:namedview><g
     id="g229"><rect
       id="rect47"
       height="14"
       width="8"
       fill="#64A01F"
       y="23"
       x="16" /><polygon
       id="polygon49"
       points="17,36 23,36 23,32.821 23,26.799 23,24 17,24 "
       fill="#FFFFFF" /><polygon
       id="polygon51"
       points="25,37 25,23 36,12 36,48 "
       fill="#64A01F" /><polygon
       id="polygon53"
       points="26,36.586 26,23.414 35,14.414 35,45.586 "
       fill="#FFFFFF" /><path
       id="path55"
       d="M36.182,35.343l1.172-1.042c1.422-1.266,2.238-3.07,2.238-4.952c0-1.751-0.682-3.406-1.92-4.658l-1.09-1.104  l3.393-3.395l1.104,1.114c2.138,2.16,3.313,5.016,3.313,8.042c0,3.246-1.399,6.355-3.844,8.531l-1.158,1.033L36.182,35.343z"
       fill="#64A01F" /><path
       id="path57"
       d="M40.368,22.011l-0.396-0.4l-1.979,1.98l0.392,0.396c1.424,1.44,2.208,3.345,2.208,5.361  c0,2.167-0.938,4.244-2.573,5.699l-0.42,0.374l1.871,2.082l0.416-0.371c2.229-1.985,3.508-4.823,3.508-7.784  C43.393,26.586,42.318,23.981,40.368,22.011z"
       fill="#FFFFFF" /><path
       id="path59"
       d="M40.26,39.882l1.164-1.044c2.709-2.417,4.262-5.876,4.262-9.489c0-3.377-1.313-6.56-3.703-8.963  l-1.096-1.104l3.396-3.394l1.104,1.11c3.288,3.31,5.102,7.695,5.102,12.351c0,4.976-2.135,9.737-5.857,13.064l-1.16,1.039  L40.26,39.882z"
       fill="#64A01F" /><path
       id="path61"
       d="M44.676,17.703l-0.396-0.399l-1.979,1.98l0.395,0.396c2.574,2.592,3.994,6.025,3.994,9.668  c0,3.896-1.674,7.628-4.596,10.234l-0.418,0.375l1.871,2.083l0.416-0.373c3.514-3.14,5.523-7.629,5.523-12.319  C49.486,24.96,47.777,20.824,44.676,17.703z"
       fill="#FFFFFF" /><path
       style="fill:#64a01f;fill-opacity:1"
       id="path63"
       d="M44.611,44.725l1.162-1.043c4.084-3.654,6.425-8.879,6.425-14.333c0-5.113-1.993-9.931-5.61-13.565  l-1.098-1.105l3.394-3.392l1.103,1.106C54.51,16.936,57,22.957,57,29.349c0,6.815-2.923,13.342-8.02,17.907l-1.16,1.038  L44.611,44.725z"
       fill="#64A01F" /><path
       fill="#FFFFFF"
       id="path65"
       d="M49.277,13.099l-0.396-0.397l-1.98,1.979l0.396,0.397c3.806,3.823,5.902,8.892,5.902,14.271  c0,5.738-2.462,11.233-6.757,15.077l-0.418,0.375l1.873,2.083l0.416-0.373C53.198,42.136,56,35.88,56,29.349  C56,23.223,53.611,17.452,49.277,13.099z" /></g><path
     style="opacity:1;fill:#ffffff;fill-opacity:1;stroke:none;stroke-width:0.33700001;stroke-linecap:round;stroke-linejoin:round;stroke-miterlimit:4;stroke-dasharray:none;stroke-opacity:1;paint-order:normal"
     d="m 49.874517,37.771711 c -1.116524,0.0011 -2.32465,0.124425 -3.316406,0.33789 -1.243252,0.267606 -2.131476,0.670654 -2.568359,1.164063 -0.199646,0.225473 -0.404552,0.621065 -0.560547,1.111328 -0.155995,0.490263 -0.261719,1.07544 -0.261719,1.679687 0,0.467125 -0.254529,1.081816 -0.548828,1.794922 -0.212812,0.515693 -0.451199,1.095493 -0.617188,1.6875 -0.165988,0.592008 -0.260215,1.196927 -0.18164,1.765625 0.09121,0.660214 0.27567,1.185604 0.513672,1.605469 0.238001,0.419866 0.530832,0.734516 0.833984,0.970703 0.606303,0.472375 1.25967,0.633256 1.636719,0.710938 0.20987,-1.622077 0.511057,-3.033691 0.832031,-4.259766 0.320974,-1.226074 0.662055,-2.266963 0.951172,-3.150391 0.06112,-0.186683 0.121164,-0.367896 0.177734,-0.542968 0.0032,-0.01002 0.0071,-0.0194 0.01172,-0.0293 0,0 0,-0.002 0,-0.002 0.0047,-0.0097 0.0097,-0.0198 0.01563,-0.0293 0,0 0.002,-0.002 0.002,-0.002 0.0041,-0.0066 0.0089,-0.01313 0.01367,-0.01953 0.0025,-0.0033 0.0052,-0.0066 0.0078,-0.0098 0.0025,-0.003 0.0052,-0.0048 0.0078,-0.0078 0.0055,-0.0063 0.01148,-0.01353 0.01758,-0.01953 0.0022,-0.0021 0.0037,-0.0038 0.0059,-0.0059 0.007,-0.0066 0.01389,-0.01343 0.02148,-0.01953 0,0 0.002,-0.002 0.002,-0.002 0.0034,-0.0028 0.0063,-0.0052 0.0098,-0.0078 0.0062,-0.0046 0.01293,-0.0093 0.01953,-0.01367 0.0061,-0.0041 0.01323,-0.0079 0.01953,-0.01172 0.0047,-0.0029 0.0088,-0.0051 0.01367,-0.0078 0.0077,-0.0042 0.01544,-0.0079 0.02344,-0.01172 0.004,-0.0019 0.0076,-0.0041 0.01172,-0.0059 0.0084,-0.0038 0.01669,-0.0065 0.02539,-0.0098 0.0041,-0.0015 0.0095,-0.0044 0.01367,-0.0059 0.0083,-0.0029 0.01679,-0.0052 0.02539,-0.0078 0.0051,-0.0015 0.01043,-0.0025 0.01563,-0.0039 0.0077,-0.002 0.01564,-0.0042 0.02344,-0.0059 0.0064,-0.0014 0.01108,-0.0027 0.01758,-0.0039 0.0067,-0.0013 0.01468,-0.0029 0.02148,-0.0039 0.0076,-0.0012 0.01574,-0.0011 0.02344,-0.002 0.0061,-6.92e-4 0.01148,-0.0015 0.01758,-0.002 0.0083,-7e-4 0.01699,-0.0016 0.02539,-0.002 0.0062,-2.47e-4 0.01128,4.1e-5 0.01758,0 0.0081,-8.3e-5 0.01719,-2.48e-4 0.02539,0 0.0077,2e-4 0.01574,0.0014 0.02344,0.002 0.0066,4.1e-4 0.01293,-7.01e-4 0.01953,0 0.0107,0.0011 0.02066,0.0022 0.03125,0.0039 0.0032,4.75e-4 0.0066,0.0014 0.0098,0.002 0,0 0.002,0 0.002,0 0.01305,0.0023 0.02629,0.0066 0.03906,0.0098 0.0014,3.3e-4 0.0025,-3.71e-4 0.0039,0 0.01215,0.0031 0.02334,0.0078 0.03516,0.01172 0.0019,6.99e-4 0.004,-6.61e-4 0.0059,0 0.0073,0.0025 0.01429,0.007 0.02149,0.0098 0.006,0.0024 0.01363,0.0033 0.01953,0.0059 0.0027,0.0012 0.0052,0.0027 0.0078,0.0039 0.01009,0.0047 0.0198,0.01042 0.0293,0.01563 0.002,10e-4 0.004,0.0028 0.0059,0.0039 0.0099,0.0056 0.01814,0.01138 0.02734,0.01758 0,0 0.002,0 0.002,0 0.373296,0.251182 1.530656,0.904297 2.386719,0.904297 0.859761,0 2.012591,-0.652992 2.384766,-0.904297 9e-4,-6e-4 0.003,-0.0013 0.0039,-0.002 0.0044,-0.003 0.0091,-0.005 0.01367,-0.0078 0.0068,-0.0042 0.01438,-0.0099 0.02148,-0.01367 0.0029,-0.0016 0.0049,-0.0024 0.0078,-0.0039 0.04701,-0.02431 0.09878,-0.04128 0.152344,-0.05078 0,0 0.002,0 0.002,0 0.0025,-4.22e-4 0.0034,4.13e-4 0.0059,0 0.01132,-0.0019 0.02373,-0.0047 0.03516,-0.0059 0.0068,-7.16e-4 0.01283,-0.0015 0.01953,-0.002 0.0074,-5.33e-4 0.01604,2.48e-4 0.02344,0 0.009,-2.89e-4 0.01649,-8.3e-5 0.02539,0 0.0053,4.1e-5 0.01032,-2.06e-4 0.01563,0 0.0097,3e-4 0.0197,0.0011 0.0293,0.002 0.0047,3.75e-4 0.0091,-4.95e-4 0.01367,0 0.0095,10e-4 0.0199,0.0024 0.0293,0.0039 0.0049,7e-4 0.0089,0.003 0.01367,0.0039 0.0087,0.0016 0.01689,0.0019 0.02539,0.0039 0.0055,0.0013 0.01218,0.0025 0.01758,0.0039 0.0077,0.002 0.01398,0.0055 0.02148,0.0078 0.0059,0.0018 0.01363,0.0039 0.01953,0.0059 0.0072,0.0025 0.01253,0.005 0.01953,0.0078 0.0057,0.0022 0.01198,0.0034 0.01758,0.0059 0.0076,0.0033 0.01614,0.008 0.02344,0.01172 0.0046,0.0023 0.0073,0.0035 0.01172,0.0059 0.0092,0.005 0.01864,0.01013 0.02734,0.01563 0.0022,0.0014 0.0056,0.0025 0.0078,0.0039 0.06319,0.04151 0.109503,0.09765 0.132813,0.162109 6e-4,0.0017 0.0013,0.0041 0.002,0.0059 0,0 0.002,0.002 0.002,0.002 0.05675,0.175336 0.116555,0.355995 0.177735,0.542968 0.288949,0.88281 0.628433,1.923514 0.949218,3.148438 0.320786,1.224924 0.622078,2.635618 0.832032,4.255859 0.386208,-0.08113 1.035718,-0.250378 1.632812,-0.724609 0.298547,-0.237116 0.582872,-0.551619 0.816406,-0.96875 0.233535,-0.417131 0.415827,-0.93625 0.50586,-1.587891 0.07855,-0.568698 -0.01567,-1.173612 -0.181641,-1.765625 -0.165974,-0.592012 -0.40446,-1.171745 -0.617187,-1.6875 -0.294243,-0.713106 -0.548828,-1.327798 -0.548828,-1.794922 0,-0.604267 -0.105717,-1.189424 -0.261719,-1.679687 -0.156002,-0.490263 -0.36093,-0.885875 -0.560547,-1.111328 -0.43694,-0.493409 -1.325108,-0.896457 -2.56836,-1.164063 -0.991811,-0.213465 -2.199939,-0.33679 -3.316406,-0.33789 z"
     id="path2513"
     inkscape:connector-curvature="0" /><g
     style="fill:#64a01f;fill-opacity:1"
     id="g104"
     transform="matrix(0.03432343,0,0,0.03514143,54.614172,42.869492)" /><g
     style="fill:#64a01f;fill-opacity:1"
     id="g106"
     transform="matrix(0.03432343,0,0,0.03514143,54.614172,42.869492)" /><g
     style="fill:#64a01f;fill-opacity:1"
     id="g108"
     transform="matrix(0.03432343,0,0,0.03514143,54.614172,42.869492)" /><g
     style="fill:#64a01f;fill-opacity:1"
     id="g110"
     transform="matrix(0.03432343,0,0,0.03514143,54.614172,42.869492)" /><g
     style="fill:#64a01f;fill-opacity:1"
     id="g112"
     transform="matrix(0.03432343,0,0,0.03514143,54.614172,42.869492)" /><g
     style="fill:#64a01f;fill-opacity:1"
     id="g114"
     transform="matrix(0.03432343,0,0,0.03514143,54.614172,42.869492)" /><g
     style="fill:#64a01f;fill-opacity:1"
     id="g116"
     transform="matrix(0.03432343,0,0,0.03514143,54.614172,42.869492)" /><g
     style="fill:#64a01f;fill-opacity:1"
     id="g118"
     transform="matrix(0.03432343,0,0,0.03514143,54.614172,42.869492)" /><g
     style="fill:#64a01f;fill-opacity:1"
     id="g120"
     transform="matrix(0.03432343,0,0,0.03514143,54.614172,42.869492)" /><g
     style="fill:#64a01f;fill-opacity:1"
     id="g122"
     transform="matrix(0.03432343,0,0,0.03514143,54.614172,42.869492)" /><g
     style="fill:#64a01f;fill-opacity:1"
     id="g124"
     transform="matrix(0.03432343,0,0,0.03514143,54.614172,42.869492)" /><g
     style="fill:#64a01f;fill-opacity:1"
     id="g126"
     transform="matrix(0.03432343,0,0,0.03514143,54.614172,42.869492)" /><g
     style="fill:#64a01f;fill-opacity:1"
     id="g128"
     transform="matrix(0.03432343,0,0,0.03514143,54.614172,42.869492)" /><g
     style="fill:#64a01f;fill-opacity:1"
     id="g130"
     transform="matrix(0.03432343,0,0,0.03514143,54.614172,42.869492)" /><g
     style="fill:#64a01f;fill-opacity:1"
     id="g132"
     transform="matrix(0.03432343,0,0,0.03514143,54.614172,42.869492)" /><g
     id="g65"
     transform="matrix(0.0396087,0,0,0.03190745,56.239504,20.762376)" /><g
     id="g67"
     transform="matrix(0.0396087,0,0,0.03190745,56.239504,20.762376)" /><g
     id="g69"
     transform="matrix(0.0396087,0,0,0.03190745,56.239504,20.762376)" /><g
     id="g71"
     transform="matrix(0.0396087,0,0,0.03190745,56.239504,20.762376)" /><g
     id="g73"
     transform="matrix(0.0396087,0,0,0.03190745,56.239504,20.762376)" /><g
     id="g75"
     transform="matrix(0.0396087,0,0,0.03190745,56.239504,20.762376)" /><g
     id="g77"
     transform="matrix(0.0396087,0,0,0.03190745,56.239504,20.762376)" /><g
     id="g79"
     transform="matrix(0.0396087,0,0,0.03190745,56.239504,20.762376)" /><g
     id="g81"
     transform="matrix(0.0396087,0,0,0.03190745,56.239504,20.762376)" /><g
     id="g83"
     transform="matrix(0.0396087,0,0,0.03190745,56.239504,20.762376)" /><g
     id="g85"
     transform="matrix(0.0396087,0,0,0.03190745,56.239504,20.762376)" /><g
     id="g87"
     transform="matrix(0.0396087,0,0,0.03190745,56.239504,20.762376)" /><g
     id="g89"
     transform="matrix(0.0396087,0,0,0.03190745,56.239504,20.762376)" /><g
     id="g91"
     transform="matrix(0.0396087,0,0,0.03190745,56.239504,20.762376)" /><g
     id="g93"
     transform="matrix(0.0396087,0,0,0.03190745,56.239504,20.762376)" /><path
     style="opacity:1;fill:#ffffff;fill-opacity:1;stroke:none;stroke-width:0.33700001;stroke-linecap:round;stroke-linejoin:round;stroke-miterlimit:4;stroke-dasharray:none;stroke-opacity:1;paint-order:normal"
     d="m 47.47135,43.307984 c 0.587871,0.31601 1.536134,0.736328 2.417969,0.736328 0.881946,0 1.83021,-0.420319 2.417969,-0.736328 0.0043,0.01296 0.0075,0.02602 0.01172,0.03906 0.432877,1.322553 0.946942,2.888833 1.351562,4.832032 0.40462,1.943198 0.701172,4.262159 0.701172,7.089844 2.8e-5,0.366002 -0.116624,0.695151 -0.345703,0.984374 -0.229079,0.289224 -0.570411,0.539657 -1.025391,0.748047 -0.40254,0.184373 -0.888579,0.328863 -1.419921,0.427735 -0.02375,-0.0044 -0.0475,-0.0084 -0.07227,-0.0098 -0.08572,-0.0874 -0.209652,-0.296193 -0.294922,-0.441406 -0.137118,-0.233402 -0.289785,-0.495549 -0.498044,-0.699183 -0.208259,-0.203634 -0.471617,-0.349609 -0.826172,-0.349609 -0.354554,0 -0.61792,0.145975 -0.826172,0.349609 -0.208252,0.203634 -0.360897,0.465781 -0.498047,0.699219 -0.08527,0.145213 -0.209258,0.354006 -0.294921,0.441406 -0.02482,0.0014 -0.04851,0.0054 -0.07227,0.0098 -0.531393,-0.09887 -1.017382,-0.243362 -1.419922,-0.427735 -0.454979,-0.20839 -0.798257,-0.458818 -1.027344,-0.748047 -0.229086,-0.289228 -0.34375,-0.618352 -0.34375,-0.984374 0,-2.827974 0.296545,-5.146527 0.701172,-7.089844 0.404627,-1.943317 0.91676,-3.511411 1.34961,-4.833985 0.0042,-0.01271 0.0095,-0.02444 0.01367,-0.03711 z m 2.417969,13.283203 c 0.150764,0.05026 0.396122,0.468233 0.501953,0.648438 0.06482,0.110343 0.127643,0.218112 0.19336,0.316406 -0.228806,0.01642 -0.461072,0.02344 -0.695313,0.02344 -0.234184,0 -0.466561,-0.007 -0.695312,-0.02344 0.06577,-0.09829 0.128538,-0.206063 0.193359,-0.316406 0.105887,-0.180205 0.351246,-0.598177 0.501953,-0.648438 z"
     id="path2515"
     inkscape:connector-curvature="0" /><g
     id="g2491"
     transform="matrix(0.05602506,0,0,0.0412653,35.531329,37.111943)"><g
       id="g2431"><path
         id="path2421"
         d="m 156.278,96 c -5.474,0 -12,4.164 -12,24 0,19.836 6.526,24 12,24 5.474,0 12,-4.164 12,-24 0,-19.836 -6.525,-24 -12,-24 z"
         inkscape:connector-curvature="0"
         style="fill:#64a01f;fill-opacity:1" /><path
         id="path2423"
         d="m 356.278,96 c -5.474,0 -12,4.164 -12,24 0,19.836 6.526,24 12,24 5.474,0 12,-4.164 12,-24 0,-19.836 -6.525,-24 -12,-24 z"
         inkscape:connector-curvature="0"
         style="fill:#64a01f;fill-opacity:1" /><path
         id="path2425"
         d="m 400.824,158.873 c -4.882,-16.06 -9.098,-29.931 -9.098,-38.873 0,-34.247 -8.967,-63.596 -17.299,-76.37 C 353.537,11.598 297.955,0.127 256.392,0.006 256.354,0.005 256.317,0 256.278,0 h -0.01 c 0,0 -10e-4,0 -0.002,0 -0.089,0 -0.182,0.002 -0.271,0.002 -0.09,0 -0.183,-0.002 -0.274,-0.002 -0.038,0 -0.075,0.005 -0.112,0.006 -41.564,0.122 -97.147,11.593 -118.037,43.624 -8.332,12.775 -17.299,42.124 -17.299,76.37 0,8.942 -4.216,22.813 -9.097,38.873 -8.014,26.364 -17.987,59.176 -14.857,89.937 3.343,32.854 13.795,57.92 31.065,74.503 14.264,13.697 29.366,17.765 35.814,19.502 0.286,0.077 0.594,0.16 0.888,0.241 -2.379,29.498 -3.813,61.727 -3.813,96.945 0,23.308 11.075,42.515 32.028,55.544 17.064,10.61 39.782,16.455 63.97,16.456 10e-4,0 10e-4,0 0.002,0 10e-4,0 0.002,0 0.002,0 0.002,0 0.002,0 0.003,0 10e-4,0 10e-4,0 0.002,0 24.188,-10e-4 46.906,-5.846 63.97,-16.456 20.953,-13.029 32.028,-32.236 32.028,-55.544 0,-35.276 -1.44,-67.553 -3.826,-97.092 0.117,-0.032 0.237,-0.064 0.349,-0.094 6.449,-1.737 21.551,-5.805 35.814,-19.502 17.271,-16.583 27.722,-41.649 31.065,-74.503 3.131,-30.76 -6.843,-63.572 -14.856,-89.937 z M 256.278,472.049 c 2.691,1.218 7.071,11.334 8.96,15.701 1.157,2.674 2.28,5.257 3.453,7.639 -4.084,0.398 -8.234,0.611 -12.415,0.611 -4.18,0 -8.328,-0.213 -12.411,-0.611 1.174,-2.382 2.296,-4.965 3.453,-7.639 1.89,-4.367 6.27,-14.483 8.96,-15.701 z m 55.523,9.907 c -7.185,4.468 -15.845,7.981 -25.329,10.377 -0.424,-0.106 -0.857,-0.183 -1.299,-0.218 -1.53,-2.118 -3.728,-7.2 -5.25,-10.719 C 275.028,470.082 268.935,456 256.278,456 c -12.657,0 -18.749,14.082 -23.645,25.396 -1.522,3.519 -3.721,8.601 -5.25,10.719 -0.443,0.035 -0.877,0.112 -1.301,0.218 -9.485,-2.396 -18.146,-5.909 -25.331,-10.377 -16.242,-10.1 -24.477,-24.216 -24.477,-41.956 0,-137.063 21.163,-224.854 36.615,-288.955 0.074,-0.308 0.145,-0.603 0.219,-0.91 10.493,7.658 27.425,17.865 43.165,17.865 15.742,0 32.674,-10.209 43.165,-17.867 0.076,0.314 0.148,0.616 0.224,0.932 15.453,64.1 36.615,151.887 36.615,288.936 0.001,17.739 -8.234,31.855 -24.476,41.955 z M 399.763,247.19 c -6.428,63.166 -38.951,75.586 -52.738,79.518 -7.495,-78.528 -21.493,-136.607 -31.808,-179.394 -1.092,-4.531 -2.149,-8.918 -3.162,-13.167 -0.006,-0.027 -0.016,-0.052 -0.023,-0.078 -0.011,-0.043 -0.026,-0.086 -0.038,-0.129 -0.416,-1.562 -1.266,-2.896 -2.394,-3.902 -0.039,-0.035 -0.08,-0.066 -0.12,-0.1 -0.155,-0.133 -0.311,-0.262 -0.475,-0.382 -0.079,-0.058 -0.161,-0.11 -0.242,-0.165 -0.131,-0.089 -0.261,-0.177 -0.396,-0.258 -0.1,-0.06 -0.202,-0.113 -0.304,-0.168 -0.125,-0.068 -0.25,-0.135 -0.378,-0.196 -0.105,-0.049 -0.211,-0.093 -0.317,-0.137 -0.134,-0.057 -0.269,-0.113 -0.406,-0.162 -0.097,-0.035 -0.195,-0.064 -0.293,-0.095 -0.152,-0.048 -0.304,-0.095 -0.459,-0.134 -0.086,-0.021 -0.173,-0.038 -0.26,-0.057 -0.167,-0.036 -0.334,-0.07 -0.504,-0.095 -0.082,-0.012 -0.165,-0.02 -0.248,-0.029 -0.172,-0.02 -0.344,-0.038 -0.518,-0.047 -0.094,-0.005 -0.188,-0.004 -0.283,-0.005 -0.159,-0.002 -0.317,-0.005 -0.477,0.002 -0.132,0.006 -0.264,0.021 -0.396,0.033 -0.12,0.011 -0.24,0.019 -0.361,0.036 -0.204,0.028 -0.407,0.069 -0.609,0.113 -0.045,0.01 -0.089,0.014 -0.134,0.025 -0.006,10e-4 -0.012,0.004 -0.019,0.005 -0.956,0.229 -1.877,0.64 -2.716,1.229 -0.052,0.036 -0.107,0.068 -0.158,0.106 -0.126,0.093 -0.245,0.197 -0.366,0.298 -0.083,0.069 -0.169,0.134 -0.248,0.206 -0.017,0.015 -0.035,0.027 -0.051,0.042 -6.643,6.09 -27.243,21.896 -42.589,21.896 -15.28,0 -35.931,-15.81 -42.594,-21.897 -0.008,-0.007 -0.016,-0.013 -0.024,-0.02 -0.165,-0.15 -0.339,-0.291 -0.516,-0.427 -0.034,-0.026 -0.065,-0.056 -0.1,-0.081 -0.169,-0.125 -0.346,-0.24 -0.526,-0.353 -0.047,-0.03 -0.093,-0.064 -0.141,-0.093 -0.105,-0.063 -0.217,-0.116 -0.325,-0.174 -0.128,-0.069 -0.254,-0.142 -0.384,-0.203 -0.034,-0.016 -0.07,-0.027 -0.103,-0.043 -0.211,-0.095 -0.424,-0.184 -0.641,-0.26 -0.025,-0.009 -0.051,-0.015 -0.076,-0.023 -0.228,-0.077 -0.459,-0.146 -0.692,-0.202 -0.008,-0.002 -0.016,-0.005 -0.025,-0.007 -0.058,-0.014 -0.116,-0.02 -0.174,-0.032 -0.189,-0.041 -0.379,-0.079 -0.57,-0.106 -0.118,-0.017 -0.235,-0.024 -0.352,-0.035 -0.138,-0.013 -0.275,-0.028 -0.413,-0.034 -0.146,-0.006 -0.29,-0.004 -0.434,-0.002 -0.112,0.001 -0.224,0 -0.335,0.006 -0.15,0.008 -0.299,0.025 -0.447,0.041 -0.109,0.012 -0.218,0.022 -0.327,0.038 -0.138,0.021 -0.275,0.049 -0.411,0.078 -0.121,0.025 -0.242,0.049 -0.362,0.079 -0.116,0.03 -0.229,0.065 -0.343,0.1 -0.139,0.042 -0.278,0.084 -0.415,0.134 -0.092,0.033 -0.181,0.072 -0.272,0.108 -0.153,0.062 -0.305,0.125 -0.454,0.197 -0.075,0.036 -0.148,0.077 -0.222,0.115 -0.155,0.08 -0.31,0.162 -0.46,0.254 -0.073,0.044 -0.143,0.094 -0.215,0.14 -0.142,0.093 -0.284,0.185 -0.421,0.287 -0.088,0.065 -0.171,0.137 -0.256,0.206 -0.113,0.092 -0.228,0.182 -0.337,0.281 -0.117,0.106 -0.227,0.22 -0.338,0.333 -0.063,0.064 -0.13,0.121 -0.191,0.188 -0.009,0.01 -0.016,0.02 -0.024,0.029 -0.135,0.149 -0.261,0.307 -0.386,0.466 -0.039,0.05 -0.083,0.098 -0.121,0.149 -0.108,0.145 -0.205,0.299 -0.303,0.452 -0.046,0.072 -0.099,0.142 -0.142,0.215 -0.046,0.077 -0.084,0.16 -0.128,0.24 -0.086,0.155 -0.173,0.31 -0.247,0.469 -0.007,0.015 -0.012,0.031 -0.019,0.046 -0.105,0.229 -0.2,0.462 -0.283,0.698 -0.005,0.014 -0.008,0.029 -0.013,0.044 -0.082,0.239 -0.153,0.48 -0.211,0.723 -0.002,0.008 -0.005,0.015 -0.007,0.023 -1.011,4.243 -2.066,8.623 -3.157,13.147 -10.321,42.817 -24.331,100.948 -31.823,179.565 -13.46,-3.765 -46.762,-15.673 -53.274,-79.67 -2.805,-27.563 6.65,-58.67 14.247,-83.664 5.253,-17.281 9.789,-32.206 9.789,-43.526 0,-29.286 7.574,-56.702 14.701,-67.63 7.798,-11.957 23.65,-21.706 45.841,-28.191 17.702,-5.173 39.256,-8.149 59.185,-8.176 19.928,0.027 41.482,3.003 59.185,8.176 22.191,6.485 38.042,16.234 45.841,28.191 7.126,10.927 14.701,38.343 14.701,67.63 0,11.32 4.537,26.245 9.789,43.526 7.594,24.997 17.049,56.103 14.245,83.666 z"
         inkscape:connector-curvature="0"
         style="fill:#64a01f;fill-opacity:1;stroke:#64a01f;stroke-opacity:1;stroke-width:5.15784174;stroke-miterlimit:4;stroke-dasharray:none" /><path
         id="path2427"
         d="m 224.274,216 c -4.418,0 -8,3.582 -8,8 v 8 c 0,4.418 3.582,8 8,8 4.418,0 8,-3.582 8,-8 v -8 c 0,-4.418 -3.582,-8 -8,-8 z"
         inkscape:connector-curvature="0"
         style="fill:#64a01f;fill-opacity:1" /><path
         id="path2429"
         d="m 288.273,216 c -4.418,0 -8,3.582 -8,8 v 8 c 0,4.418 3.582,8 8,8 4.418,0 8,-3.582 8,-8 v -8 c 0,-4.418 -3.581,-8 -8,-8 z"
         inkscape:connector-curvature="0"
         style="fill:#64a01f;fill-opacity:1" /></g><g
       id="g2433" /><g
       id="g2435" /><g
       id="g2437" /><g
       id="g2439" /><g
       id="g2441" /><g
       id="g2443" /><g
       id="g2445" /><g
       id="g2447" /><g
       id="g2449" /><g
       id="g2451" /><g
       id="g2453" /><g
       id="g2455" /><g
       id="g2457" /><g
       id="g2459" /><g
       id="g2461" /></g></svg>