<?xml version="1.0" encoding="UTF-8" standalone="no"?>
<!-- Generator: Adobe Illustrator 15.0.0, SVG Export Plug-In . SVG Version: 6.00 Build 0)  -->

<svg
   xmlns:dc="http://purl.org/dc/elements/1.1/"
   xmlns:cc="http://creativecommons.org/ns#"
   xmlns:rdf="http://www.w3.org/1999/02/22-rdf-syntax-ns#"
   xmlns:svg="http://www.w3.org/2000/svg"
   xmlns="http://www.w3.org/2000/svg"
   xmlns:sodipodi="http://sodipodi.sourceforge.net/DTD/sodipodi-0.dtd"
   xmlns:inkscape="http://www.inkscape.org/namespaces/inkscape"
   version="1.1"
   id="Layer_1"
   x="0px"
   y="0px"
   width="76px"
   height="66px"
   viewBox="0 0 76 66"
   enable-background="new 0 0 76 66"
   xml:space="preserve"
   sodipodi:docname="Speaker_frog.svg"
   inkscape:version="0.92.1 r15371"><metadata
     id="metadata72"><rdf:RDF><cc:Work
         rdf:about=""><dc:format>image/svg+xml</dc:format><dc:type
           rdf:resource="http://purl.org/dc/dcmitype/StillImage" /><dc:title></dc:title></cc:Work></rdf:RDF></metadata><defs
     id="defs70" /><sodipodi:namedview
     pagecolor="#ffffff"
     bordercolor="#666666"
     borderopacity="1"
     objecttolerance="10"
     gridtolerance="10"
     guidetolerance="10"
     inkscape:pageopacity="0"
     inkscape:pageshadow="2"
     inkscape:window-width="1115"
     inkscape:window-height="1008"
     id="namedview68"
     showgrid="true"
     inkscape:snap-bbox="true"
     inkscape:snap-object-midpoints="false"
     inkscape:snap-center="false"
     inkscape:zoom="5.6568543"
     inkscape:cx="24.053811"
     inkscape:cy="24.554247"
     inkscape:window-x="0"
     inkscape:window-y="0"
     inkscape:window-maximized="0"
     inkscape:current-layer="Layer_1"><inkscape:grid
       type="xygrid"
       id="grid167" /></sodipodi:namedview><g
     id="g229"><rect
       id="rect47"
       height="14"
       width="8"
       y="23"
       x="16"
       fill="#64A01F" /><polygon
       id="polygon49"
       points="17,36 23,36 23,32.821 23,26.799 23,24 17,24 "
       fill="#FFFFFF" /><polygon
       id="polygon51"
       points="25,37 25,23 36,12 36,48 "
       fill="#64A01F" /><polygon
       id="polygon53"
       points="26,36.586 26,23.414 35,14.414 35,45.586 "
       fill="#FFFFFF" /><path
       id="path55"
       d="M36.182,35.343l1.172-1.042c1.422-1.266,2.238-3.07,2.238-4.952c0-1.751-0.682-3.406-1.92-4.658l-1.09-1.104  l3.393-3.395l1.104,1.114c2.138,2.16,3.313,5.016,3.313,8.042c0,3.246-1.399,6.355-3.844,8.531l-1.158,1.033L36.182,35.343z"
       fill="#64A01F" /><path
       id="path57"
       d="M40.368,22.011l-0.396-0.4l-1.979,1.98l0.392,0.396c1.424,1.44,2.208,3.345,2.208,5.361  c0,2.167-0.938,4.244-2.573,5.699l-0.42,0.374l1.871,2.082l0.416-0.371c2.229-1.985,3.508-4.823,3.508-7.784  C43.393,26.586,42.318,23.981,40.368,22.011z"
       fill="#FFFFFF" /><path
       id="path59"
       d="M40.26,39.882l1.164-1.044c2.709-2.417,4.262-5.876,4.262-9.489c0-3.377-1.313-6.56-3.703-8.963  l-1.096-1.104l3.396-3.394l1.104,1.11c3.288,3.31,5.102,7.695,5.102,12.351c0,4.976-2.135,9.737-5.857,13.064l-1.16,1.039  L40.26,39.882z"
       fill="#64A01F" /><path
       id="path61"
       d="M44.676,17.703l-0.396-0.399l-1.979,1.98l0.395,0.396c2.574,2.592,3.994,6.025,3.994,9.668  c0,3.896-1.674,7.628-4.596,10.234l-0.418,0.375l1.871,2.083l0.416-0.373c3.514-3.14,5.523-7.629,5.523-12.319  C49.486,24.96,47.777,20.824,44.676,17.703z"
       fill="#FFFFFF" /><path
       style="fill:#64a01f;fill-opacity:1"
       id="path63"
       d="M44.611,44.725l1.162-1.043c4.084-3.654,6.425-8.879,6.425-14.333c0-5.113-1.993-9.931-5.61-13.565  l-1.098-1.105l3.394-3.392l1.103,1.106C54.51,16.936,57,22.957,57,29.349c0,6.815-2.923,13.342-8.02,17.907l-1.16,1.038  L44.611,44.725z"
       fill="#64A01F" /><path
       id="path65"
       d="M49.277,13.099l-0.396-0.397l-1.98,1.979l0.396,0.397c3.806,3.823,5.902,8.892,5.902,14.271  c0,5.738-2.462,11.233-6.757,15.077l-0.418,0.375l1.873,2.083l0.416-0.373C53.198,42.136,56,35.88,56,29.349  C56,23.223,53.611,17.452,49.277,13.099z"
       fill="#FFFFFF" /></g><g
     style="fill:#64a01f;fill-opacity:1"
     id="g104"
     transform="matrix(0.03432343,0,0,0.03514143,54.614172,42.869492)" /><g
     style="fill:#64a01f;fill-opacity:1"
     id="g106"
     transform="matrix(0.03432343,0,0,0.03514143,54.614172,42.869492)" /><g
     style="fill:#64a01f;fill-opacity:1"
     id="g108"
     transform="matrix(0.03432343,0,0,0.03514143,54.614172,42.869492)" /><g
     style="fill:#64a01f;fill-opacity:1"
     id="g110"
     transform="matrix(0.03432343,0,0,0.03514143,54.614172,42.869492)" /><g
     style="fill:#64a01f;fill-opacity:1"
     id="g112"
     transform="matrix(0.03432343,0,0,0.03514143,54.614172,42.869492)" /><g
     style="fill:#64a01f;fill-opacity:1"
     id="g114"
     transform="matrix(0.03432343,0,0,0.03514143,54.614172,42.869492)" /><g
     style="fill:#64a01f;fill-opacity:1"
     id="g116"
     transform="matrix(0.03432343,0,0,0.03514143,54.614172,42.869492)" /><g
     style="fill:#64a01f;fill-opacity:1"
     id="g118"
     transform="matrix(0.03432343,0,0,0.03514143,54.614172,42.869492)" /><g
     style="fill:#64a01f;fill-opacity:1"
     id="g120"
     transform="matrix(0.03432343,0,0,0.03514143,54.614172,42.869492)" /><g
     style="fill:#64a01f;fill-opacity:1"
     id="g122"
     transform="matrix(0.03432343,0,0,0.03514143,54.614172,42.869492)" /><g
     style="fill:#64a01f;fill-opacity:1"
     id="g124"
     transform="matrix(0.03432343,0,0,0.03514143,54.614172,42.869492)" /><g
     style="fill:#64a01f;fill-opacity:1"
     id="g126"
     transform="matrix(0.03432343,0,0,0.03514143,54.614172,42.869492)" /><g
     style="fill:#64a01f;fill-opacity:1"
     id="g128"
     transform="matrix(0.03432343,0,0,0.03514143,54.614172,42.869492)" /><g
     style="fill:#64a01f;fill-opacity:1"
     id="g130"
     transform="matrix(0.03432343,0,0,0.03514143,54.614172,42.869492)" /><g
     style="fill:#64a01f;fill-opacity:1"
     id="g132"
     transform="matrix(0.03432343,0,0,0.03514143,54.614172,42.869492)" /><g
     id="g65"
     transform="matrix(0.0396087,0,0,0.03190745,56.239504,20.762376)" /><g
     id="g67"
     transform="matrix(0.0396087,0,0,0.03190745,56.239504,20.762376)" /><g
     id="g69"
     transform="matrix(0.0396087,0,0,0.03190745,56.239504,20.762376)" /><g
     id="g71"
     transform="matrix(0.0396087,0,0,0.03190745,56.239504,20.762376)" /><g
     id="g73"
     transform="matrix(0.0396087,0,0,0.03190745,56.239504,20.762376)" /><g
     id="g75"
     transform="matrix(0.0396087,0,0,0.03190745,56.239504,20.762376)" /><g
     id="g77"
     transform="matrix(0.0396087,0,0,0.03190745,56.239504,20.762376)" /><g
     id="g79"
     transform="matrix(0.0396087,0,0,0.03190745,56.239504,20.762376)" /><g
     id="g81"
     transform="matrix(0.0396087,0,0,0.03190745,56.239504,20.762376)" /><g
     id="g83"
     transform="matrix(0.0396087,0,0,0.03190745,56.239504,20.762376)" /><g
     id="g85"
     transform="matrix(0.0396087,0,0,0.03190745,56.239504,20.762376)" /><g
     id="g87"
     transform="matrix(0.0396087,0,0,0.03190745,56.239504,20.762376)" /><g
     id="g89"
     transform="matrix(0.0396087,0,0,0.03190745,56.239504,20.762376)" /><g
     id="g91"
     transform="matrix(0.0396087,0,0,0.03190745,56.239504,20.762376)" /><g
     id="g93"
     transform="matrix(0.0396087,0,0,0.03190745,56.239504,20.762376)" /><g
     id="g2984"
     transform="translate(28.101171,-16)"><path
       inkscape:connector-curvature="0"
       id="path2953"
       d="m 17.460608,57.519153 c -0.367107,0 -0.707216,0.166439 -0.988282,0.451172 -0.01404,0.01772 -0.0287,0.03498 -0.04492,0.04883 -0.428147,0.46397 -0.707032,1.207751 -0.707032,2.044922 0,0.517892 0.106576,0.999931 0.289063,1.402344 0.0031,0.0065 0.0069,0.01273 0.0098,0.01953 0.156574,0.338289 0.366725,0.618476 0.613281,0.814453 0.246556,0.195978 0.528288,0.306641 0.828125,0.306641 0.479889,0 0.915293,-0.28536 1.230468,-0.746094 0.315176,-0.460734 0.509766,-1.095367 0.509766,-1.796875 0,-0.701508 -0.19459,-1.338094 -0.509766,-1.798828 -0.315175,-0.460734 -0.750579,-0.746094 -1.230468,-0.746094 z"
       style="opacity:1;fill:#ffffff;fill-opacity:1;stroke:none;stroke-width:0.248;stroke-linecap:round;stroke-linejoin:round;stroke-miterlimit:4;stroke-dasharray:none;stroke-opacity:1;paint-order:normal" /><path
       inkscape:connector-curvature="0"
       id="path2955"
       d="m 30.435662,57.520714 c -0.479889,0 -0.91334,0.28536 -1.228515,0.746094 -0.315176,0.460734 -0.511719,1.09732 -0.511719,1.798828 0,0.701508 0.196543,1.336141 0.511719,1.796875 0.315175,0.460734 0.748626,0.746094 1.228515,0.746094 0.299857,0 0.583507,-0.110627 0.830078,-0.306641 0.246571,-0.196014 0.456707,-0.476115 0.613281,-0.814453 0.0028,-0.0067 0.0067,-0.01313 0.0098,-0.01953 0.182564,-0.402413 0.289063,-0.884354 0.289063,-1.402344 0,-0.83722 -0.278767,-1.580953 -0.707032,-2.044922 -0.01614,-0.0138 -0.03092,-0.03117 -0.04492,-0.04883 -0.281066,-0.284733 -0.623128,-0.451172 -0.990235,-0.451172 z"
       style="opacity:1;fill:#ffffff;fill-opacity:1;stroke:none;stroke-width:0.248;stroke-linecap:round;stroke-linejoin:round;stroke-miterlimit:4;stroke-dasharray:none;stroke-opacity:1;paint-order:normal" /><path
       inkscape:connector-curvature="0"
       id="path2951"
       d="m 17.84037,56.779569 c 0.564704,0.127492 1.064322,0.534681 1.421875,1.117188 0.357553,0.582506 0.572266,1.340951 0.572266,2.167968 0,0.917346 -0.265525,1.749062 -0.695313,2.351563 -0.429788,0.602501 -1.023351,0.974609 -1.677734,0.974609 -0.567434,0 -1.089245,-0.280653 -1.498047,-0.748047 -0.13897,0.33479 -0.374277,0.578575 -0.59375,0.804688 -0.224972,0.231789 -0.452444,0.465917 -0.625,0.8125 -0.172556,0.346582 -0.289063,0.80531 -0.289063,1.480469 0,0.472483 0.316681,1.104754 0.861328,1.783203 0.544648,0.678449 1.317617,1.402755 2.226563,2.0625 1.042634,0.756801 2.161516,1.360285 3.261719,1.77539 1.100203,0.415105 2.18137,0.642578 3.144531,0.642578 0.963161,0 2.042375,-0.227472 3.142578,-0.642578 1.100203,-0.415105 2.221038,-1.018589 3.263672,-1.77539 0.908946,-0.659745 1.679962,-1.384051 2.224609,-2.0625 0.544647,-0.678449 0.863282,-1.31072 0.863282,-1.783203 0,-0.675159 -0.116507,-1.133887 -0.289063,-1.480469 -0.172556,-0.346583 -0.401982,-0.580711 -0.626953,-0.8125 -0.219473,-0.226113 -0.454819,-0.469898 -0.59375,-0.804688 -0.408802,0.467394 -0.92866,0.748047 -1.496094,0.748047 -0.654383,0 -1.247946,-0.372108 -1.677734,-0.974609 -0.429788,-0.602501 -0.697266,-1.434217 -0.697266,-2.351563 0,-0.827017 0.216671,-1.585462 0.574219,-2.167968 0.357548,-0.582507 0.857191,-0.989697 1.421875,-1.117188 -0.609088,-0.148067 -1.22541,0.01381 -1.650391,0.433594 -0.792662,0.78293 -1.532479,1.348441 -2.261718,1.71875 -0.729239,0.370308 -1.448119,0.544922 -2.197266,0.544922 -0.749147,0 -1.468027,-0.174614 -2.197266,-0.544922 -0.729239,-0.370308 -1.469056,-0.93582 -2.261718,-1.71875 -0.424942,-0.419733 -1.041223,-0.581612 -1.650391,-0.433594 z"
       style="opacity:1;fill:#ffffff;fill-opacity:1;stroke:none;stroke-width:0.248;stroke-linecap:round;stroke-linejoin:round;stroke-miterlimit:4;stroke-dasharray:none;stroke-opacity:1;paint-order:normal" /><g
       transform="matrix(0.03955892,0,0,0.04893161,13.822331,51.838259)"
       id="g2927"><g
         id="g2865"><path
           style="fill:#64a01f;fill-opacity:1;stroke:#64a01f;stroke-width:5.54591036;stroke-miterlimit:4;stroke-dasharray:none;stroke-opacity:1"
           inkscape:connector-curvature="0"
           d="M 472,268.109 H 40 c -4.418,0 -8,3.582 -8,8 0,4.418 3.582,8 8,8 h 432 c 4.418,0 8,-3.582 8,-8 0,-4.418 -3.582,-8 -8,-8 z"
           id="path2851" /><path
           style="fill:#64a01f;fill-opacity:1;stroke:#64a01f;stroke-width:5.54591036;stroke-miterlimit:4;stroke-dasharray:none;stroke-opacity:1"
           inkscape:connector-curvature="0"
           d="M 320,300.109 H 192 c -4.418,0 -8,3.582 -8,8 0,4.418 3.582,8 8,8 h 128 c 4.418,0 8,-3.582 8,-8 0,-4.418 -3.582,-8 -8,-8 z"
           id="path2853" /><path
           style="fill:#64a01f;fill-opacity:1;stroke:#64a01f;stroke-width:5.54591036;stroke-miterlimit:4;stroke-dasharray:none;stroke-opacity:1"
           inkscape:connector-curvature="0"
           d="m 483.105,224.948 c -9.717,-8.094 -13.741,-11.93 -11.921,-21.398 5.588,-10.328 8.816,-22.464 8.816,-35.441 0,-21.712 -9.036,-41.065 -23.059,-53.524 -8.67,-14.833 -24.283,-25.463 -43.123,-29.246 -20.05,-4.025 -40.644,0.458 -55.09,11.994 -37.046,29.583 -68.729,42.775 -102.728,42.775 -33.999,0 -65.682,-13.192 -102.728,-42.775 C 138.826,85.797 118.234,81.313 98.182,85.339 79.342,89.122 63.729,99.751 55.059,114.585 41.036,127.043 32,146.397 32,168.109 c 0,12.977 3.228,25.113 8.816,35.441 1.82,9.468 -2.204,13.304 -11.921,21.398 C 16.701,235.105 0,249.017 0,284.109 c 0,30.939 44.4,68.017 85.951,92.4 55.883,32.792 117.864,51.6 170.049,51.6 52.185,0 114.166,-18.808 170.049,-51.6 C 467.6,352.126 512,315.048 512,284.109 512,249.017 495.299,235.105 483.105,224.948 Z M 464,168.109 c 0,10.586 -2.697,20.437 -7.312,28.661 -0.078,0.13 -0.148,0.266 -0.219,0.402 -7.916,13.829 -21.31,22.938 -36.47,22.938 -24.262,0 -44,-23.327 -44,-52 0,-28.673 19.738,-52 44,-52 9.28,0 17.893,3.422 24.998,9.241 0.354,0.361 0.738,0.682 1.146,0.964 10.826,9.482 17.857,24.684 17.857,41.794 z M 65.853,126.317 c 0.41,-0.283 0.795,-0.605 1.15,-0.967 7.105,-5.819 15.717,-9.24 24.997,-9.24 24.262,0 44,23.327 44,52 0,28.673 -19.738,52 -44,52 -15.159,0 -28.552,-9.107 -36.468,-22.934 C 55.46,197.038 55.388,196.9 55.309,196.767 50.696,188.543 48,178.693 48,168.109 48,151 55.03,135.799 65.853,126.317 Z m 352.098,236.392 c -52.713,30.933 -113.256,49.4 -161.951,49.4 -48.695,0 -109.238,-18.467 -161.951,-49.4 C 48.095,335.743 16,303.421 16,284.109 c 0,-27.596 11.761,-37.393 23.135,-46.867 5.548,-4.621 11.494,-9.584 15.007,-16.426 10.334,9.552 23.514,15.293 37.858,15.293 33.084,0 60,-30.505 60,-68 0,-33.803 -21.879,-61.914 -50.429,-67.125 15.399,-3.025 30.974,0.274 41.716,8.852 40.075,32.001 74.837,46.272 112.712,46.272 37.875,0 72.637,-14.271 112.712,-46.272 10.743,-8.579 26.32,-11.878 41.717,-8.852 -28.549,5.211 -50.428,33.322 -50.428,67.125 0,37.495 26.916,68 60,68 14.344,0 27.524,-5.741 37.858,-15.293 3.512,6.842 9.459,11.805 15.007,16.426 11.374,9.474 23.135,19.271 23.135,46.867 0,19.312 -32.095,51.634 -78.049,78.6 z"
           id="path2855" /><path
           style="fill:#64a01f;fill-opacity:1"
           inkscape:connector-curvature="0"
           d="m 92,180.109 c 8.445,0 36,-1.154 36,-16 0,-14.846 -27.555,-16 -36,-16 -8.445,0 -36,1.154 -36,16 0,14.846 27.555,16 36,16 z"
           id="path2857" /><path
           style="fill:#64a01f;fill-opacity:1"
           inkscape:connector-curvature="0"
           d="m 384,164.109 c 0,14.846 27.555,16 36,16 8.445,0 36,-1.154 36,-16 0,-14.846 -27.555,-16 -36,-16 -8.445,0 -36,1.154 -36,16 z"
           id="path2859" /><path
           style="fill:#64a01f;fill-opacity:1;stroke:#64a01f;stroke-width:5.54591036;stroke-miterlimit:4;stroke-dasharray:none;stroke-opacity:1"
           inkscape:connector-curvature="0"
           d="m 232,228.109 c 4.418,0 8,-3.582 8,-8 v -8 c 0,-4.418 -3.582,-8 -8,-8 -4.418,0 -8,3.582 -8,8 v 8 c 0,4.418 3.582,8 8,8 z"
           id="path2861" /><path
           style="fill:#64a01f;fill-opacity:1;stroke:#64a01f;stroke-width:5.54591036;stroke-miterlimit:4;stroke-dasharray:none;stroke-opacity:1"
           inkscape:connector-curvature="0"
           d="m 280,228.109 c 4.418,0 8,-3.582 8,-8 v -8 c 0,-4.418 -3.582,-8 -8,-8 -4.418,0 -8,3.582 -8,8 v 8 c 0,4.418 3.582,8 8,8 z"
           id="path2863" /></g><g
         id="g2867" /><g
         id="g2869" /><g
         id="g2871" /><g
         id="g2873" /><g
         id="g2875" /><g
         id="g2877" /><g
         id="g2879" /><g
         id="g2881" /><g
         id="g2883" /><g
         id="g2885" /><g
         id="g2887" /><g
         id="g2889" /><g
         id="g2891" /><g
         id="g2893" /><g
         id="g2895" /></g></g></svg>